<?xml version="1.0" standalone="no"?>
<!DOCTYPE svg PUBLIC "-//W3C//DTD SVG 1.1//EN" "http://www.w3.org/Graphics/SVG/1.1/DTD/svg11.dtd" >
<svg xmlns="http://www.w3.org/2000/svg" xmlns:xlink="http://www.w3.org/1999/xlink" version="1.1">
<metadata>
Created by FontForge 20201107 at Fri Feb 17 18:11:36 2017
 By 
Copyright (c) 1996-2015 Pushpananda Ekanayake (pushpanandae@gmail.com) Copyright (c) 2015 Sol Matas (sol@sonnenshine.com.ar) Copyright (c) 2015 Mooniak (hello@mooniak.com)
</metadata>
<defs>
<font id="AbhayaLibre-Medium" horiz-adv-x="583" >
  <font-face 
    font-family="Abhaya Libre Medium"
    font-weight="500"
    font-stretch="normal"
    units-per-em="1024"
    panose-1="2 0 6 3 0 0 0 0 0 0"
    ascent="819"
    descent="-205"
    x-height="426"
    cap-height="600"
    bbox="-580 -340 1641 856"
    underline-thickness="0"
    underline-position="0"
    unicode-range="U+0020-FB02"
  />
<missing-glyph horiz-adv-x="631" 
d="M50 -93v847h531v-847h-531zM265 81q0 22 21 30q4 1 9 1q22 0 29 -22q1 -5 1 -9q0 -21 -20 -28q-6 -2 -10 -2q-21 0 -28 21q-2 5 -2 9zM102 701v-742h426v742h-426zM178 489q54 69 132 70q90 0 127 -71q17 -32 18 -71q1 -92 -74 -131q-30 -16 -61 -17v-128h-50v173
q111 1 130 63q5 16 5 36q0 59 -46 86q-22 14 -51 14q-56 0 -97 -54z" />
    <glyph glyph-name="fi" unicode="fi" horiz-adv-x="584" 
d="M243 26h-53v374h211v-322q0 -44 -45 -51q-11 -1 -24 -1v-26h229q0 23 -13 25q-5 1 -11 1h-50v400h-297v6q0 158 65 188q21 10 50 10q48 0 70 -42q3 -6 8 -17q18 -37 36 -46q12 -5 26 -5q38 0 47 31q2 7 2 13q0 41 -52 68q-46 23 -114 23q-146 0 -198 -100
q-25 -48 -25 -114v-15h-73v-26h73v-322q-2 -52 -76 -52v-26h238q0 23 -13 25q-5 1 -11 1z" />
    <glyph glyph-name="fl" unicode="fl" horiz-adv-x="590" 
d="M567 0q0 23 -13 25q-5 1 -11 1h-54v624h-124q-47 5 -80 5q-110 0 -155 -92q-25 -51 -25 -122v-15h-73v-26h73v-322q-2 -52 -76 -52v-26h237q0 23 -13 25q-5 1 -11 1h-52v374h108v26h-108v6q0 140 41 176q24 21 67 21q57 0 105 -19v-530q0 -41 -28 -50q-16 -4 -44 -4v-26
h236z" />
    <glyph glyph-name=".notdef" horiz-adv-x="631" 
d="M50 -93v847h531v-847h-531zM265 81q0 22 21 30q4 1 9 1q22 0 29 -22q1 -5 1 -9q0 -21 -20 -28q-6 -2 -10 -2q-21 0 -28 21q-2 5 -2 9zM102 701v-742h426v742h-426zM178 489q54 69 132 70q90 0 127 -71q17 -32 18 -71q1 -92 -74 -131q-30 -16 -61 -17v-128h-50v173
q111 1 130 63q5 16 5 36q0 59 -46 86q-22 14 -51 14q-56 0 -97 -54z" />
    <glyph glyph-name=".null" horiz-adv-x="0" 
 />
    <glyph glyph-name="nonmarkingreturn" horiz-adv-x="341" 
 />
    <glyph glyph-name="space" unicode=" " horiz-adv-x="195" 
 />
    <glyph glyph-name="exclam" unicode="!" horiz-adv-x="270" 
d="M150 172q0 126 29 275q13 66 13 98q-2 64 -56 65q-57 -2 -58 -67q0 -29 19 -128q22 -119 22 -243h31zM189 50q0 35 -31 50q-12 6 -24 6q-34 0 -49 -31q-6 -13 -6 -25q0 -35 32 -50q11 -5 23 -5q35 0 50 32q5 11 5 23z" />
    <glyph glyph-name="quotedbl" unicode="&#x22;" horiz-adv-x="306" 
d="M90 656q-36 0 -44 -31q-1 -6 -1 -12q0 -12 17 -86q11 -45 14 -81h27q3 32 24 126q7 29 7 43q0 33 -32 40q-6 1 -12 1zM218 656q-41 -7 -45 -43q0 -11 17 -85q10 -46 13 -82h28q2 34 24 127q6 28 6 42q0 33 -31 40q-6 1 -12 1z" />
    <glyph glyph-name="numbersign" unicode="#" horiz-adv-x="579" 
d="M320 -10h32l27 204h127v48h-121l17 126h117v48h-111l24 184h-32l-24 -184h-140l24 184h-32l-24 -184h-131v-48h125l-17 -126h-121v-48h115l-27 -204h32l27 204h140zM353 242h-140l17 126h140z" />
    <glyph glyph-name="dollar" unicode="$" horiz-adv-x="543" 
d="M163 486q0 66 63 88q17 5 36 7v-215q-86 43 -97 99q-2 11 -2 21zM401 131q-2 -96 -110 -110v235q87 -41 104 -91q6 -17 6 -34zM291 -91v83q124 9 176 80q28 38 28 87q0 85 -94 140q-21 12 -110 53v230q58 -4 74 -51q3 -8 7 -25q9 -42 26 -53q14 -8 35 -8q45 7 49 55
q0 59 -81 90q-49 19 -110 20v89h-29v-90q-111 -8 -163 -70q-30 -36 -30 -83q0 -84 95 -140q26 -15 98 -47v-250h-5q-64 0 -80 49q-4 10 -8 31q-8 45 -25 58q-15 10 -39 10q-45 0 -55 -42q-2 -9 -2 -18q0 -59 79 -92q57 -24 134 -24h1v-82h29z" />
    <glyph glyph-name="percent" unicode="%" horiz-adv-x="810" 
d="M194 -30l435 640l-31 21l-436 -641zM212 618q-88 0 -131 -69q-25 -42 -25 -98q0 -108 74 -152q35 -20 79 -20q90 0 133 72q24 41 24 97q0 113 -79 153q-34 17 -75 17zM211 299q-50 0 -64 62q-7 33 -7 87q0 123 42 144q13 6 29 6q49 0 63 -63q7 -32 7 -84q0 -141 -59 -151
q-6 -1 -11 -1zM595 329q-88 0 -131 -69q-25 -42 -25 -98q0 -108 74 -152q35 -20 79 -20q90 0 133 72q24 41 24 97q0 113 -79 153q-34 17 -75 17zM594 10q-50 0 -64 62q-7 33 -7 87q0 123 42 144q13 6 29 6q49 0 63 -63q7 -33 7 -84q0 -141 -59 -151q-6 -1 -11 -1z" />
    <glyph glyph-name="ampersand" unicode="&#x26;" horiz-adv-x="591" 
d="M230 505q0 58 46 75q13 4 26 4q55 0 69 -49q3 -12 3 -25q0 -46 -48 -83q-27 -21 -62 -31q-34 70 -34 109zM269 20q-126 0 -141 144q-2 19 -2 38q0 90 50 129q13 9 26 13q65 -125 195 -279q-57 -45 -128 -45zM526 319h-1h3l31 1q23 0 26 12q2 7 2 15h-144v-26h55
q0 -111 -47 -191q-118 142 -175 244q81 24 113 87q13 25 13 49q0 66 -57 90q-23 10 -49 10q-93 0 -127 -64q-14 -27 -14 -60q1 -46 36 -120q-123 -35 -151 -136q-7 -26 -7 -54q0 -91 69 -144q55 -42 135 -42q107 1 177 56q14 -17 41 -46h147q0 23 -16 25q-4 1 -9 1h-33
q-50 55 -74 82q56 87 56 211z" />
    <glyph glyph-name="quotesingle" unicode="'" horiz-adv-x="185" 
d="M93 656q-41 0 -47 -33q-1 -6 -1 -10q0 -12 19 -82q12 -48 15 -85h27q3 34 26 125q8 30 8 44q0 32 -33 40q-7 1 -14 1z" />
    <glyph glyph-name="parenleft" unicode="(" horiz-adv-x="336" 
d="M312 650q-141 -38 -213 -183q-49 -101 -49 -221q0 -168 89 -282q68 -86 170 -114l10 26q-111 41 -156 199q-23 81 -23 173q0 178 75 289q45 64 106 87z" />
    <glyph glyph-name="parenright" unicode=")" horiz-adv-x="338" 
d="M26 650q141 -38 213 -183q49 -101 49 -221q0 -168 -89 -282q-68 -86 -170 -114l-10 26q111 41 156 199q23 81 23 173q0 178 -75 289q-45 64 -106 87z" />
    <glyph glyph-name="asterisk" unicode="*" horiz-adv-x="343" 
d="M172 650q-31 0 -37 -25q-1 -5 -1 -8q0 -9 17 -66q9 -28 12 -49q-14 11 -58 58q-28 28 -45 29q-22 0 -33 -27q-3 -8 -3 -15q1 -19 16 -28q7 -4 67 -18q27 -7 47 -14q-16 -6 -86 -24q-19 -5 -28 -10q-16 -10 -17 -26q0 -24 21 -38q8 -5 17 -5q18 0 54 39q32 35 48 48
q-2 -15 -23 -86q-6 -20 -6 -30q7 -28 37 -32q36 5 39 33q0 9 -17 65q-9 29 -12 51q12 -9 56 -56q30 -32 46 -32q24 0 34 26q3 9 3 16q-1 19 -17 28q-7 4 -66 18q-27 7 -46 14q12 5 83 23q21 6 30 11q17 10 17 26q0 24 -21 38q-9 5 -18 5q-18 0 -52 -38q-32 -36 -49 -49
q2 14 23 84q6 21 6 32q-7 28 -38 32z" />
    <glyph glyph-name="plus" unicode="+" horiz-adv-x="465" 
d="M423 215v38h-167v178h-47v-178h-167v-38h167v-178h47v178h167z" />
    <glyph glyph-name="comma" unicode="," horiz-adv-x="192" 
d="M156 40q0 55 -41 67q-9 3 -18 3q-33 0 -47 -32q-5 -11 -5 -23q0 -34 33 -47q5 -2 10 -3q23 -6 24 -19q-1 -28 -43 -72l21 -15q62 71 66 141z" />
    <glyph glyph-name="short_dash1" unicode="-" horiz-adv-x="335" 
d="M43 232h223v-45h-223v45z" />
    <glyph glyph-name="period" unicode="." horiz-adv-x="200" 
d="M155 50q0 35 -31 50q-12 6 -24 6q-34 0 -49 -31q-6 -13 -6 -25q0 -35 32 -50q11 -5 23 -5q35 0 50 32q5 11 5 23z" />
    <glyph glyph-name="slash" unicode="/" horiz-adv-x="416" 
d="M65 -155l341 865h-65l-341 -865h65z" />
    <glyph glyph-name="zero" unicode="0" horiz-adv-x="532" 
d="M270 542q-113 0 -176 -90q-51 -73 -51 -182q0 -167 97 -240q54 -40 125 -40q112 0 174 92q50 74 50 184q0 175 -103 243q-50 33 -116 33zM268 16q-85 0 -112 103q-14 57 -14 147q0 210 84 243q18 7 41 7q80 0 106 -90q17 -57 17 -156q0 -214 -82 -247q-18 -7 -40 -7z" />
    <glyph glyph-name="one" unicode="1" horiz-adv-x="423" 
d="M223 532l-203 -133l18 -29l154 97v-432l-135 -9v-26h351q0 22 -19 26q-4 1 -8 1l-99 8v497h-59z" />
    <glyph glyph-name="two" unicode="2" horiz-adv-x="473" 
d="M83 76q0 31 72 75q14 9 46 28q111 64 152 107q50 53 50 112q0 93 -95 128q-42 16 -94 16q-94 0 -148 -49q-35 -34 -35 -79q0 -42 31 -53q8 -3 16 -3q41 0 50 42q2 10 4 31q5 53 24 70q17 15 49 15q84 0 100 -81q3 -16 3 -34q0 -95 -83 -161q-10 -8 -88 -60
q-73 -49 -94 -96q-13 -29 -13 -62v-22h386l2 172h-20l-16 -52q-12 -36 -39 -42q-12 -2 -34 -2h-226z" />
    <glyph glyph-name="three" unicode="3" horiz-adv-x="506" 
d="M436 511v21h-378l-2 -169h24l18 54q11 35 45 40q11 1 33 1h158l-179 -207l23 -19q36 15 70 15q70 0 100 -70q14 -34 14 -77q-2 -154 -146 -155q-55 0 -67 49q-2 10 -5 33q-5 49 -22 62q-13 9 -33 9q-38 0 -47 -36q-2 -8 -2 -16q0 -70 79 -105q48 -21 110 -21
q124 0 188 83q38 51 38 111q0 81 -60 128q-47 36 -115 36q-31 0 -67 -8z" />
    <glyph glyph-name="four" unicode="4" horiz-adv-x="503" 
d="M463 -69q0 24 -13 26q-5 1 -11 1h-67v128h91v30h-91v199h-21l-11 -39q-9 -34 -28 -39q-8 -3 -20 -3h-7v-117l-232 1q299 248 320 357q2 9 2 17q-2 50 -51 51q-36 0 -54 -39q-6 -12 -17 -45q-40 -114 -98 -192q-59 -77 -146 -149l6 -30l270 -1v-129h-108v-27h286z" />
    <glyph glyph-name="five" unicode="5" horiz-adv-x="485" 
d="M451 115q0 95 -71 147q-51 38 -124 38q-78 -1 -135 -39v191q82 -8 137 -8q104 0 131 27q24 26 24 101h-24q-9 -33 -39 -41q-23 -7 -73 -7q-31 0 -189 8v-282l33 -25q50 39 108 39q94 0 121 -91q8 -29 8 -63q0 -116 -75 -152q-28 -13 -62 -13q-53 0 -64 47q-3 11 -5 33
q-5 49 -21 62q-13 10 -34 10q-45 -8 -50 -52q0 -60 63 -97q49 -28 115 -28q126 0 188 82q38 49 38 113z" />
    <glyph glyph-name="six" unicode="6" horiz-adv-x="515" 
d="M472 185q0 106 -83 157q-49 29 -110 29q-74 -1 -130 -42q9 177 62 229q30 28 74 28q58 0 70 -45q3 -9 5 -28q6 -41 22 -52q12 -7 30 -7q42 0 50 40q1 7 1 13q0 53 -65 84q-45 21 -103 21q-143 0 -207 -132q-39 -81 -39 -193q0 -189 99 -262q49 -35 115 -35q108 0 167 73
q42 51 42 122zM144 174q0 129 79 160q20 8 42 8q86 0 107 -94q6 -28 6 -61q-1 -170 -116 -171q-85 0 -110 90q-8 31 -8 68z" />
    <glyph glyph-name="seven" unicode="7" horiz-adv-x="454" 
d="M461 510v22h-431l-2 -177h23l18 54q12 39 48 44q12 2 30 2h242q-194 -281 -222 -325q-68 -110 -68 -159q0 -42 39 -50q7 -1 14 -1q37 0 52 31q5 10 30 98q61 217 227 461z" />
    <glyph glyph-name="eight" unicode="8" horiz-adv-x="539" 
d="M255 -10q106 0 172 59q48 45 49 107q0 77 -90 136q-19 13 -45 27q85 44 98 125q2 12 2 23q0 89 -84 127q-40 18 -90 18q-102 0 -156 -62q-34 -40 -34 -95q0 -74 91 -132q13 -8 27 -16q-105 -31 -131 -116q-6 -22 -6 -44q0 -89 82 -132q50 -25 115 -25zM162 492
q0 66 68 86q22 6 47 6q69 0 106 -48q24 -30 24 -70q0 -67 -58 -111q-17 -12 -36 -21q-90 49 -119 80q-32 36 -32 78zM92 149q0 69 63 111q32 20 73 29q94 -50 122 -76q42 -38 42 -84q0 -77 -81 -102q-29 -9 -64 -9q-80 0 -125 51q-30 33 -30 80z" />
    <glyph glyph-name="nine" unicode="9" horiz-adv-x="518" 
d="M469 248q0 181 -98 255q-52 39 -123 39q-114 0 -171 -76q-34 -48 -34 -110q0 -105 84 -153q47 -26 107 -26q79 1 136 47q-5 -235 -100 -271q-19 -7 -41 -7q-57 0 -69 46q-2 8 -5 27q-5 41 -21 52q-12 8 -31 8q-40 0 -49 -36q-2 -7 -2 -15q0 -56 65 -87q44 -21 100 -21
q157 0 219 145q33 77 33 183zM137 370q2 145 112 146q89 0 112 -96q7 -28 7 -61q0 -126 -88 -147q-16 -4 -33 -4q-109 2 -110 162z" />
    <glyph glyph-name="colon" unicode=":" horiz-adv-x="207" 
d="M157 334q0 34 -31 49q-11 5 -23 5q-33 0 -48 -31q-5 -11 -5 -23q0 -33 30 -48q11 -5 23 -5q34 0 49 30q5 12 5 23zM157 102q0 34 -31 49q-11 5 -23 5q-33 0 -48 -31q-5 -12 -5 -23q0 -34 30 -49q12 -5 23 -5q34 0 49 31q5 11 5 23z" />
    <glyph glyph-name="semicolon" unicode=";" horiz-adv-x="192" 
d="M152 286q0 33 -31 48q-11 5 -23 5q-33 0 -48 -30q-5 -11 -5 -23q0 -35 31 -48q11 -5 22 -5q36 0 49 31q5 11 5 22zM156 56q0 55 -41 67q-9 3 -18 3q-33 0 -47 -31q-5 -11 -5 -23q0 -35 33 -48q6 -2 10 -3q23 -6 24 -19q-1 -28 -43 -72l21 -15q62 71 66 141z" />
    <glyph glyph-name="less" unicode="&#x3c;" horiz-adv-x="458" 
d="M401 75l15 34l-313 127l313 128l-13 31l-361 -145v-30z" />
    <glyph glyph-name="equal" unicode="=" horiz-adv-x="465" 
d="M423 270v38h-381v-38h381zM423 160v38h-381v-38h381z" />
    <glyph glyph-name="greater" unicode="&#x3e;" horiz-adv-x="458" 
d="M57 395l-15 -34l313 -127l-313 -128l13 -31l361 145v30z" />
    <glyph glyph-name="question" unicode="?" horiz-adv-x="459" 
d="M223 172q0 82 67 146q11 11 34 30q55 47 70 78q13 26 13 55q0 90 -98 119q-36 10 -79 10q-94 0 -144 -45q-27 -26 -28 -59q4 -51 51 -53q39 0 47 38q2 7 4 24q5 46 23 59q15 10 40 10q81 -2 82 -84q0 -66 -42 -132q-40 -63 -49 -85q-21 -50 -21 -111h30zM264 50
q0 35 -31 50q-12 6 -24 6q-34 0 -49 -31q-6 -12 -6 -25q0 -35 32 -50q11 -5 23 -5q35 0 50 32q5 11 5 23z" />
    <glyph glyph-name="at" unicode="@" horiz-adv-x="892" 
d="M670 -118l-12 25q-87 -42 -176 -42q-141 0 -237 96q-99 101 -99 256q0 161 92 255q82 83 212 83q129 0 214 -91q90 -96 90 -258q0 -115 -59 -156q-20 -15 -43 -15q-48 2 -49 59v183q-2 139 -152 140q-108 0 -142 -50q-9 -14 -9 -29q0 -28 25 -35q7 -2 13 -2q34 0 44 32
q1 4 4 13q8 34 26 42q12 6 29 6q77 -2 78 -94v-57q-192 -2 -232 -74q-12 -23 -12 -53q0 -77 71 -99q21 -6 44 -6q69 0 111 50q11 14 18 29q11 -63 87 -77q18 -3 36 -3q88 0 140 68q44 57 44 141q0 194 -136 294q-98 70 -231 70q-204 0 -314 -137q-84 -105 -84 -254
q0 -166 122 -269q112 -94 269 -94q114 0 218 53zM423 49q-45 0 -57 51q-3 15 -3 31q0 67 95 81q27 4 61 5v-73q-17 -67 -66 -89q-15 -6 -30 -6z" />
    <glyph glyph-name="A" unicode="A" horiz-adv-x="620" 
d="M620 0q0 23 -16 25q-5 1 -10 1h-33l-230 574h-45l-223 -574h-63v-26h179q0 23 -15 25q-5 1 -10 1h-51l75 194h207l75 -194h-67v-26h227zM373 249h-184l92 239z" />
    <glyph glyph-name="B" unicode="B" horiz-adv-x="594" 
d="M514 464q0 78 -76 114q-47 22 -112 22h-290v-26h80v-548h-80v-26h296q130 0 190 81q31 43 31 94q0 86 -79 128q-32 17 -72 24q76 27 102 91q10 24 10 46zM295 574q104 0 116 -94q2 -12 2 -24q0 -69 -53 -100q-28 -17 -65 -17h-83v235h83zM316 312q89 0 119 -77
q11 -28 11 -60q0 -82 -53 -124q-32 -25 -76 -25h-105v286h104z" />
    <glyph glyph-name="C" unicode="C" horiz-adv-x="619" 
d="M547 45q0 -42 14 -48q6 -2 18 -2v191h-26q-50 -167 -201 -168q-139 0 -179 154q-15 57 -15 129q0 191 104 255q42 26 94 26q146 -2 194 -164h26l-3 187q-23 0 -28 -15q-2 -12 -2 -36q-57 44 -151 54q-21 2 -42 2q-160 0 -245 -117q-59 -83 -59 -191q0 -131 82 -220
q86 -92 225 -92q102 1 194 55z" />
    <glyph glyph-name="D" unicode="D" horiz-adv-x="677" 
d="M36 600v-26h80v-548h-80v-26h280q137 0 225 85q85 83 85 215q0 171 -126 251q-78 49 -182 49h-282zM316 574q149 0 188 -140q15 -55 15 -130q-1 -277 -201 -278h-106v548h104z" />
    <glyph glyph-name="E" unicode="E" horiz-adv-x="559" 
d="M510 418l-5 182h-469v-26h80v-548h-80v-26h469l5 182h-22l-16 -51q-26 -86 -80 -101q-14 -4 -29 -4h-151v269h204v29h-204v250h151q77 0 108 -101q1 -2 1 -4l16 -51h22z" />
    <glyph glyph-name="F" unicode="F" horiz-adv-x="519" 
d="M332 0v26h-120v269h204v29h-204v250h151q77 0 108 -101q1 -2 1 -4l16 -52h22l-5 183h-469v-26h80v-548h-80v-26h296z" />
    <glyph glyph-name="G" unicode="G" horiz-adv-x="694" 
d="M409 271v-26h89v-165q-59 -56 -141 -60q-178 0 -193 231q-2 24 -2 49q0 249 155 278q19 3 39 3q102 0 148 -62q29 -40 50 -119h27l-4 198l-89 -19q-63 31 -136 31q-123 0 -209 -80q-92 -86 -92 -226q0 -164 116 -252q82 -62 186 -62q77 0 139 34q5 3 9 5l92 -29v245h73
v26h-257z" />
    <glyph glyph-name="H" unicode="H" horiz-adv-x="721" 
d="M292 0q0 22 -16 25q-5 1 -10 1h-54v269h297v-269h-80v-26h256q0 22 -16 25q-5 1 -10 1h-54v548h80v26h-256v-26h80v-250h-297v250h80v26h-256v-26h80v-548h-80v-26h256z" />
    <glyph glyph-name="I" unicode="I" horiz-adv-x="328" 
d="M292 0q0 22 -16 25q-5 1 -10 1h-54v548h80v26h-256v-26h80v-548h-80v-26h256z" />
    <glyph glyph-name="J" unicode="J" horiz-adv-x="375" 
d="M344 574v26h-265v-26h90v-406q0 -127 -29 -152q-12 -9 -28 -9q-27 0 -36 31q-11 38 -13 41q-13 21 -42 22q-32 0 -43 -29q-3 -9 -3 -17q0 -41 52 -61q30 -12 69 -12q92 0 137 70q32 50 32 125v397h79z" />
    <glyph glyph-name="K" unicode="K" horiz-adv-x="638" 
d="M292 0q0 22 -16 25q-5 1 -10 1h-54v233l49 46l228 -305h149q0 22 -16 25q-5 1 -10 1h-24l-258 343l174 162q38 36 56 41q9 2 19 2q23 0 25 16q1 5 1 10h-181v-26h80l-292 -268v268h80v26h-256v-26h80v-548h-80v-26h256z" />
    <glyph glyph-name="L" unicode="L" horiz-adv-x="497" 
d="M484 0l5 203h-22l-19 -72q-23 -88 -78 -102q-13 -3 -27 -3h-131v548h85v26h-261v-26h80v-548h-80v-26h448z" />
    <glyph glyph-name="M" unicode="M" horiz-adv-x="809" 
d="M783 600h-171l-208 -477l-228 477h-150v-26h80v-548h-80v-26h200q0 22 -16 25q-5 1 -10 1h-54v420l218 -452h21l227 513v-481h-80v-26h251q0 22 -16 25q-5 1 -10 1h-54v548h80v26z" />
    <glyph glyph-name="N" unicode="N" horiz-adv-x="668" 
d="M455 574h84v-437l-375 463h-145v-26h80v-548h-80v-26h205q0 22 -16 25q-5 1 -10 1h-59v454l392 -485l48 10v569h80v26h-204v-26z" />
    <glyph glyph-name="O" unicode="O" horiz-adv-x="705" 
d="M355 610q-122 0 -210 -80q-94 -88 -94 -226q0 -160 111 -249q83 -65 190 -65q121 0 208 81q94 89 94 229q0 165 -115 251q-80 59 -184 59zM355 18q-180 0 -192 246q-1 18 -1 36q0 259 161 280q15 2 29 2q189 -2 190 -278q0 -245 -141 -281q-22 -5 -46 -5z" />
    <glyph glyph-name="P" unicode="P" horiz-adv-x="562" 
d="M311 574q91 0 114 -86q6 -24 6 -51q0 -130 -113 -142q-11 -1 -21 -1h-85v280h99zM313 0q0 22 -16 25q-5 1 -10 1h-75v239h88q163 0 216 94q20 36 20 81q0 98 -86 139q-46 21 -110 21h-304v-26h80v-548h-80v-26h277z" />
    <glyph glyph-name="Q" unicode="Q" horiz-adv-x="707" 
d="M357 610q-123 0 -210 -80q-94 -88 -94 -229q0 -156 110 -245q83 -66 191 -66q42 0 79 10q47 -77 65 -96q41 -48 91 -48q81 2 132 118l-21 12q-53 -59 -98 -60q-42 0 -94 62q-7 8 -24 30q112 52 153 169q19 54 19 115q0 161 -113 247q-81 61 -186 61zM342 120
q-56 -1 -101 -64q-77 68 -77 244q0 272 179 282h13q188 -2 189 -277q-1 -190 -86 -256q-61 70 -117 71zM355 18q-52 0 -91 22q38 42 73 43q40 -1 78 -56q-27 -9 -60 -9z" />
    <glyph glyph-name="R" unicode="R" horiz-adv-x="612" 
d="M292 0v26h-80v249h86l158 -275h156q0 23 -13 25q-5 1 -11 1h-33l-160 258q96 25 130 101q12 29 12 59q0 75 -65 120q-54 36 -132 36h-304v-26h80v-548h-80v-26h256zM304 574q84 0 116 -71q12 -29 12 -61q0 -74 -50 -113q-31 -25 -74 -25h-96v270h92z" />
    <glyph glyph-name="S" unicode="S" horiz-adv-x="540" 
d="M492 159q0 88 -96 143q-16 10 -114 54q-88 39 -111 80q-11 22 -11 46q0 64 62 89q27 11 59 11q83 0 126 -57q30 -39 29 -96h32v176q-26 0 -29 -17q-2 -7 -2 -17q-74 39 -163 39q-109 0 -170 -60q-41 -41 -41 -98q0 -84 93 -137q17 -10 114 -54q89 -40 113 -82
q12 -22 12 -48q0 -70 -66 -100q-31 -13 -68 -13q-145 0 -168 167q-1 11 -2 21h-32v-208q24 0 29 14q2 9 2 29q77 -51 177 -51q116 0 180 62q45 45 45 107z" />
    <glyph glyph-name="T" unicode="T" horiz-adv-x="570" 
d="M426 0q0 22 -16 25q-5 1 -10 1h-69v548h51q83 -1 110 -103l19 -71h28l-4 200h-499l-5 -200h28l19 71q28 102 111 103h46v-548h-95v-26h286z" />
    <glyph glyph-name="U" unicode="U" horiz-adv-x="635" 
d="M10 574h80v-350q2 -233 237 -234q173 0 211 139q12 45 12 105v340h80v26h-195v-26h80v-346q0 -199 -152 -210h-15q-120 0 -150 108q-12 44 -12 104v344h79v26h-255v-26z" />
    <glyph glyph-name="V" unicode="V" horiz-adv-x="580" 
d="M324 -5l206 579h50v26h-168v-26h80l-164 -463l-179 463h80v26h-235v-26h58l192 -503q22 -59 36 -69q11 -7 30 -7h14z" />
    <glyph glyph-name="W" unicode="W" horiz-adv-x="843" 
d="M596 0l197 574h50v26h-163v-26h80l-154 -463l-160 463h81v26h-183l69 -193l-103 -297l-167 464h81v26h-230v-26h57l186 -511q21 -57 37 -64q7 -3 15 -3h11l130 365l107 -298q19 -53 32 -60q7 -3 17 -3h10z" />
    <glyph glyph-name="X" unicode="X" horiz-adv-x="611" 
d="M195 0v26h-80l169 235l157 -235h-73v-26h243q0 22 -16 25q-5 1 -10 1h-32l-207 307l154 213q18 26 41 28h12q25 8 27 26h-175v-26h80l-156 -216l-145 216h72v26h-242v-26h61l191 -287l-169 -233q-21 -28 -62 -28q-22 0 -25 -16q-1 -5 -1 -10h186z" />
    <glyph glyph-name="Y" unicode="Y" horiz-adv-x="559" 
d="M413 0q-8 24 -27 26h-54v225l148 295q22 26 53 28q22 0 25 16q1 5 1 10h-178v-26h80l-148 -288l-157 288h76v26h-236v-26h53l187 -332v-216h-81v-26h258z" />
    <glyph glyph-name="Z" unicode="Z" horiz-adv-x="550" 
d="M519 0l2 207h-23l-23 -96q-22 -84 -98 -85h-237l376 553v21h-446l-9 -181h22l40 90q30 64 81 65h207l-387 -554v-20h495z" />
    <glyph glyph-name="bracketleft" unicode="[" horiz-adv-x="355" 
d="M334 -136h-248v781h248v-28h-159v-723l159 -2v-28z" />
    <glyph glyph-name="backslash" unicode="\" horiz-adv-x="416" 
d="M326 -155l-341 865h65l341 -865h-65z" />
    <glyph glyph-name="bracketright" unicode="]" horiz-adv-x="368" 
d="M34 -136h248v781h-248v-28h159v-723l-159 -2v-28z" />
    <glyph glyph-name="asciicircum" unicode="^" horiz-adv-x="549" 
d="M85 333l29 -19l161 259l160 -259l29 19l-180 291h-19z" />
    <glyph glyph-name="underscore" unicode="_" horiz-adv-x="486" 
d="M10 -67h466v42h-466v-42z" />
    <glyph glyph-name="grave" unicode="`" horiz-adv-x="500" 
d="M348 501q-29 30 -80 105q-19 27 -29 37q-14 13 -29 13q-28 0 -43 -28q-5 -10 -5 -20q1 -19 15 -31q12 -11 83 -50q44 -24 72 -44z" />
    <glyph glyph-name="a" unicode="a" horiz-adv-x="484" 
d="M390 -10q72 0 86 72q2 15 3 32l-26 1q-7 -72 -38 -73q-25 2 -26 51v211q-2 152 -165 153q-116 0 -154 -53q-12 -17 -12 -34q0 -32 30 -39q7 -1 13 -1q27 0 39 32q14 39 17 44q19 26 57 26q89 -2 90 -104v-63q-249 -1 -270 -115q-2 -11 -2 -24q0 -79 69 -106
q26 -10 56 -10q73 0 121 50q18 19 27 41q13 -90 85 -91zM194 31q-63 0 -72 70q-1 10 -1 21q0 67 74 85q39 9 109 10v-83q-17 -69 -72 -95q-20 -8 -38 -8z" />
    <glyph glyph-name="b" unicode="b" horiz-adv-x="551" 
d="M309 -10q89 0 149 67q56 64 56 163q0 114 -64 175q-45 42 -108 42q-110 0 -157 -103q-2 -5 -4 -9v325h-157v-25h71v-541q0 -45 -26 -54q-15 -5 -45 -5v-25h131l9 67q49 -76 145 -77zM307 395q81 0 104 -105q7 -35 7 -78q0 -144 -74 -185q-22 -12 -48 -12q-71 0 -101 79
q-15 42 -15 99q0 124 60 177q30 25 67 25z" />
    <glyph glyph-name="c" unicode="c" horiz-adv-x="439" 
d="M38 210q0 -127 93 -186q54 -34 124 -34q105 0 158 72q13 17 21 36l-26 8q-35 -73 -114 -86q-13 -2 -26 -2q-74 0 -111 76q-24 50 -24 122q0 155 83 188q20 8 42 8q52 0 63 -43q2 -7 4 -24q6 -42 23 -52q10 -6 25 -7q38 -1 47 31q2 7 2 13q0 49 -62 82q-48 25 -106 25
q-126 0 -183 -97q-33 -57 -33 -130z" />
    <glyph glyph-name="d" unicode="d" horiz-adv-x="553" 
d="M380 0h150q0 21 -13 24q-5 1 -11 1h-50l-1 625h-180v-25h94v-239q-50 51 -130 51q-106 0 -163 -91q-38 -63 -38 -143q0 -123 79 -181q44 -32 98 -32q110 2 156 114zM133 215q0 140 72 182q23 14 52 14q71 0 100 -79q15 -42 15 -98q0 -126 -61 -179q-29 -24 -66 -24
q-77 0 -102 98q-10 38 -10 86z" />
    <glyph glyph-name="e" unicode="e" horiz-adv-x="466" 
d="M250 412q68 0 88 -62q6 -19 6 -40q0 -49 -44 -60q-25 -6 -69 -5l-98 3q4 118 72 153q21 11 45 11zM427 97l-25 9q-32 -70 -102 -85q-16 -3 -31 -3q-106 0 -130 134q-5 31 -6 68l115 -2q128 -2 163 26q23 20 23 54q0 71 -72 112q-50 27 -114 27q-121 0 -178 -97
q-32 -56 -32 -129q0 -128 93 -188q53 -33 120 -33q112 0 163 81q7 13 13 26z" />
    <glyph glyph-name="f" unicode="f" horiz-adv-x="312" 
d="M261 25h-71v376h115v25h-115v6q0 168 46 192q11 6 25 6q30 0 50 -38q19 -35 27 -42q10 -7 21 -7q35 0 42 29q1 5 1 10q0 39 -50 60q-31 13 -70 13q-98 0 -145 -78q-32 -54 -32 -136v-15h-72v-25h72v-317q0 -46 -30 -55q-15 -4 -45 -4v-25h255q0 22 -14 24q-5 1 -10 1z
" />
    <glyph glyph-name="g" unicode="g" horiz-adv-x="486" 
d="M138 277q0 125 80 134q7 1 14 1q82 0 92 -102q1 -15 1 -33q-9 -132 -93 -138q-88 0 -94 120v18zM233 437q-96 0 -149 -62q-35 -42 -35 -98q0 -75 72 -126q9 -6 17 -11q-62 0 -80 -54q-4 -14 -4 -29q1 -53 42 -79q-32 -35 -32 -69q0 -55 66 -82q43 -18 104 -18
q154 0 203 74q16 25 16 53q0 89 -101 102q-13 2 -27 2l-187 4q-43 3 -44 38q0 25 30 31q7 2 15 2l89 -1h3q92 0 146 62q37 44 37 102q-1 75 -57 119q15 35 42 38q14 0 31 -16q11 -10 21 -10q25 0 30 25q1 5 1 8q0 33 -32 45q-11 4 -23 4q-47 0 -76 -45q-11 -16 -16 -34
q-46 25 -102 25zM234 -165q-102 0 -129 51q-7 14 -7 28q1 26 22 52q18 -5 35 -5l164 -2q70 -1 82 -29q4 -10 4 -21q0 -45 -83 -65q-40 -9 -88 -9z" />
    <glyph glyph-name="h" unicode="h" horiz-adv-x="569" 
d="M232 25h-45v221q0 92 61 129q25 15 50 15q60 0 82 -59q8 -23 8 -53v-194q0 -44 -19 -53q-13 -6 -44 -6v-25h220q0 22 -15 24q-4 1 -10 1h-46v250q0 112 -75 149q-27 13 -58 13q-75 0 -125 -55q-19 -22 -29 -48v316h-157v-25h71v-541q0 -46 -27 -55q-14 -4 -44 -4v-25h227
q0 22 -15 24q-4 1 -10 1z" />
    <glyph glyph-name="i" unicode="i" horiz-adv-x="290" 
d="M237 25h-47v401h-161v-25h76v-317q0 -46 -31 -55q-15 -4 -45 -4v-25h233q0 22 -15 24q-4 1 -10 1zM201 569q0 36 -32 53q-13 6 -26 6q-37 0 -53 -33q-6 -13 -6 -26q0 -38 34 -54q12 -5 25 -5q36 0 52 33q6 13 6 26z" />
    <glyph glyph-name="j" unicode="j" horiz-adv-x="270" 
d="M205 569q0 36 -32 53q-13 6 -26 6q-37 0 -53 -33q-6 -13 -6 -26q0 -38 34 -54q12 -5 25 -5q36 0 52 33q6 13 6 26zM34 426v-25h76v-388q0 -17 1 -51q1 -28 1 -40q-3 -87 -39 -88q-19 0 -27 27q-9 34 -15 41q-10 10 -26 10q-31 0 -39 -27q-1 -6 -1 -11q0 -37 43 -56
q23 -9 48 -9q77 0 115 70q25 47 25 118v429h-162z" />
    <glyph glyph-name="k" unicode="k" horiz-adv-x="505" 
d="M235 25h-47v149l50 47l138 -221h139q0 21 -13 24q-5 1 -11 1h-33l-161 252l91 85q35 33 53 37q8 2 18 2q22 0 24 15q1 5 1 10h-170v-25h75l-201 -187v436h-160v-25h75v-541q0 -46 -30 -55q-15 -4 -45 -4v-25h232q0 22 -15 24q-5 1 -10 1z" />
    <glyph glyph-name="l" unicode="l" horiz-adv-x="294" 
d="M244 25h-54v625h-161v-25h76v-541q0 -45 -27 -54q-16 -5 -49 -5v-25h239q0 22 -14 24q-5 1 -10 1z" />
    <glyph glyph-name="m" unicode="m" horiz-adv-x="814" 
d="M225 25h-40v220q2 87 57 128q25 19 51 19q48 0 66 -55q7 -23 7 -51v-202q0 -45 -20 -54q-14 -5 -44 -5v-25h214q0 22 -15 24q-4 1 -10 1h-39v250v11q16 73 68 99q18 9 35 9q50 0 70 -53q9 -24 9 -55v-202q0 -45 -21 -54q-14 -5 -44 -5v-25h222q0 22 -15 24q-4 1 -10 1
h-47v251q0 101 -67 143q-30 18 -65 18q-84 0 -131 -82q-6 -11 -11 -23q-19 75 -79 98q-18 7 -37 7q-76 0 -124 -66q-12 -18 -21 -38l-4 93h-152v-25h72v-317q0 -46 -28 -55q-15 -4 -44 -4v-25h221q0 22 -14 24q-5 1 -10 1z" />
    <glyph glyph-name="n" unicode="n" horiz-adv-x="567" 
d="M226 25h-41v220q2 91 62 131q26 16 52 16q61 0 81 -58q7 -22 7 -48v-202q0 -45 -26 -54q-14 -5 -43 -5v-25h226q0 22 -15 24q-4 1 -10 1h-47v250q0 105 -72 145q-31 17 -66 17q-74 0 -123 -60q-17 -20 -27 -45l-4 94h-152v-25h72v-317q0 -46 -28 -55q-15 -4 -44 -4v-25
h223q0 22 -15 24q-4 1 -10 1z" />
    <glyph glyph-name="o" unicode="o" horiz-adv-x="515" 
d="M133 214q1 197 124 198q123 -2 124 -194q-1 -202 -122 -203q-125 2 -126 199zM260 437q-101 0 -166 -69q-56 -61 -56 -150q0 -122 88 -186q58 -42 130 -42q99 0 163 70q58 63 58 155q0 122 -90 184q-56 38 -127 38z" />
    <glyph glyph-name="p" unicode="p" horiz-adv-x="552" 
d="M182 -165v206q52 -47 125 -51q91 0 151 69q56 65 56 165q0 115 -65 174q-44 39 -105 39q-90 0 -139 -69q-16 -22 -25 -48l-5 106h-150v-25h71v-507q0 -45 -26 -54q-15 -5 -45 -5v-25h248q0 22 -15 24q-4 1 -10 1h-66zM308 395q89 0 107 -123q4 -28 4 -59q0 -153 -79 -189
q-20 -9 -43 -9q-73 0 -102 81q-14 41 -14 98q0 129 64 179q29 22 63 22z" />
    <glyph glyph-name="q" unicode="q" horiz-adv-x="554" 
d="M38 198q0 -125 81 -180q43 -28 94 -28q87 0 138 70q12 16 20 35v-201q0 -44 -31 -54q-18 -5 -57 -5v-25h247q0 22 -13 24q-5 1 -12 1h-49v566h73v25h-148l-5 -41q-56 52 -135 52q-94 0 -151 -72q-52 -65 -52 -167zM372 233q0 -140 -69 -186q-26 -16 -56 -16
q-84 0 -107 106q-7 35 -7 77q0 144 73 185q23 12 51 12q88 0 109 -109q6 -31 6 -69z" />
    <glyph glyph-name="r" unicode="r" horiz-adv-x="399" 
d="M259 25h-72v220q7 86 58 129q17 14 29 14q15 0 29 -25q16 -28 32 -33q7 -2 14 -2q33 0 43 31q2 8 2 15q0 46 -46 56q-10 2 -21 2q-62 0 -110 -52q-20 -22 -32 -50l-4 96h-151v-25h71v-317q0 -46 -27 -55q-14 -4 -44 -4v-25h254q0 22 -15 24q-4 1 -10 1z" />
    <glyph glyph-name="s" unicode="s" horiz-adv-x="404" 
d="M191 17q69 0 90 43q7 14 7 29q0 44 -62 75q-13 7 -43 20q-80 34 -107 64q-28 32 -28 75q0 71 78 101q37 13 80 13q68 0 115 -28q0 29 14 33q5 1 13 1v-125h-27q-2 92 -102 93q-72 0 -90 -44q-4 -12 -4 -24q0 -43 61 -73q14 -7 43 -19q81 -33 108 -62q29 -33 29 -78
q0 -83 -87 -110q-34 -11 -74 -11q-75 1 -130 35q0 -26 -13 -30q-6 -1 -14 -1v152h29q2 -128 114 -129z" />
    <glyph glyph-name="t" unicode="t" horiz-adv-x="332" 
d="M19 400h70v-276q7 -131 121 -135q94 0 117 113v2l-27 5q-21 -89 -72 -90q-53 2 -54 77v304h151v25h-151v116l-85 -21v-95h-70v-25z" />
    <glyph glyph-name="u" unicode="u" horiz-adv-x="566" 
d="M516 25h-47v401h-161v-25h75v-223q-1 -88 -62 -127q-25 -16 -52 -16q-78 0 -89 84q-2 13 -2 26v281h-159v-25h73v-241q1 -169 143 -170q76 0 124 62q16 21 26 46l7 -98h148q0 21 -13 24q-5 1 -11 1z" />
    <glyph glyph-name="v" unicode="v" horiz-adv-x="466" 
d="M204 401v25h-201v-25h44l122 -335q21 -57 43 -66q12 -5 30 -5h18l141 372q12 29 28 33q5 1 10 1q20 0 23 11q1 5 1 14h-155v-25h76l-125 -334l-124 334h69z" />
    <glyph glyph-name="w" unicode="w" horiz-adv-x="689" 
d="M210 401v25h-204v-25h44l123 -335q21 -57 43 -67q10 -4 27 -4h22l88 267l69 -196q19 -57 38 -66q10 -5 28 -5h19l122 371q10 31 25 34q5 1 10 1q22 0 24 16q1 4 1 9h-147v-25h69l-108 -334l-114 334h68v25h-161l43 -122l-79 -241l-122 338h72z" />
    <glyph glyph-name="x" unicode="x" horiz-adv-x="444" 
d="M2 0h154v25h-74l119 156l107 -156h-59v-25h195q0 22 -15 24q-5 1 -10 1h-20l-139 205l102 141q19 27 50 31q16 1 19 11q1 5 1 13h-150v-25h69l-107 -148l-100 148h64v25h-206v-25h48l135 -197l-115 -149q-21 -26 -50 -30q-15 -2 -17 -12q-1 -6 -1 -13z" />
    <glyph glyph-name="y" unicode="y" horiz-adv-x="485" 
d="M108 -159q-16 0 -25 25q-12 31 -23 38q-9 6 -21 6q-33 0 -39 -28q-1 -5 -1 -9q0 -37 44 -55q22 -9 46 -9q79 0 137 96q23 38 45 92l148 370q10 28 23 32q6 1 14 1q21 0 24 11q1 6 1 15h-152v-26h73l-125 -311l-133 311h66v26h-203v-26h47l183 -404q-54 -129 -102 -150
q-14 -5 -27 -5z" />
    <glyph glyph-name="z" unicode="z" horiz-adv-x="421" 
d="M121 26l268 383v21h-342l-9 -134h17l26 59q23 48 65 49h152l-278 -382v-22h369l3 155h-17l-13 -60q-14 -59 -59 -68q-7 -1 -13 -1h-169z" />
    <glyph glyph-name="braceleft" unicode="{" horiz-adv-x="400" 
d="M239 148v-151q0 -67 25 -86q27 -19 116 -19v-28q-128 0 -167 16q-52 22 -58 96q-1 14 -1 28v149q0 55 -26 73q-17 11 -50 18v21q56 12 69 41q7 18 7 50v149q0 91 48 118q37 21 155 22h23v-28q-95 0 -119 -22q-22 -21 -22 -83v-151q0 -64 -50 -91q-10 -6 -26 -13v-5
q49 -21 64 -47q12 -24 12 -57z" />
    <glyph glyph-name="bar" unicode="|" horiz-adv-x="274" 
d="M106 -136v786h62v-786h-62z" />
    <glyph glyph-name="braceright" unicode="}" horiz-adv-x="392" 
d="M161 359v151q0 67 -25 86q-27 19 -116 19v28q128 0 167 -16q52 -22 58 -96q1 -14 1 -28v-149q0 -55 26 -73q17 -11 50 -18v-21q-56 -12 -69 -41q-7 -18 -7 -50v-149q0 -91 -48 -118q-37 -21 -155 -22h-23v28q95 0 119 22q22 21 22 83v151q0 64 50 91q10 6 26 13v5
q-49 21 -64 47q-12 24 -12 57z" />
    <glyph glyph-name="asciitilde" unicode="~" horiz-adv-x="492" 
d="M160 312q38 0 107 -37q58 -32 84 -32q53 2 79 69l24 -7q-18 -90 -79 -116q-19 -7 -37 -7q-38 0 -110 37q-61 31 -89 31q-51 -2 -76 -68l-25 8q22 95 90 117q16 5 32 5z" />
    <glyph glyph-name="uni00A0" unicode="&#xa0;" horiz-adv-x="201" 
 />
    <glyph glyph-name="exclamdown" unicode="&#xa1;" horiz-adv-x="261" 
d="M93 260q0 -126 -29 -275q-13 -66 -13 -98q2 -64 56 -65q57 2 58 67q0 29 -19 128q-22 119 -22 243h-31zM54 382q0 -35 31 -50q12 -6 24 -6q34 0 49 31q6 12 6 25q0 35 -32 50q-11 5 -23 5q-35 0 -50 -32q-5 -11 -5 -23z" />
    <glyph glyph-name="cent" unicode="&#xa2;" horiz-adv-x="462" 
d="M38 273q0 -126 92 -185q46 -29 104 -34v-74h29v73q107 4 156 80q9 15 15 30l-26 6q-32 -70 -106 -85q-17 -4 -34 -4h-5v395q50 0 60 -42q2 -8 4 -24q5 -42 21 -53q11 -6 25 -7q38 -1 47 31q2 7 2 13q0 49 -62 82q-44 22 -97 25v70h-29v-71q-118 -7 -169 -106
q-27 -53 -27 -120zM132 279q0 159 88 190q7 3 14 4v-388q-74 22 -95 123q-7 33 -7 71z" />
    <glyph glyph-name="sterling" unicode="&#xa3;" horiz-adv-x="573" 
d="M549 156h-21q-24 -73 -132 -73q-65 0 -170 27q11 42 11 92q0 43 -5 97h154v29h-157q-7 67 -7 110q5 142 98 145q56 0 72 -47q3 -10 7 -30q9 -45 26 -57q13 -8 32 -8q40 0 51 36q3 9 3 19q0 63 -81 95q-46 19 -104 19q-130 0 -185 -84q-28 -44 -28 -101q0 -41 16 -97h-69
v-29h77q34 -106 39 -132q5 -25 6 -46q-40 9 -56 9q-60 0 -75 -47q-3 -10 -3 -21q0 -39 36 -55q14 -7 31 -7q61 0 95 68q2 2 2 3q11 -7 34 -21q81 -52 128 -60q16 -3 31 -3q99 0 131 88q13 35 13 81zM114 28q-27 0 -33 25q-1 4 -1 8q0 29 27 38q9 3 17 3q27 0 56 -14
q-9 -44 -47 -57q-10 -3 -19 -3z" />
    <glyph glyph-name="currency" unicode="&#xa4;" horiz-adv-x="604" 
d="M297 110q-78 0 -124 60q-34 45 -34 111q0 102 75 147q38 22 82 22q77 0 122 -59q35 -46 35 -111q0 -104 -77 -149q-36 -21 -79 -21zM295 77q78 1 133 48l86 -87l24 24l-87 88q42 54 42 132q-1 74 -39 126l86 86l-24 25l-85 -85q-54 49 -133 49q-78 -1 -132 -48l-86 85
l-24 -24l86 -85q-43 -55 -43 -132q1 -81 44 -133l-85 -85l25 -24l84 84q55 -44 128 -44z" />
    <glyph glyph-name="yen" unicode="&#xa5;" horiz-adv-x="568" 
d="M416 0q0 23 -13 25q-5 1 -11 1h-54l2 194h134v29h-134l1 50h133v29h-122l127 218q13 21 28 25q12 3 32 3q18 9 20 26h-179v-26h81l-138 -235l-146 235h66v26h-225v-26h53l156 -246h-116v-29h134l-1 -50h-133v-29h133l-2 -194h-77v-26h251z" />
    <glyph glyph-name="brokenbar" unicode="&#xa6;" horiz-adv-x="274" 
d="M168 315v335h-62v-335h62zM168 -136v335h-62v-335h62z" />
    <glyph glyph-name="section" unicode="&#xa7;" horiz-adv-x="467" 
d="M129 321q1 42 45 61q18 -9 54 -25q80 -36 100 -60q13 -17 13 -35q-1 -44 -46 -63q-17 9 -53 26q-80 37 -100 61q-13 17 -13 35zM420 283q0 68 -85 115q-20 10 -62 29q-79 35 -100 60q-16 19 -16 41q0 39 39 57q18 8 39 8q57 0 70 -40q2 -6 5 -18q8 -33 24 -39q9 -4 20 -4
q34 2 35 41q0 47 -67 72q-38 13 -80 13q-96 0 -140 -52q-24 -28 -24 -66q1 -59 69 -102q-86 -20 -95 -85q-1 -7 -1 -14q0 -68 88 -117q19 -11 59 -30q78 -37 97 -60q14 -17 14 -36q0 -46 -43 -62q-16 -6 -34 -6q-55 0 -69 42q-2 6 -5 18q-9 34 -25 41q-8 3 -17 3
q-37 -7 -41 -41q0 -49 67 -74q38 -14 82 -14q94 0 139 50q26 29 26 68q-1 59 -68 102q86 20 98 83q1 9 1 17z" />
    <glyph glyph-name="dieresis" unicode="&#xa8;" horiz-adv-x="500" 
d="M212 571q0 35 -31 48q-11 5 -22 5q-36 0 -49 -31q-5 -11 -5 -22q0 -36 32 -50q11 -4 22 -4q35 0 48 32q5 11 5 22zM396 571q0 35 -32 49q-11 4 -22 4q-36 0 -49 -32q-4 -11 -4 -21q0 -37 33 -50q10 -4 20 -4q36 0 49 32q5 10 5 22z" />
    <glyph glyph-name="copyright" unicode="&#xa9;" horiz-adv-x="655" 
d="M613 275q0 126 -87 208q-80 76 -198 76q-135 0 -218 -95q-68 -79 -68 -189q0 -127 88 -209q81 -76 198 -76q133 0 215 94q70 80 70 191zM73 275q0 123 84 196q70 61 171 61q125 0 198 -90q57 -71 57 -167q0 -119 -82 -194q-71 -64 -173 -64q-126 0 -199 91
q-56 71 -56 167zM333 455q-96 0 -145 -77q-29 -46 -29 -104q0 -90 65 -140q46 -35 109 -35q91 0 132 68q5 7 8 14l-21 9q-35 -62 -103 -65q-64 0 -88 82q-10 34 -10 76q0 95 43 132q18 15 39 15q36 0 44 -33l3 -18q6 -37 22 -46q11 -6 27 -6q37 6 41 35q0 51 -62 78
q-35 15 -75 15z" />
    <glyph glyph-name="ordfeminine" unicode="&#xaa;" horiz-adv-x="310" 
d="M280 244v35h-256v-35h256zM292 394h-19q-4 -37 -20 -38q-15 2 -15 28v121q-2 94 -109 95q-73 0 -95 -36q-6 -11 -6 -21q6 -26 32 -30q28 0 35 26q8 27 11 31q9 10 25 10q42 -6 43 -68v-29q-130 0 -154 -48q-7 -15 -7 -34q0 -52 49 -68q14 -4 29 -4q59 1 83 54
q16 -50 63 -54q46 0 54 53q1 7 1 12zM115 362q-32 2 -33 46q0 43 56 52q17 3 36 3v-39q-14 -49 -47 -60q-6 -2 -12 -2z" />
    <glyph glyph-name="guillemotleft" unicode="&#xab;" horiz-adv-x="415" 
d="M218 378l-18 17q-19 -20 -131 -127q-23 -22 -32 -32q-14 -16 -14 -31q1 -19 14 -33q8 -9 116 -110q28 -28 47 -46l18 16q-14 20 -89 148l-15 25q8 14 28 48q51 89 76 125zM392 378l-18 17q-21 -22 -135 -131q-20 -19 -29 -28q-13 -17 -13 -31q1 -19 13 -33q6 -6 116 -110
q29 -27 48 -46l18 16q-12 18 -85 141q-12 20 -20 32q10 16 34 58q48 82 71 115z" />
    <glyph glyph-name="logicalnot" unicode="&#xac;" horiz-adv-x="490" 
d="M401 116h47v218h-406v-38h359v-180z" />
    <glyph glyph-name="uni00AD" unicode="&#xad;" horiz-adv-x="374" 
d="M45 199h284v41h-284v-41z" />
    <glyph glyph-name="registered" unicode="&#xae;" horiz-adv-x="395" 
d="M370 473q0 86 -66 135q-47 35 -107 35q-91 0 -141 -68q-33 -44 -33 -102q0 -88 68 -137q46 -33 106 -33q90 0 140 67q33 45 33 103zM48 473q0 80 61 122q39 27 88 27q79 -1 122 -62q26 -39 26 -87q0 -80 -62 -123q-38 -26 -86 -26q-80 0 -122 61q-27 39 -27 88zM305 376
q-2 13 -12 14h-9l-48 77q46 13 47 54q0 35 -41 48q-16 4 -34 4l-105 1v-15h23v-169h-23v-15h95v15h-24v73h19l48 -89zM174 559h23q26 0 32 -28q1 -5 1 -10q0 -32 -24 -40q-5 -1 -9 -1h-23v79z" />
    <glyph glyph-name="macron" unicode="&#xaf;" horiz-adv-x="500" 
d="M98 540h304v51h-304v-51z" />
    <glyph glyph-name="degree" unicode="&#xb0;" horiz-adv-x="294" 
d="M78 542q0 46 37 66q16 8 32 8q40 0 60 -37q9 -17 9 -37q0 -43 -38 -62q-15 -7 -31 -7q-43 0 -62 38q-7 15 -7 31zM246 542q0 54 -45 84q-25 17 -54 17q-53 0 -83 -46q-16 -26 -16 -55q0 -54 46 -82q25 -14 53 -14q55 0 84 45q15 24 15 51z" />
    <glyph glyph-name="plusminus" unicode="&#xb1;" horiz-adv-x="465" 
d="M423 255v38h-167v138h-47v-138h-167v-38h167v-138h47v138h167zM423 34v38h-381v-38h381z" />
    <glyph glyph-name="twosuperior" unicode="&#xb2;" horiz-adv-x="345" 
d="M78 387q3 19 62 47q80 39 104 59q39 32 39 72q0 63 -74 84q-25 7 -53 7q-76 0 -110 -40q-16 -18 -16 -41q2 -35 38 -36q35 0 40 31q1 6 1 18q2 35 17 43q10 5 24 5q43 0 50 -43q1 -11 1 -23q0 -58 -58 -100q-9 -7 -29 -20q-54 -35 -70 -62q-13 -23 -13 -50v-11h258l1 110
h-13l-10 -27q-9 -20 -31 -22q-8 -1 -23 -1h-135z" />
    <glyph glyph-name="threesuperior" unicode="&#xb3;" horiz-adv-x="366" 
d="M301 635v14h-250l-2 -110h15l12 29q8 20 33 22h16h101l-107 -109l15 -12q21 9 41 9q58 -2 59 -75q-2 -98 -76 -99q-30 0 -36 32q0 5 -1 15q-5 37 -21 45q-9 4 -21 4q-33 0 -38 -30q-1 -3 -1 -7q0 -52 64 -70q25 -7 53 -7q78 0 125 45q32 32 32 75q0 57 -57 80
q-27 11 -59 11q-22 0 -40 -4z" />
    <glyph glyph-name="acute" unicode="&#xb4;" horiz-adv-x="500" 
d="M368 577q14 13 15 31q0 26 -26 42q-12 6 -22 6q-16 -1 -30 -13q-9 -8 -48 -67q-32 -46 -60 -75l16 -18q25 18 111 65q32 18 44 29z" />
    <glyph glyph-name="uni00B5" unicode="&#xb5;" horiz-adv-x="566" 
d="M176 -108q0 7 -23 153q32 -54 92 -55q68 0 118 70q12 18 22 39l7 -99h150q0 22 -12 25q-5 1 -12 1h-49v400h-161v-26h75v-218q-2 -92 -63 -131q-25 -16 -51 -16q-78 0 -89 84q-2 13 -2 26v281h-159v-26h73v-241q0 -30 -11 -240q-1 -21 -1 -30q2 -60 47 -61q48 2 49 64z
" />
    <glyph glyph-name="paragraph" unicode="&#xb6;" horiz-adv-x="523" 
d="M224 -114q100 0 159 63q50 55 50 141l-2 484h78v26h-216q-157 0 -219 -98q-28 -46 -28 -103q0 -103 79 -155q53 -34 129 -34h18v-159q0 -115 -20 -133q-8 -6 -20 -6q-26 0 -35 33q-1 5 -3 16q-10 43 -29 55q-13 7 -31 7q-38 0 -50 -34q-3 -9 -3 -19q0 -46 63 -70
q36 -14 80 -14zM351 69q0 -108 -37 -138q-14 -10 -34 -15q20 27 20 143v515h51v-505z" />
    <glyph glyph-name="periodcentered" unicode="&#xb7;" horiz-adv-x="296" 
d="M206 231q0 36 -32 52q-13 6 -26 6q-36 0 -52 -32q-6 -13 -6 -26q0 -36 32 -52q13 -6 26 -6q36 0 52 32q6 13 6 26z" />
    <glyph glyph-name="cedilla" unicode="&#xb8;" horiz-adv-x="500" 
d="M163 -85l14 -9q24 17 50 17q45 0 51 -45q1 -6 1 -12q0 -53 -40 -65q-8 -2 -16 -2q-39 1 -69 39l-16 -12q35 -52 106 -53q70 0 103 44q15 22 15 47q0 53 -55 75q-24 10 -51 10t-53 -11l30 66h-26z" />
    <glyph glyph-name="onesuperior" unicode="&#xb9;" horiz-adv-x="295" 
d="M155 649l-135 -94l15 -23l94 64v-242l-83 -7v-20h234q0 17 -15 20q-4 1 -8 1l-51 6v295h-51z" />
    <glyph glyph-name="ordmasculine" unicode="&#xba;" horiz-adv-x="302" 
d="M88 464q0 102 47 112q7 1 13 1q50 0 59 -66q2 -20 2 -45q0 -102 -45 -112q-7 -2 -14 -2q-53 0 -60 75q-2 17 -2 37zM150 600q-72 0 -112 -53q-25 -35 -25 -81q0 -81 65 -118q32 -19 70 -19q70 0 110 53q26 36 26 83q0 83 -67 119q-31 16 -67 16zM21 244h256v35h-256v-35z
" />
    <glyph glyph-name="guillemotright" unicode="&#xbb;" horiz-adv-x="415" 
d="M197 378l18 17q19 -20 131 -127q23 -22 32 -32q14 -16 14 -31q-1 -19 -14 -33q-8 -9 -116 -110q-28 -28 -47 -46l-18 16q14 20 89 148l15 25q-8 14 -28 48q-51 89 -76 125zM23 378l18 17q21 -22 135 -131q20 -19 29 -28q13 -17 13 -31q-1 -19 -13 -33q-6 -6 -116 -110
q-29 -27 -48 -46l-18 16q12 18 85 141q12 20 20 32q-10 16 -34 58q-48 82 -71 115z" />
    <glyph glyph-name="onequarter" unicode="&#xbc;" horiz-adv-x="732" 
d="M175 -30l435 640l-31 21l-436 -641zM175 611l-135 -94l15 -23l94 64v-242l-83 -7v-20h234q0 17 -15 20q-4 1 -8 1l-51 6v295h-51zM684 -45q0 18 -11 20q-4 1 -9 1h-47v73h67v24h-67v126h-16l-7 -20q-12 -29 -35 -33q-5 -1 -11 -1h-6v-72l-145 1q120 94 140 111
q81 74 82 117q-4 35 -39 37q-26 0 -41 -30q-4 -7 -12 -25q-39 -89 -99 -151q-29 -30 -65 -59l5 -24l174 -1v-73h-75v-21h217z" />
    <glyph glyph-name="onehalf" unicode="&#xbd;" horiz-adv-x="744" 
d="M175 -30l435 640l-31 21l-436 -641zM175 611l-135 -94l15 -23l94 64v-242l-83 -7v-20h234q0 17 -15 20q-4 1 -8 1l-51 6v295h-51zM482 60q3 19 62 47q80 39 104 59q39 32 39 72q0 63 -74 84q-25 7 -53 7q-76 0 -110 -40q-16 -18 -16 -41q2 -35 38 -36q35 0 40 31
q1 6 1 18q2 35 17 43q10 5 24 5q43 0 50 -43q1 -11 1 -23q0 -58 -58 -100q-9 -7 -29 -20q-54 -35 -70 -62q-13 -23 -13 -50v-11h258l1 110h-13l-10 -27q-9 -20 -31 -22q-8 -1 -23 -1h-135z" />
    <glyph glyph-name="threequarters" unicode="&#xbe;" horiz-adv-x="746" 
d="M301 597v14h-250l-2 -110h15l12 29q8 20 33 22h16h101l-107 -109l15 -12q21 9 41 9q58 -2 59 -75q-2 -98 -76 -99q-30 0 -36 32q0 5 -1 15q-5 37 -21 45q-9 4 -21 4q-33 0 -38 -30q-1 -3 -1 -7q0 -52 64 -70q25 -7 53 -7q78 0 125 45q32 32 32 75q0 57 -57 80
q-27 11 -59 11q-22 0 -40 -4zM189 -30l435 640l-31 21l-436 -641zM698 -45q0 18 -11 20q-4 1 -9 1h-47v73h67v24h-67v126h-16l-7 -20q-12 -29 -35 -33q-5 -1 -11 -1h-6v-72l-145 1q120 94 140 111q81 74 82 117q-4 35 -39 37q-26 0 -41 -30q-4 -7 -12 -25q-39 -89 -99 -151
q-29 -30 -65 -59l5 -24l174 -1v-73h-75v-21h217z" />
    <glyph glyph-name="questiondown" unicode="&#xbf;" horiz-adv-x="486" 
d="M226 260q0 -82 -67 -146q-11 -11 -34 -30q-55 -47 -70 -78q-13 -26 -13 -55q0 -90 98 -119q36 -10 79 -10q94 0 144 45q27 26 28 59q-4 51 -51 53q-39 0 -47 -38q-2 -7 -4 -24q-5 -46 -23 -59q-15 -10 -40 -10q-81 2 -82 84q0 66 42 132q40 63 49 85q21 50 21 111h-30z
M185 382q0 -35 31 -50q12 -6 24 -6q34 0 49 31q6 13 6 25q0 35 -32 50q-11 5 -23 5q-35 0 -50 -32q-5 -11 -5 -23z" />
    <glyph glyph-name="Agrave" unicode="&#xc0;" horiz-adv-x="620" 
d="M620 0q0 23 -16 25q-5 1 -10 1h-33l-230 574h-45l-223 -574h-63v-26h179q0 23 -15 25q-5 1 -10 1h-51l75 194h207l75 -194h-67v-26h227zM373 249h-184l92 239zM398 631q-29 30 -80 105q-19 27 -29 37q-14 13 -29 13q-28 0 -43 -28q-5 -10 -5 -20q1 -19 15 -31
q12 -11 83 -50q44 -24 72 -44z" />
    <glyph glyph-name="Aacute" unicode="&#xc1;" horiz-adv-x="620" 
d="M620 0q0 23 -16 25q-5 1 -10 1h-33l-230 574h-45l-223 -574h-63v-26h179q0 23 -15 25q-5 1 -10 1h-51l75 194h207l75 -194h-67v-26h227zM373 249h-184l92 239zM400 707q14 13 15 31q0 26 -26 42q-12 6 -22 6q-16 -1 -30 -13q-9 -8 -48 -67q-32 -46 -60 -75l16 -18
q25 18 111 65q32 18 44 29z" />
    <glyph glyph-name="Acircumflex" unicode="&#xc2;" horiz-adv-x="620" 
d="M620 0q0 23 -16 25q-5 1 -10 1h-33l-230 574h-45l-223 -574h-63v-26h179q0 23 -15 25q-5 1 -10 1h-51l75 194h207l75 -194h-67v-26h227zM373 249h-184l92 239zM430 629l12 17q-13 14 -74 88q-38 38 -61 41q-26 0 -56 -36q-6 -8 -20 -26q-34 -42 -57 -68l12 -15
q51 32 123 68q75 -38 121 -69z" />
    <glyph glyph-name="Atilde" unicode="&#xc3;" horiz-adv-x="620" 
d="M620 0q0 23 -16 25q-5 1 -10 1h-33l-230 574h-45l-223 -574h-63v-26h179q0 23 -15 25q-5 1 -10 1h-51l75 194h207l75 -194h-67v-26h227zM373 249h-184l92 239zM257 767q30 0 74 -33q36 -27 56 -27q38 0 53 53q1 2 1 4l21 -5q-21 -110 -91 -111q-30 0 -73 32
q-36 27 -57 27q-37 0 -52 -48l-2 -8l-20 4q21 111 90 112z" />
    <glyph glyph-name="Adieresis" unicode="&#xc4;" horiz-adv-x="620" 
d="M620 0q0 23 -16 25q-5 1 -10 1h-33l-230 574h-45l-223 -574h-63v-26h179q0 23 -15 25q-5 1 -10 1h-51l75 194h207l75 -194h-67v-26h227zM373 249h-184l92 239zM270 701q0 35 -31 48q-11 5 -22 5q-36 0 -49 -31q-5 -11 -5 -22q0 -36 32 -50q11 -4 22 -4q35 0 48 32
q5 11 5 22zM454 701q0 35 -32 49q-11 4 -22 4q-36 0 -49 -32q-4 -11 -4 -21q0 -37 33 -50q10 -4 20 -4q36 0 49 32q5 10 5 22z" />
    <glyph glyph-name="Aring" unicode="&#xc5;" horiz-adv-x="620" 
d="M620 0q0 23 -16 25q-5 1 -10 1h-33l-224 560q64 9 81 63q4 14 4 29q0 57 -52 80q-24 10 -52 10q-77 0 -102 -53q-8 -18 -8 -38q0 -60 54 -84q10 -4 19 -6l-218 -561h-63v-26h179q0 23 -15 25q-5 1 -10 1h-51l75 194h207l75 -194h-67v-26h227zM373 249h-184l92 239z
M267 675q0 61 38 69q5 1 10 1q42 0 48 -54q1 -7 1 -14q0 -54 -33 -67q-8 -3 -16 -3q-47 1 -48 68z" />
    <glyph glyph-name="AE" unicode="&#xc6;" horiz-adv-x="877" 
d="M252 268l185 304v-304h-185zM186 0q0 23 -13 25q-5 1 -11 1h-57l129 213h203v-213h-83v-26h469l5 183h-22l-16 -52q-26 -86 -80 -101q-14 -4 -29 -4h-148v269h201v29h-201v250h148q77 0 108 -101q1 -2 1 -4l16 -52h22l-5 183h-411l-352 -574h-60v-26h186z" />
    <glyph glyph-name="Ccedilla" unicode="&#xc7;" horiz-adv-x="619" 
d="M547 45q0 -42 14 -48q6 -2 18 -2v191h-26q-50 -167 -201 -168q-139 0 -179 154q-15 57 -15 129q0 191 104 255q42 26 94 26q146 -2 194 -164h26l-3 187q-23 0 -28 -15q-2 -12 -2 -36q-57 44 -151 54q-21 2 -42 2q-160 0 -245 -117q-59 -83 -59 -191q0 -131 81 -219
q69 -74 174 -89l-39 -79l14 -9q24 17 50 17q45 0 51 -45q1 -6 1 -12q0 -53 -40 -65q-8 -2 -16 -2q-39 1 -69 39l-16 -12q35 -52 106 -53q70 0 103 44q15 22 15 47q0 53 -55 75q-24 10 -51 10t-53 -11l24 53q10 -1 27 -1q102 1 194 55z" />
    <glyph glyph-name="Egrave" unicode="&#xc8;" horiz-adv-x="559" 
d="M510 418l-5 182h-469v-26h80v-548h-80v-26h469l5 182h-22l-16 -51q-26 -86 -80 -101q-14 -4 -29 -4h-151v269h204v29h-204v250h151q77 0 108 -101q1 -2 1 -4l16 -51h22zM383 631q-29 30 -80 105q-19 27 -29 37q-14 13 -29 13q-28 0 -43 -28q-5 -10 -5 -20q1 -19 15 -31
q12 -11 83 -50q44 -24 72 -44z" />
    <glyph glyph-name="Eacute" unicode="&#xc9;" horiz-adv-x="559" 
d="M510 418l-5 182h-469v-26h80v-548h-80v-26h469l5 182h-22l-16 -51q-26 -86 -80 -101q-14 -4 -29 -4h-151v269h204v29h-204v250h151q77 0 108 -101q1 -2 1 -4l16 -51h22zM385 709q14 13 15 31q0 26 -26 42q-12 6 -22 6q-16 -1 -30 -13q-9 -8 -48 -67q-32 -46 -60 -75
l16 -18q25 18 111 65q32 18 44 29z" />
    <glyph glyph-name="Ecircumflex" unicode="&#xca;" horiz-adv-x="559" 
d="M510 418l-5 182h-469v-26h80v-548h-80v-26h469l5 182h-22l-16 -51q-26 -86 -80 -101q-14 -4 -29 -4h-151v269h204v29h-204v250h151q77 0 108 -101q1 -2 1 -4l16 -51h22zM415 629l12 17q-13 14 -74 88q-38 38 -61 41q-26 0 -56 -36q-6 -8 -20 -26q-34 -42 -57 -68l12 -15
q51 32 123 68q75 -38 121 -69z" />
    <glyph glyph-name="Edieresis" unicode="&#xcb;" horiz-adv-x="559" 
d="M510 418l-5 182h-469v-26h80v-548h-80v-26h469l5 182h-22l-16 -51q-26 -86 -80 -101q-14 -4 -29 -4h-151v269h204v29h-204v250h151q77 0 108 -101q1 -2 1 -4l16 -51h22zM255 701q0 35 -31 48q-11 5 -22 5q-36 0 -49 -31q-5 -11 -5 -22q0 -36 32 -50q11 -4 22 -4
q35 0 48 32q5 11 5 22zM439 701q0 35 -32 49q-11 4 -22 4q-36 0 -49 -32q-4 -11 -4 -21q0 -37 33 -50q10 -4 20 -4q36 0 49 32q5 10 5 22z" />
    <glyph glyph-name="Igrave" unicode="&#xcc;" horiz-adv-x="328" 
d="M292 0q0 22 -16 25q-5 1 -10 1h-54v548h80v26h-256v-26h80v-548h-80v-26h256zM255 631q-29 30 -80 105q-19 27 -29 37q-14 13 -29 13q-28 0 -43 -28q-5 -10 -5 -20q1 -19 15 -31q12 -11 83 -50q44 -24 72 -44z" />
    <glyph glyph-name="Iacute" unicode="&#xcd;" horiz-adv-x="328" 
d="M292 0q0 22 -16 25q-5 1 -10 1h-54v548h80v26h-256v-26h80v-548h-80v-26h256zM257 707q14 13 15 31q0 26 -26 42q-12 6 -22 6q-16 -1 -30 -13q-9 -8 -48 -67q-32 -46 -60 -75l16 -18q25 18 111 65q32 18 44 29z" />
    <glyph glyph-name="Icircumflex" unicode="&#xce;" horiz-adv-x="328" 
d="M292 0q0 22 -16 25q-5 1 -10 1h-54v548h80v26h-256v-26h80v-548h-80v-26h256zM287 629l12 17q-13 14 -74 88q-38 38 -61 41q-26 0 -56 -36q-6 -8 -20 -26q-34 -42 -57 -68l12 -15q51 32 123 68q75 -38 121 -69z" />
    <glyph glyph-name="Idieresis" unicode="&#xcf;" horiz-adv-x="328" 
d="M292 0q0 22 -16 25q-5 1 -10 1h-54v548h80v26h-256v-26h80v-548h-80v-26h256zM127 701q0 35 -31 48q-11 5 -22 5q-36 0 -49 -31q-5 -11 -5 -22q0 -36 32 -50q11 -4 22 -4q35 0 48 32q5 11 5 22zM311 701q0 35 -32 49q-11 4 -22 4q-36 0 -49 -32q-4 -11 -4 -21
q0 -37 33 -50q10 -4 20 -4q36 0 49 32q5 10 5 22z" />
    <glyph glyph-name="Eth" unicode="&#xd0;" horiz-adv-x="677" 
d="M36 600v-26h80v-243h-71v-41h71v-264h-80v-26h280q137 0 225 85q85 83 85 215q0 171 -126 251q-78 49 -182 49h-282zM316 574q149 0 188 -140q15 -55 15 -130q-1 -277 -201 -278h-106v264h117v41h-117v243h104z" />
    <glyph glyph-name="Ntilde" unicode="&#xd1;" horiz-adv-x="668" 
d="M455 574h84v-437l-375 463h-145v-26h80v-548h-80v-26h205q0 22 -16 25q-5 1 -10 1h-59v454l392 -485l48 10v569h80v26h-204v-26zM285 767q30 0 74 -33q36 -27 56 -27q38 0 53 53q1 2 1 4l21 -5q-21 -110 -91 -111q-30 0 -73 32q-36 27 -57 27q-37 0 -52 -48l-2 -8l-20 4
q21 111 90 112z" />
    <glyph glyph-name="Ograve" unicode="&#xd2;" horiz-adv-x="705" 
d="M355 610q-122 0 -210 -80q-94 -88 -94 -226q0 -160 111 -249q83 -65 190 -65q121 0 208 81q94 89 94 229q0 165 -115 251q-80 59 -184 59zM355 18q-180 0 -192 246q-1 18 -1 36q0 259 161 280q15 2 29 2q189 -2 190 -278q0 -245 -141 -281q-22 -5 -46 -5zM444 631
q-29 30 -80 105q-19 27 -29 37q-14 13 -29 13q-28 0 -43 -28q-5 -10 -5 -20q1 -19 15 -31q12 -11 83 -50q44 -24 72 -44z" />
    <glyph glyph-name="Oacute" unicode="&#xd3;" horiz-adv-x="705" 
d="M355 610q-122 0 -210 -80q-94 -88 -94 -226q0 -160 111 -249q83 -65 190 -65q121 0 208 81q94 89 94 229q0 165 -115 251q-80 59 -184 59zM355 18q-180 0 -192 246q-1 18 -1 36q0 259 161 280q15 2 29 2q189 -2 190 -278q0 -245 -141 -281q-22 -5 -46 -5zM446 707
q14 13 15 31q0 26 -26 42q-12 6 -22 6q-16 -1 -30 -13q-9 -8 -48 -67q-32 -46 -60 -75l16 -18q25 18 111 65q32 18 44 29z" />
    <glyph glyph-name="Ocircumflex" unicode="&#xd4;" horiz-adv-x="705" 
d="M355 610q-122 0 -210 -80q-94 -88 -94 -226q0 -160 111 -249q83 -65 190 -65q121 0 208 81q94 89 94 229q0 165 -115 251q-80 59 -184 59zM355 18q-180 0 -192 246q-1 18 -1 36q0 259 161 280q15 2 29 2q189 -2 190 -278q0 -245 -141 -281q-22 -5 -46 -5zM476 629l12 17
q-13 14 -74 88q-38 38 -61 41q-26 0 -56 -36q-6 -8 -20 -26q-34 -42 -57 -68l12 -15q51 32 123 68q75 -38 121 -69z" />
    <glyph glyph-name="Otilde" unicode="&#xd5;" horiz-adv-x="705" 
d="M355 610q-122 0 -210 -80q-94 -88 -94 -226q0 -160 111 -249q83 -65 190 -65q121 0 208 81q94 89 94 229q0 165 -115 251q-80 59 -184 59zM355 18q-180 0 -192 246q-1 18 -1 36q0 259 161 280q15 2 29 2q189 -2 190 -278q0 -245 -141 -281q-22 -5 -46 -5zM303 767
q30 0 74 -33q36 -27 56 -27q38 0 53 53q1 2 1 4l21 -5q-21 -110 -91 -111q-30 0 -73 32q-36 27 -57 27q-37 0 -52 -48l-2 -8l-20 4q21 111 90 112z" />
    <glyph glyph-name="Odieresis" unicode="&#xd6;" horiz-adv-x="705" 
d="M355 610q-122 0 -210 -80q-94 -88 -94 -226q0 -160 111 -249q83 -65 190 -65q121 0 208 81q94 89 94 229q0 165 -115 251q-80 59 -184 59zM355 18q-180 0 -192 246q-1 18 -1 36q0 259 161 280q15 2 29 2q189 -2 190 -278q0 -245 -141 -281q-22 -5 -46 -5zM316 701
q0 35 -31 48q-11 5 -22 5q-36 0 -49 -31q-5 -11 -5 -22q0 -36 32 -50q11 -4 22 -4q35 0 48 32q5 11 5 22zM500 701q0 35 -32 49q-11 4 -22 4q-36 0 -49 -32q-4 -11 -4 -21q0 -37 33 -50q10 -4 20 -4q36 0 49 32q5 10 5 22z" />
    <glyph glyph-name="multiply" unicode="&#xd7;" horiz-adv-x="401" 
d="M327 78l29 29l-128 128l128 127l-28 28l-127 -127l-128 127l-29 -29l128 -127l-127 -127l27 -28l127 127z" />
    <glyph glyph-name="Oslash" unicode="&#xd8;" horiz-adv-x="705" 
d="M355 610q-122 0 -210 -80q-94 -88 -94 -226q0 -160 111 -248q22 -18 47 -31l-71 -180h65l62 157q43 -12 87 -12q121 0 208 81q94 89 94 229q0 166 -117 252q-22 16 -45 27l52 131h-65l-43 -110q-39 10 -81 10zM162 300q0 259 161 280q15 2 29 2q39 0 72 -12l-198 -501
q-64 72 -64 231zM355 18q-42 0 -78 15l198 503q67 -67 67 -232q0 -245 -141 -281q-22 -5 -46 -5z" />
    <glyph glyph-name="Ugrave" unicode="&#xd9;" horiz-adv-x="635" 
d="M10 574h80v-350q2 -233 237 -234q173 0 211 139q12 45 12 105v340h80v26h-195v-26h80v-346q0 -199 -152 -210h-15q-120 0 -150 108q-12 44 -12 104v344h79v26h-255v-26zM429 631q-29 30 -80 105q-19 27 -29 37q-14 13 -29 13q-28 0 -43 -28q-5 -10 -5 -20q1 -19 15 -31
q12 -11 83 -50q44 -24 72 -44z" />
    <glyph glyph-name="Uacute" unicode="&#xda;" horiz-adv-x="635" 
d="M10 574h80v-350q2 -233 237 -234q173 0 211 139q12 45 12 105v340h80v26h-195v-26h80v-346q0 -199 -152 -210h-15q-120 0 -150 108q-12 44 -12 104v344h79v26h-255v-26zM431 707q14 13 15 31q0 26 -26 42q-12 6 -22 6q-16 -1 -30 -13q-9 -8 -48 -67q-32 -46 -60 -75
l16 -18q25 18 111 65q32 18 44 29z" />
    <glyph glyph-name="Ucircumflex" unicode="&#xdb;" horiz-adv-x="635" 
d="M10 574h80v-350q2 -233 237 -234q173 0 211 139q12 45 12 105v340h80v26h-195v-26h80v-346q0 -199 -152 -210h-15q-120 0 -150 108q-12 44 -12 104v344h79v26h-255v-26zM461 629l12 17q-13 14 -74 88q-38 38 -61 41q-26 0 -56 -36q-6 -8 -20 -26q-34 -42 -57 -68l12 -15
q51 32 123 68q75 -38 121 -69z" />
    <glyph glyph-name="Udieresis" unicode="&#xdc;" horiz-adv-x="635" 
d="M10 574h80v-350q2 -233 237 -234q173 0 211 139q12 45 12 105v340h80v26h-195v-26h80v-346q0 -199 -152 -210h-15q-120 0 -150 108q-12 44 -12 104v344h79v26h-255v-26zM301 701q0 35 -31 48q-11 5 -22 5q-36 0 -49 -31q-5 -11 -5 -22q0 -36 32 -50q11 -4 22 -4
q35 0 48 32q5 11 5 22zM485 701q0 35 -32 49q-11 4 -22 4q-36 0 -49 -32q-4 -11 -4 -21q0 -37 33 -50q10 -4 20 -4q36 0 49 32q5 10 5 22z" />
    <glyph glyph-name="Yacute" unicode="&#xdd;" horiz-adv-x="559" 
d="M413 0q-8 24 -27 26h-54v225l148 295q22 26 53 28q22 0 25 16q1 5 1 10h-178v-26h80l-148 -288l-157 288h76v26h-236v-26h53l187 -332v-216h-81v-26h258zM388 707q14 13 15 31q0 26 -26 42q-12 6 -22 6q-16 -1 -30 -13q-9 -8 -48 -67q-32 -46 -60 -75l16 -18
q25 18 111 65q32 18 44 29z" />
    <glyph glyph-name="Thorn" unicode="&#xde;" 
d="M308 454q90 0 113 -86q6 -24 6 -51q0 -130 -113 -142q-10 -1 -21 -1h-85v280h100zM292 0q0 23 -13 25q-5 1 -11 1h-60v119h88q163 0 216 94q20 36 20 81q0 98 -86 139q-46 21 -110 21h-128v94h84v26h-260v-26h80v-548h-80v-26h260z" />
    <glyph glyph-name="germandbls" unicode="&#xdf;" horiz-adv-x="556" 
d="M537 119q0 73 -74 129q-11 9 -35 25q-55 38 -67 61q-8 14 -8 29q0 33 41 58q48 29 52 32q34 29 35 74q0 64 -72 99q-46 22 -106 22q-132 0 -177 -102q-20 -45 -20 -105v-15h-73v-26h73v-322q-2 -52 -76 -52v-26h161v432q0 161 68 188q17 7 39 7q64 0 86 -60q8 -22 8 -49
q0 -52 -45 -84q-5 -4 -16 -11q-40 -25 -50 -48q-7 -16 -7 -36q0 -57 66 -108q10 -8 31 -22q59 -42 75 -69q12 -21 12 -43q0 -61 -43 -78q-13 -5 -26 -5q-37 0 -53 38.5t-17 40.5q-12 16 -31 17q-34 0 -41 -29q-1 -5 -1 -10q0 -46 65 -68q35 -12 75 -12q79 0 123 50
q28 33 28 78z" />
    <glyph glyph-name="agrave" unicode="&#xe0;" horiz-adv-x="484" 
d="M390 -10q72 0 86 72q2 15 3 32l-26 1q-7 -72 -38 -73q-25 2 -26 51v211q-2 152 -165 153q-116 0 -154 -53q-12 -17 -12 -34q0 -32 30 -39q7 -1 13 -1q27 0 39 32q14 39 17 44q19 26 57 26q89 -2 90 -104v-63q-249 -1 -270 -115q-2 -11 -2 -24q0 -79 69 -106
q26 -10 56 -10q73 0 121 50q18 19 27 41q13 -90 85 -91zM194 31q-63 0 -72 70q-1 10 -1 21q0 67 74 85q39 9 109 10v-83q-17 -69 -72 -95q-20 -8 -38 -8zM332 501q-29 30 -80 105q-19 27 -29 37q-14 13 -29 13q-28 0 -43 -28q-5 -10 -5 -20q1 -19 15 -31q12 -11 83 -50
q44 -24 72 -44z" />
    <glyph glyph-name="aacute" unicode="&#xe1;" horiz-adv-x="484" 
d="M390 -10q72 0 86 72q2 15 3 32l-26 1q-7 -72 -38 -73q-25 2 -26 51v211q-2 152 -165 153q-116 0 -154 -53q-12 -17 -12 -34q0 -32 30 -39q7 -1 13 -1q27 0 39 32q14 39 17 44q19 26 57 26q89 -2 90 -104v-63q-249 -1 -270 -115q-2 -11 -2 -24q0 -79 69 -106
q26 -10 56 -10q73 0 121 50q18 19 27 41q13 -90 85 -91zM194 31q-63 0 -72 70q-1 10 -1 21q0 67 74 85q39 9 109 10v-83q-17 -69 -72 -95q-20 -8 -38 -8zM334 577q14 13 15 31q0 26 -26 42q-12 6 -22 6q-16 -1 -30 -13q-9 -8 -48 -67q-32 -46 -60 -75l16 -18q25 18 111 65
q32 18 44 29z" />
    <glyph glyph-name="acircumflex" unicode="&#xe2;" horiz-adv-x="484" 
d="M390 -10q72 0 86 72q2 15 3 32l-26 1q-7 -72 -38 -73q-25 2 -26 51v211q-2 152 -165 153q-116 0 -154 -53q-12 -17 -12 -34q0 -32 30 -39q7 -1 13 -1q27 0 39 32q14 39 17 44q19 26 57 26q89 -2 90 -104v-63q-249 -1 -270 -115q-2 -11 -2 -24q0 -79 69 -106
q26 -10 56 -10q73 0 121 50q18 19 27 41q13 -90 85 -91zM194 31q-63 0 -72 70q-1 10 -1 21q0 67 74 85q39 9 109 10v-83q-17 -69 -72 -95q-20 -8 -38 -8zM364 499l12 17q-13 14 -74 88q-38 38 -61 41q-26 0 -56 -36q-6 -8 -20 -26q-34 -42 -57 -68l12 -15q51 32 123 68
q75 -38 121 -69z" />
    <glyph glyph-name="atilde" unicode="&#xe3;" horiz-adv-x="484" 
d="M390 -10q72 0 86 72q2 15 3 32l-26 1q-7 -72 -38 -73q-25 2 -26 51v211q-2 152 -165 153q-116 0 -154 -53q-12 -17 -12 -34q0 -32 30 -39q7 -1 13 -1q27 0 39 32q14 39 17 44q19 26 57 26q89 -2 90 -104v-63q-249 -1 -270 -115q-2 -11 -2 -24q0 -79 69 -106
q26 -10 56 -10q73 0 121 50q18 19 27 41q13 -90 85 -91zM194 31q-63 0 -72 70q-1 10 -1 21q0 67 74 85q39 9 109 10v-83q-17 -69 -72 -95q-20 -8 -38 -8zM191 637q30 0 74 -33q36 -27 56 -27q38 0 53 53q1 2 1 4l21 -5q-21 -110 -91 -111q-30 0 -73 32q-36 27 -57 27
q-37 0 -52 -48l-2 -8l-20 4q21 111 90 112z" />
    <glyph glyph-name="adieresis" unicode="&#xe4;" horiz-adv-x="484" 
d="M390 -10q72 0 86 72q2 15 3 32l-26 1q-7 -72 -38 -73q-25 2 -26 51v211q-2 152 -165 153q-116 0 -154 -53q-12 -17 -12 -34q0 -32 30 -39q7 -1 13 -1q27 0 39 32q14 39 17 44q19 26 57 26q89 -2 90 -104v-63q-249 -1 -270 -115q-2 -11 -2 -24q0 -79 69 -106
q26 -10 56 -10q73 0 121 50q18 19 27 41q13 -90 85 -91zM194 31q-63 0 -72 70q-1 10 -1 21q0 67 74 85q39 9 109 10v-83q-17 -69 -72 -95q-20 -8 -38 -8zM204 571q0 35 -31 48q-11 5 -22 5q-36 0 -49 -31q-5 -11 -5 -22q0 -36 32 -50q11 -4 22 -4q35 0 48 32q5 11 5 22z
M388 571q0 35 -32 49q-11 4 -22 4q-36 0 -49 -32q-4 -11 -4 -21q0 -37 33 -50q10 -4 20 -4q36 0 49 32q5 10 5 22z" />
    <glyph glyph-name="aring" unicode="&#xe5;" horiz-adv-x="484" 
d="M390 -10q72 0 86 72q2 15 3 32l-26 1q-7 -72 -38 -73q-25 2 -26 51v211q-2 152 -165 153q-116 0 -154 -53q-12 -17 -12 -34q0 -32 30 -39q7 -1 13 -1q27 0 39 32q14 39 17 44q19 26 57 26q89 -2 90 -104v-63q-249 -1 -270 -115q-2 -11 -2 -24q0 -79 69 -106
q26 -10 56 -10q73 0 121 50q18 19 27 41q13 -90 85 -91zM194 31q-63 0 -72 70q-1 10 -1 21q0 67 74 85q39 9 109 10v-83q-17 -69 -72 -95q-20 -8 -38 -8zM194 573q0 61 38 69q5 1 10 1q42 0 48 -54q1 -7 1 -14q0 -54 -33 -67q-8 -3 -16 -3q-47 1 -48 68zM245 666
q-77 0 -102 -53q-8 -18 -8 -38q0 -60 53 -83q24 -10 52 -10q74 0 100 54q9 19 9 40q0 57 -52 80q-24 10 -52 10z" />
    <glyph glyph-name="ae" unicode="&#xe6;" horiz-adv-x="727" 
d="M510 412q71 0 89 -65q5 -18 5 -37q0 -49 -44 -60q-25 -6 -69 -5l-97 3q5 132 82 159q16 5 34 5zM688 101l-26 5q-32 -70 -102 -85q-16 -3 -31 -3q-102 0 -127 127q-7 34 -8 75l114 -2q128 -2 163 26q23 20 23 54q0 71 -72 111q-49 28 -113 28q-88 -1 -143 -62
q-38 62 -140 62q-119 0 -158 -53q-11 -17 -11 -34q0 -32 30 -39q7 -1 13 -1q26 0 38 30q15 40 17 43q19 28 61 29q85 0 92 -90v-14v-63q-240 -1 -272 -102q-5 -17 -5 -37q0 -79 71 -106q26 -10 56 -10q83 0 137 64q21 26 31 54q44 -117 186 -118q110 0 160 79q10 16 16 32z
M196 31q-70 0 -76 79v12q0 68 80 87q40 8 108 9v-84q-15 -67 -71 -93q-21 -10 -41 -10z" />
    <glyph glyph-name="ccedilla" unicode="&#xe7;" horiz-adv-x="439" 
d="M38 210q0 -126 92 -186q34 -21 74 -29l-40 -80l14 -9q24 17 50 17q45 0 51 -45q1 -6 1 -12q0 -53 -40 -65q-8 -2 -16 -2q-39 1 -69 39l-16 -12q35 -52 106 -53q70 0 103 44q15 22 15 47q0 53 -55 75q-24 10 -51 10t-53 -11l24 53q10 -1 27 -1q105 0 158 72q13 17 21 36
l-26 8q-35 -73 -114 -86q-13 -2 -26 -2q-74 0 -111 76q-24 50 -24 122q0 155 83 188q20 8 42 8q52 0 63 -43q2 -7 4 -24q6 -42 23 -52q10 -6 25 -7q38 -1 47 31q2 7 2 13q0 49 -62 82q-48 25 -106 25q-126 0 -183 -97q-33 -57 -33 -130z" />
    <glyph glyph-name="egrave" unicode="&#xe8;" horiz-adv-x="466" 
d="M250 412q68 0 88 -62q6 -19 6 -40q0 -49 -44 -60q-25 -6 -69 -5l-98 3q4 118 72 153q21 11 45 11zM427 97l-25 9q-32 -70 -102 -85q-16 -3 -31 -3q-106 0 -130 134q-5 31 -6 68l115 -2q128 -2 163 26q23 20 23 54q0 71 -72 112q-50 27 -114 27q-121 0 -178 -97
q-32 -56 -32 -129q0 -128 93 -188q53 -33 120 -33q112 0 163 81q7 13 13 26zM324 501q-29 30 -80 105q-19 27 -29 37q-14 13 -29 13q-28 0 -43 -28q-5 -10 -5 -20q1 -19 15 -31q12 -11 83 -50q44 -24 72 -44z" />
    <glyph glyph-name="eacute" unicode="&#xe9;" horiz-adv-x="466" 
d="M250 412q68 0 88 -62q6 -19 6 -40q0 -49 -44 -60q-25 -6 -69 -5l-98 3q4 118 72 153q21 11 45 11zM427 97l-25 9q-32 -70 -102 -85q-16 -3 -31 -3q-106 0 -130 134q-5 31 -6 68l115 -2q128 -2 163 26q23 20 23 54q0 71 -72 112q-50 27 -114 27q-121 0 -178 -97
q-32 -56 -32 -129q0 -128 93 -188q53 -33 120 -33q112 0 163 81q7 13 13 26zM326 577q14 13 15 31q0 26 -26 42q-12 6 -22 6q-16 -1 -30 -13q-9 -8 -48 -67q-32 -46 -60 -75l16 -18q25 18 111 65q32 18 44 29z" />
    <glyph glyph-name="ecircumflex" unicode="&#xea;" horiz-adv-x="466" 
d="M250 412q68 0 88 -62q6 -19 6 -40q0 -49 -44 -60q-25 -6 -69 -5l-98 3q4 118 72 153q21 11 45 11zM427 97l-25 9q-32 -70 -102 -85q-16 -3 -31 -3q-106 0 -130 134q-5 31 -6 68l115 -2q128 -2 163 26q23 20 23 54q0 71 -72 112q-50 27 -114 27q-121 0 -178 -97
q-32 -56 -32 -129q0 -128 93 -188q53 -33 120 -33q112 0 163 81q7 13 13 26zM356 499l12 17q-13 14 -74 88q-38 38 -61 41q-26 0 -56 -36q-6 -8 -20 -26q-34 -42 -57 -68l12 -15q51 32 123 68q75 -38 121 -69z" />
    <glyph glyph-name="edieresis" unicode="&#xeb;" horiz-adv-x="466" 
d="M250 412q68 0 88 -62q6 -19 6 -40q0 -49 -44 -60q-25 -6 -69 -5l-98 3q4 118 72 153q21 11 45 11zM427 97l-25 9q-32 -70 -102 -85q-16 -3 -31 -3q-106 0 -130 134q-5 31 -6 68l115 -2q128 -2 163 26q23 20 23 54q0 71 -72 112q-50 27 -114 27q-121 0 -178 -97
q-32 -56 -32 -129q0 -128 93 -188q53 -33 120 -33q112 0 163 81q7 13 13 26zM196 571q0 35 -31 48q-11 5 -22 5q-36 0 -49 -31q-5 -11 -5 -22q0 -36 32 -50q11 -4 22 -4q35 0 48 32q5 11 5 22zM380 571q0 35 -32 49q-11 4 -22 4q-36 0 -49 -32q-4 -11 -4 -21q0 -37 33 -50
q10 -4 20 -4q36 0 49 32q5 10 5 22z" />
    <glyph glyph-name="igrave" unicode="&#xec;" horiz-adv-x="286" 
d="M239 26h-48v400h-163v-26h72v-322q-5 -51 -72 -52v-26h235q0 23 -13 25q-5 1 -11 1zM233 501q-29 30 -80 105q-19 27 -29 37q-14 13 -29 13q-28 0 -43 -28q-5 -10 -5 -20q1 -19 15 -31q12 -11 83 -50q44 -24 72 -44z" />
    <glyph glyph-name="iacute" unicode="&#xed;" horiz-adv-x="286" 
d="M239 26h-48v400h-163v-26h72v-322q-5 -51 -72 -52v-26h235q0 23 -13 25q-5 1 -11 1zM235 577q14 13 15 31q0 26 -26 42q-12 6 -22 6q-16 -1 -30 -13q-9 -8 -48 -67q-32 -46 -60 -75l16 -18q25 18 111 65q32 18 44 29z" />
    <glyph glyph-name="icircumflex" unicode="&#xee;" horiz-adv-x="286" 
d="M239 26h-48v400h-163v-26h72v-322q-5 -51 -72 -52v-26h235q0 23 -13 25q-5 1 -11 1zM266 499l12 17q-13 14 -74 88q-38 38 -61 41q-26 0 -56 -36q-6 -8 -20 -26q-34 -42 -57 -68l12 -15q51 32 123 68q75 -38 121 -69z" />
    <glyph glyph-name="idieresis" unicode="&#xef;" horiz-adv-x="286" 
d="M115 570q0 35 -31 48q-11 5 -21 5q-37 0 -50 -33q-4 -10 -4 -20q0 -36 33 -48q10 -4 21 -4q33 0 47 30q5 11 5 22zM279 570q0 35 -31 48q-11 5 -22 5q-36 0 -49 -32q-4 -11 -4 -21q0 -36 32 -48q11 -4 21 -4q35 0 48 30q5 11 5 22zM239 26h-48v400h-163v-26h72v-322
q-5 -51 -72 -52v-26h235q0 23 -13 25q-5 1 -11 1z" />
    <glyph glyph-name="eth" unicode="&#xf0;" horiz-adv-x="535" 
d="M477 246q0 142 -83 255q-32 44 -72 75l89 51l-15 26l-102 -57q-81 50 -178 54l-3 -27q81 -6 140 -50l-123 -69l16 -28l131 75q60 -63 83 -174q-45 26 -103 26q-97 0 -162 -64q-57 -57 -57 -139q0 -112 88 -171q57 -39 130 -39q133 0 190 114q31 61 31 142zM133 196
q0 156 96 179q15 3 30 3q90 0 116 -99q9 -35 9 -78q0 -118 -59 -164q-29 -22 -66 -22q-116 0 -125 155q-1 13 -1 26z" />
    <glyph glyph-name="ntilde" unicode="&#xf1;" horiz-adv-x="567" 
d="M226 25h-41v220q2 91 62 131q26 16 52 16q61 0 81 -58q7 -22 7 -48v-202q0 -45 -26 -54q-14 -5 -43 -5v-25h226q0 22 -15 24q-4 1 -10 1h-47v250q0 105 -72 145q-31 17 -66 17q-74 0 -123 -60q-17 -20 -27 -45l-4 94h-152v-25h72v-317q0 -46 -28 -55q-15 -4 -44 -4v-25
h223q0 22 -15 24q-4 1 -10 1zM232 637q30 0 74 -33q36 -27 56 -27q38 0 53 53q1 2 1 4l21 -5q-21 -110 -91 -111q-30 0 -73 32q-36 27 -57 27q-37 0 -52 -48l-2 -8l-20 4q21 111 90 112z" />
    <glyph glyph-name="ograve" unicode="&#xf2;" horiz-adv-x="515" 
d="M133 214q1 197 124 198q123 -2 124 -194q-1 -202 -122 -203q-125 2 -126 199zM260 437q-101 0 -166 -69q-56 -61 -56 -150q0 -122 88 -186q58 -42 130 -42q99 0 163 70q58 63 58 155q0 122 -90 184q-56 38 -127 38zM354 501q-29 30 -80 105q-19 27 -29 37q-14 13 -29 13
q-28 0 -43 -28q-5 -10 -5 -20q1 -19 15 -31q12 -11 83 -50q44 -24 72 -44z" />
    <glyph glyph-name="oacute" unicode="&#xf3;" horiz-adv-x="515" 
d="M133 214q1 197 124 198q123 -2 124 -194q-1 -202 -122 -203q-125 2 -126 199zM260 437q-101 0 -166 -69q-56 -61 -56 -150q0 -122 88 -186q58 -42 130 -42q99 0 163 70q58 63 58 155q0 122 -90 184q-56 38 -127 38zM356 577q14 13 15 31q0 26 -26 42q-12 6 -22 6
q-16 -1 -30 -13q-9 -8 -48 -67q-32 -46 -60 -75l16 -18q25 18 111 65q32 18 44 29z" />
    <glyph glyph-name="ocircumflex" unicode="&#xf4;" horiz-adv-x="515" 
d="M133 214q1 197 124 198q123 -2 124 -194q-1 -202 -122 -203q-125 2 -126 199zM260 437q-101 0 -166 -69q-56 -61 -56 -150q0 -122 88 -186q58 -42 130 -42q99 0 163 70q58 63 58 155q0 122 -90 184q-56 38 -127 38zM386 499l12 17q-13 14 -74 88q-38 38 -61 41
q-26 0 -56 -36q-6 -8 -20 -26q-34 -42 -57 -68l12 -15q51 32 123 68q75 -38 121 -69z" />
    <glyph glyph-name="otilde" unicode="&#xf5;" horiz-adv-x="515" 
d="M133 214q1 197 124 198q123 -2 124 -194q-1 -202 -122 -203q-125 2 -126 199zM260 437q-101 0 -166 -69q-56 -61 -56 -150q0 -122 88 -186q58 -42 130 -42q99 0 163 70q58 63 58 155q0 122 -90 184q-56 38 -127 38zM212 637q30 0 74 -33q36 -27 56 -27q38 0 53 53
q1 2 1 4l21 -5q-21 -110 -91 -111q-30 0 -73 32q-36 27 -57 27q-37 0 -52 -48l-2 -8l-20 4q21 111 90 112z" />
    <glyph glyph-name="odieresis" unicode="&#xf6;" horiz-adv-x="515" 
d="M133 214q1 197 124 198q123 -2 124 -194q-1 -202 -122 -203q-125 2 -126 199zM260 437q-101 0 -166 -69q-56 -61 -56 -150q0 -122 88 -186q58 -42 130 -42q99 0 163 70q58 63 58 155q0 122 -90 184q-56 38 -127 38zM226 571q0 35 -31 48q-11 5 -22 5q-36 0 -49 -31
q-5 -11 -5 -22q0 -36 32 -50q11 -4 22 -4q35 0 48 32q5 11 5 22zM410 571q0 35 -32 49q-11 4 -22 4q-36 0 -49 -32q-4 -11 -4 -21q0 -37 33 -50q10 -4 20 -4q36 0 49 32q5 10 5 22z" />
    <glyph glyph-name="divide" unicode="&#xf7;" horiz-adv-x="465" 
d="M423 215v38h-381v-38h381zM194 91q5 24 32 32q13 2 24 -1q25 -5 32 -31q3 -12 0 -23q-7 -28 -35 -33q-12 -2 -22 1q-17 4 -28 19q-9 17 -3 36zM194 392q5 24 32 32q13 2 24 -1q25 -5 32 -31q3 -12 0 -23q-7 -28 -35 -33q-12 -2 -22 1q-17 4 -28 19q-9 17 -3 36z" />
    <glyph glyph-name="oslash" unicode="&#xf8;" horiz-adv-x="515" 
d="M30 -10l68 67q63 -67 158 -67q99 0 163 70q58 63 58 155q-1 96 -58 157l71 69l-22 20l-71 -69q-60 45 -137 45q-101 0 -166 -69q-56 -61 -56 -150q1 -81 41 -138l-71 -69zM133 214q1 197 124 198q68 -1 100 -60l-218 -213q-6 35 -6 75zM259 15q-83 1 -112 90l221 217
q13 -42 13 -104q-1 -202 -122 -203z" />
    <glyph glyph-name="ugrave" unicode="&#xf9;" horiz-adv-x="566" 
d="M516 25h-47v401h-161v-25h75v-223q-1 -88 -62 -127q-25 -16 -52 -16q-78 0 -89 84q-2 13 -2 26v281h-159v-25h73v-241q1 -169 143 -170q76 0 124 62q16 21 26 46l7 -98h148q0 21 -13 24q-5 1 -11 1zM374 501q-29 30 -80 105q-19 27 -29 37q-14 13 -29 13q-28 0 -43 -28
q-5 -10 -5 -20q1 -19 15 -31q12 -11 83 -50q44 -24 72 -44z" />
    <glyph glyph-name="uacute" unicode="&#xfa;" horiz-adv-x="566" 
d="M516 25h-47v401h-161v-25h75v-223q-1 -88 -62 -127q-25 -16 -52 -16q-78 0 -89 84q-2 13 -2 26v281h-159v-25h73v-241q1 -169 143 -170q76 0 124 62q16 21 26 46l7 -98h148q0 21 -13 24q-5 1 -11 1zM376 577q14 13 15 31q0 26 -26 42q-12 6 -22 6q-16 -1 -30 -13
q-9 -8 -48 -67q-32 -46 -60 -75l16 -18q25 18 111 65q32 18 44 29z" />
    <glyph glyph-name="ucircumflex" unicode="&#xfb;" horiz-adv-x="566" 
d="M516 25h-47v401h-161v-25h75v-223q-1 -88 -62 -127q-25 -16 -52 -16q-78 0 -89 84q-2 13 -2 26v281h-159v-25h73v-241q1 -169 143 -170q76 0 124 62q16 21 26 46l7 -98h148q0 21 -13 24q-5 1 -11 1zM406 499l12 17q-13 14 -74 88q-38 38 -61 41q-26 0 -56 -36
q-6 -8 -20 -26q-34 -42 -57 -68l12 -15q51 32 123 68q75 -38 121 -69z" />
    <glyph glyph-name="udieresis" unicode="&#xfc;" horiz-adv-x="566" 
d="M516 25h-47v401h-161v-25h75v-223q-1 -88 -62 -127q-25 -16 -52 -16q-78 0 -89 84q-2 13 -2 26v281h-159v-25h73v-241q1 -169 143 -170q76 0 124 62q16 21 26 46l7 -98h148q0 21 -13 24q-5 1 -11 1zM246 571q0 35 -31 48q-11 5 -22 5q-36 0 -49 -31q-5 -11 -5 -22
q0 -36 32 -50q11 -4 22 -4q35 0 48 32q5 11 5 22zM430 571q0 35 -32 49q-11 4 -22 4q-36 0 -49 -32q-4 -11 -4 -21q0 -37 33 -50q10 -4 20 -4q36 0 49 32q5 10 5 22z" />
    <glyph glyph-name="yacute" unicode="&#xfd;" horiz-adv-x="485" 
d="M108 -159q-16 0 -25 25q-12 31 -23 38q-9 6 -21 6q-33 0 -39 -28q-1 -5 -1 -9q0 -37 44 -55q22 -9 46 -9q79 0 137 96q23 38 45 92l148 370q10 28 23 32q6 1 14 1q21 0 24 11q1 6 1 15h-152v-26h73l-125 -311l-133 311h66v26h-203v-26h47l183 -404q-54 -129 -102 -150
q-14 -5 -27 -5zM368 577q14 13 15 31q0 26 -26 42q-12 6 -22 6q-16 -1 -30 -13q-9 -8 -48 -67q-32 -46 -60 -75l16 -18q25 18 111 65q32 18 44 29z" />
    <glyph glyph-name="thorn" unicode="&#xfe;" horiz-adv-x="558" 
d="M187 -164v205q51 -49 126 -51q91 0 151 69q56 65 56 165q0 115 -65 174q-44 39 -105 39q-90 0 -139 -69q-16 -22 -25 -48v330h-158v-26h74v-736q0 -41 -35 -49q-14 -3 -37 -3v-26h249q0 23 -13 25q-5 1 -11 1h-68zM314 395q83 0 105 -109q6 -33 6 -73q0 -149 -75 -187
q-22 -11 -47 -11q-73 0 -102 79q-15 42 -15 100q0 130 65 180q29 21 63 21z" />
    <glyph glyph-name="ydieresis" unicode="&#xff;" horiz-adv-x="485" 
d="M108 -159q-16 0 -25 25q-12 31 -23 38q-9 6 -21 6q-33 0 -39 -28q-1 -5 -1 -9q0 -37 44 -55q22 -9 46 -9q79 0 137 96q23 38 45 92l148 370q10 28 23 32q6 1 14 1q21 0 24 11q1 6 1 15h-152v-26h73l-125 -311l-133 311h66v26h-203v-26h47l183 -404q-54 -129 -102 -150
q-14 -5 -27 -5zM212 571q0 35 -31 48q-11 5 -22 5q-36 0 -49 -31q-5 -11 -5 -22q0 -36 32 -50q11 -4 22 -4q35 0 48 32q5 11 5 22zM396 571q0 35 -32 49q-11 4 -22 4q-36 0 -49 -32q-4 -11 -4 -21q0 -37 33 -50q10 -4 20 -4q36 0 49 32q5 10 5 22z" />
    <glyph glyph-name="Amacron" unicode="&#x100;" horiz-adv-x="620" 
d="M620 0q0 23 -16 25q-5 1 -10 1h-33l-230 574h-45l-223 -574h-63v-26h179q0 23 -15 25q-5 1 -10 1h-51l75 194h207l75 -194h-67v-26h227zM373 249h-184l92 239zM158 670h304v51h-304v-51z" />
    <glyph glyph-name="amacron" unicode="&#x101;" horiz-adv-x="484" 
d="M390 -10q72 0 86 72q2 15 3 32l-26 1q-7 -72 -38 -73q-25 2 -26 51v211q-2 152 -165 153q-116 0 -154 -53q-12 -17 -12 -34q0 -32 30 -39q7 -1 13 -1q27 0 39 32q14 39 17 44q19 26 57 26q89 -2 90 -104v-63q-249 -1 -270 -115q-2 -11 -2 -24q0 -79 69 -106
q26 -10 56 -10q73 0 121 50q18 19 27 41q13 -90 85 -91zM194 31q-63 0 -72 70q-1 10 -1 21q0 67 74 85q39 9 109 10v-83q-17 -69 -72 -95q-20 -8 -38 -8zM92 540h304v51h-304v-51z" />
    <glyph glyph-name="Abreve" unicode="&#x102;" horiz-adv-x="620" 
d="M620 0q0 23 -16 25q-5 1 -10 1h-33l-230 574h-45l-223 -574h-63v-26h179q0 23 -15 25q-5 1 -10 1h-51l75 194h207l75 -194h-67v-26h227zM373 249h-184l92 239zM311 706q84 0 99 59q1 3 1 5h21q0 -89 -64 -119q-27 -12 -60 -12q-91 0 -117 79q-8 25 -8 52h20
q15 -64 108 -64z" />
    <glyph glyph-name="abreve" unicode="&#x103;" horiz-adv-x="484" 
d="M390 -10q72 0 86 72q2 15 3 32l-26 1q-7 -72 -38 -73q-25 2 -26 51v211q-2 152 -165 153q-116 0 -154 -53q-12 -17 -12 -34q0 -32 30 -39q7 -1 13 -1q27 0 39 32q14 39 17 44q19 26 57 26q89 -2 90 -104v-63q-249 -1 -270 -115q-2 -11 -2 -24q0 -79 69 -106
q26 -10 56 -10q73 0 121 50q18 19 27 41q13 -90 85 -91zM194 31q-63 0 -72 70q-1 10 -1 21q0 67 74 85q39 9 109 10v-83q-17 -69 -72 -95q-20 -8 -38 -8zM245 576q84 0 99 59q1 3 1 5h21q0 -89 -64 -119q-27 -12 -60 -12q-91 0 -117 79q-8 25 -8 52h20q15 -64 108 -64z" />
    <glyph glyph-name="Aogonek" unicode="&#x104;" horiz-adv-x="620" 
d="M620 0q0 23 -16 25q-5 1 -10 1h-33l-230 574h-45l-223 -574h-63v-26h179q0 23 -15 25q-5 1 -10 1h-51l75 194h207l75 -194h-67v-26h171q-111 -29 -131 -93q-4 -12 -4 -23q0 -46 49 -66q22 -9 49 -9q57 1 91 37l-12 15q-28 -23 -54 -23q-35 0 -40 39q-1 6 -1 11
q0 49 52 88q20 14 44 24h13zM373 249h-184l92 239z" />
    <glyph glyph-name="aogonek" unicode="&#x105;" horiz-adv-x="484" 
d="M194 31q-63 0 -72 70q-1 10 -1 21q0 67 74 85q39 9 109 10v-83q-17 -69 -72 -95q-20 -8 -38 -8zM401 -162q-35 0 -40 39q-1 6 -1 11q0 49 52 88q20 14 44 24l-1 9l-7 -1q28 25 31 86l-26 1q-7 -72 -38 -73q-25 2 -26 51v211q-2 152 -165 153q-116 0 -154 -53
q-12 -17 -12 -34q0 -32 30 -39q7 -1 13 -1q27 0 39 32q14 39 17 44q19 26 57 26q89 -2 90 -104v-63q-249 -1 -270 -115q-2 -11 -2 -24q0 -79 69 -106q26 -10 56 -10q73 0 121 50q18 19 27 41q13 -85 77 -91q-92 -33 -103 -93q-1 -7 -1 -13q0 -46 49 -66q22 -9 49 -9
q57 1 91 37l-12 15q-28 -23 -54 -23z" />
    <glyph glyph-name="Cacute" unicode="&#x106;" horiz-adv-x="619" 
d="M547 45q0 -42 14 -48q6 -2 18 -2v191h-26q-50 -167 -201 -168q-139 0 -179 154q-15 57 -15 129q0 191 104 255q42 26 94 26q146 -2 194 -164h26l-3 187q-23 0 -28 -15q-2 -12 -2 -36q-57 44 -151 54q-21 2 -42 2q-160 0 -245 -117q-59 -83 -59 -191q0 -131 82 -220
q86 -92 225 -92q102 1 194 55zM413 777q14 13 15 31q0 26 -26 42q-12 6 -22 6q-16 -1 -30 -13q-9 -8 -48 -67q-32 -46 -60 -75l16 -18q25 18 111 65q32 18 44 29z" />
    <glyph glyph-name="cacute" unicode="&#x107;" horiz-adv-x="439" 
d="M38 210q0 -127 93 -186q54 -34 124 -34q105 0 158 72q13 17 21 36l-26 8q-35 -73 -114 -86q-13 -2 -26 -2q-74 0 -111 76q-24 50 -24 122q0 155 83 188q20 8 42 8q52 0 63 -43q2 -7 4 -24q6 -42 23 -52q10 -6 25 -7q38 -1 47 31q2 7 2 13q0 49 -62 82q-48 25 -106 25
q-126 0 -183 -97q-33 -57 -33 -130zM338 577q14 13 15 31q0 26 -26 42q-12 6 -22 6q-16 -1 -30 -13q-9 -8 -48 -67q-32 -46 -60 -75l16 -18q25 18 111 65q32 18 44 29z" />
    <glyph glyph-name="Ccaron" unicode="&#x10c;" horiz-adv-x="619" 
d="M547 45q0 -42 14 -48q6 -2 18 -2v191h-26q-50 -167 -201 -168q-139 0 -179 154q-15 57 -15 129q0 191 104 255q42 26 94 26q146 -2 194 -164h26l-3 187q-23 0 -28 -15q-2 -12 -2 -36q-57 44 -151 54q-21 2 -42 2q-160 0 -245 -117q-59 -83 -59 -191q0 -131 82 -220
q86 -92 225 -92q102 1 194 55zM323 701q28 0 61 39q8 8 25 30q34 42 57 67l-14 16q-53 -34 -129 -73q-92 47 -131 74l-14 -18q25 -27 60 -69q42 -51 60 -60q13 -6 25 -6z" />
    <glyph glyph-name="ccaron" unicode="&#x10d;" horiz-adv-x="439" 
d="M38 210q0 -127 93 -186q54 -34 124 -34q105 0 158 72q13 17 21 36l-26 8q-35 -73 -114 -86q-13 -2 -26 -2q-74 0 -111 76q-24 50 -24 122q0 155 83 188q20 8 42 8q52 0 63 -43q2 -7 4 -24q6 -42 23 -52q10 -6 25 -7q38 -1 47 31q2 7 2 13q0 49 -62 82q-48 25 -106 25
q-126 0 -183 -97q-33 -57 -33 -130zM247 501q28 0 61 39q8 8 25 30q34 42 57 67l-14 16q-53 -34 -129 -73q-92 47 -131 74l-14 -18q25 -27 60 -69q42 -51 60 -60q13 -6 25 -6z" />
    <glyph glyph-name="Dcaron" unicode="&#x10e;" horiz-adv-x="677" 
d="M36 600v-26h80v-548h-80v-26h280q137 0 225 85q85 83 85 215q0 171 -126 251q-78 49 -182 49h-282zM316 574q149 0 188 -140q15 -55 15 -130q-1 -277 -201 -278h-106v548h104zM332 631q28 0 61 39q8 8 25 30q34 42 57 67l-14 16q-53 -34 -129 -73q-92 47 -131 74l-14 -18
q25 -27 60 -69q42 -51 60 -60q13 -6 25 -6z" />
    <glyph glyph-name="dcaron" unicode="&#x10f;" horiz-adv-x="562" 
d="M380 0h150q0 21 -13 24q-5 1 -11 1h-50l-1 625h-180v-25h94v-239q-50 51 -130 51q-106 0 -163 -91q-38 -63 -38 -143q0 -123 79 -181q44 -32 98 -32q110 2 156 114zM133 215q0 140 72 182q23 14 52 14q71 0 100 -79q15 -42 15 -98q0 -126 -61 -179q-29 -24 -66 -24
q-77 0 -102 98q-10 38 -10 86zM604 586q0 58 -43 72q-10 3 -21 3q-36 0 -51 -33q-5 -12 -5 -25q0 -39 40 -52l8 -2q24 -8 25 -20q0 -28 -45 -76l-2 -2l23 -16q65 66 71 141v10z" />
    <glyph glyph-name="Dcroat" unicode="&#x110;" horiz-adv-x="677" 
d="M36 600v-26h80v-243h-71v-41h71v-264h-80v-26h280q137 0 225 85q85 83 85 215q0 171 -126 251q-78 49 -182 49h-282zM316 574q149 0 188 -140q15 -55 15 -130q-1 -277 -201 -278h-106v264h117v41h-117v243h104z" />
    <glyph glyph-name="dcroat" unicode="&#x111;" horiz-adv-x="553" 
d="M184 509h185v-123q-50 51 -130 51q-106 0 -163 -91q-38 -63 -38 -143q0 -123 79 -181q44 -32 98 -32q110 2 156 114l9 -104h150q0 21 -13 24q-5 1 -11 1h-50l-1 484h75v33h-75v108h-180v-25h94v-83h-185v-33zM133 215q0 140 72 182q23 14 52 14q71 0 100 -79
q15 -42 15 -98q0 -126 -61 -179q-29 -24 -66 -24q-77 0 -102 98q-10 38 -10 86z" />
    <glyph glyph-name="Emacron" unicode="&#x112;" horiz-adv-x="559" 
d="M510 418l-5 182h-469v-26h80v-548h-80v-26h469l5 182h-22l-16 -51q-26 -86 -80 -101q-14 -4 -29 -4h-151v269h204v29h-204v250h151q77 0 108 -101q1 -2 1 -4l16 -51h22zM143 670h304v51h-304v-51z" />
    <glyph glyph-name="emacron" unicode="&#x113;" horiz-adv-x="466" 
d="M250 412q68 0 88 -62q6 -19 6 -40q0 -49 -44 -60q-25 -6 -69 -5l-98 3q4 118 72 153q21 11 45 11zM427 97l-25 9q-32 -70 -102 -85q-16 -3 -31 -3q-106 0 -130 134q-5 31 -6 68l115 -2q128 -2 163 26q23 20 23 54q0 71 -72 112q-50 27 -114 27q-121 0 -178 -97
q-32 -56 -32 -129q0 -128 93 -188q53 -33 120 -33q112 0 163 81q7 13 13 26zM84 540h304v51h-304v-51z" />
    <glyph glyph-name="Edotaccent" unicode="&#x116;" horiz-adv-x="559" 
d="M510 418l-5 182h-469v-26h80v-548h-80v-26h469l5 182h-22l-16 -51q-26 -86 -80 -101q-14 -4 -29 -4h-151v269h204v29h-204v250h151q77 0 108 -101q1 -2 1 -4l16 -51h22zM351 699q0 36 -32 53q-13 6 -26 6q-37 0 -53 -33q-6 -13 -6 -26q0 -38 34 -54q12 -5 25 -5
q36 0 52 33q6 13 6 26z" />
    <glyph glyph-name="edotaccent" unicode="&#x117;" horiz-adv-x="466" 
d="M250 412q68 0 88 -62q6 -19 6 -40q0 -49 -44 -60q-25 -6 -69 -5l-98 3q4 118 72 153q21 11 45 11zM427 97l-25 9q-32 -70 -102 -85q-16 -3 -31 -3q-106 0 -130 134q-5 31 -6 68l115 -2q128 -2 163 26q23 20 23 54q0 71 -72 112q-50 27 -114 27q-121 0 -178 -97
q-32 -56 -32 -129q0 -128 93 -188q53 -33 120 -33q112 0 163 81q7 13 13 26zM292 569q0 36 -32 53q-13 6 -26 6q-37 0 -53 -33q-6 -13 -6 -26q0 -38 34 -54q12 -5 25 -5q36 0 52 33q6 13 6 26z" />
    <glyph glyph-name="Eogonek" unicode="&#x118;" horiz-adv-x="559" 
d="M510 418l-5 182h-469v-26h80v-548h-80v-26h417q-111 -29 -131 -93q-4 -12 -4 -23q0 -46 49 -66q22 -9 49 -9q57 1 91 37l-12 15q-28 -23 -54 -23q-35 0 -40 39q-1 6 -1 11q0 49 52 88q20 14 44 24h9l5 182h-22l-16 -51q-26 -86 -80 -101q-14 -4 -29 -4h-151v269h204v29
h-204v250h151q77 0 108 -101q1 -2 1 -4l16 -51h22z" />
    <glyph glyph-name="eogonek" unicode="&#x119;" horiz-adv-x="466" 
d="M250 412q68 0 88 -62q6 -19 6 -40q0 -49 -44 -60q-25 -6 -69 -5l-98 3q4 118 72 153q21 11 45 11zM427 97l-25 9q-32 -70 -102 -85q-16 -3 -31 -3q-106 0 -130 134q-5 31 -6 68l115 -2q128 -2 163 26q23 20 23 54q0 71 -72 112q-50 27 -114 27q-121 0 -178 -97
q-32 -56 -32 -129q0 -128 93 -188q53 -33 120 -33q112 0 163 81q7 13 13 26zM325 -162q-35 0 -40 39q-1 6 -1 11q0 49 52 88q20 14 44 24l-1 9q-136 -23 -169 -92q-8 -16 -8 -33q0 -46 49 -66q22 -9 49 -9q57 1 91 37l-12 15q-28 -23 -54 -23z" />
    <glyph glyph-name="Ecaron" unicode="&#x11a;" horiz-adv-x="559" 
d="M510 418l-5 182h-469v-26h80v-548h-80v-26h469l5 182h-22l-16 -51q-26 -86 -80 -101q-14 -4 -29 -4h-151v269h204v29h-204v250h151q77 0 108 -101q1 -2 1 -4l16 -51h22zM294 631q28 0 61 39q8 8 25 30q34 42 57 67l-14 16q-53 -34 -129 -73q-92 47 -131 74l-14 -18
q25 -27 60 -69q42 -51 60 -60q13 -6 25 -6z" />
    <glyph glyph-name="ecaron" unicode="&#x11b;" horiz-adv-x="466" 
d="M250 412q68 0 88 -62q6 -19 6 -40q0 -49 -44 -60q-25 -6 -69 -5l-98 3q4 118 72 153q21 11 45 11zM427 97l-25 9q-32 -70 -102 -85q-16 -3 -31 -3q-106 0 -130 134q-5 31 -6 68l115 -2q128 -2 163 26q23 20 23 54q0 71 -72 112q-50 27 -114 27q-121 0 -178 -97
q-32 -56 -32 -129q0 -128 93 -188q53 -33 120 -33q112 0 163 81q7 13 13 26zM235 501q28 0 61 39q8 8 25 30q34 42 57 67l-14 16q-53 -34 -129 -73q-92 47 -131 74l-14 -18q25 -27 60 -69q42 -51 60 -60q13 -6 25 -6z" />
    <glyph glyph-name="Gbreve" unicode="&#x11e;" horiz-adv-x="694" 
d="M409 271v-26h89v-165q-59 -56 -141 -60q-178 0 -193 231q-2 24 -2 49q0 249 155 278q19 3 39 3q102 0 148 -62q29 -40 50 -119h27l-4 198l-89 -19q-63 31 -136 31q-123 0 -209 -80q-92 -86 -92 -226q0 -164 116 -252q82 -62 186 -62q77 0 139 34q5 3 9 5l92 -29v245h73
v26h-257zM354 706q84 0 99 59q1 3 1 5h21q0 -89 -64 -119q-27 -12 -60 -12q-91 0 -117 79q-8 25 -8 52h20q15 -64 108 -64z" />
    <glyph glyph-name="gbreve" unicode="&#x11f;" horiz-adv-x="486" 
d="M138 277q0 125 80 134q7 1 14 1q82 0 92 -102q1 -15 1 -33q-9 -132 -93 -138q-88 0 -94 120v18zM233 437q-96 0 -149 -62q-35 -42 -35 -98q0 -75 72 -126q9 -6 17 -11q-62 0 -80 -54q-4 -14 -4 -29q1 -53 42 -79q-32 -35 -32 -69q0 -55 66 -82q43 -18 104 -18
q154 0 203 74q16 25 16 53q0 89 -101 102q-13 2 -27 2l-187 4q-43 3 -44 38q0 25 30 31q7 2 15 2l89 -1h3q92 0 146 62q37 44 37 102q-1 75 -57 119q15 35 42 38q14 0 31 -16q11 -10 21 -10q25 0 30 25q1 5 1 8q0 33 -32 45q-11 4 -23 4q-47 0 -76 -45q-11 -16 -16 -34
q-46 25 -102 25zM234 -165q-102 0 -129 51q-7 14 -7 28q1 26 22 52q18 -5 35 -5l164 -2q70 -1 82 -29q4 -10 4 -21q0 -45 -83 -65q-40 -9 -88 -9zM248 576q-94 1 -108 64h-20q0 -84 60 -116q28 -15 65 -15q95 0 118 85q6 21 6 46h-21q-17 -63 -100 -64z" />
    <glyph glyph-name="uni0122" unicode="&#x122;" horiz-adv-x="694" 
d="M409 271v-26h89v-165q-59 -56 -141 -60q-178 0 -193 231q-2 24 -2 49q0 249 155 278q19 3 39 3q102 0 148 -62q29 -40 50 -119h27l-4 198l-89 -19q-63 31 -136 31q-123 0 -209 -80q-92 -86 -92 -226q0 -164 116 -252q82 -62 186 -62q77 0 139 34q5 3 9 5l92 -29v245h73
v26h-257zM410 -111q0 58 -43 72q-10 3 -21 3q-36 0 -51 -33q-5 -13 -5 -25q0 -39 39 -52q5 -2 9 -3q24 -6 25 -19q-1 -29 -47 -79l23 -16q66 78 71 152z" />
    <glyph glyph-name="uni0123" unicode="&#x123;" horiz-adv-x="486" 
d="M138 277q0 125 80 134q7 1 14 1q82 0 92 -102q1 -15 1 -33q-9 -132 -93 -138q-88 0 -94 120v18zM233 437q-96 0 -149 -62q-35 -42 -35 -98q0 -75 72 -126q9 -6 17 -11q-62 0 -80 -54q-4 -14 -4 -29q1 -53 42 -79q-32 -35 -32 -69q0 -55 66 -82q43 -18 104 -18
q154 0 203 74q16 25 16 53q0 89 -101 102q-13 2 -27 2l-187 4q-43 3 -44 38q0 25 30 31q7 2 15 2l89 -1h3q92 0 146 62q37 44 37 102q-1 75 -57 119q15 35 42 38q14 0 31 -16q11 -10 21 -10q25 0 30 25q1 5 1 8q0 33 -32 45q-11 4 -23 4q-47 0 -76 -45q-11 -16 -16 -34
q-46 25 -102 25zM234 -165q-102 0 -129 51q-7 14 -7 28q1 26 22 52q18 -5 35 -5l164 -2q70 -1 82 -29q4 -10 4 -21q0 -45 -83 -65q-40 -9 -88 -9zM183 566q0 -58 43 -72q10 -3 21 -3q36 0 51 33q5 13 5 25q0 39 -39 52q-5 2 -9 3q-24 6 -25 19q1 29 47 79l-23 16
q-66 -78 -71 -152z" />
    <glyph glyph-name="Imacron" unicode="&#x12a;" horiz-adv-x="328" 
d="M292 0q0 22 -16 25q-5 1 -10 1h-54v548h80v26h-256v-26h80v-548h-80v-26h256zM15 670h304v51h-304v-51z" />
    <glyph glyph-name="imacron" unicode="&#x12b;" horiz-adv-x="286" 
d="M24 540h244v51h-244v-51zM239 26h-48v400h-163v-26h72v-322q-5 -51 -72 -52v-26h235q0 23 -13 25q-5 1 -11 1z" />
    <glyph glyph-name="Iogonek" unicode="&#x12e;" horiz-adv-x="328" 
d="M292 0q0 22 -16 25q-5 1 -10 1h-54v548h80v26h-256v-26h80v-548h-80v-26h209q-111 -29 -131 -93q-4 -12 -4 -23q0 -46 49 -66q22 -9 49 -9q57 1 91 37l-12 15q-28 -23 -54 -23q-35 0 -40 39q-1 6 -1 11q0 49 52 88q20 14 44 24h4z" />
    <glyph glyph-name="iogonek" unicode="&#x12f;" horiz-adv-x="286" 
d="M239 26h-48v400h-163v-26h72v-322q-5 -51 -72 -52v-26h193q-111 -29 -131 -93q-4 -12 -4 -23q0 -46 49 -66q22 -9 49 -9q57 1 91 37l-12 15q-28 -23 -54 -23q-35 0 -40 39q-1 6 -1 11q0 49 52 88q20 14 44 24l-1 9q-8 16 -24 17zM202 569q0 36 -32 53q-13 6 -26 6
q-37 0 -53 -33q-6 -13 -6 -26q0 -38 34 -54q12 -5 25 -5q36 0 52 33q6 13 6 26z" />
    <glyph glyph-name="Idotaccent" unicode="&#x130;" horiz-adv-x="328" 
d="M292 0q0 22 -16 25q-5 1 -10 1h-54v548h80v26h-256v-26h80v-548h-80v-26h256zM223 699q0 36 -32 53q-13 6 -26 6q-37 0 -53 -33q-6 -13 -6 -26q0 -38 34 -54q12 -5 25 -5q36 0 52 33q6 13 6 26z" />
    <glyph glyph-name="dotlessi" unicode="&#x131;" horiz-adv-x="286" 
d="M239 26h-48v400h-163v-26h72v-322q-5 -51 -72 -52v-26h235q0 23 -13 25q-5 1 -11 1z" />
    <glyph glyph-name="uni0136" unicode="&#x136;" horiz-adv-x="641" 
d="M418 -111q0 58 -43 72q-10 3 -21 3q-36 0 -51 -33q-5 -13 -5 -25q0 -39 39 -52q5 -2 9 -3q24 -6 25 -19q-1 -29 -47 -79l23 -16q66 78 71 152zM292 0q0 22 -16 25q-5 1 -10 1h-54v233l49 46l228 -305h149q0 22 -16 25q-5 1 -10 1h-24l-258 343l174 162q38 36 56 41
q9 2 19 2q23 0 25 16q1 5 1 10h-181v-26h80l-292 -268v268h80v26h-256v-26h80v-548h-80v-26h256z" />
    <glyph glyph-name="uni0137" unicode="&#x137;" horiz-adv-x="505" 
d="M235 25h-47v149l50 47l138 -221h139q0 21 -13 24q-5 1 -11 1h-33l-161 252l91 85q35 33 53 37q8 2 18 2q22 0 24 15q1 5 1 10h-170v-25h75l-201 -187v436h-160v-25h75v-541q0 -46 -30 -55q-15 -4 -45 -4v-25h232q0 22 -15 24q-5 1 -10 1zM349 -111q0 58 -43 72
q-10 3 -21 3q-36 0 -51 -33q-5 -13 -5 -25q0 -39 39 -52q5 -2 9 -3q24 -6 25 -19q-1 -29 -47 -79l23 -16q66 78 71 152z" />
    <glyph glyph-name="Lacute" unicode="&#x139;" horiz-adv-x="497" 
d="M484 0l5 203h-22l-19 -72q-23 -88 -78 -102q-13 -3 -27 -3h-131v548h85v26h-261v-26h80v-548h-80v-26h448zM337 707q14 13 15 31q0 26 -26 42q-12 6 -22 6q-16 -1 -30 -13q-9 -8 -48 -67q-32 -46 -60 -75l16 -18q25 18 111 65q32 18 44 29z" />
    <glyph glyph-name="lacute" unicode="&#x13a;" horiz-adv-x="293" 
d="M220 735q18 10 22 26q7 29 -19 49q-9 7 -18 9q-16 3 -31 -5q-11 -7 -62 -54q-42 -39 -76 -62l12 -20q25 11 126 40q33 9 46 17zM244 25h-54v625h-161v-25h76v-541q0 -45 -27 -54q-16 -5 -49 -5v-25h239q0 22 -14 24q-5 1 -10 1z" />
    <glyph glyph-name="uni013B" unicode="&#x13b;" horiz-adv-x="497" 
d="M484 0l5 203h-22l-19 -72q-23 -88 -78 -102q-13 -3 -27 -3h-131v548h85v26h-261v-26h80v-548h-80v-26h448zM314 -111q0 58 -43 72q-10 3 -21 3q-36 0 -51 -33q-5 -13 -5 -25q0 -39 39 -52q5 -2 9 -3q24 -6 25 -19q-1 -29 -47 -79l23 -16q66 78 71 152z" />
    <glyph glyph-name="uni013C" unicode="&#x13c;" horiz-adv-x="294" 
d="M244 25h-54v625h-161v-25h76v-541q0 -45 -27 -54q-16 -5 -49 -5v-25h239q0 22 -14 24q-5 1 -10 1zM203 -111q0 58 -43 72q-10 3 -21 3q-36 0 -51 -33q-5 -13 -5 -25q0 -39 39 -52q5 -2 9 -3q24 -6 25 -19q-1 -29 -47 -79l23 -16q66 78 71 152z" />
    <glyph glyph-name="Lcaron" unicode="&#x13d;" horiz-adv-x="497" 
d="M484 0l5 203h-22l-19 -72q-23 -88 -78 -102q-13 -3 -27 -3h-131v548h85v26h-261v-26h80v-548h-80v-26h448zM179 631q28 0 61 39q8 8 25 30q34 42 57 67l-14 16q-53 -34 -129 -73q-92 47 -131 74l-14 -18q25 -27 60 -69q42 -51 60 -60q13 -6 25 -6z" />
    <glyph glyph-name="lcaron" unicode="&#x13e;" horiz-adv-x="322" 
d="M244 25h-54v625h-161v-25h76v-541q0 -45 -27 -54q-16 -5 -49 -5v-25h239q0 22 -14 24q-5 1 -10 1zM342 586q0 58 -43 72q-10 3 -21 3q-36 0 -51 -33q-5 -12 -5 -25q0 -39 40 -52l8 -2q24 -8 25 -20q0 -28 -45 -76l-2 -2l23 -16q65 66 71 141v10z" />
    <glyph glyph-name="Lslash" unicode="&#x141;" horiz-adv-x="502" 
d="M484 0l5 203h-22l-19 -72q-23 -88 -78 -102q-13 -3 -27 -3h-131v233l202 114l-15 26l-187 -105v280h85v26h-261v-26h80v-334l-104 -58l15 -27l89 50v-179h-80v-26h448z" />
    <glyph glyph-name="lslash" unicode="&#x142;" horiz-adv-x="293" 
d="M16 233l89 50v-199q0 -45 -27 -54q-16 -5 -49 -5v-25h239q0 22 -14 24q-5 1 -10 1h-54v306l111 63l-15 26l-96 -54v284h-161v-25h76v-307l-104 -58z" />
    <glyph glyph-name="Nacute" unicode="&#x143;" horiz-adv-x="668" 
d="M455 574h84v-437l-375 463h-145v-26h80v-548h-80v-26h205q0 22 -16 25q-5 1 -10 1h-59v454l392 -485l48 10v569h80v26h-204v-26zM428 707q14 13 15 31q0 26 -26 42q-12 6 -22 6q-16 -1 -30 -13q-9 -8 -48 -67q-32 -46 -60 -75l16 -18q25 18 111 65q32 18 44 29z" />
    <glyph glyph-name="nacute" unicode="&#x144;" horiz-adv-x="567" 
d="M226 25h-41v220q2 91 62 131q26 16 52 16q61 0 81 -58q7 -22 7 -48v-202q0 -45 -26 -54q-14 -5 -43 -5v-25h226q0 22 -15 24q-4 1 -10 1h-47v250q0 105 -72 145q-31 17 -66 17q-74 0 -123 -60q-17 -20 -27 -45l-4 94h-152v-25h72v-317q0 -46 -28 -55q-15 -4 -44 -4v-25
h223q0 22 -15 24q-4 1 -10 1zM375 577q14 13 15 31q0 26 -26 42q-12 6 -22 6q-16 -1 -30 -13q-9 -8 -48 -67q-32 -46 -60 -75l16 -18q25 18 111 65q32 18 44 29z" />
    <glyph glyph-name="uni0145" unicode="&#x145;" horiz-adv-x="668" 
d="M455 574h84v-437l-375 463h-145v-26h80v-548h-80v-26h205q0 22 -16 25q-5 1 -10 1h-59v454l392 -485l48 10v569h80v26h-204v-26zM396 -111q0 58 -43 72q-10 3 -21 3q-36 0 -51 -33q-5 -13 -5 -25q0 -39 39 -52q5 -2 9 -3q24 -6 25 -19q-1 -29 -47 -79l23 -16
q66 78 71 152z" />
    <glyph glyph-name="uni0146" unicode="&#x146;" horiz-adv-x="567" 
d="M226 25h-41v220q2 91 62 131q26 16 52 16q61 0 81 -58q7 -22 7 -48v-202q0 -45 -26 -54q-14 -5 -43 -5v-25h226q0 22 -15 24q-4 1 -10 1h-47v250q0 105 -72 145q-31 17 -66 17q-74 0 -123 -60q-17 -20 -27 -45l-4 94h-152v-25h72v-317q0 -46 -28 -55q-15 -4 -44 -4v-25
h223q0 22 -15 24q-4 1 -10 1zM343 -111q0 58 -43 72q-10 3 -21 3q-36 0 -51 -33q-5 -13 -5 -25q0 -39 39 -52q5 -2 9 -3q24 -6 25 -19q-1 -29 -47 -79l23 -16q66 78 71 152z" />
    <glyph glyph-name="Ncaron" unicode="&#x147;" horiz-adv-x="668" 
d="M455 574h84v-437l-375 463h-145v-26h80v-548h-80v-26h205q0 22 -16 25q-5 1 -10 1h-59v454l392 -485l48 10v569h80v26h-204v-26zM338 631q28 0 61 39q8 8 25 30q34 42 57 67l-14 16q-53 -34 -129 -73q-92 47 -131 74l-14 -18q25 -27 60 -69q42 -51 60 -60q13 -6 25 -6z
" />
    <glyph glyph-name="ncaron" unicode="&#x148;" horiz-adv-x="567" 
d="M226 25h-41v220q2 91 62 131q26 16 52 16q61 0 81 -58q7 -22 7 -48v-202q0 -45 -26 -54q-14 -5 -43 -5v-25h226q0 22 -15 24q-4 1 -10 1h-47v250q0 105 -72 145q-31 17 -66 17q-74 0 -123 -60q-17 -20 -27 -45l-4 94h-152v-25h72v-317q0 -46 -28 -55q-15 -4 -44 -4v-25
h223q0 22 -15 24q-4 1 -10 1zM284 501q28 0 61 39q8 8 25 30q34 42 57 67l-14 16q-53 -34 -129 -73q-92 47 -131 74l-14 -18q25 -27 60 -69q42 -51 60 -60q13 -6 25 -6z" />
    <glyph glyph-name="Omacron" unicode="&#x14c;" horiz-adv-x="705" 
d="M355 610q-122 0 -210 -80q-94 -88 -94 -226q0 -160 111 -249q83 -65 190 -65q121 0 208 81q94 89 94 229q0 165 -115 251q-80 59 -184 59zM355 18q-180 0 -192 246q-1 18 -1 36q0 259 161 280q15 2 29 2q189 -2 190 -278q0 -245 -141 -281q-22 -5 -46 -5zM204 670h304v51
h-304v-51z" />
    <glyph glyph-name="omacron" unicode="&#x14d;" horiz-adv-x="515" 
d="M133 214q1 197 124 198q123 -2 124 -194q-1 -202 -122 -203q-125 2 -126 199zM260 437q-101 0 -166 -69q-56 -61 -56 -150q0 -122 88 -186q58 -42 130 -42q99 0 163 70q58 63 58 155q0 122 -90 184q-56 38 -127 38zM114 540h304v51h-304v-51z" />
    <glyph glyph-name="Ohungarumlaut" unicode="&#x150;" horiz-adv-x="705" 
d="M355 610q-122 0 -210 -80q-94 -88 -94 -226q0 -160 111 -249q83 -65 190 -65q121 0 208 81q94 89 94 229q0 165 -115 251q-80 59 -184 59zM355 18q-180 0 -192 246q-1 18 -1 36q0 259 161 280q15 2 29 2q189 -2 190 -278q0 -245 -141 -281q-22 -5 -46 -5zM385 723
q13 12 13 30q0 27 -26 41q-11 5 -21 5q-16 -1 -28 -12q-8 -8 -46 -66q-31 -45 -58 -74l15 -17q23 17 111 66q29 17 40 27zM549 693q15 9 19 27q5 28 -19 45q-8 7 -18 8q-18 3 -30 -6q-12 -7 -59 -55q-38 -38 -70 -61l11 -20q25 12 122 44q31 10 44 18z" />
    <glyph glyph-name="ohungarumlaut" unicode="&#x151;" horiz-adv-x="515" 
d="M133 214q1 197 124 198q123 -2 124 -194q-1 -202 -122 -203q-125 2 -126 199zM260 437q-101 0 -166 -69q-56 -61 -56 -150q0 -122 88 -186q58 -42 130 -42q99 0 163 70q58 63 58 155q0 122 -90 184q-56 38 -127 38zM295 593q13 12 13 30q0 27 -26 41q-11 5 -21 5
q-16 -1 -28 -12q-8 -8 -46 -66q-31 -45 -58 -74l15 -17q23 17 111 66q29 17 40 27zM459 563q15 9 19 27q5 28 -19 45q-8 7 -18 8q-18 3 -30 -6q-12 -7 -59 -55q-38 -38 -70 -61l11 -20q25 12 122 44q31 10 44 18z" />
    <glyph glyph-name="OE" unicode="&#x152;" horiz-adv-x="905" 
d="M368 22q-205 2 -206 278q0 258 173 276q15 2 30 2q51 0 97 -15v-526q-47 -15 -94 -15zM497 0h354l5 183h-22l-16 -52q-33 -104 -120 -105h-140v269h204v29h-204v250h140q86 -1 119 -105l17 -52h22l-5 183h-353q-22 0 -70 2q-48 3 -69 3q-129 0 -217 -81q-91 -84 -91 -220
q0 -164 117 -249q82 -60 192 -60q30 0 86 3q38 2 51 2z" />
    <glyph glyph-name="oe" unicode="&#x153;" horiz-adv-x="804" 
d="M587 412q70 0 90 -64q5 -18 5 -38q0 -49 -44 -60q-25 -6 -69 -5l-98 3q5 132 82 159q16 5 34 5zM133 214q1 197 124 198q123 -2 124 -194q-1 -202 -122 -203q-125 2 -126 199zM260 437q-101 0 -166 -69q-56 -61 -56 -150q0 -122 88 -186q58 -42 130 -42q93 0 155 70
q7 8 13 16q49 -78 148 -85q9 -1 17 -1q112 0 162 80q9 15 15 31l-26 5q-32 -70 -102 -85q-16 -3 -31 -3q-106 0 -130 134q-5 31 -6 68l115 -2q128 -2 163 26q23 20 23 54q0 71 -72 111q-49 28 -113 28q-108 -1 -162 -84q-54 78 -153 84h-12z" />
    <glyph glyph-name="Racute" unicode="&#x154;" horiz-adv-x="612" 
d="M292 0v26h-80v249h86l158 -275h156q0 23 -13 25q-5 1 -11 1h-33l-160 258q96 25 130 101q12 29 12 59q0 75 -65 120q-54 36 -132 36h-304v-26h80v-548h-80v-26h256zM304 574q84 0 116 -71q12 -29 12 -61q0 -74 -50 -113q-31 -25 -74 -25h-96v270h92zM397 707q14 13 15 31
q0 26 -26 42q-12 6 -22 6q-16 -1 -30 -13q-9 -8 -48 -67q-32 -46 -60 -75l16 -18q25 18 111 65q32 18 44 29z" />
    <glyph glyph-name="racute" unicode="&#x155;" horiz-adv-x="399" 
d="M259 25h-72v220q7 86 58 129q17 14 29 14q15 0 29 -25q16 -28 32 -33q7 -2 14 -2q33 0 43 31q2 8 2 15q0 46 -46 56q-10 2 -21 2q-62 0 -110 -52q-20 -22 -32 -50l-4 96h-151v-25h71v-317q0 -46 -27 -55q-14 -4 -44 -4v-25h254q0 22 -15 24q-4 1 -10 1zM291 577
q14 13 15 31q0 26 -26 42q-12 6 -22 6q-16 -1 -30 -13q-9 -8 -48 -67q-32 -46 -60 -75l16 -18q25 18 111 65q32 18 44 29z" />
    <glyph glyph-name="uni0156" unicode="&#x156;" horiz-adv-x="612" 
d="M292 0v26h-80v249h86l158 -275h156q0 23 -13 25q-5 1 -11 1h-33l-160 258q96 25 130 101q12 29 12 59q0 75 -65 120q-54 36 -132 36h-304v-26h80v-548h-80v-26h256zM304 574q84 0 116 -71q12 -29 12 -61q0 -74 -50 -113q-31 -25 -74 -25h-96v270h92zM390 -111
q0 58 -43 72q-10 3 -21 3q-36 0 -51 -33q-5 -13 -5 -25q0 -39 39 -52q5 -2 9 -3q24 -6 25 -19q-1 -29 -47 -79l23 -16q66 78 71 152z" />
    <glyph glyph-name="uni0157" unicode="&#x157;" horiz-adv-x="399" 
d="M259 25h-72v220q7 86 58 129q17 14 29 14q15 0 29 -25q16 -28 32 -33q7 -2 14 -2q33 0 43 31q2 8 2 15q0 46 -46 56q-10 2 -21 2q-62 0 -110 -52q-20 -22 -32 -50l-4 96h-151v-25h71v-317q0 -46 -27 -55q-14 -4 -44 -4v-25h254q0 22 -15 24q-4 1 -10 1zM205 -111
q0 58 -43 72q-10 3 -21 3q-36 0 -51 -33q-5 -13 -5 -25q0 -39 39 -52q5 -2 9 -3q24 -6 25 -19q-1 -29 -47 -79l23 -16q66 78 71 152z" />
    <glyph glyph-name="Rcaron" unicode="&#x158;" horiz-adv-x="612" 
d="M292 0v26h-80v249h86l158 -275h156q0 23 -13 25q-5 1 -11 1h-33l-160 258q96 25 130 101q12 29 12 59q0 75 -65 120q-54 36 -132 36h-304v-26h80v-548h-80v-26h256zM304 574q84 0 116 -71q12 -29 12 -61q0 -74 -50 -113q-31 -25 -74 -25h-96v270h92zM306 631q28 0 61 39
q8 8 25 30q34 42 57 67l-14 16q-53 -34 -129 -73q-92 47 -131 74l-14 -18q25 -27 60 -69q42 -51 60 -60q13 -6 25 -6z" />
    <glyph glyph-name="rcaron" unicode="&#x159;" horiz-adv-x="399" 
d="M259 25h-72v220q7 86 58 129q17 14 29 14q15 0 29 -25q16 -28 32 -33q7 -2 14 -2q33 0 43 31q2 8 2 15q0 46 -46 56q-10 2 -21 2q-62 0 -110 -52q-20 -22 -32 -50l-4 96h-151v-25h71v-317q0 -46 -27 -55q-14 -4 -44 -4v-25h254q0 22 -15 24q-4 1 -10 1zM200 501
q28 0 61 39q8 8 25 30q34 42 57 67l-14 16q-53 -34 -129 -73q-92 47 -131 74l-14 -18q25 -27 60 -69q42 -51 60 -60q13 -6 25 -6z" />
    <glyph glyph-name="Sacute" unicode="&#x15a;" horiz-adv-x="540" 
d="M492 159q0 88 -96 143q-16 10 -114 54q-88 39 -111 80q-11 22 -11 46q0 64 62 89q27 11 59 11q83 0 126 -57q30 -39 29 -96h32v176q-26 0 -29 -17q-2 -7 -2 -17q-74 39 -163 39q-109 0 -170 -60q-41 -41 -41 -98q0 -84 93 -137q17 -10 114 -54q89 -40 113 -82
q12 -22 12 -48q0 -70 -66 -100q-31 -13 -68 -13q-145 0 -168 167q-1 11 -2 21h-32v-208q24 0 29 14q2 9 2 29q77 -51 177 -51q116 0 180 62q45 45 45 107zM381 707q14 13 15 31q0 26 -26 42q-12 6 -22 6q-16 -1 -30 -13q-9 -8 -48 -67q-32 -46 -60 -75l16 -18q25 18 111 65
q32 18 44 29z" />
    <glyph glyph-name="sacute" unicode="&#x15b;" horiz-adv-x="404" 
d="M191 17q69 0 90 43q7 14 7 29q0 44 -62 75q-13 7 -43 20q-80 34 -107 64q-28 32 -28 75q0 71 78 101q37 13 80 13q68 0 115 -28q0 29 14 33q5 1 13 1v-125h-27q-2 92 -102 93q-72 0 -90 -44q-4 -12 -4 -24q0 -43 61 -73q14 -7 43 -19q81 -33 108 -62q29 -33 29 -78
q0 -83 -87 -110q-34 -11 -74 -11q-75 1 -130 35q0 -26 -13 -30q-6 -1 -14 -1v152h29q2 -128 114 -129zM294 577q14 13 15 31q0 26 -26 42q-12 6 -22 6q-16 -1 -30 -13q-9 -8 -48 -67q-32 -46 -60 -75l16 -18q25 18 111 65q32 18 44 29z" />
    <glyph glyph-name="uni015E" unicode="&#x15e;" horiz-adv-x="540" 
d="M492 159q0 88 -96 143q-16 10 -114 54q-88 39 -111 80q-11 22 -11 46q0 64 62 89q27 11 59 11q83 0 126 -57q30 -39 29 -96h32v176q-26 0 -29 -17q-2 -7 -2 -17q-74 39 -163 39q-109 0 -170 -60q-41 -41 -41 -98q0 -84 93 -137q17 -10 114 -54q89 -40 113 -82
q12 -22 12 -48q0 -70 -66 -100q-31 -13 -68 -13q-145 0 -168 167q-1 11 -2 21h-32v-208q24 0 29 14q2 9 2 29q67 -44 152 -50l-38 -76l14 -9q24 17 50 17q45 0 51 -45q1 -6 1 -12q0 -53 -40 -65q-8 -2 -16 -2q-39 1 -69 39l-16 -12q35 -52 106 -53q70 0 103 44q15 22 15 47
q0 53 -55 75q-24 10 -51 10t-53 -11l24 52q115 0 179 62q45 45 45 107z" />
    <glyph glyph-name="uni015F" unicode="&#x15f;" horiz-adv-x="404" 
d="M191 17q-113 2 -114 129h-29v-152q22 0 25 13q2 7 2 18q44 -27 95 -33l-38 -77l14 -9q24 17 50 17q45 0 51 -45q1 -6 1 -12q0 -53 -40 -65q-8 -2 -16 -2q-39 1 -69 39l-16 -12q35 -52 106 -53q70 0 103 44q15 22 15 47q0 53 -55 75q-24 10 -51 10t-53 -11l24 52
q-11 0 -26 2l6 12h26l-6 -14h9q105 0 144 60q17 27 17 61q0 72 -80 114q-18 10 -57 26q-71 30 -90 52q-14 18 -14 40q0 51 60 64q16 4 34 4q101 -2 102 -93h27v125q-22 0 -26 -17q-1 -7 -1 -17q-48 28 -115 28q-95 0 -137 -52q-21 -27 -21 -62q0 -71 79 -113q18 -10 56 -26
q72 -31 91 -55q14 -18 14 -40q0 -50 -56 -67q-19 -5 -41 -5z" />
    <glyph glyph-name="Scaron" unicode="&#x160;" horiz-adv-x="540" 
d="M492 159q0 88 -96 143q-16 10 -114 54q-88 39 -111 80q-11 22 -11 46q0 64 62 89q27 11 59 11q83 0 126 -57q30 -39 29 -96h32v176q-26 0 -29 -17q-2 -7 -2 -17q-74 39 -163 39q-109 0 -170 -60q-41 -41 -41 -98q0 -84 93 -137q17 -10 114 -54q89 -40 113 -82
q12 -22 12 -48q0 -70 -66 -100q-31 -13 -68 -13q-145 0 -168 167q-1 11 -2 21h-32v-208q24 0 29 14q2 9 2 29q77 -51 177 -51q116 0 180 62q45 45 45 107zM290 631q28 0 61 39q8 8 25 30q34 42 57 67l-14 16q-53 -34 -129 -73q-92 47 -131 74l-14 -18q25 -27 60 -69
q42 -51 60 -60q13 -6 25 -6z" />
    <glyph glyph-name="scaron" unicode="&#x161;" horiz-adv-x="404" 
d="M191 17q69 0 90 43q7 14 7 29q0 44 -62 75q-13 7 -43 20q-80 34 -107 64q-28 32 -28 75q0 71 78 101q37 13 80 13q68 0 115 -28q0 29 14 33q5 1 13 1v-125h-27q-2 92 -102 93q-72 0 -90 -44q-4 -12 -4 -24q0 -43 61 -73q14 -7 43 -19q81 -33 108 -62q29 -33 29 -78
q0 -83 -87 -110q-34 -11 -74 -11q-75 1 -130 35q0 -26 -13 -30q-6 -1 -14 -1v152h29q2 -128 114 -129zM203 501q28 0 61 39q8 8 25 30q34 42 57 67l-14 16q-53 -34 -129 -73q-92 47 -131 74l-14 -18q25 -27 60 -69q42 -51 60 -60q13 -6 25 -6z" />
    <glyph glyph-name="uni0162" unicode="&#x162;" horiz-adv-x="579" 
d="M217 -85l14 -9q24 17 50 17q45 0 51 -45q1 -6 1 -12q0 -53 -40 -65q-8 -2 -16 -2q-39 1 -69 39l-16 -12q35 -52 106 -53q70 0 103 44q15 22 15 47q0 53 -55 75q-24 10 -51 10t-53 -11l28 62h141q0 22 -16 25q-5 1 -10 1h-69v548h51q83 -1 110 -103l19 -71h28l-4 200h-499
l-5 -200h28l19 71q28 102 111 103h46v-548h-95v-26h119z" />
    <glyph glyph-name="uni0163" unicode="&#x163;" horiz-adv-x="332" 
d="M19 400h70v-276q1 -99 67 -126l-41 -83l14 -9q24 17 50 17q45 0 51 -45q1 -6 1 -12q0 -53 -40 -65q-8 -2 -16 -2q-39 1 -69 39l-16 -12q35 -52 106 -53q70 0 103 44q15 22 15 47q0 53 -55 75q-24 10 -51 10t-53 -11l24 54q15 -3 31 -3q94 0 117 113v2l-27 5
q-21 -89 -72 -90q-53 2 -54 77v304h151v25h-151v116l-85 -21v-95h-70v-25z" />
    <glyph glyph-name="Tcaron" unicode="&#x164;" horiz-adv-x="570" 
d="M426 0q0 22 -16 25q-5 1 -10 1h-69v548h51q83 -1 110 -103l19 -71h28l-4 200h-499l-5 -200h28l19 71q28 102 111 103h46v-548h-95v-26h286zM285 631q28 0 61 39q8 8 25 30q34 42 57 67l-14 16q-53 -34 -129 -73q-92 47 -131 74l-14 -18q25 -27 60 -69q42 -51 60 -60
q13 -6 25 -6z" />
    <glyph glyph-name="tcaron" unicode="&#x165;" horiz-adv-x="332" 
d="M19 400h70v-276q7 -131 121 -135q94 0 117 113v2l-27 5q-21 -89 -72 -90q-53 2 -54 77v304h151v25h-151v116l-85 -21v-95h-70v-25zM326 599q0 58 -43 72q-10 3 -21 3q-36 0 -51 -33q-5 -12 -5 -25q0 -39 40 -52l8 -2q24 -8 25 -20q0 -28 -45 -76l-2 -2l23 -16
q65 66 71 141v10z" />
    <glyph glyph-name="Umacron" unicode="&#x16a;" horiz-adv-x="635" 
d="M10 574h80v-350q2 -233 237 -234q173 0 211 139q12 45 12 105v340h80v26h-195v-26h80v-346q0 -199 -152 -210h-15q-120 0 -150 108q-12 44 -12 104v344h79v26h-255v-26zM189 670h304v51h-304v-51z" />
    <glyph glyph-name="umacron" unicode="&#x16b;" horiz-adv-x="566" 
d="M516 25h-47v401h-161v-25h75v-223q-1 -88 -62 -127q-25 -16 -52 -16q-78 0 -89 84q-2 13 -2 26v281h-159v-25h73v-241q1 -169 143 -170q76 0 124 62q16 21 26 46l7 -98h148q0 21 -13 24q-5 1 -11 1zM134 540h304v51h-304v-51z" />
    <glyph glyph-name="Uring" unicode="&#x16e;" horiz-adv-x="635" 
d="M10 574h80v-350q2 -233 237 -234q173 0 211 139q12 45 12 105v340h80v26h-195v-26h80v-346q0 -199 -152 -210h-15q-120 0 -150 108q-12 44 -12 104v344h79v26h-255v-26zM312 703q0 61 38 69q5 1 10 1q42 0 48 -54q1 -7 1 -14q0 -54 -33 -67q-8 -3 -16 -3q-47 1 -48 68z
M363 796q-77 0 -102 -53q-8 -18 -8 -38q0 -60 53 -83q24 -10 52 -10q74 0 100 54q9 19 9 40q0 57 -52 80q-24 10 -52 10z" />
    <glyph glyph-name="uring" unicode="&#x16f;" horiz-adv-x="566" 
d="M516 25h-47v401h-161v-25h75v-223q-1 -88 -62 -127q-25 -16 -52 -16q-78 0 -89 84q-2 13 -2 26v281h-159v-25h73v-241q1 -169 143 -170q76 0 124 62q16 21 26 46l7 -98h148q0 21 -13 24q-5 1 -11 1zM235 573q0 61 38 69q5 1 10 1q42 0 48 -54q1 -7 1 -14q0 -54 -33 -67
q-8 -3 -16 -3q-47 1 -48 68zM286 666q-77 0 -102 -53q-8 -18 -8 -38q0 -60 53 -83q24 -10 52 -10q74 0 100 54q9 19 9 40q0 57 -52 80q-24 10 -52 10z" />
    <glyph glyph-name="Uhungarumlaut" unicode="&#x170;" horiz-adv-x="635" 
d="M10 574h80v-350q2 -233 237 -234q173 0 211 139q12 45 12 105v340h80v26h-195v-26h80v-346q0 -199 -152 -210h-15q-120 0 -150 108q-12 44 -12 104v344h79v26h-255v-26zM371 723q13 12 13 30q0 27 -26 41q-11 5 -21 5q-16 -1 -28 -12q-8 -8 -46 -66q-31 -45 -58 -74
l15 -17q23 17 111 66q29 17 40 27zM535 693q15 9 19 27q5 28 -19 45q-9 7 -18 8q-18 3 -30 -6q-12 -7 -59 -55q-38 -38 -70 -61l11 -20q25 12 122 44q31 10 44 18z" />
    <glyph glyph-name="uhungarumlaut" unicode="&#x171;" horiz-adv-x="566" 
d="M516 25h-47v401h-161v-25h75v-223q-1 -88 -62 -127q-25 -16 -52 -16q-78 0 -89 84q-2 13 -2 26v281h-159v-25h73v-241q1 -169 143 -170q76 0 124 62q16 21 26 46l7 -98h148q0 21 -13 24q-5 1 -11 1zM315 593q13 12 13 30q0 27 -26 41q-11 5 -21 5q-16 -1 -28 -12
q-8 -8 -46 -66q-31 -45 -58 -74l15 -17q23 17 111 66q29 17 40 27zM479 563q15 9 19 27q5 28 -19 45q-8 7 -18 8q-18 3 -30 -6q-12 -7 -59 -55q-38 -38 -70 -61l11 -20q25 12 122 44q31 10 44 18z" />
    <glyph glyph-name="Uogonek" unicode="&#x172;" horiz-adv-x="635" 
d="M10 574h80v-350q2 -233 237 -234q173 0 211 139q12 45 12 105v340h80v26h-195v-26h80v-346q0 -199 -152 -210h-15q-120 0 -150 108q-12 44 -12 104v344h79v26h-255v-26zM404 -162q-35 0 -40 39q-1 6 -1 11q0 49 52 88q20 14 44 24l-1 9q-136 -23 -169 -92q-8 -16 -8 -33
q0 -46 49 -66q22 -9 49 -9q57 1 91 37l-12 15q-28 -23 -54 -23z" />
    <glyph glyph-name="uogonek" unicode="&#x173;" horiz-adv-x="566" 
d="M516 25h-47v401h-161v-25h75v-223q-1 -88 -62 -127q-25 -16 -52 -16q-78 0 -89 84q-2 13 -2 26v281h-159v-25h73v-241q1 -169 143 -170q76 0 124 62q16 21 26 46l7 -98h106q-111 -29 -131 -93q-4 -12 -4 -23q0 -46 49 -66q22 -9 49 -9q57 1 91 37l-12 15q-28 -23 -54 -23
q-35 0 -40 39q-1 6 -1 11q0 49 52 88q20 14 44 24l-1 9h-1q-7 15 -23 16z" />
    <glyph glyph-name="Ydieresis" unicode="&#x178;" horiz-adv-x="559" 
d="M413 0q-8 24 -27 26h-54v225l148 295q22 26 53 28q22 0 25 16q1 5 1 10h-178v-26h80l-148 -288l-157 288h76v26h-236v-26h53l187 -332v-216h-81v-26h258zM258 701q0 35 -31 48q-11 5 -22 5q-36 0 -49 -31q-5 -11 -5 -22q0 -36 32 -50q11 -4 22 -4q35 0 48 32q5 11 5 22z
M442 701q0 35 -32 49q-11 4 -22 4q-36 0 -49 -32q-4 -11 -4 -21q0 -37 33 -50q10 -4 20 -4q36 0 49 32q5 10 5 22z" />
    <glyph glyph-name="Zacute" unicode="&#x179;" horiz-adv-x="550" 
d="M519 0l2 207h-23l-23 -96q-22 -84 -98 -85h-237l376 553v21h-446l-9 -181h22l40 90q30 64 81 65h207l-387 -554v-20h495zM392 707q14 13 15 31q0 26 -26 42q-12 6 -22 6q-16 -1 -30 -13q-9 -8 -48 -67q-32 -46 -60 -75l16 -18q25 18 111 65q32 18 44 29z" />
    <glyph glyph-name="zacute" unicode="&#x17a;" horiz-adv-x="421" 
d="M121 26l268 383v21h-342l-9 -134h17l26 59q23 48 65 49h152l-278 -382v-22h369l3 155h-17l-13 -60q-14 -59 -59 -68q-7 -1 -13 -1h-169zM303 577q14 13 15 31q0 26 -26 42q-12 6 -22 6q-16 -1 -30 -13q-9 -8 -48 -67q-32 -46 -60 -75l16 -18q25 18 111 65q32 18 44 29z
" />
    <glyph glyph-name="Zdotaccent" unicode="&#x17b;" horiz-adv-x="550" 
d="M519 0l2 207h-23l-23 -96q-22 -84 -98 -85h-237l376 553v21h-446l-9 -181h22l40 90q30 64 81 65h207l-387 -554v-20h495zM359 699q0 36 -32 53q-13 6 -26 6q-37 0 -53 -33q-6 -13 -6 -26q0 -38 34 -54q12 -5 25 -5q36 0 52 33q6 13 6 26z" />
    <glyph glyph-name="zdotaccent" unicode="&#x17c;" horiz-adv-x="421" 
d="M121 26l268 383v21h-342l-9 -134h17l26 59q23 48 65 49h152l-278 -382v-22h369l3 155h-17l-13 -60q-14 -59 -59 -68q-7 -1 -13 -1h-169zM269 569q0 36 -32 53q-13 6 -26 6q-37 0 -53 -33q-6 -13 -6 -26q0 -38 34 -54q12 -5 25 -5q36 0 52 33q6 13 6 26z" />
    <glyph glyph-name="Zcaron" unicode="&#x17d;" horiz-adv-x="550" 
d="M519 0l2 207h-23l-23 -96q-22 -84 -98 -85h-237l376 553v21h-446l-9 -181h22l40 90q30 64 81 65h207l-387 -554v-20h495zM302 631q28 0 61 39q8 8 25 30q34 42 57 67l-14 16q-53 -34 -129 -73q-92 47 -131 74l-14 -18q25 -27 60 -69q42 -51 60 -60q13 -6 25 -6z" />
    <glyph glyph-name="zcaron" unicode="&#x17e;" horiz-adv-x="421" 
d="M121 26l268 383v21h-342l-9 -134h17l26 59q23 48 65 49h152l-278 -382v-22h369l3 155h-17l-13 -60q-14 -59 -59 -68q-7 -1 -13 -1h-169zM212 501q28 0 61 39q8 8 25 30q34 42 57 67l-14 16q-53 -34 -129 -73q-92 47 -131 74l-14 -18q25 -27 60 -69q42 -51 60 -60
q13 -6 25 -6z" />
    <glyph glyph-name="florin" unicode="&#x192;" horiz-adv-x="459" 
d="M258 288v13q1 9 1 13h121v27h-119q8 167 28 210q16 32 43 33q30 0 38 -35q1 -6 3 -17q7 -40 23 -49q10 -4 21 -4q36 0 45 34q2 7 2 14q0 44 -42 68q-27 15 -63 15q-113 0 -161 -137q-19 -55 -30 -132h-101v-27h98q-4 -30 -5 -52q-3 -37 -7 -112q-13 -206 -32 -266
q-19 -55 -50 -56q-28 0 -31 34q0 5 -1 17q-1 43 -17 53q-11 6 -26 6q-40 0 -47 -39q-1 -6 -1 -11q0 -43 43 -67q28 -16 64 -16q115 0 164 181q30 113 39 302z" />
    <glyph glyph-name="uni0218" unicode="&#x218;" horiz-adv-x="540" 
d="M492 159q0 88 -96 143q-16 10 -114 54q-88 39 -111 80q-11 22 -11 46q0 64 62 89q27 11 59 11q83 0 126 -57q30 -39 29 -96h32v176q-26 0 -29 -17q-2 -7 -2 -17q-74 39 -163 39q-109 0 -170 -60q-41 -41 -41 -98q0 -84 93 -137q17 -10 114 -54q89 -40 113 -82
q12 -22 12 -48q0 -70 -66 -100q-31 -13 -68 -13q-145 0 -168 167q-1 11 -2 21h-32v-208q24 0 29 14q2 9 2 29q77 -51 177 -51q116 0 180 62q45 45 45 107zM333 -111q0 58 -43 72q-10 3 -21 3q-36 0 -51 -33q-5 -13 -5 -25q0 -39 39 -52q5 -2 9 -3q24 -6 25 -19
q-1 -29 -47 -79l23 -16q66 78 71 152z" />
    <glyph glyph-name="uni0219" unicode="&#x219;" horiz-adv-x="404" 
d="M191 17q69 0 90 43q7 14 7 29q0 44 -62 75q-13 7 -43 20q-80 34 -107 64q-28 32 -28 75q0 71 78 101q37 13 80 13q68 0 115 -28q0 29 14 33q5 1 13 1v-125h-27q-2 92 -102 93q-72 0 -90 -44q-4 -12 -4 -24q0 -43 61 -73q14 -7 43 -19q81 -33 108 -62q29 -33 29 -78
q0 -83 -87 -110q-34 -11 -74 -11q-75 1 -130 35q0 -26 -13 -30q-6 -1 -14 -1v152h29q2 -128 114 -129zM262 -111q0 58 -43 72q-10 3 -21 3q-36 0 -51 -33q-5 -13 -5 -25q0 -39 39 -52q5 -2 9 -3q24 -6 25 -19q-1 -29 -47 -79l23 -16q66 78 71 152z" />
    <glyph glyph-name="uni021A" unicode="&#x21a;" horiz-adv-x="570" 
d="M426 0q0 22 -16 25q-5 1 -10 1h-69v548h51q83 -1 110 -103l19 -71h28l-4 200h-499l-5 -200h28l19 71q28 102 111 103h46v-548h-95v-26h286zM343 -111q0 58 -43 72q-10 3 -21 3q-36 0 -51 -33q-5 -13 -5 -25q0 -39 39 -52q5 -2 9 -3q24 -6 25 -19q-1 -29 -47 -79l23 -16
q66 78 71 152z" />
    <glyph glyph-name="uni021B" unicode="&#x21b;" horiz-adv-x="332" 
d="M19 400h70v-276q7 -131 121 -135q94 0 117 113v2l-27 5q-21 -89 -72 -90q-53 2 -54 77v304h151v25h-151v116l-85 -21v-95h-70v-25zM245 -111q0 58 -43 72q-10 3 -21 3q-36 0 -51 -33q-5 -13 -5 -25q0 -39 39 -52q5 -2 9 -3q24 -6 25 -19q-1 -29 -47 -79l23 -16
q66 78 71 152z" />
    <glyph glyph-name="circumflex" unicode="&#x2c6;" horiz-adv-x="500" 
d="M372 499l12 17q-13 14 -74 88q-38 38 -61 41q-26 0 -56 -36q-6 -8 -20 -26q-34 -42 -57 -68l12 -15q51 32 123 68q75 -38 121 -69z" />
    <glyph glyph-name="caron" unicode="&#x2c7;" horiz-adv-x="500" 
d="M251 501q28 0 61 39q8 8 25 30q34 42 57 67l-14 16q-53 -34 -129 -73q-92 47 -131 74l-14 -18q25 -27 60 -69q42 -51 60 -60q13 -6 25 -6z" />
    <glyph glyph-name="uni02C9" unicode="&#x2c9;" horiz-adv-x="500" 
d="M98 540h304v51h-304v-51z" />
    <glyph glyph-name="breve" unicode="&#x2d8;" horiz-adv-x="500" 
d="M254 576q84 0 99 59q1 3 1 5h21q0 -89 -64 -119q-27 -12 -60 -12q-91 0 -117 79q-8 25 -8 52h20q15 -64 108 -64z" />
    <glyph glyph-name="dotaccent" unicode="&#x2d9;" horiz-adv-x="286" 
d="M200 569q0 36 -32 53q-13 6 -26 6q-37 0 -53 -33q-6 -13 -6 -26q0 -38 34 -54q12 -5 25 -5q36 0 52 33q6 13 6 26z" />
    <glyph glyph-name="ring" unicode="&#x2da;" horiz-adv-x="500" 
d="M199 573q0 61 38 69q5 1 10 1q42 0 48 -54q1 -7 1 -14q0 -54 -33 -67q-8 -3 -16 -3q-47 1 -48 68zM250 666q-77 0 -102 -53q-8 -18 -8 -38q0 -60 53 -83q24 -10 52 -10q74 0 100 54q9 19 9 40q0 57 -52 80q-24 10 -52 10z" />
    <glyph glyph-name="ogonek" unicode="&#x2db;" horiz-adv-x="500" 
d="M260 -162q-35 0 -40 39q-1 6 -1 11q0 49 52 88q20 14 44 24l-1 9q-136 -23 -169 -92q-8 -16 -8 -33q0 -46 49 -66q22 -9 49 -9q57 1 91 37l-12 15q-28 -23 -54 -23z" />
    <glyph glyph-name="tilde" unicode="&#x2dc;" horiz-adv-x="500" 
d="M200 637q30 0 74 -33q36 -27 56 -27q38 0 53 53q1 2 1 4l21 -5q-21 -110 -91 -111q-30 0 -73 32q-36 27 -57 27q-37 0 -52 -48l-2 -8l-20 4q21 111 90 112z" />
    <glyph glyph-name="hungarumlaut" unicode="&#x2dd;" horiz-adv-x="580" 
d="M335 593q13 12 13 30q0 27 -26 41q-11 5 -21 5q-16 -1 -28 -12q-8 -8 -46 -66q-31 -45 -58 -74l15 -17q23 17 111 66q29 17 40 27zM499 563q15 9 19 27q5 28 -19 45q-8 7 -18 8q-18 3 -30 -6q-12 -7 -59 -55q-38 -38 -70 -61l11 -20q25 12 122 44q31 10 44 18z" />
    <glyph glyph-name="pi" unicode="&#x3c0;" horiz-adv-x="574" 
d="M556 77l-24 5q-10 -52 -41 -62q-6 -2 -10 -2q-30 2 -30 66v316h85v26h-512v-26h75v-322q0 -48 -60 -52h-15v-26h235q0 23 -13 25q-5 1 -11 1h-51v374h181v-269q0 -133 88 -140h11q59 0 83 56q6 14 9 30z" />
    <glyph glyph-name="anusvara" unicode="&#xd82;" horiz-adv-x="355" 
d="M68 175q0 -52 46 -81q25 -16 55 -16q56 0 85 46q15 24 15 51q0 54 -47 82q-25 14 -53 14q-57 0 -86 -45q-15 -24 -15 -51zM29 161q0 68 56 109q38 28 84 28q71 0 113 -56q27 -37 27 -81q0 -68 -56 -109q-38 -28 -84 -28q-71 0 -113 56q-27 37 -27 81z" />
    <glyph glyph-name="visarga" unicode="&#xd83;" horiz-adv-x="242" 
d="M60 108q0 -34 30 -47q11 -5 22 -5q34 0 48 31q5 10 5 21q0 33 -30 48q-11 5 -23 5q-34 0 -47 -31q-5 -11 -5 -22zM30 107q0 46 40 70q20 12 42 12q46 0 70 -40q12 -20 12 -42q0 -46 -40 -70q-20 -12 -42 -12q-46 0 -70 40q-12 20 -12 42zM60 306q0 -34 31 -48
q10 -5 21 -5q33 0 48 30q5 11 5 23q0 34 -31 47q-11 5 -22 5q-34 0 -47 -30q-5 -11 -5 -22zM30 305q0 46 40 70q20 12 42 12q46 0 70 -40q12 -20 12 -42q0 -46 -40 -70q-20 -12 -42 -12q-46 0 -70 40q-12 20 -12 42z" />
    <glyph glyph-name="si_A" unicode="&#xd85;" horiz-adv-x="559" 
d="M400 224q-14 0 -21 3v80q0 52 28 79q2 3 4 4v-2q0 -18 18 -43q4 -5 6 -8q16 -25 16 -56q0 -45 -37 -55q-7 -2 -14 -2zM350 -210h29v214q83 14 132 46v31q-52 -39 -132 -51v170q23 -5 39 -5q61 0 86 40q11 18 11 39q0 42 -45 79q-29 24 -33 33q-2 4 -2 8q1 11 9 17l7 3
l-22 11q-31 -8 -53 -33q-26 -31 -26 -86v-280q-32 -2 -53 -2q-135 0 -165 90q-7 22 -7 46q0 66 49 99q33 21 83 21h81v3q0 104 -80 132q-24 8 -52 8q-71 0 -95 -38q-7 -12 -7 -25q0 -28 28 -36q6 -2 12 -2q27 1 42 28q11 26 31 31q9 2 19 2q45 0 64 -45q7 -18 8 -36h-111
q-108 0 -148 -75q-17 -32 -17 -71q0 -99 106 -139q57 -21 137 -21q43 0 75 4v-210z" />
    <glyph glyph-name="si_Aa" unicode="&#xd86;" horiz-adv-x="848" 
d="M400 224q-14 0 -21 3v80q0 52 28 79q2 3 4 4v-2q0 -18 18 -43q4 -5 6 -8q16 -25 16 -56q0 -45 -37 -55q-7 -2 -14 -2zM350 -210h29v214q83 14 132 46v31q-52 -39 -132 -51v170q23 -5 39 -5q61 0 86 40q11 18 11 39q0 42 -45 79q-29 24 -33 33q-2 4 -2 8q1 11 9 17l7 3
l-22 11q-31 -8 -53 -33q-26 -31 -26 -86v-280q-32 -2 -53 -2q-135 0 -165 90q-7 22 -7 46q0 66 49 99q33 21 83 21h81v3q0 104 -80 132q-24 8 -52 8q-71 0 -95 -38q-7 -12 -7 -25q0 -28 28 -36q6 -2 12 -2q27 1 42 28q11 26 31 31q9 2 19 2q45 0 64 -45q7 -18 8 -36h-111
q-108 0 -148 -75q-17 -32 -17 -71q0 -99 106 -139q57 -21 137 -21q43 0 75 4v-210zM550 107q0 -75 62 -100q21 -8 47 -8q106 0 128 128q6 32 6 69q0 169 -100 194q-16 4 -34 4q-60 0 -91 -47q-18 -28 -18 -62q0 -14 1 -21h27q-1 6 -1 14q0 52 39 69q10 5 22 5q76 -2 76 -156
q0 -149 -71 -155h-5q-49 0 -59 52q-2 10 -2 21q0 10 1 15h-27q-1 -8 -1 -22z" />
    <glyph glyph-name="si_Ae" unicode="&#xd87;" horiz-adv-x="857" 
d="M534 306h202q-97 -108 -123 -226q-7 -34 -7 -65q0 -100 60 -140q29 -19 65 -19q64 1 99 40l-4 18q-22 -3 -38 -2q-72 8 -95 82q-8 29 -8 63q1 129 86 258q2 13 3 16h-240v-25zM400 224q-14 0 -21 3v80q0 52 28 79q2 3 4 4v-2q0 -18 18 -43q4 -5 6 -8q16 -25 16 -56
q0 -45 -37 -55q-7 -2 -14 -2zM350 -210h29v214q83 14 132 46v31q-52 -39 -132 -51v170q23 -5 39 -5q61 0 86 40q11 18 11 39q0 42 -45 79q-29 24 -33 33q-2 4 -2 8q1 11 9 17l7 3l-22 11q-31 -8 -53 -33q-26 -31 -26 -86v-280q-32 -2 -53 -2q-135 0 -165 90q-7 22 -7 46
q0 66 49 99q33 21 83 21h81v3q0 104 -80 132q-24 8 -52 8q-71 0 -95 -38q-7 -12 -7 -25q0 -28 28 -36q6 -2 12 -2q27 1 42 28q11 26 31 31q9 2 19 2q45 0 64 -45q7 -18 8 -36h-111q-108 0 -148 -75q-17 -32 -17 -71q0 -99 106 -139q57 -21 137 -21q43 0 75 4v-210z" />
    <glyph glyph-name="si_Aae" unicode="&#xd88;" horiz-adv-x="860" 
d="M400 224q-14 0 -21 3v80q0 52 28 79q2 3 4 4v-2q0 -18 18 -43q4 -5 6 -8q16 -25 16 -56q0 -45 -37 -55q-7 -2 -14 -2zM350 -210h29v214q83 14 132 46v31q-52 -39 -132 -51v170q23 -5 39 -5q61 0 86 40q11 18 11 39q0 42 -45 79q-29 24 -33 33q-2 4 -2 8q1 11 9 17l7 3
l-22 11q-31 -8 -53 -33q-26 -31 -26 -86v-280q-32 -2 -53 -2q-135 0 -165 90q-7 22 -7 46q0 66 49 99q33 21 83 21h81v3q0 104 -80 132q-24 8 -52 8q-71 0 -95 -38q-7 -12 -7 -25q0 -28 28 -36q6 -2 12 -2q27 1 42 28q11 26 31 31q9 2 19 2q45 0 64 -45q7 -18 8 -36h-111
q-108 0 -148 -75q-17 -32 -17 -71q0 -99 106 -139q57 -21 137 -21q43 0 75 4v-210zM532 307h195l-129 -93v-20h158q-146 -99 -147 -207q0 -86 69 -118q31 -14 70 -14q40 0 79 18v24q-112 0 -134 83q-4 18 -4 37q0 88 82 161q12 10 23 18v22h-147l124 92v21h-239v-24z" />
    <glyph glyph-name="si_I" unicode="&#xd89;" horiz-adv-x="579" 
d="M32 216q0 114 99 170q63 36 146 36q149 0 215 -94q39 -56 39 -135q0 -100 -72 -160q-38 -30 -84 -39q48 -9 53 -57q1 -5 1 -10q0 -54 -74 -75q-30 -8 -64 -8q-99 0 -118 57q-4 12 -4 25q0 30 25 36q4 1 8 1q24 -5 28 -26q0 -2 -1 -10q-2 -12 -2 -19q3 -41 66 -42
q56 0 68 36q3 9 3 17q0 48 -61 62q-19 4 -42 4q-10 0 -18 -1v28q13 1 24 1q8 0 24 -1t25 -1q92 0 141 65q30 41 30 96q0 92 -83 139q-54 31 -126 31q-118 0 -171 -63q-29 -35 -29 -83q0 -61 57 -95q37 -22 85 -22q77 1 104 36q-18 -13 -46 -13q-44 0 -65 37q-10 17 -10 35
q0 49 40 70q17 9 36 9q63 0 82 -53q6 -16 6 -35q0 -87 -98 -107q-25 -5 -54 -5q-103 0 -153 67q-30 41 -30 96zM231 177q0 -30 29 -44q11 -5 21 -5q31 0 45 28q5 11 5 21q0 30 -29 44q-11 5 -21 5q-31 0 -45 -28q-5 -11 -5 -21z" />
    <glyph glyph-name="si_Ii" unicode="&#xd8a;" horiz-adv-x="515" 
d="M400 457q0 -27 25 -35q7 -2 13 -2q28 0 35 26q2 5 2 11q0 28 -26 35q-5 2 -11 2q-27 0 -36 -25q-2 -6 -2 -12zM374 457q0 39 35 56q14 7 29 7q39 0 56 -35q6 -14 6 -28q0 -40 -35 -56q-13 -6 -27 -6q-39 0 -57 33q-7 14 -7 29zM142 525q0 -28 26 -35q6 -2 11 -2
q28 0 35 26q2 5 2 11q0 28 -26 35q-5 2 -11 2q-28 0 -35 -26q-2 -5 -2 -11zM115 525q0 39 35 56q14 7 29 7q39 0 56 -35q6 -14 6 -28q0 -40 -35 -56q-13 -6 -27 -6q-39 0 -57 33q-7 14 -7 29zM30 208q0 117 110 188q12 8 26 16q66 34 118 81l12 12q14 14 50 65q27 39 49 39
q26 -1 27 -20q-2 -30 -70 -87q-56 -45 -111 -76q7 1 15 1q100 -1 164 -70q51 -58 51 -137q0 -100 -75 -165q-64 -55 -154 -55q-105 0 -167 75q-45 57 -45 133zM67 235q0 -84 66 -125q42 -26 99 -26q96 0 148 67q35 45 35 104q0 91 -75 130q-37 18 -83 18q-79 0 -138 -55
q-51 -49 -52 -113z" />
    <glyph glyph-name="si_U" unicode="&#xd8b;" horiz-adv-x="635" 
d="M31 97q0 -121 101 -195q82 -59 188 -59q124 0 203 75q66 63 66 149h-29q0 -85 -76 -141q-62 -45 -141 -45q-103 0 -168 75q-54 63 -54 152q0 103 89 140q40 16 92 16h224v6q0 87 -69 129q-40 23 -90 23q-87 0 -103 -48q-3 -8 -3 -18q0 -27 26 -35q7 -2 13 -2q25 1 42 27
q23 33 58 34q50 0 79 -45q13 -22 15 -46h-236q-126 0 -189 -80q-38 -49 -38 -112z" />
    <glyph glyph-name="si_Uu" unicode="&#xd8c;" horiz-adv-x="967" 
d="M31 97q0 -121 101 -195q82 -59 188 -59q124 0 203 75q66 63 66 149h-29q0 -85 -76 -141q-62 -45 -141 -45q-103 0 -168 75q-54 63 -54 152q0 103 89 140q40 16 92 16h224v6q0 87 -69 129q-40 23 -90 23q-87 0 -103 -48q-3 -8 -3 -18q0 -27 26 -35q7 -2 13 -2q25 1 42 27
q23 33 58 34q50 0 79 -45q13 -22 15 -46h-236q-126 0 -189 -80q-38 -49 -38 -112zM569 313q0 -65 48 -93q22 -13 49 -13q63 0 83 43q6 15 6 31q-1 35 -36 54v7q2 51 50 52q69 -2 69 -162q0 -181 -60 -198q-7 -2 -15 -2q-52 0 -67 55q-5 17 -5 35q0 15 3 31h-25
q-4 -17 -4 -36q0 -77 55 -107q24 -12 54 -12q101 0 134 115q13 46 13 102q0 125 -59 178q-32 29 -77 29q-79 0 -91 -62q-2 -9 -2 -19q0 -8 1 -12q20 -22 20 -46q0 -39 -34 -47q-7 -2 -14 -2q-46 0 -62 47q-5 16 -5 33q1 68 42 104h-35q-36 -40 -36 -105z" />
    <glyph glyph-name="si_vocalicR" unicode="&#xd8d;" horiz-adv-x="873" 
d="M602 243v-7h25v4q0 88 51 103q8 3 18 3q62 -2 62 -129q-54 0 -91 -17q-64 -28 -65 -96q0 -58 42 -89q23 -16 51 -16q17 0 54 15q7 3 11 3q10 -2 15 -14h38q-1 7 -1 19q0 11 6 59q11 83 11 117q0 124 -60 168q-26 18 -58 18q-76 0 -100 -79q-9 -29 -9 -62zM632 104
q1 59 58 77q27 9 68 9v-9v-25q-1 -27 -1 -43q0 -58 4 -74q-5 3 -9 2q-3 0 -15 -5q-26 -9 -40 -9q-41 0 -59 43q-6 17 -6 34zM30 150q0 -73 54 -118q41 -33 95 -33q93 1 127 81q32 -79 124 -80q103 0 144 76q20 37 20 86q0 69 -50 111q-12 11 -26 17q23 15 27 45q1 4 1 7
q0 62 -68 77q-16 3 -33 3q-74 0 -105 -66q-15 -32 -15 -72v-10q48 9 97 9q95 0 122 -62q8 -19 8 -42q0 -58 -56 -84q-28 -12 -61 -12q-86 0 -109 46q-6 13 -6 28v27h-26v-27q0 -47 -55 -66q-23 -8 -49 -8q-70 0 -103 48q-14 22 -14 47q0 70 73 95q28 10 59 10t81 -8v14
q0 87 -61 119q-27 14 -62 14q-67 0 -93 -39q-9 -15 -9 -32q0 -30 28 -35q4 -1 7 -1q28 1 39 31q12 31 36 37q9 2 19 2q35 0 55 -37q11 -20 11 -42v-3q-20 6 -53 6q-96 0 -144 -65q-29 -41 -29 -94zM354 303q9 78 85 79q53 0 66 -31q2 -7 2 -14q-1 -23 -15 -38q-31 10 -77 10
q-39 0 -61 -6z" />
    <glyph glyph-name="si_vocalicRr" unicode="&#xd8e;" horiz-adv-x="1113" 
d="M602 243v-7h25v4q0 88 51 103q8 3 18 3q62 -2 62 -129q-54 0 -91 -17q-64 -28 -65 -96q0 -58 42 -89q23 -16 51 -16q17 0 54 15q7 3 11 3q10 -2 15 -14h38q-1 7 -1 19q0 11 6 59q11 83 11 117q0 124 -60 168q-26 18 -58 18q-76 0 -100 -79q-9 -29 -9 -62zM632 104
q1 59 58 77q27 9 68 9v-9v-25q-1 -27 -1 -43q0 -58 4 -74q-5 3 -9 2q-3 0 -15 -5q-26 -9 -40 -9q-41 0 -59 43q-6 17 -6 34zM844 243v-7h25v4q0 88 51 103q8 3 18 3q62 -2 62 -129q-54 0 -91 -17q-64 -28 -65 -96q0 -58 42 -89q23 -16 51 -16q17 0 54 15q7 3 11 3
q10 -2 15 -14h38q-1 7 -1 19q0 11 6 59q11 83 11 117q0 124 -60 168q-26 18 -58 18q-76 0 -100 -79q-9 -29 -9 -62zM874 104q1 59 58 77q27 9 68 9v-9v-25q-1 -27 -1 -43q0 -58 4 -74q-5 3 -9 2q-3 0 -15 -5q-26 -9 -40 -9q-41 0 -59 43q-6 17 -6 34zM30 150q0 -73 54 -118
q41 -33 95 -33q93 1 127 81q32 -79 124 -80q103 0 144 76q20 37 20 86q0 69 -50 111q-12 11 -26 17q23 15 27 45q1 4 1 7q0 62 -68 77q-16 3 -33 3q-74 0 -105 -66q-15 -32 -15 -72v-10q48 9 97 9q95 0 122 -62q8 -19 8 -42q0 -58 -56 -84q-28 -12 -61 -12q-86 0 -109 46
q-6 13 -6 28v27h-26v-27q0 -47 -55 -66q-23 -8 -49 -8q-70 0 -103 48q-14 22 -14 47q0 70 73 95q28 10 59 10t81 -8v14q0 87 -61 119q-27 14 -62 14q-67 0 -93 -39q-9 -15 -9 -32q0 -30 28 -35q4 -1 7 -1q28 1 39 31q12 31 36 37q9 2 19 2q35 0 55 -37q11 -20 11 -42v-3
q-20 6 -53 6q-96 0 -144 -65q-29 -41 -29 -94zM354 303q9 78 85 79q53 0 66 -31q2 -7 2 -14q-1 -23 -15 -38q-31 10 -77 10q-39 0 -61 -6z" />
    <glyph glyph-name="si_vocalicL" unicode="&#xd8f;" horiz-adv-x="800" 
d="M625 52q5 20 24 24q21 -5 25 -24q0 -19 -19 -24q-3 -1 -6 -1q-20 5 -24 25zM694 76q-15 26 -44 27q-7 0 -10 -1q20 35 20 80q-1 79 -59 114q27 21 27 50q-1 23 -16 42q-13 19 -13 37q1 15 20 16q56 0 86 -84q20 -54 20 -123q0 -90 -26 -147q-2 -7 -5 -11zM568 435
q0 -9 5 -20q-21 8 -46 8q-92 0 -110 -71q-4 -15 -4 -32q0 -19 2 -30q39 7 68 7q108 0 132 -60q5 -14 5 -30q0 -76 -106 -108q-53 -16 -116 -16q-141 0 -198 55q-29 27 -29 64q0 70 87 88q25 5 53 5q16 0 52 -4q4 17 4 35q0 81 -82 95q-15 3 -31 3q-21 0 -41 -5q4 6 4 16
q-6 33 -47 35q-74 0 -113 -89q-27 -62 -27 -147q0 -107 37 -178q28 -54 68 -55q34 0 47 30q4 11 4 21v4q69 -56 212 -56q130 1 202 57v-5q0 -34 30 -47q10 -4 20 -4q59 0 89 111q16 59 16 122q0 135 -61 200q-35 36 -79 36q-45 -3 -47 -35zM111 52q5 20 25 24q20 -5 24 -24
q-5 -21 -24 -25q-19 0 -24 19q-1 3 -1 6zM130 180q0 -46 18 -79q-9 2 -13 2q-30 -1 -44 -27q-27 46 -30 147v11q0 116 46 175q27 31 59 32q20 -2 21 -15q-1 -12 -18 -31l1 1q-17 -18 -17 -40q6 -32 38 -36q35 1 44 32q13 32 48 33q40 0 52 -36q3 -10 3 -21v-6q-1 -3 -1 -5
q-27 2 -36 2q-120 0 -158 -77q-13 -28 -13 -62zM444 328q0 49 49 63q14 4 28 4q54 0 68 -36q3 -8 3 -16q-1 -19 -16 -35q-33 12 -84 12q-22 0 -47 -3q-1 5 -1 11z" />
    <glyph glyph-name="si_vocalicLL" unicode="&#xd90;" horiz-adv-x="1174" 
d="M625 52q5 20 24 24q21 -5 25 -24q0 -19 -19 -24q-3 -1 -6 -1q-20 5 -24 25zM694 76q-15 26 -44 27q-7 0 -10 -1q20 35 20 80q-1 79 -59 114q27 21 27 50q-1 23 -16 42q-13 19 -13 37q1 15 20 16q56 0 86 -84q20 -54 20 -123q0 -90 -26 -147q-2 -7 -5 -11zM568 435
q0 -9 5 -20q-21 8 -46 8q-92 0 -110 -71q-4 -15 -4 -32q0 -19 2 -30q39 7 68 7q108 0 132 -60q5 -14 5 -30q0 -76 -106 -108q-53 -16 -116 -16q-141 0 -198 55q-29 27 -29 64q0 70 87 88q25 5 53 5q16 0 52 -4q4 17 4 35q0 81 -82 95q-15 3 -31 3q-21 0 -41 -5q4 6 4 16
q-6 33 -47 35q-74 0 -113 -89q-27 -62 -27 -147q0 -107 37 -178q28 -54 68 -55q34 0 47 30q4 11 4 21v4q69 -56 212 -56q130 1 202 57v-5q0 -34 30 -47q10 -4 20 -4q59 0 89 111q16 59 16 122q0 135 -61 200q-35 36 -79 36q-45 -3 -47 -35zM111 52q5 20 25 24q20 -5 24 -24
q-5 -21 -24 -25q-19 0 -24 19q-1 3 -1 6zM130 180q0 -46 18 -79q-9 2 -13 2q-30 -1 -44 -27q-27 46 -30 147v11q0 116 46 175q27 31 59 32q20 -2 21 -15q-1 -12 -18 -31l1 1q-17 -18 -17 -40q6 -32 38 -36q35 1 44 32q13 32 48 33q40 0 52 -36q3 -10 3 -21v-6q-1 -3 -1 -5
q-27 2 -36 2q-120 0 -158 -77q-13 -28 -13 -62zM444 328q0 49 49 63q14 4 28 4q54 0 68 -36q3 -8 3 -16q-1 -19 -16 -35q-33 12 -84 12q-22 0 -47 -3q-1 5 -1 11zM777 313q0 -65 48 -93q23 -13 50 -13q63 0 83 43q6 15 6 31q-1 35 -36 54v7q2 51 50 52q67 -4 68 -162
q0 -181 -60 -198q-7 -2 -15 -2q-52 0 -67 55q-5 17 -5 35q0 15 3 31h-25q-4 -17 -4 -36q0 -77 55 -107q24 -12 54 -12q101 0 134 115q13 46 13 102q0 129 -61 181q-32 26 -75 26q-79 0 -91 -62q-2 -9 -2 -19q0 -8 1 -12q20 -22 20 -46q0 -39 -34 -47q-7 -2 -14 -2
q-46 0 -62 47q-5 16 -5 33q1 68 42 104h-35q-36 -40 -36 -105z" />
    <glyph glyph-name="si_E" unicode="&#xd91;" horiz-adv-x="581" 
d="M44 161q0 -109 118 -146q48 -15 108 -15q157 0 225 106q37 59 37 133q0 88 -42 165q-5 8 -9 16q-44 76 -121 135q-23 17 -43 28q-41 -48 -41 -114q0 -72 48 -103q22 -15 50 -15q62 1 86 51q38 -58 38 -134q0 -117 -103 -162q-52 -23 -123 -23q-149 0 -180 66q-7 15 -7 32
q1 38 37 63q42 27 104 27h62v12q0 81 -54 118q-31 21 -72 21q-69 0 -92 -41q-8 -14 -8 -29q0 -29 28 -36q5 -1 9 -1q29 2 38 33q11 36 50 37q37 0 58 -39q12 -21 12 -45v-6h-241v-31q33 6 110 7h10q-35 -8 -60 -29q-32 -30 -32 -81zM307 474q0 43 19 72q74 -55 114 -116
q-14 -41 -58 -42q-66 0 -74 70q-1 8 -1 16z" />
    <glyph glyph-name="si_Ee" unicode="&#xd92;" horiz-adv-x="581" 
d="M458 503v130q62 -34 75 -59q7 -14 7 -30q-2 -46 -51 -47q-19 0 -31 6zM44 161q0 -109 118 -146q48 -15 108 -15q154 0 223 104q39 58 39 130q0 81 -40 150q-5 9 -11 18q-14 22 -23 34v44q21 -8 44 -8q55 0 73 41q6 14 6 29q0 57 -56 87q-11 6 -35 16q-43 19 -60 33v-208
q-58 65 -113 95q-41 -48 -41 -114q0 -72 48 -103q22 -15 50 -15q61 1 86 52q38 -58 38 -122q0 -102 -89 -150q-56 -30 -137 -30q-149 0 -180 66q-7 15 -7 32q1 38 37 63q42 27 104 27h56v12q0 79 -52 114q-28 19 -66 19q-67 0 -93 -39q-9 -15 -9 -32q0 -28 28 -34q4 -1 8 -1
q28 2 39 31q16 37 52 38q36 0 54 -41q8 -18 8 -37v-6h-235v-31q33 6 110 7h10q-35 -8 -60 -29q-32 -30 -32 -81zM307 456q0 42 19 73q73 -54 114 -117q-14 -41 -58 -42q-66 0 -74 70q-1 8 -1 16z" />
    <glyph glyph-name="si_Ai" unicode="&#xd93;" horiz-adv-x="1150" 
d="M615 161q0 -109 118 -146q48 -15 108 -15q157 0 225 106q37 59 37 133q0 88 -42 165q-5 8 -9 16q-44 76 -121 135q-23 17 -43 28q-41 -48 -41 -114q0 -72 48 -103q22 -15 50 -15q62 1 86 51q38 -58 38 -134q0 -117 -103 -162q-52 -23 -123 -23q-149 0 -180 66
q-7 15 -7 32q1 38 37 63q42 27 104 27h62v12q0 81 -54 118q-31 21 -72 21q-69 0 -92 -41q-8 -14 -8 -29q0 -29 28 -36q5 -1 9 -1q29 2 38 33q11 36 50 37q37 0 58 -39q12 -21 12 -45v-6h-241v-31q33 6 110 7h10q-35 -8 -60 -29q-32 -30 -32 -81zM878 474q0 43 19 72
q74 -55 114 -116q-14 -41 -58 -42q-66 0 -74 70q-1 8 -1 16zM227 245q0 29 31 42q12 4 23 4q35 0 49 -28q5 -9 5 -18q0 -29 -31 -42q-12 -4 -23 -4q-35 0 -49 28q-5 8 -5 18zM32 207q0 -108 87 -167q61 -40 144 -40q142 0 194 84q22 36 22 82q0 94 -86 134q-43 20 -99 20
q-62 0 -89 -41q-10 -17 -10 -36q0 -43 44 -64q21 -10 43 -10q50 0 74 36q11 16 11 36q-1 27 -18 46q61 -12 81 -58q7 -16 7 -33q0 -72 -88 -101q-39 -13 -86 -13q-95 0 -149 63q-34 41 -34 92q0 80 83 125q58 32 131 32q117 0 190 -77q47 -50 58 -116h28q-10 108 -105 172
q-74 49 -171 49q-119 0 -196 -70q-65 -60 -66 -145z" />
    <glyph glyph-name="si_O" unicode="&#xd94;" horiz-adv-x="621" 
d="M268 354q0 30 27 42q8 4 18 4q30 0 42 -28q4 -8 4 -18q0 -29 -28 -41q-8 -4 -18 -4q-30 0 -42 28q-3 8 -3 17zM29 219q0 -99 51 -164q44 -54 111 -55q78 1 107 54q20 -49 87 -54h11q124 0 164 132q16 52 16 116q0 150 -88 240q-77 76 -193 76q-155 0 -231 -105
q-2 -2 -3 -4h30q62 77 167 86q16 1 33 1q130 0 199 -98q47 -67 47 -158q0 -108 -53 -166q-36 -38 -85 -38q-67 0 -84 43q-5 12 -5 24v22h-24v-21q0 -52 -56 -65q-16 -4 -35 -4q-74 0 -111 73q-22 43 -22 99q0 73 35 118q21 24 45 25q26 -2 26 -33v-32q0 -74 64 -101
q26 -11 57 -11q73 0 105 51q14 24 14 52q0 67 -50 92q-20 10 -44 10q-51 0 -69 -42q-6 -14 -6 -30q0 -42 36 -62q16 -9 36 -9q45 0 66 39q1 2 2 3q1 -3 1 -5q0 -47 -51 -64q-20 -6 -41 -6q-66 0 -87 47q-7 16 -7 34v33q-1 38 -18 51q-14 9 -31 9q-61 0 -94 -81
q-22 -55 -22 -122z" />
    <glyph glyph-name="si_Oo" unicode="&#xd95;" horiz-adv-x="621" 
d="M137 529q0 21 64 36q38 8 76 8q148 0 213 -100q17 -27 27 -60q-82 94 -245 94q-58 0 -116 -11q3 3 3 7q0 5 -14 14q-7 7 -8 12zM41 432q107 50 233 50q154 0 223 -90q39 -51 39 -122q0 -12 -1 -19h1q-11 -107 -73 -150q-29 -19 -64 -19q-67 0 -84 43q-5 12 -5 24v22h-24
v-21q0 -52 -56 -65q-16 -4 -35 -4q-74 0 -111 73q-22 43 -22 99q0 73 35 118q21 24 45 25q26 -2 26 -33v-32q0 -74 64 -101q26 -11 57 -11q73 0 105 51q14 24 14 52q0 67 -50 92q-20 10 -44 10q-51 0 -69 -42q-6 -14 -6 -30q0 -42 36 -62q16 -9 36 -9q45 0 66 39q1 2 2 3
q1 -3 1 -5q0 -47 -51 -64q-20 -6 -41 -6q-66 0 -87 47q-7 16 -7 34v33q-1 38 -18 51q-14 9 -31 9q-61 0 -94 -81q-22 -55 -22 -122q0 -99 51 -164q44 -54 111 -55q78 1 107 54q20 -49 87 -54h11q124 0 165 133q14 48 15 107v4v4q-2 64 -17 100q-15 161 -128 228
q-67 38 -160 38q-109 0 -158 -46q-17 -18 -18 -35q0 -12 19 -26q8 -7 9 -11q0 -6 -61 -26q-13 -5 -21 -8v-30zM268 354q0 30 27 42q8 4 18 4q30 0 42 -28q4 -8 4 -18q0 -29 -28 -41q-8 -4 -18 -4q-30 0 -42 28q-3 8 -3 17z" />
    <glyph glyph-name="si_Au" unicode="&#xd96;" horiz-adv-x="1009" 
d="M268 354q0 30 27 42q8 4 18 4q30 0 42 -28q4 -8 4 -18q0 -29 -28 -41q-8 -4 -18 -4q-30 0 -42 28q-3 8 -3 17zM29 219q0 -99 51 -164q44 -54 111 -55q78 1 107 54q20 -49 87 -54h11q124 0 164 132q16 52 16 116q0 150 -88 240q-77 76 -193 76q-155 0 -231 -105
q-2 -2 -3 -4h30q62 77 167 86q16 1 33 1q130 0 199 -98q47 -67 47 -158q0 -108 -53 -166q-36 -38 -85 -38q-67 0 -84 43q-5 12 -5 24v22h-24v-21q0 -52 -56 -65q-16 -4 -35 -4q-74 0 -111 73q-22 43 -22 99q0 73 35 118q21 24 45 25q26 -2 26 -33v-32q0 -74 64 -101
q26 -11 57 -11q73 0 105 51q14 24 14 52q0 67 -50 92q-20 10 -44 10q-51 0 -69 -42q-6 -14 -6 -30q0 -42 36 -62q16 -9 36 -9q45 0 66 39q1 2 2 3q1 -3 1 -5q0 -47 -51 -64q-20 -6 -41 -6q-66 0 -87 47q-7 16 -7 34v33q-1 38 -18 51q-14 9 -31 9q-61 0 -94 -81
q-22 -55 -22 -122zM610 313q0 -65 48 -93q22 -13 49 -13q63 0 83 43q6 15 6 31q-1 35 -36 54v7q2 51 50 52q69 -2 69 -162q0 -181 -60 -198q-7 -2 -15 -2q-52 0 -67 55q-5 17 -5 35q0 15 3 31h-25q-4 -17 -4 -36q0 -77 55 -107q24 -12 54 -12q101 0 134 115q13 46 13 102
q0 125 -59 178q-32 29 -77 29q-79 0 -91 -62q-2 -9 -2 -19q0 -8 1 -12q20 -22 20 -46q0 -39 -34 -47q-7 -2 -14 -2q-46 0 -62 47q-5 16 -5 33q1 68 42 104h-35q-36 -40 -36 -105z" />
    <glyph glyph-name="si_Ka" unicode="&#xd9a;" horiz-adv-x="728" 
d="M21 21l25 -10q6 59 39 60q12 0 28 -23q24 -35 52 -44q16 -5 34 -5q63 1 90 63q31 -63 99 -63q79 0 106 72q9 25 9 52q0 114 -95 162q-49 24 -112 24q-52 0 -83 -9q67 55 170 55q115 0 184 -70q57 -58 57 -142q0 -70 -43 -103q-19 -14 -40 -14q-31 0 -47 11v-26
q18 -12 48 -12q86 0 124 93q19 46 19 96q0 114 -82 181q-66 55 -161 55q-127 0 -219 -83q-5 -4 -9 -8q1 7 1 15q0 50 -45 68q-17 7 -37 7q-59 0 -89 -43q-16 -22 -16 -48q0 -31 25 -40q8 -2 15 -2q27 1 37 25q2 4 7 28q1 5 3 11q10 26 39 28q33 -2 34 -38q-1 -24 -23 -49
q-43 -45 -59 -68q-49 -68 -75 -159q-7 -26 -10 -47zM72 102q17 50 54 105q27 37 52 59q37 17 114 17q110 0 149 -63q16 -25 16 -56q0 -50 -37 -71q-18 -10 -40 -10q-67 0 -78 56q-2 13 -2 29v1h-26v-1q-2 -84 -77 -85q-30 0 -73 19q-18 8 -29 8q-12 -1 -23 -8z" />
    <glyph glyph-name="si_Kha" unicode="&#xd9b;" horiz-adv-x="615" 
d="M91 70q0 -28 26 -39q8 -3 16 -3q28 0 39 26q3 8 3 16q0 28 -26 39q-8 3 -16 3q-28 0 -39 -26q-3 -8 -3 -16zM31 179q0 125 92 180q48 28 111 28q90 0 139 -55q30 -35 30 -80q-1 -73 -58 -131q4 1 9 1q13 0 30 -20q21 -22 42 -23q49 0 80 82q24 63 24 136q0 140 -90 213
q-63 52 -153 52q-132 -1 -192 -103h-33q71 127 229 128q132 0 211 -98q68 -85 68 -210q0 -126 -54 -210q-46 -68 -110 -69q-37 0 -66 33q-18 19 -27 20q-22 0 -77 -72q-2 -1 -2 -2l-35 3q7 7 34 40q29 38 48 60q73 87 73 139q-2 81 -124 82q-84 0 -132 -54q-35 -41 -35 -100
q0 -27 7 -49q10 33 47 41q8 2 15 2q54 0 69 -46q4 -13 4 -27q0 -38 -32 -60q-17 -11 -35 -11q-73 0 -98 101q-9 37 -9 79z" />
    <glyph glyph-name="si_Ga" unicode="&#xd9c;" horiz-adv-x="621" 
d="M33 202q0 -104 63 -163q45 -41 107 -41q84 0 122 63q19 32 19 72q0 74 -49 96q-15 7 -31 7q-14 -1 -22 -5q17 79 79 109q27 12 57 12q90 0 126 -78q17 -37 17 -84q0 -87 -64 -134q-44 -32 -103 -32q-9 0 -24 2v-25q22 -2 30 -2q111 0 171 82q41 57 41 131q0 107 -63 167
q-46 43 -109 43q-109 0 -160 -115q-23 -53 -29 -119h25q0 6 2 18q11 7 23 7q37 0 44 -37q1 -8 1 -15q0 -56 -62 -73q-19 -5 -42 -5q-77 0 -113 69q-18 36 -18 78q0 88 60 137q38 31 86 31h11v23q-2 0 -6 1h-7q-90 0 -143 -81q-39 -60 -39 -139z" />
    <glyph glyph-name="si_Gha" unicode="&#xd9d;" horiz-adv-x="661" 
d="M50 150q0 -73 53 -118q39 -33 91 -33q39 0 78 12q3 7 3 25q0 10 -7 48q-2 12 -2 25q0 49 41 61q8 3 17 3q40 0 54 -35q5 -14 5 -29q0 -11 -7 -47q-3 -13 -3 -26q0 -17 4 -25q40 -12 77 -12q92 0 135 69q24 40 24 94q0 68 -49 110q-13 11 -27 18q25 19 28 52q0 61 -65 76
q-16 4 -35 4q-74 0 -105 -66q-15 -32 -15 -72v-10q42 9 93 9q110 0 132 -71q4 -15 4 -31q0 -59 -63 -86q-30 -13 -64 -13q-28 0 -37 6q2 21 1 29q-2 67 -63 81q-12 3 -24 3q-59 0 -79 -46q-7 -17 -8 -38q-1 -9 1 -29q-9 -6 -37 -6q-64 0 -95 45q-15 22 -15 49q0 58 62 86
q29 13 60 13h93v13q0 89 -63 121q-26 13 -60 13q-67 0 -93 -38q-10 -16 -10 -33q0 -30 27 -36q5 -1 9 -1q27 1 39 33q15 36 52 37q39 0 58 -39q9 -18 9 -40q0 -1 -1 -4h-268v-32q23 4 127 6q-75 -29 -81 -111q-1 -7 -1 -14zM374 303q9 79 85 80q52 0 64 -31q3 -7 3 -14
q-1 -25 -14 -39q-27 10 -77 10q-41 0 -61 -6z" />
    <glyph glyph-name="si_Nga" unicode="&#xd9e;" horiz-adv-x="602" 
d="M86 339q0 -30 30 -43q11 -5 23 -5q34 0 47 29q4 10 4 19q0 30 -29 43q-11 5 -22 5q-34 0 -48 -29q-5 -9 -5 -19zM45 457q88 111 229 111q120 0 202 -91q81 -91 81 -223q0 -151 -66 -218q-37 -36 -85 -36q-61 0 -97 37q-8 9 -18 21q-47 -57 -107 -58q-76 0 -114 61
q-20 34 -20 76q0 67 59 99q31 16 66 16q18 0 50 -4q32 -3 48 -3q61 2 62 58q0 62 -69 88q-29 10 -57 10q-16 0 -31 -2q38 -22 39 -62q0 -38 -37 -60q-19 -11 -42 -11q-44 0 -68 35q-11 18 -11 37q0 58 77 78q30 8 67 8q102 0 143 -64q17 -28 17 -61q0 -55 -49 -73
q-19 -7 -41 -7q-20 0 -47 3q-28 3 -49 3q-58 0 -78 -39q-6 -14 -6 -28q0 -51 51 -69q19 -6 41 -6q61 0 84 37q8 14 8 30v27h27v-27q0 -45 52 -62q20 -6 41 -6q75 0 104 95q14 46 14 105q0 120 -79 197q-69 65 -165 65q-117 -1 -195 -87h-31z" />
    <glyph glyph-name="si_Nnga" unicode="&#xd9f;" horiz-adv-x="731" 
d="M147 202q0 -104 63 -163q45 -41 107 -41q84 0 122 63q19 32 19 72q0 74 -49 96q-15 7 -31 7q-14 -1 -22 -5q17 79 79 109q27 12 57 12q91 0 127 -78q17 -37 17 -84q0 -87 -64 -134q-44 -32 -104 -32q-9 0 -24 2v-25q22 -2 31 -2q111 0 171 82q41 57 41 131q0 107 -63 167
q-46 43 -109 43q-109 0 -160 -113q-24 -54 -30 -121h26q0 12 1 18q12 7 23 7q37 0 44 -37q1 -8 1 -15q0 -56 -62 -73q-19 -5 -42 -5q-78 0 -113 70q-17 35 -17 77q0 88 59 137q38 31 86 31h11v23q-2 0 -6 1h-6q-9 1 -25 1h-29h-28h-15q-150 0 -193 -117q-14 -40 -14 -90
q0 -115 62 -183q21 -21 44 -33v30q-76 68 -76 183q2 182 189 186q-73 -43 -93 -142q-5 -27 -5 -55z" />
    <glyph glyph-name="si_Ca" unicode="&#xda0;" 
d="M62 161q0 -109 118 -146q48 -15 108 -15q164 0 234 114q40 65 40 154q0 135 -85 220q-75 75 -181 75q-141 -1 -214 -104h32q67 81 182 81q106 0 173 -82q54 -68 54 -159q0 -137 -106 -190q-53 -26 -126 -26q-148 0 -180 65q-7 16 -7 33q1 40 38 63q41 26 106 26h64v13
q0 107 -81 133q-22 6 -47 6q-67 0 -93 -38q-10 -16 -10 -33q0 -28 26 -36q5 -1 9 -1q28 1 40 33q11 28 32 35q11 3 24 3q39 0 58 -40q9 -20 9 -44v-6h-265v-32q31 5 131 7h4q-30 -7 -54 -28q-33 -31 -33 -81z" />
    <glyph glyph-name="si_Cha" unicode="&#xda1;" 
d="M462 284q-38 18 -94 20q3 52 17 96h8q98 -2 99 -110q0 -9 -2 -24q-15 11 -28 18zM300 303q-1 5 -1 13q1 59 55 78q-10 -40 -13 -89q-26 0 -41 -2zM32 166q0 -118 143 -153q52 -13 116 -13q148 0 211 71q34 39 34 93q-1 44 -23 78q7 24 7 50q0 97 -74 125q-23 8 -50 8h-2
q18 45 45 74q34 37 86 52q26 8 30 19q1 4 1 10q0 16 -19 22q-5 1 -10 1q-51 0 -104 -63q-2 -1 -2 -2q-37 -46 -59 -116q-82 -16 -89 -96q-1 -7 -1 -14q0 -16 5 -34q33 2 64 4q2 -99 58 -117q12 -4 24 -4q46 1 73 42q1 -7 1 -16q0 -85 -148 -102q-30 -3 -64 -3
q-151 0 -196 59q-16 21 -16 47q0 51 56 77q38 18 95 18q11 0 24 -2q4 17 4 37q0 73 -61 96q-21 8 -46 8q-61 0 -84 -38q-9 -15 -9 -32q0 -29 27 -37q5 -1 10 -1q26 0 41 30l5 10q14 26 39 27q39 0 48 -41q2 -9 2 -17q0 -6 -2 -19q-6 1 -19 1q-107 0 -151 -69
q-20 -32 -20 -70zM425 188q-54 1 -57 93q83 -5 113 -46q-21 -46 -56 -47z" />
    <glyph glyph-name="si_Ja" unicode="&#xda2;" 
d="M430 304q-38 0 -46 43q-2 8 -2 17q0 17 3 32q7 1 20 1q60 0 71 -37q2 -6 2 -13q0 -32 -32 -41q-8 -2 -16 -2zM318 302q-3 14 -3 24q1 47 40 63q-1 -9 -1 -24q1 -37 19 -62q-9 1 -25 1q-15 0 -30 -2zM32 166q0 -118 143 -153q52 -13 116 -13q148 0 211 71q34 39 34 93
q-1 84 -74 119q44 17 46 62q0 54 -61 73q-19 6 -38 6q-12 0 -17 -1q15 43 49 75q22 21 81 51q32 18 33 31q-6 20 -26 23q-38 -1 -85 -44q-65 -61 -84 -140q-73 -20 -74 -96q0 -23 7 -45q4 0 15 1q25 3 39 3q117 0 144 -64q5 -15 5 -29q0 -87 -151 -103q-28 -3 -60 -3
q-157 0 -199 62q-13 20 -13 43q0 54 61 79q37 15 90 15q9 0 32 -2q4 17 4 38q0 71 -60 95q-23 9 -50 9q-63 0 -87 -37q-9 -15 -9 -32q0 -31 27 -38q5 -1 9 -1q26 0 42 31q2 4 4 7q15 28 44 29q39 0 49 -41q2 -9 2 -17q0 -6 -2 -19q-10 1 -26 1q-107 0 -151 -69
q-20 -32 -20 -70z" />
    <glyph glyph-name="si_Jha" unicode="&#xda3;" horiz-adv-x="1061" 
d="M72 102q17 50 54 105q27 37 52 59q37 17 114 17q110 0 149 -63q16 -25 16 -56q0 -50 -37 -71q-18 -10 -40 -10q-67 0 -78 56q-2 13 -2 29v1h-26v-1q-2 -84 -77 -85q-30 0 -73 19q-18 8 -29 8q-12 -1 -23 -8zM296 309q-51 0 -83 -9q97 84 213 94q18 1 36 1q77 0 134 -15
q-3 0 -8 -2q-61 -21 -94 -91q-14 -29 -19 -61q-55 83 -179 83zM21 21l25 -10q6 59 39 60q12 0 28 -23q24 -35 52 -44q16 -5 34 -5q63 1 90 63q31 -63 99 -63q77 0 104 68q3 7 5 14q43 -80 128 -81q64 1 110 58q45 -57 117 -58q108 0 147 131q16 56 16 124q0 144 -93 234
q-80 77 -191 77q-145 -1 -228 -109h31q78 86 193 86q117 0 189 -88q59 -73 59 -174q0 -117 -56 -169q-31 -29 -73 -29q-74 0 -92 54q-4 14 -4 29v35h-27v-35q0 -68 -72 -81q-13 -2 -27 -2q-68 0 -99 62q-16 31 -16 68q0 75 55 121q37 30 82 30h9v25q-70 33 -193 34
q-141 0 -238 -82l-10 -8q1 7 1 15q0 50 -45 68q-17 7 -37 7q-59 0 -89 -43q-16 -22 -16 -48q0 -31 25 -40q8 -2 15 -2q27 1 37 25q2 4 7 28q1 5 3 11q10 26 39 28q33 -2 34 -38q-1 -24 -23 -49q-43 -45 -59 -68q-49 -68 -75 -159q-7 -26 -10 -47z" />
    <glyph glyph-name="si_Nya" unicode="&#xda4;" horiz-adv-x="1000" 
d="M194 102q17 50 54 105q27 37 52 59q37 17 114 17q110 0 149 -63q16 -25 16 -56q0 -50 -37 -71q-18 -10 -40 -10q-67 0 -78 56q-2 13 -2 29v1h-26v-1q-2 -84 -77 -85q-30 0 -73 19q-18 8 -29 8q-12 -1 -23 -8zM143 21l25 -10q6 59 39 60q12 0 28 -23q24 -35 52 -44
q16 -5 34 -5q63 1 90 63q31 -63 99 -63q78 1 106 72q51 -73 171 -73q44 0 82 12q-70 -90 -70 -148q0 -73 65 -93q19 -5 40 -6q29 0 54 5v28q-82 21 -93 80q-2 12 -2 24q0 66 76 153l7 7q7 9 10 12l-23 18q-54 -61 -115 -61q-71 0 -112 55q-27 37 -27 84q2 117 131 118h119
q-23 109 -121 131q-52 15 -138 15q-114 0 -199 -29q-75 -25 -135 -70q1 7 1 15q0 51 -47 69q-15 5 -31 6q-12 1 -26 1q-148 0 -192 -115q-15 -41 -15 -93q0 -115 62 -183q21 -21 44 -33v30q-76 68 -76 183q0 127 89 168q14 6 28 10l2 1q-25 -27 -25 -60q0 -31 25 -40
q8 -2 15 -2q27 1 37 25q2 4 7 28q1 6 3 11q10 26 39 28q32 -5 35 -38q-1 -23 -24 -49q-39 -41 -58 -68q-50 -69 -76 -159q-7 -26 -10 -47zM418 309q-50 0 -82 -8q98 72 210 93q51 10 119 10h27q-23 -16 -23 -41q0 -30 29 -35q5 -1 9 -1q28 1 42 29q16 29 42 30q46 0 80 -37
q17 -19 22 -40h-117q-144 -1 -177 -86q-49 80 -167 86h-14z" />
    <glyph glyph-name="si_Jnya" unicode="&#xda5;" horiz-adv-x="822" 
d="M131 202q0 -104 63 -163q45 -41 107 -41q86 0 123 66q5 9 8 18q49 -82 177 -83q47 0 82 11q-70 -90 -70 -148q0 -72 65 -92q19 -6 41 -7q28 0 53 5v28q-80 21 -92 79q-2 12 -2 25q0 67 78 156q2 3 6 7q6 7 8 10l-23 17q-56 -59 -114 -61q-71 0 -112 55q-28 38 -28 85
q0 110 114 117h17h119q-21 109 -94 131q-7 2 -13 3q-36 8 -97 8q-217 -2 -239 -240h26q0 6 2 18q9 7 22 7q37 0 44 -39q1 -7 1 -14q0 -57 -65 -73q-18 -4 -39 -4q-79 0 -113 72q-17 34 -17 75q0 88 59 137q38 31 86 31h11v23h-4q-4 1 -6 1h1q-13 1 -83 1q-150 0 -193 -117
q-14 -40 -14 -90q0 -115 62 -183q21 -21 44 -33v30q-76 68 -76 183q0 126 88 167q35 15 79 16q-71 -46 -88 -145q-4 -24 -4 -49zM361 236q-12 -1 -21 -5q27 130 127 161q28 8 58 8h7q-17 -16 -17 -37q0 -30 29 -35q5 -1 9 -1q27 2 41 29q16 29 43 30q50 0 71 -53
q5 -12 7 -23h-116q-155 -1 -182 -99q-23 25 -56 25z" />
    <glyph glyph-name="si_Ndja" unicode="&#xda6;" horiz-adv-x="682" 
d="M528 304q-38 0 -46 43q-2 8 -2 17q0 17 3 32q7 1 21 1q61 0 71 -39q1 -6 1 -11q0 -32 -32 -41q-8 -2 -16 -2zM417 302q-3 14 -3 24q1 47 40 63q-1 -9 -1 -24q1 -37 19 -62q-10 1 -26 1q-14 0 -29 -2zM131 166q0 -118 143 -153q52 -13 116 -13q148 0 211 71q34 39 34 93
q-1 85 -75 119q45 15 46 62q0 54 -60 73q-19 6 -38 6q-12 0 -18 -1q16 43 50 75q22 21 80 51q32 18 33 31q-4 21 -25 23q-38 -1 -85 -44q-65 -61 -84 -140q-73 -20 -74 -96q0 -23 7 -45q4 0 15 1q24 3 38 3q117 0 144 -64q6 -14 6 -29q0 -87 -151 -103q-28 -3 -60 -3
q-157 0 -199 62q-13 20 -13 43q0 56 62 80q37 14 88 14q9 0 32 -2q4 17 4 38q0 73 -63 96q-13 5 -28 7q-16 2 -34 2q-150 0 -193 -117q-14 -40 -14 -90q0 -115 62 -183q21 -21 44 -33v30q-76 68 -76 183q0 128 89 168q10 4 19 7q-12 -14 -12 -35q0 -30 27 -38q5 -1 10 -1
q25 0 40 28q2 5 5 10q15 28 44 29q40 0 50 -41q2 -9 2 -17q0 -6 -2 -19q-10 1 -26 1q-107 0 -151 -69q-20 -32 -20 -70z" />
    <glyph glyph-name="si_Tta" unicode="&#xda7;" horiz-adv-x="588" 
d="M31 203q0 97 81 148q51 31 115 31q46 0 86 -16v-29q-39 19 -84 19q-86 0 -131 -54q-28 -35 -28 -80q0 -86 97 -122q47 -17 103 -17q138 0 199 88q35 51 35 124q0 103 -72 176q-68 69 -163 69q-119 0 -180 -81h-33q72 103 211 104q132 0 211 -101q66 -84 66 -197
q0 -127 -88 -203q-73 -63 -178 -63q-140 0 -207 84q-40 51 -40 120z" />
    <glyph glyph-name="si_Ttha" unicode="&#xda8;" horiz-adv-x="599" 
d="M32 190q0 -97 58 -152q40 -38 96 -38q64 1 110 58q45 -57 116 -58q106 0 146 117q17 51 17 110q-1 97 -61 201q-44 76 -121 135q-23 17 -43 28q-41 -48 -41 -114q0 -73 47 -104q23 -15 50 -15q61 1 86 51q38 -56 45 -139q1 -12 1 -23q0 -94 -54 -138q-33 -26 -77 -26
q-74 0 -92 54q-4 14 -4 29v35h-28v-35q0 -68 -72 -81q-13 -2 -27 -2q-68 0 -99 63q-15 31 -15 68q0 75 55 121q36 29 81 29h10v25q-35 0 -68 -11q-63 -22 -96 -94q-20 -44 -20 -94zM338 480q0 42 20 74q78 -58 115 -116q-14 -43 -60 -44q-74 2 -75 86z" />
    <glyph glyph-name="si_Dda" unicode="&#xda9;" horiz-adv-x="631" 
d="M15 280v28h239q-2 44 -35 65q-13 8 -26 8q-29 -2 -45 -27q-15 -24 -38 -24q-29 0 -36 25q-1 6 -1 10q0 38 51 52q19 5 37 5q91 0 118 -82q8 -28 9 -60h-72q-90 0 -120 -61q-10 -21 -10 -42q0 -55 49 -81q26 -13 59 -13q66 0 90 38q8 14 8 30v31h26v-31q0 -44 51 -62
q21 -6 43 -6q85 0 118 92q15 43 15 96q0 122 -79 201q-71 71 -175 71q-115 -1 -187 -86h-33q78 111 226 111q137 0 219 -103q68 -87 68 -213q0 -147 -69 -214q-40 -38 -97 -38q-68 0 -108 53q-2 3 -4 5q-48 -57 -112 -58q-90 0 -130 76q-19 38 -19 82q0 73 57 111
q10 6 20 11h-107z" />
    <glyph glyph-name="si_Ddha" unicode="&#xdaa;" horiz-adv-x="631" 
d="M15 280v28h237q-3 45 -37 66q-13 7 -25 7q-28 -2 -44 -27q-15 -24 -38 -24q-29 0 -36 25q-1 6 -1 10q0 39 52 52q17 5 35 5q91 0 118 -82q8 -28 9 -60h-69q-90 0 -120 -61q-10 -21 -10 -42q0 -55 49 -81q26 -13 59 -13q66 0 90 38q8 14 8 30v31h26v-31q0 -44 51 -62
q21 -6 43 -6q89 0 119 96q12 38 12 84q0 76 -41 149q-38 -57 -90 -58q-67 0 -92 60q-9 24 -9 52q0 61 40 122v1q88 -35 158 -131q75 -105 75 -214q0 -158 -80 -217q-37 -27 -88 -27q-66 0 -106 53q-3 3 -4 5q-48 -57 -112 -58q-90 0 -130 76q-19 38 -19 82q0 73 57 111
q10 6 20 11h-107zM340 470q2 -84 74 -85q43 1 70 54q-51 75 -114 110l-6 3q-21 -33 -24 -82z" />
    <glyph glyph-name="si_Nna" unicode="&#xdab;" horiz-adv-x="940" 
d="M21 174l11 -24q45 25 65 27q29 0 57 -42q39 -59 40 -61q60 -73 162 -74q128 0 185 98q2 4 4 7q20 -55 66 -67q10 -3 19 -3q42 1 67 31q7 -45 50 -61q16 -6 34 -6q89 0 109 109q4 26 4 56q0 112 -50 157q-22 19 -49 19q-62 0 -85 -60q-6 -17 -8 -35q-27 33 -72 34
q-35 -1 -63 -31q-13 88 -80 135q92 32 164 45q47 9 121 20q26 4 35 6q35 8 36 31q-2 29 -39 30q-51 0 -165 -40q-97 -34 -188 -72q-47 20 -100 20q-105 0 -156 -61q-29 -36 -29 -84q0 -10 1 -14q-94 -54 -146 -90zM195 283q0 64 67 96q39 18 87 18q39 0 66 -10
q-116 -50 -220 -108v4zM339 82q-87 0 -149 63l-17 17q-33 36 -52 40q-5 1 -9 1q8 4 23 13q26 14 38 21q22 -62 99 -78q19 -4 41 -4q42 0 70 14q46 21 52 68q1 6 1 12q0 47 -41 74q-13 9 -27 12q56 24 85 35q68 -51 72 -132q0 -87 -77 -130q-47 -26 -109 -26zM261 249
q1 -41 31 -66q-70 9 -91 62q-1 4 -2 7q10 5 30 16l42 21q-10 -18 -10 -40zM289 250q0 35 32 52q13 7 27 7q36 0 52 -33q6 -13 6 -26q0 -36 -32 -53q-13 -6 -26 -6q-35 0 -52 32q-7 13 -7 27zM629 66q-37 0 -56 44q-9 20 -10 43q5 21 7 46q23 46 59 51q64 -2 65 -92
q0 -73 -45 -89q-9 -3 -20 -3zM717 103v3q7 22 7 51q0 22 -3 38q6 101 55 102q45 0 50 -111v-21q0 -112 -40 -126q-8 -3 -16 -3q-42 0 -51 44q-2 11 -2 23z" />
    <glyph glyph-name="si_Nndda" unicode="&#xdac;" horiz-adv-x="713" 
d="M100 280h107q-65 -28 -76 -102q-1 -10 -1 -20q0 -81 55 -126q39 -32 94 -32q66 1 112 58q37 -51 91 -57q11 -1 21 -1q103 0 145 116q21 60 21 136q0 151 -93 241q-79 75 -194 75q-149 -1 -226 -111h33q71 86 187 86q124 0 197 -96q56 -75 56 -176q0 -118 -62 -165
q-31 -23 -70 -23q-63 0 -86 39q-8 14 -8 29v31h-26v-31q0 -47 -56 -63q-20 -5 -41 -5q-69 0 -97 50q-12 21 -12 44q0 56 51 85q32 18 79 18h72q-2 111 -85 136q-1 1 -2 1q-21 6 -53 6q-150 0 -193 -117q-14 -40 -14 -90q0 -115 62 -183q21 -21 44 -33v30q-76 68 -76 183
q0 126 89 168q10 5 20 8q-7 -13 -7 -24q0 -28 27 -34q5 -1 10 -1q24 1 38 24q17 27 45 27q32 0 51 -37q9 -17 10 -36h-239v-28z" />
    <glyph glyph-name="si_Ta" unicode="&#xdad;" horiz-adv-x="687" 
d="M21 24q15 115 101 234q18 24 34 42q18 22 19 40q-3 36 -28 38q-28 -2 -30 -31q-4 -58 -43 -59q-29 0 -37 32q-1 7 -1 14q0 49 42 76q22 13 46 13q55 0 72 -46q5 -15 5 -30q0 -5 -1 -8q78 86 213 86q117 0 184 -85q51 -66 51 -159q0 -103 -60 -153q-34 -29 -81 -29
q-37 0 -63 14v29q25 -14 51 -14q60 0 82 65q8 25 8 53q0 102 -78 167q-65 53 -154 53q-102 -1 -157 -67q31 13 78 13q113 0 155 -75q19 -34 19 -79q0 -87 -69 -131q-44 -29 -104 -29q-89 0 -137 46q-26 26 -33 29q-9 4 -18 4q-30 -2 -44 -68zM74 109q11 8 32 8q13 0 60 -17
q44 -16 84 -16q124 0 147 74q5 15 5 32q0 59 -62 86q-30 13 -64 13q-76 -1 -123 -35q-50 -63 -79 -145z" />
    <glyph glyph-name="si_Tha" unicode="&#xdae;" horiz-adv-x="599" 
d="M32 229q0 87 74 145q59 46 133 46v-24q-84 0 -135 -60q-35 -42 -35 -95q0 -111 125 -145q47 -13 104 -13q112 0 174 74q44 52 44 124t-35 128q-25 -50 -85 -51q-61 0 -87 61q-11 27 -11 58q1 67 41 114q72 -39 136 -121q16 -22 28 -42q47 -81 50 -168v-14
q0 -120 -91 -191q-73 -56 -174 -56q-123 0 -196 77q-60 63 -60 153zM327 480q2 -85 75 -86q46 2 60 44q-40 62 -114 116q-21 -32 -21 -74z" />
    <glyph glyph-name="si_Da" unicode="&#xdaf;" horiz-adv-x="445" 
d="M30 165q2 144 188 145h116q-12 60 -58 73q-10 3 -20 3q-28 -1 -43 -30q-15 -28 -41 -29q-34 6 -38 36q0 37 48 53q21 7 45 7q93 0 127 -80q10 -25 16 -57h-119q-125 0 -131 -106v-11q0 -75 61 -116q36 -24 79 -24q59 0 110 56q2 3 4 5l23 -17q-52 -61 -68 -90
q-24 -44 -24 -83q0 -71 71 -97q11 -4 23 -7v-28q-26 -5 -53 -5q-83 2 -102 68q-4 15 -4 31q1 58 71 148q-36 -11 -82 -11q-130 0 -178 83q-21 37 -21 83z" />
    <glyph glyph-name="si_Dha" unicode="&#xdb0;" horiz-adv-x="623" 
d="M32 190q0 -97 58 -152q40 -38 96 -38q64 1 110 58q45 -57 116 -58q108 0 147 131q16 56 16 124q0 144 -92 234q-80 77 -191 77q-145 -1 -229 -109h32q78 86 192 86q116 0 188 -87q61 -74 61 -175q0 -115 -55 -168q-31 -30 -75 -30q-75 0 -91 55q-4 13 -4 28v35h-28v-35
q0 -69 -72 -81q-13 -2 -26 -2q-67 0 -99 60q-17 32 -17 70q0 75 55 121q37 30 82 30h10v25q-35 0 -68 -11q-63 -22 -96 -94q-20 -44 -20 -94z" />
    <glyph glyph-name="si_Na" unicode="&#xdb1;" horiz-adv-x="787" 
d="M25 131q22 -10 38 -10q32 0 59 39q4 7 14 24q36 57 66 87q18 19 18 47q-7 55 -47 60q-35 0 -40 -36v-5q-2 -42 -34 -47q-4 -1 -7 -1q-29 0 -36 30q-2 7 -2 14q0 46 39 72q25 16 57 16q68 0 90 -59q7 -19 7 -40q0 -8 -2 -14q61 72 160 102q45 13 89 13q117 0 189 -80
q59 -68 59 -164q0 -107 -71 -156q-35 -24 -76 -24q-43 0 -69 20v29q28 -22 61 -22q51 0 75 54q12 28 12 64q0 112 -97 173q-65 40 -145 40q-109 -1 -171 -69q37 13 76 13q78 0 122 -56q27 -36 27 -80q0 -106 -104 -147q-50 -19 -112 -19q-175 0 -234 108q-6 11 -11 24z
M108 109q62 -27 147 -27q127 0 167 63q14 22 14 48q0 50 -53 72q-25 11 -54 11q-98 0 -145 -65q-9 -12 -24 -38q-29 -50 -52 -64z" />
    <glyph glyph-name="si_Nda" unicode="&#xdb3;" horiz-adv-x="515" 
d="M112 165q0 -100 86 -142q48 -24 113 -24q47 0 82 11q-71 -91 -71 -148q0 -72 65 -92q19 -6 41 -7q28 0 53 5v28q-80 21 -92 79q-2 12 -2 25q0 67 78 156q2 3 6 7q6 7 8 10l-23 17q-56 -59 -114 -61q-70 0 -112 55q-27 38 -27 85q0 107 107 116q12 1 23 1h119
q-24 120 -132 134q-9 2 -18 2q-32 3 -51 3q-175 0 -215 -133q-10 -35 -10 -76q0 -115 62 -183q21 -21 44 -33v30q-76 68 -76 183q0 160 146 180q8 1 15 2q-12 -14 -12 -32q0 -30 29 -35q5 -1 9 -1q27 2 41 29q16 27 42 28q47 0 75 -41q11 -16 15 -33h-116q-187 -2 -188 -145
z" />
    <glyph glyph-name="si_Pa" unicode="&#xdb4;" horiz-adv-x="601" 
d="M30 180q0 94 89 126q37 13 83 13q11 0 36 -2v5q1 4 1 6q0 44 -38 55q-8 2 -16 2q-38 -1 -48 -33q-11 -30 -44 -32q-32 0 -38 27q-1 4 -1 9q0 44 55 61q21 7 45 7q93 0 111 -68q4 -15 4 -30q0 -18 -4 -35q-5 1 -12 1.5l-14 1t-13 1t-10 0.5h-4q-105 0 -133 -58
q-7 -16 -7 -35q0 -79 119 -107q50 -12 109 -12q121 0 183 49q37 31 38 75q0 69 -87 86q-23 4 -49 4q-31 0 -69 -7q-3 17 -3 30q0 79 74 98q19 5 42 5q66 0 91 -45q8 -16 8 -32q-1 -31 -26 -50q58 -36 59 -114q0 -115 -123 -160q-60 -22 -138 -22q-208 0 -257 112
q-13 31 -13 68zM345 328q0 -8 1 -11q26 3 48 3q52 0 84 -12q15 16 15 35q0 35 -40 48q-15 4 -31 4q-54 0 -72 -40q-5 -13 -5 -27z" />
    <glyph glyph-name="si_Pha" unicode="&#xdb5;" horiz-adv-x="566" 
d="M32 161q0 -109 118 -146q48 -15 108 -15q156 0 225 106q38 58 38 133q0 88 -42 165q-5 8 -9 16q-44 76 -121 135q-23 17 -43 28q-41 -48 -41 -114q0 -73 48 -104q22 -14 49 -14q62 1 86 51q38 -58 38 -134q0 -118 -103 -163q-52 -22 -122 -22q-143 0 -178 62q-9 17 -9 37
q0 66 78 87q29 8 64 8h58v13q0 78 -53 113q-29 19 -68 19q-67 0 -93 -39q-9 -15 -9 -32q0 -29 27 -35q4 -1 8 -1q28 2 39 32q16 37 53 38q36 0 56 -38q9 -19 9 -39v-6h-18q-176 0 -192 -118q-1 -12 -1 -23zM295 474q0 43 19 72q76 -56 115 -116q-16 -40 -59 -42
q-66 0 -74 70q-1 8 -1 16z" />
    <glyph glyph-name="si_Ba" unicode="&#xdb6;" horiz-adv-x="604" 
d="M99 74q0 -28 26 -43q11 -5 21 -5q28 0 43 27q5 11 5 21q0 28 -27 43q-11 5 -21 5q-28 0 -42 -27q-5 -11 -5 -21zM32 183q0 112 83 169q53 35 124 35q94 0 141 -56q29 -33 29 -78q0 -67 -52 -95q-6 -4 -20 -10q-34 -15 -40 -31q-2 -6 -2 -13q2 -33 44 -34q81 0 133 91
q41 71 41 153q0 129 -89 192q-57 41 -139 41q-135 -1 -192 -88h-31q45 92 174 109q24 3 49 3q156 0 229 -114q48 -74 48 -180q0 -149 -69 -225q-49 -54 -121 -54q-68 0 -96 50q-12 21 -12 47q0 43 41 67q40 22 41 22q21 18 22 46q0 49 -75 66q-29 7 -62 7q-93 0 -139 -60
q-29 -38 -29 -90q0 -38 12 -64q5 42 45 56q13 4 26 4q45 0 68 -38q10 -17 10 -36q0 -48 -43 -68q-17 -8 -35 -8q-74 0 -102 94q-12 41 -12 90z" />
    <glyph glyph-name="si_Bha" unicode="&#xdb7;" horiz-adv-x="654" 
d="M6 264q29 6 116 7q-73 -44 -74 -120q0 -88 72 -129q40 -23 92 -23q96 0 139 64q22 35 22 79q0 63 -38 84q-13 6 -26 6q-18 -1 -29 -7q32 119 132 120q83 0 119 -77q17 -39 17 -85q0 -88 -64 -131q-38 -26 -89 -26q-24 0 -36 2v-26q21 -3 40 -3q103 0 163 76q44 57 44 131
q0 112 -63 173q-45 43 -107 43q-80 0 -136 -84q-45 -66 -51 -150l22 -9q11 28 33 29q25 0 31 -30q1 -7 1 -13q0 -56 -66 -75q-24 -7 -50 -7q-86 0 -118 49q-13 21 -13 46q0 56 65 82q32 13 68 13q16 0 27 -2q-1 90 -55 131q-28 20 -63 20q-56 0 -77 -42q-6 -13 -6 -25
q5 -34 34 -37q26 1 39 29q11 25 37 26q36 0 52 -42q7 -17 7 -35h-5h-4h-202v-32z" />
    <glyph glyph-name="si_Ma" unicode="&#xdb8;" horiz-adv-x="617" 
d="M258 344q0 -30 28 -44q10 -4 20 -4q30 0 44 28q4 10 4 20q0 30 -28 44q-10 4 -20 4q-30 0 -44 -28q-4 -10 -4 -20zM32 244q0 88 46 142q33 35 74 36q52 -1 52 -57q0 -12 -2 -29q-3 -22 -3 -39q0 -59 57 -77q18 -5 37 -5q70 0 92 54q7 17 7 39q0 30 -14 49q2 -11 2 -22
q0 -43 -38 -62q-16 -8 -36 -8q-49 0 -70 45q-8 17 -8 33q0 48 43 70q19 9 40 9q71 0 98 -62q12 -26 12 -59q0 -67 -58 -100q-31 -17 -68 -17q-73 0 -107 46q-19 26 -19 60q0 7 6 61q1 10 1 18q-2 25 -26 26q-44 0 -67 -57q-12 -32 -12 -69q0 -114 102 -162q55 -26 127 -26
q121 0 185 83q45 59 45 141q0 106 -74 178q-67 63 -160 63q-121 -1 -188 -88h-32q64 97 182 112q19 2 37 2q120 0 201 -89q75 -83 75 -198q0 -161 -105 -237q-68 -48 -163 -48q-153 0 -225 96q-46 62 -46 148z" />
    <glyph glyph-name="si_Mba" unicode="&#xdb9;" horiz-adv-x="621" 
d="M29 223q0 -107 57 -172q46 -51 113 -51q33 1 63 16q1 18 -5 34q-1 7 -5 19q-7 25 -7 39q0 41 33 57q12 5 25 5q40 0 53 -39q4 -12 4 -23q0 -14 -12 -60q-5 -18 -4 -32q31 -16 62 -16q89 0 137 97q33 67 33 151q0 153 -89 242q-77 75 -194 75q-148 0 -223 -98
q-5 -6 -9 -12h31q62 78 168 86q16 1 31 1q129 0 198 -100q47 -69 47 -159q0 -95 -46 -160q-32 -42 -69 -43q-24 0 -34 8q2 9 2 27q-2 63 -59 80q-13 4 -27 4q-50 0 -74 -39q-11 -20 -12 -45q0 -19 2 -27q-11 -8 -34 -8q-70 0 -104 77q-19 44 -19 96q0 73 35 118q21 24 45 25
q26 -2 26 -33v-28q0 -73 62 -101q27 -12 58 -12q74 0 104 51q14 23 14 50q0 64 -47 90q-21 11 -45 11q-49 0 -68 -40q-7 -16 -7 -32q0 -42 36 -61q16 -9 36 -9q43 0 63 35q1 2 2 3q1 -3 1 -4q0 -41 -45 -58q-20 -8 -44 -8q-65 0 -87 47q-7 17 -7 36v29q-1 38 -18 51
q-14 9 -31 9q-61 0 -94 -80q-22 -53 -22 -119zM268 354q0 30 27 42q8 4 18 4q30 0 42 -28q4 -8 4 -18q0 -29 -28 -41q-8 -4 -18 -4q-30 0 -42 28q-3 8 -3 17z" />
    <glyph glyph-name="si_Ya" unicode="&#xdba;" horiz-adv-x="621" 
d="M29 181q0 110 76 165q48 34 113 34q10 0 27 -2v-28q-17 3 -31 3q-81 0 -124 -61q-24 -35 -24 -79q0 -84 62 -116q27 -14 60 -14q60 0 87 35q13 17 13 37v28h26v-27q0 -47 60 -66q24 -7 51 -7q89 0 109 70q5 16 5 34q-2 105 -141 106q-44 0 -84 -11q-1 8 -1 21
q0 99 89 117q18 3 38 3q84 0 102 -51q3 -11 3 -23q0 -36 -30 -51q-4 -1 -6 -2q63 -37 69 -120v-13q0 -90 -64 -136q-38 -28 -88 -28q-95 1 -126 70q-34 -69 -118 -70q-93 0 -133 84q-20 44 -20 98zM342 312q21 5 58 5q54 0 84 -10q21 11 22 35q0 31 -41 42q-12 3 -25 3
q-93 -2 -98 -75z" />
    <glyph glyph-name="si_Ra" unicode="&#xdbb;" horiz-adv-x="515" 
d="M30 208q1 141 138 199q15 6 49 19q115 41 175 85q20 15 56 57q23 25 40 26q25 -2 26 -21q0 -40 -80 -86q-1 -1 -2 -1q-75 -41 -148 -62q78 -4 136 -67q51 -58 51 -137q0 -100 -75 -165q-64 -55 -154 -55q-105 0 -167 75q-45 57 -45 133zM67 235q0 -84 66 -125
q42 -26 99 -26q96 0 148 67q35 45 35 104q0 93 -78 129q-36 17 -80 17q-80 0 -139 -54q-50 -48 -51 -112z" />
    <glyph glyph-name="si_La" unicode="&#xdbd;" horiz-adv-x="654" 
d="M30 132q0 -158 127 -233q82 -49 196 -49q123 0 197 73q59 59 59 145v14h-33q4 -8 4 -18q0 -96 -89 -143q-51 -26 -111 -26q-135 0 -208 93q-54 70 -54 171q0 112 84 180q69 55 164 55q159 0 190 -74q6 -16 6 -33q0 -59 -58 -73q-14 -3 -29 -3q-55 0 -79 33q-9 13 -9 27v4
h119v26h-247v-26h100q0 -70 59 -98q26 -12 56 -12q71 0 105 49q18 26 18 59q0 101 -126 135q-52 14 -116 14q-170 0 -259 -101q-66 -75 -66 -189z" />
    <glyph glyph-name="si_Va" unicode="&#xdc0;" 
d="M32 161q0 -107 118 -145q49 -16 111 -16q164 0 234 114q40 65 40 154q0 136 -85 221q-74 74 -180 74q-141 -1 -214 -104h32q67 81 182 81q107 0 173 -84q54 -68 54 -160q0 -136 -107 -188q-54 -25 -126 -25q-144 0 -181 60q-10 18 -10 39q0 59 65 82q28 9 61 9h86v10
q0 107 -81 133q-22 6 -47 6q-67 0 -93 -39q-9 -15 -9 -32q0 -30 28 -36q4 -1 8 -1q26 1 38 33q11 29 35 35q10 2 21 2q41 0 59 -41q9 -19 9 -42v-4h-59q-105 0 -145 -68q-17 -31 -17 -68z" />
    <glyph glyph-name="si_Sha" unicode="&#xdc1;" horiz-adv-x="616" 
d="M33 201q0 -114 65 -169q40 -33 95 -33q86 0 124 66q18 32 18 70q0 86 -60 99q-10 2 -19 2q-13 0 -22 -4q13 74 75 105q29 14 62 14q79 0 121 -79q23 -45 25 -99q-20 7 -45 7q-71 0 -101 -54q-13 -25 -13 -53q0 -46 31 -67q13 -9 28 -9q21 0 45 18q12 9 21 9q11 -2 12 -10
q-1 -6 -5 -13h27q33 42 47 138q4 28 4 52q0 113 -61 180q-47 51 -117 51q-148 0 -182 -197q-3 -19 -5 -37h25q0 2 1 6q1 9 2 12q10 7 23 7q41 -9 45 -53q0 -51 -56 -71q-22 -7 -45 -7q-82 0 -115 76q-14 35 -14 74q0 96 71 141q39 25 92 25h13v23h-7q-7 1 -9 1
q-111 0 -164 -91q-32 -56 -32 -130zM389 77q0 50 44 69q18 8 38 8q29 0 47 -9v-25q-5 -54 -13 -78q-5 9 -18 10q-9 0 -37 -17q-16 -9 -27 -9q-31 6 -34 51z" />
    <glyph glyph-name="si_Ssa" unicode="&#xdc2;" horiz-adv-x="588" 
d="M30 180q0 -140 170 -172q46 -8 100 -8q153 0 222 75q39 44 39 107q-1 79 -59 114q26 20 26 50q0 42 -42 64q-25 13 -57 13q-90 0 -111 -67q-5 -17 -5 -36q0 -14 3 -30q39 7 69 7q39 0 69 -9q-30 -22 -74 -29q-35 -7 -99 -7q-112 -1 -113 -55q0 -52 97 -59q12 -1 24 -1
q132 1 133 59q-1 27 -32 42q55 10 90 38q41 -24 42 -72q0 -74 -105 -106q-54 -17 -118 -17q-134 0 -194 52q-32 30 -33 69q0 74 96 90q20 3 44 3q17 0 53 -4q4 17 4 35q0 78 -78 94q-17 4 -37 4q-67 0 -91 -38q-9 -14 -9 -30q0 -28 29 -35q5 -1 10 -1q35 1 45 32
q10 32 46 33q42 0 52 -37q3 -10 3 -20q0 -2 -1 -6v-5q-27 2 -36 2q-120 0 -158 -76q-14 -28 -14 -63zM345 328q0 49 49 63q14 4 28 4q53 0 67 -36q3 -8 3 -16q-1 -20 -15 -35q-33 12 -83 12q-23 0 -48 -3q-1 5 -1 11zM197 198q2 33 94 33q101 -1 102 -35q0 -29 -81 -34h-20
q-94 1 -95 36z" />
    <glyph glyph-name="si_Sa" unicode="&#xdc3;" horiz-adv-x="661" 
d="M50 150q0 -73 54 -118q40 -33 94 -33q93 1 127 81q32 -79 124 -80q103 0 144 76q20 37 20 86q0 68 -49 110q-13 11 -27 18q24 21 28 52q0 63 -68 77q-15 3 -32 3q-74 0 -105 -66q-15 -32 -15 -72v-10q48 9 94 9q131 -2 132 -98q0 -64 -58 -90q-27 -12 -58 -12
q-86 0 -109 46q-6 13 -6 28v27h-27v-27q0 -47 -54 -66q-23 -8 -49 -8q-71 0 -103 48q-14 22 -14 47q0 61 65 87q28 11 57 11h91v13q0 87 -61 119q-27 14 -62 14q-67 0 -93 -38q-10 -16 -10 -33q0 -29 27 -35q4 -1 8 -1q28 1 39 31q13 34 43 38q6 1 12 1q36 0 57 -39
q10 -20 10 -42q0 -2 -1 -3h-270v-32q28 5 130 7q-76 -29 -84 -109q-1 -9 -1 -17zM374 303q8 78 85 79q54 0 65 -32q2 -7 2 -13q-1 -23 -14 -38q-31 10 -77 10q-39 0 -61 -6z" />
    <glyph glyph-name="si_Ha" unicode="&#xdc4;" horiz-adv-x="637" 
d="M32 151q0 -88 72 -129q40 -23 92 -23q96 0 139 64q22 35 22 79q0 63 -38 84q-13 6 -26 6q-17 -1 -28 -7q32 119 131 120q83 0 119 -77q17 -39 17 -85q0 -88 -64 -131q-38 -26 -89 -26q-23 0 -35 2v-26q21 -3 40 -3q103 0 163 76q44 57 44 131q0 112 -64 173
q-45 43 -107 43q-80 0 -136 -84q-45 -66 -51 -150l23 -9q11 28 32 29q25 0 31 -30q1 -7 1 -13q0 -56 -66 -75q-24 -7 -50 -7q-85 0 -117 48q-14 21 -14 47q0 70 75 89q24 6 52 6q10 0 33 -2q-1 90 -55 131q-28 20 -63 20q-56 0 -77 -42q-6 -13 -6 -25q5 -34 34 -37
q28 1 39 29q13 25 37 26q36 0 52 -42q7 -17 7 -35h-12q-94 0 -135 -66q-22 -35 -22 -79z" />
    <glyph glyph-name="si_Lla" unicode="&#xdc5;" horiz-adv-x="621" 
d="M253 395q41 0 63 -39q9 -18 9 -34h30q0 36 35 59q21 13 44 13q65 0 87 -60q8 -21 8 -44h-354q-11 0 -16 -1q5 79 61 100q16 6 33 6zM30 111q0 -140 114 -211q80 -49 191 -49q106 0 187 62q81 65 82 159h-27q-2 -85 -82 -134q-56 -35 -125 -35q-125 0 -202 81
q-63 66 -63 161q0 48 22 78q16 -102 96 -152q47 -29 103 -29q137 0 181 106q5 11 8 22h-29q-41 -61 -156 -61q-92 0 -140 63q-26 35 -31 80q21 12 46 12h357q0 106 -66 143q-27 15 -61 15q-55 0 -85 -40q-6 -7 -9 -14q-30 49 -87 54q-70 0 -107 -62q-21 -35 -24 -81
q-62 -29 -85 -112q-8 -29 -8 -56z" />
    <glyph glyph-name="si_Fa" unicode="&#xdc6;" horiz-adv-x="592" 
d="M32 207q0 111 55 172q39 42 95 42q77 -1 107 -70q31 69 107 70q90 0 129 -99q21 -52 21 -115q0 -104 -53 -165q-39 -42 -93 -43q-19 0 -37 7v25q17 -6 33 -6q64 0 95 71q17 40 17 90q0 111 -63 143q-22 11 -48 11q-79 0 -90 -73q-2 -10 -2 -22v-36h-32v36q0 84 -75 94
q-8 1 -17 1q-86 0 -106 -101q-5 -25 -5 -54q0 -94 52 -138q28 -22 61 -22q16 0 32 6v-25q-19 -7 -37 -7q-84 0 -124 93q-22 53 -22 115z" />
    <glyph glyph-name="si_Halant" unicode="&#xdca;" horiz-adv-x="1" 
d="M-137 340v325q13 -10 71 -38q57 -27 70 -63q6 -16 6 -35q0 -46 -42 -65q-16 -7 -34 -7q-23 0 -44 10v-144zM-110 491q13 -7 32 -7q41 0 49 37q1 6 1 11q0 35 -44 66q-8 5 -38 25v-132z" />
    <glyph glyph-name="si_MatraAa" unicode="&#xdcf;" horiz-adv-x="294" 
d="M12 107q0 15 1 22h27q-1 -6 -1 -15q0 -64 49 -72q6 -1 12 -1q72 1 76 137v18q-1 155 -76 156q-39 0 -55 -39q-6 -16 -6 -35q0 -9 1 -14h-27q-1 8 -1 21q0 66 55 96q25 13 53 13q105 0 128 -127q6 -33 6 -71q0 -171 -103 -194q-15 -3 -31 -3q-73 0 -98 59q-10 22 -10 49z
" />
    <glyph glyph-name="si_MatraAe" unicode="&#xdd0;" horiz-adv-x="326" 
d="M3 306v25h240q-1 -4 -3 -16q-86 -130 -86 -258q0 -108 73 -138q14 -5 30 -7q16 -1 38 2l4 -18q-36 -40 -99 -40q-82 0 -112 81q-13 35 -13 78q0 130 109 266q11 13 21 25h-202z" />
    <glyph glyph-name="si_MatraAae" unicode="&#xdd1;" horiz-adv-x="328" 
d="M4 307v24h239v-21l-124 -92h147v-22q-71 -51 -96 -123q-9 -29 -9 -56q0 -96 94 -116q21 -4 44 -4v-24q-39 -18 -79 -18q-95 0 -127 71q-12 28 -12 61q1 109 147 207h-158v20l129 93h-195z" />
    <glyph glyph-name="si_MatraI" unicode="&#xdd2;" horiz-adv-x="1" 
d="M-532 506q0 95 110 132q52 17 116 17q133 0 193 -63q34 -36 34 -86q0 -75 -82 -101q-27 -8 -58 -9v20q77 4 96 51q4 12 4 24q0 69 -144 79q-21 2 -43 2q-157 0 -183 -59q-4 -11 -4 -22q0 -54 68 -70q15 -4 32 -5v-20q-98 4 -128 63q-11 22 -11 47z" />
    <glyph glyph-name="si_MatraIi" unicode="&#xdd3;" horiz-adv-x="1" 
d="M-244 502q0 -32 34 -48q14 -7 30 -7q39 0 58 30q7 13 7 25q0 33 -35 48q-15 7 -30 7q-40 0 -58 -31q-6 -12 -6 -24zM-573 505q0 90 110 129q60 21 135 21q126 0 197 -52q49 -37 50 -91q0 -55 -49 -81q-23 -12 -50 -12q-58 0 -84 45q-11 19 -11 39q1 47 42 68q-28 8 -97 8
q-138 0 -186 -50q-19 -19 -19 -45q2 -54 56 -68l-6 -20q-56 5 -79 60q-9 23 -9 49z" />
    <glyph glyph-name="si_MatraU" unicode="&#xdd4;" horiz-adv-x="1" 
d="M-580 -145q0 59 50 84q22 11 47 11q67 -1 93 -57l-30 -12q-17 39 -59 40q-45 0 -61 -35q-6 -13 -6 -26q2 -52 80 -53h379v318l32 89v-443h-417q-82 0 -103 54q-5 14 -5 30z" />
    <glyph glyph-name="si_MatraUu" unicode="&#xdd6;" horiz-adv-x="1" 
d="M-568 -143q0 56 49 83q23 13 50 13q64 -1 95 -50l-30 -10q-21 32 -60 33q-45 0 -62 -34q-6 -12 -6 -24q0 -40 43 -53q13 -4 27 -4q39 0 121 33q85 34 135 34q63 0 107 -39q6 -6 10 -11v313l32 58v-432h-23q-22 50 -71 73q-25 11 -51 11q-43 0 -119 -41t-115 -47
q-13 -2 -24 -2q-66 0 -94 45q-14 23 -14 51z" />
    <glyph glyph-name="si_MatraR" unicode="&#xdd8;" horiz-adv-x="305" 
d="M32 243v-7h25v4q0 89 52 104q9 2 18 2q61 -2 61 -129q-54 0 -91 -17q-64 -28 -65 -96q0 -58 42 -89q23 -16 51 -16q17 0 55 15q7 3 11 3q10 -2 15 -14h37q-1 7 -1 19q0 11 6 59q11 83 11 117q0 124 -60 168q-26 18 -58 18q-74 0 -99 -77q-10 -29 -10 -64zM62 104
q1 59 58 77q27 9 68 9v-9v-25q-1 -27 -1 -43q0 -58 4 -74q-5 3 -8 2q-4 0 -17 -5q-25 -9 -39 -9q-41 0 -59 43q-6 17 -6 34z" />
    <glyph glyph-name="si_MatraE" unicode="&#xdd9;" horiz-adv-x="612" 
d="M227 245q0 -29 31 -42q12 -4 23 -4q35 0 49 28q5 9 5 18q0 29 -31 42q-12 4 -23 4q-35 0 -49 -28q-5 -8 -5 -18zM32 207q0 105 95 168q72 47 167 47q127 0 208 -79q60 -60 68 -142h-28q-16 101 -107 156q-63 37 -141 37q-104 0 -167 -57q-46 -43 -47 -100q0 -77 69 -123
q50 -32 114 -32q103 0 150 51q24 27 24 63q0 55 -56 81q-16 7 -32 10q18 -20 18 -46q0 -46 -47 -65q-18 -7 -38 -7q-50 0 -75 37q-12 17 -12 37q0 47 50 68q23 9 49 9q107 0 157 -66q28 -37 28 -88q0 -97 -89 -140q-53 -26 -127 -26q-119 0 -184 76q-47 55 -47 131z" />
    <glyph glyph-name="si_MatraEe" unicode="&#xdda;" horiz-adv-x="950" 
d="M227 245q0 -29 31 -42q12 -4 23 -4q35 0 49 28q5 9 5 18q0 29 -31 42q-12 4 -23 4q-35 0 -49 -28q-5 -8 -5 -18zM32 207q0 105 95 168q72 47 167 47q127 0 208 -79q60 -60 68 -142h-28q-16 101 -107 156q-63 37 -141 37q-104 0 -167 -57q-46 -43 -47 -100q0 -77 69 -123
q50 -32 114 -32q103 0 150 51q24 27 24 63q0 55 -56 81q-16 7 -32 10q18 -20 18 -46q0 -46 -47 -65q-18 -7 -38 -7q-50 0 -75 37q-12 17 -12 37q0 47 50 68q23 9 49 9q107 0 157 -66q28 -37 28 -88q0 -97 -89 -140q-53 -26 -127 -26q-119 0 -184 76q-47 55 -47 131zM753 340
v325q13 -10 71 -38q57 -27 70 -63q6 -16 6 -35q0 -46 -42 -65q-16 -7 -34 -7q-23 0 -44 10v-144zM780 491q13 -7 32 -7q41 0 49 37q1 6 1 11q0 35 -44 66q-8 5 -38 25v-132z" />
    <glyph glyph-name="si_MatraAi" unicode="&#xddb;" horiz-adv-x="1182" 
d="M227 245q0 -29 31 -42q12 -4 23 -4q35 0 49 28q5 9 5 18q0 29 -31 42q-12 4 -23 4q-35 0 -49 -28q-5 -8 -5 -18zM32 207q0 105 95 168q72 47 167 47q127 0 208 -79q60 -60 68 -142h-28q-16 101 -107 156q-63 37 -141 37q-104 0 -167 -57q-46 -43 -47 -100q0 -77 69 -123
q50 -32 114 -32q103 0 150 51q24 27 24 63q0 55 -56 81q-16 7 -32 10q18 -20 18 -46q0 -46 -47 -65q-18 -7 -38 -7q-50 0 -75 37q-12 17 -12 37q0 47 50 68q23 9 49 9q107 0 157 -66q28 -37 28 -88q0 -97 -89 -140q-53 -26 -127 -26q-119 0 -184 76q-47 55 -47 131zM801 245
q0 -29 31 -42q12 -4 23 -4q35 0 49 28q5 9 5 18q0 29 -31 42q-12 4 -23 4q-35 0 -49 -28q-5 -9 -5 -18zM606 207q0 105 95 168q72 47 167 47q127 0 208 -79q60 -60 68 -142h-28q-16 101 -107 156q-63 37 -141 37q-104 0 -167 -57q-46 -43 -47 -100q0 -77 69 -123
q50 -32 114 -32q103 0 150 51q24 27 24 63q0 55 -56 81q-16 7 -32 10q18 -20 18 -46q0 -46 -47 -65q-18 -7 -38 -7q-50 0 -75 37q-12 17 -12 37q0 47 50 68q23 9 49 9q107 0 157 -66q28 -37 28 -88q0 -97 -89 -140q-53 -26 -127 -26q-119 0 -184 76q-47 55 -47 131z" />
    <glyph glyph-name="si_MatraO" unicode="&#xddc;" horiz-adv-x="1164" 
d="M227 245q0 -29 31 -42q12 -4 23 -4q35 0 49 28q5 9 5 18q0 29 -31 42q-12 4 -23 4q-35 0 -49 -28q-5 -8 -5 -18zM32 207q0 105 95 168q72 47 167 47q127 0 208 -79q60 -60 68 -142h-28q-16 101 -107 156q-63 37 -141 37q-104 0 -167 -57q-46 -43 -47 -100q0 -77 69 -123
q50 -32 114 -32q103 0 150 51q24 27 24 63q0 55 -56 81q-16 7 -32 10q18 -20 18 -46q0 -46 -47 -65q-18 -7 -38 -7q-50 0 -75 37q-12 17 -12 37q0 47 50 68q23 9 49 9q107 0 157 -66q28 -37 28 -88q0 -97 -89 -140q-53 -26 -127 -26q-119 0 -184 76q-47 55 -47 131zM862 107
q0 15 1 22h27q-1 -6 -1 -15q0 -64 49 -72q6 -1 12 -1q72 1 76 137v18q-1 155 -76 156q-39 0 -55 -39q-6 -16 -6 -35q0 -9 1 -14h-27q-1 8 -1 21q0 66 55 96q25 13 53 13q105 0 128 -127q6 -33 6 -71q0 -171 -103 -194q-15 -3 -31 -3q-73 0 -98 59q-10 22 -10 49z" />
    <glyph glyph-name="si_MatraOo" unicode="&#xddd;" horiz-adv-x="1068" 
d="M227 245q0 29 31 42q12 4 23 4q35 0 49 -28q5 -9 5 -18q0 -29 -31 -42q-12 -4 -23 -4q-35 0 -49 28q-5 8 -5 18zM32 207q0 -108 87 -167q61 -40 144 -40q142 0 194 84q22 36 22 82q0 94 -86 134q-43 20 -99 20q-62 0 -89 -41q-10 -17 -10 -36q0 -43 44 -64q21 -10 43 -10
q50 0 74 36q11 16 11 36q-1 27 -18 46q61 -12 81 -58q7 -16 7 -33q0 -72 -88 -101q-39 -13 -86 -13q-95 0 -149 63q-34 41 -34 92q0 80 83 125q58 32 131 32q117 0 190 -77q47 -50 58 -116h28q-10 108 -105 172q-74 49 -171 49q-119 0 -196 -70q-65 -60 -66 -145zM718 107
q0 -75 62 -100q21 -8 47 -8q106 0 128 128q6 32 6 69q-1 134 -65 178v93q21 -10 44 -10q48 0 68 39q8 15 8 33q0 56 -58 89q-10 6 -34 17q-39 18 -55 30v-277q-19 6 -42 6q-60 0 -91 -47q-18 -28 -18 -62q0 -14 1 -21h27q-1 6 -1 14q0 52 39 69q10 5 22 5q76 -2 76 -156
q0 -149 -71 -155h-5q-49 0 -59 52q-2 10 -2 21q0 10 1 15h-27q-1 -8 -1 -22zM896 491v132q56 -37 68 -51q15 -19 15 -40q0 -35 -32 -45q-9 -3 -19 -3q-20 0 -32 7z" />
    <glyph glyph-name="si_MatraAu" unicode="&#xdde;" horiz-adv-x="1102" 
d="M227 245q0 29 31 42q12 4 23 4q35 0 49 -28q5 -9 5 -18q0 -29 -31 -42q-12 -4 -23 -4q-35 0 -49 28q-5 8 -5 18zM32 207q0 -108 87 -167q61 -40 144 -40q142 0 194 84q22 36 22 82q0 94 -86 134q-43 20 -99 20q-62 0 -89 -41q-10 -17 -10 -36q0 -43 44 -64q21 -10 43 -10
q50 0 74 36q11 16 11 36q-1 27 -18 46q61 -12 81 -58q7 -16 7 -33q0 -72 -88 -101q-39 -13 -86 -13q-95 0 -149 63q-34 41 -34 92q0 80 83 125q58 32 131 32q117 0 190 -77q47 -50 58 -116h28q-10 108 -105 172q-74 49 -171 49q-119 0 -196 -70q-65 -60 -66 -145zM692 313
q0 -65 48 -93q22 -13 49 -13q63 0 83 43q6 15 6 31q-1 35 -36 54v7q2 51 50 52q69 -2 69 -162q0 -181 -60 -198q-7 -2 -15 -2q-52 0 -67 55q-5 17 -5 35q0 15 3 31h-25q-4 -17 -4 -36q0 -77 55 -107q24 -12 54 -12q101 0 134 115q13 46 13 102q0 125 -59 178q-32 29 -77 29
q-79 0 -91 -62q-2 -9 -2 -19q0 -8 1 -12q20 -22 20 -46q0 -39 -34 -47q-7 -2 -14 -2q-46 0 -62 47q-5 16 -5 33q1 68 42 104h-35q-36 -40 -36 -105z" />
    <glyph glyph-name="si_MatraLs" unicode="&#xddf;" horiz-adv-x="430" 
d="M32 313q0 -65 48 -93q22 -13 49 -13q63 0 83 43q6 15 6 31q-1 35 -36 54v7q2 51 50 52q69 -2 69 -162q0 -181 -60 -198q-7 -2 -15 -2q-52 0 -67 55q-5 16 -5 35q0 15 3 31h-25q-4 -17 -4 -36q0 -77 55 -107q24 -12 54 -12q101 0 134 115q13 46 13 102q0 125 -59 178
q-32 29 -77 29q-79 0 -91 -62q-2 -9 -2 -19q0 -8 1 -12q20 -22 20 -46q0 -39 -34 -47q-7 -2 -14 -2q-46 0 -62 47q-5 16 -5 33q1 68 42 104h-35q-36 -40 -36 -105z" />
    <glyph glyph-name="si_MatraRr" unicode="&#xdf2;" horiz-adv-x="557" 
d="M32 243v-7h25v4q0 89 52 104q9 2 18 2q61 -2 61 -129q-54 0 -91 -17q-64 -28 -65 -96q0 -58 42 -89q23 -16 51 -16q17 0 55 15q7 3 11 3q10 -2 15 -14h37q-1 7 -1 19q0 11 6 59q11 83 11 117q0 124 -60 168q-26 18 -58 18q-74 0 -99 -77q-10 -29 -10 -64zM62 104
q1 59 58 77q27 9 68 9v-9v-25q-1 -27 -1 -43q0 -58 4 -74q-5 3 -8 2q-4 0 -17 -5q-25 -9 -39 -9q-41 0 -59 43q-6 17 -6 34zM284 243v-7h25v4q0 88 51 103q8 3 18 3q62 -2 62 -129q-54 0 -91 -17q-64 -28 -65 -96q0 -58 42 -89q23 -16 51 -16q17 0 54 15q7 3 11 3
q10 -2 15 -14h38q-1 7 -1 19q0 11 6 59q11 83 11 117q0 124 -60 168q-26 18 -58 18q-76 0 -100 -79q-9 -29 -9 -62zM314 104q1 59 58 77q27 9 68 9v-9v-25q-1 -27 -1 -43q0 -58 4 -74q-5 3 -9 2q-3 0 -15 -5q-26 -9 -40 -9q-41 0 -59 43q-6 17 -6 34z" />
    <glyph glyph-name="si_MatraLl" unicode="&#xdf3;" horiz-adv-x="430" 
d="M32 313q0 -65 48 -93q22 -13 49 -13q63 0 83 43q6 15 6 31q-1 35 -36 54v7q2 51 50 52q69 -2 69 -162q0 -181 -60 -198q-7 -2 -15 -2q-52 0 -67 55q-5 16 -5 35q0 15 3 31h-25q-4 -17 -4 -36q0 -77 55 -107q24 -12 54 -12q101 0 134 115q13 46 13 102q0 125 -59 178
q-32 29 -77 29q-79 0 -91 -62q-2 -9 -2 -19q0 -8 1 -12q20 -22 20 -46q0 -39 -34 -47q-7 -2 -14 -2q-46 0 -62 47q-5 16 -5 33q1 68 42 104h-35q-36 -40 -36 -105z" />
    <glyph glyph-name="si_kundaliya" unicode="&#xdf4;" horiz-adv-x="1701" 
d="M1263 44l25 88l-145 -90l28 132l-152 -100l18 161l-154 -145l-14 172l-131 -145l-30 142l-128 -145l-27 109l-110 -146l-29 84l-61 -106q-19 31 -38 32q-28 0 -77 -37q-56 -42 -89 -49q-13 -3 -26 -3q-47 0 -66 36q-7 14 -7 30q0 42 34 55q10 3 19 3q33 0 45 -32
q4 -10 4 -19q-1 -26 -18 -40q6 -6 16 -6q26 0 83 48q59 48 83 53q5 1 10 1q25 -1 35 -18l78 136l34 -96l123 164l29 -118l133 153l30 -146l144 165l13 -187l170 157l-23 -187l163 104l-33 -138l140 89l-29 -86q13 8 31 8q26 0 85 -48q58 -48 82 -53q6 -1 10 -1q11 1 16 6
q-18 14 -18 40q0 32 27 46q11 5 22 5q37 0 49 -35q4 -11 4 -23q0 -44 -43 -61q-14 -5 -30 -5q-45 0 -106 45q-52 38 -73 44q-10 2 -19 2q-52 -1 -107 -45z" />
    <glyph glyph-name="zwnj" unicode="&#x200c;" horiz-adv-x="0" 
d="M-24 5v742h48v-742h-48z" />
    <glyph glyph-name="zwj" unicode="&#x200d;" horiz-adv-x="0" 
d="M32 640l121 -120l-32 -32l-97 98v-580h-48v580l-97 -98l-32 32l121 120l-121 119l32 31l121 -121l121 121l32 -31z" />
    <glyph glyph-name="short_dash2" unicode="&#x2010;" horiz-adv-x="335" 
d="M43 232h223v-45h-223v45z" />
    <glyph glyph-name="endash" unicode="&#x2013;" horiz-adv-x="666" 
d="M90 199h486v41h-486v-41z" />
    <glyph glyph-name="emdash" unicode="&#x2014;" horiz-adv-x="866" 
d="M90 199h686v41h-686v-41z" />
    <glyph glyph-name="quoteleft" unicode="&#x2018;" horiz-adv-x="192" 
d="M147 501q0 34 -35 48q-5 2 -9 3q-22 6 -23 18q1 28 43 72l-21 15q-62 -71 -66 -141q0 -57 43 -67q8 -2 16 -2q33 0 47 31q5 11 5 23z" />
    <glyph glyph-name="quoteright" unicode="&#x2019;" horiz-adv-x="202" 
d="M156 583q0 54 -40 66q-10 3 -19 3q-33 0 -47 -31q-5 -11 -5 -23q0 -37 38 -49l6 -2q22 -6 23 -18q-1 -28 -43 -72l21 -16q61 71 66 142z" />
    <glyph glyph-name="quotesinglbase" unicode="&#x201a;" horiz-adv-x="166" 
d="M138 42q0 54 -41 65q-8 2 -16 2q-34 0 -47 -30q-4 -11 -4 -21q0 -36 40 -49q2 -1 3 -1q22 -6 23 -18q-1 -22 -32 -60l22 -14q51 62 52 126z" />
    <glyph glyph-name="quotedblleft" unicode="&#x201c;" horiz-adv-x="305" 
d="M32 516q0 -53 38 -66q10 -3 20 -3q33 0 47 31q5 11 5 23q0 34 -33 47q-5 2 -10 3q-23 6 -24 18q1 28 43 72l-21 15q-63 -70 -65 -140zM168 516q0 -53 38 -66q10 -3 20 -3q34 0 47 32q4 11 4 22q0 35 -34 48q-5 1 -9 2q-22 6 -23 18q1 27 42 72l-20 15q-63 -68 -65 -140z
" />
    <glyph glyph-name="quotedblright" unicode="&#x201d;" horiz-adv-x="311" 
d="M277 554q0 53 -38 66q-10 3 -20 3q-33 0 -47 -31q-5 -11 -5 -23q0 -34 33 -47q5 -2 10 -3q23 -6 24 -18q-1 -28 -43 -72l21 -15q63 70 65 140zM141 554q0 53 -38 66q-10 3 -20 3q-34 0 -47 -32q-4 -11 -4 -22q0 -35 34 -48q5 -1 9 -2q22 -6 23 -18q-1 -27 -42 -72l20 -15
q63 68 65 140z" />
    <glyph glyph-name="quotedblbase" unicode="&#x201e;" horiz-adv-x="309" 
d="M277 41q0 53 -38 66q-10 3 -20 3q-33 0 -47 -31q-5 -11 -5 -23q0 -34 33 -47q5 -2 10 -3q23 -6 24 -18q-1 -28 -43 -72l21 -15q63 70 65 140zM141 41q0 53 -38 66q-10 3 -20 3q-34 0 -47 -32q-4 -11 -4 -22q0 -35 34 -48q5 -1 9 -2q22 -6 23 -18q-1 -27 -42 -72l20 -15
q63 68 65 140z" />
    <glyph glyph-name="dagger" unicode="&#x2020;" horiz-adv-x="463" 
d="M232 547q-36 -6 -40 -35q0 -9 17 -76q8 -32 11 -56q-16 2 -100 23q-22 5 -33 5q-33 -4 -35 -38q7 -35 36 -39q8 0 77 17q38 10 66 12q24 -2 111 -23q24 -6 35 -6q31 5 34 38q-3 37 -35 39q-8 0 -79 -17q-31 -8 -54 -11q2 15 22 98q6 23 6 35q-4 32 -39 34zM232 333
q-37 0 -43 -34q-1 -5 -1 -10q0 -8 12 -93q14 -106 19 -275h26q6 175 27 328q3 25 3 41q-5 40 -43 43z" />
    <glyph glyph-name="daggerdbl" unicode="&#x2021;" horiz-adv-x="461" 
d="M231 547q-36 -6 -40 -35q0 -9 17 -76q8 -32 11 -56q-16 2 -100 23q-22 5 -33 5q-33 -4 -35 -38q7 -35 36 -39q8 0 77 17q38 10 66 12q24 -2 111 -23q24 -6 35 -6q31 5 34 38q-3 37 -35 39q-8 0 -79 -17q-31 -8 -54 -11q2 15 22 98q6 23 6 35q-4 32 -39 34zM230 -66
q38 5 41 35q0 9 -17 76q-8 32 -11 56q16 -2 101 -23q22 -5 32 -5q31 5 34 38q-3 37 -35 39q-8 0 -77 -17q-39 -10 -66 -12q-25 2 -111 23q-24 6 -35 6q-33 -4 -35 -38q7 -35 36 -39q7 0 77 17q31 7 55 10q-2 -18 -22 -98q-6 -23 -6 -34q4 -32 39 -34zM284 241q0 35 -31 50
q-11 5 -23 5q-34 0 -49 -32q-5 -11 -5 -23q0 -34 31 -49q12 -5 23 -5q34 0 49 31q5 11 5 23z" />
    <glyph glyph-name="bullet" unicode="&#x2022;" horiz-adv-x="363" 
d="M272 228q0 53 -44 79q-22 13 -46 13q-51 0 -77 -43q-14 -23 -14 -49q0 -51 44 -77q22 -13 47 -13q50 0 77 43q13 22 13 47z" />
    <glyph glyph-name="ellipsis" unicode="&#x2026;" horiz-adv-x="597" 
d="M355 50q0 35 -31 50q-12 6 -24 6q-34 0 -49 -31q-6 -12 -6 -25q0 -35 32 -50q11 -5 23 -5q35 0 50 32q5 11 5 23zM551 50q0 35 -31 50q-12 6 -24 6q-34 0 -49 -31q-6 -13 -6 -25q0 -35 32 -50q11 -5 23 -5q35 0 50 32q5 11 5 23zM159 50q0 35 -31 50q-12 6 -24 6
q-34 0 -49 -31q-6 -13 -6 -25q0 -35 32 -50q11 -5 23 -5q35 0 50 32q5 11 5 23z" />
    <glyph glyph-name="perthousand" unicode="&#x2030;" horiz-adv-x="1177" 
d="M962 329q-88 0 -131 -69q-25 -42 -25 -98q0 -108 74 -152q35 -20 79 -20q90 0 133 72q24 41 24 97q0 113 -79 153q-34 17 -75 17zM961 10q-50 0 -64 62q-7 33 -7 87q0 123 42 144q13 6 29 6q49 0 63 -63q7 -32 7 -84q0 -141 -59 -151q-6 -1 -11 -1zM194 -30l435 640
l-31 21l-436 -641zM212 618q-88 0 -131 -69q-25 -42 -25 -98q0 -108 74 -152q35 -20 79 -20q90 0 133 72q24 41 24 97q0 113 -79 153q-34 17 -75 17zM211 299q-50 0 -64 62q-7 33 -7 87q0 123 42 144q13 6 29 6q49 0 63 -63q7 -32 7 -84q0 -141 -59 -151q-6 -1 -11 -1z
M595 329q-88 0 -131 -69q-25 -42 -25 -98q0 -108 74 -152q35 -20 79 -20q90 0 133 72q24 41 24 97q0 113 -79 153q-34 17 -75 17zM594 10q-50 0 -64 62q-7 33 -7 87q0 123 42 144q13 6 29 6q49 0 63 -63q7 -33 7 -84q0 -141 -59 -151q-6 -1 -11 -1z" />
    <glyph glyph-name="guilsinglleft" unicode="&#x2039;" horiz-adv-x="258" 
d="M232 378l-20 17q-27 -31 -135 -122q-31 -26 -41 -37q-13 -17 -13 -31q1 -19 13 -33q7 -8 95 -80q58 -47 85 -76l19 16q-102 146 -122 173q22 30 75 109q31 45 44 64z" />
    <glyph glyph-name="guilsinglright" unicode="&#x203a;" horiz-adv-x="258" 
d="M26 378l20 17q27 -31 135 -122q31 -26 41 -37q13 -17 13 -31q-1 -19 -13 -33q-7 -8 -95 -80q-58 -47 -85 -76l-19 16q102 146 122 173q-22 30 -75 109q-31 45 -44 64z" />
    <glyph glyph-name="fraction" unicode="&#x2044;" horiz-adv-x="147" 
d="M-118 -30l435 640l-31 21l-436 -641z" />
    <glyph glyph-name="Euro" unicode="&#x20ac;" horiz-adv-x="606" 
d="M558 107q0 35 -31 46q-10 3 -19 3q-40 0 -54 -37q-3 -7 -7 -22q-13 -47 -36 -63q-24 -16 -66 -16q-133 0 -147 230v2h217l9 29h-227v21v29h238l9 29h-245q10 186 107 217q23 7 50 7q69 0 87 -50q3 -9 8 -28q10 -41 26 -51q14 -8 33 -8q45 9 49 54q0 51 -65 85
q-53 26 -120 26q-171 0 -245 -134q-28 -53 -38 -118h-73l-9 -29h78q-1 -13 -1 -36v-14h-68l-9 -29h79q15 -142 109 -212q64 -48 152 -48q138 0 190 67q19 25 19 50z" />
    <glyph glyph-name="uni20BA" unicode="&#x20ba;" horiz-adv-x="572" 
d="M244 0q161 0 238 105q41 57 41 117q0 67 -42 73q-4 1 -7 1q-40 0 -48 -46q-3 -14 -5 -49q-4 -83 -26 -117q-39 -58 -143 -58h-20v286l205 75v31l-205 -76v51l205 76v31l-205 -76v150h80v26h-256v-26h80v-186l-104 -39v-30l104 39v-51l-104 -39v-30l104 38v-250h-80v-26
h188z" />
    <glyph glyph-name="uni20BD" unicode="&#x20bd;" horiz-adv-x="581" 
d="M330 0q0 23 -13 25q-5 1 -11 1h-96v160h147v29h-147v50h88q163 0 216 94q20 36 20 81q0 98 -86 139q-46 21 -110 21h-306v-26h82v-280h-82v-29h82v-50h-82v-29h82v-160h-82v-26h298zM309 574q91 0 114 -86q6 -24 6 -51q0 -130 -113 -142q-11 -1 -21 -1h-85v280h99z" />
    <glyph glyph-name="uni2113" unicode="&#x2113;" horiz-adv-x="378" 
d="M213 -12q100 2 132 107l-23 9q-39 -82 -89 -87q-62 0 -70 106q-1 19 -1 39v54q150 71 176 158q6 22 6 46q0 81 -64 116q-29 16 -63 16q-91 0 -125 -76q-15 -36 -15 -81v-184q-9 -3 -28 -10l-24 -9l7 -27q4 1 45 16q1 -192 136 -193zM162 390q0 120 38 134q8 2 15 2
q44 -2 44 -99q0 -82 -18 -114q-22 -36 -79 -65v142z" />
    <glyph glyph-name="trademark" unicode="&#x2122;" horiz-adv-x="572" 
d="M193 363q-2 13 -13 14h-23v209h5q28 0 38 -24q1 -2 4 -11l13 -35h15l-2 84h-206l-2 -84h15l12 35q10 26 22 31q9 4 20 4h6v-209h-37v-14h133zM392 359l76 197v-179h-28v-14h110q-2 13 -13 14h-12v209h25v14h-84l-63 -165l-83 165h-68v-14h25v-209h-25v-14h75
q-2 13 -13 14h-18v143l85 -161h11z" />
    <glyph glyph-name="uni2126" unicode="&#x2126;" horiz-adv-x="700" 
d="M621 328q0 141 -86 220q-71 64 -181 64q-153 0 -228 -112q-48 -73 -48 -169q0 -124 87 -207q36 -34 82 -55h-93q-47 0 -62 21q-6 10 -11 24l-15 56h-20l2 -170h249v62q-73 41 -99 176q-10 51 -10 103q0 177 90 228q32 18 73 18q130 0 155 -173q5 -37 5 -78
q0 -143 -57 -226q-23 -32 -51 -48v-62h250l2 170h-20l-16 -56q-10 -37 -42 -43q-12 -2 -30 -2h-88q112 51 148 168q14 44 14 91z" />
    <glyph glyph-name="estimated" unicode="&#x212e;" horiz-adv-x="751" 
d="M177 100v236h536q0 166 -122 253q-87 61 -201 61q-177 0 -273 -123q-69 -90 -69 -209q0 -160 112 -253q92 -75 221 -75q150 0 262 91q12 10 23 21l-23 22q-81 -83 -206 -100q-26 -4 -51 -4q-125 1 -209 80zM584 552v-184h-407v172q88 77 213 80q117 -1 194 -68z" />
    <glyph glyph-name="partialdiff" unicode="&#x2202;" horiz-adv-x="518" 
d="M470 360q0 147 -89 213q-50 37 -115 37q-69 -1 -137 -43l16 -25q62 40 114 40q78 0 110 -83q16 -41 16 -96q0 -42 -10 -84q-46 63 -125 64q-95 0 -158 -73q-54 -63 -54 -152q0 -93 71 -140q44 -28 100 -28q131 0 204 128q57 101 57 242zM133 141q0 140 68 194
q28 22 60 22q61 0 82 -69q8 -28 8 -62q0 -120 -62 -179q-34 -32 -72 -32q-69 0 -82 89q-2 17 -2 37z" />
    <glyph glyph-name="uni2206" unicode="&#x2206;" horiz-adv-x="536" 
d="M532 0l-247 600h-44l-237 -600h528zM405 59h-336l166 426z" />
    <glyph glyph-name="product" unicode="&#x220f;" horiz-adv-x="593" 
d="M263 -130q0 23 -13 25q-6 1 -12 1h-48v678h209v-678h-68v-26h248q0 23 -13 25q-6 1 -12 1h-59v678h84v26h-565v-26h80v-678h-80v-26h249z" />
    <glyph glyph-name="summation" unicode="&#x2211;" horiz-adv-x="468" 
d="M461 -130v189h-22l-17 -60q-11 -41 -57 -50q-19 -3 -47 -3h-248l269 325l-219 303h181q64 0 89 -33q15 -20 27 -60l14 -48h20l12 167h-458v-23l253 -349l-253 -308v-50h456z" />
    <glyph glyph-name="minus" unicode="&#x2212;" horiz-adv-x="465" 
d="M423 215v38h-381v-38h381z" />
    <glyph glyph-name="uni2215" unicode="&#x2215;" horiz-adv-x="147" 
d="M-118 -30l435 640l-31 21l-436 -641z" />
    <glyph glyph-name="uni2219" unicode="&#x2219;" horiz-adv-x="363" 
d="M272 228q0 53 -44 79q-22 13 -46 13q-51 0 -77 -43q-14 -23 -14 -49q0 -51 44 -77q22 -13 47 -13q50 0 77 43q13 22 13 47z" />
    <glyph glyph-name="radical" unicode="&#x221a;" horiz-adv-x="449" 
d="M160 437l-171 -74l10 -27l90 38l91 -309q17 -57 45 -66q12 -4 29 -4h31l186 726l-35 8l-170 -658z" />
    <glyph glyph-name="infinity" unicode="&#x221e;" horiz-adv-x="688" 
d="M517 171q82 0 117 69q17 32 17 69q0 73 -54 112q-36 24 -84 24q-73 0 -149 -82q-11 -12 -24 -27q-86 108 -169 109q-82 0 -117 -69q-17 -32 -17 -69q0 -73 54 -112q36 -24 84 -24q70 0 146 79q12 12 27 29q84 -107 169 -108zM171 209q-67 0 -91 57q-8 20 -8 43
q0 58 44 87q25 15 55 15q76 -1 149 -98q-62 -73 -101 -92q-24 -12 -48 -12zM517 205q-75 1 -150 97q62 71 97 90q27 15 53 15q67 0 91 -57q8 -21 8 -43q0 -58 -44 -87q-25 -15 -55 -15z" />
    <glyph glyph-name="integral" unicode="&#x222b;" horiz-adv-x="364" 
d="M240 114q0 67 -15 292q-7 98 -7 165q0 96 34 103q4 1 8 1q21 0 27 -33q8 -43 13 -52q14 -19 41 -20q36 0 45 34q2 7 2 14q0 48 -45 71q-25 12 -58 12q-94 0 -129 -116q-24 -82 -24 -224q0 -59 14 -305q6 -94 6 -156q0 -147 -40 -161q-5 -2 -11 -2q-24 0 -27 32q0 4 -1 15
q-1 44 -19 56q-12 7 -30 7q-40 0 -47 -39q-1 -6 -1 -11q0 -46 44 -70q26 -13 58 -13q98 0 136 134q26 97 26 266z" />
    <glyph glyph-name="approxequal" unicode="&#x2248;" horiz-adv-x="492" 
d="M160 382q38 0 108 -37q57 -31 83 -31q52 2 79 70l24 -7q-18 -89 -79 -115q-19 -7 -37 -7q-38 0 -110 37q-61 31 -89 31q-51 -2 -76 -68l-25 7q22 96 92 116q15 4 30 4zM160 222q38 0 108 -37q57 -31 83 -31q53 2 79 69l24 -8q-18 -90 -81 -114q-17 -6 -35 -6
q-38 0 -110 37q-61 31 -89 31q-50 -2 -76 -70l-25 8q22 96 91 116q15 5 31 5z" />
    <glyph glyph-name="notequal" unicode="&#x2260;" horiz-adv-x="465" 
d="M423 160v38h-189l29 72h160v38h-145l48 122h-34l-48 -122h-202v-38h187l-29 -72h-158v-38h143l-45 -115h34l45 115h204z" />
    <glyph glyph-name="lessequal" unicode="&#x2264;" horiz-adv-x="463" 
d="M416 155l-313 107l314 108l-13 32l-362 -126v-30l361 -124zM413 45v35h-371v-35h371z" />
    <glyph glyph-name="greaterequal" unicode="&#x2265;" horiz-adv-x="464" 
d="M417 249v29l-361 124l-13 -33l311 -107l-312 -107l12 -33zM421 45v35h-371v-35h371z" />
    <glyph glyph-name="lozenge" unicode="&#x25ca;" horiz-adv-x="568" 
d="M268 599l-232 -347l231 -347h34l231 347l-230 347h-34zM485 252l-201 -302l-201 302l202 302z" />
    <glyph glyph-name="dottedcircle" unicode="&#x25cc;" horiz-adv-x="544" 
d="M102 94q3 22 24 23q23 0 23 -21v-2q-3 -23 -23 -24q-26 0 -24 24zM60 160q2 24 24 24q22 -2 22 -24q-3 -23 -23 -24q-23 2 -23 24zM166 52q3 22 23 23q24 -2 24 -23q-3 -23 -25 -24q-22 2 -22 24zM240 36q2 24 24 24q22 -2 22 -24q-3 -22 -23 -23q-23 0 -23 21v2zM47 234
q2 23 23 24q26 0 24 -24q-3 -22 -24 -23q-22 2 -23 23zM63 309q3 23 25 24q22 -2 21 -24q-3 -23 -21 -24q-25 2 -25 24zM317 52q3 22 24 23q23 0 23 -21v-2q-2 -24 -24 -24q-23 2 -23 24zM107 375q3 22 25 23q22 -2 22 -23q-3 -22 -24 -23q-23 2 -23 23zM383 94q3 22 23 23
q23 0 23 -21v-2q-1 -24 -24 -24q-22 2 -22 24zM172 418q3 22 24 23q23 0 23 -21v-2q-1 -24 -24 -24q-23 2 -23 24zM426 160q3 23 24 24q26 0 24 -24q-3 -23 -26 -24q-23 2 -22 24zM248 432q3 23 23 24q23 -2 23 -24q-3 -23 -23 -24q-23 2 -23 24zM441 234q2 23 25 24
q23 -2 23 -24q-3 -22 -23 -23q-24 2 -25 23zM323 418q3 22 25 23q23 0 22 -21v-2q-3 -23 -23 -24q-24 2 -24 24zM429 309q1 24 24 24q25 0 24 -24q-3 -23 -25 -24q-23 2 -23 24zM387 375q3 22 24 23q24 -2 24 -23q-3 -22 -25 -23q-23 2 -23 23z" />
    <glyph glyph-name="commaaccent" unicode="&#xf6c3;" horiz-adv-x="500" 
d="M310 -111q0 58 -43 72q-10 3 -21 3q-36 0 -51 -33q-5 -13 -5 -25q0 -39 39 -52q5 -2 9 -3q24 -6 25 -19q-1 -29 -47 -79l23 -16q66 78 71 152z" />
    <glyph glyph-name="eight.numr" horiz-adv-x="546" 
d="M259 -10q109 0 174 60q48 46 48 109q0 77 -93 136q-18 11 -41 24q84 43 96 125q2 11 2 22q0 89 -84 126q-41 18 -90 18q-104 0 -157 -63q-34 -41 -34 -98q0 -71 88 -127q13 -9 29 -18q-102 -29 -129 -112q-7 -23 -7 -46q0 -90 84 -132q50 -24 114 -24zM166 491
q0 64 65 84q23 7 50 7q68 0 106 -47q24 -31 24 -70q0 -68 -59 -113q-15 -11 -32 -19q-93 49 -122 81q-32 35 -32 77zM95 149q0 64 59 106q32 22 75 32q94 -49 121 -73q44 -39 45 -86q0 -76 -80 -101q-29 -9 -64 -9q-82 0 -127 51q-29 34 -29 80z" />
    <glyph glyph-name="eight.tf" horiz-adv-x="539" 
d="M255 -10q106 0 172 59q48 45 49 107q0 77 -90 136q-19 13 -45 27q85 44 98 125q2 12 2 23q0 89 -84 127q-40 18 -90 18q-102 0 -156 -62q-34 -40 -34 -95q0 -74 91 -132q13 -8 27 -16q-105 -31 -131 -116q-6 -22 -6 -44q0 -89 82 -132q50 -25 115 -25zM162 492
q0 66 68 86q22 6 47 6q69 0 106 -48q24 -30 24 -70q0 -67 -58 -111q-17 -12 -36 -21q-90 49 -119 80q-32 36 -32 78zM92 149q0 69 63 111q32 20 73 29q94 -50 122 -76q42 -38 42 -84q0 -77 -81 -102q-29 -9 -64 -9q-80 0 -125 51q-30 33 -30 80z" />
    <glyph glyph-name="five.numr" horiz-adv-x="505" 
d="M468 190q0 90 -73 142q-56 39 -136 39q-75 -1 -135 -40v193q89 -7 139 -7q110 0 140 29q25 26 25 101h-25q-8 -32 -38 -41q-25 -7 -83 -7q-9 0 -193 7v-287l35 -26q49 40 109 40q93 0 126 -80q13 -32 13 -71q0 -94 -62 -139q-37 -27 -87 -27q-37 0 -54 15t-19 37t-3 44
t-12.5 37t-40.5 15q-49 -3 -51 -52q0 -54 57 -90q51 -32 126 -32q130 0 198 82q44 52 44 118z" />
    <glyph glyph-name="five.tf" horiz-adv-x="485" 
d="M451 185q0 95 -71 147q-51 38 -124 38q-78 -1 -135 -39v191q82 -8 137 -8q104 0 131 27q24 26 24 101h-24q-9 -33 -39 -41q-23 -7 -73 -7q-31 0 -189 8v-282l33 -25q50 39 108 39q94 0 121 -91q8 -29 8 -63q0 -116 -75 -152q-28 -13 -62 -13q-53 0 -64 47q-3 11 -5 33
q-5 49 -21 62q-13 10 -34 10q-45 -8 -50 -52q0 -60 63 -97q49 -28 115 -28q126 0 188 82q38 49 38 113z" />
    <glyph glyph-name="four.numr" horiz-adv-x="350" 
d="M330 -57q0 18 -11 20q-4 1 -9 1h-47v73h67v24h-67v126h-16l-7 -20q-12 -29 -35 -33q-5 -1 -11 -1h-6v-72l-145 1q120 94 140 111q81 74 82 117q-4 35 -39 37q-26 0 -41 -30q-4 -7 -12 -25q-39 -89 -99 -151q-29 -30 -65 -59l5 -24l174 -1v-73h-75v-21h217z" />
    <glyph glyph-name="four.tf" horiz-adv-x="503" 
d="M463 0q0 24 -13 26q-5 1 -11 1h-67v128h91v30h-91v199h-21l-11 -39q-9 -34 -28 -39q-8 -3 -20 -3h-7v-117l-232 1q299 248 320 357q2 9 2 17q-2 50 -51 51q-36 0 -54 -39q-6 -12 -17 -45q-40 -114 -98 -192q-59 -77 -146 -149l6 -30l270 -1v-129h-108v-27h286z" />
    <glyph glyph-name="nine.numr" horiz-adv-x="542" 
d="M481 320q0 183 -104 255q-52 35 -123 35q-128 0 -185 -85q-30 -44 -30 -99q0 -89 71 -138q53 -36 130 -36q81 1 141 47q-5 -229 -90 -273q-23 -11 -51 -11q-53 0 -65 48q-3 10 -6 32q-7 49 -24 62q-13 9 -33 9q-39 0 -51 -34q-4 -11 -4 -21q0 -59 62 -96q45 -26 105 -26
q159 0 223 149q34 78 34 182zM134 438q0 91 57 128q28 18 64 18q82 0 112 -81q12 -32 12 -70q0 -88 -56 -127q-30 -21 -69 -21q-80 0 -109 82q-11 33 -11 71z" />
    <glyph glyph-name="nine.tf" horiz-adv-x="518" 
d="M469 318q0 181 -98 255q-52 39 -123 39q-114 0 -171 -76q-34 -48 -34 -110q0 -105 84 -153q47 -26 107 -26q79 1 136 47q-5 -235 -100 -271q-19 -7 -41 -7q-57 0 -69 46q-2 8 -5 27q-5 41 -21 52q-12 8 -31 8q-40 0 -49 -36q-2 -7 -2 -15q0 -56 65 -87q44 -21 100 -21
q157 0 219 145q33 77 33 183zM137 440q2 145 112 146q89 0 112 -96q7 -28 7 -61q0 -126 -88 -147q-16 -4 -33 -4q-109 2 -110 162z" />
    <glyph glyph-name="one.numr" horiz-adv-x="285" 
d="M145 322l-135 -94l15 -23l94 64v-242l-83 -7v-20h234q0 17 -15 20q-4 1 -8 1l-51 6v295h-51z" />
    <glyph glyph-name="one.tf" horiz-adv-x="457" 
d="M239 600l-218 -135l18 -29l168 99v-500l-151 -9v-26h375q0 21 -24 25q-4 1 -7 1l-101 9v565h-60z" />
    <glyph glyph-name="seven.numr" horiz-adv-x="482" 
d="M477 579v22h-431l-2 -179h23l18 54q12 39 48 44q12 2 30 2h241q-37 -55 -102 -148q-137 -200 -166 -259q-22 -46 -22 -75q0 -42 40 -50q7 -1 14 -1q38 0 54 32q4 10 29 98q61 217 226 460z" />
    <glyph glyph-name="seven.tf" horiz-adv-x="454" 
d="M461 580v22h-431l-2 -177h23l18 54q12 39 48 44q12 2 30 2h242q-194 -281 -222 -325q-68 -110 -68 -159q0 -42 39 -50q7 -1 14 -1q37 0 52 31q5 10 30 98q61 217 227 461z" />
    <glyph glyph-name="si_B.halant" horiz-adv-x="604" 
d="M99 74q0 -28 26 -43q11 -5 21 -5q28 0 43 27q5 11 5 21q0 28 -27 43q-11 5 -21 5q-28 0 -42 -27q-5 -11 -5 -21zM135 529q0 -6 14 -15q7 -6 8 -11q-1 -4 -3 -7q59 11 117 11q150 0 226 -77q9 -8 16 -18q-35 121 -159 152q-37 9 -77 9q-83 0 -127 -25q-14 -10 -15 -19z
M32 183q0 115 85 170q53 34 124 34q90 0 138 -54q30 -34 30 -79q0 -70 -52 -97q-7 -3 -20 -9q-34 -15 -40 -30q-2 -7 -2 -14q2 -33 45 -34q85 0 137 88q37 62 37 132q0 129 -126 173q-55 19 -125 19q-55 0 -105 -10q-58 -12 -119 -40v30q9 4 32 11q49 17 50 23q0 5 -15 16
q-12 10 -13 21q0 32 52 57q52 24 125 24q202 0 264 -170q15 -45 20 -96q8 -35 8 -87q-1 -130 -64 -205q-51 -57 -126 -58q-66 0 -95 48q-13 23 -13 50q0 42 40 65q5 3 15 7q36 19 44 38q5 11 5 24q0 51 -80 68q-27 6 -57 6q-92 0 -139 -61q-29 -38 -29 -91q0 -39 12 -63
q5 42 45 56q13 4 26 4q45 0 68 -38q10 -17 10 -36q0 -48 -43 -68q-17 -8 -35 -8q-74 0 -102 94q-12 41 -12 90z" />
    <glyph glyph-name="si_BI" horiz-adv-x="604" 
d="M270 492q-113 5 -138 15q-22 11 -23 31q1 53 182 53q181 -6 188 -63q0 -34 -55 -46q-12 -2 -23 -3q-36 8 -131 13zM65 549q0 -62 94 -75q10 -1 112 -7q109 -7 143 -18q38 -14 65 -43q35 -37 37 -108q-1 -94 -57 -164q-52 -63 -120 -64q-43 2 -44 34q0 24 32 40
q41 20 52 28q30 28 30 81q0 78 -78 115q-41 19 -92 19q-112 0 -170 -80q-37 -52 -37 -124q0 -115 54 -162q26 -22 60 -22q45 0 67 37q11 17 11 39q0 42 -39 64q-19 10 -39 10q-49 0 -66 -41q-4 -10 -5 -19q-12 26 -12 64q0 91 80 131q40 19 88 19q93 0 126 -41
q11 -15 11 -32q0 -34 -37 -55q-39 -21 -44 -26q-23 -20 -23 -54q0 -61 55 -86q24 -11 53 -11q114 0 163 122q26 66 27 149v1v2q0 98 -64 160q-10 9 -19 16q-19 12 -29 16q63 13 78 56q3 10 3 21q0 96 -181 111q-28 2 -59 2q-210 0 -225 -92q-1 -6 -1 -13zM99 74q0 28 26 43
q11 5 21 5q28 0 43 -27q5 -11 5 -21q0 -28 -27 -43q-11 -5 -21 -5q-28 0 -42 27q-5 11 -5 21z" />
    <glyph glyph-name="si_BIi" horiz-adv-x="604" 
d="M382 539q0 33 33 47q13 6 26 6q37 0 53 -31q6 -11 6 -22q0 -33 -33 -47q-13 -6 -26 -6q-37 0 -53 31q-6 11 -6 22zM270 492q-113 5 -138 15q-22 11 -23 31q1 55 182 55q49 0 78 -4q-16 -21 -17 -47q1 -36 26 -59q-25 4 -108 9zM65 549q0 -62 94 -75q10 -1 112 -7
q108 -7 140 -17q41 -14 69 -45q34 -38 36 -108q-2 -94 -58 -164q-51 -62 -119 -63q-43 2 -44 34q0 24 32 40q41 20 52 28q30 28 30 81q0 78 -78 115q-41 19 -92 19q-112 0 -170 -80q-37 -52 -37 -124q0 -115 54 -162q26 -22 60 -22q45 0 67 37q11 17 11 39q0 42 -39 64
q-19 10 -39 10q-49 0 -66 -41q-4 -10 -5 -19q-12 26 -12 64q0 91 80 131q40 19 88 19q93 0 126 -41q11 -15 11 -32q0 -34 -37 -55q-39 -21 -44 -26q-23 -20 -23 -54q0 -61 55 -86q24 -11 53 -11q114 0 163 122q26 65 27 148v1v2q0 105 -70 167q-7 6 -13 10q-8 6 -23 13
q48 8 68 47q7 17 7 34q0 94 -176 109q-31 3 -64 3q-210 0 -225 -92q-1 -6 -1 -13zM99 74q0 28 26 43q11 5 21 5q28 0 43 -27q5 -11 5 -21q0 -28 -27 -43q-11 -5 -21 -5q-28 0 -42 27q-5 11 -5 21z" />
    <glyph glyph-name="si_BR.halant" horiz-adv-x="604" 
d="M99 74q0 28 26 43q11 5 21 5q28 0 43 -27q5 -11 5 -21q0 -28 -27 -43q-11 -5 -21 -5q-28 0 -42 27q-5 11 -5 21zM135 529q0 22 68 36q36 8 74 8q144 0 209 -100q17 -28 27 -61q-63 83 -206 94q-18 1 -36 1q-59 0 -117 -11q3 3 3 7q0 5 -14 14q-7 7 -8 12zM32 183
q0 -115 54 -162q26 -22 60 -22q45 0 67 37q11 17 11 39q0 42 -39 64q-19 10 -39 10q-49 0 -66 -41q-4 -10 -5 -19q-12 25 -12 63q0 93 80 133q40 19 88 19q91 0 124 -39q13 -16 13 -35q0 -35 -37 -55q-39 -22 -44 -26q-23 -20 -23 -53q0 -62 56 -87q24 -11 52 -11
q95 1 148 90q5 -17 5 -36q0 -110 -98 -163q-63 -34 -147 -34q-143 1 -195 102h-28q50 -152 203 -169q18 -2 36 -2q119 0 193 78q66 70 66 173q0 47 -20 82q27 67 27 142q0 52 -8 87q-16 175 -143 237q-60 29 -141 29q-108 0 -158 -46q-18 -18 -19 -35q0 -12 19 -25
q8 -8 9 -12q0 -6 -61 -26q-13 -5 -21 -8v-30q62 28 119 40q51 10 105 10q169 0 227 -97q24 -41 24 -95q0 -87 -52 -155q-51 -64 -122 -65q-44 1 -45 34q0 24 32 39q41 20 51 28q31 28 31 83q0 75 -75 112q-42 21 -93 21q-116 0 -173 -82q-36 -52 -36 -122z" />
    <glyph glyph-name="si_BRI" horiz-adv-x="604" 
d="M270 492q-113 5 -138 15q-22 11 -23 31q1 53 182 53q181 -6 188 -63q0 -34 -55 -46q-12 -2 -23 -3q-36 8 -131 13zM65 549q0 -62 94 -75q10 -1 112 -7q109 -7 143 -18q38 -14 65 -43q35 -37 37 -108q-1 -94 -57 -164q-52 -63 -120 -64q-43 2 -44 34q0 24 32 40
q41 20 52 28q30 28 30 81q0 78 -78 115q-41 19 -92 19q-112 0 -170 -80q-37 -52 -37 -124q0 -115 54 -162q26 -22 60 -22q45 0 67 37q11 17 11 39q0 42 -39 64q-19 10 -39 10q-49 0 -66 -41q-4 -10 -5 -19q-12 26 -12 64q0 91 80 131q40 19 88 19q93 0 126 -41
q11 -15 11 -32q0 -34 -37 -55q-39 -21 -44 -26q-23 -20 -23 -54q0 -61 55 -86q24 -11 53 -11q96 1 148 90q5 -17 5 -36q0 -110 -98 -163q-63 -34 -147 -34q-143 1 -195 102h-28q50 -152 203 -169q18 -2 36 -2q119 0 193 78q66 70 66 173q0 46 -20 83q27 67 27 149v1v2
q0 98 -64 160q-10 9 -19 16q-19 12 -29 16q63 13 78 56q3 10 3 21q0 96 -181 111q-28 2 -59 2q-210 0 -225 -92q-1 -6 -1 -13zM99 74q0 28 26 43q11 5 21 5q28 0 43 -27q5 -11 5 -21q0 -28 -27 -43q-11 -5 -21 -5q-28 0 -42 27q-5 11 -5 21z" />
    <glyph glyph-name="si_BRIi" horiz-adv-x="604" 
d="M382 539q0 33 33 47q13 6 26 6q37 0 53 -31q6 -11 6 -22q0 -33 -33 -47q-13 -6 -26 -6q-37 0 -53 31q-6 11 -6 22zM270 492q-113 5 -138 15q-22 11 -23 31q1 55 182 55q49 0 78 -4q-16 -21 -17 -47q1 -36 26 -59q-25 4 -108 9zM65 549q0 -62 94 -75q10 -1 112 -7
q108 -7 140 -17q41 -14 69 -45q34 -38 36 -108q-2 -94 -58 -164q-51 -62 -119 -63q-43 2 -44 34q0 24 32 40q41 20 52 28q30 28 30 81q0 78 -78 115q-41 19 -92 19q-112 0 -170 -80q-37 -52 -37 -124q0 -115 54 -162q26 -22 60 -22q45 0 67 37q11 17 11 39q0 42 -39 64
q-19 10 -39 10q-49 0 -66 -41q-4 -10 -5 -19q-12 26 -12 64q0 91 80 131q40 19 88 19q93 0 126 -41q11 -15 11 -32q0 -34 -37 -55q-39 -21 -44 -26q-23 -20 -23 -54q0 -61 55 -86q24 -11 53 -11q96 1 148 90q5 -17 5 -36q0 -110 -98 -163q-63 -34 -147 -34q-143 1 -195 102
h-28q50 -152 203 -169q18 -2 36 -2q119 0 193 78q66 70 66 173q0 46 -20 83q27 67 27 148v1v2q0 105 -70 167q-7 6 -13 10q-8 6 -23 13q48 8 68 47q7 17 7 34q0 94 -176 109q-31 3 -64 3q-210 0 -225 -92q-1 -6 -1 -13zM99 74q0 28 26 43q11 5 21 5q28 0 43 -27q5 -11 5 -21
q0 -28 -27 -43q-11 -5 -21 -5q-28 0 -42 27q-5 11 -5 21z" />
    <glyph glyph-name="si_BRa" horiz-adv-x="604" 
d="M99 74q0 28 26 43q11 5 21 5q28 0 43 -27q5 -11 5 -21q0 -28 -27 -43q-11 -5 -21 -5q-28 0 -42 27q-5 11 -5 21zM32 183q0 -115 54 -162q26 -22 60 -22q45 0 67 37q11 17 11 39q0 42 -39 64q-19 10 -39 10q-49 0 -66 -41q-4 -10 -5 -19q-12 26 -12 64q0 91 80 131
q40 19 88 19q93 0 126 -41q11 -15 11 -32q0 -34 -37 -55q-39 -21 -44 -26q-23 -20 -23 -54q0 -61 55 -86q24 -11 53 -11q96 1 148 91q5 -17 5 -37q0 -110 -98 -163q-63 -34 -147 -34q-143 1 -195 102h-28q50 -152 203 -169q18 -2 36 -2q119 0 193 78q66 70 66 173
q0 47 -20 84q27 70 27 156q0 163 -105 242q-70 52 -172 52q-146 0 -209 -88q-8 -12 -14 -24h31q58 88 192 88q131 0 192 -96q36 -58 36 -137q0 -97 -53 -173q-52 -70 -121 -71q-43 2 -44 34q0 24 32 40q41 20 52 28q30 28 30 81q0 78 -78 115q-41 19 -92 19q-112 0 -170 -80
q-37 -52 -37 -124z" />
    <glyph glyph-name="si_BU" horiz-adv-x="604" 
d="M99 74q0 28 26 43q11 5 21 5q28 0 43 -27q5 -11 5 -21q0 -28 -27 -43q-11 -5 -21 -5q-28 0 -42 27q-5 11 -5 21zM32 183q0 -115 54 -162q26 -22 60 -22q45 0 67 37q11 17 11 39q0 42 -39 64q-19 10 -39 10q-49 0 -66 -41q-4 -10 -5 -19q-12 26 -12 64q0 91 80 131
q40 19 88 19q93 0 126 -41q11 -15 11 -32q0 -34 -37 -55q-39 -21 -44 -26q-23 -20 -23 -54q0 -61 55 -86q24 -11 53 -11q96 1 148 92v-283h-351q-80 0 -87 46q-1 5 -1 8q0 37 36 54q14 7 30 7q39 0 58 -33q3 -4 4 -8l30 12q-20 46 -72 56q-11 2 -20 2q-56 0 -85 -43
q-14 -22 -14 -47q0 -49 43 -75q26 -15 60 -15h402v412q9 46 9 94q0 163 -105 242q-70 52 -172 52q-146 0 -209 -88q-8 -12 -14 -24h31q58 88 192 88q131 0 192 -96q36 -58 36 -137q0 -97 -53 -173q-52 -70 -121 -71q-43 2 -44 34q0 24 32 40q41 20 52 28q30 28 30 81
q0 78 -78 115q-41 19 -92 19q-112 0 -170 -80q-37 -52 -37 -124z" />
    <glyph glyph-name="si_BUu" horiz-adv-x="604" 
d="M99 74q0 28 26 43q11 5 21 5q28 0 43 -27q5 -11 5 -21q0 -28 -27 -43q-11 -5 -21 -5q-28 0 -42 27q-5 11 -5 21zM32 183q0 -115 54 -162q26 -22 60 -22q45 0 67 37q11 17 11 39q0 42 -39 64q-19 10 -39 10q-49 0 -66 -41q-4 -10 -5 -19q-12 26 -12 64q0 91 80 131
q40 19 88 19q93 0 126 -41q11 -15 11 -32q0 -34 -37 -55q-39 -21 -44 -26q-23 -20 -23 -54q0 -61 55 -86q24 -11 53 -11q96 1 148 92v-254q-35 42 -100 49q-10 1 -18 1q-50 0 -134 -36q-75 -32 -114 -32q-50 0 -66 36q-4 11 -4 22q0 36 37 52q15 6 31 6q40 -1 60 -34l30 11
q-32 50 -95 50q-54 0 -83 -43q-16 -24 -16 -53q0 -66 63 -88q21 -8 45 -8q49 0 123 42q70 40 104 46q12 2 23 2q68 0 110 -62q8 -12 13 -23h23v404q10 46 10 99q0 163 -105 242q-70 52 -172 52q-146 0 -209 -88q-8 -12 -14 -24h31q58 88 192 88q131 0 192 -96
q36 -58 36 -137q0 -97 -53 -173q-52 -70 -121 -71q-43 2 -44 34q0 24 32 40q41 20 52 28q30 28 30 81q0 78 -78 115q-41 19 -92 19q-112 0 -170 -80q-37 -52 -37 -124z" />
    <glyph glyph-name="si_Ba.reph" horiz-adv-x="604" 
d="M99 74q0 28 26 43q11 5 21 5q28 0 43 -27q5 -11 5 -21q0 -28 -27 -43q-11 -5 -21 -5q-28 0 -42 27q-5 11 -5 21zM32 183q0 -115 54 -162q26 -22 60 -22q45 0 67 37q11 17 11 39q0 42 -39 64q-19 10 -39 10q-49 0 -66 -41q-4 -10 -5 -19q-12 26 -12 64q0 91 80 131
q40 19 88 19q93 0 126 -41q11 -15 11 -32q0 -34 -37 -55q-39 -21 -44 -26q-23 -20 -23 -54q0 -61 55 -86q24 -11 53 -11q114 0 163 124q27 68 27 155q0 166 -108 244q-30 22 -66 34h16q25 29 25 64q0 66 -65 96q-33 15 -73 15q-92 0 -125 -53q-12 -21 -12 -46q1 -47 49 -69
q-102 -25 -141 -103h31q58 88 192 88q131 0 192 -96q36 -58 36 -137q0 -97 -53 -173q-52 -70 -121 -71q-43 2 -44 34q0 24 32 40q41 20 52 28q30 28 30 81q0 78 -78 115q-41 19 -92 19q-112 0 -170 -80q-37 -52 -37 -124zM254 613q0 25 26 34q8 2 14 2q27 0 37 -23
q3 -7 3 -13q0 -25 -26 -34q-8 -2 -14 -2q-27 0 -37 23q-3 7 -3 13zM360 612q0 40 -38 55q-14 5 -29 5q-41 0 -59 -32q-6 -13 -6 -26q1 -27 19 -41q-33 3 -52 29q-10 13 -10 29q0 51 63 68q20 5 42 5q71 0 98 -45q11 -18 11 -41q-1 -33 -24 -59q-24 6 -37 8q21 18 22 45z" />
    <glyph glyph-name="si_Ba.touch" horiz-adv-x="604" 
d="M99 74q0 -28 26 -43q11 -5 21 -5q28 0 43 27q5 11 5 21q0 28 -27 43q-11 5 -21 5q-28 0 -42 -27q-5 -11 -5 -21zM32 183q0 112 83 169q53 35 124 35q94 0 141 -56q29 -33 29 -78q0 -67 -52 -95q-6 -4 -20 -10q-34 -15 -40 -31q-2 -6 -2 -13q2 -33 44 -34q81 0 133 91
q41 71 41 153q0 129 -89 192q-57 41 -139 41q-135 -1 -192 -88h-31q45 92 174 109q24 3 49 3q156 0 229 -114q48 -74 48 -180q0 -149 -69 -225q-49 -54 -121 -54q-68 0 -96 50q-12 21 -12 47q0 43 41 67q40 22 41 22q21 18 22 46q0 49 -75 66q-29 7 -62 7q-93 0 -139 -60
q-29 -38 -29 -90q0 -38 12 -64q5 42 45 56q13 4 26 4q45 0 68 -38q10 -17 10 -36q0 -48 -43 -68q-17 -8 -35 -8q-74 0 -102 94q-12 41 -12 90z" />
    <glyph glyph-name="si_Bh.halant" horiz-adv-x="654" 
d="M6 264q29 6 116 7q-73 -44 -74 -120q0 -88 72 -129q40 -23 92 -23q96 0 139 64q22 35 22 79q0 63 -38 84q-13 6 -26 6q-18 -1 -29 -7q32 119 132 120q83 0 119 -77q17 -39 17 -85q0 -88 -64 -131q-38 -26 -89 -26q-24 0 -36 2v-26q21 -3 40 -3q103 0 163 76q44 57 44 131
q0 112 -64 173q-26 25 -59 36v52q21 -10 44 -10q48 0 68 38q9 16 9 34q0 56 -58 89q-10 6 -34 17q-39 18 -55 30v-244q-8 1 -21 1q-80 0 -136 -84q-45 -66 -51 -150l22 -9q11 28 33 29q25 0 31 -30q1 -7 1 -13q0 -56 -66 -75q-24 -7 -50 -7q-86 0 -118 49q-13 21 -13 46
q0 56 65 82q32 13 68 13q16 0 27 -2q-1 90 -55 131q-28 20 -63 20q-56 0 -77 -42q-6 -13 -6 -25q5 -34 34 -37q26 1 39 29q11 25 37 26q36 0 52 -42q7 -17 7 -35h-5h-4h-202v-32zM483 491v132q56 -37 68 -51q15 -19 15 -40q0 -36 -33 -46q-8 -2 -17 -2q-21 0 -33 7z" />
    <glyph glyph-name="si_BhI" horiz-adv-x="654" 
d="M6 264q29 6 116 7q-73 -44 -74 -120q0 -88 72 -129q40 -23 92 -23q96 0 139 64q22 35 22 79q0 63 -38 84q-13 6 -26 6q-18 -1 -29 -7q32 119 132 120q83 0 119 -77q17 -39 17 -85q0 -88 -64 -131q-38 -26 -89 -26q-24 0 -36 2v-26q21 -3 40 -3q103 0 163 76q44 57 44 131
q0 113 -64 174q-19 18 -41 28q71 26 72 103q0 81 -90 119q-51 21 -113 21q-118 0 -169 -57q-27 -30 -27 -70q0 -74 105 -105q38 -12 87 -16q-72 -43 -103 -143q-11 -36 -14 -72l22 -9q11 28 33 29q25 0 31 -30q1 -7 1 -13q0 -56 -66 -75q-24 -7 -50 -7q-86 0 -118 49
q-13 21 -13 46q0 56 65 82q32 13 68 13q16 0 27 -2q-1 90 -55 131q-28 20 -63 20q-56 0 -77 -42q-6 -13 -6 -25q5 -34 34 -37q26 1 39 29q11 25 37 26q36 0 52 -42q7 -17 7 -35h-5h-4h-202v-32zM220 501q0 43 67 65q38 12 84 12q117 0 156 -44q15 -16 15 -37q0 -49 -52 -69
q-17 -6 -37 -7q-7 1 -17 1h-5h-1h-4q-4 -1 -5 -1q-114 3 -171 38q-29 19 -30 42z" />
    <glyph glyph-name="si_BhIi" horiz-adv-x="654" 
d="M6 264q29 6 116 7q-73 -44 -74 -120q0 -88 72 -129q40 -23 92 -23q96 0 139 64q22 35 22 79q0 63 -38 84q-13 6 -26 6q-18 -1 -29 -7q32 119 132 120q83 0 119 -77q17 -39 17 -85q0 -88 -64 -131q-38 -26 -89 -26q-24 0 -36 2v-26q21 -3 40 -3q103 0 163 76q44 57 44 131
q0 112 -63 173q-45 43 -107 43h-5h-1h-4q-4 -1 -5 -1q-114 3 -171 38q-29 19 -30 42q0 43 67 65q38 12 84 12q25 0 51 -3q-23 -8 -35 -36q-7 -15 -7 -32q0 -51 51 -75q22 -11 44 -11q55 0 83 39q15 23 15 53q0 78 -89 116q-51 22 -114 22q-118 0 -169 -57q-27 -30 -27 -70
q0 -75 106 -108q37 -10 83 -15q-70 -43 -101 -143q-10 -34 -13 -70l22 -9q11 28 33 29q25 0 31 -30q1 -7 1 -13q0 -56 -66 -75q-24 -7 -50 -7q-86 0 -118 49q-13 21 -13 46q0 56 65 82q32 13 68 13q16 0 27 -2q-1 90 -55 131q-28 20 -63 20q-56 0 -77 -42q-6 -13 -6 -25
q5 -34 34 -37q26 1 39 29q11 25 37 26q36 0 52 -42q7 -17 7 -35h-5h-4h-202v-32zM410 508q0 36 35 53q15 7 32 7q42 0 60 -34q7 -13 7 -26q0 -36 -35 -53q-16 -8 -32 -8q-41 0 -60 33q-7 14 -7 28z" />
    <glyph glyph-name="si_BhRI" horiz-adv-x="654" 
d="M220 501q0 43 67 65q38 12 84 12q117 0 156 -44q15 -16 15 -37q0 -49 -52 -69q-17 -6 -37 -7q-7 1 -17 1h-5h-1h-4q-4 -1 -5 -1q-114 3 -171 38q-29 19 -30 42zM174 524q0 -74 105 -105q38 -12 87 -16q-72 -43 -103 -143q-11 -36 -14 -72l22 -9q11 28 33 29q25 0 31 -30
q1 -7 1 -13q0 -56 -66 -75q-24 -7 -50 -7q-86 0 -118 49q-13 21 -13 46q0 56 65 82q32 13 68 13q16 0 27 -2q-1 90 -55 131q-28 20 -63 20q-56 0 -77 -42q-6 -13 -6 -25q5 -34 34 -37q26 1 39 29q11 25 37 26q36 0 52 -42q7 -17 7 -35h-5h-4h-202v-32q29 6 116 7
q-73 -44 -74 -120q0 -88 72 -129q40 -23 92 -23q96 0 139 64q22 35 22 79q0 63 -38 84q-13 6 -26 6q-18 -1 -29 -7q32 119 132 120q83 0 119 -77q17 -39 17 -85q0 -88 -64 -131q-38 -26 -89 -26q-24 0 -36 2v-26q21 -3 40 -3q99 1 160 72q1 -7 1 -19q0 -112 -104 -165
q-64 -32 -151 -32q-153 1 -204 102h-27q59 -170 247 -171q124 0 200 79q67 68 67 172q0 35 -10 62q28 49 28 107q0 113 -64 174q-19 18 -41 28q71 26 72 103q0 81 -90 119q-51 21 -113 21q-118 0 -169 -57q-27 -30 -27 -70z" />
    <glyph glyph-name="si_BhRIi" horiz-adv-x="654" 
d="M6 264q29 6 116 7q-73 -44 -74 -120q0 -88 72 -129q40 -23 92 -23q96 0 139 64q22 35 22 79q0 63 -38 84q-13 6 -26 6q-18 -1 -29 -7q32 119 132 120q83 0 119 -77q17 -39 17 -85q0 -88 -64 -131q-38 -26 -89 -26q-24 0 -36 2v-26q21 -3 40 -3q99 1 160 72q1 -7 1 -19
q0 -112 -104 -165q-64 -32 -151 -32q-153 1 -204 102h-27q59 -170 247 -171q124 0 200 79q67 68 67 172q0 35 -10 62q28 49 28 107q0 112 -63 173q-45 43 -107 43h-5h-1h-4q-4 -1 -5 -1q-114 3 -171 38q-29 19 -30 42q0 43 67 65q38 12 84 12q25 0 51 -3q-23 -8 -35 -36
q-7 -15 -7 -32q0 -51 51 -75q22 -11 44 -11q55 0 83 39q15 23 15 53q0 78 -89 116q-51 22 -114 22q-118 0 -169 -57q-27 -30 -27 -70q0 -75 106 -108q37 -10 83 -15q-70 -43 -101 -143q-10 -34 -13 -70l22 -9q11 28 33 29q25 0 31 -30q1 -7 1 -13q0 -56 -66 -75
q-24 -7 -50 -7q-86 0 -118 49q-13 21 -13 46q0 56 65 82q32 13 68 13q16 0 27 -2q-1 90 -55 131q-28 20 -63 20q-56 0 -77 -42q-6 -13 -6 -25q5 -34 34 -37q26 1 39 29q11 25 37 26q36 0 52 -42q7 -17 7 -35h-5h-4h-202v-32zM409 508q0 37 37 54q15 6 31 6q43 0 61 -34
q7 -13 7 -26q0 -38 -37 -55q-15 -6 -31 -6q-43 0 -61 35q-7 13 -7 26z" />
    <glyph glyph-name="si_BhRa" horiz-adv-x="654" 
d="M6 264q29 6 116 7q-73 -44 -74 -120q0 -88 72 -129q40 -23 92 -23q96 0 139 64q22 35 22 79q0 63 -38 84q-13 6 -26 6q-18 -1 -29 -7q32 119 132 120q83 0 119 -77q17 -39 17 -85q0 -88 -64 -131q-38 -26 -89 -26q-24 0 -36 2v-26q21 -3 40 -3q99 1 160 72q1 -7 1 -19
q0 -112 -104 -165q-64 -32 -151 -32q-153 1 -204 102h-27q59 -170 247 -171q124 0 200 79q67 68 67 172q0 35 -10 62q28 49 28 107q0 112 -63 173q-45 43 -107 43q-80 0 -136 -84q-45 -66 -51 -150l22 -9q11 28 33 29q25 0 31 -30q1 -7 1 -13q0 -56 -66 -75q-24 -7 -50 -7
q-86 0 -118 49q-13 21 -13 46q0 56 65 82q32 13 68 13q16 0 27 -2q-1 90 -55 131q-28 20 -63 20q-56 0 -77 -42q-6 -13 -6 -25q5 -34 34 -37q26 1 39 29q11 25 37 26q36 0 52 -42q7 -17 7 -35h-5h-4h-202v-32z" />
    <glyph glyph-name="si_BhRa.halant" horiz-adv-x="654" 
d="M483 491v132q56 -37 68 -51q15 -19 15 -40q0 -36 -33 -46q-8 -2 -17 -2q-21 0 -33 7zM6 264q29 6 116 7q-73 -44 -74 -120q0 -88 72 -129q40 -23 92 -23q96 0 139 64q22 35 22 79q0 63 -38 84q-13 6 -26 6q-18 -1 -29 -7q32 119 132 120q83 0 119 -77q17 -39 17 -85
q0 -88 -64 -131q-38 -26 -89 -26q-24 0 -36 2v-26q21 -3 40 -3q99 1 160 72q1 -7 1 -19q0 -112 -104 -165q-64 -32 -151 -32q-153 1 -204 102h-27q59 -170 247 -171q124 0 200 79q67 68 67 172q0 35 -10 62q28 49 28 107q0 112 -64 173q-26 25 -59 36v52q21 -10 44 -10
q48 0 68 38q9 16 9 34q0 56 -58 89q-10 6 -34 17q-39 18 -55 30v-244q-8 1 -21 1q-80 0 -136 -84q-45 -66 -51 -150l22 -9q11 28 33 29q25 0 31 -30q1 -7 1 -13q0 -56 -66 -75q-24 -7 -50 -7q-86 0 -118 49q-13 21 -13 46q0 56 65 82q32 13 68 13q16 0 27 -2q-1 90 -55 131
q-28 20 -63 20q-56 0 -77 -42q-6 -13 -6 -25q5 -34 34 -37q26 1 39 29q11 25 37 26q36 0 52 -42q7 -17 7 -35h-5h-4h-202v-32z" />
    <glyph glyph-name="si_BhU" horiz-adv-x="654" 
d="M6 265q24 4 116 6q-73 -44 -74 -120q0 -88 72 -129q40 -23 92 -23q96 0 139 64q22 35 22 79q0 63 -38 84q-13 6 -26 6q-18 -1 -29 -7q32 119 132 120q83 0 119 -77q17 -39 17 -85q0 -81 -50 -128q-28 -26 -61 -28q-22 0 -42 -8q-49 -19 -60 -73q-2 -11 -2 -22
q0 -65 64 -96q32 -16 68 -16q90 0 126 67q14 26 14 53q0 29 -1 33h-30v-9q0 -47 -50 -69q-25 -11 -55 -11q-65 0 -89 36q-9 14 -9 29q1 38 37 53q20 6 40 6q64 0 113 67q45 61 45 139q0 112 -63 173q-45 43 -107 43q-80 0 -136 -84q-45 -66 -51 -150l22 -9q11 28 33 29
q25 0 31 -30q1 -7 1 -13q0 -56 -66 -75q-24 -7 -50 -7q-86 0 -118 49q-13 21 -13 46q0 56 65 82q32 13 68 13q16 0 27 -2q-1 90 -55 131q-28 20 -63 20q-56 0 -77 -42q-6 -13 -6 -25q5 -34 34 -37q26 1 39 29q11 25 37 26q36 0 52 -42q7 -17 7 -35h-5h-5h-201v-31z" />
    <glyph glyph-name="si_BhUu" horiz-adv-x="654" 
d="M6 264q29 6 116 7q-73 -44 -74 -120q0 -88 72 -129q40 -23 92 -23q96 0 139 64q22 35 22 79q0 63 -38 84q-13 6 -26 6q-18 -1 -29 -7q32 119 132 120q83 0 119 -77q17 -39 17 -85q0 -88 -64 -131q-38 -26 -89 -26q-24 0 -36 2v-26q1 0 3.5 -0.5t3.5 -0.5l92 -15l-85 -24
l54 -27q-47 -7 -60 -43q-3 -9 -3 -18q0 -62 90 -72q15 -2 29 -2q89 0 119 60q11 22 11 48q0 22 -4 34h-32q6 -12 6 -22q0 -47 -58 -61q-19 -5 -40 -5q-79 1 -80 36q0 21 55 31q22 4 27 5l-57 31l103 36l-78 13q89 24 129 105q22 45 22 95q0 112 -63 173q-45 43 -107 43
q-80 0 -136 -84q-45 -66 -51 -150l22 -9q11 28 33 29q25 0 31 -30q1 -7 1 -13q0 -56 -66 -75q-24 -7 -50 -7q-86 0 -118 49q-13 21 -13 46q0 56 65 82q32 13 68 13q16 0 27 -2q-1 90 -55 131q-28 20 -63 20q-56 0 -77 -42q-6 -13 -6 -25q5 -34 34 -37q26 1 39 29
q11 25 37 26q36 0 52 -42q7 -17 7 -35h-5h-4h-202v-32z" />
    <glyph glyph-name="si_Bha.reph" horiz-adv-x="654" 
d="M6 264q29 6 116 7q-73 -44 -74 -120q0 -88 72 -129q40 -23 92 -23q96 0 139 64q22 35 22 79q0 63 -38 84q-13 6 -26 6q-18 -1 -29 -7q32 119 132 120q83 0 119 -77q17 -39 17 -85q0 -88 -64 -131q-38 -26 -89 -26q-24 0 -36 2v-26q21 -3 40 -3q103 0 163 76q44 57 44 131
q0 112 -63 173q-45 43 -107 43q-80 0 -136 -84q-45 -66 -51 -150l22 -9q11 28 33 29q25 0 31 -30q1 -7 1 -13q0 -56 -66 -75q-24 -7 -50 -7q-86 0 -118 49q-13 21 -13 46q0 56 65 82q32 13 68 13q16 0 27 -2q-1 90 -55 131q-28 20 -63 20q-56 0 -77 -42q-6 -13 -6 -25
q5 -34 34 -37q26 1 39 29q11 25 37 26q36 0 52 -42q7 -17 7 -35h-5h-4h-202v-32zM289 499q0 25 26 34q8 2 14 2q27 0 37 -23q3 -7 3 -13q0 -25 -26 -34q-8 -2 -14 -2q-27 0 -37 23q-3 7 -3 13zM189 518q0 -53 62 -74q26 -9 54 -9q72 0 88 44q3 10 3 19q0 39 -38 55
q-14 6 -30 6q-41 0 -59 -33q-6 -13 -6 -26q1 -26 20 -41q-33 3 -52 28q-11 15 -11 31q0 52 64 67q20 5 41 5q70 0 98 -44q12 -19 12 -42q-1 -36 -29 -63h33q25 29 25 64q0 66 -65 96q-33 15 -73 15q-93 0 -125 -54q-12 -20 -12 -44z" />
    </font>
</defs>
</svg>
