<?xml version="1.0" standalone="no"?>
<!DOCTYPE svg PUBLIC "-//W3C//DTD SVG 1.1//EN" "http://www.w3.org/Graphics/SVG/1.1/DTD/svg11.dtd" >
<svg xmlns="http://www.w3.org/2000/svg" xmlns:xlink="http://www.w3.org/1999/xlink" version="1.1">
<metadata>
Created by FontForge 20201107 at Mon Oct 21 00:19:52 2024
 By 
Copyright (c) 2015 by Andrew Herndon. All rights reserved.
</metadata>
<defs>
<font id="Aquatico-Regular" horiz-adv-x="1456" >
  <font-face 
    font-family="Aquatico"
    font-weight="400"
    font-stretch="normal"
    units-per-em="2048"
    panose-1="0 0 5 0 0 0 0 0 0 0"
    ascent="1679"
    descent="-369"
    x-height="1607.5"
    cap-height="1610"
    bbox="20 -891 2535.5 1825.78"
    underline-thickness="102"
    underline-position="-204"
    unicode-range="U+0020-00A9"
  />
<missing-glyph horiz-adv-x="1024" 
d="M840 1679v-2048h-650v2048h650zM682 283h-340v-232h340v232zM614 215v-96h-204v96h204zM682 637h-205v-115h70v47h67v-96h-204v164h-68v-231h340v231zM682 887h-68v-135h-272v-70h340v205zM682 1010h-340v-68h135v-76h-135v-67h205v143h135v68zM477 1208v-73h-67v73h67z
M547 1278h-205v-213h340v70h-135v143zM682 1542h-338v-67h133v-76h-135v-68h340v68h-135v76h135v67zM682 4h-340v-67h143l-143 -97v-67h340v67h-209l143 97h66v67z" />
    <glyph glyph-name=".notdef" horiz-adv-x="1024" 
d="M840 1679v-2048h-650v2048h650zM682 283h-340v-232h340v232zM614 215v-96h-204v96h204zM682 637h-205v-115h70v47h67v-96h-204v164h-68v-231h340v231zM682 887h-68v-135h-272v-70h340v205zM682 1010h-340v-68h135v-76h-135v-67h205v143h135v68zM477 1208v-73h-67v73h67z
M547 1278h-205v-213h340v70h-135v143zM682 1542h-338v-67h133v-76h-135v-68h340v68h-135v76h135v67zM682 4h-340v-67h143l-143 -97v-67h340v67h-209l143 97h66v67z" />
    <glyph glyph-name=".null" horiz-adv-x="0" 
 />
    <glyph glyph-name="nonmarkingreturn" horiz-adv-x="682" 
 />
    <glyph glyph-name="space" unicode=" " horiz-adv-x="757" 
 />
    <glyph glyph-name="exclam" unicode="!" horiz-adv-x="468" 
d="M233 502q43 0 73 29.5t30 72.5v905q0 43 -30 73t-73 30q-41 0 -71.5 -30t-30.5 -73v-905q0 -42 30 -72t72 -30zM387 160q0 63 -45 108t-109 45q-63 0 -107 -45t-44 -108t44 -108.5t107 -45.5q64 0 109 45.5t45 108.5z" />
    <glyph glyph-name="quotedbl" unicode="&#x22;" horiz-adv-x="655" 
d="M170 1073q42 0 72 30.5t30 72.5v340q0 43 -29.5 72.5t-72.5 29.5q-42 0 -72 -30t-30 -72v-340q0 -41 30.5 -72t71.5 -31zM485 1073q42 0 72.5 30.5t30.5 72.5v340q0 43 -30 72.5t-73 29.5t-72.5 -29.5t-29.5 -72.5v-340q0 -42 30 -72.5t72 -30.5z" />
    <glyph glyph-name="numbersign" unicode="#" horiz-adv-x="1599" 
d="M1415 1030h-174l-74 -440h162q42 0 72.5 -30.5t30.5 -72.5q0 -41 -31 -71.5t-72 -30.5h-194l-52 -295q-6 -38 -34.5 -62t-65.5 -24q-10 0 -16 2q-41 6 -66 41t-18 76l43 262h-402l-49 -295q-6 -38 -34.5 -62t-65.5 -24q-11 0 -17 2q-41 6 -66 41t-18 76l43 262h-133
q-42 0 -72 30t-30 72q0 43 29.5 73t72.5 30h168l74 440h-156q-42 0 -72 30.5t-30 72.5q0 43 29.5 72.5t72.5 29.5h189l49 291q8 42 42.5 66.5t76.5 17.5q41 -8 65.5 -42t18.5 -77l-43 -256h401l47 291q8 41 43 66t76 18q41 -8 65.5 -42t18.5 -77l-43 -256h139q42 0 72.5 -30
t30.5 -72q0 -41 -31 -72t-72 -31zM961 590l73 440h-401l-74 -440h402z" />
    <glyph glyph-name="dollar" unicode="$" horiz-adv-x="1271" 
d="M655 4q276 0 418 133q117 108 117 271q0 190 -127 317q-135 132 -416 190q-114 23 -196 76q-64 47 -89 90q-34 53 -34 113v6q0 78 65 137q74 70 205 70q173 0 268 -53q32 -17 64 -49q22 -35 61 -46t76 9t49 60.5t-8 78.5q-5 9 -12 18t-27.5 31t-45.5 40.5t-67.5 41
t-91 38t-118.5 26t-148 10.5q-105 0 -190 -33q-86 -30 -152 -90q-63 -57 -98 -132.5t-35 -154.5q0 -113 55 -213q59 -97 150 -162q117 -79 278 -112q221 -44 312 -135q67 -64 67 -172q0 -75 -51 -121q-84 -78 -279 -78q-194 0 -309 63q-23 13 -41 27.5t-24.5 22t-8.5 10.5
q-20 36 -60 47.5t-77 -8.5t-49 -61t8 -79q7 -14 21.5 -33t59 -56t102 -65.5t158 -50.5t220.5 -22zM655 -217q43 0 73 30.5t30 71.5v1764q0 43 -30 72.5t-73 29.5t-72.5 -29.5t-29.5 -72.5v-1764q0 -42 30 -72t72 -30z" />
    <glyph glyph-name="percent" unicode="%" horiz-adv-x="1873" 
d="M451 819q155 0 264 121q104 116 104 281q0 164 -104 280q-109 121 -264 121t-267 -121q-102 -117 -102 -280q0 -164 102 -281q112 -121 267 -121zM451 1417q68 0 115.5 -57t47.5 -139t-47.5 -139.5t-115.5 -57.5t-116 57.5t-48 139.5t48 139t116 57zM1423 -6
q156 0 265 121q104 116 104 280q0 165 -104 281q-109 121 -265 121q-155 0 -264 -121q-104 -116 -104 -281q0 -164 104 -280q109 -121 264 -121zM1423 592q68 0 116 -57.5t48 -139.5t-48 -139t-116 -57t-115.5 57t-47.5 139t47.5 139.5t115.5 57.5zM428 2q52 0 82 43
l1026 1403q25 34 18 75.5t-41 67.5q-35 25 -76.5 18.5t-66.5 -40.5l-1024 -1403q-26 -36 -19.5 -77t40.5 -66q27 -21 61 -21z" />
    <glyph glyph-name="ampersand" unicode="&#x26;" horiz-adv-x="1495" 
d="M586 -18h12h6h2q153 0 320 96q76 47 153 115l156 -162q31 -29 72.5 -30t72.5 28q31 31 32 72.5t-30 72.5l-165 172q50 72 67 103l2 2l113 192q20 37 9 78t-48 63q-35 21 -76 10.5t-63 -46.5l-113 -195q-9 -15 -37 -57l-311 321q144 73 221 135q172 135 172 297
q0 187 -152 299q-125 86 -301 86q-90 0 -161 -32q-69 -28 -133 -89q-60 -57 -93.5 -130t-33.5 -148q0 -73 24 -150q34 -109 111 -202q-73 -39 -129 -84q-93 -75 -142 -162q-61 -107 -61 -236q0 -174 111 -288q90 -87 237 -117q74 -14 156 -14zM561 727l375 -387
q-59 -53 -115 -84q-121 -70 -215 -70h-8q-69 0 -127 11q-90 18 -133 61q-51 51 -51 143q0 137 125 238q57 45 149 88zM700 1430q110 0 183 -50q65 -48 65 -131q0 -60 -94 -137q-71 -55 -197 -119q-7 -3 -20.5 -9.5t-18.5 -8.5q-1 -1 -3 -2t-3 -2l-18 18q-69 69 -94 158
q-17 53 -17 88q0 70 64 131q67 64 153 64z" />
    <glyph glyph-name="quotesingle" unicode="'" horiz-adv-x="368" 
d="M184 1065q42 0 72.5 30t30.5 72v340q0 42 -30.5 72.5t-72.5 30.5q-43 0 -72.5 -30t-29.5 -73v-340q0 -43 29.5 -72.5t72.5 -29.5z" />
    <glyph glyph-name="parenleft" unicode="(" horiz-adv-x="866" 
d="M670 -242q30 0 55 16.5t37 43.5q18 38 3 78t-54 57q-188 85 -303 278q-121 201 -121 453q0 256 125 459q117 194 311 276q39 17 54.5 56t-1.5 79q-17 39 -56 55t-77 -1q-120 -51 -229 -146q-101 -88 -176 -213q-156 -254 -156 -565q0 -308 149 -557t396 -360q21 -9 43 -9
z" />
    <glyph glyph-name="parenright" unicode=")" horiz-adv-x="868" 
d="M199 1602q-30 0 -56.5 -16.5t-38.5 -43.5q-17 -38 -1.5 -78t53.5 -57q186 -83 303 -279q123 -204 123 -452q0 -253 -127 -459q-120 -198 -310 -276q-40 -17 -56 -56.5t1 -79.5q17 -39 56 -54.5t79 1.5q119 51 228 146q102 86 178 213q155 257 155 565q0 304 -151 557
q-150 251 -395 360q-18 9 -41 9z" />
    <glyph glyph-name="asterisk" unicode="*" horiz-adv-x="794" 
d="M682 1100q31 -31 31 -74t-31 -72q-36 -31 -78 -28q-39 0 -67 28l-140 142l-141 -140q-30 -30 -78 -30q-40 3 -67 30q-29 31 -29 73t31 73l139 139l-139 141q-29 31 -29 73t29 73q31 29 73.5 29t71.5 -29l139 -142l142 140q31 29 73.5 29t71.5 -29q29 -31 29 -74t-29 -72
l-141 -139z" />
    <glyph glyph-name="plus" unicode="+" horiz-adv-x="1314" 
d="M1130 883q42 0 72.5 -30.5t30.5 -72.5q0 -43 -30 -72.5t-73 -29.5h-370v-354q0 -43 -30 -73t-73 -30q-41 0 -71.5 30.5t-30.5 72.5v354h-371q-43 0 -72.5 29.5t-29.5 72.5q0 42 30 72.5t72 30.5h371v352v8q0 43 30.5 73t71.5 30q43 0 73 -30t30 -73v-8v-352h370z" />
    <glyph glyph-name="comma" unicode="," horiz-adv-x="368" 
d="M184 -229q42 0 72.5 30t30.5 72v340q0 42 -30.5 72t-72.5 30q-43 0 -72.5 -29.5t-29.5 -72.5v-340q0 -43 29.5 -72.5t72.5 -29.5z" />
    <glyph glyph-name="hyphen" unicode="-" horiz-adv-x="841" 
d="M657 649q42 0 72.5 30.5t30.5 72.5q0 43 -30 72.5t-73 29.5h-473q-43 0 -72.5 -29.5t-29.5 -72.5q0 -42 30 -72.5t72 -30.5h473z" />
    <glyph glyph-name="period" unicode="." horiz-adv-x="468" 
d="M387 154q0 63 -44 108t-107 45q-64 0 -109 -45t-45 -108q0 -64 45 -109t109 -45q63 0 107 45t44 109z" />
    <glyph glyph-name="slash" unicode="/" horiz-adv-x="1310" 
d="M184 -301q29 0 53.5 15.5t38.5 41.5l943 1921q19 37 4.5 77.5t-52.5 60.5q-38 19 -78 4.5t-59 -52.5l-942 -1919q-19 -38 -5 -78t52 -59q21 -12 45 -12z" />
    <glyph glyph-name="zero" unicode="0" horiz-adv-x="1566" 
d="M782 -31q144 0 281 70q130 66 223 182q96 117 147.5 267.5t51.5 314.5q0 162 -51.5 312t-147.5 267q-95 117 -223 183q-129 69 -281 69q-149 0 -278 -69q-128 -66 -223 -183q-96 -117 -147.5 -266.5t-51.5 -312.5q0 -165 51 -315t148 -267q93 -116 223 -182
q137 -70 278 -70zM782 1430q96 0 185.5 -46t158.5 -131q74 -90 114 -206.5t40 -243.5q0 -128 -40 -244.5t-114 -206.5q-69 -86 -158 -132t-186 -46q-95 0 -184.5 46t-159.5 132q-151 183 -151 451q0 128 39 244.5t112 205.5q71 85 160 131t184 46z" />
    <glyph glyph-name="one" unicode="1" horiz-adv-x="763" 
d="M580 0q43 0 72.5 29.5t29.5 72.5v1407q0 52 -41 82q-45 30 -92 15l-395 -123q-40 -12 -60 -50t-8 -79q10 -32 37.5 -52t60.5 -20q16 0 31 6l262 82v-1268q0 -43 30 -72.5t73 -29.5z" />
    <glyph glyph-name="two" unicode="2" horiz-adv-x="1331" 
d="M1147 0q43 0 72.5 29.5t29.5 72.5q0 42 -30 72.5t-72 30.5h-698l503 459q158 147 213 288q42 115 23 250q-12 94 -60 176q-47 82 -114 135q-136 115 -330 121q-190 6 -332 -102q-141 -110 -182 -297q-9 -41 14 -76.5t64 -44.5t77.5 14t45.5 64q24 115 106 178
q84 63 201 60q118 -3 205 -74q87 -72 102 -182q11 -84 -12 -150q-37 -98 -160 -209l-696 -637q-25 -22 -32 -52.5t5 -59.5q10 -30 36.5 -48t57.5 -18h963z" />
    <glyph glyph-name="three" unicode="3" horiz-adv-x="1282" 
d="M606 -23q56 0 124.5 11.5t163 50.5t161.5 100q60 57 100 142q39 85 39 192q0 109 -37 193q-42 89 -102 141q-113 107 -326 143l445 488q45 48 18 110q-12 28 -37.5 45t-56.5 17h-862q-43 0 -73 -30t-30 -73t30 -72.5t73 -29.5h630l-434 -477q-21 -23 -25.5 -54.5
t9.5 -60.5q13 -28 41 -43t59 -12q108 0 160 -6q161 -22 242 -97q71 -65 71 -182q0 -112 -76 -182q-67 -64 -180 -90q-72 -19 -137 -19q-4 0 -12.5 1t-12.5 1q-57 2 -127 33q-111 45 -176 141q-23 35 -64.5 43.5t-76.5 -14.5q-35 -25 -43.5 -66.5t14.5 -76.5
q98 -147 267 -215q114 -49 198 -49q7 0 19 -3h24z" />
    <glyph glyph-name="four" unicode="4" horiz-adv-x="1527" 
d="M1087 -8q43 0 73 30t30 72v279h153q41 0 72 30.5t31 71.5q0 42 -30.5 72.5t-72.5 30.5h-153v935q0 32 -18.5 59.5t-47.5 37.5q-30 11 -61 3t-51 -32l-906 -1038q-42 -53 -14 -111q12 -26 37.5 -42.5t54.5 -16.5h801v-279q0 -41 30.5 -71.5t71.5 -30.5zM410 578l575 663
v-663h-575z" />
    <glyph glyph-name="five" unicode="5" horiz-adv-x="1288" 
d="M631 -25q94 0 192 29q103 36 178 94q132 102 183 256q50 162 -13 320q-48 114 -122 188q-69 69 -164 111q-184 73 -436 24q-45 -9 -60 -14l29 422h684q43 0 72.5 29.5t29.5 72.5t-29.5 73t-72.5 30h-780q-40 0 -70 -28t-33 -69l-45 -667q-3 -58 43 -90q48 -33 100 -11
q74 32 170 52q190 39 320 -15q120 -49 174 -184q35 -89 6 -182q-28 -93 -110 -156q-113 -86 -263 -80q-183 6 -368 144q-35 25 -77 18t-67 -41q-26 -34 -19.5 -75t40.5 -68q133 -93 248 -135q124 -45 237 -48h23z" />
    <glyph glyph-name="six" unicode="6" horiz-adv-x="1366" 
d="M1237 711q47 -103 47 -211q0 -111 -47 -211q-50 -101 -127 -170q-82 -74 -187 -114t-218 -40q-115 0 -220.5 40t-187.5 114q-80 74 -127 170q-33 73 -41 139q-37 112 -45.5 282.5t16.5 290.5q63 301 260 474q199 171 469 159q107 -5 201 -50.5t152 -121.5
q26 -34 20.5 -75.5t-39.5 -67.5t-75.5 -21t-67.5 39q-34 44 -90 67.5t-111 25.5q-186 9 -325 -111q-146 -127 -193 -358q-9 -37 -12 -89q2 2 4.5 5t3.5 4q168 151 408 151q237 0 405 -151q77 -69 127 -170zM705 170q155 0 264.5 96.5t109.5 233.5q0 135 -109.5 231
t-264.5 96q-156 0 -266.5 -96t-110.5 -231q0 -19 2 -27q4 -16 4 -27q22 -118 127 -197t244 -79z" />
    <glyph glyph-name="seven" unicode="7" horiz-adv-x="1290" 
d="M377 2q62 0 90 55l731 1403q25 51 -4 101q-28 49 -88 49h-922q-43 0 -72.5 -30t-29.5 -73q0 -42 30 -72t72 -30h754l-651 -1253q-20 -37 -7.5 -78t50.5 -60q21 -12 47 -12z" />
    <glyph glyph-name="eight" unicode="8" horiz-adv-x="1378" 
d="M1243 662q53 -92 53 -199q0 -104 -53 -199q-49 -86 -135 -153q-179 -134 -420 -134q-242 0 -418 134q-87 66 -137 153q-51 92 -51 199q0 110 51 199q50 90 137 153q28 22 60 41q-2 1 -6.5 4t-6.5 4q-76 61 -120 142q-47 86 -47 182t47 182q44 81 120 139q157 123 375 123
q219 0 373 -123q79 -58 123 -139q47 -86 47 -182t-47 -182q-44 -81 -123 -142q-6 -6 -14 -10q30 -18 57 -39q86 -65 135 -153zM444 1348q-90 -71 -90 -160q0 -91 90 -162q101 -78 248 -78t248 78q90 71 90 162q0 89 -90 160q-102 79 -248 79t-248 -79zM983 274
q109 83 109 189q0 109 -109 188q-122 92 -295 92t-295 -92q-106 -77 -106 -188q0 -109 106 -189q122 -92 295 -92t295 92z" />
    <glyph glyph-name="nine" unicode="9" horiz-adv-x="1366" 
d="M129 891q-47 103 -47 213q0 108 47 211q50 103 127 168q167 153 408 153q238 0 405 -153q77 -65 127 -168q32 -71 43 -141q35 -111 43.5 -282.5t-16.5 -291.5q-59 -300 -260 -473q-200 -172 -469 -160q-105 4 -199.5 50.5t-153.5 121.5q-26 34 -20.5 76.5t39.5 67.5
q34 26 75.5 20.5t67.5 -39.5q34 -44 89 -66.5t112 -25.5q186 -9 325 111q145 126 195 360q8 48 10 86q-1 -1 -4 -3t-4 -3q-82 -74 -187 -114t-218 -40q-115 0 -220.5 40t-187.5 114q-77 65 -127 168zM664 1432q-156 0 -266.5 -96.5t-110.5 -231.5q0 -137 110 -233.5
t267 -96.5q155 0 264.5 96.5t109.5 233.5q0 16 -2 24q-2 10 -2 29q-23 118 -128 196.5t-242 78.5z" />
    <glyph glyph-name="colon" unicode=":" horiz-adv-x="460" 
d="M379 1026q0 62 -44.5 106t-105.5 44t-104 -44t-43 -106t43 -104.5t104 -42.5q62 0 106 43t44 104zM379 201q0 61 -44 105t-106 44q-61 0 -104 -43.5t-43 -105.5t43 -105t104 -43q62 0 106 43.5t44 104.5z" />
    <glyph glyph-name="semicolon" unicode=";" horiz-adv-x="460" 
d="M231 -238q42 0 72.5 30.5t30.5 72.5v325q0 42 -30.5 72.5t-72.5 30.5q-43 0 -72.5 -30t-29.5 -73v-325q0 -43 29.5 -73t72.5 -30zM379 995q0 61 -43.5 104.5t-104.5 43.5q-62 0 -105.5 -43.5t-43.5 -104.5t44 -105t105 -44t104.5 43.5t43.5 105.5z" />
    <glyph glyph-name="less" unicode="&#x3c;" horiz-adv-x="1310" 
d="M1126 1382q-22 0 -45 -10l-942 -465q-26 -12 -41.5 -37t-15.5 -55q0 -29 15.5 -53.5t41.5 -38.5l932 -465q38 -19 78 -5t59 52t5.5 78t-50.5 59l-747 373l755 373q38 19 52.5 59t-4.5 78q-28 57 -93 57z" />
    <glyph glyph-name="equal" unicode="=" horiz-adv-x="1232" 
d="M1049 981q42 0 72 30t30 72q0 43 -29.5 73t-72.5 30h-865q-42 0 -72 -30t-30 -73q0 -41 30.5 -71.5t71.5 -30.5h865zM1049 444q42 0 72 30.5t30 72.5q0 43 -29.5 72.5t-72.5 29.5h-865q-42 0 -72 -30t-30 -72q0 -41 30.5 -72t71.5 -31h865z" />
    <glyph glyph-name="greater" unicode="&#x3e;" horiz-adv-x="1310" 
d="M184 250q22 0 45 10l942 465q26 12 42 37.5t16 54.5q0 62 -58 92l-929 465q-38 19 -79 5t-61 -52q-19 -38 -4.5 -78t52.5 -59l747 -373l-758 -373q-38 -19 -51.5 -59t6.5 -78q12 -27 36.5 -42t53.5 -15z" />
    <glyph glyph-name="question" unicode="?" horiz-adv-x="1150" 
d="M672 147q0 61 -44 105.5t-106 44.5q-61 0 -105 -44t-44 -106q0 -61 43.5 -105t105.5 -44t106 44t44 105zM514 416h4q42 1 71 32.5t27 73.5l-8 193q8 1 24.5 3t24.5 3q183 30 293 137q62 59 92 139q33 90 27 189q-3 107 -43 188q-38 78 -100 131q-110 93 -273 111
q-90 13 -141 4q-92 -15 -137 -31q-160 -59 -264 -172q-29 -31 -28 -72.5t32 -70.5t73.5 -28t71.5 32q50 54 118.5 88t103 41.5t48.5 7.5q3 0 5 2q7 1 18.5 1.5t44.5 -1.5t63.5 -7.5t67.5 -21t64 -38.5q68 -59 71 -172q6 -111 -57 -174q-53 -53 -142.5 -72t-156.5 -17
q-47 3 -78 -28t-31 -78l13 -295q1 -41 31.5 -69.5t70.5 -28.5z" />
    <glyph glyph-name="at" unicode="@" horiz-adv-x="2009" 
d="M1855 1069q72 -173 72 -358q0 -109 -20 -203q-27 -124 -123 -207q-81 -75 -203 -94q-116 -15 -221 31q-62 30 -111 79q-113 -69 -243 -69q-193 0 -328 135t-135 328q0 192 135 327q139 136 328 136q188 0 327 -136q135 -138 135 -327q0 -135 -73 -250q15 -17 51 -37
q48 -20 106 -14q59 10 97 45q46 39 57 98q16 82 16 158q0 143 -54 274t-155 234q-102 101 -233 154.5t-274 53.5q-145 0 -276 -53.5t-232 -154.5q-102 -103 -156.5 -234.5t-54.5 -273.5q0 -144 54.5 -275t156.5 -233t233 -156.5t275 -54.5q117 0 227 37q40 13 77.5 -5.5
t51.5 -58.5q14 -41 -5.5 -79.5t-60.5 -51.5q-139 -47 -290 -47q-187 0 -361 74q-160 66 -293 196q-130 133 -196 293q-74 174 -74 361t74 358q66 163 196 293q128 128 293 199q174 71 361 71t358 -71q168 -71 293 -199q126 -123 198 -293zM748 711q0 -107 75.5 -182.5
t182.5 -75.5q106 0 182 75.5t76 182.5q0 106 -76 182t-182 76q-107 0 -182.5 -76t-75.5 -182z" />
    <glyph glyph-name="A" unicode="A" horiz-adv-x="1638" 
d="M1507 8q39 19 54 58t-2 79l-637 1405q-10 26 -37 43t-56 17q-65 0 -94 -60l-647 -1405q-41 -95 18 -133q33 -20 68.5 -12.5t65.5 37.5q130 127 286 223q148 90 308 121q195 44 395 -6l141 -316q21 -40 61.5 -53.5t75.5 2.5zM827 1262l310 -680q-181 16 -336 -19
q-185 -37 -367 -139z" />
    <glyph glyph-name="B" unicode="B" 
d="M1372 410q13 164 -61 288t-183 162q186 136 152 381q-26 182 -154.5 275.5t-334.5 93.5h-607q-42 0 -72 -30t-30 -73v-1405q0 -39 31 -73q29 -29 71 -29h705q205 0 336.5 110.5t146.5 299.5zM1167 428q-20 -221 -278 -221h-602v1198h504q133 0 203.5 -45t82.5 -143
q13 -124 -43 -198.5t-170 -86.5l-155 -2q-42 0 -72.5 -30.5t-30.5 -72.5q2 -42 32 -72t71 -30h2l159 2h7q153 0 229 -75.5t61 -223.5z" />
    <glyph glyph-name="C" unicode="C" horiz-adv-x="1574" 
d="M924 -27q146 0 288 54q134 50 244 141q32 26 36 68.5t-24 74.5t-69.5 36.5t-73.5 -23.5q-87 -71 -184 -107q-109 -39 -217 -39q-127 0 -243.5 49t-207.5 140q-86 83 -137 200q-49 116 -49 242q0 129 49 242q48 111 137 200q87 87 205 138q119 49 250 49q212 0 377 -127
q32 -25 74.5 -19.5t68.5 39.5q25 34 19 76t-40 68q-215 167 -499 167q-171 0 -328 -65q-158 -68 -270 -180q-117 -114 -183 -264q-65 -154 -65 -324q0 -175 65 -322q66 -154 181 -266q113 -113 266 -180q157 -68 330 -68z" />
    <glyph glyph-name="D" unicode="D" horiz-adv-x="1568" 
d="M651 0q165 0 322 63q151 63 266 175q114 108 180 256q68 148 68 307q0 160 -66 313q-65 148 -178 258q-118 112 -266 174q-156 64 -322 64h-469q-42 0 -73 -31q-31 -28 -31 -72v-1405q0 -42 30 -72t74 -30h463h2zM289 207v1198h366q260 0 443 -180q83 -81 135 -193
q49 -110 49 -231q0 -116 -49 -223q-56 -115 -137 -193q-84 -81 -201 -129q-113 -46 -240 -49h-366z" />
    <glyph glyph-name="E" unicode="E" horiz-adv-x="1347" 
d="M1163 205q43 0 73 -30t30 -73t-30 -72.5t-73 -29.5h-979q-42 0 -72 30t-30 72v1405q0 43 30 73t72 30h959q43 0 72.5 -30t29.5 -73t-29.5 -72.5t-72.5 -29.5h-856v-494h757q42 0 72.5 -30.5t30.5 -71.5q0 -43 -30 -72.5t-73 -29.5h-757v-502h876z" />
    <glyph glyph-name="F" unicode="F" horiz-adv-x="1331" 
d="M1147 1610q42 0 72 -30.5t30 -72.5q0 -43 -29.5 -72.5t-72.5 -29.5h-860v-514h735q41 0 71.5 -31t30.5 -72q0 -42 -30 -72t-72 -30h-735v-584q0 -42 -30.5 -72t-72.5 -30t-72 30t-30 72v1405q0 42 30 72.5t72 30.5h963z" />
    <glyph glyph-name="G" unicode="G" horiz-adv-x="1646" 
d="M924 -37q182 0 342 74q150 68 272 199q27 30 27 67v469q0 43 -30 72.5t-73 29.5t-72.5 -29.5t-29.5 -72.5v-426q-74 -74 -178 -123q-119 -55 -258 -55q-127 0 -243.5 48.5t-207.5 139.5q-86 83 -137 201q-49 113 -49 242q0 125 49 241q48 110 139 201q88 88 203 135
q117 51 250 51q202 0 358 -114q35 -24 77 -17t67 41q25 35 17.5 77t-42.5 67q-214 151 -477 151q-171 0 -328 -65q-156 -67 -270 -181q-117 -114 -183 -264q-65 -154 -65 -323q0 -174 65 -324q67 -153 181 -264q119 -119 268 -180q154 -68 328 -68z" />
    <glyph glyph-name="H" unicode="H" 
d="M1272 1610q43 0 72.5 -30t29.5 -73v-1405q0 -42 -30 -72t-72 -30q-41 0 -72 30.5t-31 71.5v619h-882v-619q0 -42 -30.5 -72t-72.5 -30t-72 30t-30 72v1405q0 43 29.5 73t72.5 30t73 -30t30 -73v-581h882v581q0 42 30.5 72.5t72.5 30.5z" />
    <glyph glyph-name="I" unicode="I" horiz-adv-x="389" 
d="M195 0q43 0 72.5 29.5t29.5 72.5v1405q0 42 -30 72.5t-72 30.5q-41 0 -72 -31t-31 -72v-1405q0 -42 30.5 -72t72.5 -30z" />
    <glyph glyph-name="J" unicode="J" horiz-adv-x="1075" 
d="M530 -23q121 0 211 37q87 37 144 99q108 116 108 303v1091q0 43 -30.5 73t-71.5 30q-43 0 -73 -30t-30 -73v-1101q0 -97 -53 -156q-65 -68 -207 -68q-56 0 -118 15q-103 27 -148 96q-22 37 -63 48t-76 -11q-37 -23 -48 -64t11 -78q88 -145 279 -192q81 -19 165 -19z" />
    <glyph glyph-name="K" unicode="K" horiz-adv-x="1368" 
d="M184 1610q42 0 72.5 -30.5t30.5 -72.5v-1405q0 -43 -30 -72.5t-73 -29.5t-72.5 29.5t-29.5 72.5v1405q0 42 30 72.5t72 30.5zM1276 147q19 -38 5 -78t-52 -59q-23 -10 -45 -10q-29 0 -54 15t-38 42q-110 229 -271 404q-74 79 -117 121.5t-106 94t-129 89.5q-2 1 -5 3
t-5 3q-2 2 -6.5 5t-6.5 5q-23 26 -26 56q-6 34 12 69q10 17 25 29l635 645q29 31 72.5 30t72.5 -32q29 -29 28 -70.5t-30 -72.5l-553 -564q186 -131 337.5 -320t256.5 -405z" />
    <glyph glyph-name="L" unicode="L" horiz-adv-x="1261" 
d="M1077 0q43 0 73 29.5t30 72.5t-30 73t-73 30h-790v1302q0 43 -30 73t-73 30q-42 0 -72 -30t-30 -73v-1405q0 -42 30 -72t72 -30h893z" />
    <glyph glyph-name="M" unicode="M" horiz-adv-x="1751" 
d="M1567 0q42 0 72 30t30 72v1409q0 34 -19.5 61t-50.5 38q-32 10 -63 0t-53 -37l-606 -1026l-609 1026q-20 27 -52 37t-62 0q-32 -10 -52 -37.5t-20 -61.5v-1409q0 -41 30.5 -71.5t71.5 -30.5q42 0 72.5 30t30.5 72v1035l506 -846q30 -41 84 -41t81 41l504 846v-1035
q0 -41 31.5 -71.5t73.5 -30.5z" />
    <glyph glyph-name="N" unicode="N" horiz-adv-x="1540" 
d="M1395 8q63 18 63 92v1409q0 43 -30 73t-72 30q-43 0 -73 -30t-30 -73v-1124l-991 1188q-20 25 -50.5 33.5t-61.5 -2.5q-31 -10 -49.5 -37t-18.5 -60v-1405q0 -43 29.5 -72.5t72.5 -29.5t73 29.5t30 72.5v1123l989 -1190q19 -24 54 -30.5t65 3.5z" />
    <glyph glyph-name="O" unicode="O" horiz-adv-x="1816" 
d="M913 -35q169 0 321 64t271 184q113 113 176 266q64 149 64 322q0 169 -64 321q-65 155 -174 264q-117 120 -268.5 184t-318.5 64q-173 0 -330 -65q-154 -66 -268 -180q-117 -114 -183 -265q-67 -152 -67 -323q0 -168 65 -322q63 -145 180 -266q113 -113 269 -180
q157 -68 327 -68zM920 1430q126 0 240 -48t202 -139q86 -88 132 -202t46 -240t-47 -244q-52 -120 -133 -201q-90 -90 -205 -138t-242 -48t-243 48.5t-207 139.5q-86 83 -137 201q-50 118 -50 242q0 128 52 241q46 113 137 201q87 87 205 137q121 50 250 50z" />
    <glyph glyph-name="P" unicode="P" horiz-adv-x="1374" 
d="M184 0q43 0 73 29.5t30 72.5v1303h506q78 0 155 -45q62 -36 94 -94q45 -79 45 -201q0 -177 -133 -252q-118 -68 -338 -68q-42 0 -72 -30t-30 -72t30 -72t72 -30q275 0 441 94q235 134 235 430q0 132 -41 238q-37 94 -106 163q-95 92 -232 127q-67 17 -120 17h-609
q-42 0 -72 -30t-30 -73v-1405q0 -42 30 -72t72 -30z" />
    <glyph glyph-name="Q" unicode="Q" horiz-adv-x="1837" 
d="M1292 59q116 -108 164 -290q12 -41 -9.5 -77.5t-62.5 -47.5q-24 -9 -51 -2q-27 8 -46.5 27t-26.5 46q-45 159 -142 222q-51 36 -90 36h2v4q-155 -19 -309 19q-163 40 -303 143q-130 100 -215 240q-87 144 -111 301q-28 172 14 330q41 167 142 297q100 131 241 213
q144 84 306 108q165 27 333 -14q163 -41 295 -140t217 -243q85 -148 105 -299q25 -170 -14 -328q-45 -165 -142 -297q-93 -127 -235 -215q-26 -17 -62 -33zM379 485q66 -110 167 -184.5t224 -105.5t246.5 -12t230.5 85q102 60 178 162q78 109 107 223q30 123 12.5 245.5
t-80.5 229.5q-63 108 -162.5 182t-222.5 105q-127 30 -254 12q-127 -22 -231 -84q-108 -62 -182 -161q-81 -105 -107 -221q-30 -125 -10 -248q18 -121 84 -228z" />
    <glyph glyph-name="R" unicode="R" horiz-adv-x="1374" 
d="M1180 2q3 0 9.5 1t10.5 1q41 7 64.5 43t15.5 78q-48 242 -156 389q-48 63 -100 107q4 2 15.5 7.5t17.5 8.5q115 66 175 175.5t60 254.5q0 132 -41 238q-37 95 -106 163q-91 91 -232 127q-67 17 -120 17h-609q-42 0 -72 -30t-30 -73v-1405q0 -41 30.5 -71.5t71.5 -30.5
q42 0 72.5 30t30.5 72v1303h506q77 0 155 -43q62 -40 94 -94q45 -82 45 -203q0 -177 -133 -252q-94 -54 -252 -63q-59 4 -104 -7q-38 -6 -62.5 -38t-19.5 -70q3 -40 32.5 -67t67.5 -27q15 0 43 1t41 1q65 -4 119 -33q88 -43 144 -125q78 -112 116 -301q7 -36 36 -60t65 -24z
" />
    <glyph glyph-name="S" unicode="S" horiz-adv-x="1335" 
d="M684 -33q47 0 104.5 8.5t132 34t137.5 64.5t114.5 107t68.5 155q11 55 10.5 105.5t-13 105t-45.5 103.5t-85 93.5t-134 82t-188 63.5q-82 20 -135.5 34.5t-110.5 32.5t-91.5 35t-67 38.5t-49.5 45.5t-27 54t-10 67q0 67 30.5 117t81.5 77.5t108.5 40.5t121.5 13
q133 0 201 -27q109 -42 178 -117q3 -3 12.5 -12t15.5 -12q28 -14 58 -7t49 31q37 44 18 97q-20 58 -81 110t-146 84q-136 54 -305 54q-369 0 -508 -279q-21 -44 -30 -108.5t1.5 -139t42.5 -127.5q70 -120 252 -192q114 -48 289 -84q51 -11 91 -21.5t88 -29.5t82.5 -41
t64 -55.5t43.5 -73.5q24 -70 -6 -148q-50 -127 -226 -164q-124 -25 -268 -4q-205 33 -299 148q-27 36 -43 45q-54 27 -99 -21t-26 -104q39 -110 174 -180q106 -61 262 -86q86 -13 162 -13z" />
    <glyph glyph-name="T" unicode="T" horiz-adv-x="1472" 
d="M1288 1610q43 0 73 -30t30 -73t-30 -72.5t-73 -29.5h-448v-1303q0 -42 -30.5 -72t-72.5 -30q-43 0 -72.5 29.5t-29.5 72.5v1303h-451q-43 0 -72.5 29.5t-29.5 72.5t29.5 73t72.5 30h1104z" />
    <glyph glyph-name="U" unicode="U" horiz-adv-x="1517" 
d="M760 -25q102 0 189.5 19t149.5 48.5t113 71.5t83 82.5t57 86.5q84 154 84 370v854q0 42 -30.5 72.5t-72.5 30.5q-41 0 -71.5 -31t-30.5 -72v-854q0 -161 -60 -274q-46 -84 -131 -135q-112 -64 -280 -64q-169 0 -281 64q-83 48 -133 137q-59 109 -59 272v854
q0 42 -30.5 72.5t-72.5 30.5q-41 0 -71.5 -31t-30.5 -72v-854q0 -214 84 -370q77 -139 211 -215q159 -93 383 -93z" />
    <glyph glyph-name="V" unicode="V" horiz-adv-x="1542" 
d="M772 -4q31 0 56.5 17t37.5 46l586 1418q17 38 1 77t-56 56q-38 17 -78 0t-55 -56l-492 -1187l-491 1187q-18 39 -57.5 56t-78.5 0q-38 -17 -54 -56t-1 -77l586 -1418q12 -29 38 -46t58 -17z" />
    <glyph glyph-name="W" unicode="W" horiz-adv-x="2293" 
d="M1636 -6q33 0 60 18.5t37 48.5l473 1418q14 40 -4 78t-58 53q-40 14 -79 -4.5t-52 -57.5l-377 -1134l-393 1134q-10 31 -37 49.5t-59 18.5t-59 -18.5t-37 -49.5l-387 -1134l-383 1134q-13 39 -52 57.5t-79 4.5q-40 -15 -58 -53t-4 -78l479 -1418q10 -30 37 -48.5
t60 -18.5t59.5 18.5t36.5 48.5l387 1135l393 -1135q10 -30 36.5 -48.5t59.5 -18.5z" />
    <glyph glyph-name="X" unicode="X" horiz-adv-x="1409" 
d="M1309 162q25 -35 18 -77t-41 -67q-35 -23 -76 -17t-67 40l-436 606l-439 -606q-26 -34 -67 -40t-76 17q-35 25 -42 67t19 77l478 661l-451 623q-26 35 -19 76.5t42 66.5q34 25 75.5 18.5t67.5 -40.5l412 -570l409 570q25 34 67 40.5t77 -18.5q34 -25 40.5 -66.5
t-18.5 -76.5l-451 -623z" />
    <glyph glyph-name="Y" unicode="Y" horiz-adv-x="1468" 
d="M1341 1593q35 -25 43.5 -66.5t-14.5 -76.5l-534 -799v-549q0 -42 -30 -72t-73 -30q-41 0 -71.5 30.5t-30.5 71.5v549l-533 799q-23 35 -14.5 76.5t43.5 66.5q35 23 76.5 15t64.5 -43l465 -699l467 699q23 35 64.5 43t76.5 -15z" />
    <glyph glyph-name="Z" unicode="Z" horiz-adv-x="1482" 
d="M1298 2q41 0 72 30.5t31 71.5q0 42 -30.5 72.5t-72.5 30.5h-903l983 1237q39 48 13 108q-14 26 -39 42t-54 16h-1083q-41 0 -71.5 -30t-30.5 -73q0 -42 30 -72t72 -30h870l-983 -1235q-39 -49 -12 -109q29 -59 92 -59h1116z" />
    <glyph glyph-name="asciicircum" unicode="^" horiz-adv-x="911" 
d="M184 1114q48 0 78 35l193 217l196 -217q27 -32 70.5 -34t73.5 26q32 29 34 71t-26 74l-271 301q-30 35 -77 35q-46 0 -76 -35l-270 -301q-28 -32 -26 -74t34 -71q30 -27 67 -27z" />
    <glyph glyph-name="underscore" unicode="_" horiz-adv-x="1427" 
d="M1305 -369q41 0 71.5 30.5t30.5 72.5t-30 72t-72 30h-1182q-43 0 -73 -29.5t-30 -72.5t30 -73t73 -30h1182z" />
    <glyph glyph-name="a" unicode="a" horiz-adv-x="1638" 
d="M1507 8q39 19 54 58t-2 79l-637 1405q-10 26 -37 43t-56 17q-65 0 -94 -60l-647 -1405q-41 -95 18 -133q33 -20 68.5 -12.5t65.5 37.5q130 127 286 223q148 90 308 121q195 44 395 -6l141 -316q21 -40 61.5 -53.5t75.5 2.5zM827 1262l310 -680q-181 16 -336 -19
q-185 -37 -367 -139z" />
    <glyph glyph-name="b" unicode="b" 
d="M1372 410q13 164 -61 288t-183 162q186 136 152 381q-26 182 -154.5 275.5t-334.5 93.5h-607q-42 0 -72 -30t-30 -73v-1405q0 -39 31 -73q29 -29 71 -29h705q205 0 336.5 110.5t146.5 299.5zM1167 428q-20 -221 -278 -221h-602v1198h504q133 0 203.5 -45t82.5 -143
q13 -124 -43 -198.5t-170 -86.5l-155 -2q-42 0 -72.5 -30.5t-30.5 -72.5q2 -42 32 -72t71 -30h2l159 2h7q153 0 229 -75.5t61 -223.5z" />
    <glyph glyph-name="c" unicode="c" horiz-adv-x="1574" 
d="M924 -27q146 0 288 54q134 50 244 141q32 26 36 68.5t-24 74.5t-69.5 36.5t-73.5 -23.5q-87 -71 -184 -107q-109 -39 -217 -39q-127 0 -243.5 49t-207.5 140q-86 83 -137 200q-49 116 -49 242q0 129 49 242q48 111 137 200q87 87 205 138q119 49 250 49q212 0 377 -127
q32 -25 74.5 -19.5t68.5 39.5q25 34 19 76t-40 68q-215 167 -499 167q-171 0 -328 -65q-158 -68 -270 -180q-117 -114 -183 -264q-65 -154 -65 -324q0 -175 65 -322q66 -154 181 -266q113 -113 266 -180q157 -68 330 -68z" />
    <glyph glyph-name="d" unicode="d" horiz-adv-x="1568" 
d="M651 0q165 0 322 63q151 63 266 175q114 108 180 256q68 148 68 307q0 160 -66 313q-65 148 -178 258q-118 112 -266 174q-156 64 -322 64h-469q-42 0 -73 -31q-31 -28 -31 -72v-1405q0 -42 30 -72t74 -30h463h2zM289 207v1198h366q260 0 443 -180q83 -81 135 -193
q49 -110 49 -231q0 -116 -49 -223q-56 -115 -137 -193q-84 -81 -201 -129q-113 -46 -240 -49h-366z" />
    <glyph glyph-name="e" unicode="e" horiz-adv-x="1347" 
d="M1163 205q43 0 73 -30t30 -73t-30 -72.5t-73 -29.5h-979q-42 0 -72 30t-30 72v1405q0 43 30 73t72 30h959q43 0 72.5 -30t29.5 -73t-29.5 -72.5t-72.5 -29.5h-856v-494h757q42 0 72.5 -30.5t30.5 -71.5q0 -43 -30 -72.5t-73 -29.5h-757v-502h876z" />
    <glyph glyph-name="f" unicode="f" horiz-adv-x="1331" 
d="M1147 1610q42 0 72 -30.5t30 -72.5q0 -43 -29.5 -72.5t-72.5 -29.5h-860v-514h735q41 0 71.5 -31t30.5 -72q0 -42 -30 -72t-72 -30h-735v-584q0 -42 -30.5 -72t-72.5 -30t-72 30t-30 72v1405q0 42 30 72.5t72 30.5h963z" />
    <glyph glyph-name="g" unicode="g" horiz-adv-x="1646" 
d="M924 -37q182 0 342 74q150 68 272 199q27 30 27 67v469q0 43 -30 72.5t-73 29.5t-72.5 -29.5t-29.5 -72.5v-426q-74 -74 -178 -123q-119 -55 -258 -55q-127 0 -243.5 48.5t-207.5 139.5q-86 83 -137 201q-49 113 -49 242q0 125 49 241q48 110 139 201q88 88 203 135
q117 51 250 51q202 0 358 -114q35 -24 77 -17t67 41q25 35 17.5 77t-42.5 67q-214 151 -477 151q-171 0 -328 -65q-156 -67 -270 -181q-117 -114 -183 -264q-65 -154 -65 -323q0 -174 65 -324q67 -153 181 -264q119 -119 268 -180q154 -68 328 -68z" />
    <glyph glyph-name="h" unicode="h" 
d="M1272 1610q43 0 72.5 -30t29.5 -73v-1405q0 -42 -30 -72t-72 -30q-41 0 -72 30.5t-31 71.5v619h-882v-619q0 -42 -30.5 -72t-72.5 -30t-72 30t-30 72v1405q0 43 29.5 73t72.5 30t73 -30t30 -73v-581h882v581q0 42 30.5 72.5t72.5 30.5z" />
    <glyph glyph-name="i" unicode="i" horiz-adv-x="389" 
d="M195 0q43 0 72.5 29.5t29.5 72.5v1405q0 42 -30 72.5t-72 30.5q-41 0 -72 -31t-31 -72v-1405q0 -42 30.5 -72t72.5 -30z" />
    <glyph glyph-name="j" unicode="j" horiz-adv-x="1075" 
d="M530 -23q121 0 211 37q87 37 144 99q108 116 108 303v1091q0 43 -30.5 73t-71.5 30q-43 0 -73 -30t-30 -73v-1101q0 -97 -53 -156q-65 -68 -207 -68q-56 0 -118 15q-103 27 -148 96q-22 37 -63 48t-76 -11q-37 -23 -48 -64t11 -78q88 -145 279 -192q81 -19 165 -19z" />
    <glyph glyph-name="k" unicode="k" horiz-adv-x="1368" 
d="M184 1610q42 0 72.5 -30.5t30.5 -72.5v-1405q0 -43 -30 -72.5t-73 -29.5t-72.5 29.5t-29.5 72.5v1405q0 42 30 72.5t72 30.5zM1276 147q19 -38 5 -78t-52 -59q-23 -10 -45 -10q-29 0 -54 15t-38 42q-110 229 -271 404q-74 79 -117 121.5t-106 94t-129 89.5q-2 1 -5 3
t-5 3q-2 2 -6.5 5t-6.5 5q-23 26 -26 56q-6 34 12 69q10 17 25 29l635 645q29 31 72.5 30t72.5 -32q29 -29 28 -70.5t-30 -72.5l-553 -564q186 -131 337.5 -320t256.5 -405z" />
    <glyph glyph-name="l" unicode="l" horiz-adv-x="1261" 
d="M1077 0q43 0 73 29.5t30 72.5t-30 73t-73 30h-790v1302q0 43 -30 73t-73 30q-42 0 -72 -30t-30 -73v-1405q0 -42 30 -72t72 -30h893z" />
    <glyph glyph-name="m" unicode="m" horiz-adv-x="1751" 
d="M1567 0q42 0 72 30t30 72v1409q0 34 -19.5 61t-50.5 38q-32 10 -63 0t-53 -37l-606 -1026l-609 1026q-20 27 -52 37t-62 0q-32 -10 -52 -37.5t-20 -61.5v-1409q0 -41 30.5 -71.5t71.5 -30.5q42 0 72.5 30t30.5 72v1035l506 -846q30 -41 84 -41t81 41l504 846v-1035
q0 -41 31.5 -71.5t73.5 -30.5z" />
    <glyph glyph-name="n" unicode="n" horiz-adv-x="1540" 
d="M1395 8q63 18 63 92v1409q0 43 -30 73t-72 30q-43 0 -73 -30t-30 -73v-1124l-991 1188q-20 25 -50.5 33.5t-61.5 -2.5q-31 -10 -49.5 -37t-18.5 -60v-1405q0 -43 29.5 -72.5t72.5 -29.5t73 29.5t30 72.5v1123l989 -1190q19 -24 54 -30.5t65 3.5z" />
    <glyph glyph-name="o" unicode="o" horiz-adv-x="1816" 
d="M913 -35q169 0 321 64t271 184q113 113 176 266q64 149 64 322q0 169 -64 321q-65 155 -174 264q-117 120 -268.5 184t-318.5 64q-173 0 -330 -65q-154 -66 -268 -180q-117 -114 -183 -265q-67 -152 -67 -323q0 -168 65 -322q63 -145 180 -266q113 -113 269 -180
q157 -68 327 -68zM920 1430q126 0 240 -48t202 -139q86 -88 132 -202t46 -240t-47 -244q-52 -120 -133 -201q-90 -90 -205 -138t-242 -48t-243 48.5t-207 139.5q-86 83 -137 201q-50 118 -50 242q0 128 52 241q46 113 137 201q87 87 205 137q121 50 250 50z" />
    <glyph glyph-name="p" unicode="p" horiz-adv-x="1374" 
d="M184 0q43 0 73 29.5t30 72.5v1303h506q78 0 155 -45q62 -36 94 -94q45 -79 45 -201q0 -177 -133 -252q-118 -68 -338 -68q-42 0 -72 -30t-30 -72t30 -72t72 -30q275 0 441 94q235 134 235 430q0 132 -41 238q-37 94 -106 163q-95 92 -232 127q-67 17 -120 17h-609
q-42 0 -72 -30t-30 -73v-1405q0 -42 30 -72t72 -30z" />
    <glyph glyph-name="q" unicode="q" horiz-adv-x="1837" 
d="M1292 59q116 -108 164 -290q12 -41 -9.5 -77.5t-62.5 -47.5q-24 -9 -51 -2q-27 8 -46.5 27t-26.5 46q-45 159 -142 222q-51 36 -90 36h2v4q-155 -19 -309 19q-163 40 -303 143q-130 100 -215 240q-87 144 -111 301q-28 172 14 330q41 167 142 297q100 131 241 213
q144 84 306 108q165 27 333 -14q163 -41 295 -140t217 -243q85 -148 105 -299q25 -170 -14 -328q-45 -165 -142 -297q-93 -127 -235 -215q-26 -17 -62 -33zM379 485q66 -110 167 -184.5t224 -105.5t246.5 -12t230.5 85q102 60 178 162q78 109 107 223q30 123 12.5 245.5
t-80.5 229.5q-63 108 -162.5 182t-222.5 105q-127 30 -254 12q-127 -22 -231 -84q-108 -62 -182 -161q-81 -105 -107 -221q-30 -125 -10 -248q18 -121 84 -228z" />
    <glyph glyph-name="r" unicode="r" horiz-adv-x="1374" 
d="M1180 2q3 0 9.5 1t10.5 1q41 7 64.5 43t15.5 78q-48 242 -156 389q-48 63 -100 107q4 2 15.5 7.5t17.5 8.5q115 66 175 175.5t60 254.5q0 132 -41 238q-37 95 -106 163q-91 91 -232 127q-67 17 -120 17h-609q-42 0 -72 -30t-30 -73v-1405q0 -41 30.5 -71.5t71.5 -30.5
q42 0 72.5 30t30.5 72v1303h506q77 0 155 -43q62 -40 94 -94q45 -82 45 -203q0 -177 -133 -252q-94 -54 -252 -63q-59 4 -104 -7q-38 -6 -62.5 -38t-19.5 -70q3 -40 32.5 -67t67.5 -27q15 0 43 1t41 1q65 -4 119 -33q88 -43 144 -125q78 -112 116 -301q7 -36 36 -60t65 -24z
" />
    <glyph glyph-name="s" unicode="s" horiz-adv-x="1335" 
d="M684 -33q47 0 104.5 8.5t132 34t137.5 64.5t114.5 107t68.5 155q11 55 10.5 105.5t-13 105t-45.5 103.5t-85 93.5t-134 82t-188 63.5q-82 20 -135.5 34.5t-110.5 32.5t-91.5 35t-67 38.5t-49.5 45.5t-27 54t-10 67q0 67 30.5 117t81.5 77.5t108.5 40.5t121.5 13
q133 0 201 -27q109 -42 178 -117q3 -3 12.5 -12t15.5 -12q28 -14 58 -7t49 31q37 44 18 97q-20 58 -81 110t-146 84q-136 54 -305 54q-369 0 -508 -279q-21 -44 -30 -108.5t1.5 -139t42.5 -127.5q70 -120 252 -192q114 -48 289 -84q51 -11 91 -21.5t88 -29.5t82.5 -41
t64 -55.5t43.5 -73.5q24 -70 -6 -148q-50 -127 -226 -164q-124 -25 -268 -4q-205 33 -299 148q-27 36 -43 45q-54 27 -99 -21t-26 -104q39 -110 174 -180q106 -61 262 -86q86 -13 162 -13z" />
    <glyph glyph-name="t" unicode="t" horiz-adv-x="1472" 
d="M1288 1610q43 0 73 -30t30 -73t-30 -72.5t-73 -29.5h-448v-1303q0 -42 -30.5 -72t-72.5 -30q-43 0 -72.5 29.5t-29.5 72.5v1303h-451q-43 0 -72.5 29.5t-29.5 72.5t29.5 73t72.5 30h1104z" />
    <glyph glyph-name="u" unicode="u" horiz-adv-x="1517" 
d="M760 -25q102 0 189.5 19t149.5 48.5t113 71.5t83 82.5t57 86.5q84 154 84 370v854q0 42 -30.5 72.5t-72.5 30.5q-41 0 -71.5 -31t-30.5 -72v-854q0 -161 -60 -274q-46 -84 -131 -135q-112 -64 -280 -64q-169 0 -281 64q-83 48 -133 137q-59 109 -59 272v854
q0 42 -30.5 72.5t-72.5 30.5q-41 0 -71.5 -31t-30.5 -72v-854q0 -214 84 -370q77 -139 211 -215q159 -93 383 -93z" />
    <glyph glyph-name="v" unicode="v" horiz-adv-x="1542" 
d="M772 -4q31 0 56.5 17t37.5 46l586 1418q17 38 1 77t-56 56q-38 17 -78 0t-55 -56l-492 -1187l-491 1187q-18 39 -57.5 56t-78.5 0q-38 -17 -54 -56t-1 -77l586 -1418q12 -29 38 -46t58 -17z" />
    <glyph glyph-name="w" unicode="w" horiz-adv-x="2293" 
d="M1636 -6q33 0 60 18.5t37 48.5l473 1418q14 40 -4 78t-58 53q-40 14 -79 -4.5t-52 -57.5l-377 -1134l-393 1134q-10 31 -37 49.5t-59 18.5t-59 -18.5t-37 -49.5l-387 -1134l-383 1134q-13 39 -52 57.5t-79 4.5q-40 -15 -58 -53t-4 -78l479 -1418q10 -30 37 -48.5
t60 -18.5t59.5 18.5t36.5 48.5l387 1135l393 -1135q10 -30 36.5 -48.5t59.5 -18.5z" />
    <glyph glyph-name="x" unicode="x" horiz-adv-x="1409" 
d="M1309 162q25 -35 18 -77t-41 -67q-35 -23 -76 -17t-67 40l-436 606l-439 -606q-26 -34 -67 -40t-76 17q-35 25 -42 67t19 77l478 661l-451 623q-26 35 -19 76.5t42 66.5q34 25 75.5 18.5t67.5 -40.5l412 -570l409 570q25 34 67 40.5t77 -18.5q34 -25 40.5 -66.5
t-18.5 -76.5l-451 -623z" />
    <glyph glyph-name="y" unicode="y" horiz-adv-x="1468" 
d="M1341 1593q35 -25 43.5 -66.5t-14.5 -76.5l-534 -799v-549q0 -42 -30 -72t-73 -30q-41 0 -71.5 30.5t-30.5 71.5v549l-533 799q-23 35 -14.5 76.5t43.5 66.5q35 23 76.5 15t64.5 -43l465 -699l467 699q23 35 64.5 43t76.5 -15z" />
    <glyph glyph-name="z" unicode="z" horiz-adv-x="1482" 
d="M1298 2q41 0 72 30.5t31 71.5q0 42 -30.5 72.5t-72.5 30.5h-903l983 1237q39 48 13 108q-14 26 -39 42t-54 16h-1083q-41 0 -71.5 -30t-30.5 -73q0 -42 30 -72t72 -30h870l-983 -1235q-39 -49 -12 -109q29 -59 92 -59h1116z" />
    <glyph glyph-name="copyright" unicode="&#xa9;" horiz-adv-x="1996" 
d="M1010 231q143 0 258 80q35 23 43 65t-17 77q-23 35 -64.5 43t-76.5 -15q-62 -45 -143 -45q-107 0 -182.5 76t-75.5 182t75.5 182t182.5 76q69 0 127 -34q37 -20 78 -9.5t63 47.5q20 37 9 77.5t-48 62.5q-104 61 -229 61q-196 0 -328 -135q-135 -135 -135 -328
q0 -192 135 -327q136 -136 328 -136zM999 -227q186 0 357 71q164 71 291 201q123 123 196 295q72 176 72 360q0 188 -72 361q-72 170 -196 297q-127 128 -291 198q-171 74 -357 74q-187 0 -358 -74q-163 -70 -291 -198q-124 -127 -196 -297q-72 -173 -72 -361
q0 -184 72 -360q73 -172 196 -295q127 -130 291 -201q171 -71 358 -71zM999 1425q141 0 271 -55t231 -158q101 -101 155 -233.5t54 -278.5q0 -145 -54 -277t-155 -235q-101 -102 -230.5 -156.5t-271.5 -54.5q-143 0 -272.5 54t-230.5 157q-100 103 -154.5 235.5t-54.5 276.5
q0 145 54.5 277.5t154.5 234.5q101 103 231 158t272 55z" />
    <glyph glyph-name="A.ss02" horiz-adv-x="1546" 
d="M2451 -432q38 -20 50.5 -61t-9.5 -78q-2 -5 -13.5 -24t-37 -53.5t-53.5 -66.5q-144 -159 -305 -162h-8q-228 0 -410 302q-182 300 -500 991h-422q-43 0 -72.5 29.5t-29.5 72.5q0 42 30 72.5t72 30.5h330l-278 628l-516 -1188q-17 -38 -57.5 -54t-78.5 1q-40 17 -55 57
t2 78l612 1405q12 28 38 45t57 17t56.5 -17.5t37.5 -46.5q660 -1540 948 -2015q127 -207 238 -203q76 2 159 94q21 22 40 48.5t28 41.5l10 15q20 37 60 49t77 -8z" />
    <glyph glyph-name="A.ss03" horiz-adv-x="1716" 
d="M82 147l684 1405q12 26 36.5 42t53.5 16h2q29 0 53.5 -16t36.5 -42l686 -1402q19 -37 5 -77.5t-52 -60.5q-37 -18 -77 -4t-60 51l-172 357h-510q-43 0 -72.5 29.5t-29.5 72.5q0 42 30 72.5t72 30.5h410l-320 653l-592 -1217q-28 -57 -92 -57q-22 0 -45 10q-38 19 -52 59
t5 78z" />
    <glyph glyph-name="G.ss03" horiz-adv-x="1646" 
d="M1565 778v-2v-469q0 -37 -27 -67q-122 -131 -272 -199q-160 -74 -342 -74q-173 0 -330 68q-148 62 -266 180q-114 111 -181 264q-65 150 -65 324q0 169 65 323q66 151 183 265q112 112 270 180q157 65 328 65q263 0 477 -151q34 -25 41.5 -66.5t-16.5 -77.5
q-25 -34 -67 -41t-77 17q-157 115 -358 115q-131 0 -250 -52q-113 -46 -205 -135q-90 -93 -137 -201q-49 -116 -49 -241q0 -129 49 -242q51 -118 137 -201q91 -91 207.5 -139.5t243.5 -48.5q136 0 258 55q104 49 178 123v262q-15 -6 -33 -12q-67 -20 -137 -20
q-157 0 -254 112q-41 47 -74 47q-23 0 -47 -15t-37 -30l-12 -12q-30 -27 -70 -24.5t-67 34.5q-26 29 -28.5 67t20.5 66q9 11 24 25t47 38t76.5 40t91.5 16h2q128 0 230 -119q20 -23 45 -34t53.5 -8.5t42.5 5.5t35 9q33 10 66.5 26t51 27t17.5 12q35 23 76.5 16.5t66.5 -40.5
q19 -29 19 -60z" />
    <glyph glyph-name="H.ss01" horiz-adv-x="1562" 
d="M1481 1505v-1401v-2q0 -41 -31 -71.5t-74 -30.5q-41 0 -71.5 30.5t-30.5 71.5v617h-885v-617q0 -42 -30 -72t-72 -30q-43 0 -73 30t-30 72v2v1293v6q-43 0 -72.5 30.5t-29.5 73.5q0 41 31 72t73 31q108 0 164 -74q41 -57 41 -160v-450h883v579q0 43 30 73t72 30
q43 0 74 -31t31 -72z" />
    <glyph glyph-name="K.ss01" horiz-adv-x="1466" 
d="M1268 6q8 0 18 1t12 1q41 7 65.5 42.5t18.5 76.5q-7 39 -39 61.5t-75 22.5q-26 1 -55.5 27.5t-51.5 62.5q-101 174 -231.5 310.5t-253.5 217.5l586 605q30 31 31.5 71.5t-27.5 71.5q-30 31 -73 32.5t-73 -28.5l-682 -696q-39 -39 -30 -86q6 -53 51 -78q6 -3 38.5 -24.5
t95.5 -70.5t128 -108t138 -145t124 -174q78 -135 193 -174q53 -19 92 -19zM184 0q43 0 73 29.5t30 72.5v1405q0 42 -30.5 72.5t-72.5 30.5t-72 -30.5t-30 -72.5v-1405q0 -43 29.5 -72.5t72.5 -29.5z" />
    <glyph glyph-name="K.ss02" horiz-adv-x="1228" 
d="M184 0q42 0 72.5 30t30.5 72v1405q0 42 -30.5 72.5t-72.5 30.5q-43 0 -72.5 -30t-29.5 -73v-1405q0 -43 29.5 -72.5t72.5 -29.5zM1659 -877h8q162 3 307 160q72 80 105 146q20 37 8 78t-49 61t-78.5 8t-61.5 -49q0 -2 -8.5 -16t-27 -40t-39.5 -49q-85 -94 -160 -94h-4
q-113 0 -234 203q-300 495 -774 1196l533 719q25 34 18 76t-41 67q-34 26 -75.5 20t-67.5 -40l-574 -778q-20 -26 -20.5 -59.5t18.5 -59.5q1 -1 53 -78.5t139 -209t188 -285.5t218 -338t209 -336q185 -302 410 -302z" />
    <glyph glyph-name="L.ss01" horiz-adv-x="1366" 
d="M1182 205q43 0 72.5 -30t29.5 -73t-29.5 -72.5t-72.5 -29.5h-895q-42 0 -72.5 30t-30.5 72v1303q-42 0 -72 30t-30 72q0 43 30.5 74t73.5 31q108 0 164 -74q41 -57 41 -160l-2 -1173h793z" />
    <glyph glyph-name="L.ss03" horiz-adv-x="1261" 
d="M1151 264q29 -31 29 -72.5t-29 -72.5q-11 -11 -27 -24t-51.5 -36t-84 -38t-99.5 -15h-2q-137 0 -250 113q-79 76 -234 33q-41 -10 -82 -27t-61 -28t-22 -13q-22 -14 -54 -14q-25 0 -49 13t-37 36q-17 29 -14 61q-2 2 -2 8v1319q0 43 30 73t72 30q43 0 73 -30t30 -73
v-1175q27 8 65 18q274 70 428 -88q54 -51 107 -51q28 0 57.5 12.5t45.5 25.5l16 13q29 31 71.5 31t73.5 -29z" />
    <glyph glyph-name="M.ss01" horiz-adv-x="1835" 
d="M1681 1614q32 -11 52 -37.5t20 -60.5v-1414q0 -42 -30 -72t-72 -30q-43 0 -73 30t-30 72v1037l-504 -850q-30 -41 -83 -41q-55 0 -82 41l-512 852v-1039q0 -42 -30.5 -72t-72.5 -30t-72 30t-30 72v1313q-32 0 -55 31t-25 70q0 42 30 72t72 30q28 0 43.5 -1t44.5 -7.5
t50.5 -19t48.5 -38.5t51 -63l541 -940l606 1028q19 26 50 36.5t62 0.5z" />
    <glyph glyph-name="N.ss01" horiz-adv-x="1650" 
d="M1466 1610q42 0 72.5 -30.5t30.5 -72.5v-1407q0 -69 -56 -92q-30 -11 -67 -4t-60 31l-991 1179v-1110q0 -43 -29.5 -72.5t-72.5 -29.5q-44 0 -74.5 29.5t-30.5 72.5v1301q-42 0 -73.5 30t-32.5 72q0 42 30 72.5t72 30.5q52 0 94 -13t81.5 -43.5t67.5 -59.5t73 -83
l864 -1026v1122q0 43 29.5 73t72.5 30z" />
    <glyph glyph-name="O.ss03" horiz-adv-x="1835" 
d="M1583 1303q52 -70 98 -175q64 -152 64 -321q0 -165 -64 -324q-67 -153 -178 -264q-117 -120 -269.5 -184t-320.5 -64q-173 0 -327 68q-96 39 -170 96l-142 -139q-31 -31 -71 -31q-43 0 -74 31q-29 29 -29 71.5t29 71.5l137 135q-79 94 -129 209q-65 150 -65 324
q0 169 65 323q67 153 182 265q111 111 271 180q157 65 328 65q302 0 524 -188l145 145q31 31 74 31t72 -31q31 -29 31 -71.5t-31 -71.5zM326 565q38 -84 86 -143l884 885q-163 129 -378 129q-131 0 -250 -52q-113 -46 -205 -135q-89 -89 -137 -200q-50 -115 -50 -242
t50 -242zM1491 563q49 116 49 244q0 191 -104 350l-875 -874q159 -107 352 -107q126 0 241.5 48.5t203.5 137.5q86 86 133 201z" />
    <glyph glyph-name="Q.ss01" horiz-adv-x="1839" 
d="M1554 258q108 -43 181 -137q26 -34 21 -76t-38 -68q-31 -22 -63 -22q-51 0 -82 39q-77 102 -205 84q-14 -1 -57 -12q-185 -95 -387 -95q-168 0 -328 66q-151 65 -266 180q-120 120 -180 266q-68 154 -68 324q0 167 68 321q64 149 182 267q121 118 268 178q157 65 330 65
q168 0 320.5 -63.5t267.5 -181.5t176 -267q63 -157 63 -321q0 -168 -65 -322q-52 -123 -138 -225zM1503 561q49 116 49 244q0 125 -46.5 239.5t-133.5 204.5q-88 89 -202 137t-240 48q-129 0 -250 -50q-120 -52 -205 -137q-86 -83 -137 -198q-51 -121 -51 -242
q0 -130 51 -244q45 -108 135 -201q90 -90 206.5 -138t244.5 -48q263 0 446 186q85 85 133 199z" />
    <glyph glyph-name="Q.ss02" horiz-adv-x="1757" 
d="M924 -33q169 0 321 64t271 184q113 113 176 266q63 147 63 322q0 169 -61 321q-64 153 -176 265q-117 120 -268.5 183.5t-319.5 63.5q-173 0 -330 -65q-154 -66 -268 -180q-115 -112 -182 -265q-68 -154 -68 -323q0 -168 68 -322q60 -146 180 -266q110 -113 266 -180
q157 -68 328 -68zM930 1432q126 0 240 -48t202 -139q86 -88 132 -202t46 -240q0 -133 -47 -244q-47 -115 -133 -201q-89 -89 -204 -136.5t-242 -47.5q-128 0 -244.5 48t-206.5 138q-88 88 -137 201q-49 116 -49 242q0 130 51 241q51 118 137 201q85 85 205 137
q121 50 250 50zM2103 -883h8q162 6 306 162q70 75 106 146q20 37 8 77t-49 62q-38 20 -78.5 7.5t-60.5 -50.5q-29 -52 -76 -103q-85 -94 -162 -96q-112 0 -235 203q-93 154 -198.5 321t-189.5 296t-154.5 235t-109.5 165l-40 58q-25 35 -67 43.5t-77 -16.5
q-35 -23 -42.5 -65t16.5 -77q432 -648 686 -1065q182 -303 409 -303z" />
    <glyph glyph-name="R.ss01" horiz-adv-x="1480" 
d="M184 0q42 0 72.5 30t30.5 72v1303h506q77 0 153 -43q60 -37 94 -94q45 -77 45 -203q0 -178 -131 -252q-121 -68 -338 -68q-40 0 -69.5 -26.5t-32.5 -65.5q-5 -40 18.5 -71.5t63.5 -38.5q3 0 18.5 -5t47 -20.5t63.5 -36.5q154 -100 262 -284q75 -132 199 -177
q69 -22 125 -14q41 6 66.5 41t19.5 76t-39.5 66t-75.5 20q-66 0 -119 90q-92 165 -231 285q57 15 123 51q115 66 175 175.5t60 254.5q0 139 -41 238q-39 99 -106 163q-92 92 -230 127q-67 17 -120 17h-609q-43 0 -72.5 -30t-29.5 -73v-1405q0 -42 30 -72t72 -30z" />
    <glyph glyph-name="R.ss02" horiz-adv-x="1345" 
d="M1522 -891q92 0 184 53q68 40 129 105q20 20 38.5 42t31.5 39.5t22.5 32t14.5 23.5l6 8q22 37 11 77t-48 62t-77 11.5t-62 -47.5q-33 -54 -82 -107q-94 -94 -168 -94h-2q-110 0 -224 201q-267 469 -501 1038q160 24 276 92q105 64 160 166q61 107 61 256q0 133 -41 236
q-43 101 -108 163q-88 91 -230 127q-67 17 -120 17h-605q-43 0 -74.5 -31.5t-31.5 -75.5v-1401q0 -41 30.5 -71.5t71.5 -30.5q42 0 72.5 30t30.5 72v1303h506q6 0 15 -0.5t34.5 -5t49 -12.5t53.5 -25t54 -41q88 -88 88 -254q0 -173 -124 -248q-112 -68 -318 -71
q-54 -3 -82 -48q-29 -39 -12 -92q0 -1 15 -38t43 -103.5t65.5 -153.5t87.5 -196t104 -221.5t121 -240.5t133 -243q84 -147 187 -227q105 -76 213 -76h2z" />
    <glyph glyph-name="U.ss01" horiz-adv-x="1624" 
d="M1497 1591q45 -30 45 -84v-856q0 -216 -84 -370q-25 -47 -57 -87.5t-83.5 -83t-113.5 -72t-150 -48.5t-190 -19q-216 0 -377 88q-4 4 -6 4q-9 6 -14 11q-126 73 -197 207q-86 156 -86 370v752q-42 0 -72 30t-30 72q0 43 30 74t72 31q110 0 166 -74q41 -57 41 -160v-725
q0 -161 60 -272q50 -89 133 -137q116 -66 280 -66q165 0 281 66q87 50 133 135q59 111 59 274v856q0 41 31 72t72 31q32 0 57 -19z" />
    <glyph glyph-name="U.ss03" horiz-adv-x="1820" 
d="M1638 1610q41 0 71 -31t30 -72q0 -43 -30 -72.5t-73 -29.5q-23 0 -36 -12t-13 -33v-707q0 -214 -84 -370q-72 -136 -209 -215q-160 -91 -383 -91q-225 0 -385 91q-131 76 -209 217q-84 154 -84 368v623v2v82q2 14 -14 29.5t-35 15.5q-42 0 -72 30t-30 72t30 72.5t72 30.5
q62 0 113 -24t80.5 -62.5t45.5 -81.5t15 -84v-705q0 -159 60 -272q51 -87 133 -135q107 -64 280 -64q174 0 281 64q83 47 131 135q59 109 59 272v2v703q0 42 16 84.5t45.5 81t80.5 62.5t114 24z" />
    <glyph glyph-name="V.ss01" horiz-adv-x="1658" 
d="M889 -4q-31 0 -57.5 17t-36.5 46l-541 1303q-7 22 -27 35.5t-43 13.5q-43 0 -72.5 29.5t-29.5 72.5t29.5 73t70.5 30q76 6 152 -45t108 -131l447 -1073l491 1187q17 40 56 56.5t77 -0.5q40 -15 56.5 -55t-0.5 -78l-586 -1418q-12 -29 -37.5 -46t-56.5 -17z" />
    <glyph glyph-name="W.ss01" horiz-adv-x="2410" 
d="M2263 1606q40 -15 57.5 -53t3.5 -78l-475 -1424q-10 -30 -36.5 -48.5t-59.5 -18.5t-59.5 18.5t-36.5 48.5l-395 1139l-388 -1139q-10 -30 -36.5 -48.5t-59.5 -18.5t-59.5 18.5t-36.5 48.5l-444 1317q-6 17 -16.5 26t-17.5 10t-20 1q-43 0 -72.5 29.5t-29.5 72.5t29.5 73
t70.5 30q191 0 250 -174l346 -1030l387 1136q10 31 37 49.5t60 18.5q32 0 59 -18.5t37 -49.5l395 -1136l379 1138q13 39 52 57.5t79 4.5z" />
    <glyph glyph-name="W.ss03" horiz-adv-x="2344" 
d="M786 -4q31 0 57 17t38 46l600 1418q15 39 -1 77.5t-55 55.5q-38 17 -78 0.5t-55 -54.5l-508 -1196l-505 1196q-17 39 -56.5 55t-79.5 -1q-39 -17 -54.5 -56t1.5 -77l600 -1418q12 -29 38 -46t58 -17zM1561 -4q31 0 56.5 17t37.5 46l600 1418q17 38 1 77t-56 56
q-38 17 -77.5 1t-56.5 -55l-505 -1196l-508 1196q-15 38 -55 54.5t-78 -0.5q-40 -17 -56.5 -56t0.5 -77l602 -1418q12 -29 38 -46t57 -17z" />
    <glyph glyph-name="X.ss01" horiz-adv-x="1476" 
d="M254 1366l391 -543l-477 -661q-25 -34 -17.5 -75.5t42.5 -66.5q29 -26 73.5 -19t67.5 42l438 606l438 -606q24 -37 70.5 -42.5t71.5 19.5q35 25 42 66.5t-18 75.5l-477 661l451 625q25 34 17.5 76t-42.5 67q-34 25 -75 18t-66 -42l-412 -568l-348 482q-91 129 -240 129
q-42 0 -72 -30.5t-30 -72.5q2 -43 31.5 -72.5t70.5 -29.5q43 0 70 -39z" />
    <glyph glyph-name="X.ss02" horiz-adv-x="1286" 
d="M2134 -397q37 -22 48.5 -62.5t-9.5 -77.5q-4 -7 -14.5 -24.5t-36.5 -51.5t-54 -65q-143 -152 -303 -158h-10q-224 0 -409 293q-242 386 -701 1186l-375 -580q-30 -47 -86 -47q-28 0 -55 17q-37 23 -45.5 64.5t14.5 76.5l430 666l-405 628q-24 36 -15.5 77t44.5 65
q35 23 76.5 14.5t64.5 -45.5l358 -551l357 551q23 37 64.5 45.5t78.5 -14.5q35 -23 43.5 -65t-14.5 -77l-408 -630q103 -186 330 -576.5t418 -695.5q125 -197 235 -197h4q75 2 160 92q21 23 40 48t27 39l9 14q20 37 61 49t78 -8z" />
    <glyph glyph-name="Y.ss01" horiz-adv-x="1566" 
d="M184 1610q-42 0 -72 -30.5t-30 -72.5q2 -43 31.5 -72.5t70.5 -29.5q20 0 40.5 -12t27.5 -29l477 -713v-549q0 -43 29.5 -72.5t72.5 -29.5t73 29.5t30 72.5v549l532 799q24 36 16 76.5t-42 64.5q-35 25 -78 17t-66 -43l-465 -699l-407 613q-40 60 -105 95.5t-135 35.5z
" />
    <glyph glyph-name="Y.ss03" horiz-adv-x="1667" 
d="M1485 1610q41 0 71 -31t29 -74q0 -41 -29.5 -70.5t-72.5 -29.5q-20 0 -39.5 -13.5t-28.5 -27.5l-475 -713v-549q0 -42 -30 -72t-72 -30q-43 0 -73 29.5t-30 72.5v547l-483 715q-10 17 -31 29t-37 12q-41 0 -71.5 29.5t-30.5 70.5q0 43 29.5 74t70.5 31q157 0 240 -131
l414 -615l409 615q42 61 105.5 96t134.5 35z" />
    <glyph glyph-name="Z.ss03" horiz-adv-x="1482" 
d="M1298 207q43 0 73 -30t30 -73q0 -42 -30.5 -72t-72.5 -30h-1114q-63 0 -92 59q-27 60 12 109l414 518h-301q-43 0 -72.5 30t-29.5 73t29.5 72.5t72.5 29.5h463l407 512h-870q-43 0 -72.5 29.5t-29.5 72.5t29.5 73t72.5 30h1081q31 0 56 -16t37 -42q27 -56 -11 -108
l-438 -551h356q43 0 73 -29.5t30 -72.5t-30 -73t-73 -30h-520l-381 -481h901z" />
    <glyph glyph-name="ampersand.ss01" horiz-adv-x="1536" 
d="M1352 922q42 0 72 -30t30 -73q0 -41 -30.5 -71.5t-71.5 -30.5h-140v-178q0 -94 -22.5 -172t-61 -131.5t-79 -89t-88.5 -60.5q-142 -76 -328 -76h-2q-163 0 -287 47q-126 51 -194 148t-68 229q0 157 61 264q42 72 105 121q-24 18 -45 39q-84 93 -111 227q-14 77 -8 113
q0 193 137 303q153 120 453 105q39 -2 79 -6t70 -9t54 -9.5t38 -7.5t15 -3q40 -11 62 -47.5t12 -77.5t-46.5 -63t-76.5 -11l-12 2q-12 3 -33 6.5t-47 7.5t-61 7.5t-69 5.5q-218 12 -311 -62q-59 -44 -59 -143q0 -4 -2 -6q0 -122 67 -193q72 -75 224 -75h430v125
q0 43 29.5 72.5t72.5 29.5q42 0 72 -30t30 -72v-125h140zM1008 539v178h-396q-171 0 -248 -67t-77 -216q0 -69 31.5 -113.5t99.5 -70.5q86 -35 213 -35h2q131 0 231 51q144 79 144 273z" />
    </font>
</defs>
</svg>
