<?xml version="1.0" standalone="no"?>
<!DOCTYPE svg PUBLIC "-//W3C//DTD SVG 1.1//EN" "http://www.w3.org/Graphics/SVG/1.1/DTD/svg11.dtd" >
<svg xmlns="http://www.w3.org/2000/svg" xmlns:xlink="http://www.w3.org/1999/xlink" version="1.1">
<metadata>
Created by FontForge 20201107 at Wed Nov  6 18:38:14 2024
 By 
Copyright 2015 The El Messiri Project Authors.
</metadata>
<defs>
<font id="ElMessiri-Regular" horiz-adv-x="0" >
  <font-face 
    font-family="El Messiri"
    font-weight="400"
    font-stretch="normal"
    units-per-em="2048"
    panose-1="0 0 5 0 0 0 0 0 0 0"
    ascent="1638"
    descent="-410"
    x-height="963"
    cap-height="1352"
    bbox="-350.742 -890.379 2775 2034"
    underline-thickness="102"
    underline-position="-204"
    unicode-range="U+0020-FEFC"
  />
<missing-glyph horiz-adv-x="512" 
 />
    <glyph glyph-name="uniFEF5" unicode="&#xfedf;&#xfe82;" horiz-adv-x="1323" arabic-form="isolated" 
d="M592 1167q-55 0 -115.5 23.5t-116 46.5t-98.5 23q-36 0 -64.5 -16.5t-37.5 -16.5q-10 0 0.5 33.5t53.5 67.5t114 34q61 0 161.5 -40t157.5 -40q45 0 77 19t46 18q2 -2 -0.5 -17.5t-13 -38t-28.5 -44t-53.5 -37t-82.5 -15.5zM160 0q-29 0 -43.5 22t-14.5 50q0 27 14 48.5
t44 22.5h280v617q0 87 -34.5 155t-77.5 97q12 17 52.5 34t82.5 17q69 0 115.5 -52.5t46.5 -174.5v-693h196q88 0 136.5 73.5t48.5 168.5v664q0 87 -35 154.5t-78 96.5q12 17 52.5 34.5t82.5 17.5q68 0 115 -53t47 -175v-727q-1 -101 -26.5 -179t-70 -124.5t-100 -70
t-119.5 -23.5h-714z" />
    <glyph glyph-name="uniFEF6" unicode="&#xfee0;&#xfe82;" horiz-adv-x="1429" arabic-form="final" 
d="M160 1227q-10 0 0.5 33.5t53.5 67.5t114 34q61 0 161.5 -40t157.5 -40q45 0 77 19t46 18q2 -2 -0.5 -17.5t-13 -38t-28.5 -44t-53.5 -37t-82.5 -15.5q-55 0 -115.5 23.5t-116 46.5t-98.5 23q-36 0 -64.5 -16.5t-37.5 -16.5zM1130 143h300v-143h-191q-121 0 -190 53
q-73 -53 -175 -53h-714q-29 0 -43.5 22t-14.5 50q0 27 14 48.5t44 22.5h280v617q0 87 -34.5 155t-77.5 97q12 17 52.5 34t82.5 17q69 0 115.5 -52.5t46.5 -174.5v-693h196q88 0 136.5 73.5t48.5 168.5v664q0 87 -35 154.5t-78 96.5q12 17 52.5 34.5t82.5 17.5q68 0 115 -53
t47 -175v-727q0 -155 -60 -254z" />
    <glyph glyph-name="uniFEF7" unicode="&#xfedf;&#xfe84;" horiz-adv-x="1323" arabic-form="isolated" 
d="M268 1167q-17 24 -16 46.5t15.5 34t34 17t40.5 -4.5q-26 28 -47 75.5t-21 98.5q0 85 59 138.5t163 53.5q127 0 127 -82q0 -31 -18 -49t-37 -16.5t-31 8.5q1 36 -24.5 59.5t-57.5 28.5q-24 -5 -44 -37.5t-20 -87.5q0 -158 168 -158q50 0 70 8q41 0 43 -34q2 -26 -14 -37
q-3 -2 -7 -2q-131 -12 -251.5 -29.5t-131.5 -30.5zM160 0q-29 0 -43.5 22t-14.5 50q0 27 14 48.5t44 22.5h280v617q0 87 -34.5 155t-77.5 97q12 17 52.5 34t82.5 17q69 0 115.5 -52.5t46.5 -174.5v-693h196q88 0 136.5 73.5t48.5 168.5v664q0 87 -35 154.5t-78 96.5
q12 17 52.5 34.5t82.5 17.5q68 0 115 -53t47 -175v-727q-1 -101 -26.5 -179t-70 -124.5t-100 -70t-119.5 -23.5h-714z" />
    <glyph glyph-name="uniFEF8" unicode="&#xfee0;&#xfe84;" horiz-adv-x="1429" arabic-form="final" 
d="M651 1227q-131 -12 -251.5 -29.5t-131.5 -30.5q-17 24 -16 46.5t15.5 34t34 17t40.5 -4.5q-26 28 -47 75.5t-21 98.5q0 85 59 138.5t163 53.5q127 0 127 -82q0 -31 -18 -49t-37 -16.5t-31 8.5q1 36 -24.5 59.5t-57.5 28.5q-24 -5 -44 -37.5t-20 -87.5q0 -158 168 -158
q50 0 70 8q41 0 43 -34q2 -26 -14 -37q-3 -2 -7 -2zM1130 143h300v-143h-191q-121 0 -190 53q-73 -53 -175 -53h-714q-29 0 -43.5 22t-14.5 50q0 27 14 48.5t44 22.5h280v617q0 87 -34.5 155t-77.5 97q12 17 52.5 34t82.5 17q69 0 115.5 -52.5t46.5 -174.5v-693h196
q88 0 136.5 73.5t48.5 168.5v664q0 87 -35 154.5t-78 96.5q12 17 52.5 34.5t82.5 17.5q68 0 115 -53t47 -175v-727q0 -155 -60 -254z" />
    <glyph glyph-name="uniFEF9" unicode="&#xfedf;&#xfe88;" horiz-adv-x="1323" arabic-form="isolated" 
d="M160 0q-29 0 -43.5 22t-14.5 50q0 27 14 48.5t44 22.5h280v617q0 87 -34.5 155t-77.5 97q12 17 52.5 34t82.5 17q69 0 115.5 -52.5t46.5 -174.5v-693h196q88 0 136.5 73.5t48.5 168.5v664q0 87 -35 154.5t-78 96.5q12 17 52.5 34.5t82.5 17.5q68 0 115 -53t47 -175v-727
q-1 -101 -26.5 -179t-70 -124.5t-100 -70t-119.5 -23.5h-714zM332 -561q-17 24 -16 46t15.5 34t34 17t40.5 -5q-26 28 -47 75t-21 99q0 85 59 139t162 54q127 0 127 -82q0 -31 -18 -49t-37 -17t-31 8q1 36 -24.5 59.5t-57.5 28.5q-24 -5 -43.5 -37.5t-19.5 -87.5
q0 -157 168 -157q49 0 69 8q40 0 44 -34q2 -26 -13 -37q-4 -3 -8 -3q-133 -12 -252.5 -29.5t-130.5 -29.5z" />
    <glyph glyph-name="uniFEFA" unicode="&#xfee0;&#xfe88;" horiz-adv-x="1429" arabic-form="final" 
d="M1130 143h300v-143h-191q-121 0 -190 53q-73 -53 -175 -53h-714q-29 0 -43.5 22t-14.5 50q0 27 14 48.5t44 22.5h280v617q0 87 -34.5 155t-77.5 97q12 17 52.5 34t82.5 17q69 0 115.5 -52.5t46.5 -174.5v-693h196q88 0 136.5 73.5t48.5 168.5v664q0 87 -35 154.5
t-78 96.5q12 17 52.5 34.5t82.5 17.5q68 0 115 -53t47 -175v-727q0 -155 -60 -254zM692 -428q40 0 44 -34q2 -26 -13 -37q-4 -3 -8 -3q-133 -12 -252.5 -29.5t-130.5 -29.5q-17 24 -16 46t15.5 34t34 17t40.5 -5q-26 28 -47 75t-21 99q0 85 59 139t162 54q127 0 127 -82
q0 -31 -18 -49t-37 -17t-31 8q1 36 -24.5 59.5t-57.5 28.5q-24 -5 -43.5 -37.5t-19.5 -87.5q0 -157 168 -157q49 0 69 8z" />
    <glyph glyph-name="uniFEFB" unicode="&#xfedf;&#xfe8e;" horiz-adv-x="1323" arabic-form="isolated" 
d="M160 0q-29 0 -43.5 22t-14.5 50q0 27 14 48.5t44 22.5h280v617q0 87 -34.5 155t-77.5 97q12 17 52.5 34t82.5 17q69 0 115.5 -52.5t46.5 -174.5v-693h196q88 0 136.5 73.5t48.5 168.5v664q0 87 -35 154.5t-78 96.5q12 17 52.5 34.5t82.5 17.5q68 0 115 -53t47 -175v-727
q-1 -101 -26.5 -179t-70 -124.5t-100 -70t-119.5 -23.5h-714z" />
    <glyph glyph-name="uniFEFC" unicode="&#xfee0;&#xfe8e;" horiz-adv-x="1429" arabic-form="final" 
d="M1130 143h300v-143h-191q-121 0 -190 53q-73 -53 -175 -53h-714q-29 0 -43.5 22t-14.5 50q0 27 14 48.5t44 22.5h280v617q0 87 -34.5 155t-77.5 97q12 17 52.5 34t82.5 17q69 0 115.5 -52.5t46.5 -174.5v-693h196q88 0 136.5 73.5t48.5 168.5v664q0 87 -35 154.5
t-78 96.5q12 17 52.5 34.5t82.5 17.5q68 0 115 -53t47 -175v-727q0 -155 -60 -254z" />
    <glyph glyph-name="uni06440671" unicode="&#xfedf;&#xfb51;" horiz-adv-x="1323" 
d="M256 1161q-17 0 -17 38t17 38h51q0 7 5.5 28t22 52.5t39.5 59.5t64 48.5t90 20.5q79 0 117.5 -47t38.5 -117q0 -56 -24 -88.5t-68 -32.5h-336zM352 1237h187q43 0 43 57q0 33 -18.5 54.5t-59.5 21.5q-63 0 -107.5 -46.5t-44.5 -86.5zM160 0q-29 0 -43.5 22t-14.5 50
q0 27 14 48.5t44 22.5h280v617q0 87 -34.5 155t-77.5 97q12 17 52.5 34t82.5 17q69 0 115.5 -52.5t46.5 -174.5v-693h196q88 0 136.5 73.5t48.5 168.5v664q0 87 -35 154.5t-78 96.5q12 17 52.5 34.5t82.5 17.5q68 0 115 -53t47 -175v-727q-1 -101 -26.5 -179t-70 -124.5
t-100 -70t-119.5 -23.5h-714z" />
    <glyph glyph-name="uni06440671.fina" unicode="&#xfee0;&#xfb51;" horiz-adv-x="1429" 
d="M256 1161q-17 0 -17 38t17 38h51q0 7 5.5 28t22 52.5t39.5 59.5t64 48.5t90 20.5q79 0 117.5 -47t38.5 -117q0 -56 -24 -88.5t-68 -32.5h-336zM504 1370q-63 0 -107.5 -46.5t-44.5 -86.5h187q43 0 43 57q0 33 -18.5 54.5t-59.5 21.5zM1130 143h300v-143h-191
q-121 0 -190 53q-73 -53 -175 -53h-714q-29 0 -43.5 22t-14.5 50q0 27 14 48.5t44 22.5h280v617q0 87 -34.5 155t-77.5 97q12 17 52.5 34t82.5 17q69 0 115.5 -52.5t46.5 -174.5v-693h196q88 0 136.5 73.5t48.5 168.5v664q0 87 -35 154.5t-78 96.5q12 17 52.5 34.5
t82.5 17.5q68 0 115 -53t47 -175v-727q0 -155 -60 -254z" />
    <glyph glyph-name="uni066E.init" unicode="&#x66e;" horiz-adv-x="679" 
d="M0 0v143h137q45 0 81.5 16t59.5 40t40 59.5t25 66t13 68.5t5.5 57.5t0.5 41.5q0 45 -2.5 81.5t-12.5 90t-27.5 97.5t-51.5 93t-80 88q46 41 113 41t117 -38t77 -102.5t39.5 -136.5t12.5 -153q0 -55 -5.5 -107.5t-19 -108.5t-35 -104t-55 -92t-76.5 -74.5t-102.5 -48.5
t-130.5 -18h-123z" />
    <glyph glyph-name="uni066E.medi" unicode="&#x66e;" horiz-adv-x="673" 
d="M471 143h203v-143h-195q-120 0 -192 53q-72 -47 -170 -53h-117v143h117q57 3 116 25v721q0 94 93 94q92 0 92 -92v-580q0 -34 1.5 -57t6 -52t16 -44t29.5 -15z" />
    <glyph glyph-name="uni066E.fina" unicode="&#x66e;" horiz-adv-x="1636" 
d="M1278 143h358v-143h-266q-120 0 -192 53q-88 -53 -211 -53h-568q-71 0 -124 23t-83 63.5t-44.5 91t-14.5 111.5v497q0 88 92 88t92 -90v-436q0 -115 35.5 -160t134.5 -45h494q45 0 82 17.5t59.5 43t39.5 62t25 68t13 68.5t5.5 55t0.5 35q0 45 -2.5 81.5t-12.5 90
t-27.5 97.5t-51.5 93t-80 88q46 41 113 41t117 -38t77 -102.5t39.5 -136.5t12.5 -153q0 -262 -113 -410z" />
    <glyph glyph-name="uni066F.init" unicode="&#x66f;" horiz-adv-x="1089" 
d="M571 983q69 0 119 -6.5t96 -24.5t75.5 -49t52 -79.5t32.5 -117.5t10 -161v-256q0 -61 -14.5 -111.5t-44.5 -91t-83 -63.5t-124 -23h-690v143h272q-52 78 -75 164t-23 203q0 89 10.5 159t28.5 119.5t47 85t60 56.5t74.5 33t83.5 16t93 4zM772 348v266q0 126 -47.5 177
t-132.5 51q-234 0 -234 -328q0 -24 1 -48t5.5 -63t12.5 -71.5t24 -69t37 -61.5t53.5 -41.5t73.5 -16.5h37q99 0 134.5 45t35.5 160z" />
    <glyph glyph-name="uni066F.medi" unicode="&#x66f;" horiz-adv-x="1142" 
d="M930 143h213v-143h-205q-80 0 -133 18q-49 -18 -115 -18h-690v143h272q-52 78 -75 164t-23 203q0 89 10.5 159t28.5 119.5t47 85t60 56.5t74.5 33t83.5 16t93 4q69 0 119 -6.5t96 -24.5t75.5 -49t52 -79.5t32.5 -117.5t10 -161v-256q0 -84 -26 -146zM602 143
q99 0 134.5 45t35.5 160v266q0 126 -47.5 177t-132.5 51q-234 0 -234 -328q0 -24 1 -48t5.5 -63t12.5 -71.5t24 -69t37 -61.5t53.5 -41.5t73.5 -16.5h37z" />
    <glyph glyph-name="uni066F.fina" unicode="&#x66f;" horiz-adv-x="1830" 
d="M1831 143v-143h-195q-23 -229 -201 -356t-528 -127q-148 0 -268 24.5t-199 62t-138 93.5t-90.5 110t-50 119.5t-23.5 113t-5 101.5q0 174 52.5 280.5t156.5 106.5q38 0 65.5 -13.5t38.5 -29.5q-56 -44 -91.5 -153t-35.5 -234q0 -75 16.5 -136.5t58.5 -119t108.5 -96.5
t172 -62.5t243.5 -23.5q121 0 212.5 18t148.5 48t94.5 75t54 92.5t22.5 106.5h-250q-91 0 -158.5 40.5t-107 113.5t-58 166t-18.5 208q0 85 10.5 152t29 114.5t48 81.5t61.5 54.5t76 32.5t85.5 16t95.5 4t94 -4t81 -15.5t70 -31t55.5 -52.5t42 -79t24.5 -110t9 -146v-402
h191zM1044 500q0 -23 1 -43.5t6.5 -59t15.5 -69.5t29.5 -67t46.5 -60.5t70 -41t96 -16.5h145v471q0 125 -47.5 175.5t-132.5 50.5q-116 0 -173 -82t-57 -258z" />
    <glyph glyph-name="uni06A1.init" unicode="&#x6a1;" horiz-adv-x="1089" 
d="M571 983q69 0 119 -6.5t96 -24.5t75.5 -49t52 -79.5t32.5 -117.5t10 -161v-256q0 -61 -14.5 -111.5t-44.5 -91t-83 -63.5t-124 -23h-690v143h272q-52 78 -75 164t-23 203q0 89 10.5 159t28.5 119.5t47 85t60 56.5t74.5 33t83.5 16t93 4zM772 348v266q0 126 -47.5 177
t-132.5 51q-234 0 -234 -328q0 -24 1 -48t5.5 -63t12.5 -71.5t24 -69t37 -61.5t53.5 -41.5t73.5 -16.5h37q99 0 134.5 45t35.5 160z" />
    <glyph glyph-name="uni06A1.medi" unicode="&#x6a1;" horiz-adv-x="1142" 
d="M930 143h213v-143h-205q-80 0 -133 18q-49 -18 -115 -18h-690v143h272q-52 78 -75 164t-23 203q0 89 10.5 159t28.5 119.5t47 85t60 56.5t74.5 33t83.5 16t93 4q69 0 119 -6.5t96 -24.5t75.5 -49t52 -79.5t32.5 -117.5t10 -161v-256q0 -84 -26 -146zM602 143
q99 0 134.5 45t35.5 160v266q0 126 -47.5 177t-132.5 51q-234 0 -234 -328q0 -24 1 -48t5.5 -63t12.5 -71.5t24 -69t37 -61.5t53.5 -41.5t73.5 -16.5h37z" />
    <glyph glyph-name="uni06A1.fina" unicode="&#x6a1;" horiz-adv-x="2013" 
d="M1800 143h213v-143h-205q-76 0 -131 20q-47 -20 -116 -20h-1031q-188 0 -292.5 121.5t-104.5 302.5q0 139 58.5 240.5t150.5 101.5q54 0 100 -37q-52 -37 -88.5 -122t-36.5 -204q0 -53 9.5 -94.5t23.5 -68.5t37 -46t43 -28.5t49 -15t47 -6.5t45 -1h572q-53 78 -76 164
t-23 203q0 89 10.5 159t28.5 119.5t47 85t60.5 56.5t74.5 33t83.5 16t93.5 4q69 0 119 -6.5t96 -24.5t75.5 -49t52 -79.5t32.5 -117.5t10 -161v-256q0 -81 -27 -146zM1473 143q99 0 134 45t35 160v266q0 126 -47.5 177t-132.5 51q-233 0 -233 -328q0 -24 2 -51t7.5 -73.5
t20 -86.5t36 -78t58 -60t83.5 -22h37z" />
    <glyph glyph-name="uni06BA.init" unicode="&#x6ba;" horiz-adv-x="679" 
d="M0 0v143h137q45 0 81.5 16t59.5 40t40 59.5t25 66t13 68.5t5.5 57.5t0.5 41.5q0 45 -2.5 81.5t-12.5 90t-27.5 97.5t-51.5 93t-80 88q46 41 113 41t117 -38t77 -102.5t39.5 -136.5t12.5 -153q0 -55 -5.5 -107.5t-19 -108.5t-35 -104t-55 -92t-76.5 -74.5t-102.5 -48.5
t-130.5 -18h-123z" />
    <glyph glyph-name="uni06BA.medi" unicode="&#x6ba;" horiz-adv-x="673" 
d="M471 143h203v-143h-195q-120 0 -192 53q-72 -47 -170 -53h-117v143h117q57 3 116 25v721q0 94 93 94q92 0 92 -92v-580q0 -34 1.5 -57t6 -52t16 -44t29.5 -15z" />
    <glyph glyph-name="uni06C2.init" unicode="&#x6c2;" horiz-adv-x="679" 
d="M-8 1116q-17 24 -16 46t15.5 34t34 17t40.5 -5q-26 28 -47 75.5t-21 98.5q0 85 59 139t162 54q127 0 127 -82q0 -31 -18 -49t-37 -16.5t-31 8.5q1 36 -24.5 59.5t-57.5 28.5q-24 -5 -43.5 -37.5t-19.5 -87.5q0 -158 168 -158q49 0 69 8q41 0 44 -34q2 -26 -14 -37
q-3 -2 -7 -2q-131 -12 -251.5 -29.5t-131.5 -30.5zM0 0v143h137q45 0 81.5 16t59.5 40t40 59.5t25 66t13 68.5t5.5 57.5t0.5 41.5q0 45 -2.5 81.5t-12.5 90t-27.5 97.5t-51.5 93t-80 88q46 41 113 41t117 -38t77 -102.5t39.5 -136.5t12.5 -153q0 -55 -5.5 -107.5t-19 -108.5
t-35 -104t-55 -92t-76.5 -74.5t-102.5 -48.5t-130.5 -18h-123zM307 -594q-62 0 -97.5 37.5t-35.5 105.5q0 252 225 379l21 -30q-82 -57 -123 -122.5t-41 -154.5l61 21q47 0 80 -33t33 -80q0 -54 -34.5 -88.5t-88.5 -34.5z" />
    <glyph glyph-name="uni06C2.medi" unicode="&#x6c2;" horiz-adv-x="972" 
d="M676 752q-131 -12 -251.5 -29.5t-131.5 -30.5q-17 24 -16 46t15.5 34t34 17t40.5 -5q-26 28 -47 75.5t-21 98.5q0 85 59 139t162 54q127 0 127 -82q0 -31 -18 -49t-37 -16.5t-31 8.5q1 36 -24.5 59.5t-57.5 28.5q-24 -5 -43.5 -37.5t-19.5 -87.5q0 -158 168 -158
q49 0 69 8q41 0 44 -34q2 -26 -14 -37q-3 -2 -7 -2zM973 143v-143h-158v-471q0 -19 -13 -31t-32 -12q-153 0 -269.5 26t-191 71t-121 111.5t-65.5 140.5t-19 165h-104v143h246q18 0 30.5 -12.5t12.5 -30.5q0 -36 0.5 -58t3.5 -63t9 -69t18 -66.5t28.5 -64.5t43 -54.5
t59.5 -45.5t79 -28t101 -11v460q0 18 12.5 30.5t30.5 12.5h299z" />
    <glyph glyph-name="uni06C2.fina" unicode="&#x6c2;" horiz-adv-x="1046" 
d="M713 1176q-131 -12 -251.5 -29.5t-131.5 -30.5q-17 24 -16 46t15 34t33.5 17t40.5 -5q-26 27 -46.5 75t-20.5 99q0 85 59 139t162 54q127 0 127 -82q0 -31 -18 -49t-37 -16.5t-31 8.5q1 36 -24.5 59.5t-57.5 28.5q-24 -5 -43.5 -37.5t-19.5 -87.5q0 -158 168 -158
q49 0 69 8q41 0 44 -34q2 -26 -14 -37q-3 -2 -7 -2zM907 143h140v-143h-152q-102 0 -170 41q-97 -45 -217 -45q-206 0 -290.5 117.5t-84.5 369.5q0 125 19 215t51 144.5t83.5 86.5t107.5 43t132 11q86 0 151 -14.5t119 -49.5t82.5 -100.5t28.5 -159.5v-516zM317 487
q0 -23 1 -43.5t6.5 -57.5t15 -67t29.5 -64t47 -57.5t69 -39t95 -15.5h143v467q0 230 -184 230q-222 0 -222 -353zM711 45h2h-2z" />
    <glyph glyph-name="uni06C3.fina" unicode="&#x6c3;" horiz-adv-x="1345" 
d="M526 1116q-47 0 -81.5 35t-34.5 82q0 49 34.5 84t81.5 35q49 0 83 -34.5t34 -84.5q0 -48 -34 -82.5t-83 -34.5zM825 1116q-47 0 -81.5 35t-34.5 82q0 49 34.5 84t81.5 35q49 0 83 -34.5t34 -84.5q0 -48 -34 -82.5t-83 -34.5zM1145 143h201v-143h-324q-25 0 -42 16t-17 41
v783q-99 0 -189.5 -37t-160 -100.5t-126.5 -147.5t-93.5 -177.5t-56.5 -190t-20 -187.5h-184q0 207 64.5 385.5t184 311.5t302.5 209.5t406 76.5q23 0 39 -17t16 -42v-781z" />
    <glyph glyph-name="uniFB51" unicode="&#x671;" horiz-adv-x="645" arabic-form="final" 
d="M31 1305q-17 0 -17 37.5t17 37.5h51q0 7 5.5 28t22 52.5t39.5 59.5t64 48.5t90 20.5q79 0 117.5 -47t38.5 -117q0 -56 -24 -88t-68 -32h-336zM127 1380h186q43 0 43 58q0 75 -77 75q-63 0 -107.5 -46.5t-44.5 -86.5zM526 0q-63 0 -118 23.5t-99 70t-69 125t-25 180.5v525
q0 87 -35 155t-78 97q12 17 53 34t83 17q68 0 114.5 -53t46.5 -175v-614q0 -95 48 -168.5t135 -73.5h63v-143h-119z" />
    <glyph glyph-name="uniFB57" unicode="&#x67e;" horiz-adv-x="1636" arabic-form="final" 
d="M1278 143h358v-143h-266q-120 0 -192 53q-88 -53 -211 -53h-568q-71 0 -124 23t-83 63.5t-44.5 91t-14.5 111.5v497q0 88 92 88t92 -90v-436q0 -115 35.5 -160t134.5 -45h494q45 0 82 17.5t59.5 43t39.5 62t25 68t13 68.5t5.5 55t0.5 35q0 45 -2.5 81.5t-12.5 90
t-27.5 97.5t-51.5 93t-80 88q46 41 113 41t117 -38t77 -102.5t39.5 -136.5t12.5 -153q0 -262 -113 -410zM664 -283q0 -48 -34 -82t-83 -34q-47 0 -82 34.5t-35 81.5q0 49 34.5 84t82.5 35q49 0 83 -34.5t34 -84.5zM846 -164q49 0 83 -34.5t34 -84.5q0 -48 -34 -82t-83 -34
q-47 0 -82 34.5t-35 81.5q0 49 34.5 84t82.5 35zM696 -426q44 0 76.5 -32.5t32.5 -76.5t-32.5 -76t-76.5 -32t-76 32t-32 76t32 76.5t76 32.5z" />
    <glyph glyph-name="uniFB58" unicode="&#x67e;" horiz-adv-x="679" arabic-form="initial" 
d="M0 0v143h137q45 0 81.5 16t59.5 40t40 59.5t25 66t13 68.5t5.5 57.5t0.5 41.5q0 45 -2.5 81.5t-12.5 90t-27.5 97.5t-51.5 93t-80 88q46 41 113 41t117 -38t77 -102.5t39.5 -136.5t12.5 -153q0 -55 -5.5 -107.5t-19 -108.5t-35 -104t-55 -92t-76.5 -74.5t-102.5 -48.5
t-130.5 -18h-123zM152 -399q-47 0 -82 34.5t-35 81.5q0 49 34.5 84t82.5 35q49 0 82.5 -34.5t33.5 -84.5q0 -48 -33.5 -82t-82.5 -34zM451 -399q-47 0 -82 34.5t-35 81.5q0 49 34.5 84t82.5 35q49 0 82.5 -34.5t33.5 -84.5q0 -48 -33.5 -82t-82.5 -34zM301 -643
q-44 0 -76 32t-32 76t32 76.5t76 32.5t76.5 -32.5t32.5 -76.5t-32.5 -76t-76.5 -32z" />
    <glyph glyph-name="uniFB59" unicode="&#x67e;" horiz-adv-x="673" arabic-form="medial" 
d="M471 143h203v-143h-195q-120 0 -192 53q-72 -47 -170 -53h-117v143h117q57 3 116 25v721q0 94 93 94q92 0 92 -92v-580q0 -34 1.5 -57t6 -52t16 -44t29.5 -15zM293 -283q0 -48 -34 -82t-83 -34q-47 0 -82 34.5t-35 81.5q0 49 34.5 84t82.5 35q49 0 83 -34.5t34 -84.5z
M475 -164q49 0 83 -34.5t34 -84.5q0 -48 -34 -82t-83 -34q-47 0 -82 34.5t-35 81.5q0 49 34.5 84t82.5 35zM326 -426q44 0 76 -32.5t32 -76.5t-32 -76t-76 -32t-76.5 32t-32.5 76t32.5 76.5t76.5 32.5z" />
    <glyph glyph-name="uniFB67" unicode="&#x679;" horiz-adv-x="1636" arabic-form="final" 
d="M498 1024q-17 0 -17 38t17 38h32v260q0 35 -26 61q1 4 12.5 8.5t22.5 4.5q17 0 33 -13.5t16 -42.5v-168q19 28 37 46.5t53 35.5t78 17q79 0 118 -47t39 -117q0 -55 -24.5 -88t-67.5 -33h-323zM733 1233q-63 0 -108 -46.5t-45 -86.5h188q43 0 43 57q0 33 -18.5 54.5
t-59.5 21.5zM1278 143h358v-143h-266q-120 0 -192 53q-88 -53 -211 -53h-568q-71 0 -124 23t-83 63.5t-44.5 91t-14.5 111.5v497q0 88 92 88t92 -90v-436q0 -115 35.5 -160t134.5 -45h494q45 0 82 17.5t59.5 43t39.5 62t25 68t13 68.5t5.5 55t0.5 35q0 45 -2.5 81.5
t-12.5 90t-27.5 97.5t-51.5 93t-80 88q46 41 113 41t117 -38t77 -102.5t39.5 -136.5t12.5 -153q0 -262 -113 -410z" />
    <glyph glyph-name="uniFB68" unicode="&#x679;" horiz-adv-x="679" arabic-form="initial" 
d="M102 1116q-17 0 -17 38t17 38h33v260q0 35 -26 61q2 5 13 9t21 4q18 0 34 -13.5t16 -42.5v-167q19 28 37 46.5t52.5 35t77.5 16.5q79 0 118.5 -47.5t39.5 -116.5q0 -55 -24.5 -88t-67.5 -33h-324zM184 1192h189q43 0 43 57q0 33 -18.5 54.5t-59.5 21.5
q-63 0 -108.5 -46.5t-45.5 -86.5zM0 0v143h137q45 0 81.5 16t59.5 40t40 59.5t25 66t13 68.5t5.5 57.5t0.5 41.5q0 45 -2.5 81.5t-12.5 90t-27.5 97.5t-51.5 93t-80 88q46 41 113 41t117 -38t77 -102.5t39.5 -136.5t12.5 -153q0 -55 -5.5 -107.5t-19 -108.5t-35 -104
t-55 -92t-76.5 -74.5t-102.5 -48.5t-130.5 -18h-123z" />
    <glyph glyph-name="uniFB69" unicode="&#x679;" horiz-adv-x="673" arabic-form="medial" 
d="M127 1116q-17 0 -17 38t17 38h33v260q0 34 -27 61q1 4 12.5 8.5t22.5 4.5q17 0 33 -13.5t16 -42.5v-167q30 44 68 71t100 27q79 0 118.5 -47.5t39.5 -116.5q0 -55 -24.5 -88t-67.5 -33h-324zM362 1325q-63 0 -108 -46.5t-45 -86.5h188q43 0 43 57q0 33 -18.5 54.5
t-59.5 21.5zM471 143h203v-143h-195q-120 0 -192 53q-72 -47 -170 -53h-117v143h117q57 3 116 25v721q0 94 93 94q92 0 92 -92v-580q0 -34 1.5 -57t6 -52t16 -44t29.5 -15z" />
    <glyph glyph-name="uniFB6B" unicode="&#x6a4;" horiz-adv-x="2013" arabic-form="final" 
d="M1481 1378q-44 0 -76.5 32.5t-32.5 76.5t32.5 76t76.5 32t76 -32t32 -76t-32 -76.5t-76 -32.5zM1331 1116q-48 0 -82.5 35t-34.5 84q0 47 35 82t82 35q49 0 83 -34.5t34 -82.5q0 -50 -34 -84.5t-83 -34.5zM1513 1235q0 47 35 82t82 35q49 0 83 -34.5t34 -82.5
q0 -50 -34 -84.5t-83 -34.5q-48 0 -82.5 35t-34.5 84zM1800 143h213v-143h-205q-76 0 -131 20q-47 -20 -116 -20h-1031q-188 0 -292.5 121.5t-104.5 302.5q0 139 58.5 240.5t150.5 101.5q54 0 100 -37q-52 -37 -88.5 -122t-36.5 -204q0 -53 9.5 -94.5t23.5 -68.5t37 -46
t43 -28.5t49 -15t47 -6.5t45 -1h572q-53 78 -76 164t-23 203q0 89 10.5 159t28.5 119.5t47 85t60.5 56.5t74.5 33t83.5 16t93.5 4q69 0 119 -6.5t96 -24.5t75.5 -49t52 -79.5t32.5 -117.5t10 -161v-256q0 -81 -27 -146zM1473 143q99 0 134 45t35 160v266q0 126 -47.5 177
t-132.5 51q-233 0 -233 -328q0 -24 2 -51t7.5 -73.5t20 -86.5t36 -78t58 -60t83.5 -22h37z" />
    <glyph glyph-name="uniFB6C" unicode="&#x6a4;" horiz-adv-x="1089" arabic-form="initial" 
d="M610 1378q-44 0 -76 32.5t-32 76.5t32 76t76 32t76.5 -32t32.5 -76t-32.5 -76.5t-76.5 -32.5zM461 1116q-48 0 -82.5 35t-34.5 84q0 47 35 82t82 35q49 0 83 -34.5t34 -82.5q0 -50 -34 -84.5t-83 -34.5zM643 1235q0 47 35 82t82 35q49 0 83 -34.5t34 -82.5
q0 -50 -34 -84.5t-83 -34.5q-48 0 -82.5 35t-34.5 84zM571 983q69 0 119 -6.5t96 -24.5t75.5 -49t52 -79.5t32.5 -117.5t10 -161v-256q0 -61 -14.5 -111.5t-44.5 -91t-83 -63.5t-124 -23h-690v143h272q-52 78 -75 164t-23 203q0 89 10.5 159t28.5 119.5t47 85t60 56.5
t74.5 33t83.5 16t93 4zM772 348v266q0 126 -47.5 177t-132.5 51q-234 0 -234 -328q0 -24 1 -48t5.5 -63t12.5 -71.5t24 -69t37 -61.5t53.5 -41.5t73.5 -16.5h37q99 0 134.5 45t35.5 160z" />
    <glyph glyph-name="uniFB6D" unicode="&#x6a4;" horiz-adv-x="1142" arabic-form="medial" 
d="M610 1378q-44 0 -76 32.5t-32 76.5t32 76t76 32t76.5 -32t32.5 -76t-32.5 -76.5t-76.5 -32.5zM461 1116q-48 0 -82.5 35t-34.5 84q0 47 35 82t82 35q49 0 83 -34.5t34 -82.5q0 -50 -34 -84.5t-83 -34.5zM643 1235q0 47 35 82t82 35q49 0 83 -34.5t34 -82.5
q0 -50 -34 -84.5t-83 -34.5q-48 0 -82.5 35t-34.5 84zM930 143h213v-143h-205q-80 0 -133 18q-49 -18 -115 -18h-690v143h272q-52 78 -75 164t-23 203q0 89 10.5 159t28.5 119.5t47 85t60 56.5t74.5 33t83.5 16t93 4q69 0 119 -6.5t96 -24.5t75.5 -49t52 -79.5t32.5 -117.5
t10 -161v-256q0 -84 -26 -146zM602 143q99 0 134.5 45t35.5 160v266q0 126 -47.5 177t-132.5 51q-234 0 -234 -328q0 -24 1 -48t5.5 -63t12.5 -71.5t24 -69t37 -61.5t53.5 -41.5t73.5 -16.5h37z" />
    <glyph glyph-name="uniFB7B" unicode="&#x686;" horiz-adv-x="1153" arabic-form="final" 
d="M1006 143h147v-143h-59q-121 0 -193 53q-92 -53 -229 -53h-387q0 -362 176 -510q-14 -13 -50.5 -24t-70.5 -11q-55 0 -98.5 33.5t-69 82.5t-42 110t-22.5 110.5t-6 89.5q0 262 240 262h199q120 0 166 9q159 30 198 192q13 56 13 129q0 90 -22.5 154.5t-75.5 114t-146 74
t-228 24.5q-26 0 -69 -1t-49 -1q-56 0 -88.5 32t-46.5 74q-15 47 -11 80q68 -49 144 -49q13 0 74.5 4t111.5 4q305 0 447.5 -129.5t142.5 -376.5q0 -209 -96 -334zM705 -240q0 -48 -34 -82t-83 -34q-47 0 -82 34.5t-35 81.5q0 49 34.5 84t82.5 35q49 0 83 -34.5t34 -84.5z
M887 -121q49 0 83 -34.5t34 -84.5q0 -48 -34 -82t-83 -34q-47 0 -82 34.5t-35 81.5q0 49 34.5 84t82.5 35zM737 -383q44 0 76.5 -32.5t32.5 -76.5t-32.5 -76t-76.5 -32t-76 32t-32 76t32 76.5t76 32.5z" />
    <glyph glyph-name="uniFB7C" unicode="&#x686;" horiz-adv-x="1093" arabic-form="initial" 
d="M0 0v143h430q117 0 161 8q166 29 204 198q12 54 12 122q0 91 -22.5 156t-75 114.5t-145.5 74t-228 24.5q-26 0 -69.5 -1t-49.5 -1q-63 0 -94.5 28.5t-42.5 83.5q-12 56 -8 74q68 -49 143 -49q13 0 74.5 4t111.5 4q305 0 447.5 -129.5t142.5 -376.5q0 -223 -109.5 -350
t-320.5 -127h-561zM397 -399q-47 0 -81.5 34.5t-34.5 81.5q0 49 34.5 84t81.5 35q49 0 83 -34.5t34 -84.5q0 -48 -34 -82t-83 -34zM696 -399q-47 0 -81.5 34.5t-34.5 81.5q0 49 34.5 84t81.5 35q49 0 83 -34.5t34 -84.5q0 -48 -34 -82t-83 -34zM547 -643q-44 0 -76.5 32
t-32.5 76t32.5 76.5t76.5 32.5t76 -32.5t32 -76.5t-32 -76t-76 -32z" />
    <glyph glyph-name="uniFB7D" unicode="&#x686;" horiz-adv-x="1085" arabic-form="medial" 
d="M895 143h190v-143h-102q-120 0 -192 53q-92 -53 -230 -53h-561v143h430q117 0 161 8q166 29 204 198q12 54 12 122q0 91 -22.5 156t-75 114.5t-145.5 74t-228 24.5q-26 0 -69.5 -1t-49.5 -1q-63 0 -94.5 28.5t-42.5 83.5q-12 56 -8 74q68 -49 143 -49q13 0 74.5 4
t111.5 4q305 0 447.5 -129.5t142.5 -376.5q0 -209 -96 -334zM514 -283q0 -48 -34 -82t-83 -34q-47 0 -81.5 34.5t-34.5 81.5q0 49 34.5 84t81.5 35q49 0 83 -34.5t34 -84.5zM696 -164q49 0 83 -34.5t34 -84.5q0 -48 -34 -82t-83 -34q-47 0 -81.5 34.5t-34.5 81.5
q0 49 34.5 84t81.5 35zM547 -426q44 0 76 -32.5t32 -76.5t-32 -76t-76 -32t-76.5 32t-32.5 76t32.5 76.5t76.5 32.5z" />
    <glyph glyph-name="uniFB89" unicode="&#x688;" horiz-adv-x="1095" arabic-form="final" 
d="M297 1116q-17 0 -17 38t17 38h33v260q0 34 -27 61q1 4 12.5 8.5t22.5 4.5q17 0 33 -13.5t16 -42.5v-167q30 44 68 71t100 27q79 0 118.5 -47.5t39.5 -116.5q0 -55 -24.5 -88t-67.5 -33h-324zM532 1325q-63 0 -108 -46.5t-45 -86.5h188q43 0 43 57q0 33 -18.5 54.5
t-59.5 21.5zM758 143h338v-143h-250q-121 0 -193 53q-85 -53 -196 -53h-299q-29 0 -42.5 21t-13.5 47q0 30 18.5 52.5t59.5 22.5h109q109 0 192 32.5t130.5 88.5t70.5 123t23 143q0 138 -68.5 224.5t-183.5 85.5q-77 -25 -117.5 -74t-40.5 -137q-53 -5 -94 14
q-68 29 -68 113q0 98 92 162.5t234 64.5q88 0 161.5 -27.5t122 -73t82.5 -105.5t49 -122t15 -125q0 -93 -32.5 -200t-98.5 -187zM399 834h4h-4z" />
    <glyph glyph-name="uniFB8B" unicode="&#x698;" horiz-adv-x="653" arabic-form="final" 
d="M358 1378q-44 0 -76 32.5t-32 76.5t32 76t76 32t76.5 -32t32.5 -76t-32.5 -76.5t-76.5 -32.5zM209 1116q-48 0 -82.5 35t-34.5 84q0 47 35 82t82 35q49 0 83 -34.5t34 -82.5q0 -50 -34 -84.5t-83 -34.5zM391 1235q0 47 35 82t82 35q49 0 83 -34.5t34 -82.5
q0 -50 -34 -84.5t-83 -34.5q-48 0 -82.5 35t-34.5 84zM653 143v-143h-202v-150q0 -34 -7 -71.5t-28 -83t-53.5 -81t-88.5 -59.5t-127 -24q-57 0 -104 14t-75.5 36t-40.5 34.5t-19 22.5q64 -17 127 -17q62 0 109.5 20.5t73 53t38 66t12.5 65.5l-2 1071q0 86 92 86
q40 0 66.5 -20t26.5 -64v-756h202z" />
    <glyph glyph-name="uniFB8D" unicode="&#x691;" horiz-adv-x="653" arabic-form="final" 
d="M160 1116q-17 0 -17 38t17 38h33v260q0 34 -27 61q1 4 12.5 8.5t22.5 4.5q17 0 33 -13.5t16 -42.5v-167q30 44 68 71t100 27q79 0 118 -47t39 -117q0 -55 -24.5 -88t-67.5 -33h-323zM395 1325q-63 0 -108 -46.5t-45 -86.5h188q43 0 43 57q0 33 -18.5 54.5t-59.5 21.5z
M653 143v-143h-202v-150q0 -34 -7 -71.5t-28 -83t-53.5 -81t-88.5 -59.5t-127 -24q-57 0 -104 14t-75.5 36t-40.5 34.5t-19 22.5q64 -17 127 -17q62 0 109.5 20.5t73 53t38 66t12.5 65.5l-2 1071q0 86 92 86q40 0 66.5 -20t26.5 -64v-756h202z" />
    <glyph glyph-name="uniFB8F" unicode="&#x6a9;" horiz-adv-x="1890" arabic-form="final" 
d="M1526 143h364v-143h-291q-105 0 -172 41q-64 -37 -157 -37h-871q-71 0 -124 23t-83 63.5t-44.5 91t-14.5 111.5v264q0 88 92 88t92 -90v-203q0 -115 35.5 -160t134.5 -45h705q92 0 141 53t49 138q0 95 -63.5 149t-196.5 54h-200q-146 0 -221.5 86.5t-75.5 244.5
q0 171 97 260t314 89q41 0 187 -4.5t161 -4.5q75 0 144 50q4 -30 -8 -74q-13 -45 -46.5 -79t-87.5 -34q-6 0 -140 2t-165 2q-149 0 -210.5 -45.5t-61.5 -148.5q0 -97 48 -149t142 -52h160q408 0 408 -350q0 -114 -41 -191z" />
    <glyph glyph-name="uniFB90" unicode="&#x6a9;" horiz-adv-x="1218" arabic-form="initial" 
d="M0 0v143h711q92 0 141 53t49 138q0 95 -63.5 149t-196.5 54h-201q-146 0 -221.5 86.5t-75.5 244.5q0 171 97.5 260t314.5 89q41 0 187 -4.5t161 -4.5q76 0 144 49q4 -27 -9 -73q-13 -45 -46 -79t-87 -34q-6 0 -140 2t-165 2q-149 0 -210.5 -45.5t-61.5 -148.5
q0 -97 48 -149t142 -52h160q407 0 407 -350q0 -154 -76 -242t-221 -88h-788z" />
    <glyph glyph-name="uniFB91" unicode="&#x6a9;" horiz-adv-x="1546" arabic-form="medial" 
d="M1047 143h499v-143h-473q-85 0 -147 27q-66 -27 -138 -27h-788v143h711q92 0 141 53t49 138q0 95 -63.5 149t-196.5 54h-201q-146 0 -221.5 86.5t-75.5 244.5q0 171 97.5 260t314.5 89q41 0 187 -4.5t161 -4.5q76 0 144 49q4 -27 -9 -73q-13 -45 -46 -79t-87 -34
q-6 0 -140 2t-165 2q-149 0 -210.5 -45.5t-61.5 -148.5q0 -97 48 -149t142 -52h160q407 0 407 -350q0 -115 -38 -187z" />
    <glyph glyph-name="uniFB93" unicode="&#x6af;" horiz-adv-x="1890" arabic-form="final" 
d="M891 1325q-75 0 -143 -49q-4 30 8 74q13 45 46 78.5t87 33.5h473q75 0 143 49q4 -29 -8 -73q-13 -45 -46 -79t-87 -34h-473zM1526 143h364v-143h-291q-105 0 -172 41q-64 -37 -157 -37h-871q-71 0 -124 23t-83 63.5t-44.5 91t-14.5 111.5v264q0 88 92 88t92 -90v-203
q0 -115 35.5 -160t134.5 -45h705q92 0 141 53t49 138q0 95 -63.5 149t-196.5 54h-200q-146 0 -221.5 86.5t-75.5 244.5q0 171 97 260t314 89q41 0 187 -4.5t161 -4.5q75 0 144 50q4 -30 -8 -74q-13 -45 -46.5 -79t-87.5 -34q-6 0 -140 2t-165 2q-149 0 -210.5 -45.5
t-61.5 -148.5q0 -97 48 -149t142 -52h160q408 0 408 -350q0 -114 -41 -191z" />
    <glyph glyph-name="uniFB94" unicode="&#x6af;" horiz-adv-x="1218" arabic-form="initial" 
d="M170 1276q-4 30 8 74q13 45 46 78.5t87 33.5h473q76 0 144 49q4 -29 -8 -73q-13 -45 -46.5 -79t-87.5 -34h-473q-75 0 -143 -49zM0 0v143h711q92 0 141 53t49 138q0 95 -63.5 149t-196.5 54h-201q-146 0 -221.5 86.5t-75.5 244.5q0 171 97.5 260t314.5 89q41 0 187 -4.5
t161 -4.5q76 0 144 49q4 -27 -9 -73q-13 -45 -46 -79t-87 -34q-6 0 -140 2t-165 2q-149 0 -210.5 -45.5t-61.5 -148.5q0 -97 48 -149t142 -52h160q407 0 407 -350q0 -154 -76 -242t-221 -88h-788z" />
    <glyph glyph-name="uniFB95" unicode="&#x6af;" horiz-adv-x="1546" arabic-form="medial" 
d="M313 1325q-75 0 -143 -49q-4 30 8 74q13 45 46 78.5t87 33.5h473q76 0 144 49q4 -29 -8 -73q-13 -45 -46.5 -79t-87.5 -34h-473zM1047 143h499v-143h-473q-85 0 -147 27q-66 -27 -138 -27h-788v143h711q92 0 141 53t49 138q0 95 -63.5 149t-196.5 54h-201
q-146 0 -221.5 86.5t-75.5 244.5q0 171 97.5 260t314.5 89q41 0 187 -4.5t161 -4.5q76 0 144 49q4 -27 -9 -73q-13 -45 -46 -79t-87 -34q-6 0 -140 2t-165 2q-149 0 -210.5 -45.5t-61.5 -148.5q0 -97 48 -149t142 -52h160q407 0 407 -350q0 -115 -38 -187z" />
    <glyph glyph-name="uniFB9F" unicode="&#x6ba;" horiz-adv-x="1429" arabic-form="final" 
d="M1257 143h173v-143h-23q-58 0 -90 9.5t-60 31.5q-8 -252 -141.5 -388t-398.5 -136q-125 0 -225.5 31.5t-166 83.5t-110 122t-63.5 144.5t-19 154.5q0 103 29 199t86.5 160.5t130.5 64.5q51 0 104 -33q-11 -11 -26 -28t-39.5 -55t-43.5 -81t-33.5 -107t-14.5 -132
q0 -89 28 -158t71 -110t100.5 -67.5t109.5 -36t104 -9.5q67 0 120.5 18t87.5 44.5t59 69t37.5 80t19.5 90t8.5 86t1.5 79.5v774q0 82 92 82t92 -82v-758z" />
    <glyph glyph-name="uniFBA7" unicode="&#x6c1;" horiz-adv-x="1345" arabic-form="final" 
d="M1145 143h201v-143h-324q-25 0 -42 16t-17 41v783q-99 0 -189.5 -37t-160 -100.5t-126.5 -147.5t-93.5 -177.5t-56.5 -190t-20 -187.5h-184q0 207 64.5 385.5t184 311.5t302.5 209.5t406 76.5q23 0 39 -17t16 -42v-781z" />
    <glyph glyph-name="uniFBA8" unicode="&#x6c1;" horiz-adv-x="679" arabic-form="initial" 
d="M0 0v143h137q45 0 81.5 16t59.5 40t40 59.5t25 66t13 68.5t5.5 57.5t0.5 41.5q0 45 -2.5 81.5t-12.5 90t-27.5 97.5t-51.5 93t-80 88q46 41 113 41t117 -38t77 -102.5t39.5 -136.5t12.5 -153q0 -55 -5.5 -107.5t-19 -108.5t-35 -104t-55 -92t-76.5 -74.5t-102.5 -48.5
t-130.5 -18h-123zM307 -594q-62 0 -97.5 37.5t-35.5 105.5q0 252 225 379l21 -30q-82 -57 -123 -122.5t-41 -154.5l61 21q47 0 80 -33t33 -80q0 -54 -34.5 -88.5t-88.5 -34.5z" />
    <glyph glyph-name="uniFBA9" unicode="&#x6c1;" horiz-adv-x="972" arabic-form="medial" 
d="M973 143v-143h-158v-471q0 -19 -13 -31t-32 -12q-153 0 -269.5 26t-191 71t-121 111.5t-65.5 140.5t-19 165h-104v143h246q18 0 30.5 -12.5t12.5 -30.5q0 -36 0.5 -58t3.5 -63t9 -69t18 -66.5t28.5 -64.5t43 -54.5t59.5 -45.5t79 -28t101 -11v460q0 18 12.5 30.5
t30.5 12.5h299z" />
    <glyph glyph-name="uniFBAB" unicode="&#x6be;" horiz-adv-x="1439" arabic-form="final" 
d="M1149 143h291v-143h-223q-118 0 -189 51q-97 -51 -217 -51q-76 0 -179.5 14.5t-133.5 38.5q-127 -53 -285 -53h-80v143h31q2 0 16.5 -4t39.5 -8t52 -4q36 0 76 8q-58 53 -94.5 146.5t-36.5 214.5q0 163 70.5 267.5t206.5 104.5q135 0 205.5 -103.5t70.5 -266.5
q0 -123 -38.5 -218t-100.5 -143q52 -10 94 -10q123 0 213.5 62t135 162t44.5 222q0 79 -20.5 145.5t-54 113.5t-81 84t-98.5 59.5t-109.5 37t-110 20t-103.5 5.5h-97q-89 0 -126 45t-37 144q26 -25 61.5 -37.5t58 -13.5t56.5 0l127 6q64 3 128.5 -2.5t136.5 -22.5t136 -45
t123 -75.5t101.5 -108.5t68 -147.5t25.5 -190.5q0 -131 -40 -247.5t-114 -199.5zM494 725q-39 0 -66.5 -40t-38 -92t-10.5 -108q0 -178 115 -278q114 99 114 278q0 41 -6.5 81t-19 77t-35.5 59.5t-53 22.5zM397 150q16 10 11 12z" />
    <glyph glyph-name="uniFBAC" unicode="&#x6be;" horiz-adv-x="1302" arabic-form="initial" 
d="M451 1182q64 3 128.5 -2.5t136.5 -22.5t136 -45t123 -75.5t101 -108.5t67.5 -147.5t25.5 -190.5q0 -119 -32.5 -224.5t-93 -187.5t-155 -130t-210.5 -48q-76 0 -179.5 14.5t-133.5 38.5q-127 -53 -285 -53h-80v143h31q2 0 16.5 -4t39.5 -8t52 -4q36 0 76 8
q-58 53 -94.5 146.5t-36.5 214.5q0 163 70 267.5t206 104.5q135 0 206 -104t71 -266q0 -123 -38.5 -218t-100.5 -143q52 -10 94 -10q123 0 213.5 62t135 162t44.5 222q0 79 -20.5 145.5t-54 113.5t-81 84t-98.5 59.5t-109.5 37t-110 20t-103.5 5.5h-97q-89 0 -126.5 45
t-37.5 144q26 -25 62 -37.5t58.5 -13.5t56.5 0zM360 725q-30 0 -53 -22.5t-35.5 -59.5t-19 -77t-6.5 -81q0 -179 114 -278q115 100 115 278q0 56 -10.5 108t-38 92t-66.5 40zM264 150q15 9 10 12z" />
    <glyph glyph-name="uniFBAD" unicode="&#x6be;" horiz-adv-x="1306" arabic-form="medial" 
d="M1016 143h291v-143h-224q-117 0 -188 51q-97 -51 -217 -51q-76 0 -179.5 14.5t-133.5 38.5q-127 -53 -285 -53h-80v143h31q2 0 16.5 -4t39.5 -8t52 -4q36 0 76 8q-58 53 -94.5 146.5t-36.5 214.5q0 163 70 267.5t206 104.5q135 0 206 -104t71 -266q0 -123 -38.5 -218
t-100.5 -143q52 -10 94 -10q123 0 213.5 62t135 162t44.5 222q0 79 -20.5 145.5t-54 113.5t-81 84t-98.5 59.5t-109.5 37t-110 20t-103.5 5.5h-97q-89 0 -126.5 45t-37.5 144q26 -25 62 -37.5t58.5 -13.5t56.5 0l127 6q64 3 128.5 -2.5t136.5 -22.5t136 -45t123 -75.5
t101 -108.5t67.5 -147.5t25.5 -190.5q0 -132 -39.5 -248.5t-113.5 -198.5zM360 725q-30 0 -53 -22.5t-35.5 -59.5t-19 -77t-6.5 -81q0 -179 114 -278q115 100 115 278q0 56 -10.5 108t-38 92t-66.5 40zM264 150q15 9 10 12z" />
    <glyph glyph-name="uniFBAF" unicode="&#x6d2;" horiz-adv-x="933" arabic-form="final" 
d="M664 -483q-72 0 -109 1t-103 6.5t-102.5 16.5t-84 33.5t-72 55t-42.5 82.5t-18 114q0 67 18 120t47.5 85.5t68.5 56.5t80.5 33.5t83 16.5t76.5 5.5t61 -0.5h22h344v-143h-309q-32 0 -52.5 -0.5t-56.5 -4t-59.5 -10t-52.5 -19t-46 -30.5t-29 -46t-12 -64
q0 -95 81.5 -130.5t254.5 -35.5h545v-143h-534z" />
    <glyph glyph-name="uniFBB1" unicode="&#x6d3;" horiz-adv-x="933" arabic-form="final" 
d="M170 287q-17 24 -16 46t15.5 34t34 17t40.5 -5q-26 28 -47 75.5t-21 98.5q0 85 59 138.5t162 53.5q127 0 127 -81q0 -31 -18 -49t-37 -17t-31 8q1 36 -24.5 59.5t-57.5 28.5q-24 -5 -43.5 -37.5t-19.5 -87.5q0 -157 168 -157q49 0 69 8q40 0 44 -34q2 -26 -13 -37
q-4 -3 -8 -3q-133 -12 -252.5 -29.5t-130.5 -29.5zM664 -483q-72 0 -109 1t-103 6.5t-102.5 16.5t-84 33.5t-72 55t-42.5 82.5t-18 114q0 67 18 120t47.5 85.5t68.5 56.5t80.5 33.5t83 16.5t76.5 5.5t61 -0.5h22h344v-143h-309q-32 0 -52.5 -0.5t-56.5 -4t-59.5 -10
t-52.5 -19t-46 -30.5t-29 -46t-12 -64q0 -95 81.5 -130.5t254.5 -35.5h545v-143h-534z" />
    <glyph glyph-name="uniFBE8" unicode="&#x649;" horiz-adv-x="679" arabic-form="initial" 
d="M0 0v143h137q45 0 81.5 16t59.5 40t40 59.5t25 66t13 68.5t5.5 57.5t0.5 41.5q0 45 -2.5 81.5t-12.5 90t-27.5 97.5t-51.5 93t-80 88q46 41 113 41t117 -38t77 -102.5t39.5 -136.5t12.5 -153q0 -55 -5.5 -107.5t-19 -108.5t-35 -104t-55 -92t-76.5 -74.5t-102.5 -48.5
t-130.5 -18h-123z" />
    <glyph glyph-name="uniFBE9" unicode="&#x649;" horiz-adv-x="673" arabic-form="medial" 
d="M471 143h203v-143h-195q-120 0 -192 53q-72 -47 -170 -53h-117v143h117q57 3 116 25v721q0 94 93 94q92 0 92 -92v-580q0 -34 1.5 -57t6 -52t16 -44t29.5 -15z" />
    <glyph glyph-name="uniFBFD" unicode="&#x6cc;" horiz-adv-x="1867" arabic-form="final" 
d="M838 -483q-133 0 -242.5 24t-181 62t-125.5 91t-82.5 104t-46.5 109t-22.5 97.5t-4.5 77.5q0 134 58.5 220.5t152.5 86.5q36 0 63.5 -13.5t38.5 -29.5q-53 -43 -90 -136.5t-37 -189.5q0 -77 27 -139t87 -114t169 -80.5t260 -28.5q252 0 390.5 95t138.5 247h-60
q-51 0 -89.5 13t-59 33.5t-31 46.5t-9.5 51.5t9 48.5q73 -50 178 -50h539v-143h-297q0 -65 -23 -130.5t-76.5 -129.5t-130.5 -113t-195.5 -79.5t-262.5 -30.5h-45z" />
    <glyph glyph-name="uniFBFE" unicode="&#x6cc;" horiz-adv-x="679" arabic-form="initial" 
d="M0 0v143h137q45 0 81.5 16t59.5 40t40 59.5t25 66t13 68.5t5.5 57.5t0.5 41.5q0 45 -2.5 81.5t-12.5 90t-27.5 97.5t-51.5 93t-80 88q46 41 113 41t117 -38t77 -102.5t39.5 -136.5t12.5 -153q0 -55 -5.5 -107.5t-19 -108.5t-35 -104t-55 -92t-76.5 -74.5t-102.5 -48.5
t-130.5 -18h-123zM152 -399q-47 0 -82 34.5t-35 81.5q0 49 34.5 84t82.5 35q49 0 82.5 -34.5t33.5 -84.5q0 -48 -33.5 -82t-82.5 -34zM451 -399q-47 0 -82 34.5t-35 81.5q0 49 34.5 84t82.5 35q49 0 82.5 -34.5t33.5 -84.5q0 -48 -33.5 -82t-82.5 -34z" />
    <glyph glyph-name="uniFBFF" unicode="&#x6cc;" horiz-adv-x="673" arabic-form="medial" 
d="M471 143h203v-143h-195q-120 0 -192 53q-72 -47 -170 -53h-117v143h117q57 3 116 25v721q0 94 93 94q92 0 92 -92v-580q0 -34 1.5 -57t6 -52t16 -44t29.5 -15zM176 -164q49 0 83 -34.5t34 -84.5q0 -48 -34 -82t-83 -34q-47 0 -82 34.5t-35 81.5q0 49 34.5 84t82.5 35z
M475 -164q49 0 83 -34.5t34 -84.5q0 -48 -34 -82t-83 -34q-47 0 -82 34.5t-35 81.5q0 49 34.5 84t82.5 35z" />
    <glyph glyph-name="uniFC64" unicode="&#xfc64;" horiz-adv-x="1327" arabic-form="final" 
d="M1167 1176q-131 -12 -251.5 -29.5t-131.5 -30.5q-17 24 -16 46t15.5 34t34 17t40.5 -5q-26 27 -46.5 75t-20.5 99q0 85 59 139t162 54q127 0 127 -82q0 -31 -18 -49t-37 -16.5t-31 8.5q1 36 -24.5 59.5t-57.5 28.5q-24 -5 -44 -37.5t-20 -87.5q0 -158 168 -158q50 0 70 8
q41 0 43 -34q2 -26 -14 -37q-3 -2 -7 -2zM1253 143h74v-143h-129q-63 0 -118 23.5t-99 70t-69 125t-25 180.5v441q-111 0 -201 -17t-134 -35t-101 -49v-889q0 -34 -7 -71.5t-28 -83t-53.5 -81t-88.5 -59.5t-127 -24q-57 0 -104 14t-75.5 36t-40.5 34.5t-19 22.5
q64 -17 127 -17q62 0 109 20.5t72.5 53t37.5 66t12 65.5v915q49 92 198.5 167t369.5 75q43 0 74 -3.5t64 -15.5t53 -33.5t33 -59.5t13 -91v-395q0 -95 47.5 -168.5t134.5 -73.5z" />
    <glyph glyph-name="uniFC65" unicode="&#xfc65;" horiz-adv-x="1327" arabic-form="final" 
d="M1167 1176q-131 -12 -251.5 -29.5t-131.5 -30.5q-17 24 -16 46t15.5 34t34 17t40.5 -5q-26 27 -46.5 75t-20.5 99q0 85 59 139t162 54q127 0 127 -82q0 -31 -18 -49t-37 -16.5t-31 8.5q1 36 -24.5 59.5t-57.5 28.5q-24 -5 -44 -37.5t-20 -87.5q0 -158 168 -158q50 0 70 8
q41 0 43 -34q2 -26 -14 -37q-3 -2 -7 -2zM360 1116q-50 0 -85 34.5t-35 82.5q0 50 34.5 84.5t85.5 34.5q48 0 82.5 -35t34.5 -84q0 -47 -35 -82t-82 -35zM1253 143h74v-143h-129q-63 0 -118 23.5t-99 70t-69 125t-25 180.5v441q-111 0 -201 -17t-134 -35t-101 -49v-889
q0 -34 -7 -71.5t-28 -83t-53.5 -81t-88.5 -59.5t-127 -24q-57 0 -104 14t-75.5 36t-40.5 34.5t-19 22.5q64 -17 127 -17q62 0 109 20.5t72.5 53t37.5 66t12 65.5v915q49 92 198.5 167t369.5 75q43 0 74 -3.5t64 -15.5t53 -33.5t33 -59.5t13 -91v-395q0 -95 47.5 -168.5
t134.5 -73.5z" />
    <glyph glyph-name="uniFC6A" unicode="&#xfc6a;" horiz-adv-x="1327" arabic-form="final" 
d="M1253 143h74v-143h-129q-63 0 -118 23.5t-99 70t-69 125t-25 180.5v441q-111 0 -201 -17t-134 -35t-101 -49v-889q0 -34 -7 -71.5t-28 -83t-53.5 -81t-88.5 -59.5t-127 -24q-57 0 -104 14t-75.5 36t-40.5 34.5t-19 22.5q64 -17 127 -17q62 0 109 20.5t72.5 53t37.5 66
t12 65.5v915q49 92 198.5 167t369.5 75q43 0 74 -3.5t64 -15.5t53 -33.5t33 -59.5t13 -91v-395q0 -95 47.5 -168.5t134.5 -73.5zM981 -164q48 0 82.5 -35t34.5 -84q0 -47 -35 -81.5t-82 -34.5q-51 0 -86 34t-35 82q0 50 35 84.5t86 34.5z" />
    <glyph glyph-name="uniFC6B" unicode="&#xfc6b;" horiz-adv-x="1327" arabic-form="final" 
d="M360 1116q-50 0 -85 34.5t-35 82.5q0 50 34.5 84.5t85.5 34.5q48 0 82.5 -35t34.5 -84q0 -47 -35 -82t-82 -35zM1253 143h74v-143h-129q-63 0 -118 23.5t-99 70t-69 125t-25 180.5v441q-111 0 -201 -17t-134 -35t-101 -49v-889q0 -34 -7 -71.5t-28 -83t-53.5 -81
t-88.5 -59.5t-127 -24q-57 0 -104 14t-75.5 36t-40.5 34.5t-19 22.5q64 -17 127 -17q62 0 109 20.5t72.5 53t37.5 66t12 65.5v915q49 92 198.5 167t369.5 75q43 0 74 -3.5t64 -15.5t53 -33.5t33 -59.5t13 -91v-395q0 -95 47.5 -168.5t134.5 -73.5zM981 -164q48 0 82.5 -35
t34.5 -84q0 -47 -35 -81.5t-82 -34.5q-51 0 -86 34t-35 82q0 50 35 84.5t86 34.5z" />
    <glyph glyph-name="uniFC70" unicode="&#xfc70;" horiz-adv-x="1327" arabic-form="final" 
d="M831 1116q-47 0 -81.5 35t-34.5 82q0 49 34.5 84t81.5 35q49 0 83 -34.5t34 -84.5q0 -48 -34 -82.5t-83 -34.5zM1130 1116q-47 0 -81.5 35t-34.5 82q0 49 34.5 84t81.5 35q49 0 83 -34.5t34 -84.5q0 -48 -34 -82.5t-83 -34.5zM1253 143h74v-143h-129q-63 0 -118 23.5
t-99 70t-69 125t-25 180.5v441q-111 0 -201 -17t-134 -35t-101 -49v-889q0 -34 -7 -71.5t-28 -83t-53.5 -81t-88.5 -59.5t-127 -24q-57 0 -104 14t-75.5 36t-40.5 34.5t-19 22.5q64 -17 127 -17q62 0 109 20.5t72.5 53t37.5 66t12 65.5v915q49 92 198.5 167t369.5 75
q43 0 74 -3.5t64 -15.5t53 -33.5t33 -59.5t13 -91v-395q0 -95 47.5 -168.5t134.5 -73.5z" />
    <glyph glyph-name="uniFC71" unicode="&#xfc71;" horiz-adv-x="1327" arabic-form="final" 
d="M360 1116q-50 0 -85 34.5t-35 82.5q0 50 34.5 84.5t85.5 34.5q48 0 82.5 -35t34.5 -84q0 -47 -35 -82t-82 -35zM831 1116q-47 0 -81.5 35t-34.5 82q0 49 34.5 84t81.5 35q49 0 83 -34.5t34 -84.5q0 -48 -34 -82.5t-83 -34.5zM1130 1116q-47 0 -81.5 35t-34.5 82
q0 49 34.5 84t81.5 35q49 0 83 -34.5t34 -84.5q0 -48 -34 -82.5t-83 -34.5zM1253 143h74v-143h-129q-63 0 -118 23.5t-99 70t-69 125t-25 180.5v441q-111 0 -201 -17t-134 -35t-101 -49v-889q0 -34 -7 -71.5t-28 -83t-53.5 -81t-88.5 -59.5t-127 -24q-57 0 -104 14t-75.5 36
t-40.5 34.5t-19 22.5q64 -17 127 -17q62 0 109 20.5t72.5 53t37.5 66t12 65.5v915q49 92 198.5 167t369.5 75q43 0 74 -3.5t64 -15.5t53 -33.5t33 -59.5t13 -91v-395q0 -95 47.5 -168.5t134.5 -73.5z" />
    <glyph glyph-name="uniFC76" unicode="&#xfc76;" horiz-adv-x="1327" arabic-form="final" 
d="M979 1378q-44 0 -76.5 32.5t-32.5 76.5t32.5 76t76.5 32t76 -32t32 -76t-32 -76.5t-76 -32.5zM829 1116q-47 0 -81.5 35t-34.5 84q0 47 34.5 82t81.5 35q49 0 83 -34.5t34 -82.5q0 -50 -34 -84.5t-83 -34.5zM1012 1235q0 47 34.5 82t81.5 35q49 0 83 -34.5t34 -82.5
q0 -50 -34 -84.5t-83 -34.5q-47 0 -81.5 35t-34.5 84zM1253 143h74v-143h-129q-63 0 -118 23.5t-99 70t-69 125t-25 180.5v441q-111 0 -201 -17t-134 -35t-101 -49v-889q0 -34 -7 -71.5t-28 -83t-53.5 -81t-88.5 -59.5t-127 -24q-57 0 -104 14t-75.5 36t-40.5 34.5t-19 22.5
q64 -17 127 -17q62 0 109 20.5t72.5 53t37.5 66t12 65.5v915q49 92 198.5 167t369.5 75q43 0 74 -3.5t64 -15.5t53 -33.5t33 -59.5t13 -91v-395q0 -95 47.5 -168.5t134.5 -73.5z" />
    <glyph glyph-name="uniFC77" unicode="&#xfc77;" horiz-adv-x="1327" arabic-form="final" 
d="M979 1378q-44 0 -76.5 32.5t-32.5 76.5t32.5 76t76.5 32t76 -32t32 -76t-32 -76.5t-76 -32.5zM360 1116q-50 0 -85 34.5t-35 82.5q0 50 34.5 84.5t85.5 34.5q48 0 82.5 -35t34.5 -84q0 -47 -35 -82t-82 -35zM829 1116q-47 0 -81.5 35t-34.5 84q0 47 34.5 82t81.5 35
q49 0 83 -34.5t34 -82.5q0 -50 -34 -84.5t-83 -34.5zM1012 1235q0 47 34.5 82t81.5 35q49 0 83 -34.5t34 -82.5q0 -50 -34 -84.5t-83 -34.5q-47 0 -81.5 35t-34.5 84zM1253 143h74v-143h-129q-63 0 -118 23.5t-99 70t-69 125t-25 180.5v441q-111 0 -201 -17t-134 -35
t-101 -49v-889q0 -34 -7 -71.5t-28 -83t-53.5 -81t-88.5 -59.5t-127 -24q-57 0 -104 14t-75.5 36t-40.5 34.5t-19 22.5q64 -17 127 -17q62 0 109 20.5t72.5 53t37.5 66t12 65.5v915q49 92 198.5 167t369.5 75q43 0 74 -3.5t64 -15.5t53 -33.5t33 -59.5t13 -91v-395
q0 -95 47.5 -168.5t134.5 -73.5z" />
    <glyph glyph-name="uniFC8A" unicode="&#xfc8a;" horiz-adv-x="1327" arabic-form="final" 
d="M981 1116q-51 0 -86 34.5t-35 82.5q0 50 35 84.5t86 34.5q48 0 82.5 -35t34.5 -84q0 -47 -35 -82t-82 -35zM1253 143h74v-143h-129q-63 0 -118 23.5t-99 70t-69 125t-25 180.5v441q-111 0 -201 -17t-134 -35t-101 -49v-889q0 -34 -7 -71.5t-28 -83t-53.5 -81t-88.5 -59.5
t-127 -24q-57 0 -104 14t-75.5 36t-40.5 34.5t-19 22.5q64 -17 127 -17q62 0 109 20.5t72.5 53t37.5 66t12 65.5v915q49 92 198.5 167t369.5 75q43 0 74 -3.5t64 -15.5t53 -33.5t33 -59.5t13 -91v-395q0 -95 47.5 -168.5t134.5 -73.5z" />
    <glyph glyph-name="uniFC8B" unicode="&#xfc8b;" horiz-adv-x="1327" arabic-form="final" 
d="M360 1116q-50 0 -85 34.5t-35 82.5q0 50 34.5 84.5t85.5 34.5q48 0 82.5 -35t34.5 -84q0 -47 -35 -82t-82 -35zM981 1116q-51 0 -86 34.5t-35 82.5q0 50 35 84.5t86 34.5q48 0 82.5 -35t34.5 -84q0 -47 -35 -82t-82 -35zM1253 143h74v-143h-129q-63 0 -118 23.5t-99 70
t-69 125t-25 180.5v441q-111 0 -201 -17t-134 -35t-101 -49v-889q0 -34 -7 -71.5t-28 -83t-53.5 -81t-88.5 -59.5t-127 -24q-57 0 -104 14t-75.5 36t-40.5 34.5t-19 22.5q64 -17 127 -17q62 0 109 20.5t72.5 53t37.5 66t12 65.5v915q49 92 198.5 167t369.5 75q43 0 74 -3.5
t64 -15.5t53 -33.5t33 -59.5t13 -91v-395q0 -95 47.5 -168.5t134.5 -73.5z" />
    <glyph glyph-name="uniFC91" unicode="&#xfc91;" horiz-adv-x="1327" arabic-form="final" 
d="M1253 143h74v-143h-129q-63 0 -118 23.5t-99 70t-69 125t-25 180.5v441q-111 0 -201 -17t-134 -35t-101 -49v-889q0 -34 -7 -71.5t-28 -83t-53.5 -81t-88.5 -59.5t-127 -24q-57 0 -104 14t-75.5 36t-40.5 34.5t-19 22.5q64 -17 127 -17q62 0 109 20.5t72.5 53t37.5 66
t12 65.5v915q49 92 198.5 167t369.5 75q43 0 74 -3.5t64 -15.5t53 -33.5t33 -59.5t13 -91v-395q0 -95 47.5 -168.5t134.5 -73.5zM829 -164q49 0 83 -34.5t34 -84.5q0 -48 -34 -82t-83 -34q-47 0 -81.5 34.5t-34.5 81.5q0 49 34.5 84t81.5 35zM1128 -164q49 0 83 -34.5
t34 -84.5q0 -48 -34 -82t-83 -34q-47 0 -81.5 34.5t-34.5 81.5q0 49 34.5 84t81.5 35z" />
    <glyph glyph-name="uniFC92" unicode="&#xfc92;" horiz-adv-x="1327" arabic-form="final" 
d="M360 1116q-50 0 -85 34.5t-35 82.5q0 50 34.5 84.5t85.5 34.5q48 0 82.5 -35t34.5 -84q0 -47 -35 -82t-82 -35zM1253 143h74v-143h-129q-63 0 -118 23.5t-99 70t-69 125t-25 180.5v441q-111 0 -201 -17t-134 -35t-101 -49v-889q0 -34 -7 -71.5t-28 -83t-53.5 -81
t-88.5 -59.5t-127 -24q-57 0 -104 14t-75.5 36t-40.5 34.5t-19 22.5q64 -17 127 -17q62 0 109 20.5t72.5 53t37.5 66t12 65.5v915q49 92 198.5 167t369.5 75q43 0 74 -3.5t64 -15.5t53 -33.5t33 -59.5t13 -91v-395q0 -95 47.5 -168.5t134.5 -73.5zM829 -164q49 0 83 -34.5
t34 -84.5q0 -48 -34 -82t-83 -34q-47 0 -81.5 34.5t-34.5 81.5q0 49 34.5 84t81.5 35zM1128 -164q49 0 83 -34.5t34 -84.5q0 -48 -34 -82t-83 -34q-47 0 -81.5 34.5t-34.5 81.5q0 49 34.5 84t81.5 35z" />
    <glyph glyph-name="uniFD0D" unicode="&#xfd0d;" horiz-adv-x="2500" arabic-form="isolated" 
d="M1597 1378q-44 0 -76 32.5t-32 76.5t32 76t76 32t76.5 -32t32.5 -76t-32.5 -76.5t-76.5 -32.5zM1448 1116q-48 0 -82.5 35t-34.5 84q0 47 35 82t82 35q49 0 83 -34.5t34 -82.5q0 -50 -34 -84.5t-83 -34.5zM1630 1235q0 47 35 82t82 35q49 0 83 -34.5t34 -82.5
q0 -50 -34 -84.5t-83 -34.5q-48 0 -82.5 35t-34.5 84zM2122 983q67 0 117 -38t76.5 -102.5t39 -136.5t12.5 -153q0 -79 -11 -151.5t-40.5 -148t-75.5 -130t-122 -89t-174 -34.5h-23q-113 0 -182 26t-135 93q-40 -48 -99.5 -83.5t-120.5 -35.5h-186q-63 0 -118 23.5t-99 70
t-69 125t-25 180.5v441q-111 0 -201 -17t-134 -35t-101 -49v-889q0 -34 -7 -71.5t-28 -83t-53.5 -81t-88.5 -59.5t-127 -24q-57 0 -104 14t-75.5 36t-40.5 34.5t-19 22.5q64 -17 127 -17q62 0 109 20.5t72.5 53t37.5 66t12 65.5v915q49 92 198.5 167t369.5 75q43 0 74 -3.5
t64 -15.5t53 -33.5t33 -59.5t13 -91v-395q0 -95 47.5 -168.5t134.5 -73.5h60q105 0 145.5 39.5t40.5 114.5v526q0 45 25.5 71t72.5 26q86 0 86 -97v-411q0 -44 5.5 -84.5t20 -85.5t46.5 -72t78 -27h125q45 0 82 17.5t59.5 43t39.5 62t25 68t13 68.5t5.5 55t0.5 35
q0 45 -2.5 81.5t-12.5 90t-27.5 97.5t-51.5 93t-80 88q46 41 113 41z" />
    <glyph glyph-name="uniFD0E" unicode="&#xfd0e;" horiz-adv-x="2500" arabic-form="isolated" 
d="M2122 983q67 0 117 -38t76.5 -102.5t39 -136.5t12.5 -153q0 -79 -11 -151.5t-40.5 -148t-75.5 -130t-122 -89t-174 -34.5h-23q-113 0 -182 26t-135 93q-40 -48 -99.5 -83.5t-120.5 -35.5h-186q-63 0 -118 23.5t-99 70t-69 125t-25 180.5v441q-111 0 -201 -17t-134 -35
t-101 -49v-889q0 -34 -7 -71.5t-28 -83t-53.5 -81t-88.5 -59.5t-127 -24q-57 0 -104 14t-75.5 36t-40.5 34.5t-19 22.5q64 -17 127 -17q62 0 109 20.5t72.5 53t37.5 66t12 65.5v915q49 92 198.5 167t369.5 75q43 0 74 -3.5t64 -15.5t53 -33.5t33 -59.5t13 -91v-395
q0 -95 47.5 -168.5t134.5 -73.5h60q105 0 145.5 39.5t40.5 114.5v526q0 45 25.5 71t72.5 26q86 0 86 -97v-411q0 -44 5.5 -84.5t20 -85.5t46.5 -72t78 -27h125q45 0 82 17.5t59.5 43t39.5 62t25 68t13 68.5t5.5 55t0.5 35q0 45 -2.5 81.5t-12.5 90t-27.5 97.5t-51.5 93
t-80 88q46 41 113 41z" />
    <glyph glyph-name="uniFD0F" unicode="&#xfd0f;" horiz-adv-x="2174" arabic-form="isolated" 
d="M1491 983q75 0 147.5 -14t147 -50.5t130 -91.5t91 -144.5t35.5 -201.5q0 -36 -3 -71.5t-14 -85t-28.5 -92.5t-50 -87t-75 -75t-107 -50.5t-142.5 -19.5h-735v840q-111 0 -201 -17t-134 -35t-101 -49v-889q0 -34 -7 -71.5t-28 -83t-53.5 -81t-88.5 -59.5t-127 -24
q-57 0 -104 14t-75.5 36t-40.5 34.5t-19 22.5q64 -17 127 -17q62 0 109 20.5t72.5 53t37.5 66t12 65.5v915q49 92 198.5 167t369.5 75q47 0 80.5 -5t67 -18.5t55 -43t30.5 -74.5q73 59 184 100t240 41zM1542 143q81 0 142 28t93 66.5t51.5 89.5t24.5 87t5 69q0 79 -26.5 142
t-68.5 102.5t-98 65.5t-110 36.5t-109 10.5q-124 0 -228.5 -49.5t-146.5 -104.5v-543h471z" />
    <glyph glyph-name="uniFD10" unicode="&#xfd10;" horiz-adv-x="2174" arabic-form="isolated" 
d="M1491 1116q-51 0 -86 34.5t-35 82.5q0 50 35 84.5t86 34.5q48 0 82.5 -35t34.5 -84q0 -47 -35 -82t-82 -35zM1491 983q75 0 147.5 -14t147 -50.5t130 -91.5t91 -144.5t35.5 -201.5q0 -36 -3 -71.5t-14 -85t-28.5 -92.5t-50 -87t-75 -75t-107 -50.5t-142.5 -19.5h-735v840
q-111 0 -201 -17t-134 -35t-101 -49v-889q0 -34 -7 -71.5t-28 -83t-53.5 -81t-88.5 -59.5t-127 -24q-57 0 -104 14t-75.5 36t-40.5 34.5t-19 22.5q64 -17 127 -17q62 0 109 20.5t72.5 53t37.5 66t12 65.5v915q49 92 198.5 167t369.5 75q47 0 80.5 -5t67 -18.5t55 -43
t30.5 -74.5q73 59 184 100t240 41zM1542 143q81 0 142 28t93 66.5t51.5 89.5t24.5 87t5 69q0 79 -26.5 142t-68.5 102.5t-98 65.5t-110 36.5t-109 10.5q-124 0 -228.5 -49.5t-146.5 -104.5v-543h471z" />
    <glyph glyph-name="uniFD29" unicode="&#xfd29;" horiz-adv-x="2588" arabic-form="final" 
d="M1597 1378q-44 0 -76 32.5t-32 76.5t32 76t76 32t76.5 -32t32.5 -76t-32.5 -76.5t-76.5 -32.5zM1448 1116q-48 0 -82.5 35t-34.5 84q0 47 35 82t82 35q49 0 83 -34.5t34 -82.5q0 -50 -34 -84.5t-83 -34.5zM1630 1235q0 47 35 82t82 35q49 0 83 -34.5t34 -82.5
q0 -50 -34 -84.5t-83 -34.5q-48 0 -82.5 35t-34.5 84zM2255 143h334v-143h-273q-114 0 -178 45q-82 -45 -194 -45h-23q-113 0 -182 26t-135 93q-40 -48 -99.5 -83.5t-120.5 -35.5h-186q-63 0 -118 23.5t-99 70t-69 125t-25 180.5v441q-111 0 -201 -17t-134 -35t-101 -49
v-889q0 -34 -7 -71.5t-28 -83t-53.5 -81t-88.5 -59.5t-127 -24q-57 0 -104 14t-75.5 36t-40.5 34.5t-19 22.5q64 -17 127 -17q62 0 109 20.5t72.5 53t37.5 66t12 65.5v915q49 92 198.5 167t369.5 75q43 0 74 -3.5t64 -15.5t53 -33.5t33 -59.5t13 -91v-395q0 -95 47.5 -168.5
t134.5 -73.5h60q105 0 145.5 39.5t40.5 114.5v526q0 45 25.5 71t72.5 26q86 0 86 -97v-411q0 -44 5.5 -84.5t20 -85.5t46.5 -72t78 -27h125q45 0 82 17.5t59.5 43t39.5 62t25 68t13 68.5t5.5 55t0.5 35q0 45 -2.5 81.5t-12.5 90t-27.5 97.5t-51.5 93t-80 88q46 41 113 41
t117 -38t76.5 -102.5t39 -136.5t12.5 -153q0 -263 -112 -410z" />
    <glyph glyph-name="uniFD2A" unicode="&#xfd2a;" horiz-adv-x="2588" arabic-form="final" 
d="M2255 143h334v-143h-273q-114 0 -178 45q-82 -45 -194 -45h-23q-113 0 -182 26t-135 93q-40 -48 -99.5 -83.5t-120.5 -35.5h-186q-63 0 -118 23.5t-99 70t-69 125t-25 180.5v441q-111 0 -201 -17t-134 -35t-101 -49v-889q0 -34 -7 -71.5t-28 -83t-53.5 -81t-88.5 -59.5
t-127 -24q-57 0 -104 14t-75.5 36t-40.5 34.5t-19 22.5q64 -17 127 -17q62 0 109 20.5t72.5 53t37.5 66t12 65.5v915q49 92 198.5 167t369.5 75q43 0 74 -3.5t64 -15.5t53 -33.5t33 -59.5t13 -91v-395q0 -95 47.5 -168.5t134.5 -73.5h60q105 0 145.5 39.5t40.5 114.5v526
q0 45 25.5 71t72.5 26q86 0 86 -97v-411q0 -44 5.5 -84.5t20 -85.5t46.5 -72t78 -27h125q45 0 82 17.5t59.5 43t39.5 62t25 68t13 68.5t5.5 55t0.5 35q0 45 -2.5 81.5t-12.5 90t-27.5 97.5t-51.5 93t-80 88q46 41 113 41t117 -38t76.5 -102.5t39 -136.5t12.5 -153
q0 -263 -112 -410z" />
    <glyph glyph-name="uniFD2B" unicode="&#xfd2b;" horiz-adv-x="2183" arabic-form="final" 
d="M1946 143h237v-143h-174q-108 0 -180 45q-85 -45 -207 -45h-735v840q-111 0 -201 -17t-134 -35t-101 -49v-889q0 -34 -7 -71.5t-28 -83t-53.5 -81t-88.5 -59.5t-127 -24q-57 0 -104 14t-75.5 36t-40.5 34.5t-19 22.5q64 -17 127 -17q62 0 109 20.5t72.5 53t37.5 66
t12 65.5v915q49 92 198.5 167t369.5 75q47 0 80.5 -5t67 -18.5t55 -43t30.5 -74.5q73 59 184 100t240 41q75 0 147.5 -14t147 -50.5t130 -91.5t91 -144.5t35.5 -201.5q0 -208 -96 -338zM1542 143q81 0 142 28t93 66.5t51.5 89.5t24.5 87t5 69q0 79 -26.5 142t-68.5 102.5
t-98 65.5t-110 36.5t-109 10.5q-124 0 -228.5 -49.5t-146.5 -104.5v-543h471z" />
    <glyph glyph-name="uniFD2C" unicode="&#xfd2c;" horiz-adv-x="2183" arabic-form="final" 
d="M1491 1116q-51 0 -86 34.5t-35 82.5q0 50 35 84.5t86 34.5q48 0 82.5 -35t34.5 -84q0 -47 -35 -82t-82 -35zM1946 143h237v-143h-174q-108 0 -180 45q-85 -45 -207 -45h-735v840q-111 0 -201 -17t-134 -35t-101 -49v-889q0 -34 -7 -71.5t-28 -83t-53.5 -81t-88.5 -59.5
t-127 -24q-57 0 -104 14t-75.5 36t-40.5 34.5t-19 22.5q64 -17 127 -17q62 0 109 20.5t72.5 53t37.5 66t12 65.5v915q49 92 198.5 167t369.5 75q47 0 80.5 -5t67 -18.5t55 -43t30.5 -74.5q73 59 184 100t240 41q75 0 147.5 -14t147 -50.5t130 -91.5t91 -144.5t35.5 -201.5
q0 -208 -96 -338zM1542 143q81 0 142 28t93 66.5t51.5 89.5t24.5 87t5 69q0 79 -26.5 142t-68.5 102.5t-98 65.5t-110 36.5t-109 10.5q-124 0 -228.5 -49.5t-146.5 -104.5v-543h471z" />
    <glyph glyph-name="uniFE82" unicode="&#x622;" horiz-adv-x="645" arabic-form="final" 
d="M367 1311q-55 0 -115.5 23t-116 46t-98.5 23q-36 0 -65 -16.5t-38 -16.5q-10 0 0.5 34t53.5 67.5t114 33.5q61 0 162 -40t158 -40q45 0 77 19t46 18q2 -2 -0.5 -17.5t-13 -37.5t-28.5 -43.5t-53.5 -37t-82.5 -15.5zM526 0q-63 0 -118 23.5t-99 70t-69 125t-25 180.5v525
q0 87 -35 155t-78 97q12 17 53 34t83 17q68 0 114.5 -53t46.5 -175v-614q0 -95 48 -168.5t135 -73.5h63v-143h-119z" />
    <glyph glyph-name="uniFE84" unicode="&#x623;" horiz-adv-x="645" arabic-form="final" 
d="M43 1311q-17 24 -16 46t15.5 34t34 17t40.5 -5q-26 28 -47 75.5t-21 98.5q0 85 59 138.5t162 53.5q127 0 127 -81q0 -31 -18 -49t-37 -17t-31 8q1 36 -24.5 59.5t-57.5 28.5q-24 -5 -43.5 -37.5t-19.5 -87.5q0 -157 168 -157q49 0 69 8q40 0 44 -34q2 -26 -13 -37
q-4 -3 -8 -3q-133 -12 -252.5 -29.5t-130.5 -29.5zM526 0q-63 0 -118 23.5t-99 70t-69 125t-25 180.5v525q0 87 -35 155t-78 97q12 17 53 34t83 17q68 0 114.5 -53t46.5 -175v-614q0 -95 48 -168.5t135 -73.5h63v-143h-119z" />
    <glyph glyph-name="uniFE86" unicode="&#x624;" horiz-adv-x="1081" arabic-form="final" 
d="M715 1176q-131 -12 -251.5 -29.5t-131.5 -30.5q-17 24 -16 46t15.5 34t34 17t40.5 -5q-26 28 -47 75.5t-21 98.5q0 85 59 139t162 54q127 0 127 -82q0 -31 -18 -49t-37 -16.5t-31 8.5q1 36 -24.5 59.5t-57.5 28.5q-24 -5 -43.5 -37.5t-19.5 -87.5q0 -158 168 -158
q49 0 69 8q41 0 44 -34q2 -26 -14 -37q-3 -2 -7 -2zM1081 143v-143h-174v-139q0 -37 -7 -76.5t-27.5 -86.5t-52.5 -82.5t-89 -60t-131 -24.5q-91 0 -157.5 34.5t-94.5 76.5q76 -17 127 -17q112 0 180 60.5t68 152.5l2 162l-217 -4q-206 0 -290.5 117.5t-84.5 369.5
q0 125 19 215t51 144.5t83.5 86.5t107.5 43t132 11q86 0 151 -14.5t119 -49.5t82.5 -100.5t28.5 -159.5v-516h174zM317 487q0 -23 1 -43.5t6.5 -57.5t15 -67t29.5 -64t47 -57.5t69 -39t95 -15.5h143v467q0 230 -184 230q-222 0 -222 -353z" />
    <glyph glyph-name="uniFE88" unicode="&#x625;" horiz-adv-x="645" arabic-form="final" 
d="M528 0q-64 0 -119 23.5t-99 70t-69 124.5t-26 179v652q0 87 -35 154.5t-78 96.5q12 17 53 34.5t83 17.5q68 0 114.5 -53t46.5 -175v-739q0 -61 19 -114t62 -90.5t102 -37.5h63v-143h-117zM129 -561q-17 24 -16 46t15.5 34t34 17t40.5 -5q-26 28 -47 75t-21 99
q0 85 59 139t162 54q127 0 127 -82q0 -31 -18 -49t-37 -17t-31 8q1 36 -24.5 59.5t-57.5 28.5q-24 -5 -43.5 -37.5t-19.5 -87.5q0 -157 168 -157q49 0 69 8q40 0 44 -34q2 -26 -13 -37q-4 -3 -8 -3q-133 -12 -252.5 -29.5t-130.5 -29.5z" />
    <glyph glyph-name="uniFE8A" unicode="&#x626;" horiz-adv-x="1867" arabic-form="final" 
d="M193 532q-17 24 -16 46.5t15 34t33.5 17t40.5 -4.5q-26 27 -46.5 75t-20.5 99q0 85 59 138.5t162 53.5q127 0 127 -82q0 -31 -18 -49t-37 -16.5t-31 8.5q1 36 -24.5 59.5t-57.5 28.5q-24 -5 -44 -37.5t-20 -87.5q0 -158 168 -158q47 0 70 9q40 0 43 -34q2 -26 -13 -37
q-4 -3 -8 -3q-131 -12 -251 -29.5t-131 -30.5zM838 -483q-133 0 -242.5 24t-181 62t-125.5 91t-82.5 104t-46.5 109t-22.5 97.5t-4.5 77.5q0 134 58.5 220.5t152.5 86.5q36 0 63.5 -13.5t38.5 -29.5q-53 -43 -90 -136.5t-37 -189.5q0 -77 27 -139t87 -114t169 -80.5
t260 -28.5q252 0 390.5 95t138.5 247h-60q-51 0 -89.5 13t-59 33.5t-31 46.5t-9.5 51.5t9 48.5q73 -50 178 -50h539v-143h-297q0 -65 -23 -130.5t-76.5 -129.5t-130.5 -113t-195.5 -79.5t-262.5 -30.5h-45z" />
    <glyph glyph-name="uniFE8B" unicode="&#x626;" horiz-adv-x="679" arabic-form="initial" 
d="M106 1116q-17 24 -16 46t15.5 34t34 17t40.5 -5q-26 27 -46.5 75t-20.5 99q0 85 59 139t162 54q127 0 127 -82q0 -31 -18 -49t-37 -16.5t-31 8.5q1 36 -24.5 59.5t-57.5 28.5q-24 -5 -44 -37.5t-20 -87.5q0 -158 168 -158q50 0 70 8q41 0 43 -34q2 -26 -14 -37
q-3 -2 -7 -2q-131 -12 -251.5 -29.5t-131.5 -30.5zM0 0v143h137q45 0 81.5 16t59.5 40t40 59.5t25 66t13 68.5t5.5 57.5t0.5 41.5q0 45 -2.5 81.5t-12.5 90t-27.5 97.5t-51.5 93t-80 88q46 41 113 41t117 -38t77 -102.5t39.5 -136.5t12.5 -153q0 -55 -5.5 -107.5t-19 -108.5
t-35 -104t-55 -92t-76.5 -74.5t-102.5 -48.5t-130.5 -18h-123z" />
    <glyph glyph-name="uniFE8C" unicode="&#x626;" horiz-adv-x="673" arabic-form="medial" 
d="M514 1176q-131 -12 -251.5 -29.5t-131.5 -30.5q-17 24 -16 46t15.5 34t34 17t40.5 -5q-26 28 -47 75.5t-21 98.5q0 85 59 139t162 54q127 0 127 -82q0 -31 -18 -49t-37 -16.5t-31 8.5q1 36 -24.5 59.5t-57.5 28.5q-24 -5 -43.5 -37.5t-19.5 -87.5q0 -158 168 -158
q50 0 70 8q41 0 43 -34q2 -26 -14 -37q-3 -2 -7 -2zM471 143h203v-143h-195q-120 0 -192 53q-72 -47 -170 -53h-117v143h117q57 3 116 25v721q0 94 93 94q92 0 92 -92v-580q0 -34 1.5 -57t6 -52t16 -44t29.5 -15z" />
    <glyph glyph-name="uniFE8E" unicode="&#x627;" horiz-adv-x="645" arabic-form="final" 
d="M528 0q-64 0 -119 23.5t-99 70t-69 124.5t-26 179v652q0 87 -35 154.5t-78 96.5q12 17 53 34.5t83 17.5q68 0 114.5 -53t46.5 -175v-739q0 -61 19 -114t62 -90.5t102 -37.5h63v-143h-117z" />
    <glyph glyph-name="uniFE90" unicode="&#x628;" horiz-adv-x="1636" arabic-form="final" 
d="M1278 143h358v-143h-266q-120 0 -192 53q-88 -53 -211 -53h-568q-71 0 -124 23t-83 63.5t-44.5 91t-14.5 111.5v497q0 88 92 88t92 -90v-436q0 -115 35.5 -160t134.5 -45h494q45 0 82 17.5t59.5 43t39.5 62t25 68t13 68.5t5.5 55t0.5 35q0 45 -2.5 81.5t-12.5 90
t-27.5 97.5t-51.5 93t-80 88q46 41 113 41t117 -38t77 -102.5t39.5 -136.5t12.5 -153q0 -262 -113 -410zM698 -164q48 0 82.5 -35t34.5 -84q0 -47 -35 -81.5t-82 -34.5q-51 0 -85.5 34t-34.5 82q0 50 34.5 84.5t85.5 34.5z" />
    <glyph glyph-name="uniFE91" unicode="&#x628;" horiz-adv-x="679" arabic-form="initial" 
d="M0 0v143h137q45 0 81.5 16t59.5 40t40 59.5t25 66t13 68.5t5.5 57.5t0.5 41.5q0 45 -2.5 81.5t-12.5 90t-27.5 97.5t-51.5 93t-80 88q46 41 113 41t117 -38t77 -102.5t39.5 -136.5t12.5 -153q0 -55 -5.5 -107.5t-19 -108.5t-35 -104t-55 -92t-76.5 -74.5t-102.5 -48.5
t-130.5 -18h-123zM303 -399q-51 0 -86 34t-35 82q0 50 35 84.5t86 34.5q48 0 82.5 -35t34.5 -84q0 -47 -35 -81.5t-82 -34.5z" />
    <glyph glyph-name="uniFE92" unicode="&#x628;" horiz-adv-x="673" arabic-form="medial" 
d="M471 143h203v-143h-195q-120 0 -192 53q-72 -47 -170 -53h-117v143h117q57 3 116 25v721q0 94 93 94q92 0 92 -92v-580q0 -34 1.5 -57t6 -52t16 -44t29.5 -15zM328 -164q47 0 81.5 -35t34.5 -84q0 -47 -34.5 -81.5t-81.5 -34.5q-51 0 -86 34t-35 82q0 50 35 84.5t86 34.5
z" />
    <glyph glyph-name="uniFE94" unicode="&#x629;" horiz-adv-x="1046" arabic-form="final" 
d="M377 1116q-47 0 -82 35t-35 82q0 49 34.5 84t82.5 35q49 0 83 -34.5t34 -84.5q0 -48 -34 -82.5t-83 -34.5zM676 1116q-47 0 -82 35t-35 82q0 49 34.5 84t82.5 35q49 0 83 -34.5t34 -84.5q0 -48 -34 -82.5t-83 -34.5zM907 143h140v-143h-152q-102 0 -170 41
q-97 -45 -217 -45q-206 0 -290.5 117.5t-84.5 369.5q0 125 19 215t51 144.5t83.5 86.5t107.5 43t132 11q86 0 151 -14.5t119 -49.5t82.5 -100.5t28.5 -159.5v-516zM317 487q0 -23 1 -43.5t6.5 -57.5t15 -67t29.5 -64t47 -57.5t69 -39t95 -15.5h143v467q0 230 -184 230
q-222 0 -222 -353zM711 45h2h-2z" />
    <glyph glyph-name="uniFE96" unicode="&#x62a;" horiz-adv-x="1636" arabic-form="final" 
d="M549 1024q-47 0 -82 35t-35 82q0 49 34.5 84t82.5 35q49 0 83 -34.5t34 -84.5q0 -48 -34 -82.5t-83 -34.5zM848 1024q-47 0 -82 35t-35 82q0 49 34.5 84t82.5 35q49 0 83 -34.5t34 -84.5q0 -48 -34 -82.5t-83 -34.5zM1278 143h358v-143h-266q-120 0 -192 53
q-88 -53 -211 -53h-568q-71 0 -124 23t-83 63.5t-44.5 91t-14.5 111.5v497q0 88 92 88t92 -90v-436q0 -115 35.5 -160t134.5 -45h494q45 0 82 17.5t59.5 43t39.5 62t25 68t13 68.5t5.5 55t0.5 35q0 45 -2.5 81.5t-12.5 90t-27.5 97.5t-51.5 93t-80 88q46 41 113 41t117 -38
t77 -102.5t39.5 -136.5t12.5 -153q0 -262 -113 -410z" />
    <glyph glyph-name="uniFE97" unicode="&#x62a;" horiz-adv-x="679" arabic-form="initial" 
d="M154 1116q-47 0 -82 35t-35 82q0 49 34.5 84t82.5 35q49 0 82.5 -34.5t33.5 -84.5q0 -48 -33.5 -82.5t-82.5 -34.5zM453 1116q-47 0 -82 35t-35 82q0 49 34.5 84t82.5 35q49 0 82.5 -34.5t33.5 -84.5q0 -48 -33.5 -82.5t-82.5 -34.5zM0 0v143h137q45 0 81.5 16t59.5 40
t40 59.5t25 66t13 68.5t5.5 57.5t0.5 41.5q0 45 -2.5 81.5t-12.5 90t-27.5 97.5t-51.5 93t-80 88q46 41 113 41t117 -38t77 -102.5t39.5 -136.5t12.5 -153q0 -55 -5.5 -107.5t-19 -108.5t-35 -104t-55 -92t-76.5 -74.5t-102.5 -48.5t-130.5 -18h-123z" />
    <glyph glyph-name="uniFE98" unicode="&#x62a;" horiz-adv-x="673" arabic-form="medial" 
d="M178 1116q-47 0 -82 35t-35 82q0 49 34.5 84t82.5 35q49 0 83 -34.5t34 -84.5q0 -48 -34 -82.5t-83 -34.5zM477 1116q-47 0 -82 35t-35 82q0 49 34.5 84t82.5 35q49 0 83 -34.5t34 -84.5q0 -48 -34 -82.5t-83 -34.5zM471 143h203v-143h-195q-120 0 -192 53
q-72 -47 -170 -53h-117v143h117q57 3 116 25v721q0 94 93 94q92 0 92 -92v-580q0 -34 1.5 -57t6 -52t16 -44t29.5 -15z" />
    <glyph glyph-name="uniFE9A" unicode="&#x62b;" horiz-adv-x="1636" arabic-form="final" 
d="M696 1286q-44 0 -76 32.5t-32 76.5t32 76t76 32t76.5 -32t32.5 -76t-32.5 -76.5t-76.5 -32.5zM547 1024q-48 0 -82.5 35t-34.5 84q0 47 35 82t82 35q49 0 83 -34.5t34 -82.5q0 -50 -34 -84.5t-83 -34.5zM729 1143q0 47 35 82t82 35q49 0 83 -34.5t34 -82.5
q0 -50 -34 -84.5t-83 -34.5q-48 0 -82.5 35t-34.5 84zM1278 143h358v-143h-266q-120 0 -192 53q-88 -53 -211 -53h-568q-71 0 -124 23t-83 63.5t-44.5 91t-14.5 111.5v497q0 88 92 88t92 -90v-436q0 -115 35.5 -160t134.5 -45h494q45 0 82 17.5t59.5 43t39.5 62t25 68
t13 68.5t5.5 55t0.5 35q0 45 -2.5 81.5t-12.5 90t-27.5 97.5t-51.5 93t-80 88q46 41 113 41t117 -38t77 -102.5t39.5 -136.5t12.5 -153q0 -262 -113 -410z" />
    <glyph glyph-name="uniFE9B" unicode="&#x62b;" horiz-adv-x="679" arabic-form="initial" 
d="M301 1595q44 0 76.5 -32t32.5 -76t-32.5 -76.5t-76.5 -32.5t-76 32.5t-32 76.5t32 76t76 32zM152 1352q49 0 82.5 -34.5t33.5 -82.5q0 -50 -33.5 -84.5t-82.5 -34.5q-48 0 -82.5 35t-34.5 84q0 47 35 82t82 35zM451 1352q49 0 82.5 -34.5t33.5 -82.5q0 -50 -33.5 -84.5
t-82.5 -34.5q-48 0 -82.5 35t-34.5 84q0 47 35 82t82 35zM0 0v143h137q45 0 81.5 16t59.5 40t40 59.5t25 66t13 68.5t5.5 57.5t0.5 41.5q0 45 -2.5 81.5t-12.5 90t-27.5 97.5t-51.5 93t-80 88q46 41 113 41t117 -38t77 -102.5t39.5 -136.5t12.5 -153q0 -55 -5.5 -107.5
t-19 -108.5t-35 -104t-55 -92t-76.5 -74.5t-102.5 -48.5t-130.5 -18h-123z" />
    <glyph glyph-name="uniFE9C" unicode="&#x62b;" horiz-adv-x="673" arabic-form="medial" 
d="M326 1378q-44 0 -76.5 32.5t-32.5 76.5t32.5 76t76.5 32t76 -32t32 -76t-32 -76.5t-76 -32.5zM176 1116q-48 0 -82.5 35t-34.5 84q0 47 35 82t82 35q49 0 83 -34.5t34 -82.5q0 -50 -34 -84.5t-83 -34.5zM358 1235q0 47 35 82t82 35q49 0 83 -34.5t34 -82.5
q0 -50 -34 -84.5t-83 -34.5q-48 0 -82.5 35t-34.5 84zM471 143h203v-143h-195q-120 0 -192 53q-72 -47 -170 -53h-117v143h117q57 3 116 25v721q0 94 93 94q92 0 92 -92v-580q0 -34 1.5 -57t6 -52t16 -44t29.5 -15z" />
    <glyph glyph-name="uniFE9E" unicode="&#x62c;" horiz-adv-x="1153" arabic-form="final" 
d="M1006 143h147v-143h-59q-121 0 -193 53q-92 -53 -229 -53h-387q0 -362 176 -510q-14 -13 -50.5 -24t-70.5 -11q-55 0 -98.5 33.5t-69 82.5t-42 110t-22.5 110.5t-6 89.5q0 262 240 262h199q120 0 166 9q159 30 198 192q13 56 13 129q0 90 -22.5 154.5t-75.5 114t-146 74
t-228 24.5q-26 0 -69 -1t-49 -1q-56 0 -88.5 32t-46.5 74q-15 47 -11 80q68 -49 144 -49q13 0 74.5 4t111.5 4q305 0 447.5 -129.5t142.5 -376.5q0 -209 -96 -334zM604 -109q48 0 82.5 -34.5t34.5 -83.5q0 -47 -35 -82t-82 -35q-51 0 -86 34.5t-35 82.5q0 50 35 84t86 34z
" />
    <glyph glyph-name="uniFE9F" unicode="&#x62c;" horiz-adv-x="1093" arabic-form="initial" 
d="M0 0v143h430q117 0 161 8q166 29 204 198q12 54 12 122q0 91 -22.5 156t-75 114.5t-145.5 74t-228 24.5q-26 0 -69.5 -1t-49.5 -1q-63 0 -94.5 28.5t-42.5 83.5q-12 56 -8 74q68 -49 143 -49q13 0 74.5 4t111.5 4q305 0 447.5 -129.5t142.5 -376.5q0 -223 -109.5 -350
t-320.5 -127h-561zM549 -399q-51 0 -86 34t-35 82q0 50 35 84.5t86 34.5q48 0 82.5 -35t34.5 -84q0 -47 -35 -81.5t-82 -34.5z" />
    <glyph glyph-name="uniFEA0" unicode="&#x62c;" horiz-adv-x="1085" arabic-form="medial" 
d="M895 143h190v-143h-102q-120 0 -192 53q-92 -53 -230 -53h-561v143h430q117 0 161 8q166 29 204 198q12 54 12 122q0 91 -22.5 156t-75 114.5t-145.5 74t-228 24.5q-26 0 -69.5 -1t-49.5 -1q-63 0 -94.5 28.5t-42.5 83.5q-12 56 -8 74q68 -49 143 -49q13 0 74.5 4
t111.5 4q305 0 447.5 -129.5t142.5 -376.5q0 -209 -96 -334zM549 -164q48 0 82.5 -35t34.5 -84q0 -47 -35 -81.5t-82 -34.5q-51 0 -86 34t-35 82q0 50 35 84.5t86 34.5z" />
    <glyph glyph-name="uniFEA2" unicode="&#x62d;" horiz-adv-x="1153" arabic-form="final" 
d="M1006 143h147v-143h-59q-121 0 -193 53q-92 -53 -229 -53h-387q0 -362 176 -510q-14 -13 -50.5 -24t-70.5 -11q-55 0 -98.5 33.5t-69 82.5t-42 110t-22.5 110.5t-6 89.5q0 262 240 262h199q120 0 166 9q159 30 198 192q13 56 13 129q0 90 -22.5 154.5t-75.5 114t-146 74
t-228 24.5q-26 0 -69 -1t-49 -1q-56 0 -88.5 32t-46.5 74q-15 47 -11 80q68 -49 144 -49q13 0 74.5 4t111.5 4q305 0 447.5 -129.5t142.5 -376.5q0 -209 -96 -334z" />
    <glyph glyph-name="uniFEA3" unicode="&#x62d;" horiz-adv-x="1093" arabic-form="initial" 
d="M0 0v143h430q117 0 161 8q166 29 204 198q12 54 12 122q0 91 -22.5 156t-75 114.5t-145.5 74t-228 24.5q-26 0 -69.5 -1t-49.5 -1q-63 0 -94.5 28.5t-42.5 83.5q-12 56 -8 74q68 -49 143 -49q13 0 74.5 4t111.5 4q305 0 447.5 -129.5t142.5 -376.5q0 -223 -109.5 -350
t-320.5 -127h-561z" />
    <glyph glyph-name="uniFEA4" unicode="&#x62d;" horiz-adv-x="1085" arabic-form="medial" 
d="M895 143h190v-143h-102q-120 0 -192 53q-92 -53 -230 -53h-561v143h430q117 0 161 8q166 29 204 198q12 54 12 122q0 91 -22.5 156t-75 114.5t-145.5 74t-228 24.5q-26 0 -69.5 -1t-49.5 -1q-63 0 -94.5 28.5t-42.5 83.5q-12 56 -8 74q68 -49 143 -49q13 0 74.5 4
t111.5 4q305 0 447.5 -129.5t142.5 -376.5q0 -209 -96 -334z" />
    <glyph glyph-name="uniFEA6" unicode="&#x62e;" horiz-adv-x="1153" arabic-form="final" 
d="M604 1116q-51 0 -86 34.5t-35 82.5q0 50 35 84.5t86 34.5q48 0 82.5 -35t34.5 -84q0 -47 -35 -82t-82 -35zM1006 143h147v-143h-59q-121 0 -193 53q-92 -53 -229 -53h-387q0 -362 176 -510q-14 -13 -50.5 -24t-70.5 -11q-55 0 -98.5 33.5t-69 82.5t-42 110t-22.5 110.5
t-6 89.5q0 262 240 262h199q120 0 166 9q159 30 198 192q13 56 13 129q0 90 -22.5 154.5t-75.5 114t-146 74t-228 24.5q-26 0 -69 -1t-49 -1q-56 0 -88.5 32t-46.5 74q-15 47 -11 80q68 -49 144 -49q13 0 74.5 4t111.5 4q305 0 447.5 -129.5t142.5 -376.5q0 -209 -96 -334z
" />
    <glyph glyph-name="uniFEA7" unicode="&#x62e;" horiz-adv-x="1093" arabic-form="initial" 
d="M549 1116q-51 0 -86 34.5t-35 82.5q0 50 35 84.5t86 34.5q48 0 82.5 -35t34.5 -84q0 -47 -35 -82t-82 -35zM0 0v143h430q117 0 161 8q166 29 204 198q12 54 12 122q0 91 -22.5 156t-75 114.5t-145.5 74t-228 24.5q-26 0 -69.5 -1t-49.5 -1q-63 0 -94.5 28.5t-42.5 83.5
q-12 56 -8 74q68 -49 143 -49q13 0 74.5 4t111.5 4q305 0 447.5 -129.5t142.5 -376.5q0 -223 -109.5 -350t-320.5 -127h-561z" />
    <glyph glyph-name="uniFEA8" unicode="&#x62e;" horiz-adv-x="1085" arabic-form="medial" 
d="M549 1116q-51 0 -86 34.5t-35 82.5q0 50 35 84.5t86 34.5q48 0 82.5 -35t34.5 -84q0 -47 -35 -82t-82 -35zM895 143h190v-143h-102q-120 0 -192 53q-92 -53 -230 -53h-561v143h430q117 0 161 8q166 29 204 198q12 54 12 122q0 91 -22.5 156t-75 114.5t-145.5 74
t-228 24.5q-26 0 -69.5 -1t-49.5 -1q-63 0 -94.5 28.5t-42.5 83.5q-12 56 -8 74q68 -49 143 -49q13 0 74.5 4t111.5 4q305 0 447.5 -129.5t142.5 -376.5q0 -209 -96 -334z" />
    <glyph glyph-name="uniFEAA" unicode="&#x62f;" horiz-adv-x="1095" arabic-form="final" 
d="M758 143h338v-143h-250q-121 0 -193 53q-85 -53 -196 -53h-299q-29 0 -42.5 21t-13.5 47q0 30 18.5 52.5t59.5 22.5h109q109 0 192 32.5t130.5 88.5t70.5 123t23 143q0 138 -68.5 224.5t-183.5 85.5q-77 -25 -117.5 -74t-40.5 -137q-53 -5 -94 14q-68 29 -68 113
q0 98 92 162.5t234 64.5q88 0 161.5 -27.5t122 -73t82.5 -105.5t49 -122t15 -125q0 -93 -32.5 -200t-98.5 -187zM399 834h4h-4z" />
    <glyph glyph-name="uniFEAC" unicode="&#x630;" horiz-adv-x="1095" arabic-form="final" 
d="M498 1116q-51 0 -86 34.5t-35 82.5q0 50 35 84.5t86 34.5q47 0 81.5 -35t34.5 -84q0 -47 -34.5 -82t-81.5 -35zM758 143h338v-143h-250q-121 0 -193 53q-85 -53 -196 -53h-299q-29 0 -42.5 21t-13.5 47q0 30 18.5 52.5t59.5 22.5h109q109 0 192 32.5t130.5 88.5t70.5 123
t23 143q0 138 -68.5 224.5t-183.5 85.5q-77 -25 -117.5 -74t-40.5 -137q-53 -5 -94 14q-68 29 -68 113q0 98 92 162.5t234 64.5q88 0 161.5 -27.5t122 -73t82.5 -105.5t49 -122t15 -125q0 -93 -32.5 -200t-98.5 -187zM399 834h4h-4z" />
    <glyph glyph-name="uniFEAE" unicode="&#x631;" horiz-adv-x="653" arabic-form="final" 
d="M653 143v-143h-202v-150q0 -34 -7 -71.5t-28 -83t-53.5 -81t-88.5 -59.5t-127 -24q-57 0 -104 14t-75.5 36t-40.5 34.5t-19 22.5q64 -17 127 -17q62 0 109.5 20.5t73 53t38 66t12.5 65.5l-2 1071q0 86 92 86q40 0 66.5 -20t26.5 -64v-756h202z" />
    <glyph glyph-name="uniFEB0" unicode="&#x632;" horiz-adv-x="653" arabic-form="final" 
d="M360 1116q-50 0 -85 34.5t-35 82.5q0 50 34.5 84.5t85.5 34.5q48 0 82.5 -35t34.5 -84q0 -47 -35 -82t-82 -35zM653 143v-143h-202v-150q0 -34 -7 -71.5t-28 -83t-53.5 -81t-88.5 -59.5t-127 -24q-57 0 -104 14t-75.5 36t-40.5 34.5t-19 22.5q64 -17 127 -17
q62 0 109.5 20.5t73 53t38 66t12.5 65.5l-2 1071q0 86 92 86q40 0 66.5 -20t26.5 -64v-756h202z" />
    <glyph glyph-name="uniFEB2" unicode="&#x633;" horiz-adv-x="2775" arabic-form="final" 
d="M2372 143h403v-143h-313q-121 0 -193 53q-88 -53 -209 -53h-24q-113 0 -182.5 26t-135.5 93q-40 -49 -99 -84t-120 -35h-160q-89 0 -151 41q-4 -137 -31.5 -237.5t-71.5 -162t-110.5 -98.5t-136 -50t-160.5 -13q-51 0 -95 4t-102 19t-104 40t-93.5 71t-79 107.5
t-51.5 154t-20 206.5q0 89 12 162t30.5 120.5t44.5 83.5t50.5 54.5t51.5 29.5t43.5 14t31.5 3q59 0 111 -41q-75 -61 -136 -194.5t-61 -301.5q0 -93 20 -165t54 -117t82 -74.5t99 -41t110 -11.5q68 0 121 16.5t87 40t58 66.5t36 77.5t18 92.5t7 92.5t1 95.5v692q0 94 92 94
t92 -94v-414v-2q0 -41 0.5 -60.5t2.5 -50.5t7.5 -45.5t15 -31t24.5 -23t36 -6.5h156q105 0 145.5 39.5t40.5 114.5v526q0 97 90 97q46 0 69 -25.5t23 -71.5v-411q0 -44 6 -84.5t20.5 -85.5t47 -72t78.5 -27h125q45 0 81 17.5t58.5 43.5t40 63t25.5 69.5t13 70.5t6 58t1 39
q0 292 -174 438q46 41 112 41q67 0 117 -38t77 -102.5t39.5 -136.5t12.5 -153q0 -259 -112 -410z" />
    <glyph glyph-name="uniFEB3" unicode="&#x633;" horiz-adv-x="1875" arabic-form="initial" 
d="M1497 983q67 0 117 -38t77 -102.5t39.5 -136.5t12.5 -153q0 -55 -5.5 -107.5t-19 -108.5t-35 -104t-55 -92t-76.5 -74.5t-102.5 -48.5t-130.5 -18h-23q-113 0 -182 26t-135 93q-40 -49 -99 -84t-120 -35h-193q-130 0 -223 74q-90 -74 -203 -74h-141v143h78q50 0 85.5 9.5
t54.5 23.5t29 38t12.5 44t2.5 51v467q0 94 92 94q44 0 68 -21.5t24 -72.5v-414q0 -41 0.5 -61t2.5 -51t7.5 -46t15 -31.5t24.5 -23t36 -6.5h156q105 0 145.5 39.5t40.5 114.5v526q0 45 26 71t73 26q86 0 86 -97v-411q0 -45 5.5 -85t19.5 -85t46 -72t78 -27h125q45 0 82 17.5
t60 43t40 62t25 68t12.5 68.5t5.5 55t1 35q0 58 -5 105.5t-21 112t-54 124.5t-95 108q46 41 113 41z" />
    <glyph glyph-name="uniFEB4" unicode="&#x633;" horiz-adv-x="2045" arabic-form="medial" 
d="M1630 143h416v-143h-324q-120 0 -192 53q-88 -53 -211 -53h-23q-113 0 -182 26t-135 93q-40 -49 -99 -84t-120 -35h-193q-130 0 -223 74q-90 -74 -203 -74h-141v143h78q50 0 85.5 9.5t54.5 23.5t29 38t12.5 44t2.5 51v467q0 94 92 94q44 0 68 -21.5t24 -72.5v-414
q0 -41 0.5 -61t2.5 -51t7.5 -46t15 -31.5t24.5 -23t36 -6.5h156q105 0 145.5 39.5t40.5 114.5v526q0 45 26 71t73 26q86 0 86 -97v-411q0 -45 5.5 -85t19.5 -85t46 -72t78 -27h125q45 0 82 17.5t60 43t40 62t25 68t12.5 68.5t5.5 55t1 35q0 58 -5 105.5t-21 112t-54 124.5
t-95 108q46 41 113 41t117 -38t77 -102.5t39.5 -136.5t12.5 -153q0 -262 -113 -410z" />
    <glyph glyph-name="uniFEB6" unicode="&#x634;" horiz-adv-x="2775" arabic-form="final" 
d="M1702 1378q-44 0 -76.5 32.5t-32.5 76.5t32.5 76t76.5 32t76 -32t32 -76t-32 -76.5t-76 -32.5zM1552 1116q-47 0 -81.5 35t-34.5 84q0 47 34.5 82t81.5 35q49 0 83 -34.5t34 -82.5q0 -50 -34 -84.5t-83 -34.5zM1735 1235q0 47 34.5 82t81.5 35q49 0 83 -34.5t34 -82.5
q0 -50 -34 -84.5t-83 -34.5q-47 0 -81.5 35t-34.5 84zM2372 143h403v-143h-313q-121 0 -193 53q-88 -53 -209 -53h-24q-113 0 -182.5 26t-135.5 93q-40 -49 -99 -84t-120 -35h-160q-89 0 -151 41q-4 -137 -31.5 -237.5t-71.5 -162t-110.5 -98.5t-136 -50t-160.5 -13
q-51 0 -95 4t-102 19t-104 40t-93.5 71t-79 107.5t-51.5 154t-20 206.5q0 89 12 162t30.5 120.5t44.5 83.5t50.5 54.5t51.5 29.5t43.5 14t31.5 3q59 0 111 -41q-75 -61 -136 -194.5t-61 -301.5q0 -93 20 -165t54 -117t82 -74.5t99 -41t110 -11.5q68 0 121 16.5t87 40
t58 66.5t36 77.5t18 92.5t7 92.5t1 95.5v692q0 94 92 94t92 -94v-414v-2q0 -41 0.5 -60.5t2.5 -50.5t7.5 -45.5t15 -31t24.5 -23t36 -6.5h156q105 0 145.5 39.5t40.5 114.5v526q0 97 90 97q46 0 69 -25.5t23 -71.5v-411q0 -44 6 -84.5t20.5 -85.5t47 -72t78.5 -27h125
q45 0 81 17.5t58.5 43.5t40 63t25.5 69.5t13 70.5t6 58t1 39q0 292 -174 438q46 41 112 41q67 0 117 -38t77 -102.5t39.5 -136.5t12.5 -153q0 -259 -112 -410z" />
    <glyph glyph-name="uniFEB7" unicode="&#x634;" horiz-adv-x="1875" arabic-form="initial" 
d="M973 1378q-44 0 -76.5 32.5t-32.5 76.5t32.5 76t76.5 32t76 -32t32 -76t-32 -76.5t-76 -32.5zM823 1116q-47 0 -81.5 35t-34.5 84q0 47 34.5 82t81.5 35q49 0 83 -34.5t34 -82.5q0 -50 -34 -84.5t-83 -34.5zM1006 1235q0 47 34.5 82t81.5 35q49 0 83 -34.5t34 -82.5
q0 -50 -34 -84.5t-83 -34.5q-47 0 -81.5 35t-34.5 84zM1497 983q67 0 117 -38t77 -102.5t39.5 -136.5t12.5 -153q0 -55 -5.5 -107.5t-19 -108.5t-35 -104t-55 -92t-76.5 -74.5t-102.5 -48.5t-130.5 -18h-23q-113 0 -182 26t-135 93q-40 -49 -99 -84t-120 -35h-193
q-130 0 -223 74q-90 -74 -203 -74h-141v143h78q50 0 85.5 9.5t54.5 23.5t29 38t12.5 44t2.5 51v467q0 94 92 94q44 0 68 -21.5t24 -72.5v-414q0 -41 0.5 -61t2.5 -51t7.5 -46t15 -31.5t24.5 -23t36 -6.5h156q105 0 145.5 39.5t40.5 114.5v526q0 45 26 71t73 26q86 0 86 -97
v-411q0 -45 5.5 -85t19.5 -85t46 -72t78 -27h125q45 0 82 17.5t60 43t40 62t25 68t12.5 68.5t5.5 55t1 35q0 58 -5 105.5t-21 112t-54 124.5t-95 108q46 41 113 41z" />
    <glyph glyph-name="uniFEB8" unicode="&#x634;" horiz-adv-x="2045" arabic-form="medial" 
d="M973 1378q-44 0 -76.5 32.5t-32.5 76.5t32.5 76t76.5 32t76 -32t32 -76t-32 -76.5t-76 -32.5zM823 1116q-47 0 -81.5 35t-34.5 84q0 47 34.5 82t81.5 35q49 0 83 -34.5t34 -82.5q0 -50 -34 -84.5t-83 -34.5zM1006 1235q0 47 34.5 82t81.5 35q49 0 83 -34.5t34 -82.5
q0 -50 -34 -84.5t-83 -34.5q-47 0 -81.5 35t-34.5 84zM1630 143h416v-143h-324q-120 0 -192 53q-88 -53 -211 -53h-23q-113 0 -182 26t-135 93q-40 -49 -99 -84t-120 -35h-193q-130 0 -223 74q-90 -74 -203 -74h-141v143h78q50 0 85.5 9.5t54.5 23.5t29 38t12.5 44t2.5 51
v467q0 94 92 94q44 0 68 -21.5t24 -72.5v-414q0 -41 0.5 -61t2.5 -51t7.5 -46t15 -31.5t24.5 -23t36 -6.5h156q105 0 145.5 39.5t40.5 114.5v526q0 45 26 71t73 26q86 0 86 -97v-411q0 -45 5.5 -85t19.5 -85t46 -72t78 -27h125q45 0 82 17.5t60 43t40 62t25 68t12.5 68.5
t5.5 55t1 35q0 58 -5 105.5t-21 112t-54 124.5t-95 108q46 41 113 41t117 -38t77 -102.5t39.5 -136.5t12.5 -153q0 -262 -113 -410z" />
    <glyph glyph-name="uniFEBA" unicode="&#x635;" horiz-adv-x="2283" arabic-form="final" 
d="M2062 143h222v-143h-175q-103 0 -174 41q-77 -41 -196 -41h-553q-7 -126 -37 -219.5t-74 -150.5t-108.5 -91t-132.5 -46.5t-156 -12.5q-51 0 -95 4t-102 19t-104 40t-93.5 71t-79 107.5t-51.5 154t-20 206.5q0 89 12 162t30.5 120.5t44.5 83.5t50.5 54.5t51.5 29.5
t43.5 14t31.5 3q59 0 111 -41q-75 -61 -136 -194.5t-61 -301.5q0 -93 20 -165t54 -117t82 -74.5t99 -41t110 -11.5q68 0 121 16.5t87 40t58 66.5t36 77.5t18 92.5t7 92.5t1 95.5v557q0 52 -32 105t-71 85q19 17 52 31.5t69 14.5q82 0 127 -68q65 68 188 121t271 53
q75 0 147.5 -14t147 -50.5t130 -91.5t91 -144.5t35.5 -201.5q0 -207 -97 -338zM1659 143q81 0 142 28t92.5 66.5t51 89.5t24.5 87t5 69q0 79 -26.5 142t-68.5 102.5t-97.5 65.5t-109.5 36.5t-109 10.5q-125 0 -230.5 -50.5t-146.5 -105.5q2 -12 2 -39v-502h471z" />
    <glyph glyph-name="uniFEBB" unicode="&#x635;" horiz-adv-x="1488" arabic-form="initial" 
d="M805 983q75 0 147.5 -14t147 -50.5t130 -91.5t91 -144.5t35.5 -201.5q0 -36 -3 -71.5t-14 -85t-28.5 -92.5t-50 -87t-75 -75t-107 -50.5t-142.5 -19.5h-936v143h201v498q0 52 -32 105t-71 85q19 17 52 31.5t69 14.5q82 0 127 -68q65 68 188 121t271 53zM856 143
q81 0 142 28t92.5 66.5t51 89.5t24.5 87t5 69q0 79 -26.5 142t-68.5 102.5t-97.5 65.5t-109.5 36.5t-109 10.5q-125 0 -230.5 -50.5t-146.5 -105.5q2 -12 2 -39v-502h471z" />
    <glyph glyph-name="uniFEBC" unicode="&#x635;" horiz-adv-x="1581" arabic-form="medial" 
d="M1260 143h321v-143h-242q-112 0 -188 49q-87 -49 -215 -49h-936v143h201v498q0 52 -32 105t-71 85q19 17 52 31.5t69 14.5q82 0 127 -68q65 68 188 121t271 53q75 0 147.5 -14t147 -50.5t130 -91.5t91 -144.5t35.5 -201.5q0 -208 -96 -338zM856 143q81 0 142 28
t92.5 66.5t51 89.5t24.5 87t5 69q0 79 -26.5 142t-68.5 102.5t-97.5 65.5t-109.5 36.5t-109 10.5q-125 0 -230.5 -50.5t-146.5 -105.5q2 -12 2 -39v-502h471z" />
    <glyph glyph-name="uniFEBE" unicode="&#x636;" horiz-adv-x="2283" arabic-form="final" 
d="M1522 1116q-51 0 -86 34.5t-35 82.5q0 50 35 84.5t86 34.5q47 0 81.5 -35t34.5 -84q0 -47 -34.5 -82t-81.5 -35zM2062 143h222v-143h-175q-103 0 -174 41q-77 -41 -196 -41h-553q-7 -126 -37 -219.5t-74 -150.5t-108.5 -91t-132.5 -46.5t-156 -12.5q-51 0 -95 4t-102 19
t-104 40t-93.5 71t-79 107.5t-51.5 154t-20 206.5q0 89 12 162t30.5 120.5t44.5 83.5t50.5 54.5t51.5 29.5t43.5 14t31.5 3q59 0 111 -41q-75 -61 -136 -194.5t-61 -301.5q0 -93 20 -165t54 -117t82 -74.5t99 -41t110 -11.5q68 0 121 16.5t87 40t58 66.5t36 77.5t18 92.5
t7 92.5t1 95.5v557q0 52 -32 105t-71 85q19 17 52 31.5t69 14.5q82 0 127 -68q65 68 188 121t271 53q75 0 147.5 -14t147 -50.5t130 -91.5t91 -144.5t35.5 -201.5q0 -207 -97 -338zM1659 143q81 0 142 28t92.5 66.5t51 89.5t24.5 87t5 69q0 79 -26.5 142t-68.5 102.5
t-97.5 65.5t-109.5 36.5t-109 10.5q-125 0 -230.5 -50.5t-146.5 -105.5q2 -12 2 -39v-502h471z" />
    <glyph glyph-name="uniFEBF" unicode="&#x636;" horiz-adv-x="1488" arabic-form="initial" 
d="M813 1116q-51 0 -86 34.5t-35 82.5q0 50 35 84.5t86 34.5q48 0 82.5 -35t34.5 -84q0 -47 -35 -82t-82 -35zM805 983q75 0 147.5 -14t147 -50.5t130 -91.5t91 -144.5t35.5 -201.5q0 -36 -3 -71.5t-14 -85t-28.5 -92.5t-50 -87t-75 -75t-107 -50.5t-142.5 -19.5h-936v143
h201v498q0 52 -32 105t-71 85q19 17 52 31.5t69 14.5q82 0 127 -68q65 68 188 121t271 53zM856 143q81 0 142 28t92.5 66.5t51 89.5t24.5 87t5 69q0 79 -26.5 142t-68.5 102.5t-97.5 65.5t-109.5 36.5t-109 10.5q-125 0 -230.5 -50.5t-146.5 -105.5q2 -12 2 -39v-502h471z
" />
    <glyph glyph-name="uniFEC0" unicode="&#x636;" horiz-adv-x="1581" arabic-form="medial" 
d="M813 1116q-51 0 -86 34.5t-35 82.5q0 50 35 84.5t86 34.5q48 0 82.5 -35t34.5 -84q0 -47 -35 -82t-82 -35zM1260 143h321v-143h-242q-112 0 -188 49q-87 -49 -215 -49h-936v143h201v498q0 52 -32 105t-71 85q19 17 52 31.5t69 14.5q82 0 127 -68q65 68 188 121t271 53
q75 0 147.5 -14t147 -50.5t130 -91.5t91 -144.5t35.5 -201.5q0 -208 -96 -338zM856 143q81 0 142 28t92.5 66.5t51 89.5t24.5 87t5 69q0 79 -26.5 142t-68.5 102.5t-97.5 65.5t-109.5 36.5t-109 10.5q-125 0 -230.5 -50.5t-146.5 -105.5q2 -12 2 -39v-502h471z" />
    <glyph glyph-name="uniFEC2" unicode="&#x637;" horiz-adv-x="1789" arabic-form="final" 
d="M1440 143h350v-143h-281q-114 0 -184 47q-96 -47 -225 -47h-1006q-25 0 -39 21.5t-14 50.5q0 28 14 49.5t39 21.5h152v906q0 87 -35 154.5t-78 96.5q12 17 52.5 34.5t82.5 17.5q68 0 115 -53t47 -175v-512q22 51 56.5 101t86 99.5t112 87t139 60.5t161.5 23q78 0 154 -19
t147.5 -61.5t125 -103t86 -151t32.5 -199.5q0 -191 -90 -306zM1022 143q89 0 155 28.5t101.5 76.5t51.5 100.5t16 110.5q0 93 -37 168.5t-97 120.5t-130.5 68.5t-143.5 23.5q-75 0 -147.5 -26.5t-126 -67t-102 -93.5t-79 -99.5t-53.5 -92.5v-318h592z" />
    <glyph glyph-name="uniFEC3" unicode="&#x637;" horiz-adv-x="1650" arabic-form="initial" 
d="M973 983q78 0 154 -19t147.5 -61.5t125 -103t86 -151t32.5 -199.5q0 -69 -12.5 -131t-44 -121.5t-79 -102t-123.5 -68.5t-172 -26h-1087v143h233v906q0 87 -34.5 154.5t-77.5 96.5q12 17 52.5 34.5t82.5 17.5q68 0 115 -53t47 -175v-512q22 51 56.5 101t86 99.5t112 87
t139 60.5t161.5 23zM1010 143q72 0 129 19.5t93 50.5t59 73.5t32.5 84.5t9.5 88q0 93 -37 168.5t-96.5 120.5t-130 68.5t-143.5 23.5q-75 0 -147.5 -26.5t-126 -67t-102 -93.5t-79 -99.5t-53.5 -92.5v-318h592z" />
    <glyph glyph-name="uniFEC4" unicode="&#x637;" horiz-adv-x="1789" arabic-form="medial" 
d="M1427 143h363v-143h-281q-116 0 -190 51q-91 -51 -232 -51h-1087v143h233v906q0 87 -34.5 154.5t-77.5 96.5q12 17 52.5 34.5t82.5 17.5q68 0 115 -53t47 -175v-512q22 51 56.5 101t86 99.5t112 87t139 60.5t161.5 23q78 0 154 -19t147.5 -61.5t125 -103t86 -151
t32.5 -199.5q0 -190 -91 -306zM1010 143q72 0 129 19.5t93 50.5t59 73.5t32.5 84.5t9.5 88q0 93 -37 168.5t-96.5 120.5t-130 68.5t-143.5 23.5q-75 0 -147.5 -26.5t-126 -67t-102 -93.5t-79 -99.5t-53.5 -92.5v-318h592z" />
    <glyph glyph-name="uniFEC6" unicode="&#x638;" horiz-adv-x="1789" arabic-form="final" 
d="M1440 143h350v-143h-281q-114 0 -184 47q-96 -47 -225 -47h-1006q-25 0 -39 21.5t-14 50.5q0 28 14 49.5t39 21.5h152v906q0 87 -35 154.5t-78 96.5q12 17 52.5 34.5t82.5 17.5q68 0 115 -53t47 -175v-512q22 51 56.5 101t86 99.5t112 87t139 60.5t161.5 23q78 0 154 -19
t147.5 -61.5t125 -103t86 -151t32.5 -199.5q0 -191 -90 -306zM854 1116q-51 0 -86 34.5t-35 82.5q0 50 35 84.5t86 34.5q48 0 82.5 -35t34.5 -84q0 -47 -35 -82t-82 -35zM1022 143q89 0 155 28.5t101.5 76.5t51.5 100.5t16 110.5q0 93 -37 168.5t-97 120.5t-130.5 68.5
t-143.5 23.5q-75 0 -147.5 -26.5t-126 -67t-102 -93.5t-79 -99.5t-53.5 -92.5v-318h592z" />
    <glyph glyph-name="uniFEC7" unicode="&#x638;" horiz-adv-x="1650" arabic-form="initial" 
d="M973 983q78 0 154 -19t147.5 -61.5t125 -103t86 -151t32.5 -199.5q0 -69 -12.5 -131t-44 -121.5t-79 -102t-123.5 -68.5t-172 -26h-1087v143h233v906q0 87 -34.5 154.5t-77.5 96.5q12 17 52.5 34.5t82.5 17.5q68 0 115 -53t47 -175v-512q22 51 56.5 101t86 99.5t112 87
t139 60.5t161.5 23zM801 1116q-51 0 -86 34.5t-35 82.5q0 50 35 84.5t86 34.5q48 0 82.5 -35t34.5 -84q0 -47 -35 -82t-82 -35zM1010 143q72 0 129 19.5t93 50.5t59 73.5t32.5 84.5t9.5 88q0 93 -37 168.5t-96.5 120.5t-130 68.5t-143.5 23.5q-75 0 -147.5 -26.5t-126 -67
t-102 -93.5t-79 -99.5t-53.5 -92.5v-318h592z" />
    <glyph glyph-name="uniFEC8" unicode="&#x638;" horiz-adv-x="1789" arabic-form="medial" 
d="M1427 143h363v-143h-281q-116 0 -190 51q-91 -51 -232 -51h-1087v143h233v906q0 87 -34.5 154.5t-77.5 96.5q12 17 52.5 34.5t82.5 17.5q68 0 115 -53t47 -175v-512q22 51 56.5 101t86 99.5t112 87t139 60.5t161.5 23q78 0 154 -19t147.5 -61.5t125 -103t86 -151
t32.5 -199.5q0 -190 -91 -306zM799 1116q-51 0 -86 34.5t-35 82.5q0 50 35 84.5t86 34.5q47 0 81.5 -35t34.5 -84q0 -47 -34.5 -82t-81.5 -35zM1010 143q72 0 129 19.5t93 50.5t59 73.5t32.5 84.5t9.5 88q0 93 -37 168.5t-96.5 120.5t-130 68.5t-143.5 23.5
q-75 0 -147.5 -26.5t-126 -67t-102 -93.5t-79 -99.5t-53.5 -92.5v-318h592z" />
    <glyph glyph-name="uniFECA" unicode="&#x639;" horiz-adv-x="1263" arabic-form="final" 
d="M1047 143h217v-143h-295q-67 0 -107 12q-46 -12 -100 -12h-340q0 -362 176 -510q-14 -13 -50.5 -24t-70.5 -11q-55 0 -98.5 33.5t-68.5 82.5t-41.5 110.5t-22.5 112t-6 93.5q0 256 249 256h113l-455 619q12 37 45.5 74.5t87 71t136 54.5t180.5 21q120 0 221 -29.5
t176 -86.5t117.5 -146.5t42.5 -202.5q0 -89 -24 -192t-82 -183zM598 838q-173 0 -256 -86l438 -592q56 20 96 63t59.5 96t27.5 100t8 91q0 161 -99.5 244.5t-273.5 83.5z" />
    <glyph glyph-name="uniFECB" unicode="&#x639;" horiz-adv-x="1052" arabic-form="initial" 
d="M864 143q29 0 42.5 -22t13.5 -49t-13.5 -49.5t-42.5 -22.5h-289q-120 0 -192 53q-72 -47 -170 -53h-213v145h285q-150 133 -150 369q0 74 15 140.5t49 127.5t85 105t128 70t172 26q135 0 220 -52t85 -163q0 -64 -30.5 -94.5t-76.5 -30.5q-25 0 -55 10q0 86 -39 124
t-123 63q-106 0 -177 -85t-71 -223q0 -84 24 -153t73 -122.5t131 -83.5t190 -30h129zM610 836l13 -2q-2 0 -6.5 1t-6.5 1z" />
    <glyph glyph-name="uniFECC" unicode="&#x639;" horiz-adv-x="1169" arabic-form="medial" 
d="M948 143h221v-143h-295q-64 0 -108 12q-46 -12 -98 -12h-668v143h508l-455 619q12 37 45.5 74.5t87 71t136 54.5t180.5 21q120 0 221 -29.5t176 -86.5t117.5 -146.5t42.5 -202.5q0 -82 -25.5 -187.5t-85.5 -187.5zM504 838q-173 0 -256 -86l436 -590q56 21 97 66t60 100
t27.5 101t8.5 87q0 156 -100 239t-273 83z" />
    <glyph glyph-name="uniFECE" unicode="&#x63a;" horiz-adv-x="1263" arabic-form="final" 
d="M678 1116q-51 0 -86 34.5t-35 82.5q0 50 35 84.5t86 34.5q48 0 82.5 -35t34.5 -84q0 -47 -35 -82t-82 -35zM1047 143h217v-143h-295q-67 0 -107 12q-46 -12 -100 -12h-340q0 -362 176 -510q-14 -13 -50.5 -24t-70.5 -11q-55 0 -98.5 33.5t-68.5 82.5t-41.5 110.5
t-22.5 112t-6 93.5q0 256 249 256h113l-455 619q12 37 45.5 74.5t87 71t136 54.5t180.5 21q120 0 221 -29.5t176 -86.5t117.5 -146.5t42.5 -202.5q0 -89 -24 -192t-82 -183zM598 838q-173 0 -256 -86l438 -592q56 20 96 63t59.5 96t27.5 100t8 91q0 161 -99.5 244.5
t-273.5 83.5z" />
    <glyph glyph-name="uniFECF" unicode="&#x63a;" horiz-adv-x="1052" arabic-form="initial" 
d="M528 1116q-50 0 -85 34.5t-35 82.5q0 50 34.5 84.5t85.5 34.5q48 0 82.5 -35t34.5 -84q0 -47 -35 -82t-82 -35zM864 143q29 0 42.5 -22t13.5 -49t-13.5 -49.5t-42.5 -22.5h-289q-120 0 -192 53q-72 -47 -170 -53h-213v145h285q-150 133 -150 369q0 74 15 140.5t49 127.5
t85 105t128 70t172 26q135 0 220 -52t85 -163q0 -64 -30.5 -94.5t-76.5 -30.5q-25 0 -55 10q0 86 -39 124t-123 63q-106 0 -177 -85t-71 -223q0 -84 24 -153t73 -122.5t131 -83.5t190 -30h129zM610 836l13 -2q-2 0 -6.5 1t-6.5 1z" />
    <glyph glyph-name="uniFED0" unicode="&#x63a;" horiz-adv-x="1169" arabic-form="medial" 
d="M584 1116q-51 0 -86 34.5t-35 82.5q0 50 35 84.5t86 34.5q47 0 81.5 -35t34.5 -84q0 -47 -34.5 -82t-81.5 -35zM948 143h221v-143h-295q-64 0 -108 12q-46 -12 -98 -12h-668v143h508l-455 619q12 37 45.5 74.5t87 71t136 54.5t180.5 21q120 0 221 -29.5t176 -86.5
t117.5 -146.5t42.5 -202.5q0 -82 -25.5 -187.5t-85.5 -187.5zM504 838q-173 0 -256 -86l436 -590q56 21 97 66t60 100t27.5 101t8.5 87q0 156 -100 239t-273 83z" />
    <glyph glyph-name="uniFED2" unicode="&#x641;" horiz-adv-x="2013" arabic-form="final" 
d="M1483 1116q-51 0 -86 34.5t-35 82.5q0 50 35 84.5t86 34.5q47 0 81.5 -35t34.5 -84q0 -47 -34.5 -82t-81.5 -35zM1800 143h213v-143h-205q-76 0 -131 20q-47 -20 -116 -20h-1031q-188 0 -292.5 121.5t-104.5 302.5q0 139 58.5 240.5t150.5 101.5q54 0 100 -37
q-52 -37 -88.5 -122t-36.5 -204q0 -53 9.5 -94.5t23.5 -68.5t37 -46t43 -28.5t49 -15t47 -6.5t45 -1h572q-53 78 -76 164t-23 203q0 89 10.5 159t28.5 119.5t47 85t60.5 56.5t74.5 33t83.5 16t93.5 4q69 0 119 -6.5t96 -24.5t75.5 -49t52 -79.5t32.5 -117.5t10 -161v-256
q0 -81 -27 -146zM1473 143q99 0 134 45t35 160v266q0 126 -47.5 177t-132.5 51q-233 0 -233 -328q0 -24 2 -51t7.5 -73.5t20 -86.5t36 -78t58 -60t83.5 -22h37z" />
    <glyph glyph-name="uniFED3" unicode="&#x641;" horiz-adv-x="1089" arabic-form="initial" 
d="M612 1116q-50 0 -85 34.5t-35 82.5q0 50 34.5 84.5t85.5 34.5q48 0 82.5 -35t34.5 -84q0 -47 -35 -82t-82 -35zM571 983q69 0 119 -6.5t96 -24.5t75.5 -49t52 -79.5t32.5 -117.5t10 -161v-256q0 -61 -14.5 -111.5t-44.5 -91t-83 -63.5t-124 -23h-690v143h272
q-52 78 -75 164t-23 203q0 89 10.5 159t28.5 119.5t47 85t60 56.5t74.5 33t83.5 16t93 4zM772 348v266q0 126 -47.5 177t-132.5 51q-234 0 -234 -328q0 -24 1 -48t5.5 -63t12.5 -71.5t24 -69t37 -61.5t53.5 -41.5t73.5 -16.5h37q99 0 134.5 45t35.5 160z" />
    <glyph glyph-name="uniFED4" unicode="&#x641;" horiz-adv-x="1142" arabic-form="medial" 
d="M612 1116q-50 0 -85 34.5t-35 82.5q0 50 34.5 84.5t85.5 34.5q48 0 82.5 -35t34.5 -84q0 -47 -35 -82t-82 -35zM930 143h213v-143h-205q-80 0 -133 18q-49 -18 -115 -18h-690v143h272q-52 78 -75 164t-23 203q0 89 10.5 159t28.5 119.5t47 85t60 56.5t74.5 33t83.5 16
t93 4q69 0 119 -6.5t96 -24.5t75.5 -49t52 -79.5t32.5 -117.5t10 -161v-256q0 -84 -26 -146zM602 143q99 0 134.5 45t35.5 160v266q0 126 -47.5 177t-132.5 51q-234 0 -234 -328q0 -24 1 -48t5.5 -63t12.5 -71.5t24 -69t37 -61.5t53.5 -41.5t73.5 -16.5h37z" />
    <glyph glyph-name="uniFED6" unicode="&#x642;" horiz-adv-x="1830" arabic-form="final" 
d="M1139 1116q-47 0 -82 35t-35 82q0 49 34.5 84t82.5 35q49 0 82.5 -34.5t33.5 -84.5q0 -48 -33.5 -82.5t-82.5 -34.5zM1438 1116q-47 0 -82 35t-35 82q0 49 34.5 84t82.5 35q49 0 82.5 -34.5t33.5 -84.5q0 -48 -33.5 -82.5t-82.5 -34.5zM1831 143v-143h-195
q-23 -229 -201 -356t-528 -127q-148 0 -268 24.5t-199 62t-138 93.5t-90.5 110t-50 119.5t-23.5 113t-5 101.5q0 174 52.5 280.5t156.5 106.5q38 0 65.5 -13.5t38.5 -29.5q-56 -44 -91.5 -153t-35.5 -234q0 -75 16.5 -136.5t58.5 -119t108.5 -96.5t172 -62.5t243.5 -23.5
q121 0 212.5 18t148.5 48t94.5 75t54 92.5t22.5 106.5h-250q-91 0 -158.5 40.5t-107 113.5t-58 166t-18.5 208q0 85 10.5 152t29 114.5t48 81.5t61.5 54.5t76 32.5t85.5 16t95.5 4t94 -4t81 -15.5t70 -31t55.5 -52.5t42 -79t24.5 -110t9 -146v-402h191zM1044 500
q0 -23 1 -43.5t6.5 -59t15.5 -69.5t29.5 -67t46.5 -60.5t70 -41t96 -16.5h145v471q0 125 -47.5 175.5t-132.5 50.5q-116 0 -173 -82t-57 -258z" />
    <glyph glyph-name="uniFED7" unicode="&#x642;" horiz-adv-x="1089" arabic-form="initial" 
d="M463 1116q-47 0 -82 35t-35 82q0 49 34.5 84t82.5 35q49 0 83 -34.5t34 -84.5q0 -48 -34 -82.5t-83 -34.5zM762 1116q-47 0 -82 35t-35 82q0 49 34.5 84t82.5 35q49 0 83 -34.5t34 -84.5q0 -48 -34 -82.5t-83 -34.5zM571 983q69 0 119 -6.5t96 -24.5t75.5 -49t52 -79.5
t32.5 -117.5t10 -161v-256q0 -61 -14.5 -111.5t-44.5 -91t-83 -63.5t-124 -23h-690v143h272q-52 78 -75 164t-23 203q0 89 10.5 159t28.5 119.5t47 85t60 56.5t74.5 33t83.5 16t93 4zM772 348v266q0 126 -47.5 177t-132.5 51q-234 0 -234 -328q0 -24 1 -48t5.5 -63
t12.5 -71.5t24 -69t37 -61.5t53.5 -41.5t73.5 -16.5h37q99 0 134.5 45t35.5 160z" />
    <glyph glyph-name="uniFED8" unicode="&#x642;" horiz-adv-x="1142" arabic-form="medial" 
d="M463 1116q-47 0 -82 35t-35 82q0 49 34.5 84t82.5 35q49 0 83 -34.5t34 -84.5q0 -48 -34 -82.5t-83 -34.5zM762 1116q-47 0 -82 35t-35 82q0 49 34.5 84t82.5 35q49 0 83 -34.5t34 -84.5q0 -48 -34 -82.5t-83 -34.5zM930 143h213v-143h-205q-80 0 -133 18
q-49 -18 -115 -18h-690v143h272q-52 78 -75 164t-23 203q0 89 10.5 159t28.5 119.5t47 85t60 56.5t74.5 33t83.5 16t93 4q69 0 119 -6.5t96 -24.5t75.5 -49t52 -79.5t32.5 -117.5t10 -161v-256q0 -84 -26 -146zM602 143q99 0 134.5 45t35.5 160v266q0 126 -47.5 177
t-132.5 51q-234 0 -234 -328q0 -24 1 -48t5.5 -63t12.5 -71.5t24 -69t37 -61.5t53.5 -41.5t73.5 -16.5h37z" />
    <glyph glyph-name="uniFEDA" unicode="&#x643;" horiz-adv-x="1810" arabic-form="final" 
d="M1509 143h301v-143h-235q-106 0 -170 39q-65 -39 -150 -39h-856q-71 0 -124 23t-83 63.5t-44.5 91t-14.5 111.5v264q0 88 92 88t92 -90v-203q0 -115 35.5 -160t134.5 -45h713q87 0 134.5 72.5t47.5 167.5v666q0 87 -34.5 154.5t-77.5 96.5q12 17 52.5 34.5t82.5 17.5
q68 0 115 -53t47 -175v-725q0 -152 -58 -256zM1044 715q-131 -12 -251 -29.5t-131 -30.5q-17 24 -16 46.5t15 34t33.5 17t40.5 -4.5q-26 27 -46.5 75t-20.5 99q0 85 59 138.5t162 53.5q127 0 127 -82q0 -31 -18 -49t-37 -16.5t-31 8.5q1 36 -24.5 59.5t-57.5 28.5
q-24 -5 -44 -37.5t-20 -87.5q0 -158 168 -158q50 0 70 8q41 0 43 -34q2 -26 -14 -37q-3 -2 -7 -2z" />
    <glyph glyph-name="uniFEDB" unicode="&#x643;" horiz-adv-x="1218" arabic-form="initial" 
d="M0 0v143h711q92 0 141 53t49 138q0 95 -63.5 149t-196.5 54h-201q-146 0 -221.5 86.5t-75.5 244.5q0 171 97.5 260t314.5 89q41 0 187 -4.5t161 -4.5q76 0 144 49q4 -27 -9 -73q-13 -45 -46 -79t-87 -34q-6 0 -140 2t-165 2q-149 0 -210.5 -45.5t-61.5 -148.5
q0 -97 48 -149t142 -52h160q407 0 407 -350q0 -154 -76 -242t-221 -88h-788z" />
    <glyph glyph-name="uniFEDC" unicode="&#x643;" horiz-adv-x="1546" arabic-form="medial" 
d="M1047 143h499v-143h-473q-85 0 -147 27q-66 -27 -138 -27h-788v143h711q92 0 141 53t49 138q0 95 -63.5 149t-196.5 54h-201q-146 0 -221.5 86.5t-75.5 244.5q0 171 97.5 260t314.5 89q41 0 187 -4.5t161 -4.5q76 0 144 49q4 -27 -9 -73q-13 -45 -46 -79t-87 -34
q-6 0 -140 2t-165 2q-149 0 -210.5 -45.5t-61.5 -148.5q0 -97 48 -149t142 -52h160q407 0 407 -350q0 -115 -38 -187z" />
    <glyph glyph-name="uniFEDE" unicode="&#x644;" horiz-adv-x="1458" arabic-form="final" 
d="M1257 143h201v-143h-35q-103 0 -166 37q-9 -250 -142.5 -385t-397.5 -135q-125 0 -225.5 31.5t-166 83.5t-110 122t-63.5 144.5t-19 154.5q0 103 29 199t86.5 160.5t130.5 64.5q51 0 104 -33q-11 -11 -26 -28t-39.5 -55t-43.5 -81t-33.5 -107t-14.5 -132q0 -89 28 -158
t71 -110t100.5 -67.5t109.5 -36t104 -9.5q67 0 120.5 18t87.5 44.5t59 69t37.5 80t19.5 90t8.5 86t1.5 79.5v922q0 87 -34.5 154.5t-77.5 96.5q12 17 51.5 34.5t81.5 17.5q69 0 116 -53t47 -175v-981z" />
    <glyph glyph-name="uniFEDF" unicode="&#x644;" horiz-adv-x="563" arabic-form="initial" 
d="M0 0v143h133q27 0 47.5 9t32.5 29t19 38.5t10 52.5t3.5 54t0.5 59v664q0 87 -35 154.5t-78 96.5q12 17 52.5 34.5t82.5 17.5q68 0 115 -53t47 -175v-727q-1 -101 -26 -179t-69 -124.5t-99 -70t-119 -23.5h-117z" />
    <glyph glyph-name="uniFEE0" unicode="&#x644;" horiz-adv-x="669" arabic-form="medial" 
d="M371 143h299v-143h-191q-116 0 -190 51q-74 -51 -172 -51h-117v143h133q27 0 47.5 9t32.5 29t19 38.5t10 52.5t3.5 54t0.5 59v664q0 87 -35 154.5t-78 96.5q12 17 52.5 34.5t82.5 17.5q68 0 115 -53t47 -175v-727q0 -157 -59 -254z" />
    <glyph glyph-name="uniFEE2" unicode="&#x645;" horiz-adv-x="1392" arabic-form="final" 
d="M1063 143h330v-143h-236q-115 0 -186 51q-83 -51 -226 -51h-129q-66 0 -114 -18.5t-74 -50t-37.5 -67t-11.5 -75.5v-131q0 -122 -46.5 -174.5t-115.5 -52.5q-42 0 -82.5 17t-52.5 34q43 29 78 97t35 155v80q0 33 6.5 69t22 81.5t49.5 85.5t81 63v549q0 94 28.5 159
t82.5 99.5t118.5 48.5t151.5 14q77 0 132.5 -11t107 -42.5t83.5 -86t51 -145t19 -215.5q0 -229 -65 -340zM682 143q53 0 95 15.5t69 39t46.5 58t29 64.5t15 67.5t6.5 58t1 43.5q0 353 -221 353q-184 0 -184 -230v-469h143z" />
    <glyph glyph-name="uniFEE3" unicode="&#x645;" horiz-adv-x="1046" arabic-form="initial" 
d="M520 983q76 0 132 -11t107.5 -43t83.5 -86.5t51 -144.5t19 -215q0 -252 -84 -369.5t-290 -117.5q-120 0 -217 45q-68 -41 -170 -41h-152v143h139v516q0 94 28.5 159.5t82.5 100.5t119 49.5t151 14.5zM467 143q53 0 95 15.5t69 39t46.5 57.5t29 64t15 67t6.5 57.5t1 43.5
q0 353 -221 353q-184 0 -184 -230v-467h143zM334 45h2h-2z" />
    <glyph glyph-name="uniFEE4" unicode="&#x645;" horiz-adv-x="1083" arabic-form="medial" 
d="M848 143h235v-143h-137q-113 0 -186 49q-83 -53 -221 -53q-120 0 -217 45q-68 -41 -170 -41h-152v143h139v516q0 94 28.5 159.5t82.5 100.5t119 49.5t151 14.5q76 0 132 -11t107.5 -43t83.5 -86.5t51 -144.5t19 -215q0 -229 -65 -340zM467 143q53 0 95 15.5t69 39
t46.5 57.5t29 64t15 67t6.5 57.5t1 43.5q0 353 -221 353q-184 0 -184 -230v-467h143zM334 45h2h-2z" />
    <glyph glyph-name="uniFEE6" unicode="&#x646;" horiz-adv-x="1429" arabic-form="final" 
d="M698 983q-50 0 -85 34.5t-35 82.5q0 50 34.5 84.5t85.5 34.5q48 0 82.5 -35t34.5 -84q0 -47 -35 -82t-82 -35zM1257 143h173v-143h-23q-58 0 -90 9.5t-60 31.5q-8 -252 -141.5 -388t-398.5 -136q-125 0 -225.5 31.5t-166 83.5t-110 122t-63.5 144.5t-19 154.5
q0 103 29 199t86.5 160.5t130.5 64.5q51 0 104 -33q-11 -11 -26 -28t-39.5 -55t-43.5 -81t-33.5 -107t-14.5 -132q0 -89 28 -158t71 -110t100.5 -67.5t109.5 -36t104 -9.5q67 0 120.5 18t87.5 44.5t59 69t37.5 80t19.5 90t8.5 86t1.5 79.5v774q0 82 92 82t92 -82v-758z" />
    <glyph glyph-name="uniFEE7" unicode="&#x646;" horiz-adv-x="679" arabic-form="initial" 
d="M303 1116q-51 0 -86 34.5t-35 82.5q0 50 35 84.5t86 34.5q48 0 82.5 -35t34.5 -84q0 -47 -35 -82t-82 -35zM0 0v143h137q45 0 81.5 16t59.5 40t40 59.5t25 66t13 68.5t5.5 57.5t0.5 41.5q0 45 -2.5 81.5t-12.5 90t-27.5 97.5t-51.5 93t-80 88q46 41 113 41t117 -38
t77 -102.5t39.5 -136.5t12.5 -153q0 -55 -5.5 -107.5t-19 -108.5t-35 -104t-55 -92t-76.5 -74.5t-102.5 -48.5t-130.5 -18h-123z" />
    <glyph glyph-name="uniFEE8" unicode="&#x646;" horiz-adv-x="673" arabic-form="medial" 
d="M328 1116q-51 0 -86 34.5t-35 82.5q0 50 35 84.5t86 34.5q47 0 81.5 -35t34.5 -84q0 -47 -34.5 -82t-81.5 -35zM471 143h203v-143h-195q-120 0 -192 53q-72 -47 -170 -53h-117v143h117q57 3 116 25v721q0 94 93 94q92 0 92 -92v-580q0 -34 1.5 -57t6 -52t16 -44t29.5 -15
z" />
    <glyph glyph-name="uniFEEA" unicode="&#x647;" horiz-adv-x="1046" arabic-form="final" 
d="M907 143h140v-143h-152q-102 0 -170 41q-97 -45 -217 -45q-206 0 -290.5 117.5t-84.5 369.5q0 125 19 215t51 144.5t83.5 86.5t107.5 43t132 11q86 0 151 -14.5t119 -49.5t82.5 -100.5t28.5 -159.5v-516zM317 487q0 -23 1 -43.5t6.5 -57.5t15 -67t29.5 -64t47 -57.5
t69 -39t95 -15.5h143v467q0 230 -184 230q-222 0 -222 -353zM711 45h2h-2z" />
    <glyph glyph-name="uniFEEB" unicode="&#x647;" horiz-adv-x="1302" arabic-form="initial" 
d="M451 1182q64 3 128.5 -2.5t136.5 -22.5t136 -45t123 -75.5t101 -108.5t67.5 -147.5t25.5 -190.5q0 -119 -32.5 -224.5t-93 -187.5t-155 -130t-210.5 -48q-76 0 -179.5 14.5t-133.5 38.5q-127 -53 -285 -53h-80v143h31q2 0 16.5 -4t39.5 -8t52 -4q36 0 76 8
q-58 53 -94.5 146.5t-36.5 214.5q0 163 70 267.5t206 104.5q135 0 206 -104t71 -266q0 -123 -38.5 -218t-100.5 -143q52 -10 94 -10q123 0 213.5 62t135 162t44.5 222q0 79 -20.5 145.5t-54 113.5t-81 84t-98.5 59.5t-109.5 37t-110 20t-103.5 5.5h-97q-89 0 -126.5 45
t-37.5 144q26 -25 62 -37.5t58.5 -13.5t56.5 0zM360 725q-30 0 -53 -22.5t-35.5 -59.5t-19 -77t-6.5 -81q0 -179 114 -278q115 100 115 278q0 56 -10.5 108t-38 92t-66.5 40zM264 150q15 9 10 12z" />
    <glyph glyph-name="uniFEEC" unicode="&#x647;" horiz-adv-x="995" arabic-form="medial" 
d="M995 143v-143h-176q-5 -52 -19.5 -104.5t-42 -104t-64 -91.5t-89.5 -64.5t-115 -24.5q-41 0 -80 10t-82.5 37t-78 69t-61 112t-35.5 161h-152v143h145v256q0 114 13.5 206.5t34.5 151.5t50.5 103.5t56 67t57 36t48.5 16.5t35 3q34 0 70.5 -13.5t75.5 -48.5t69.5 -86.5
t50 -135t19.5 -187.5q0 -116 -24.5 -206t-63 -144.5t-92 -90.5t-104 -50.5t-107.5 -18.5q14 -110 57 -179t101 -69q54 0 99.5 63t69 151.5t23.5 174.5h311zM438 840q-41 -31 -74.5 -174t-33.5 -373v-146q125 13 168 81t43 227q0 154 -31.5 255.5t-71.5 129.5z" />
    <glyph glyph-name="uniFEEE" unicode="&#x648;" horiz-adv-x="1081" arabic-form="final" 
d="M1081 143v-143h-174v-139q0 -37 -7 -76.5t-27.5 -86.5t-52.5 -82.5t-89 -60t-131 -24.5q-91 0 -157.5 34.5t-94.5 76.5q76 -17 127 -17q112 0 180 60.5t68 152.5l2 162l-217 -4q-206 0 -290.5 117.5t-84.5 369.5q0 125 19 215t51 144.5t83.5 86.5t107.5 43t132 11
q86 0 151 -14.5t119 -49.5t82.5 -100.5t28.5 -159.5v-516h174zM317 487q0 -23 1 -43.5t6.5 -57.5t15 -67t29.5 -64t47 -57.5t69 -39t95 -15.5h143v467q0 230 -184 230q-222 0 -222 -353z" />
    <glyph glyph-name="uniFEF0" unicode="&#x649;" horiz-adv-x="1867" arabic-form="final" 
d="M838 -483q-133 0 -242.5 24t-181 62t-125.5 91t-82.5 104t-46.5 109t-22.5 97.5t-4.5 77.5q0 134 58.5 220.5t152.5 86.5q36 0 63.5 -13.5t38.5 -29.5q-53 -43 -90 -136.5t-37 -189.5q0 -77 27 -139t87 -114t169 -80.5t260 -28.5q252 0 390.5 95t138.5 247h-60
q-51 0 -89.5 13t-59 33.5t-31 46.5t-9.5 51.5t9 48.5q73 -50 178 -50h539v-143h-297q0 -65 -23 -130.5t-76.5 -129.5t-130.5 -113t-195.5 -79.5t-262.5 -30.5h-45z" />
    <glyph glyph-name="uniFEF2" unicode="&#x64a;" horiz-adv-x="1867" arabic-form="final" 
d="M838 -483q-133 0 -242.5 24t-181 62t-125.5 91t-82.5 104t-46.5 109t-22.5 97.5t-4.5 77.5q0 134 58.5 220.5t152.5 86.5q36 0 63.5 -13.5t38.5 -29.5q-53 -43 -90 -136.5t-37 -189.5q0 -77 27 -139t87 -114t169 -80.5t260 -28.5q252 0 390.5 95t138.5 247h-60
q-51 0 -89.5 13t-59 33.5t-31 46.5t-9.5 51.5t9 48.5q73 -50 178 -50h539v-143h-297q0 -65 -23 -130.5t-76.5 -129.5t-130.5 -113t-195.5 -79.5t-262.5 -30.5h-45zM713 -842q-47 0 -82 35t-35 82q0 49 34.5 84t82.5 35q49 0 82.5 -34.5t33.5 -84.5q0 -48 -33.5 -82.5
t-82.5 -34.5zM1012 -842q-47 0 -82 35t-35 82q0 49 34.5 84t82.5 35q49 0 82.5 -34.5t33.5 -84.5q0 -48 -33.5 -82.5t-82.5 -34.5z" />
    <glyph glyph-name="uniFEF3" unicode="&#x64a;" horiz-adv-x="679" arabic-form="initial" 
d="M0 0v143h137q45 0 81.5 16t59.5 40t40 59.5t25 66t13 68.5t5.5 57.5t0.5 41.5q0 45 -2.5 81.5t-12.5 90t-27.5 97.5t-51.5 93t-80 88q46 41 113 41t117 -38t77 -102.5t39.5 -136.5t12.5 -153q0 -55 -5.5 -107.5t-19 -108.5t-35 -104t-55 -92t-76.5 -74.5t-102.5 -48.5
t-130.5 -18h-123zM152 -399q-47 0 -82 34.5t-35 81.5q0 49 34.5 84t82.5 35q49 0 82.5 -34.5t33.5 -84.5q0 -48 -33.5 -82t-82.5 -34zM451 -399q-47 0 -82 34.5t-35 81.5q0 49 34.5 84t82.5 35q49 0 82.5 -34.5t33.5 -84.5q0 -48 -33.5 -82t-82.5 -34z" />
    <glyph glyph-name="uniFEF4" unicode="&#x64a;" horiz-adv-x="673" arabic-form="medial" 
d="M471 143h203v-143h-195q-120 0 -192 53q-72 -47 -170 -53h-117v143h117q57 3 116 25v721q0 94 93 94q92 0 92 -92v-580q0 -34 1.5 -57t6 -52t16 -44t29.5 -15zM176 -164q49 0 83 -34.5t34 -84.5q0 -48 -34 -82t-83 -34q-47 0 -82 34.5t-35 81.5q0 49 34.5 84t82.5 35z
M475 -164q49 0 83 -34.5t34 -84.5q0 -48 -34 -82t-83 -34q-47 0 -82 34.5t-35 81.5q0 49 34.5 84t82.5 35z" />
    <glyph glyph-name=".notdef" horiz-adv-x="512" 
 />
    <glyph glyph-name=".null" 
 />
    <glyph glyph-name="nonmarkingreturn" horiz-adv-x="682" 
 />
    <glyph glyph-name="space" unicode=" " horiz-adv-x="512" 
 />
    <glyph glyph-name="exclam" unicode="!" horiz-adv-x="479" 
d="M180 317l-37 1035h193l-37 -1035h-119zM240 -29q-45 0 -78 33t-33 80q0 44 33.5 76.5t77.5 32.5t77 -32.5t33 -76.5q0 -47 -32.5 -80t-77.5 -33z" />
    <glyph glyph-name="quotedbl" unicode="&#x22;" horiz-adv-x="749" 
d="M170 799l-61 553h204l-61 -553h-82zM498 799l-62 553h205l-61 -553h-82z" />
    <glyph glyph-name="numbersign" unicode="#" horiz-adv-x="1368" 
d="M258 0l72 358h-267v123h295l74 369h-246v123h273l86 409h133l-86 -409h297l86 409h133l-86 -409h281v-123h-308l-75 -369h260v-123h-287l-72 -358h-133l72 358h-297l-72 -358h-133zM489 481h299l74 369h-297z" />
    <glyph glyph-name="dollar" unicode="$" horiz-adv-x="1077" 
d="M483 -164v133q-102 12 -187 43t-140.5 84t-55.5 119v219h37q30 -183 115.5 -275t230.5 -110v553l-143 86q-131 78 -185.5 157.5t-54.5 194.5q0 154 105 249t278 100v116h82v-121q95 -8 179 -38t140 -84t56 -119v-219h-37q-30 183 -112 272t-226 107v-519l174 -102
q93 -55 145 -100.5t80.5 -103.5t28.5 -134q0 -174 -114 -276.5t-314 -102.5v-129h-82zM483 834v473q-92 -5 -157.5 -62t-65.5 -145q0 -59 27.5 -105t70 -78.5t125.5 -82.5zM565 47q106 5 179 60t73 149q0 91 -56 153.5t-196 143.5v-506z" />
    <glyph glyph-name="percent" unicode="%" horiz-adv-x="1380" 
d="M362 809q-140 0 -218 73t-78 203q0 131 78.5 204t217.5 73q140 0 218.5 -73.5t78.5 -203.5t-78.5 -203t-218.5 -73zM147 0l932 1352h154l-932 -1352h-154zM362 881q175 0 175 204q0 205 -175 205q-174 0 -174 -205q0 -204 174 -204zM1018 -10q-140 0 -218.5 73t-78.5 203
t78.5 203.5t218.5 73.5t218.5 -73.5t78.5 -203.5t-78.5 -203t-218.5 -73zM1018 61q174 0 174 205t-174 205t-174 -205t174 -205z" />
    <glyph glyph-name="ampersand" unicode="&#x26;" horiz-adv-x="1261" 
d="M516 -41q-207 0 -318.5 91.5t-111.5 236.5q0 48 16.5 92.5t37.5 76.5t63.5 72t71.5 62.5t85 63.5q13 9 19 14q-211 190 -211 405q0 148 99.5 234t269.5 86q157 0 247 -80t90 -207q0 -55 -17 -105.5t-41.5 -88.5t-67.5 -79t-79.5 -69.5t-93.5 -67.5l412 -450
q70 77 135 174q39 63 49 82l41 -31q-16 -36 -45 -86q-62 -102 -137 -186l182 -199h-225l-82 88q-171 -129 -389 -129zM512 768q91 77 139.5 150t48.5 167q0 119 -49.5 177.5t-113.5 58.5q-71 0 -123 -60t-52 -188q0 -56 21 -113.5t49.5 -97.5t49.5 -64t30 -30zM555 31
q172 0 307 104l-422 461q-77 -67 -118 -135t-41 -154q0 -276 274 -276z" />
    <glyph glyph-name="quotesingle" unicode="'" horiz-adv-x="421" 
d="M170 799l-61 553h204l-61 -553h-82z" />
    <glyph glyph-name="parenleft" unicode="(" horiz-adv-x="632" 
d="M582 -430q-171 128 -280 258t-170.5 296.5t-61.5 367.5t61.5 367.5t170.5 296t280 257.5l20 -31q-348 -305 -348 -890q0 -586 348 -891z" />
    <glyph glyph-name="parenright" unicode=")" horiz-adv-x="632" 
d="M51 -430l-20 31q348 305 348 891q0 585 -348 890l20 31q171 -128 280 -257.5t170.5 -296t61.5 -367.5t-61.5 -367.5t-170.5 -296.5t-280 -258z" />
    <glyph glyph-name="asterisk" unicode="*" horiz-adv-x="868" 
d="M352 676l62 307l-236 -215l-82 143l297 103l-297 102l82 144l236 -216l-62 308h164l-61 -308l235 216l82 -144l-297 -102l297 -103l-82 -143l-235 215l61 -307h-164z" />
    <glyph glyph-name="plus" unicode="+" horiz-adv-x="1085" 
d="M481 205v409h-409v123h409v410h123v-410h410v-123h-410v-409h-123z" />
    <glyph glyph-name="comma" unicode="," horiz-adv-x="485" 
d="M145 -317l-20 30q82 57 123 122.5t41 154.5q-31 -21 -62 -21q-47 0 -79.5 33t-32.5 80q0 54 34.5 88.5t88.5 34.5q62 0 97.5 -38t35.5 -106q0 -250 -226 -378z" />
    <glyph glyph-name="hyphen" unicode="-" horiz-adv-x="792" 
d="M135 471v143h522v-143h-522z" />
    <glyph glyph-name="period" unicode="." horiz-adv-x="450" 
d="M225 -29q-45 0 -77.5 33t-32.5 80q0 44 33 77.5t77 33.5q47 0 79 -33t32 -78q0 -47 -33 -80t-78 -33z" />
    <glyph glyph-name="slash" unicode="/" horiz-adv-x="901" 
d="M47 0l658 1352h149l-657 -1352h-150z" />
    <glyph glyph-name="zero" unicode="0" horiz-adv-x="1196" 
d="M598 -41q-492 0 -492 717t492 717t492 -717t-492 -717zM598 41q162 0 224.5 150t62.5 485t-62.5 485t-224.5 150t-224.5 -150t-62.5 -485t62.5 -485t224.5 -150z" />
    <glyph glyph-name="one" unicode="1" horiz-adv-x="624" 
d="M264 0v1147l-198 -129l-37 47l317 287h103v-1352h-185z" />
    <glyph glyph-name="two" unicode="2" horiz-adv-x="1085" 
d="M84 0v102q55 54 135 130t123.5 118t104.5 102.5t93 97.5t73 88t61 89.5t40.5 86t28 93.5t7.5 97q0 146 -77 226.5t-190 80.5q-126 0 -217 -90.5t-121 -257.5h-41q0 67 2 104.5t13.5 84.5t34.5 77q58 70 165 117t226 47q55 0 106 -8.5t108 -34.5t98.5 -67t69 -113
t27.5 -166q0 -85 -29.5 -166.5t-73 -146t-121 -145.5t-144.5 -140.5t-175.5 -155.5t-183.5 -168h461q125 0 190.5 54t65.5 161h41v-133q0 -164 -174 -164h-727z" />
    <glyph glyph-name="three" unicode="3" horiz-adv-x="1085" 
d="M545 -41q-274 0 -463 219l33 37q157 -174 379 -174q63 0 117.5 20t97.5 60t67.5 106t24.5 152q0 77 -24 139.5t-63 100t-85 57.5t-94 20q-87 0 -129 -5.5t-117 -24.5l-53 86l555 518h-379q-125 0 -190.5 -54t-65.5 -161h-41v133q0 164 174 164h651v-82l-549 -512
q80 20 184 20q43 0 92 -8.5t111.5 -35.5t111 -69t82.5 -116.5t34 -169.5q0 -102 -34 -180.5t-83.5 -122.5t-115.5 -71.5t-120.5 -36.5t-107.5 -9z" />
    <glyph glyph-name="four" unicode="4" horiz-adv-x="1118" 
d="M692 0v348h-655v82l676 922h164v-922h184v-82h-184v-348h-185zM160 430h532v725z" />
    <glyph glyph-name="five" unicode="5" horiz-adv-x="1085" 
d="M526 -41q-145 0 -246.5 53.5t-193.5 161.5l39 35q152 -168 371 -168q63 0 117.5 20t97.5 60t67.5 106t24.5 152q0 158 -85.5 237.5t-242.5 79.5q-100 0 -256 -20l-82 82l21 594h768v-82h-600l-19 -502l66 4q117 6 143 6q68 0 130.5 -9.5t130.5 -37t117.5 -70t81.5 -115.5
t32 -167q0 -100 -34 -177.5t-85.5 -122t-119.5 -73t-126.5 -38t-116.5 -9.5z" />
    <glyph glyph-name="six" unicode="6" horiz-adv-x="1099" 
d="M578 -41q-243 0 -357.5 178.5t-114.5 538.5q0 359 126 538t386 179q154 0 318 -62l-10 -41q-132 21 -267 21q-179 0 -268.5 -138.5t-89.5 -384.5q131 93 307 93q208 0 309 -121.5t101 -339.5q0 -90 -27.5 -171.5t-80.5 -147t-138.5 -104t-193.5 -38.5zM578 41
q75 0 132 54.5t85 140t28 184.5q0 379 -276 379q-73 0 -130 -25.5t-116 -77.5q0 -338 73.5 -496.5t203.5 -158.5z" />
    <glyph glyph-name="seven" unicode="7" horiz-adv-x="970" 
d="M248 0l512 1270h-410q-125 0 -190.5 -54t-65.5 -161h-41v133q0 164 174 164h717v-82l-512 -1270h-184z" />
    <glyph glyph-name="eight" unicode="8" horiz-adv-x="1134" 
d="M567 -41q-98 0 -181 20.5t-149 61t-103.5 109t-37.5 157.5q0 74 26.5 134.5t76.5 106t102.5 76.5t122.5 62q-51 30 -85 52.5t-73.5 57t-63 68.5t-39.5 80.5t-16 99.5q0 78 22.5 138.5t60.5 99.5t92.5 64.5t114.5 36t130 10.5q88 0 161 -17t132.5 -54t93 -102.5
t33.5 -154.5q0 -209 -256 -338q58 -35 92.5 -57.5t80.5 -61.5t71.5 -76t44 -90.5t18.5 -113.5q0 -97 -37.5 -169.5t-103.5 -115t-148.5 -63.5t-181.5 -21zM639 778q47 34 77.5 67t53.5 90t23 130q0 56 -13.5 100t-35.5 71t-52.5 44.5t-61 24t-63.5 6.5q-42 0 -79.5 -11.5
t-71.5 -36t-54 -70.5t-20 -108q0 -168 297 -307zM567 41q114 0 195.5 65t81.5 181q0 51 -18.5 96.5t-45.5 78.5t-75 68.5t-87 58.5t-102 56q-51 -25 -87 -51t-70 -65.5t-51 -95t-17 -126.5q0 -131 79.5 -198.5t196.5 -67.5z" />
    <glyph glyph-name="nine" unicode="9" horiz-adv-x="1097" 
d="M479 -41q-156 0 -317 61l10 41q126 -20 266 -20q179 0 269 138.5t90 383.5q-130 -92 -308 -92q-208 0 -308.5 121.5t-100.5 339.5q0 90 27.5 171.5t80.5 147t138.5 104t193.5 38.5q242 0 356.5 -179.5t114.5 -537.5q0 -359 -126 -538t-386 -179zM551 553q74 0 130.5 25.5
t115.5 76.5q0 339 -73.5 497.5t-203.5 158.5q-75 0 -132 -54.5t-85.5 -140t-28.5 -184.5q0 -379 277 -379z" />
    <glyph glyph-name="colon" unicode=":" horiz-adv-x="493" 
d="M248 723q-45 0 -78 32t-33 79q0 44 33.5 77t77.5 33q47 0 78.5 -32.5t31.5 -77.5q0 -47 -31.5 -79t-78.5 -32zM246 -29q-45 0 -78 33t-33 80q0 44 33.5 77.5t77.5 33.5q47 0 79.5 -33t32.5 -78q0 -47 -32.5 -80t-79.5 -33z" />
    <glyph glyph-name="semicolon" unicode=";" horiz-adv-x="528" 
d="M268 725q-45 0 -77.5 33t-32.5 80q0 44 33 77t77 33q47 0 79 -32.5t32 -77.5q0 -47 -33 -80t-78 -33zM164 -317l-21 30q82 57 123 122.5t41 154.5q-31 -21 -61 -21q-47 0 -80 33t-33 80q0 54 34.5 88.5t88.5 34.5q62 0 97.5 -38t35.5 -106q0 -251 -225 -378z" />
    <glyph glyph-name="less" unicode="&#x3c;" horiz-adv-x="1265" 
d="M1126 195l-1065 460v62l1065 461v-123l-854 -369l854 -369v-122z" />
    <glyph glyph-name="equal" unicode="=" horiz-adv-x="1345" 
d="M135 799v123h1075v-123h-1075zM135 430v123h1075v-123h-1075z" />
    <glyph glyph-name="greater" unicode="&#x3e;" horiz-adv-x="1265" 
d="M139 195v122l854 369l-854 369v123l1065 -461v-62z" />
    <glyph glyph-name="question" unicode="?" horiz-adv-x="978" 
d="M422 319q2 79 24 147t54 113t68.5 94t68 92t52 105t20.5 134q0 146 -77 226.5t-190 80.5q-126 0 -218 -90.5t-122 -257.5h-41q0 67 2 104.5t14 85t36 76.5q58 70 165 117t226 47q55 0 106 -8.5t108 -34.5t98.5 -67t69 -113t27.5 -166q0 -70 -22 -131.5t-57.5 -108
t-78.5 -89t-86.5 -82.5t-79.5 -80t-59.5 -90t-25.5 -104h-82zM463 -27q-47 0 -79 33t-32 78q0 47 32 80t79 33t79.5 -33t32.5 -80q0 -44 -34 -77.5t-78 -33.5z" />
    <glyph glyph-name="at" unicode="@" horiz-adv-x="1753" 
d="M881 -369q-177 0 -323.5 57.5t-252.5 167.5t-164.5 277.5t-58.5 378.5t58.5 378.5t164.5 277.5t252.5 167.5t323.5 57.5q176 0 323 -57t252.5 -163t164 -265t58.5 -355q0 -255 -99 -399t-300 -144q-166 0 -215 113h-10q-37 -46 -109 -79.5t-178 -33.5q-47 0 -95 14.5
t-95 45t-77 89.5t-30 138q0 81 41.5 138.5t117 89t164.5 45.5t199 14h62q0 104 -15.5 175t-46.5 107.5t-67 51t-86 14.5q-92 0 -148 -39.5t-78 -134.5h-92q0 47 1.5 71t13.5 56.5t36 56.5q36 36 121.5 54t186.5 18q61 0 109 -9t96.5 -36.5t80.5 -73.5t52 -125t20 -186v-369
q0 -52 25.5 -87.5t76.5 -35.5q105 0 180.5 127t75.5 334q0 363 -193 560.5t-523 197.5q-163 0 -294.5 -50.5t-226 -149t-145.5 -251t-51 -348.5t51 -348.5t145.5 -251t226 -149t294.5 -50.5q387 0 635 174l40 -61q-278 -195 -675 -195zM860 102q68 0 113 33t82 90v277h-62
q-152 0 -239.5 -56t-87.5 -149q0 -95 56 -145t138 -50z" />
    <glyph glyph-name="A" unicode="A" horiz-adv-x="1300" 
d="M1274 -10q-33 0 -63.5 4.5t-73 21t-78 44t-72 78t-61.5 118.5l-52 133h-573l-164 -389h-92l573 1352h62l450 -1096q51 -118 96.5 -163t129.5 -52v-41q-38 -10 -82 -10zM332 471h502l-246 594z" />
    <glyph glyph-name="B" unicode="B" horiz-adv-x="1273" 
d="M217 0v1106q0 51 -5.5 85t-20 63t-43.5 43t-74 14h-41v41h532q52 0 99 -3t104.5 -13t105 -25.5t94 -43t78.5 -64.5t52 -90.5t20 -119.5q0 -96 -65.5 -173.5t-200.5 -123.5q98 -16 165 -45.5t104 -72.5t53 -93t16 -116q0 -89 -34.5 -156t-89 -106.5t-131.5 -64.5
t-150.5 -33.5t-157.5 -8.5h-410zM401 727h195q84 0 157 30t122 94.5t49 152.5q0 70 -34 125.5t-89.5 87t-118 47.5t-127.5 16q-72 0 -154 -20v-533zM596 72q187 0 288 73.5t101 212.5q0 140 -99 213.5t-290 73.5h-195v-545q98 -28 195 -28z" />
    <glyph glyph-name="C" unicode="C" horiz-adv-x="1361" 
d="M725 -41q-190 0 -336 93.5t-222.5 251t-76.5 351.5q0 151 50.5 288t135.5 235.5t202.5 156.5t246.5 58q163 0 287.5 -46.5t183.5 -117.5q24 -29 36 -84.5t13.5 -98t1.5 -124.5h-41q-74 389 -420 389q-105 0 -190.5 -34.5t-154.5 -109t-107.5 -205t-38.5 -307.5
q0 -94 17 -181t55.5 -166.5t94.5 -138.5t139 -93.5t185 -34.5q150 0 261 71.5t200 215.5l41 -31q-94 -184 -232 -261t-331 -77z" />
    <glyph glyph-name="D" unicode="D" horiz-adv-x="1464" 
d="M217 0v1106q0 51 -5.5 85t-20 63t-43.5 43t-74 14h-41v41h536q397 0 601 -176.5t204 -491.5q0 -151 -48 -275.5t-140.5 -216t-236.5 -142t-326 -50.5h-406zM616 72q232 0 383.5 165.5t151.5 438.5q0 178 -69.5 316t-192 213t-277.5 75q-98 0 -204 -33v-1149
q116 -26 208 -26z" />
    <glyph glyph-name="E" unicode="E" horiz-adv-x="1208" 
d="M217 0v1106q0 51 -5.5 85t-20 63t-43.5 43t-74 14h-41v41h872q174 0 174 -164v-154h-41q0 236 -256 236h-381v-533h553v-82h-553v-573h359q140 0 220.5 51.5t127.5 173.5l41 -10l-72 -195q-37 -102 -153 -102h-707z" />
    <glyph glyph-name="F" unicode="F" horiz-adv-x="1079" 
d="M217 0v1106q0 51 -5.5 85t-20 63t-43.5 43t-74 14h-41v41h817q174 0 174 -164v-154h-41q0 236 -256 236h-326v-543h463v-82h-463v-645h-184z" />
    <glyph glyph-name="G" unicode="G" horiz-adv-x="1474" 
d="M786 -41q-151 0 -281.5 57.5t-221 157t-142 235t-51.5 287.5q0 145 45 272.5t126 221.5t201 148.5t263 54.5q177 0 305 -46t187 -118q24 -29 36 -83t13.5 -91.5t1.5 -102.5h-41q-77 359 -441 359q-102 0 -185 -35t-139 -93.5t-94.5 -138.5t-55.5 -167t-17 -181
q0 -144 25.5 -257.5t69.5 -187t107.5 -121.5t134.5 -68.5t154 -20.5q184 0 318 72v356q0 39 5.5 69t25.5 64t55 56t99 36.5t153 14.5v-41q-93 0 -123.5 -47t-30.5 -148v-385q-211 -129 -502 -129z" />
    <glyph glyph-name="H" unicode="H" horiz-adv-x="1419" 
d="M217 0v1106q0 51 -5.5 85t-20 63t-43.5 43t-74 14h-41v41h184q75 0 112.5 -19t54.5 -71t17 -156v-369h615v615h184v-1106q0 -51 5.5 -85t20 -63t43.5 -43t74 -14h41v-41h-184q-75 0 -112.5 19t-54.5 71t-17 156v409h-615v-655h-184z" />
    <glyph glyph-name="I" unicode="I" horiz-adv-x="583" 
d="M367 0q-75 0 -112.5 19t-55 71t-17.5 156v1106h185v-1106q0 -51 5.5 -85t20 -63t43.5 -43t74 -14h41v-41h-184z" />
    <glyph glyph-name="J" unicode="J" horiz-adv-x="534" 
d="M-18 -281v41q97 0 145.5 104.5t48.5 295.5v1192h184v-1192q0 -120 -17.5 -199.5t-60.5 -135.5t-116 -81t-184 -25z" />
    <glyph glyph-name="K" unicode="K" horiz-adv-x="1386" 
d="M1272 -20q-98 0 -202 52t-239 193l-430 451v-676h-184v1106q0 51 -5.5 85t-20 63t-43.5 43t-74 14h-41v41h184q75 0 112.5 -19t54.5 -71t17 -156v-399l430 430q12 12 49 50t52 52.5t49 42t59.5 39t62.5 21.5t77 10h102v-52q-87 0 -150.5 -30t-146.5 -113l-399 -399
l471 -492q90 -93 182 -155t166 -72v-39q-62 -20 -133 -20z" />
    <glyph glyph-name="L" unicode="L" horiz-adv-x="1142" 
d="M217 0v1106q0 51 -5.5 85t-20 63t-43.5 43t-74 14h-41v41h184q75 0 112.5 -19t54.5 -71t17 -156v-1024h727v-82h-911z" />
    <glyph glyph-name="M" unicode="M" horiz-adv-x="1751" 
d="M1722 -92q-111 0 -184.5 25t-116.5 81t-60.5 135.5t-17.5 198.5v789l-512 -1137h-40l-533 1157v-1157h-82v1352h195l491 -1065l481 1065h185v-1004q0 -191 48.5 -295t145.5 -104v-41z" />
    <glyph glyph-name="N" unicode="N" horiz-adv-x="1402" 
d="M1188 -20l-881 1095v-1075h-82v1106q0 99 -42 152t-142 53h-21v41h134q95 0 160.5 -31t115.5 -92l717 -891v1014h82v-1372h-41z" />
    <glyph glyph-name="O" unicode="O" horiz-adv-x="1458" 
d="M729 -41q-190 0 -336 96t-222.5 258t-76.5 363t76.5 363t222.5 258t336 96t336 -96t222.5 -258t76.5 -363t-76.5 -363t-222.5 -258t-336 -96zM729 41q200 0 315 171t115 464t-115 464t-315 171t-315 -171t-115 -464t115 -464t315 -171z" />
    <glyph glyph-name="P" unicode="P" horiz-adv-x="1130" 
d="M217 0v1106q0 51 -5.5 85t-20 63t-43.5 43t-74 14h-41v41h532q43 0 83.5 -3t93.5 -14t98 -28t90 -48.5t76.5 -73.5t51 -104.5t19.5 -138.5q0 -72 -19.5 -131.5t-50 -99t-72.5 -69.5t-83 -46.5t-86.5 -26.5t-77.5 -13t-61 -3h-226v-553h-184zM401 625h154q36 0 76.5 10
t84 34.5t77.5 60.5t56.5 94t22.5 128q0 87 -33 154t-84 103t-102 53.5t-98 17.5q-72 0 -154 -20v-635z" />
    <glyph glyph-name="Q" unicode="Q" horiz-adv-x="1462" 
d="M1386 -420q-244 0 -452.5 92.5t-386.5 313.5q-209 61 -330 249t-121 441q0 201 76.5 363t222.5 258t336 96t336 -96t222.5 -258t76.5 -363q0 -258 -125.5 -447t-341.5 -247q48 -148 198.5 -254.5t288.5 -106.5v-41zM731 41q200 0 315 171t115 464t-115 464t-315 171
t-315 -171t-115 -464t115 -464t315 -171z" />
    <glyph glyph-name="R" unicode="R" horiz-adv-x="1218" 
d="M1116 -20q-107 0 -187 64.5t-179 231.5l-205 349h-144v-625h-184v1106q0 51 -5.5 85t-20 63t-43.5 43t-74 14h-41v41h532q42 0 83 -3t93.5 -13t97.5 -26t90 -44t77 -65.5t51.5 -93t19.5 -122.5q0 -68 -20 -123.5t-51 -91.5t-76 -64.5t-87 -43.5t-93 -27l215 -359
q76 -127 136.5 -177t139.5 -58v-41q-46 -20 -125 -20zM401 696h148q38 0 80 9.5t86 32.5t78.5 55.5t56.5 83t22 110.5q0 75 -33 134t-84.5 92t-104.5 50t-101 17q-66 0 -148 -20v-564z" />
    <glyph glyph-name="S" unicode="S" horiz-adv-x="1091" 
d="M578 -35q-113 0 -218.5 29.5t-177 88t-71.5 132.5v219h36q35 -204 135.5 -295.5t276.5 -91.5q111 0 189.5 55.5t78.5 153.5q0 87 -53 150t-172 133l-252 149q-131 78 -185 157.5t-54 194.5q0 158 109 253.5t288 95.5q105 0 204.5 -28t168.5 -86t69 -132v-219h-37
q-35 204 -132 293.5t-273 89.5q-95 0 -166.5 -57.5t-71.5 -149.5q0 -84 52 -140t176 -129l252 -149q93 -55 145 -100.5t80.5 -103.5t28.5 -134q0 -172 -115 -275.5t-311 -103.5z" />
    <glyph glyph-name="T" unicode="T" horiz-adv-x="1193" 
d="M524 0v1270h-184q-256 0 -256 -236h-41v154q0 164 174 164h952v-82h-460v-1270h-185z" />
    <glyph glyph-name="U" unicode="U" horiz-adv-x="1406" 
d="M725 -20q-148 0 -249.5 37t-161.5 115.5t-85.5 187.5t-25.5 264v522q0 51 -5.5 85t-20 63t-44 43t-74.5 14h-41v41h185q75 0 112.5 -19t54.5 -71t17 -156v-584q0 -226 84 -343.5t279 -117.5q230 0 322.5 123t92.5 400v768h82v-768q0 -126 -14 -217.5t-49 -167.5
t-94 -122.5t-149.5 -71.5t-215.5 -25z" />
    <glyph glyph-name="V" unicode="V" horiz-adv-x="1310" 
d="M641 -20l-475 1132q-51 119 -96 163.5t-129 51.5v41q4 0 31.5 2t37.5 2q248 0 357 -260l350 -825l450 1065h99l-588 -1372h-37z" />
    <glyph glyph-name="W" unicode="W" horiz-adv-x="1773" 
d="M557 -20l-397 1132q-42 118 -88.5 163t-137.5 52v41q4 0 32 2t38 2q40 0 72.5 -4t75.5 -19.5t76.5 -42t67.5 -76.5t58 -118l275 -790l219 649l-49 141q-42 118 -88.5 163t-137.5 52v41q4 0 32 2t38 2q40 0 72.5 -4t75.5 -19.5t76.5 -42t67.5 -76.5t58 -118l275 -790
l350 1030h88l-469 -1372h-41l-303 862l-295 -862h-41z" />
    <glyph glyph-name="X" unicode="X" horiz-adv-x="1366" 
d="M84 0l512 666l-287 419q-23 34 -31 45t-31.5 41.5t-38 43t-42 34.5t-52 31.5t-59.5 19t-73 11.5v41h245q33 0 62.5 -8.5t57.5 -28.5t47 -36.5t45.5 -50t37.5 -49t37 -53.5l205 -307l409 533h103l-461 -604l328 -482q65 -95 136.5 -156.5t160.5 -68.5v-41h-215
q-47 0 -90 19.5t-79.5 55.5t-62 69.5t-55.5 80.5l-246 369l-461 -594h-102z" />
    <glyph glyph-name="Y" unicode="Y" horiz-adv-x="1286" 
d="M594 0v559l-348 526q-32 46 -50 70t-48.5 57.5t-56.5 50.5t-63 31t-79 17v41h184q54 0 101 -18t84.5 -53.5t64 -70t57.5 -84.5l297 -460l428 686h92l-479 -779v-573h-184z" />
    <glyph glyph-name="Z" unicode="Z" horiz-adv-x="1210" 
d="M49 0v41l850 1229h-491q-256 0 -256 -236h-41v154q0 164 174 164h891l-871 -1270h840v-82h-1096z" />
    <glyph glyph-name="bracketleft" unicode="[" horiz-adv-x="647" 
d="M154 -410v1803h440v-82h-277v-1639h277v-82h-440z" />
    <glyph glyph-name="backslash" unicode="\" horiz-adv-x="901" 
d="M705 0l-658 1352h150l657 -1352h-149z" />
    <glyph glyph-name="bracketright" unicode="]" horiz-adv-x="647" 
d="M53 -410v82h277v1639h-277v82h441v-1803h-441z" />
    <glyph glyph-name="asciicircum" unicode="^" horiz-adv-x="1003" 
d="M41 676l440 717h41l441 -717h-138l-323 526l-324 -526h-137z" />
    <glyph glyph-name="underscore" unicode="_" horiz-adv-x="884" 
d="M33 -123v123h819v-123h-819z" />
    <glyph glyph-name="grave" unicode="`" horiz-adv-x="409" 
d="M266 983l-225 410h205l123 -410h-103z" />
    <glyph glyph-name="a" unicode="a" horiz-adv-x="985" 
d="M377 -20q-37 0 -74.5 8t-78.5 29t-72 52t-51.5 82t-20.5 115q0 81 41.5 138.5t117 89t164.5 45.5t199 14h62q0 104 -15.5 175t-46.5 107.5t-67 51t-86 14.5q-92 0 -148 -39.5t-78 -134.5h-92q0 47 1.5 71t13.5 56.5t36 56.5q36 36 121 54t186 18q61 0 109 -9t97 -36.5
t81 -73.5t52 -125t20 -186v-553h-103l-71 92h-10q-37 -46 -109 -79t-178 -33zM469 72q68 0 113 33t82 90v276h-62q-152 0 -240 -56t-88 -149q0 -94 56 -144t139 -50z" />
    <glyph glyph-name="b" unicode="b" horiz-adv-x="1071" 
d="M608 -20q-186 0 -276 112h-10l-72 -92h-103v1106q0 51 -5.5 85t-20 63t-43.5 43t-74 14h-41v41h184q75 0 112.5 -19t55 -71t17.5 -156v-184q124 61 256 61q97 0 172.5 -39.5t122 -108.5t70.5 -159t24 -195q0 -141 -40.5 -252.5t-125.5 -180t-203 -68.5zM547 61
q117 0 176 116t59 304q0 123 -25 214.5t-83.5 148.5t-147.5 57q-70 0 -194 -61v-656q80 -123 215 -123z" />
    <glyph glyph-name="c" unicode="c" horiz-adv-x="989" 
d="M543 -20q-111 0 -198.5 39t-142 108t-82.5 159t-28 195t28 195t82.5 159t142 108.5t198.5 39.5q225 0 297 -72q35 -35 43 -85t8 -181h-41q-7 126 -79.5 191t-186.5 65q-147 0 -222 -116.5t-75 -303.5t75 -303.5t222 -116.5q104 0 171.5 40.5t125.5 123.5l41 -30
q-67 -114 -159.5 -164.5t-219.5 -50.5z" />
    <glyph glyph-name="d" unicode="d" horiz-adv-x="1073" 
d="M465 -20q-120 0 -205 68.5t-124.5 179.5t-39.5 253q0 105 24 195t70.5 159t122 108.5t172.5 39.5q132 0 256 -61v184q0 51 -5.5 85t-20 63t-43.5 43t-74 14h-41v41h184q75 0 112.5 -19t55 -71t17.5 -156v-1106h-103l-71 92h-11q-29 -32 -55.5 -53t-85 -40t-135.5 -19z
M526 61q45 0 79 9.5t60 30.5t39.5 36.5t36.5 46.5v656q-124 61 -194 61q-89 0 -147.5 -57t-83.5 -148.5t-25 -214.5q0 -188 59 -304t176 -116z" />
    <glyph glyph-name="e" unicode="e" horiz-adv-x="999" 
d="M522 -20q-139 0 -238 68.5t-145.5 180t-46.5 252.5q0 139 48.5 252t143 181.5t218.5 68.5q206 0 307.5 -115.5t101.5 -335.5l-4 -81h-620q0 -173 74 -281.5t202 -108.5q96 0 163 41t124 123l41 -30q-67 -114 -157.5 -164.5t-211.5 -50.5zM287 532h430q0 369 -215 369
q-92 0 -153.5 -105t-61.5 -264z" />
    <glyph glyph-name="f" unicode="f" horiz-adv-x="690" 
d="M186 0v881h-143v82h143v61q0 348 359 348q126 0 174 -31q35 -26 72 -92l-62 -51q-62 92 -194 92q-164 0 -164 -266v-61h286v-82h-286v-881h-185z" />
    <glyph glyph-name="g" unicode="g" horiz-adv-x="1007" 
d="M504 -410q-99 0 -178 17t-142 53t-97 99t-34 149q0 95 63.5 164t162.5 102q-82 46 -82 123q0 29 13 53t24 33.5t34 26.5q-66 33 -109.5 102.5t-43.5 163.5q0 307 389 307h379v-51l-133 -21q62 -38 102.5 -99.5t40.5 -135.5q0 -307 -389 -307q-215 0 -215 -72t215 -72
q95 0 174.5 -18.5t142 -56t98 -99.5t35.5 -143q0 -86 -34 -149t-96.5 -99t-141.5 -53t-178 -17zM504 440q92 0 148.5 56.5t56.5 179.5q0 117 -56.5 176t-148.5 59t-148.5 -56t-56.5 -179t56.5 -179.5t148.5 -56.5zM504 -328q123 0 194.5 59t71.5 177q0 205 -246 235l-112 11
q-174 -69 -174 -246q0 -118 71.5 -177t194.5 -59z" />
    <glyph glyph-name="h" unicode="h" horiz-adv-x="1083" 
d="M147 0v1106q0 51 -5.5 85t-20 63t-43.5 43t-74 14h-41v41h184q75 0 112.5 -19t55 -71t17.5 -156v-225q43 43 112 72.5t154 29.5q56 0 103.5 -9.5t94 -35t78.5 -66t52 -106.5t20 -152v-614h-184v614q0 143 -65 210t-160 67q-107 0 -205 -109v-782h-185z" />
    <glyph glyph-name="i" unicode="i" horiz-adv-x="503" 
d="M256 1085q-47 0 -81 39t-34 93q0 42 26 67t69 25q47 0 80.5 -38.5t33.5 -92.5q0 -43 -25.5 -68t-68.5 -25zM178 0v717q0 51 -5.5 85t-20 63t-43.5 43t-74 14h-41v41h184q75 0 112.5 -19t54.5 -71t17 -156v-717h-184z" />
    <glyph glyph-name="j" unicode="j" horiz-adv-x="503" 
d="M256 1085q-47 0 -81 39t-34 93q0 42 26 67t69 25q47 0 80.5 -38.5t33.5 -92.5q0 -43 -25.5 -68t-68.5 -25zM-16 -389v41q97 0 145.5 104t48.5 295v666q0 51 -5.5 85t-20 63t-43.5 43t-74 14h-41v41h184q75 0 112.5 -19t54.5 -71t17 -156v-666q0 -95 -11 -164t-36.5 -123
t-69 -87t-108 -49.5t-153.5 -16.5z" />
    <glyph glyph-name="k" unicode="k" horiz-adv-x="993" 
d="M874 -20q-174 0 -296 163l-246 328v-471h-185v1106q0 51 -5.5 85t-20 63t-43.5 43t-74 14h-41v41h184q75 0 112.5 -19t55 -71t17.5 -156v-604l256 327q52 67 112.5 100.5t153.5 33.5h61v-52q-120 0 -194 -92l-225 -287l256 -327q61 -79 112.5 -117.5t112.5 -48.5v-39
q-46 -20 -103 -20z" />
    <glyph glyph-name="l" unicode="l" horiz-adv-x="495" 
d="M156 0v1106q0 51 -5.5 85t-20 63t-44 43t-74.5 14h-41v41h185q75 0 112.5 -19t54.5 -71t17 -156v-1106h-184z" />
    <glyph glyph-name="m" unicode="m" horiz-adv-x="1607" 
d="M178 0v717q0 51 -5.5 85t-20 63t-43.5 43t-74 14h-41v41h184q137 0 174 -82h10q43 43 112.5 72.5t154.5 29.5q87 0 148 -31.5t97 -111.5q53 68 136.5 105.5t171.5 37.5q62 0 110.5 -16.5t89.5 -56t63.5 -114.5t22.5 -182v-614h-184v614q0 148 -41.5 212.5t-122.5 64.5
q-57 0 -120 -41.5t-95 -91.5q10 -31 10 -144v-614h-184v614q0 148 -41.5 212.5t-122.5 64.5q-107 0 -205 -109v-782h-184z" />
    <glyph glyph-name="n" unicode="n" horiz-adv-x="1114" 
d="M178 0v717q0 51 -5.5 85t-20 63t-43.5 43t-74 14h-41v41h184q137 0 174 -82q125 102 277 102q56 0 103.5 -9.5t94 -35t78.5 -66t52 -106.5t20 -152v-614h-184v614q0 74 -19 129.5t-52 86.5t-71.5 46t-83.5 15q-107 0 -205 -109v-782h-184z" />
    <glyph glyph-name="o" unicode="o" horiz-adv-x="1085" 
d="M543 -20q-139 0 -243 68t-156 180.5t-52 252.5t52 252.5t156 181t243 68.5t243 -68.5t155.5 -181t51.5 -252.5q0 -104 -30.5 -195t-86.5 -159t-142 -107.5t-191 -39.5zM543 61q114 0 185 120t71 300t-71 300t-185 120t-185 -120t-71 -300t71 -300t185 -120z" />
    <glyph glyph-name="p" unicode="p" horiz-adv-x="1101" 
d="M178 -389v1106q0 51 -5.5 85t-20 63t-43.5 43t-74 14h-41v41h184q76 0 116 -22.5t58 -70.5q113 113 287 113q118 0 203 -68.5t125.5 -180.5t40.5 -253q0 -105 -24 -195t-71 -159t-122.5 -108t-172.5 -39q-132 0 -256 61v-430h-184zM557 61q89 0 147.5 57t83.5 148.5
t25 214.5q0 188 -59 304t-176 116q-137 0 -216 -123v-655q126 -62 195 -62z" />
    <glyph glyph-name="q" unicode="q" horiz-adv-x="1073" 
d="M741 -389v430q-124 -61 -256 -61q-97 0 -172.5 39t-122 108t-70.5 159t-24 195q0 142 39.5 253t124.5 180t205 69q185 0 276 -113h11l71 93h103v-1352h-185zM547 61q68 0 194 62v655q-20 27 -37 45.5t-43 38t-60 29.5t-75 10q-117 0 -176 -116t-59 -304q0 -123 25 -214.5
t83.5 -148.5t147.5 -57z" />
    <glyph glyph-name="r" unicode="r" horiz-adv-x="813" 
d="M164 0v717q0 51 -5.5 85t-20 63t-44 43t-74.5 14h-20v41h164q76 0 116 -22.5t58 -70.5q113 113 256 113q81 0 123 -31q33 -25 71 -92l-81 -61q-46 61 -164 61q-61 0 -112.5 -27t-82.5 -75v-62v-696h-184z" />
    <glyph glyph-name="s" unicode="s" horiz-adv-x="913" 
d="M469 -20q-236 0 -317 81q-35 35 -43.5 79t-8.5 136h41q37 -215 287 -215q112 0 168.5 39.5t56.5 104.5q0 60 -44 102t-140 82l-123 51q-123 50 -184.5 115.5t-61.5 161.5q0 126 93.5 196t244.5 70q225 0 307 -82q35 -35 43.5 -79t8.5 -136h-41q-18 102 -87.5 158.5
t-189.5 56.5q-97 0 -151 -40t-54 -103q0 -106 164 -174l123 -52q139 -57 202.5 -121t63.5 -165q0 -126 -99.5 -196t-258.5 -70z" />
    <glyph glyph-name="t" unicode="t" horiz-adv-x="692" 
d="M432 -20q-114 0 -180 66t-66 200v635h-143v82h143v184l103 123h82v-307h245v-82h-245v-635q0 -185 143 -185q81 0 154 41l20 -41q-29 -22 -54.5 -36.5t-80.5 -29.5t-121 -15z" />
    <glyph glyph-name="u" unicode="u" horiz-adv-x="1095" 
d="M498 -20q-348 0 -348 368v369q0 51 -5.5 85t-20 63t-44 43t-74.5 14h-20v41h164q75 0 112.5 -19t54.5 -71t17 -156v-369q0 -74 19 -129t51.5 -86t71 -46t83.5 -15q108 0 205 108v783h184v-963h-102l-72 82h-10q-43 -43 -112 -72.5t-154 -29.5z" />
    <glyph glyph-name="v" unicode="v" horiz-adv-x="1017" 
d="M520 -20l-317 747q-50 116 -95 161.5t-118 49.5v41q4 0 31.5 2t37.5 2q51 0 95 -10.5t91 -37t88.5 -79t74.5 -129.5l184 -440l287 676h102l-420 -983h-41z" />
    <glyph glyph-name="w" unicode="w" horiz-adv-x="1533" 
d="M502 -20l-297 747q-47 115 -93.5 160.5t-121.5 50.5v41q4 0 32.5 2t38.5 2q111 0 196 -56.5t142 -199.5l174 -430l175 440q-48 108 -92.5 152.5t-112.5 48.5v41q4 0 32.5 2t38.5 2q111 0 196 -56.5t142 -199.5l174 -430l267 666h102l-399 -983h-41l-256 634l-256 -634
h-41z" />
    <glyph glyph-name="x" unicode="x" horiz-adv-x="999" 
d="M78 0l328 461l-179 297q-87 149 -211 164v41h174q135 0 232 -164l127 -215l266 379h103l-328 -461l178 -297q85 -149 221 -164v-41h-184q-135 0 -232 164l-127 215l-266 -379h-102z" />
    <glyph glyph-name="y" unicode="y" horiz-adv-x="1052" 
d="M215 -410v62q101 0 165.5 45.5t111.5 169.5l40 113l-327 798q-58 148 -225 164v41h174q177 0 245 -164l234 -567l258 711h102l-399 -1096q-59 -161 -131.5 -219t-186.5 -58h-61z" />
    <glyph glyph-name="z" unicode="z" horiz-adv-x="954" 
d="M90 0v39l533 842h-236q-128 0 -192 -48.5t-64 -136.5h-41v103q0 164 174 164h625l-553 -881h553v-82h-799z" />
    <glyph glyph-name="braceleft" unicode="{" horiz-adv-x="622" 
d="M565 -430q-179 43 -258.5 134t-79.5 235v286q0 206 -204 236v61q204 30 204 236v286q0 141 79.5 232t258.5 137v-61q-103 -31 -138.5 -80t-35.5 -146v-348q0 -121 -52 -188t-163 -98q111 -31 163 -98.5t52 -188.5v-348q0 -96 36.5 -147t137.5 -79v-61z" />
    <glyph glyph-name="bar" unicode="|" horiz-adv-x="491" 
d="M154 -389v1782h184v-1782h-184z" />
    <glyph glyph-name="braceright" unicode="}" horiz-adv-x="622" 
d="M57 -430v61q101 28 137.5 79t36.5 147v348q0 121 52 188.5t163 98.5q-111 31 -163 98t-52 188v348q0 97 -35.5 146t-138.5 80v61q179 -46 258.5 -137t79.5 -232v-286q0 -205 205 -236v-61q-205 -31 -205 -236v-286q0 -144 -79.5 -235t-258.5 -134z" />
    <glyph glyph-name="asciitilde" unicode="~" horiz-adv-x="1288" 
d="M922 369q-69 0 -150 25.5t-142 56t-133.5 56t-127.5 25.5q-76 0 -120 -40t-44 -103h-82q0 143 71.5 215t174.5 72q69 0 150 -25.5t142 -56.5t134 -56.5t127 -25.5q76 0 119.5 40t43.5 103h82q0 -143 -71.5 -214.5t-173.5 -71.5z" />
    <glyph glyph-name="uni00A0" unicode="&#xa0;" horiz-adv-x="512" 
 />
    <glyph glyph-name="exclamdown" unicode="&#xa1;" horiz-adv-x="450" 
d="M225 762q-44 0 -77 32t-33 76q0 47 32.5 80t77.5 33t78 -33t33 -80q0 -44 -33 -76t-78 -32zM129 -397l37 1034h119l37 -1034h-193z" />
    <glyph glyph-name="cent" unicode="&#xa2;" horiz-adv-x="989" 
d="M492 -102v82q-199 17 -304.5 155.5t-105.5 345.5q0 208 105.5 346.5t304.5 155.5v82h81v-82q184 0 256 -72q36 -36 44 -86.5t8 -179.5h-41q-7 126 -80 191t-187 65v-840q104 0 171.5 40.5t125.5 123.5l41 -30q-62 -104 -144.5 -155.5t-193.5 -59.5v-82h-81zM492 72v819
q-105 -33 -160.5 -142.5t-55.5 -267.5q0 -157 56 -269t160 -140z" />
    <glyph glyph-name="sterling" unicode="&#xa3;" horiz-adv-x="1081" 
d="M66 0v51q89 26 131.5 116.5t42.5 283.5v204h-144v82h144v205q0 107 20 186t52 125t80.5 73.5t96.5 36.5t109 9q101 0 186 -18t121 -54q24 -24 36 -56.5t13.5 -56.5t1.5 -71h-92q-22 95 -77.5 134.5t-147.5 39.5q-50 0 -86 -14.5t-67 -51t-46.5 -107.5t-15.5 -175v-205
h287v-82h-287v-204q0 -270 -113 -369h379q256 0 256 235h41v-153q0 -164 -174 -164h-747z" />
    <glyph glyph-name="currency" unicode="&#xa4;" horiz-adv-x="1179" 
d="M254 0v410h-123v82h123v102h-123v82h123v430q0 51 -5.5 85t-20 63t-43.5 43t-74 14h-41v41h532q83 0 155.5 -11.5t139 -38.5t114 -68.5t75.5 -105.5t28 -145q0 -86 -28 -153.5t-75.5 -111t-114 -72t-139 -40.5t-155.5 -12h-164v-102h533v-82h-533v-410h-184zM438 676h164
q137 5 222 80.5t85 226.5q0 146 -89.5 221.5t-227.5 75.5q-72 0 -154 -20v-584z" />
    <glyph glyph-name="yen" unicode="&#xa5;" horiz-adv-x="1406" 
d="M694 0v297h-194v82h194v82h-194v82h194l-348 542q-32 46 -50 70t-48.5 57.5t-56.5 50.5t-63 31t-79 17v41h184q54 0 101 -18t85 -53.5t64.5 -70t57.5 -84.5l297 -460l428 686h92l-479 -779v-30h194v-82h-194v-82h194v-82h-194v-297h-185z" />
    <glyph glyph-name="brokenbar" unicode="&#xa6;" horiz-adv-x="503" 
d="M160 676v717h184v-717h-184zM160 -389v717h184v-717h-184z" />
    <glyph glyph-name="section" unicode="&#xa7;" horiz-adv-x="884" 
d="M432 -410q-86 0 -157 22t-109 60q-35 35 -43 78.5t-8 136.5h41q17 -101 73.5 -158t141.5 -57q95 0 149.5 47.5t54.5 137.5q0 58 -26 106.5t-67.5 83.5t-92 67.5t-100.5 66.5t-91.5 71.5t-67.5 91t-26 117.5q0 215 215 297q-184 120 -184 307q0 153 89.5 230t228.5 77
q86 0 157 -22t109 -60q35 -35 43 -78.5t8 -136.5h-41q-17 101 -73.5 158t-141.5 57q-95 0 -150 -47t-55 -137q0 -58 26 -106.5t67.5 -83.5t91.5 -67.5t100.5 -66.5t92 -71.5t67.5 -91t26 -117.5q0 -115 -55 -186t-162 -111q187 -129 187 -307q0 -153 -89.5 -230.5
t-228.5 -77.5zM485 252q67 21 104.5 64.5t37.5 123.5q0 81 -58 145t-170 126q-67 -21 -104 -64.5t-37 -124.5t57.5 -144.5t169.5 -125.5z" />
    <glyph glyph-name="dieresis" unicode="&#xa8;" horiz-adv-x="634" 
d="M143 1413q-47 0 -74.5 28t-27.5 75t27.5 74.5t74.5 27.5t75 -27.5t28 -74.5t-28 -75t-75 -28zM492 1413q-47 0 -75 28t-28 75t28 74.5t75 27.5t74.5 -27.5t27.5 -74.5t-27.5 -75t-74.5 -28z" />
    <glyph glyph-name="copyright" unicode="&#xa9;" horiz-adv-x="1617" 
d="M809 -51q-155 0 -290.5 55t-231 150.5t-150.5 231t-55 290.5t55 290.5t150.5 231t231 150.5t290.5 55t290.5 -55t231 -150.5t150.5 -231t55 -290.5t-55 -290.5t-150.5 -231t-231 -150.5t-290.5 -55zM809 31q284 0 464.5 180.5t180.5 464.5t-180.5 464.5t-464.5 180.5
t-464.5 -180.5t-180.5 -464.5t180.5 -464.5t464.5 -180.5zM809 215q-185 0 -297.5 129.5t-112.5 325.5q0 200 121 340.5t289 140.5q105 0 186 -30.5t119 -76.5q16 -19 24.5 -55t9.5 -64t1 -81h-27q-48 254 -272 254q-68 0 -123.5 -22.5t-100.5 -70.5t-70.5 -133t-25.5 -202
q0 -62 11.5 -119.5t37 -109t62.5 -89.5t90.5 -60t118.5 -22q98 0 170 46.5t129 140.5l27 -21q-64 -120 -152 -170.5t-215 -50.5z" />
    <glyph glyph-name="ordfeminine" unicode="&#xaa;" horiz-adv-x="657" 
d="M266 811q-27 0 -51.5 5.5t-51.5 19.5t-43 44.5t-16 73.5q0 59 41.5 97.5t102.5 53.5t139 15h33q0 108 -30.5 147.5t-84.5 39.5q-50 0 -80 -20.5t-41 -72.5h-51q0 28 0.5 38t7 28t21.5 33q34 39 164 39q42 0 74 -9t62.5 -32t47 -71.5t16.5 -119.5v-299h-61l-39 51h-6
q-45 -61 -154 -61zM305 856q65 0 115 72v147h-33q-82 0 -129 -34t-47 -87q0 -98 94 -98z" />
    <glyph glyph-name="guillemotleft" unicode="&#xab;" horiz-adv-x="761" 
d="M389 61l-317 400l317 399h82l-195 -399l195 -400h-82zM563 164l-205 297l205 297h82l-123 -297l123 -297h-82z" />
    <glyph glyph-name="logicalnot" unicode="&#xac;" horiz-adv-x="1339" 
d="M1081 266v205h-942v123h1065v-328h-123z" />
    <glyph glyph-name="uni00AD" unicode="&#xad;" horiz-adv-x="792" 
d="M135 471v143h522v-143h-522z" />
    <glyph glyph-name="registered" unicode="&#xae;" horiz-adv-x="1617" 
d="M809 -51q-155 0 -290.5 55t-231 150.5t-150.5 231t-55 290.5t55 290.5t150.5 231t231 150.5t290.5 55t290.5 -55t231 -150.5t150.5 -231t55 -290.5t-55 -290.5t-150.5 -231t-231 -150.5t-290.5 -55zM809 31q284 0 464.5 180.5t180.5 464.5t-180.5 464.5t-464.5 180.5
t-464.5 -180.5t-180.5 -464.5t180.5 -464.5t464.5 -180.5zM1133 242q-64 0 -112.5 41t-115.5 149l-137 230h-98v-406h-119v715q0 68 -18 100.5t-74 32.5h-27v26h344q41 0 79 -4t86 -19t83 -40t59.5 -71t24.5 -107q0 -52 -19 -93t-51.5 -66t-67 -39t-73.5 -21l147 -238
q51 -81 88 -113t87 -38v-25q-20 -14 -86 -14zM770 707q30 0 63.5 11t66 32t54 60t21.5 87t-21 86.5t-54 59.5t-66.5 31.5t-63.5 10.5q-37 0 -100 -14v-350q63 -14 100 -14z" />
    <glyph glyph-name="macron" unicode="&#xaf;" horiz-adv-x="512" 
 />
    <glyph glyph-name="degree" unicode="&#xb0;" horiz-adv-x="843" 
d="M422 1393q-138 0 -233 -95t-95 -233t95 -233t233 -95t233 95t95 233t-95 233t-233 95zM422 1280q85 0 145 -62t60 -153t-60 -153t-145 -62t-145 62t-60 153t60 153t145 62z" />
    <glyph glyph-name="plusminus" unicode="&#xb1;" horiz-adv-x="1175" 
d="M117 123v123h409v368h-409v123h409v410h123v-410h410v-123h-410v-368h410v-123h-942z" />
    <glyph glyph-name="uni00B2" unicode="&#xb2;" horiz-adv-x="657" 
d="M125 772v47q19 19 55.5 54t51.5 50t43 43.5t39.5 41.5t31.5 37t27.5 37.5t19.5 34.5t16 38t7.5 37t3.5 41q0 68 -31 100.5t-82 32.5q-59 0 -97.5 -38t-51.5 -114h-25q0 92 23 123q27 32 75.5 53t102.5 21q34 0 63 -6.5t60.5 -24t50 -55t18.5 -92.5q0 -47 -15 -88
t-50 -82.5t-66.5 -72t-91 -84t-96.5 -89.5h186q59 0 88 21t29 69h25v-61q0 -74 -80 -74h-330z" />
    <glyph glyph-name="uni00B3" unicode="&#xb3;" horiz-adv-x="636" 
d="M309 752q-68 0 -113.5 24.5t-86.5 75.5l20 18q67 -73 172 -73q58 0 94.5 38.5t36.5 110.5q0 68 -36 102.5t-83 34.5q-61 0 -108 -12l-29 49l252 228h-172q-117 0 -117 -93h-18v62q0 76 80 76h309v-37l-262 -236q33 8 84 8q34 0 68 -9.5t66.5 -29t52.5 -57t20 -86.5
q0 -58 -24 -99.5t-63 -60.5t-73.5 -26.5t-69.5 -7.5z" />
    <glyph glyph-name="acute" unicode="&#xb4;" horiz-adv-x="358" 
d="M41 1434l82 266h194l-194 -266h-82z" />
    <glyph glyph-name="uni00B5" unicode="&#xb5;" horiz-adv-x="1083" 
d="M152 -389v1352h184v-482q0 -188 59 -304t176 -116q135 0 215 123v779h185v-963h-103l-71 92h-11q-24 -27 -38 -39.5t-44 -33.5t-67.5 -30t-85.5 -9q-123 0 -215 92v-461h-184z" />
    <glyph glyph-name="paragraph" unicode="&#xb6;" horiz-adv-x="1230" 
d="M528 -389v983q-206 0 -338.5 102t-132.5 277t132.5 277t338.5 102h615v-82h-113v-1659h-184v1659h-133v-1659h-185z" />
    <glyph glyph-name="periodcentered" unicode="&#xb7;" horiz-adv-x="471" 
d="M236 565q-45 0 -78 33t-33 80q0 44 33.5 77t77.5 33q47 0 78.5 -32.5t31.5 -77.5q0 -47 -32.5 -80t-77.5 -33z" />
    <glyph glyph-name="cedilla" unicode="&#xb8;" horiz-adv-x="368" 
d="M82 -401v84h102q82 0 82 65q0 68 -82 68h-92v184h92v-102q90 0 137.5 -38t47.5 -112q0 -70 -46 -109.5t-118 -39.5h-123z" />
    <glyph glyph-name="uni00B9" unicode="&#xb9;" horiz-adv-x="434" 
d="M184 772v506l-84 -49l-22 33l133 131h80v-621h-107z" />
    <glyph glyph-name="ordmasculine" unicode="&#xba;" horiz-adv-x="686" 
d="M342 1411q-119 0 -177.5 -87.5t-58.5 -242.5q0 -154 58.5 -241.5t177.5 -87.5t178.5 88t59.5 241q0 155 -59.5 242.5t-178.5 87.5zM342 1366q131 0 131 -285q0 -147 -32 -215.5t-99 -68.5q-129 0 -129 284q0 285 129 285z" />
    <glyph glyph-name="guillemotright" unicode="&#xbb;" horiz-adv-x="761" 
d="M291 61l194 400l-194 399h82l317 -399l-317 -400h-82zM117 164l123 297l-123 297h82l204 -297l-204 -297h-82z" />
    <glyph glyph-name="onequarter" unicode="&#xbc;" horiz-adv-x="1220" 
d="M217 772v506l-84 -49l-22 33l133 131h80v-621h-107zM59 0l932 1352h133l-931 -1352h-134zM942 0v160h-311v39l321 424h97v-418h84v-45h-84v-160h-107zM700 205h242v317z" />
    <glyph glyph-name="onehalf" unicode="&#xbd;" horiz-adv-x="1255" 
d="M217 772v506l-84 -49l-22 33l133 131h80v-621h-107zM59 0l932 1352h133l-931 -1352h-134zM743 0v47q19 19 55.5 54t51.5 50t43 43.5t39.5 41.5t31.5 37t27.5 37.5t19.5 34.5t16 38t7.5 37t3.5 41q0 68 -30.5 100.5t-81.5 32.5q-59 0 -98 -38t-52 -114h-24q0 33 0.5 48
t5.5 38t16 37q27 32 75.5 53t102.5 21q26 0 49.5 -3.5t51 -15t47 -30t32.5 -52t13 -77.5q0 -39 -12.5 -76t-31.5 -66t-53 -65t-63.5 -62.5t-77.5 -70t-82 -76.5h187q59 0 87.5 21t28.5 69h25v-61q0 -74 -80 -74h-330z" />
    <glyph glyph-name="threequarters" unicode="&#xbe;" horiz-adv-x="1257" 
d="M287 752q-68 0 -114 24.5t-87 75.5l20 18q67 -73 173 -73q58 0 94.5 38.5t36.5 110.5q0 68 -36 102.5t-83 34.5q-62 0 -109 -12l-28 49l252 228h-173q-58 0 -87 -22t-29 -71h-19v62q0 76 80 76h309v-37l-262 -236q33 8 84 8q34 0 68 -9.5t66.5 -29t52.5 -57t20 -86.5
q0 -58 -24 -99.5t-62.5 -60.5t-73 -26.5t-69.5 -7.5zM119 0l932 1352h133l-932 -1352h-133zM979 0v160h-311v39l321 424h96v-418h84v-45h-84v-160h-106zM737 205h242v317z" />
    <glyph glyph-name="questiondown" unicode="&#xbf;" horiz-adv-x="968" 
d="M530 762q-47 0 -79.5 32.5t-32.5 79.5q0 44 34 77.5t78 33.5q47 0 79 -33t32 -78q0 -47 -32 -79.5t-79 -32.5zM469 -434q-55 0 -106 8.5t-108.5 34.5t-99 67t-69 113t-27.5 166q0 70 23.5 132t60.5 108t82.5 88.5t91 82t83.5 79t62.5 89.5t26.5 105h82q-2 -78 -25.5 -146
t-57.5 -113t-73.5 -94.5t-73 -92.5t-55.5 -105t-22 -133q0 -147 76.5 -227t189.5 -80q126 0 218 90.5t122 257.5h41q0 -69 -1.5 -105t-13.5 -84t-36 -77q-58 -70 -165 -117t-226 -47z" />
    <glyph glyph-name="Agrave" unicode="&#xc0;" horiz-adv-x="1300" 
d="M608 1434l-194 266h194l82 -266h-82zM1274 -10q-33 0 -63.5 4.5t-73 21t-78 44t-72 78t-61.5 118.5l-52 133h-573l-164 -389h-92l573 1352h62l450 -1096q51 -118 96.5 -163t129.5 -52v-41q-38 -10 -82 -10zM332 471h502l-246 594z" />
    <glyph glyph-name="Aacute" unicode="&#xc1;" horiz-adv-x="1300" 
d="M618 1434l82 266h195l-195 -266h-82zM1274 -10q-33 0 -63.5 4.5t-73 21t-78 44t-72 78t-61.5 118.5l-52 133h-573l-164 -389h-92l573 1352h62l450 -1096q51 -118 96.5 -163t129.5 -52v-41q-38 -10 -82 -10zM332 471h502l-246 594z" />
    <glyph glyph-name="Acircumflex" unicode="&#xc2;" horiz-adv-x="1300" 
d="M373 1403l164 235h225l164 -235h-103l-174 164l-174 -164h-102zM1274 -10q-33 0 -63.5 4.5t-73 21t-78 44t-72 78t-61.5 118.5l-52 133h-573l-164 -389h-92l573 1352h62l450 -1096q51 -118 96.5 -163t129.5 -52v-41q-38 -10 -82 -10zM332 471h502l-246 594z" />
    <glyph glyph-name="Atilde" unicode="&#xc3;" horiz-adv-x="1300" 
d="M428 1434q0 106 30 150t93 44q45 0 110.5 -41t104.5 -41q22 0 41.5 28.5t19.5 53.5h62q0 -106 -30 -150t-93 -44q-44 0 -109 41t-106 41q-22 0 -42 -28.5t-20 -53.5h-61zM1274 -10q-33 0 -63.5 4.5t-73 21t-78 44t-72 78t-61.5 118.5l-52 133h-573l-164 -389h-92
l573 1352h62l450 -1096q51 -118 96.5 -163t129.5 -52v-41q-38 -10 -82 -10zM332 471h502l-246 594z" />
    <glyph glyph-name="Adieresis" unicode="&#xc4;" horiz-adv-x="1300" 
d="M475 1413q-47 0 -74.5 28t-27.5 75t27.5 74.5t74.5 27.5t75 -27.5t28 -74.5t-28 -75t-75 -28zM823 1413q-47 0 -74.5 28t-27.5 75t27.5 74.5t74.5 27.5t75 -27.5t28 -74.5t-28 -75t-75 -28zM1274 -10q-33 0 -63.5 4.5t-73 21t-78 44t-72 78t-61.5 118.5l-52 133h-573
l-164 -389h-92l573 1352h62l450 -1096q51 -118 96.5 -163t129.5 -52v-41q-38 -10 -82 -10zM332 471h502l-246 594z" />
    <glyph glyph-name="Aring" unicode="&#xc5;" horiz-adv-x="1302" 
d="M1274 -10q-33 0 -63.5 4.5t-73 21t-78 44t-72 78t-61.5 118.5l-52 133h-573l-164 -389h-92l543 1280q-113 51 -113 164q0 69 52.5 121.5t121.5 52.5t121.5 -52.5t52.5 -121.5q0 -113 -112 -164l419 -1024q51 -118 96.5 -163t129.5 -52v-41q-38 -10 -82 -10zM608 1352h82
q51 38 51 92q0 46 -26.5 74t-65.5 28t-65.5 -28t-26.5 -74q0 -54 51 -92zM332 471h502l-246 594z" />
    <glyph glyph-name="AE" unicode="&#xc6;" horiz-adv-x="1771" 
d="M-29 0l758 1352h739q174 0 174 -164v-154h-40q0 236 -256 236h-381v-533h553v-82h-553v-573h358q140 0 220.5 51.5t127.5 173.5l41 -10l-72 -195q-37 -102 -153 -102h-707v389h-491l-215 -389h-103zM340 471h440v789z" />
    <glyph glyph-name="Ccedilla" unicode="&#xc7;" horiz-adv-x="1361" 
d="M1288 297q-88 -174 -216.5 -252t-305.5 -86v-61q184 0 184 -150q0 -70 -46 -109.5t-118 -39.5h-122v84h102q82 0 82 65q0 68 -82 68h-92v145q-175 13 -309 108.5t-204.5 248t-70.5 337.5q0 151 50.5 288t135.5 235.5t202.5 156.5t246.5 58q163 0 287.5 -46.5
t183.5 -117.5q24 -29 36 -84.5t13.5 -98t1.5 -124.5h-41q-74 389 -420 389q-105 0 -190.5 -34.5t-154.5 -109t-107.5 -205t-38.5 -307.5q0 -94 17 -181t55.5 -166.5t94.5 -138.5t139 -93.5t185 -34.5q150 0 261 71.5t200 215.5z" />
    <glyph glyph-name="Egrave" unicode="&#xc8;" horiz-adv-x="1208" 
d="M596 1434l-195 266h195l82 -266h-82zM217 0v1106q0 51 -5.5 85t-20 63t-43.5 43t-74 14h-41v41h872q174 0 174 -164v-154h-41q0 236 -256 236h-381v-533h553v-82h-553v-573h359q140 0 220.5 51.5t127.5 173.5l41 -10l-72 -195q-37 -102 -153 -102h-707z" />
    <glyph glyph-name="Eacute" unicode="&#xc9;" horiz-adv-x="1208" 
d="M565 1434l82 266h195l-195 -266h-82zM217 0v1106q0 51 -5.5 85t-20 63t-43.5 43t-74 14h-41v41h872q174 0 174 -164v-154h-41q0 236 -256 236h-381v-533h553v-82h-553v-573h359q140 0 220.5 51.5t127.5 173.5l41 -10l-72 -195q-37 -102 -153 -102h-707z" />
    <glyph glyph-name="Ecircumflex" unicode="&#xca;" horiz-adv-x="1208" 
d="M340 1477l164 235h225l164 -235h-102l-175 163l-174 -163h-102zM217 0v1106q0 51 -5.5 85t-20 63t-43.5 43t-74 14h-41v41h872q174 0 174 -164v-154h-41q0 236 -256 236h-381v-533h553v-82h-553v-573h359q140 0 220.5 51.5t127.5 173.5l41 -10l-72 -195
q-37 -102 -153 -102h-707z" />
    <glyph glyph-name="Edieresis" unicode="&#xcb;" horiz-adv-x="1208" 
d="M459 1495q-38 0 -65 27t-27 65t27 65t65 27t65 -27t27 -65t-27 -65t-65 -27zM807 1495q-38 0 -65 27t-27 65t27 65t65 27t65 -27t27 -65t-27 -65t-65 -27zM217 0v1106q0 51 -5.5 85t-20 63t-43.5 43t-74 14h-41v41h872q174 0 174 -164v-154h-41q0 236 -256 236h-381v-533
h553v-82h-553v-573h359q140 0 220.5 51.5t127.5 173.5l41 -10l-72 -195q-37 -102 -153 -102h-707z" />
    <glyph glyph-name="Igrave" unicode="&#xcc;" horiz-adv-x="583" 
d="M256 1434l-195 266h195l82 -266h-82zM367 0q-75 0 -112.5 19t-55 71t-17.5 156v1106h185v-1106q0 -51 5.5 -85t20 -63t43.5 -43t74 -14h41v-41h-184z" />
    <glyph glyph-name="Iacute" unicode="&#xcd;" horiz-adv-x="583" 
d="M223 1434l82 266h195l-195 -266h-82zM367 0q-75 0 -112.5 19t-55 71t-17.5 156v1106h185v-1106q0 -51 5.5 -85t20 -63t43.5 -43t74 -14h41v-41h-184z" />
    <glyph glyph-name="Icircumflex" unicode="&#xce;" horiz-adv-x="583" 
d="M-2 1423l164 236h225l164 -236h-102l-175 164l-174 -164h-102zM367 0q-75 0 -112.5 19t-55 71t-17.5 156v1106h185v-1106q0 -51 5.5 -85t20 -63t43.5 -43t74 -14h41v-41h-184z" />
    <glyph glyph-name="Idieresis" unicode="&#xcf;" horiz-adv-x="583" 
d="M117 1464q-47 0 -75 28t-28 75t28 74.5t75 27.5t74.5 -27.5t27.5 -74.5t-27.5 -75t-74.5 -28zM432 1464q-47 0 -74.5 28t-27.5 75t27.5 74.5t74.5 27.5t75 -27.5t28 -74.5t-28 -75t-75 -28zM367 0q-75 0 -112.5 19t-55 71t-17.5 156v1106h185v-1106q0 -51 5.5 -85t20 -63
t43.5 -43t74 -14h41v-41h-184z" />
    <glyph glyph-name="Eth" unicode="&#xd0;" horiz-adv-x="1464" 
d="M217 0v635h-154v82h154v389q0 51 -5.5 85t-20 63t-43.5 43t-74 14h-41v41h536q397 0 601 -176.5t204 -491.5q0 -151 -48 -275.5t-140.5 -216t-236.5 -142t-326 -50.5h-406zM616 72q232 0 383.5 165.5t151.5 438.5q0 178 -69.5 316t-192 213t-277.5 75q-98 0 -204 -33
v-530h178v-82h-178v-537q116 -26 208 -26z" />
    <glyph glyph-name="Ntilde" unicode="&#xd1;" horiz-adv-x="1402" 
d="M485 1421q0 106 30 150.5t93 44.5q45 0 110.5 -41t104.5 -41q22 0 42 28.5t20 53.5h61q0 -106 -30 -150.5t-93 -44.5q-43 0 -109 41t-106 41q-22 0 -41.5 -28.5t-19.5 -53.5h-62zM1188 -20l-881 1095v-1075h-82v1106q0 99 -42 152t-142 53h-21v41h134q95 0 160.5 -31
t115.5 -92l717 -891v1014h82v-1372h-41z" />
    <glyph glyph-name="Ograve" unicode="&#xd2;" horiz-adv-x="1458" 
d="M698 1483l-194 266h194l82 -266h-82zM729 -41q-190 0 -336 96t-222.5 258t-76.5 363t76.5 363t222.5 258t336 96t336 -96t222.5 -258t76.5 -363t-76.5 -363t-222.5 -258t-336 -96zM729 41q200 0 315 171t115 464t-115 464t-315 171t-315 -171t-115 -464t115 -464
t315 -171z" />
    <glyph glyph-name="Oacute" unicode="&#xd3;" horiz-adv-x="1458" 
d="M686 1475l82 266h195l-195 -266h-82zM729 -41q-190 0 -336 96t-222.5 258t-76.5 363t76.5 363t222.5 258t336 96t336 -96t222.5 -258t76.5 -363t-76.5 -363t-222.5 -258t-336 -96zM729 41q200 0 315 171t115 464t-115 464t-315 171t-315 -171t-115 -464t115 -464
t315 -171z" />
    <glyph glyph-name="Ocircumflex" unicode="&#xd4;" horiz-adv-x="1458" 
d="M442 1475l164 235h225l164 -235h-102l-174 163l-174 -163h-103zM729 -41q-190 0 -336 96t-222.5 258t-76.5 363t76.5 363t222.5 258t336 96t336 -96t222.5 -258t76.5 -363t-76.5 -363t-222.5 -258t-336 -96zM729 41q200 0 315 171t115 464t-115 464t-315 171t-315 -171
t-115 -464t115 -464t315 -171z" />
    <glyph glyph-name="Otilde" unicode="&#xd5;" horiz-adv-x="1458" 
d="M496 1511q0 106 29.5 150.5t92.5 44.5q45 0 111 -41t105 -41q22 0 41.5 28.5t19.5 53.5h61q0 -106 -29.5 -150.5t-92.5 -44.5q-44 0 -110 41t-106 41q-22 0 -41.5 -28.5t-19.5 -53.5h-61zM729 -41q-190 0 -336 96t-222.5 258t-76.5 363t76.5 363t222.5 258t336 96
t336 -96t222.5 -258t76.5 -363t-76.5 -363t-222.5 -258t-336 -96zM729 41q200 0 315 171t115 464t-115 464t-315 171t-315 -171t-115 -464t115 -464t315 -171z" />
    <glyph glyph-name="Odieresis" unicode="&#xd6;" horiz-adv-x="1458" 
d="M588 1505q-38 0 -65 27t-27 65t27 65.5t65 27.5t65 -27.5t27 -65.5t-27 -65t-65 -27zM936 1505q-38 0 -65 27t-27 65t27 65.5t65 27.5t65 -27.5t27 -65.5t-27 -65t-65 -27zM729 -41q-190 0 -336 96t-222.5 258t-76.5 363t76.5 363t222.5 258t336 96t336 -96t222.5 -258
t76.5 -363t-76.5 -363t-222.5 -258t-336 -96zM729 41q200 0 315 171t115 464t-115 464t-315 171t-315 -171t-115 -464t115 -464t315 -171z" />
    <glyph glyph-name="multiply" unicode="&#xd7;" horiz-adv-x="960" 
d="M190 305l-86 88l289 289l-289 291l86 86l291 -291l289 291l86 -88l-289 -289l289 -291l-86 -86l-291 291z" />
    <glyph glyph-name="Oslash" unicode="&#xd8;" horiz-adv-x="1458" 
d="M258 -41l76 139q-116 98 -178 248t-62 330q0 201 76.5 363t222.5 258t336 96q148 0 275 -62l34 62h150l-74 -133q119 -99 184.5 -250t65.5 -334q0 -201 -76.5 -363t-222.5 -258t-336 -96q-158 0 -287 66l-34 -66h-150zM403 227l549 1010q-95 74 -223 74q-200 0 -315 -171
t-115 -464q0 -282 104 -449zM729 41q200 0 315 171t115 464q0 283 -112 459l-551 -1014q103 -80 233 -80z" />
    <glyph glyph-name="Ugrave" unicode="&#xd9;" horiz-adv-x="1406" 
d="M745 1393l-194 266h194l82 -266h-82zM725 -20q-148 0 -249.5 37t-161.5 115.5t-85.5 187.5t-25.5 264v522q0 51 -5.5 85t-20 63t-44 43t-74.5 14h-41v41h185q75 0 112.5 -19t54.5 -71t17 -156v-584q0 -226 84 -343.5t279 -117.5q230 0 322.5 123t92.5 400v768h82v-768
q0 -126 -14 -217.5t-49 -167.5t-94 -122.5t-149.5 -71.5t-215.5 -25z" />
    <glyph glyph-name="Uacute" unicode="&#xda;" horiz-adv-x="1406" 
d="M674 1393l82 266h194l-194 -266h-82zM725 -20q-148 0 -249.5 37t-161.5 115.5t-85.5 187.5t-25.5 264v522q0 51 -5.5 85t-20 63t-44 43t-74.5 14h-41v41h185q75 0 112.5 -19t54.5 -71t17 -156v-584q0 -226 84 -343.5t279 -117.5q230 0 322.5 123t92.5 400v768h82v-768
q0 -126 -14 -217.5t-49 -167.5t-94 -122.5t-149.5 -71.5t-215.5 -25z" />
    <glyph glyph-name="Ucircumflex" unicode="&#xdb;" horiz-adv-x="1406" 
d="M489 1374l164 236h226l163 -236h-102l-174 164l-174 -164h-103zM725 -20q-148 0 -249.5 37t-161.5 115.5t-85.5 187.5t-25.5 264v522q0 51 -5.5 85t-20 63t-44 43t-74.5 14h-41v41h185q75 0 112.5 -19t54.5 -71t17 -156v-584q0 -226 84 -343.5t279 -117.5
q230 0 322.5 123t92.5 400v768h82v-768q0 -126 -14 -217.5t-49 -167.5t-94 -122.5t-149.5 -71.5t-215.5 -25z" />
    <glyph glyph-name="Udieresis" unicode="&#xdc;" horiz-adv-x="1406" 
d="M586 1391q-38 0 -65 27t-27 65t27 65t65 27t65 -27t27 -65t-27 -65t-65 -27zM934 1391q-38 0 -65 27t-27 65t27 65t65 27t65 -27t27 -65t-27 -65t-65 -27zM725 -20q-148 0 -249.5 37t-161.5 115.5t-85.5 187.5t-25.5 264v522q0 51 -5.5 85t-20 63t-44 43t-74.5 14h-41v41
h185q75 0 112.5 -19t54.5 -71t17 -156v-584q0 -226 84 -343.5t279 -117.5q230 0 322.5 123t92.5 400v768h82v-768q0 -126 -14 -217.5t-49 -167.5t-94 -122.5t-149.5 -71.5t-215.5 -25z" />
    <glyph glyph-name="Yacute" unicode="&#xdd;" horiz-adv-x="1286" 
d="M645 1372l82 266h195l-195 -266h-82zM594 0v559l-348 526q-32 46 -50 70t-48.5 57.5t-56.5 50.5t-63 31t-79 17v41h184q54 0 101 -18t84.5 -53.5t64 -70t57.5 -84.5l297 -460l428 686h92l-479 -779v-573h-184z" />
    <glyph glyph-name="Thorn" unicode="&#xde;" horiz-adv-x="1095" 
d="M223 -61v1290q0 78 -32.5 110.5t-110.5 32.5h-41v41h184q106 0 145.5 -39t39.5 -145v-103q311 0 472.5 -121.5t161.5 -359.5t-161.5 -359.5t-472.5 -121.5v-225h-185zM408 246q221 0 325.5 106.5t104.5 292.5t-104.5 292.5t-325.5 106.5v-798z" />
    <glyph glyph-name="germandbls" unicode="&#xdf;" horiz-adv-x="1134" 
d="M782 -20q-79 0 -148.5 21.5t-107.5 59.5q-24 24 -36 56t-13.5 52.5t-1.5 55.5h41q8 -64 72 -114t153 -50q76 0 120 40.5t44 103.5q0 62 -43.5 112t-105 87t-123 77t-105 100t-43.5 136q0 53 17.5 95.5t43.5 69t57 54.5t57 51.5t43.5 59.5t17.5 79q0 79 -46.5 121.5
t-137.5 42.5q-105 0 -155 -59t-50 -207v-1024h-185v1024q0 84 21.5 146.5t57 100.5t88.5 61t108.5 31.5t124.5 8.5q167 0 257.5 -55.5t90.5 -149.5q0 -53 -17.5 -95.5t-43.5 -69t-57 -54.5t-57 -51.5t-43.5 -59.5t-17.5 -79q0 -62 43.5 -112t105 -87t123 -77t105 -100
t43.5 -136q0 -134 -80 -200t-217 -66z" />
    <glyph glyph-name="agrave" unicode="&#xe0;" horiz-adv-x="985" 
d="M449 1075l-195 266h195l81 -266h-81zM377 -20q-37 0 -74.5 8t-78.5 29t-72 52t-51.5 82t-20.5 115q0 81 41.5 138.5t117 89t164.5 45.5t199 14h62q0 104 -15.5 175t-46.5 107.5t-67 51t-86 14.5q-92 0 -148 -39.5t-78 -134.5h-92q0 47 1.5 71t13.5 56.5t36 56.5
q36 36 121 54t186 18q61 0 109 -9t97 -36.5t81 -73.5t52 -125t20 -186v-553h-103l-71 92h-10q-37 -46 -109 -79t-178 -33zM469 72q68 0 113 33t82 90v276h-62q-152 0 -240 -56t-88 -149q0 -94 56 -144t139 -50z" />
    <glyph glyph-name="aacute" unicode="&#xe1;" horiz-adv-x="985" 
d="M412 1075l82 266h194l-194 -266h-82zM377 -20q-37 0 -74.5 8t-78.5 29t-72 52t-51.5 82t-20.5 115q0 81 41.5 138.5t117 89t164.5 45.5t199 14h62q0 104 -15.5 175t-46.5 107.5t-67 51t-86 14.5q-92 0 -148 -39.5t-78 -134.5h-92q0 47 1.5 71t13.5 56.5t36 56.5
q36 36 121 54t186 18q61 0 109 -9t97 -36.5t81 -73.5t52 -125t20 -186v-553h-103l-71 92h-10q-37 -46 -109 -79t-178 -33zM469 72q68 0 113 33t82 90v276h-62q-152 0 -240 -56t-88 -149q0 -94 56 -144t139 -50z" />
    <glyph glyph-name="acircumflex" unicode="&#xe2;" horiz-adv-x="985" 
d="M215 1085l164 236h225l164 -236h-102l-174 164l-175 -164h-102zM377 -20q-37 0 -74.5 8t-78.5 29t-72 52t-51.5 82t-20.5 115q0 81 41.5 138.5t117 89t164.5 45.5t199 14h62q0 104 -15.5 175t-46.5 107.5t-67 51t-86 14.5q-92 0 -148 -39.5t-78 -134.5h-92q0 47 1.5 71
t13.5 56.5t36 56.5q36 36 121 54t186 18q61 0 109 -9t97 -36.5t81 -73.5t52 -125t20 -186v-553h-103l-71 92h-10q-37 -46 -109 -79t-178 -33zM469 72q68 0 113 33t82 90v276h-62q-152 0 -240 -56t-88 -149q0 -94 56 -144t139 -50z" />
    <glyph glyph-name="atilde" unicode="&#xe3;" horiz-adv-x="985" 
d="M252 1096q0 106 30 150t93 44q45 0 110.5 -41t104.5 -41q22 0 41.5 28.5t19.5 53.5h62q0 -106 -30 -150t-93 -44q-44 0 -109 41t-106 41q-22 0 -42 -28.5t-20 -53.5h-61zM377 -20q-37 0 -74.5 8t-78.5 29t-72 52t-51.5 82t-20.5 115q0 81 41.5 138.5t117 89t164.5 45.5
t199 14h62q0 104 -15.5 175t-46.5 107.5t-67 51t-86 14.5q-92 0 -148 -39.5t-78 -134.5h-92q0 47 1.5 71t13.5 56.5t36 56.5q36 36 121 54t186 18q61 0 109 -9t97 -36.5t81 -73.5t52 -125t20 -186v-553h-103l-71 92h-10q-37 -46 -109 -79t-178 -33zM469 72q68 0 113 33
t82 90v276h-62q-152 0 -240 -56t-88 -149q0 -94 56 -144t139 -50z" />
    <glyph glyph-name="adieresis" unicode="&#xe4;" horiz-adv-x="985" 
d="M315 1096q-38 0 -65 27t-27 65t27 65t65 27t65.5 -27t27.5 -65t-27.5 -65t-65.5 -27zM664 1096q-38 0 -65.5 27t-27.5 65t27.5 65t65.5 27t65 -27t27 -65t-27 -65t-65 -27zM377 -20q-37 0 -74.5 8t-78.5 29t-72 52t-51.5 82t-20.5 115q0 81 41.5 138.5t117 89t164.5 45.5
t199 14h62q0 104 -15.5 175t-46.5 107.5t-67 51t-86 14.5q-92 0 -148 -39.5t-78 -134.5h-92q0 47 1.5 71t13.5 56.5t36 56.5q36 36 121 54t186 18q61 0 109 -9t97 -36.5t81 -73.5t52 -125t20 -186v-553h-103l-71 92h-10q-37 -46 -109 -79t-178 -33zM469 72q68 0 113 33
t82 90v276h-62q-152 0 -240 -56t-88 -149q0 -94 56 -144t139 -50z" />
    <glyph glyph-name="aring" unicode="&#xe5;" horiz-adv-x="985" 
d="M479 1085q-69 0 -121.5 53t-52.5 122t52.5 121.5t121.5 52.5t121.5 -52.5t52.5 -121.5t-52.5 -122t-121.5 -53zM479 1157q39 0 65.5 28.5t26.5 74.5t-26.5 74t-65.5 28t-65.5 -28t-26.5 -74t26.5 -74.5t65.5 -28.5zM377 -20q-37 0 -74.5 8t-78.5 29t-72 52t-51.5 82
t-20.5 115q0 81 41.5 138.5t117 89t164.5 45.5t199 14h62q0 104 -15.5 175t-46.5 107.5t-67 51t-86 14.5q-92 0 -148 -39.5t-78 -134.5h-92q0 47 1.5 71t13.5 56.5t36 56.5q36 36 121 54t186 18q61 0 109 -9t97 -36.5t81 -73.5t52 -125t20 -186v-553h-103l-71 92h-10
q-37 -46 -109 -79t-178 -33zM469 72q68 0 113 33t82 90v276h-62q-152 0 -240 -56t-88 -149q0 -94 56 -144t139 -50z" />
    <glyph glyph-name="ae" unicode="&#xe6;" horiz-adv-x="1554" 
d="M408 -20q-46 0 -89.5 8t-87.5 28t-77 50.5t-53.5 79.5t-20.5 110q0 77 41.5 132.5t117 86t164.5 44t199 13.5h62q0 111 -15.5 186.5t-46.5 114t-67 53.5t-86 15q-92 0 -148 -39.5t-78 -134.5h-92q0 47 1.5 71t13.5 56.5t36 56.5q36 36 121 54t186 18q105 0 180 -51
t107 -133q32 81 106 132.5t171 51.5q206 0 307.5 -115.5t101.5 -335.5l-4 -81h-610q0 -173 74 -281.5t202 -108.5q96 0 163 41t124 123l41 -30q-67 -114 -157.5 -164.5t-211.5 -50.5q-239 0 -348 174q-46 -88 -122.5 -131t-204.5 -43zM848 532h430q0 173 -54 266t-161 93
q-92 0 -153.5 -102.5t-61.5 -256.5zM469 72q68 0 113 33t82 90v256h-62q-152 0 -240 -54t-88 -141q0 -88 56 -136t139 -48z" />
    <glyph glyph-name="ccedilla" unicode="&#xe7;" horiz-adv-x="989" 
d="M922 195q-120 -203 -347 -215v-82q90 0 137.5 -38t47.5 -112q0 -70 -46 -109.5t-118 -39.5h-123v84h102q82 0 82 65q0 68 -82 68h-92v166q-128 14 -217.5 85t-131.5 176.5t-42 237.5q0 105 28 195t82.5 159t142 108.5t198.5 39.5q225 0 297 -72q35 -35 43 -85t8 -181h-41
q-7 126 -79.5 191t-186.5 65q-147 0 -222 -116.5t-75 -303.5t75 -303.5t222 -116.5q104 0 171.5 40.5t125.5 123.5z" />
    <glyph glyph-name="egrave" unicode="&#xe8;" horiz-adv-x="999" 
d="M471 1075l-195 266h195l82 -266h-82zM522 -20q-139 0 -238 68.5t-145.5 180t-46.5 252.5q0 139 48.5 252t143 181.5t218.5 68.5q206 0 307.5 -115.5t101.5 -335.5l-4 -81h-620q0 -173 74 -281.5t202 -108.5q96 0 163 41t124 123l41 -30q-67 -114 -157.5 -164.5
t-211.5 -50.5zM287 532h430q0 369 -215 369q-92 0 -153.5 -105t-61.5 -264z" />
    <glyph glyph-name="eacute" unicode="&#xe9;" horiz-adv-x="999" 
d="M449 1073l81 266h195l-195 -266h-81zM522 -20q-139 0 -238 68.5t-145.5 180t-46.5 252.5q0 139 48.5 252t143 181.5t218.5 68.5q206 0 307.5 -115.5t101.5 -335.5l-4 -81h-620q0 -173 74 -281.5t202 -108.5q96 0 163 41t124 123l41 -30q-67 -114 -157.5 -164.5
t-211.5 -50.5zM287 532h430q0 369 -215 369q-92 0 -153.5 -105t-61.5 -264z" />
    <glyph glyph-name="ecircumflex" unicode="&#xea;" horiz-adv-x="999" 
d="M236 1085l163 236h226l163 -236h-102l-174 164l-174 -164h-102zM522 -20q-139 0 -238 68.5t-145.5 180t-46.5 252.5q0 139 48.5 252t143 181.5t218.5 68.5q206 0 307.5 -115.5t101.5 -335.5l-4 -81h-620q0 -173 74 -281.5t202 -108.5q96 0 163 41t124 123l41 -30
q-67 -114 -157.5 -164.5t-211.5 -50.5zM287 532h430q0 369 -215 369q-92 0 -153.5 -105t-61.5 -264z" />
    <glyph glyph-name="edieresis" unicode="&#xeb;" horiz-adv-x="999" 
d="M317 1116q-38 0 -65 27t-27 65t27 65t65 27t65.5 -27t27.5 -65t-27.5 -65t-65.5 -27zM666 1116q-38 0 -65.5 27t-27.5 65t27.5 65t65.5 27t65 -27t27 -65t-27 -65t-65 -27zM522 -20q-139 0 -238 68.5t-145.5 180t-46.5 252.5q0 139 48.5 252t143 181.5t218.5 68.5
q206 0 307.5 -115.5t101.5 -335.5l-4 -81h-620q0 -173 74 -281.5t202 -108.5q96 0 163 41t124 123l41 -30q-67 -114 -157.5 -164.5t-211.5 -50.5zM287 532h430q0 369 -215 369q-92 0 -153.5 -105t-61.5 -264z" />
    <glyph glyph-name="igrave" unicode="&#xec;" horiz-adv-x="503" 
d="M240 1075l-195 266h195l82 -266h-82zM178 0v717q0 51 -5.5 85t-20 63t-43.5 43t-74 14h-41v41h184q75 0 112.5 -19t54.5 -71t17 -156v-717h-184z" />
    <glyph glyph-name="iacute" unicode="&#xed;" horiz-adv-x="503" 
d="M190 1075l82 266h195l-195 -266h-82zM178 0v717q0 51 -5.5 85t-20 63t-43.5 43t-74 14h-41v41h184q75 0 112.5 -19t54.5 -71t17 -156v-717h-184z" />
    <glyph glyph-name="icircumflex" unicode="&#xee;" horiz-adv-x="503" 
d="M-23 1087l164 236h226l163 -236h-102l-174 164l-174 -164h-103zM178 0v717q0 51 -5.5 85t-20 63t-43.5 43t-74 14h-41v41h184q75 0 112.5 -19t54.5 -71t17 -156v-717h-184z" />
    <glyph glyph-name="idieresis" unicode="&#xef;" horiz-adv-x="503" 
d="M106 1106q-47 0 -80.5 38.5t-33.5 92.5q0 43 25.5 67.5t68.5 24.5q47 0 81 -38.5t34 -92.5q0 -42 -26 -67t-69 -25zM422 1106q-47 0 -81 38.5t-34 92.5q0 43 25.5 67.5t68.5 24.5q47 0 81 -38.5t34 -92.5q0 -43 -25.5 -67.5t-68.5 -24.5zM178 0v717q0 51 -5.5 85t-20 63
t-43.5 43t-74 14h-41v41h184q75 0 112.5 -19t54.5 -71t17 -156v-717h-184z" />
    <glyph glyph-name="eth" unicode="&#xf0;" horiz-adv-x="1099" 
d="M541 -20q-139 0 -243 68t-156 180.5t-52 252.5t52 252.5t156 181t243 68.5q87 0 157.5 -43t108.5 -121q-24 112 -57 190t-86 138l-82 -82l-62 61l82 82q-49 49 -99 70.5t-126 21.5q-58 0 -90 -12l-17 39q63 45 189 45q119 0 235 -82l72 82l61 -61l-71 -72
q112 -112 173.5 -286t61.5 -400q0 -264 -118.5 -418.5t-331.5 -154.5zM541 61q114 0 185 120t71 300t-71 300t-185 120t-185 -120t-71 -300t71 -300t185 -120z" />
    <glyph glyph-name="ntilde" unicode="&#xf1;" horiz-adv-x="1114" 
d="M346 1114q0 106 30 150.5t93 44.5q45 0 110.5 -41t104.5 -41q22 0 41.5 28.5t19.5 53.5h62q0 -106 -30 -150.5t-93 -44.5q-44 0 -109 41t-106 41q-22 0 -41.5 -28.5t-19.5 -53.5h-62zM178 0v717q0 51 -5.5 85t-20 63t-43.5 43t-74 14h-41v41h184q137 0 174 -82
q125 102 277 102q56 0 103.5 -9.5t94 -35t78.5 -66t52 -106.5t20 -152v-614h-184v614q0 74 -19 129.5t-52 86.5t-71.5 46t-83.5 15q-107 0 -205 -109v-782h-184z" />
    <glyph glyph-name="ograve" unicode="&#xf2;" horiz-adv-x="1085" 
d="M522 1075l-194 266h194l82 -266h-82zM543 -20q-139 0 -243 68t-156 180.5t-52 252.5t52 252.5t156 181t243 68.5t243 -68.5t155.5 -181t51.5 -252.5q0 -104 -30.5 -195t-86.5 -159t-142 -107.5t-191 -39.5zM543 61q114 0 185 120t71 300t-71 300t-185 120t-185 -120
t-71 -300t71 -300t185 -120z" />
    <glyph glyph-name="oacute" unicode="&#xf3;" horiz-adv-x="1085" 
d="M477 1073l82 266h195l-195 -266h-82zM543 -20q-139 0 -243 68t-156 180.5t-52 252.5t52 252.5t156 181t243 68.5t243 -68.5t155.5 -181t51.5 -252.5q0 -104 -30.5 -195t-86.5 -159t-142 -107.5t-191 -39.5zM543 61q114 0 185 120t71 300t-71 300t-185 120t-185 -120
t-71 -300t71 -300t185 -120z" />
    <glyph glyph-name="ocircumflex" unicode="&#xf4;" horiz-adv-x="1085" 
d="M268 1073l164 236h225l164 -236h-102l-174 164l-174 -164h-103zM543 -20q-139 0 -243 68t-156 180.5t-52 252.5t52 252.5t156 181t243 68.5t243 -68.5t155.5 -181t51.5 -252.5q0 -104 -30.5 -195t-86.5 -159t-142 -107.5t-191 -39.5zM543 61q114 0 185 120t71 300
t-71 300t-185 120t-185 -120t-71 -300t71 -300t185 -120z" />
    <glyph glyph-name="otilde" unicode="&#xf5;" horiz-adv-x="1085" 
d="M313 1096q0 106 30 150t93 44q45 0 110.5 -41t104.5 -41q22 0 42 28.5t20 53.5h61q0 -106 -30 -150t-93 -44q-43 0 -109 41t-106 41q-22 0 -41.5 -28.5t-19.5 -53.5h-62zM543 -20q-139 0 -243 68t-156 180.5t-52 252.5t52 252.5t156 181t243 68.5t243 -68.5t155.5 -181
t51.5 -252.5q0 -104 -30.5 -195t-86.5 -159t-142 -107.5t-191 -39.5zM543 61q114 0 185 120t71 300t-71 300t-185 120t-185 -120t-71 -300t71 -300t185 -120z" />
    <glyph glyph-name="odieresis" unicode="&#xf6;" horiz-adv-x="1085" 
d="M369 1096q-38 0 -65.5 27t-27.5 65t27.5 65t65.5 27t65 -27t27 -65t-27 -65t-65 -27zM717 1096q-38 0 -65 27t-27 65t27 65t65 27t65 -27t27 -65t-27 -65t-65 -27zM543 -20q-139 0 -243 68t-156 180.5t-52 252.5t52 252.5t156 181t243 68.5t243 -68.5t155.5 -181
t51.5 -252.5q0 -104 -30.5 -195t-86.5 -159t-142 -107.5t-191 -39.5zM543 61q114 0 185 120t71 300t-71 300t-185 120t-185 -120t-71 -300t71 -300t185 -120z" />
    <glyph glyph-name="divide" unicode="&#xf7;" horiz-adv-x="1155" 
d="M578 870q-38 0 -65.5 27.5t-27.5 65.5t27.5 65t65.5 27t65 -27t27 -65t-27 -65.5t-65 -27.5zM127 614v123h901v-123h-901zM578 297q-38 0 -65.5 27t-27.5 65t27.5 65t65.5 27t65 -27t27 -65t-27 -65t-65 -27z" />
    <glyph glyph-name="oslash" unicode="&#xf8;" horiz-adv-x="1085" 
d="M543 -20q-131 0 -234 61l-26 -41h-150l82 119q-123 141 -123 362q0 140 52 252.5t156 181t243 68.5q132 0 231 -61l29 41h149l-84 -121q125 -141 125 -361q0 -104 -30.5 -195t-86.5 -159t-142 -107.5t-191 -39.5zM319 268l383 549q-69 84 -159 84q-114 0 -185 -120
t-71 -300q0 -125 32 -213zM543 61q114 0 185 120t71 300q0 123 -33 213l-383 -549q66 -84 160 -84z" />
    <glyph glyph-name="ugrave" unicode="&#xf9;" horiz-adv-x="1095" 
d="M520 1024l-194 266h194l82 -266h-82zM498 -20q-348 0 -348 368v369q0 51 -5.5 85t-20 63t-44 43t-74.5 14h-20v41h164q75 0 112.5 -19t54.5 -71t17 -156v-369q0 -74 19 -129t51.5 -86t71 -46t83.5 -15q108 0 205 108v783h184v-963h-102l-72 82h-10q-43 -43 -112 -72.5
t-154 -29.5z" />
    <glyph glyph-name="uacute" unicode="&#xfa;" horiz-adv-x="1095" 
d="M492 1024l81 266h195l-195 -266h-81zM498 -20q-348 0 -348 368v369q0 51 -5.5 85t-20 63t-44 43t-74.5 14h-20v41h164q75 0 112.5 -19t54.5 -71t17 -156v-369q0 -74 19 -129t51.5 -86t71 -46t83.5 -15q108 0 205 108v783h184v-963h-102l-72 82h-10q-43 -43 -112 -72.5
t-154 -29.5z" />
    <glyph glyph-name="ucircumflex" unicode="&#xfb;" horiz-adv-x="1095" 
d="M252 1085l164 236h225l164 -236h-103l-174 164l-174 -164h-102zM498 -20q-348 0 -348 368v369q0 51 -5.5 85t-20 63t-44 43t-74.5 14h-20v41h164q75 0 112.5 -19t54.5 -71t17 -156v-369q0 -74 19 -129t51.5 -86t71 -46t83.5 -15q108 0 205 108v783h184v-963h-102l-72 82
h-10q-43 -43 -112 -72.5t-154 -29.5z" />
    <glyph glyph-name="udieresis" unicode="&#xfc;" horiz-adv-x="1095" 
d="M354 1065q-38 0 -65 27t-27 65t27 65t65 27t65 -27t27 -65t-27 -65t-65 -27zM702 1065q-38 0 -65 27t-27 65t27 65t65 27t65.5 -27t27.5 -65t-27.5 -65t-65.5 -27zM498 -20q-348 0 -348 368v369q0 51 -5.5 85t-20 63t-44 43t-74.5 14h-20v41h164q75 0 112.5 -19t54.5 -71
t17 -156v-369q0 -74 19 -129t51.5 -86t71 -46t83.5 -15q108 0 205 108v783h184v-963h-102l-72 82h-10q-43 -43 -112 -72.5t-154 -29.5z" />
    <glyph glyph-name="yacute" unicode="&#xfd;" horiz-adv-x="1052" 
d="M530 1024l82 266h195l-195 -266h-82zM215 -410v62q101 0 165.5 45.5t111.5 169.5l40 113l-327 798q-58 148 -225 164v41h174q177 0 245 -164l234 -567l258 711h102l-399 -1096q-59 -161 -131.5 -219t-186.5 -58h-61z" />
    <glyph glyph-name="thorn" unicode="&#xfe;" horiz-adv-x="1071" 
d="M147 -389v1495q0 51 -5.5 85t-20 63t-43.5 43t-74 14h-31v41h174q75 0 112.5 -19t55 -71t17.5 -156v-236q91 113 276 113q118 0 203 -68.5t125.5 -180.5t40.5 -253q0 -105 -24 -195t-70.5 -159t-122 -108t-172.5 -39q-132 0 -256 61v-430h-185zM526 61q89 0 147.5 57
t83.5 148.5t25 214.5q0 188 -59 304t-176 116q-136 0 -215 -123v-655q126 -62 194 -62z" />
    <glyph glyph-name="ydieresis" unicode="&#xff;" horiz-adv-x="1052" 
d="M420 1065q-38 0 -65 27t-27 65t27 65t65 27t65 -27t27 -65t-27 -65t-65 -27zM768 1065q-38 0 -65 27t-27 65t27 65t65 27t65 -27t27 -65t-27 -65t-65 -27zM215 -410v62q101 0 165.5 45.5t111.5 169.5l40 113l-327 798q-58 148 -225 164v41h174q177 0 245 -164l234 -567
l258 711h102l-399 -1096q-59 -161 -131.5 -219t-186.5 -58h-61z" />
    <glyph glyph-name="Gbreve" unicode="&#x11e;" horiz-adv-x="1474" 
d="M748 1495q-185 0 -267 184l41 31q74 -92 226 -92q151 0 225 92l41 -31q-82 -184 -266 -184zM786 -41q-151 0 -281.5 57.5t-221 157t-142 235t-51.5 287.5q0 145 45 272.5t126 221.5t201 148.5t263 54.5q177 0 305 -46t187 -118q24 -29 36 -83t13.5 -91.5t1.5 -102.5h-41
q-77 359 -441 359q-102 0 -185 -35t-139 -93.5t-94.5 -138.5t-55.5 -167t-17 -181q0 -144 25.5 -257.5t69.5 -187t107.5 -121.5t134.5 -68.5t154 -20.5q184 0 318 72v356q0 39 5.5 69t25.5 64t55 56t99 36.5t153 14.5v-41q-93 0 -123.5 -47t-30.5 -148v-385
q-211 -129 -502 -129z" />
    <glyph glyph-name="gbreve" unicode="&#x11f;" horiz-adv-x="1007" 
d="M504 1085q-184 0 -266 185l41 30q74 -92 225 -92t225 92l41 -30q-82 -185 -266 -185zM504 -410q-99 0 -178 17t-142 53t-97 99t-34 149q0 95 63.5 164t162.5 102q-82 46 -82 123q0 29 13 53t24 33.5t34 26.5q-66 33 -109.5 102.5t-43.5 163.5q0 307 389 307h379v-51
l-133 -21q62 -38 102.5 -99.5t40.5 -135.5q0 -307 -389 -307q-215 0 -215 -72t215 -72q95 0 174.5 -18.5t142 -56t98 -99.5t35.5 -143q0 -86 -34 -149t-96.5 -99t-141.5 -53t-178 -17zM504 440q92 0 148.5 56.5t56.5 179.5q0 117 -56.5 176t-148.5 59t-148.5 -56t-56.5 -179
t56.5 -179.5t148.5 -56.5zM504 -328q123 0 194.5 59t71.5 177q0 205 -246 235l-112 11q-174 -69 -174 -246q0 -118 71.5 -177t194.5 -59z" />
    <glyph glyph-name="Idotaccent" unicode="&#x130;" horiz-adv-x="583" 
d="M281 1454q-47 0 -81 38.5t-34 92.5q0 43 25.5 67.5t68.5 24.5q47 0 81 -38.5t34 -92.5q0 -43 -25.5 -67.5t-68.5 -24.5zM367 0q-75 0 -112.5 19t-55 71t-17.5 156v1106h185v-1106q0 -51 5.5 -85t20 -63t43.5 -43t74 -14h41v-41h-184z" />
    <glyph glyph-name="dotlessi" unicode="&#x131;" horiz-adv-x="503" 
d="M178 0v717q0 51 -5.5 85t-20 63t-43.5 43t-74 14h-41v41h184q75 0 112.5 -19t54.5 -71t17 -156v-717h-184z" />
    <glyph glyph-name="OE" unicode="&#x152;" horiz-adv-x="1935" 
d="M729 -41q-190 0 -336 96t-222.5 258t-76.5 363t76.5 363t222.5 258t336 96q130 0 225 -41h678q174 0 174 -164v-154h-41q0 236 -256 236h-381v-533h553v-82h-553v-573h359q140 0 220.5 51.5t127.5 173.5l41 -10l-72 -195q-37 -102 -153 -102h-697q-95 -41 -225 -41z
M729 41q126 0 215 65v1143q-92 62 -215 62q-200 0 -315 -171t-115 -464t115 -464t315 -171z" />
    <glyph glyph-name="oe" unicode="&#x153;" horiz-adv-x="1628" 
d="M543 -20q-139 0 -243 68t-156 180.5t-52 252.5t52 252.5t156 181t243 68.5q197 0 309 -121q105 121 274 121q206 0 308 -115.5t102 -335.5l-4 -81h-610q0 -173 74 -281.5t202 -108.5q96 0 163 41t124 123l41 -30q-67 -114 -157.5 -164.5t-211.5 -50.5q-185 0 -307 122
q-122 -122 -307 -122zM543 61q144 0 225 195q-41 91 -41 225q0 135 41 226q-32 89 -90.5 141.5t-134.5 52.5q-114 0 -185 -120t-71 -300t71 -300t185 -120zM922 532h430q0 173 -54 266t-161 93q-92 0 -153.5 -102.5t-61.5 -256.5z" />
    <glyph glyph-name="Scedilla" unicode="&#x15e;" horiz-adv-x="1091" 
d="M1004 344q0 -172 -115 -275.5t-311 -103.5v-47q184 0 184 -149q0 -70 -46.5 -110t-117.5 -40h-123v84h103q81 0 81 66q0 67 -81 67h-93v135q-154 16 -264 82.5t-110 161.5v219h36q35 -204 135.5 -295.5t276.5 -91.5q111 0 189.5 55.5t78.5 153.5q0 87 -53 150t-172 133
l-252 149q-131 78 -185 157.5t-54 194.5q0 158 109 253.5t288 95.5q105 0 204.5 -28t168.5 -86t69 -132v-219h-37q-35 204 -132 293.5t-273 89.5q-95 0 -166.5 -57.5t-71.5 -149.5q0 -84 52 -140t176 -129l252 -149q93 -55 145 -100.5t80.5 -103.5t28.5 -134z" />
    <glyph glyph-name="scedilla" unicode="&#x15f;" horiz-adv-x="913" 
d="M827 246q0 -123 -95 -193t-247 -73v-41q90 0 137.5 -38t47.5 -112q0 -70 -46 -109.5t-118 -39.5h-123v84h102q82 0 82 65q0 68 -82 68h-92v125q-173 11 -241 79q-35 35 -43.5 79t-8.5 136h41q37 -215 287 -215q112 0 168.5 39.5t56.5 104.5q0 60 -44 102t-140 82l-123 51
q-123 50 -184.5 115.5t-61.5 161.5q0 126 93.5 196t244.5 70q225 0 307 -82q35 -35 43.5 -79t8.5 -136h-41q-18 102 -87.5 158.5t-189.5 56.5q-97 0 -151 -40t-54 -103q0 -106 164 -174l123 -52q139 -57 202.5 -121t63.5 -165z" />
    <glyph glyph-name="Scaron" unicode="&#x160;" horiz-adv-x="1091" 
d="M408 1475l-164 235h102l174 -164l174 164h103l-164 -235h-225zM578 -35q-113 0 -218.5 29.5t-177 88t-71.5 132.5v219h36q35 -204 135.5 -295.5t276.5 -91.5q111 0 189.5 55.5t78.5 153.5q0 87 -53 150t-172 133l-252 149q-131 78 -185 157.5t-54 194.5q0 158 109 253.5
t288 95.5q105 0 204.5 -28t168.5 -86t69 -132v-219h-37q-35 204 -132 293.5t-273 89.5q-95 0 -166.5 -57.5t-71.5 -149.5q0 -84 52 -140t176 -129l252 -149q93 -55 145 -100.5t80.5 -103.5t28.5 -134q0 -172 -115 -275.5t-311 -103.5z" />
    <glyph glyph-name="scaron" unicode="&#x161;" horiz-adv-x="913" 
d="M326 1065l-164 235h102l174 -163l174 163h103l-164 -235h-225zM469 -20q-236 0 -317 81q-35 35 -43.5 79t-8.5 136h41q37 -215 287 -215q112 0 168.5 39.5t56.5 104.5q0 60 -44 102t-140 82l-123 51q-123 50 -184.5 115.5t-61.5 161.5q0 126 93.5 196t244.5 70
q225 0 307 -82q35 -35 43.5 -79t8.5 -136h-41q-18 102 -87.5 158.5t-189.5 56.5q-97 0 -151 -40t-54 -103q0 -106 164 -174l123 -52q139 -57 202.5 -121t63.5 -165q0 -126 -99.5 -196t-258.5 -70z" />
    <glyph glyph-name="Ydieresis" unicode="&#x178;" horiz-adv-x="1286" 
d="M543 1413q-47 0 -75 28t-28 75t28 74.5t75 27.5t74.5 -27.5t27.5 -74.5t-27.5 -75t-74.5 -28zM891 1413q-47 0 -75 28t-28 75t28 74.5t75 27.5t74.5 -27.5t27.5 -74.5t-27.5 -75t-74.5 -28zM594 0v559l-348 526q-32 46 -50 70t-48.5 57.5t-56.5 50.5t-63 31t-79 17v41
h184q54 0 101 -18t84.5 -53.5t64 -70t57.5 -84.5l297 -460l428 686h92l-479 -779v-573h-184z" />
    <glyph glyph-name="Zcaron" unicode="&#x17d;" horiz-adv-x="1210" 
d="M518 1454l-164 236h103l174 -164l174 164h102l-164 -236h-225zM49 0v41l850 1229h-491q-256 0 -256 -236h-41v154q0 164 174 164h891l-871 -1270h840v-82h-1096z" />
    <glyph glyph-name="zcaron" unicode="&#x17e;" horiz-adv-x="954" 
d="M385 1065l-164 235h103l174 -163l174 163h102l-164 -235h-225zM90 0v39l533 842h-236q-128 0 -192 -48.5t-64 -136.5h-41v103q0 164 174 164h625l-553 -881h553v-82h-799z" />
    <glyph glyph-name="florin" unicode="&#x192;" horiz-adv-x="485" 
 />
    <glyph glyph-name="circumflex" unicode="&#x2c6;" horiz-adv-x="634" 
d="M41 1352l164 235h225l164 -235h-102l-175 164l-174 -164h-102z" />
    <glyph glyph-name="caron" unicode="&#x2c7;" horiz-adv-x="552" 
d="M164 1065l-164 235h102l174 -163l175 163h102l-164 -235h-225z" />
    <glyph glyph-name="breve" unicode="&#x2d8;" horiz-adv-x="532" 
d="M266 1067q-175 0 -266 164l41 31q41 -41 92 -61.5t133 -20.5t133.5 20.5t92.5 61.5l40 -31q-91 -164 -266 -164z" />
    <glyph glyph-name="ring" unicode="&#x2da;" horiz-adv-x="348" 
d="M174 1085q-69 0 -121.5 53t-52.5 122t52.5 121.5t121.5 52.5t121.5 -52.5t52.5 -121.5t-52.5 -122t-121.5 -53zM174 1157q39 0 65.5 28.5t26.5 74.5t-26.5 74t-65.5 28t-65.5 -28t-26.5 -74t26.5 -74.5t65.5 -28.5z" />
    <glyph glyph-name="tilde" unicode="&#x2dc;" horiz-adv-x="542" 
d="M41 1393q0 106 30 150t93 44q45 0 110.5 -41t104.5 -41q22 0 41.5 28.5t19.5 53.5h62q0 -106 -30 -150t-93 -44q-43 0 -109 41t-106 41q-22 0 -42 -28.5t-20 -53.5h-61z" />
    <glyph glyph-name="uni0401" unicode="&#x401;" horiz-adv-x="1208" 
d="M420 1495q-47 0 -75 27.5t-28 74.5t28 75t75 28t74.5 -28t27.5 -75t-27.5 -74.5t-74.5 -27.5zM768 1495q-47 0 -74.5 27.5t-27.5 74.5t27.5 75t74.5 28t74.5 -28t27.5 -75t-27.5 -74.5t-74.5 -27.5zM217 0v1106q0 51 -5.5 85t-20 63t-43.5 43t-74 14h-41v41h872
q174 0 174 -164v-154h-41q0 236 -256 236h-381v-533h553v-82h-553v-573h359q140 0 220.5 51.5t127.5 173.5l41 -10l-72 -195q-37 -102 -153 -102h-707z" />
    <glyph glyph-name="uni0402" unicode="&#x402;" horiz-adv-x="1277" 
d="M827 -82v41q195 0 195 451q0 110 -22.5 187t-64 117t-90 57t-110.5 17q-74 0 -155 -24t-131 -57v-707h-185v1270h-266v82h717v-82h-266v-471q51 33 148 57.5t200 24.5q70 0 125.5 -10.5t110.5 -41t91.5 -81t59 -136.5t22.5 -202q0 -111 -11 -189t-36.5 -138t-70 -95
t-108 -52.5t-153.5 -17.5z" />
    <glyph glyph-name="uni0403" unicode="&#x403;" horiz-adv-x="1099" 
d="M500 1434l82 266h194l-194 -266h-82zM217 0v1106q0 51 -5.5 85t-20 63t-43.5 43t-74 14h-41v41h850q174 0 174 -164v-154h-41q0 236 -256 236h-359v-1270h-184z" />
    <glyph glyph-name="uni0404" unicode="&#x404;" horiz-adv-x="1361" 
d="M725 -41q-190 0 -336 93.5t-222.5 251t-76.5 351.5q0 151 50.5 288t135.5 235.5t202.5 156.5t246.5 58q163 0 287.5 -46.5t183.5 -117.5q24 -29 36 -84.5t13.5 -98t1.5 -124.5h-41q-74 389 -420 389q-99 0 -181.5 -32t-150 -99.5t-109.5 -185t-50 -277.5h678v-82h-678
q4 -116 34.5 -219t87.5 -188.5t152 -136t217 -50.5q150 0 261 71.5t200 215.5l41 -31q-94 -184 -232 -261t-331 -77z" />
    <glyph glyph-name="uni0405" unicode="&#x405;" horiz-adv-x="1091" 
d="M578 -35q-113 0 -218.5 29.5t-177 88t-71.5 132.5v219h36q35 -204 135.5 -295.5t276.5 -91.5q111 0 189.5 55.5t78.5 153.5q0 87 -53 150t-172 133l-252 149q-131 78 -185 157.5t-54 194.5q0 158 109 253.5t288 95.5q105 0 204.5 -28t168.5 -86t69 -132v-219h-37
q-35 204 -132 293.5t-273 89.5q-95 0 -166.5 -57.5t-71.5 -149.5q0 -84 52 -140t176 -129l252 -149q93 -55 145 -100.5t80.5 -103.5t28.5 -134q0 -172 -115 -275.5t-311 -103.5z" />
    <glyph glyph-name="uni0406" unicode="&#x406;" horiz-adv-x="583" 
d="M367 0q-75 0 -112.5 19t-55 71t-17.5 156v1106h185v-1106q0 -51 5.5 -85t20 -63t43.5 -43t74 -14h41v-41h-184z" />
    <glyph glyph-name="uni0407" unicode="&#x407;" horiz-adv-x="583" 
d="M117 1464q-47 0 -75 28t-28 75t28 74.5t75 27.5t74.5 -27.5t27.5 -74.5t-27.5 -75t-74.5 -28zM432 1464q-47 0 -74.5 28t-27.5 75t27.5 74.5t74.5 27.5t75 -27.5t28 -74.5t-28 -75t-75 -28zM367 0q-75 0 -112.5 19t-55 71t-17.5 156v1106h185v-1106q0 -51 5.5 -85t20 -63
t43.5 -43t74 -14h41v-41h-184z" />
    <glyph glyph-name="uni0408" unicode="&#x408;" horiz-adv-x="534" 
d="M-18 -281v41q97 0 145.5 104.5t48.5 295.5v1192h184v-1192q0 -120 -17.5 -199.5t-60.5 -135.5t-116 -81t-184 -25z" />
    <glyph glyph-name="uni0409" unicode="&#x409;" horiz-adv-x="1974" 
d="M90 -20q-46 0 -102 18v51q42 2 76 14t69.5 43t63 80.5t52.5 130.5t41.5 189t26 260t9.5 340q0 51 -5.5 85t-20 63t-44 43t-74.5 14h-20v41h993v-574h225q79 0 148.5 -8.5t144.5 -34.5t128 -67t87.5 -113t34.5 -166t-34.5 -166t-87.5 -113t-128 -67t-144.5 -34.5
t-148.5 -8.5h-409v1270h-492v-164q0 -195 -11 -355.5t-30 -276t-47.5 -203t-61 -142t-73 -89t-80.5 -47.5t-86 -13zM1350 72q176 0 272 79.5t96 237.5t-96.5 238t-271.5 80q-110 0 -195 -31v-574q82 -30 195 -30z" />
    <glyph glyph-name="uni040A" unicode="&#x40a;" horiz-adv-x="1994" 
d="M217 0v1106q0 51 -5.5 85t-20 63t-43.5 43t-74 14h-41v41h184q75 0 112.5 -19t54.5 -71t17 -156v-369h594v615h185v-615h225q79 0 148.5 -8.5t144.5 -33t128 -64t87.5 -107t34.5 -155.5t-34.5 -155.5t-87.5 -107t-127.5 -64.5t-144.5 -33.5t-149 -8.5h-410v655h-594v-655
h-184zM1374 72q174 0 271.5 76t97.5 221t-97.5 221t-271.5 76q-109 0 -194 -31v-533q82 -30 194 -30z" />
    <glyph glyph-name="uni040B" unicode="&#x40b;" horiz-adv-x="1296" 
d="M264 0v1270h-266v82h717v-82h-266v-471q51 33 148 57.5t200 24.5q69 0 125.5 -9.5t110.5 -35t91 -66t59.5 -106.5t22.5 -152v-512h-184v512q0 144 -80 210t-207 66q-74 0 -155 -24t-131 -57v-707h-185z" />
    <glyph glyph-name="uni040C" unicode="&#x40c;" horiz-adv-x="1386" 
d="M602 1382l82 267h195l-195 -267h-82zM1272 -20q-98 0 -202 52t-239 193l-430 451v-676h-184v1106q0 51 -5.5 85t-20 63t-43.5 43t-74 14h-41v41h184q75 0 112.5 -19t54.5 -71t17 -156v-399l430 430q12 12 49 50t52 52.5t49 42t59.5 39t62.5 21.5t77 10h102v-52
q-87 0 -150.5 -30t-146.5 -113l-399 -399l471 -492q90 -93 182 -155t166 -72v-39q-62 -20 -133 -20z" />
    <glyph glyph-name="uni040E" unicode="&#x40e;" horiz-adv-x="1243" 
d="M711 1434q-185 0 -267 184l41 31q75 -93 226 -93q150 0 225 93l41 -31q-82 -184 -266 -184zM270 -20v61q247 0 308 154l20 51l-379 839q-16 37 -25.5 57t-27 50t-36 46.5t-45.5 34.5t-62.5 27t-79.5 11v41h245q47 0 86 -18.5t68.5 -53.5t50 -70t41.5 -84l277 -614
l368 840h123l-504 -1157q-92 -215 -325 -215h-103z" />
    <glyph glyph-name="uni040F" unicode="&#x40f;" horiz-adv-x="1376" 
d="M657 -358l-30 358h-410v1106q0 51 -5.5 85t-20 63t-43.5 43t-74 14h-41v41h184q75 0 112.5 -19t54.5 -71t17 -156v-1024h615v1270h184v-1352h-409l-31 -358h-103z" />
    <glyph glyph-name="uni0410" unicode="&#x410;" horiz-adv-x="1300" 
d="M1274 -10q-33 0 -63.5 4.5t-73 21t-78 44t-72 78t-61.5 118.5l-52 133h-573l-164 -389h-92l573 1352h62l450 -1096q51 -118 96.5 -163t129.5 -52v-41q-38 -10 -82 -10zM332 471h502l-246 594z" />
    <glyph glyph-name="uni0411" unicode="&#x411;" horiz-adv-x="1245" 
d="M217 0v1106q0 51 -5.5 85t-20 63t-43.5 43t-74 14h-41v41h862q174 0 174 -164v-154h-41q0 236 -256 236h-371v-492h226q79 0 148.5 -8.5t144.5 -34.5t127.5 -67t87 -113t34.5 -166t-34.5 -166t-87 -113t-127.5 -67t-144.5 -34.5t-148.5 -8.5h-410zM596 72q175 0 272 79.5
t97 237.5t-97.5 238t-271.5 80q-94 0 -195 -29v-578q98 -28 195 -28z" />
    <glyph glyph-name="uni0412" unicode="&#x412;" horiz-adv-x="1273" 
d="M217 0v1106q0 51 -5.5 85t-20 63t-43.5 43t-74 14h-41v41h532q52 0 99 -3t104.5 -13t105 -25.5t94 -43t78.5 -64.5t52 -90.5t20 -119.5q0 -96 -65.5 -173.5t-200.5 -123.5q98 -16 165 -45.5t104 -72.5t53 -93t16 -116q0 -89 -34.5 -156t-89 -106.5t-131.5 -64.5
t-150.5 -33.5t-157.5 -8.5h-410zM401 727h195q84 0 157 30t122 94.5t49 152.5q0 70 -34 125.5t-89.5 87t-118 47.5t-127.5 16q-72 0 -154 -20v-533zM596 72q187 0 288 73.5t101 212.5q0 140 -99 213.5t-290 73.5h-195v-545q98 -28 195 -28z" />
    <glyph glyph-name="uni0413" unicode="&#x413;" horiz-adv-x="1099" 
d="M217 0v1106q0 51 -5.5 85t-20 63t-43.5 43t-74 14h-41v41h850q174 0 174 -164v-154h-41q0 236 -256 236h-359v-1270h-184z" />
    <glyph glyph-name="uni0414" unicode="&#x414;" horiz-adv-x="1406" 
d="M6 -369v379q0 31 20.5 51.5t51.5 20.5h82q95 206 134.5 458t39.5 566q0 51 -5.5 85t-20 63t-44 43t-74.5 14h-30v41h1024v-1270h112q31 0 51.5 -20.5t20.5 -51.5v-379h-92q-24 204 -84 286.5t-172 82.5h-666q-112 0 -172 -82.5t-84 -286.5h-92zM303 82h696v1188h-532
q0 -424 -37.5 -702.5t-126.5 -485.5z" />
    <glyph glyph-name="uni0415" unicode="&#x415;" horiz-adv-x="1208" 
d="M217 0v1106q0 51 -5.5 85t-20 63t-43.5 43t-74 14h-41v41h872q174 0 174 -164v-154h-41q0 236 -256 236h-381v-533h553v-82h-553v-573h359q140 0 220.5 51.5t127.5 173.5l41 -10l-72 -195q-37 -102 -153 -102h-707z" />
    <glyph glyph-name="uni0416" unicode="&#x416;" horiz-adv-x="1943" 
d="M115 -20q-71 0 -133 20v39q70 7 161.5 71t165.5 156l389 492l-317 399q-64 81 -131.5 112t-145.5 31v52h103q51 0 97 -16t87.5 -49.5t72.5 -66t71 -83.5l348 -430v645h178v-645l348 430q77 101 155 158t173 57h102v-52q-78 0 -145 -31t-131 -112l-318 -399l389 -492
q74 -92 166 -156t162 -71v-39q-62 -20 -133 -20q-40 0 -82.5 9.5t-98.5 33.5t-118.5 75.5t-120.5 126.5l-348 451v-676h-178v676l-348 -451q-58 -75 -120.5 -126.5t-118.5 -75.5t-98.5 -33.5t-82.5 -9.5z" />
    <glyph glyph-name="uni0417" unicode="&#x417;" horiz-adv-x="1167" 
d="M553 -41q-163 0 -283.5 58t-208.5 198l41 31q153 -205 420 -205q163 0 261 79t98 218q0 149 -99 228t-290 79h-154v82h154q146 0 247 78.5t101 218.5q0 93 -45.5 160t-114 97t-148.5 30q-147 0 -249 -86.5t-140 -241.5h-41q0 75 2 112.5t14 80.5t36 73q52 64 165.5 104
t223.5 40q48 0 92 -3.5t94.5 -14.5t93 -28t82.5 -46.5t67.5 -68t44.5 -94.5t17 -124q0 -104 -71.5 -188t-214.5 -130q183 -35 260 -122.5t77 -225.5q0 -91 -34.5 -161.5t-87.5 -112.5t-126 -69t-141.5 -36.5t-142.5 -9.5z" />
    <glyph glyph-name="uni0418" unicode="&#x418;" horiz-adv-x="1417" 
d="M217 0v1106q0 51 -5.5 85t-20 63t-43.5 43t-74 14h-41v41h184q75 0 112.5 -19t54.5 -71t17 -156v-922l656 1168h184v-1352h-184v1167l-656 -1167h-184z" />
    <glyph glyph-name="uni0419" unicode="&#x419;" horiz-adv-x="1417" 
d="M729 1454q-184 0 -266 184l41 31q74 -92 225 -92t225 92l41 -31q-82 -184 -266 -184zM217 0v1106q0 51 -5.5 85t-20 63t-43.5 43t-74 14h-41v41h184q75 0 112.5 -19t54.5 -71t17 -156v-922l656 1168h184v-1352h-184v1167l-656 -1167h-184z" />
    <glyph glyph-name="uni041A" unicode="&#x41a;" horiz-adv-x="1386" 
d="M1272 -20q-98 0 -202 52t-239 193l-430 451v-676h-184v1106q0 51 -5.5 85t-20 63t-43.5 43t-74 14h-41v41h184q75 0 112.5 -19t54.5 -71t17 -156v-399l430 430q12 12 49 50t52 52.5t49 42t59.5 39t62.5 21.5t77 10h102v-52q-87 0 -150.5 -30t-146.5 -113l-399 -399
l471 -492q90 -93 182 -155t166 -72v-39q-62 -20 -133 -20z" />
    <glyph glyph-name="uni041B" unicode="&#x41b;" horiz-adv-x="1351" 
d="M90 -20q-46 0 -102 18v51q42 2 76 14t69.5 43t63 80.5t52.5 130.5t41.5 189t26 260t9.5 340q0 51 -5.5 85t-20 63t-44 43t-74.5 14h-20v41h1014v-1352h-185v1270h-512v-164q0 -195 -11 -355.5t-30 -276t-47.5 -203t-61 -142t-73 -89t-80.5 -47.5t-86 -13z" />
    <glyph glyph-name="uni041C" unicode="&#x41c;" horiz-adv-x="1751" 
d="M1722 -92q-111 0 -184.5 25t-116.5 81t-60.5 135.5t-17.5 198.5v789l-512 -1137h-40l-533 1157v-1157h-82v1352h195l491 -1065l481 1065h185v-1004q0 -191 48.5 -295t145.5 -104v-41z" />
    <glyph glyph-name="uni041D" unicode="&#x41d;" horiz-adv-x="1419" 
d="M217 0v1106q0 51 -5.5 85t-20 63t-43.5 43t-74 14h-41v41h184q75 0 112.5 -19t54.5 -71t17 -156v-369h615v615h184v-1106q0 -51 5.5 -85t20 -63t43.5 -43t74 -14h41v-41h-184q-75 0 -112.5 19t-54.5 71t-17 156v409h-615v-655h-184z" />
    <glyph glyph-name="uni041E" unicode="&#x41e;" horiz-adv-x="1458" 
d="M729 -41q-190 0 -336 96t-222.5 258t-76.5 363t76.5 363t222.5 258t336 96t336 -96t222.5 -258t76.5 -363t-76.5 -363t-222.5 -258t-336 -96zM729 41q200 0 315 171t115 464t-115 464t-315 171t-315 -171t-115 -464t115 -464t315 -171z" />
    <glyph glyph-name="uni041F" unicode="&#x41f;" horiz-adv-x="1376" 
d="M217 0v1106q0 51 -5.5 85t-20 63t-43.5 43t-74 14h-41v41h1167v-1352h-184v1270h-615v-1270h-184z" />
    <glyph glyph-name="uni0420" unicode="&#x420;" horiz-adv-x="1130" 
d="M217 0v1106q0 51 -5.5 85t-20 63t-43.5 43t-74 14h-41v41h532q43 0 83.5 -3t93.5 -14t98 -28t90 -48.5t76.5 -73.5t51 -104.5t19.5 -138.5q0 -72 -19.5 -131.5t-50 -99t-72.5 -69.5t-83 -46.5t-86.5 -26.5t-77.5 -13t-61 -3h-226v-553h-184zM401 625h154q36 0 76.5 10
t84 34.5t77.5 60.5t56.5 94t22.5 128q0 87 -33 154t-84 103t-102 53.5t-98 17.5q-72 0 -154 -20v-635z" />
    <glyph glyph-name="uni0421" unicode="&#x421;" horiz-adv-x="1361" 
d="M725 -41q-190 0 -336 93.5t-222.5 251t-76.5 351.5q0 151 50.5 288t135.5 235.5t202.5 156.5t246.5 58q163 0 287.5 -46.5t183.5 -117.5q24 -29 36 -84.5t13.5 -98t1.5 -124.5h-41q-74 389 -420 389q-105 0 -190.5 -34.5t-154.5 -109t-107.5 -205t-38.5 -307.5
q0 -94 17 -181t55.5 -166.5t94.5 -138.5t139 -93.5t185 -34.5q150 0 261 71.5t200 215.5l41 -31q-94 -184 -232 -261t-331 -77z" />
    <glyph glyph-name="uni0422" unicode="&#x422;" horiz-adv-x="1193" 
d="M524 0v1270h-184q-256 0 -256 -236h-41v154q0 164 174 164h952v-82h-460v-1270h-185z" />
    <glyph glyph-name="uni0423" unicode="&#x423;" horiz-adv-x="1243" 
d="M270 -20v61q247 0 308 154l20 51l-379 839q-16 37 -25.5 57t-27 50t-36 46.5t-45.5 34.5t-62.5 27t-79.5 11v41h245q47 0 86 -18.5t68.5 -53.5t50 -70t41.5 -84l277 -614l368 840h123l-504 -1157q-92 -215 -325 -215h-103z" />
    <glyph glyph-name="uni0424" unicode="&#x424;" horiz-adv-x="1597" 
d="M707 -61v133q-315 0 -475 152t-160 421t160.5 421.5t474.5 152.5q0 86 -32 119.5t-112 33.5h-41v41h185q108 0 146 -39.5t38 -154.5q314 0 474.5 -152.5t160.5 -421.5t-160 -421t-475 -152v-133h-184zM707 154v983q-119 0 -205 -38.5t-134 -108t-70 -154.5t-22 -191
q0 -84 13 -154.5t44.5 -134t80 -107.5t123 -69.5t170.5 -25.5zM891 154q96 0 170.5 25.5t123 69.5t79.5 107.5t44 134t13 154.5t-13 154.5t-44 134t-79.5 107.5t-123 70t-170.5 26v-983z" />
    <glyph glyph-name="uni0425" unicode="&#x425;" horiz-adv-x="1366" 
d="M84 0l512 666l-287 419q-23 34 -31 45t-31.5 41.5t-38 43t-42 34.5t-52 31.5t-59.5 19t-73 11.5v41h245q33 0 62.5 -8.5t57.5 -28.5t47 -36.5t45.5 -50t37.5 -49t37 -53.5l205 -307l409 533h103l-461 -604l328 -482q65 -95 136.5 -156.5t160.5 -68.5v-41h-215
q-47 0 -90 19.5t-79.5 55.5t-62 69.5t-55.5 80.5l-246 369l-461 -594h-102z" />
    <glyph glyph-name="uni0426" unicode="&#x426;" horiz-adv-x="1423" 
d="M1292 -369q-24 204 -84 286.5t-172 82.5h-819v1106q0 51 -5.5 85t-20 63t-43.5 43t-74 14h-41v41h184q75 0 112.5 -19t54.5 -71t17 -156v-1024h615v1270h184v-1270h113q31 0 51 -20.5t20 -51.5v-379h-92z" />
    <glyph glyph-name="uni0427" unicode="&#x427;" horiz-adv-x="1310" 
d="M950 0v553q-87 -41 -276 -41q-64 0 -115.5 4.5t-104.5 16.5t-93.5 32t-77.5 53t-60.5 77.5t-37 106.5t-13.5 140v164q0 51 -5.5 85t-20 63t-43.5 43t-74 14h-21v41h185q75 0 112.5 -19t54.5 -71t17 -156v-184q0 -99 18.5 -164t59 -100.5t94.5 -49.5t135 -14q171 0 266 41
v717h185v-1352h-185z" />
    <glyph glyph-name="uni0428" unicode="&#x428;" horiz-adv-x="1908" 
d="M217 0v1106q0 51 -5.5 85t-20 63t-43.5 43t-74 14h-41v41h184q75 0 112.5 -19t54.5 -71t17 -156v-1024h482v1270h184v-1270h481v1270h185v-1352h-1516z" />
    <glyph glyph-name="uni0429" unicode="&#x429;" horiz-adv-x="1955" 
d="M1825 -369q-24 204 -84 286.5t-172 82.5h-1352v1106q0 51 -5.5 85t-20 63t-43.5 43t-74 14h-41v41h184q75 0 112.5 -19t54.5 -71t17 -156v-1024h482v1270h184v-1270h481v1270h185v-1270h112q31 0 51.5 -20.5t20.5 -51.5v-379h-92z" />
    <glyph glyph-name="uni042A" unicode="&#x42a;" horiz-adv-x="1441" 
d="M438 0v1270h-61q-134 0 -191.5 -66.5t-64.5 -240.5h-62v317q0 31 20.5 51.5t51.5 20.5h492v-574h225q79 0 148.5 -8.5t144.5 -34.5t128 -67t87.5 -113t34.5 -166t-34.5 -166t-87.5 -113t-128 -67t-144.5 -34.5t-148.5 -8.5h-410zM817 72q175 0 272 79.5t97 237.5
t-97.5 238t-271.5 80q-93 0 -194 -29v-578q98 -28 194 -28z" />
    <glyph glyph-name="uni042B" unicode="&#x42b;" horiz-adv-x="1703" 
d="M217 0v1106q0 51 -5.5 85t-20 63t-43.5 43t-74 14h-41v41h184q75 0 112.5 -19t54.5 -71t17 -156v-328h226q69 0 132.5 -8.5t135.5 -34.5t123.5 -67t86 -113t34.5 -166t-34.5 -166t-86 -113t-123.5 -67t-135.5 -34.5t-132.5 -8.5h-410zM1487 0q-75 0 -112.5 19t-54.5 71
t-17 156v1106h184v-1106q0 -51 5.5 -85t20 -63t43.5 -43t74 -14h41v-41h-184zM596 72q153 0 245.5 80.5t92.5 236.5t-92.5 237t-245.5 81q-94 0 -195 -29v-578q98 -28 195 -28z" />
    <glyph glyph-name="uni042C" unicode="&#x42c;" horiz-adv-x="1220" 
d="M217 0v1106q0 51 -5.5 85t-20 63t-43.5 43t-74 14h-41v41h184q75 0 112.5 -19t54.5 -71t17 -156v-328h226q79 0 148.5 -8.5t144.5 -34.5t127.5 -67t87 -113t34.5 -166t-34.5 -166t-87 -113t-127.5 -67t-144.5 -34.5t-148.5 -8.5h-410zM596 72q175 0 272 79.5t97 237.5
t-97.5 238t-271.5 80q-94 0 -195 -29v-578q98 -28 195 -28z" />
    <glyph glyph-name="uni042D" unicode="&#x42d;" horiz-adv-x="1361" 
d="M635 -41q-193 0 -331 77t-232 261l41 31q89 -144 199.5 -215.5t260.5 -71.5q98 0 179.5 33.5t137 90t95 133.5t58.5 161t22 176h-678v82h678q-7 129 -36 230.5t-74 169t-106 112t-129 63.5t-147 19q-172 0 -276.5 -95t-142.5 -294h-41q0 82 1.5 124.5t13.5 98t36 84.5
q59 71 183.5 117.5t287.5 46.5q129 0 246.5 -58t202.5 -156.5t135.5 -235.5t50.5 -288q0 -194 -76.5 -351.5t-222.5 -251t-336 -93.5z" />
    <glyph glyph-name="uni042E" unicode="&#x42e;" horiz-adv-x="1787" 
d="M1118 -41q-161 0 -289.5 86t-203.5 245t-80 365h-144v-655h-184v1106q0 51 -5.5 85t-20 63t-43.5 43t-74 14h-41v41h184q75 0 112.5 -19t54.5 -71t17 -156v-369h146q20 297 178 476.5t393 179.5q121 0 227 -52t182.5 -144t120.5 -227t44 -294t-44 -294t-120.5 -227
t-182.5 -144t-227 -52zM1118 41q160 0 264.5 168.5t104.5 466.5t-104.5 466.5t-264.5 168.5t-264 -168.5t-104 -466.5t104 -466.5t264 -168.5z" />
    <glyph glyph-name="uni042F" unicode="&#x42f;" horiz-adv-x="1245" 
d="M152 -20q-55 0 -123 22v39q74 7 127.5 48.5t97.5 115.5l215 368q-44 11 -82.5 27.5t-79 46t-69.5 68.5t-47.5 97.5t-18.5 129.5q0 76 19.5 138.5t51 104.5t76.5 73.5t90 48.5t98 28t93.5 14t83.5 3h512v-41h-20q-45 0 -74.5 -14t-44 -43t-20 -63t-5.5 -85v-1106h-184v553
h-199l-215 -389q-58 -105 -122.5 -144.5t-159.5 -39.5zM694 625q72 0 154 20v615q-82 20 -154 20q-47 0 -98 -17.5t-102 -53.5t-84 -103t-33 -154q0 -70 22.5 -128t56.5 -94t77.5 -60.5t84 -34.5t76.5 -10z" />
    <glyph glyph-name="uni0430" unicode="&#x430;" horiz-adv-x="985" 
d="M377 -20q-37 0 -74.5 8t-78.5 29t-72 52t-51.5 82t-20.5 115q0 81 41.5 138.5t117 89t164.5 45.5t199 14h62q0 104 -15.5 175t-46.5 107.5t-67 51t-86 14.5q-92 0 -148 -39.5t-78 -134.5h-92q0 47 1.5 71t13.5 56.5t36 56.5q36 36 121 54t186 18q61 0 109 -9t97 -36.5
t81 -73.5t52 -125t20 -186v-553h-103l-71 92h-10q-37 -46 -109 -79t-178 -33zM469 72q68 0 113 33t82 90v276h-62q-152 0 -240 -56t-88 -149q0 -94 56 -144t139 -50z" />
    <glyph glyph-name="uni0431" unicode="&#x431;" horiz-adv-x="1081" 
d="M553 -20q-196 0 -313 120.5t-117 370.5v82q0 189 15.5 310.5t53 197.5t90.5 112.5t138 55.5l307 71q77 19 112 38t42 55h41v-133q0 -78 -62 -93l-358 -82q-95 -24 -149.5 -67t-90.5 -140t-47 -264h10q38 152 126 219.5t243 67.5q79 0 147.5 -28t123.5 -83t86.5 -145
t31.5 -205q0 -228 -118 -344t-312 -116zM553 61q49 0 89 18t74 59.5t53 118t19 183.5q0 104 -19 180t-53 118t-74 61.5t-89 19.5t-89.5 -19.5t-74.5 -61.5t-53 -118t-19 -180q0 -107 19 -183.5t53.5 -118t74.5 -59.5t89 -18z" />
    <glyph glyph-name="uni0432" unicode="&#x432;" horiz-adv-x="1026" 
d="M168 0v717q0 51 -5.5 85t-20 63t-43.5 43t-74 14h-21v41h502q81 0 148 -12.5t122.5 -40t87 -77t31.5 -116.5q0 -87 -49 -139.5t-156 -75.5q118 -23 182 -84t64 -152q0 -61 -21.5 -107t-58.5 -76t-92.5 -49t-118 -26.5t-139.5 -7.5h-338zM352 543h113q111 0 173 44.5
t62 129.5q0 84 -59.5 129t-155.5 45q-68 0 -133 -21v-327zM485 72q256 0 256 194q0 195 -276 195h-113v-369q62 -20 133 -20z" />
    <glyph glyph-name="uni0433" unicode="&#x433;" horiz-adv-x="890" 
d="M168 0v717q0 51 -5.5 85t-20 63t-43.5 43t-74 14h-21v41h676q154 0 154 -164v-123h-41q0 97 -60 151t-155 54h-226v-881h-184z" />
    <glyph glyph-name="uni0434" unicode="&#x434;" horiz-adv-x="1167" 
d="M33 -317v327q0 31 20 51.5t51 20.5h62q64 141 93.5 310t29.5 325q0 51 -5.5 85t-20 63t-44 43t-74.5 14v41h820v-881h82q31 0 51 -20.5t20 -51.5v-327h-82q-17 171 -66.5 244t-148.5 73h-491q-99 0 -148.5 -73t-66.5 -244h-82zM309 82h471v799h-358q0 -267 -26.5 -457.5
t-86.5 -341.5z" />
    <glyph glyph-name="uni0435" unicode="&#x435;" horiz-adv-x="999" 
d="M522 -20q-139 0 -238 68.5t-145.5 180t-46.5 252.5q0 139 48.5 252t143 181.5t218.5 68.5q206 0 307.5 -115.5t101.5 -335.5l-4 -81h-620q0 -173 74 -281.5t202 -108.5q96 0 163 41t124 123l41 -30q-67 -114 -157.5 -164.5t-211.5 -50.5zM287 532h430q0 369 -215 369
q-92 0 -153.5 -105t-61.5 -264z" />
    <glyph glyph-name="uni0436" unicode="&#x436;" horiz-adv-x="1404" 
d="M119 -20q-57 0 -103 20v39q131 20 236 166l215 297l-195 317q-57 92 -194 92v52h51q185 0 266 -134l215 -358v492h185v-492l215 358q81 134 266 134h51v-52q-137 0 -194 -92l-195 -317l215 -297q105 -146 236 -166v-39q-46 -20 -103 -20q-160 0 -276 163l-215 297v-440
h-185v440l-215 -297q-116 -163 -276 -163z" />
    <glyph glyph-name="uni0437" unicode="&#x437;" horiz-adv-x="931" 
d="M432 -20q-129 0 -213.5 43t-144.5 120l41 31q32 -32 61 -53t86.5 -40.5t128.5 -19.5q256 0 256 195t-287 195h-92v81h92q124 0 190 47t66 138q0 89 -57 136.5t-147 47.5q-112 0 -186.5 -58.5t-80.5 -156.5h-41q0 100 8.5 145t43.5 80q72 72 286 72q73 0 136 -13.5
t117 -43t85 -83t31 -126.5q0 -173 -205 -225q112 -24 174 -84.5t62 -151.5q0 -276 -410 -276z" />
    <glyph glyph-name="uni0438" unicode="&#x438;" horiz-adv-x="1122" 
d="M176 0v717q0 51 -5.5 85t-20 63t-43.5 43t-74 14h-31v41h174q75 0 112.5 -19t54.5 -71t17 -156v-533l431 779h184v-963h-184v778l-431 -778h-184z" />
    <glyph glyph-name="uni0439" unicode="&#x439;" horiz-adv-x="1122" 
d="M575 1067q-175 0 -266 164l41 31q41 -41 92 -61.5t133 -20.5t133.5 20.5t92.5 61.5l41 -31q-91 -164 -267 -164zM176 0v717q0 51 -5.5 85t-20 63t-43.5 43t-74 14h-31v41h174q75 0 112.5 -19t54.5 -71t17 -156v-533l431 779h184v-963h-184v778l-431 -778h-184z" />
    <glyph glyph-name="uni043A" unicode="&#x43a;" horiz-adv-x="1017" 
d="M899 -20q-167 0 -297 163l-235 297v-440h-185v717q0 51 -5.5 85t-20 63t-43.5 43t-74 14h-41v41h184q75 0 112.5 -19t55 -71t17.5 -156v-246l256 358q48 66 110 100t156 34h51v-52q-119 0 -184 -92l-226 -317l236 -297q58 -73 113.5 -114.5t121.5 -51.5v-39
q-46 -20 -102 -20z" />
    <glyph glyph-name="uni043B" unicode="&#x43b;" horiz-adv-x="1118" 
d="M119 -20q-49 0 -101 18v51q44 0 79.5 15t71.5 58.5t60.5 115.5t40 194t15.5 285q0 104 -29.5 154.5t-116.5 50.5v41h832v-963h-185v881h-360v-164q0 -178 -17.5 -312t-45.5 -213.5t-69.5 -128.5t-83 -66t-91.5 -17z" />
    <glyph glyph-name="uni043C" unicode="&#x43c;" horiz-adv-x="1329" 
d="M1294 -41q-183 0 -260.5 89t-77.5 259v441l-338 -748h-40l-349 768v-768h-82v963h195l307 -676l307 676h185v-656q0 -121 43.5 -214t109.5 -93v-41z" />
    <glyph glyph-name="uni043D" unicode="&#x43d;" horiz-adv-x="1132" 
d="M176 0v717q0 51 -5.5 85t-20 63t-43.5 43t-74 14h-31v41h174q75 0 112.5 -19t54.5 -71t17 -156v-195h410v441h184v-717q0 -51 5.5 -85t20 -63t44 -43t74.5 -14h30v-41h-174q-75 0 -112.5 19t-54.5 71t-17 156v194h-410v-440h-184z" />
    <glyph glyph-name="uni043E" unicode="&#x43e;" horiz-adv-x="1085" 
d="M543 -20q-139 0 -243 68t-156 180.5t-52 252.5t52 252.5t156 181t243 68.5t243 -68.5t155.5 -181t51.5 -252.5q0 -104 -30.5 -195t-86.5 -159t-142 -107.5t-191 -39.5zM543 61q114 0 185 120t71 300t-71 300t-185 120t-185 -120t-71 -300t71 -300t185 -120z" />
    <glyph glyph-name="uni043F" unicode="&#x43f;" horiz-adv-x="1093" 
d="M168 0v717q0 51 -5.5 85t-20 63t-43.5 43t-74 14h-21v41h942v-963h-184v881h-410v-881h-184z" />
    <glyph glyph-name="uni0440" unicode="&#x440;" horiz-adv-x="1101" 
d="M178 -389v1106q0 51 -5.5 85t-20 63t-43.5 43t-74 14h-41v41h184q76 0 116 -22.5t58 -70.5q113 113 287 113q118 0 203 -68.5t125.5 -180.5t40.5 -253q0 -105 -24 -195t-71 -159t-122.5 -108t-172.5 -39q-132 0 -256 61v-430h-184zM557 61q89 0 147.5 57t83.5 148.5
t25 214.5q0 188 -59 304t-176 116q-137 0 -216 -123v-655q126 -62 195 -62z" />
    <glyph glyph-name="uni0441" unicode="&#x441;" horiz-adv-x="989" 
d="M543 -20q-111 0 -198.5 39t-142 108t-82.5 159t-28 195t28 195t82.5 159t142 108.5t198.5 39.5q225 0 297 -72q35 -35 43 -85t8 -181h-41q-7 126 -79.5 191t-186.5 65q-147 0 -222 -116.5t-75 -303.5t75 -303.5t222 -116.5q104 0 171.5 40.5t125.5 123.5l41 -30
q-67 -114 -159.5 -164.5t-219.5 -50.5z" />
    <glyph glyph-name="uni0442" unicode="&#x442;" horiz-adv-x="970" 
d="M418 0v881h-103q-95 0 -155 -54t-60 -151h-41v123q0 164 154 164h727v-82h-338v-881h-184z" />
    <glyph glyph-name="uni0443" unicode="&#x443;" horiz-adv-x="1052" 
d="M215 -410v62q101 0 165.5 45.5t111.5 169.5l40 113l-327 798q-58 148 -225 164v41h174q177 0 245 -164l234 -567l258 711h102l-399 -1096q-59 -161 -131.5 -219t-186.5 -58h-61z" />
    <glyph glyph-name="uni0444" unicode="&#x444;" horiz-adv-x="1355" 
d="M586 -389v369q-159 5 -272 73t-166.5 177.5t-53.5 250.5q0 105 31 194t91.5 156.5t155 107.5t214.5 44v123q0 51 -5.5 85t-20 63t-44 43t-74.5 14h-30v41h174q75 0 112.5 -19t54.5 -71t17 -156v-123q120 -4 214.5 -44t155 -107.5t91.5 -156.5t31 -194
q0 -141 -53.5 -250.5t-166.5 -177.5t-272 -73v-369h-184zM588 51v860q-152 -17 -225.5 -128t-73.5 -302t73.5 -302t225.5 -128zM768 51q152 17 225.5 128t73.5 302t-73.5 302t-225.5 128v-860z" />
    <glyph glyph-name="uni0445" unicode="&#x445;" horiz-adv-x="999" 
d="M78 0l328 461l-179 297q-87 149 -211 164v41h174q135 0 232 -164l127 -215l266 379h103l-328 -461l178 -297q85 -149 221 -164v-41h-184q-135 0 -232 164l-127 215l-266 -379h-102z" />
    <glyph glyph-name="uni0446" unicode="&#x446;" horiz-adv-x="1157" 
d="M1026 -317q-17 171 -66.5 244t-148.5 73h-635v717q0 51 -5.5 85t-20 63t-43.5 43t-74 14h-31v41h174q75 0 112.5 -19t54.5 -71t17 -156v-635h410v881h184v-881h82q31 0 51.5 -20.5t20.5 -51.5v-327h-82z" />
    <glyph glyph-name="uni0447" unicode="&#x447;" horiz-adv-x="1091" 
d="M760 0v395q-95 -37 -205 -37q-369 0 -369 297v62q0 51 -5.5 85t-20 63t-43.5 43t-74 14h-20v41h174q75 0 112.5 -19t54.5 -71t17 -156v-82q0 -100 53.5 -147.5t130.5 -47.5q100 0 195 37v486h184v-963h-184z" />
    <glyph glyph-name="uni0448" unicode="&#x448;" horiz-adv-x="1511" 
d="M176 0v717q0 51 -5.5 85t-20 63t-43.5 43t-74 14h-31v41h174q75 0 112.5 -19t54.5 -71t17 -156v-635h318v881h184v-881h318v881h184v-963h-1188z" />
    <glyph glyph-name="uni0449" unicode="&#x449;" horiz-adv-x="1566" 
d="M1436 -317q-17 171 -66.5 244t-148.5 73h-1045v717q0 51 -5.5 85t-20 63t-43.5 43t-74 14h-31v41h174q75 0 112.5 -19t54.5 -71t17 -156v-635h318v881h184v-881h318v881h184v-881h82q31 0 51.5 -20.5t20.5 -51.5v-327h-82z" />
    <glyph glyph-name="uni044A" unicode="&#x44a;" horiz-adv-x="1196" 
d="M379 0v881h-21q-110 0 -169 -64.5t-66 -202.5h-51v277q0 31 20 51.5t51 20.5h420v-390h154q74 0 134.5 -8t115 -28.5t91 -52.5t58 -82t21.5 -115q0 -81 -31.5 -138.5t-90.5 -89t-132 -45.5t-166 -14h-338zM696 72q121 0 183.5 51t62.5 164t-62.5 164t-183.5 51
q-68 0 -133 -21v-389q62 -20 133 -20z" />
    <glyph glyph-name="uni044B" unicode="&#x44b;" horiz-adv-x="1409" 
d="M176 0v717q0 51 -5.5 85t-20 63t-43.5 43t-74 14h-31v41h174q75 0 112.5 -19t54.5 -71t17 -156v-144h154q399 0 399 -286q0 -287 -399 -287h-338zM1231 0q-75 0 -112.5 19t-54.5 71t-17 156v717h184v-717q0 -51 5.5 -85t20 -63t43.5 -43t74 -14h31v-41h-174zM494 72
q225 0 225 215t-225 215q-69 0 -134 -21v-389q62 -20 134 -20z" />
    <glyph glyph-name="uni044C" unicode="&#x44c;" horiz-adv-x="993" 
d="M176 0v717q0 51 -5.5 85t-20 63t-43.5 43t-74 14h-31v41h174q75 0 112.5 -19t54.5 -71t17 -156v-144h154q74 0 134.5 -8t115 -28.5t91 -52.5t58 -82t21.5 -115q0 -81 -31.5 -138.5t-90.5 -89t-132 -45.5t-166 -14h-338zM494 72q121 0 183 51t62 164t-62 164t-183 51
q-69 0 -134 -21v-389q62 -20 134 -20z" />
    <glyph glyph-name="uni044D" unicode="&#x44d;" horiz-adv-x="1001" 
d="M459 -20q-127 0 -219.5 50.5t-159.5 164.5l41 30q58 -83 125.5 -123.5t171.5 -40.5q136 0 212.5 101.5t84.5 267.5h-430v82h430q-8 172 -83 280.5t-214 108.5q-114 0 -186.5 -65t-79.5 -191h-41q0 131 8 181t43 85q72 72 297 72q111 0 198.5 -39.5t141.5 -108.5t82 -159
t28 -195t-28 -195t-82 -159t-141.5 -108t-198.5 -39z" />
    <glyph glyph-name="uni044E" unicode="&#x44e;" horiz-adv-x="1415" 
d="M903 -20q-183 0 -298 125.5t-122 334.5h-123v-440h-184v717q0 51 -5.5 85t-20 63t-43.5 43t-74 14h-31v41h174q75 0 112.5 -19t54.5 -71t17 -156v-195h123q7 209 122 335t298 126q191 0 305.5 -139t114.5 -363t-114.5 -362.5t-305.5 -138.5zM903 61q103 0 164 108t61 312
t-61 312t-164 108t-164 -108t-61 -312t61 -312t164 -108z" />
    <glyph glyph-name="uni044F" unicode="&#x44f;" horiz-adv-x="1044" 
d="M147 -20q-50 0 -112 20v41q33 4 62.5 18.5t54 41.5t40.5 48.5t37 55.5l123 215q-99 16 -167 86t-68 180q0 277 409 277h482v-41h-9q-80 -3 -107.5 -53t-27.5 -152v-717h-184v410h-160l-123 -246q-49 -95 -107 -139.5t-143 -44.5zM547 481q68 0 133 21v368q-65 21 -133 21
q-236 0 -236 -205t236 -205z" />
    <glyph glyph-name="uni0451" unicode="&#x451;" horiz-adv-x="999" 
d="M338 1096q-38 0 -65 27t-27 65t27 65t65 27t65 -27t27 -65t-27 -65t-65 -27zM686 1096q-38 0 -65 27t-27 65t27 65t65 27t65 -27t27 -65t-27 -65t-65 -27zM522 -20q-139 0 -238 68.5t-145.5 180t-46.5 252.5q0 139 48.5 252t143 181.5t218.5 68.5q206 0 307.5 -115.5
t101.5 -335.5l-4 -81h-620q0 -173 74 -281.5t202 -108.5q96 0 163 41t124 123l41 -30q-67 -114 -157.5 -164.5t-211.5 -50.5zM287 532h430q0 369 -215 369q-92 0 -153.5 -105t-61.5 -264z" />
    <glyph glyph-name="uni0452" unicode="&#x452;" horiz-adv-x="1085" 
d="M567 -287v41q98 0 146.5 104.5t48.5 295.5v358q0 74 -19 129t-51.5 86t-71 46t-83.5 15q-108 0 -205 -108v-680h-185v1024h-143v82h143v123l103 123h82v-246h246v-82h-246v-246q44 44 112.5 73.5t153.5 29.5q56 0 103.5 -9.5t94 -35t78.5 -66t52 -106.5t20 -152v-358
q0 -120 -17.5 -199.5t-60.5 -135.5t-116.5 -81t-184.5 -25z" />
    <glyph glyph-name="uni0453" unicode="&#x453;" horiz-adv-x="890" 
d="M373 1044l82 267h194l-194 -267h-82zM168 0v717q0 51 -5.5 85t-20 63t-43.5 43t-74 14h-21v41h676q154 0 154 -164v-123h-41q0 97 -60 151t-155 54h-226v-881h-184z" />
    <glyph glyph-name="uni0454" unicode="&#x454;" horiz-adv-x="1001" 
d="M543 -20q-111 0 -198.5 39t-142 108t-82.5 159t-28 195t28 195t82.5 159t142 108.5t198.5 39.5q225 0 297 -72q35 -35 43 -85t8 -181h-41q-7 126 -79.5 191t-186.5 65q-139 0 -214 -108.5t-83 -280.5h430v-82h-430q8 -166 84.5 -267.5t212.5 -101.5q104 0 171.5 40.5
t125.5 123.5l41 -30q-67 -114 -159.5 -164.5t-219.5 -50.5z" />
    <glyph glyph-name="uni0455" unicode="&#x455;" horiz-adv-x="913" 
d="M469 -20q-236 0 -317 81q-35 35 -43.5 79t-8.5 136h41q37 -215 287 -215q112 0 168.5 39.5t56.5 104.5q0 60 -44 102t-140 82l-123 51q-123 50 -184.5 115.5t-61.5 161.5q0 126 93.5 196t244.5 70q225 0 307 -82q35 -35 43.5 -79t8.5 -136h-41q-18 102 -87.5 158.5
t-189.5 56.5q-97 0 -151 -40t-54 -103q0 -106 164 -174l123 -52q139 -57 202.5 -121t63.5 -165q0 -126 -99.5 -196t-258.5 -70z" />
    <glyph glyph-name="uni0456" unicode="&#x456;" horiz-adv-x="503" 
d="M256 1085q-47 0 -81 39t-34 93q0 42 26 67t69 25q47 0 80.5 -38.5t33.5 -92.5q0 -43 -25.5 -68t-68.5 -25zM178 0v717q0 51 -5.5 85t-20 63t-43.5 43t-74 14h-41v41h184q75 0 112.5 -19t54.5 -71t17 -156v-717h-184z" />
    <glyph glyph-name="uni0457" unicode="&#x457;" horiz-adv-x="503" 
d="M106 1106q-47 0 -80.5 38.5t-33.5 92.5q0 43 25.5 67.5t68.5 24.5q47 0 81 -38.5t34 -92.5q0 -42 -26 -67t-69 -25zM422 1106q-47 0 -81 38.5t-34 92.5q0 43 25.5 67.5t68.5 24.5q47 0 81 -38.5t34 -92.5q0 -43 -25.5 -67.5t-68.5 -24.5zM178 0v717q0 51 -5.5 85t-20 63
t-43.5 43t-74 14h-41v41h184q75 0 112.5 -19t54.5 -71t17 -156v-717h-184z" />
    <glyph glyph-name="uni0458" unicode="&#x458;" horiz-adv-x="503" 
d="M256 1085q-47 0 -81 39t-34 93q0 42 26 67t69 25q47 0 80.5 -38.5t33.5 -92.5q0 -43 -25.5 -68t-68.5 -25zM-16 -389v41q97 0 145.5 104t48.5 295v666q0 51 -5.5 85t-20 63t-43.5 43t-74 14h-41v41h184q75 0 112.5 -19t54.5 -71t17 -156v-666q0 -95 -11 -164t-36.5 -123
t-69 -87t-108 -49.5t-153.5 -16.5z" />
    <glyph glyph-name="uni0459" unicode="&#x459;" horiz-adv-x="1581" 
d="M119 -20q-49 0 -101 18v51q44 0 79.5 15t71.5 58.5t60.5 115.5t40 194t15.5 285q0 104 -29.5 154.5t-116.5 50.5v41h809v-390h154q74 0 134.5 -8t115 -28.5t91 -52.5t58 -82t21.5 -115q0 -81 -31.5 -138.5t-90.5 -89t-132 -45.5t-166 -14h-338v881h-338v-164
q0 -178 -17.5 -312t-45.5 -213.5t-69.5 -128.5t-83 -66t-91.5 -17zM1081 72q121 0 183.5 51t62.5 164t-62.5 164t-183.5 51q-68 0 -133 -21v-389q62 -20 133 -20z" />
    <glyph glyph-name="uni045A" unicode="&#x45a;" horiz-adv-x="1562" 
d="M176 0v717q0 51 -5.5 85t-20 63t-43.5 43t-74 14h-31v41h174q75 0 112.5 -19t54.5 -71t17 -156v-185h390v431h184v-431h153q420 0 420 -266q0 -75 -31.5 -128.5t-90.5 -82.5t-131.5 -42t-166.5 -13h-337v451h-390v-451h-184zM1067 72q246 0 246 194q0 195 -246 195
q-68 0 -133 -21v-348q62 -20 133 -20z" />
    <glyph glyph-name="uni045B" unicode="&#x45b;" horiz-adv-x="1085" 
d="M147 0v1024h-143v82h143v123l103 123h82v-246h246v-82h-246v-246q44 44 112.5 73.5t153.5 29.5q56 0 103.5 -9.5t94 -35t78.5 -66t52 -106.5t20 -152v-512h-184v512q0 74 -19 129t-51.5 86t-71 46t-83.5 15q-108 0 -205 -108v-680h-185z" />
    <glyph glyph-name="uni045C" unicode="&#x45c;" horiz-adv-x="1017" 
d="M428 995l82 267h195l-195 -267h-82zM899 -20q-167 0 -297 163l-235 297v-440h-185v717q0 51 -5.5 85t-20 63t-43.5 43t-74 14h-41v41h184q75 0 112.5 -19t55 -71t17.5 -156v-246l256 358q48 66 110 100t156 34h51v-52q-119 0 -184 -92l-226 -317l236 -297
q58 -73 113.5 -114.5t121.5 -51.5v-39q-46 -20 -102 -20z" />
    <glyph glyph-name="uni045E" unicode="&#x45e;" horiz-adv-x="1052" 
d="M614 1047q-176 0 -266 163l41 31q41 -41 92 -61.5t133 -20.5t133.5 20.5t92.5 61.5l41 -31q-90 -163 -267 -163zM215 -410v62q101 0 165.5 45.5t111.5 169.5l40 113l-327 798q-58 148 -225 164v41h174q177 0 245 -164l234 -567l258 711h102l-399 -1096
q-59 -161 -131.5 -219t-186.5 -58h-61z" />
    <glyph glyph-name="uni045F" unicode="&#x45f;" horiz-adv-x="1101" 
d="M524 -307l-30 307h-318v717q0 51 -5.5 85t-20 63t-43.5 43t-74 14h-31v41h174q75 0 112.5 -19t54.5 -71t17 -156v-635h410v881h184v-963h-317l-31 -307h-82z" />
    <glyph glyph-name="uni0490" unicode="&#x490;" horiz-adv-x="1095" 
d="M217 0v1106q0 51 -5.5 85t-20 63t-43.5 43t-74 14h-41v41h727q256 0 256 235h41v-225q0 -38 -27 -65t-65 -27h-564v-1270h-184z" />
    <glyph glyph-name="uni0491" unicode="&#x491;" horiz-adv-x="884" 
d="M168 0v717q0 51 -5.5 85t-20 63t-43.5 43t-74 14h-21v41h574q95 0 155 53.5t60 150.5h41v-204q0 -82 -82 -82h-400v-881h-184z" />
    <glyph glyph-name="uni060C" unicode="&#x60c;" horiz-adv-x="485" 
d="M248 -31q-62 0 -97.5 38t-35.5 106q0 252 225 379l20 -31q-82 -57 -122.5 -122.5t-40.5 -154.5l61 21q47 0 80 -33t33 -80q0 -54 -34.5 -88.5t-88.5 -34.5z" />
    <glyph glyph-name="uni0615" unicode="&#x615;" 
d="M-197 1133q-17 0 -17 37.5t17 37.5h33v260q0 36 -26 62q1 4 12 8t22 4q18 0 34 -13t16 -42v-168q19 28 37 46.5t52.5 35t77.5 16.5q79 0 118.5 -47.5t39.5 -116.5q0 -55 -24 -87.5t-68 -32.5h-324zM-115 1208h189q43 0 43 58q0 33 -18.5 54t-59.5 21q-63 0 -108.5 -46.5
t-45.5 -86.5z" />
    </font>
</defs>
</svg>
