<?xml version="1.0" standalone="no"?>
<!DOCTYPE svg PUBLIC "-//W3C//DTD SVG 1.1//EN" "http://www.w3.org/Graphics/SVG/1.1/DTD/svg11.dtd" >
<svg xmlns="http://www.w3.org/2000/svg" xmlns:xlink="http://www.w3.org/1999/xlink" version="1.1">
<metadata>
Created by FontForge 20201107 at Wed Nov  6 18:38:15 2024
 By 
Copyright 2015 The El Messiri Project Authors.
</metadata>
<defs>
<font id="ElMessiri-Bold" horiz-adv-x="0" >
  <font-face 
    font-family="El Messiri"
    font-weight="700"
    font-stretch="normal"
    units-per-em="2048"
    panose-1="0 0 8 0 0 0 0 0 0 0"
    ascent="1638"
    descent="-410"
    x-height="963"
    cap-height="1352"
    bbox="-340 -1113.12 2894 2088.28"
    underline-thickness="102"
    underline-position="-204"
    unicode-range="U+0020-FEFC"
  />
<missing-glyph horiz-adv-x="552" 
 />
    <glyph glyph-name="uniFEF5" unicode="&#xfedf;&#xfe82;" horiz-adv-x="1394" arabic-form="isolated" 
d="M618 1167q-54 0 -108.5 21t-103 42t-87.5 21q-32 0 -58 -15t-38 -15q-31 0 -31 35q1 46 47 88q54 49 134 49q59 0 162 -38t143 -38q35 0 63 19.5t37 19.5q25 0 28 -35q4 -50 -39 -96q-53 -58 -149 -58zM201 0q-39 0 -69 28.5t-30 80.5t30.5 80t72.5 28h225v545
q0 35 -6 62t-13 42.5t-19.5 28t-20.5 17t-20.5 10t-14.5 6.5q0 15 9 36t27 44t51 39t75 16q90 0 144 -68.5t54 -177.5v-600h211q42 0 65 34t23 99v701q0 35 -6 62t-13 42.5t-19.5 28t-20.5 17t-20.5 10t-14.5 6.5q0 15 9 36t27 44t51 39t75 16q90 0 144.5 -69t54.5 -177
v-776q0 -90 -28 -163t-90 -120t-149 -47h-794z" />
    <glyph glyph-name="uniFEF6" unicode="&#xfee0;&#xfe82;" horiz-adv-x="1458" arabic-form="final" 
d="M223 1221q-31 0 -31 35q1 46 47 88q54 49 134 49q59 0 162 -38t143 -38q35 0 63 19.5t37 19.5q25 0 28 -35q4 -50 -39 -96q-53 -58 -149 -58q-54 0 -108.5 21t-103 42t-87.5 21q-32 0 -58 -15t-38 -15zM1249 217h209v-217h-112q-111 0 -193 53q-66 -53 -158 -53h-794
q-39 0 -69 28.5t-30 80.5t30.5 80t72.5 28h225v545q0 35 -6 62t-13 42.5t-19.5 28t-20.5 17t-20.5 10t-14.5 6.5q0 15 9 36t27 44t51 39t75 16q90 0 144 -68.5t54 -177.5v-600h211q42 0 65 34t23 99v701q0 35 -6 62t-13 42.5t-19.5 28t-20.5 17t-20.5 10t-14.5 6.5
q0 15 9 36t27 44t51 39t75 16q90 0 144.5 -69t54.5 -177v-776q0 -56 -13 -113z" />
    <glyph glyph-name="uniFEF7" unicode="&#xfedf;&#xfe84;" horiz-adv-x="1394" arabic-form="isolated" 
d="M340 1149q-35 7 -50.5 42t10 68t93.5 33q-32 14 -58 50.5t-26 84.5q0 33 13 66.5t38 64t68.5 49.5t99.5 19q64 0 101 -25.5t37 -78.5q0 -37 -20 -54t-45.5 -16t-53.5 12q2 30 -11 54t-42 24q-39 -44 -39 -94q0 -49 37.5 -88t97.5 -39q18 0 45.5 5t34.5 5q28 0 39.5 -27.5
t1.5 -55.5t-33 -29q-19 0 -66 -3t-112 -10t-112.5 -22t-47.5 -35zM201 0q-39 0 -69 28.5t-30 80.5t30.5 80t72.5 28h225v545q0 35 -6 62t-13 42.5t-19.5 28t-20.5 17t-20.5 10t-14.5 6.5q0 15 9 36t27 44t51 39t75 16q90 0 144 -68.5t54 -177.5v-600h211q42 0 65 34t23 99
v701q0 35 -6 62t-13 42.5t-19.5 28t-20.5 17t-20.5 10t-14.5 6.5q0 15 9 36t27 44t51 39t75 16q90 0 144.5 -69t54.5 -177v-776q0 -90 -28 -163t-90 -120t-149 -47h-794z" />
    <glyph glyph-name="uniFEF8" unicode="&#xfee0;&#xfe84;" horiz-adv-x="1458" arabic-form="final" 
d="M340 1149q-35 7 -50.5 42t10 68t93.5 33q-32 14 -58 50.5t-26 84.5q0 33 13 66.5t38 64t68.5 49.5t99.5 19q64 0 101 -25.5t37 -78.5q0 -37 -20 -54t-45.5 -16t-53.5 12q2 30 -11 54t-42 24q-39 -44 -39 -94q0 -49 37.5 -88t97.5 -39q18 0 45.5 5t34.5 5q28 0 39.5 -27.5
t1.5 -55.5t-33 -29q-19 0 -66 -3t-112 -10t-112.5 -22t-47.5 -35zM1249 217h209v-217h-112q-111 0 -193 53q-66 -53 -158 -53h-794q-39 0 -69 28.5t-30 80.5t30.5 80t72.5 28h225v545q0 35 -6 62t-13 42.5t-19.5 28t-20.5 17t-20.5 10t-14.5 6.5q0 15 9 36t27 44t51 39
t75 16q90 0 144 -68.5t54 -177.5v-600h211q42 0 65 34t23 99v701q0 35 -6 62t-13 42.5t-19.5 28t-20.5 17t-20.5 10t-14.5 6.5q0 15 9 36t27 44t51 39t75 16q90 0 144.5 -69t54.5 -177v-776q0 -56 -13 -113z" />
    <glyph glyph-name="uniFEF9" unicode="&#xfedf;&#xfe88;" horiz-adv-x="1394" arabic-form="isolated" 
d="M201 0q-39 0 -69 28.5t-30 80.5t30.5 80t72.5 28h225v545q0 35 -6 62t-13 42.5t-19.5 28t-20.5 17t-20.5 10t-14.5 6.5q0 15 9 36t27 44t51 39t75 16q90 0 144 -68.5t54 -177.5v-600h211q42 0 65 34t23 99v701q0 35 -6 62t-13 42.5t-19.5 28t-20.5 17t-20.5 10t-14.5 6.5
q0 15 9 36t27 44t51 39t75 16q90 0 144.5 -69t54.5 -177v-776q0 -90 -28 -163t-90 -120t-149 -47h-794zM338 -580q-35 7 -50.5 42.5t10 68.5t93.5 33q-32 14 -58 50.5t-26 84.5q0 74 56.5 136.5t164.5 62.5q63 0 100.5 -26t37.5 -79q0 -36 -20 -53t-45.5 -16t-53.5 12
q2 30 -11 54t-42 24q-41 -41 -41 -95q0 -49 38.5 -88t98.5 -39q18 0 45.5 5.5t34.5 5.5q28 0 39.5 -28t1.5 -56t-33 -29q-19 0 -66 -3t-112.5 -10t-113.5 -22t-48 -35z" />
    <glyph glyph-name="uniFEFA" unicode="&#xfee0;&#xfe88;" horiz-adv-x="1458" arabic-form="final" 
d="M1249 217h209v-217h-112q-111 0 -193 53q-66 -53 -158 -53h-794q-39 0 -69 28.5t-30 80.5t30.5 80t72.5 28h225v545q0 35 -6 62t-13 42.5t-19.5 28t-20.5 17t-20.5 10t-14.5 6.5q0 15 9 36t27 44t51 39t75 16q90 0 144 -68.5t54 -177.5v-600h211q42 0 65 34t23 99v701
q0 35 -6 62t-13 42.5t-19.5 28t-20.5 17t-20.5 10t-14.5 6.5q0 15 9 36t27 44t51 39t75 16q90 0 144.5 -69t54.5 -177v-776q0 -56 -13 -113zM670 -397q28 0 39.5 -28t1.5 -56t-33 -29q-19 0 -66 -3t-112.5 -10t-113.5 -22t-48 -35q-35 7 -50.5 42.5t10 68.5t93.5 33
q-32 14 -58 50.5t-26 84.5q0 74 56.5 136.5t164.5 62.5q63 0 100.5 -26t37.5 -79q0 -36 -20 -53t-45.5 -16t-53.5 12q2 30 -11 54t-42 24q-41 -41 -41 -95q0 -49 38.5 -88t98.5 -39q18 0 45.5 5.5t34.5 5.5z" />
    <glyph glyph-name="uniFEFB" unicode="&#xfedf;&#xfe8e;" horiz-adv-x="1394" arabic-form="isolated" 
d="M201 0q-39 0 -69 28.5t-30 80.5t30.5 80t72.5 28h225v545q0 35 -6 62t-13 42.5t-19.5 28t-20.5 17t-20.5 10t-14.5 6.5q0 15 9 36t27 44t51 39t75 16q90 0 144 -68.5t54 -177.5v-600h211q42 0 65 34t23 99v701q0 35 -6 62t-13 42.5t-19.5 28t-20.5 17t-20.5 10t-14.5 6.5
q0 15 9 36t27 44t51 39t75 16q90 0 144.5 -69t54.5 -177v-776q0 -90 -28 -163t-90 -120t-149 -47h-794z" />
    <glyph glyph-name="uniFEFC" unicode="&#xfee0;&#xfe8e;" horiz-adv-x="1458" arabic-form="final" 
d="M1249 217h209v-217h-112q-111 0 -193 53q-66 -53 -158 -53h-794q-39 0 -69 28.5t-30 80.5t30.5 80t72.5 28h225v545q0 35 -6 62t-13 42.5t-19.5 28t-20.5 17t-20.5 10t-14.5 6.5q0 15 9 36t27 44t51 39t75 16q90 0 144 -68.5t54 -177.5v-600h211q42 0 65 34t23 99v701
q0 35 -6 62t-13 42.5t-19.5 28t-20.5 17t-20.5 10t-14.5 6.5q0 15 9 36t27 44t51 39t75 16q90 0 144.5 -69t54.5 -177v-776q0 -56 -13 -113z" />
    <glyph glyph-name="uni06440671" unicode="&#xfedf;&#xfb51;" horiz-adv-x="1394" 
d="M293 1167q-19 0 -19 47.5t19 47.5h45q0 7 8 26.5t26 48t43 54t64.5 43.5t83.5 18q28 0 54 -6.5t51.5 -22t41 -46.5t15.5 -74q0 -71 -39 -103.5t-92 -32.5h-301zM383 1262h184q24 0 34.5 17t10.5 38q0 30 -23 48.5t-57 18.5q-54 0 -101.5 -42t-47.5 -80zM201 0
q-39 0 -69 28.5t-30 80.5t30.5 80t72.5 28h225v545q0 35 -6 62t-13 42.5t-19.5 28t-20.5 17t-20.5 10t-14.5 6.5q0 15 9 36t27 44t51 39t75 16q90 0 144 -68.5t54 -177.5v-600h211q42 0 65 34t23 99v701q0 35 -6 62t-13 42.5t-19.5 28t-20.5 17t-20.5 10t-14.5 6.5
q0 15 9 36t27 44t51 39t75 16q90 0 144.5 -69t54.5 -177v-776q0 -90 -28 -163t-90 -120t-149 -47h-794z" />
    <glyph glyph-name="uni06440671.fina" unicode="&#xfee0;&#xfb51;" horiz-adv-x="1458" 
d="M293 1167q-19 0 -19 47.5t19 47.5h45q0 7 8 26.5t26 48t43 54t64.5 43.5t83.5 18q28 0 54 -6.5t51.5 -22t41 -46.5t15.5 -74q0 -71 -39 -103.5t-92 -32.5h-301zM532 1384q-54 0 -101.5 -42t-47.5 -80h184q24 0 34.5 17t10.5 38q0 30 -23 48.5t-57 18.5zM1249 217h209
v-217h-112q-111 0 -193 53q-66 -53 -158 -53h-794q-39 0 -69 28.5t-30 80.5t30.5 80t72.5 28h225v545q0 35 -6 62t-13 42.5t-19.5 28t-20.5 17t-20.5 10t-14.5 6.5q0 15 9 36t27 44t51 39t75 16q90 0 144 -68.5t54 -177.5v-600h211q42 0 65 34t23 99v701q0 35 -6 62
t-13 42.5t-19.5 28t-20.5 17t-20.5 10t-14.5 6.5q0 15 9 36t27 44t51 39t75 16q90 0 144.5 -69t54.5 -177v-776q0 -56 -13 -113z" />
    <glyph glyph-name="uni066E.init" unicode="&#x66e;" horiz-adv-x="729" 
d="M0 0v217h188q60 0 101 80t41 231q0 78 -9 132t-31 91t-42 57.5t-58 49.5q0 41 43.5 83t122.5 42q117 0 178.5 -106t61.5 -291q0 -116 -24 -218.5t-71.5 -186t-126.5 -132.5t-181 -49h-193z" />
    <glyph glyph-name="uni066E.medi" unicode="&#x66e;" horiz-adv-x="745" 
d="M594 217h151v-217h-292q-107 0 -201 72q-46 -38 -85.5 -55t-98.5 -17h-68v217h68q54 0 92 15t80 47v569q0 55 32 95t101 40t101 -40.5t32 -98.5v-496q0 -131 88 -131z" />
    <glyph glyph-name="uni066E.fina" unicode="&#x66e;" horiz-adv-x="1761" 
d="M1487 217h274v-217h-176q-123 0 -217 70q-86 -70 -209 -70h-760q-133 0 -199.5 75.5t-66.5 209.5v467q0 55 32 95t101 40t101 -40.5t32 -98.5v-400q0 -131 88 -131h668q60 0 100.5 80t40.5 231q0 63 -7 111.5t-17.5 79t-31 58t-37 43t-46.5 38.5q0 41 43.5 83t122.5 42
q117 0 178.5 -106t61.5 -291q0 -214 -76 -369z" />
    <glyph glyph-name="uni066F.init" unicode="&#x66f;" horiz-adv-x="1116" 
d="M559 983q79 0 138.5 -9t115.5 -35.5t91.5 -71t57 -118.5t21.5 -176v-288q0 -134 -66.5 -209.5t-199.5 -75.5h-717v217h195q-27 50 -41.5 132.5t-14.5 164.5q0 90 14 162t36 120t56 83.5t68.5 55t80 31t82 14.5t83.5 3zM717 348v299q0 44 -24.5 72.5t-53.5 38.5t-59 10
q-78 0 -126 -75t-48 -185q0 -46 9.5 -94t29 -93.5t55.5 -74.5t82 -29h47q88 0 88 131z" />
    <glyph glyph-name="uni066F.medi" unicode="&#x66f;" horiz-adv-x="1159" 
d="M979 217h180v-217h-203q-64 0 -122 18q-50 -18 -117 -18h-717v217h195q-27 50 -41.5 132.5t-14.5 164.5q0 90 14 162t36 120t56 83.5t68.5 55t80 31t82 14.5t83.5 3q79 0 138.5 -9t115.5 -35.5t91.5 -71t57 -118.5t21.5 -176v-288q0 -28 -4 -68zM717 348v299
q0 44 -24.5 72.5t-53.5 38.5t-59 10q-78 0 -126 -75t-48 -185q0 -46 9.5 -94t29 -93.5t55.5 -74.5t82 -29h47q88 0 88 131z" />
    <glyph glyph-name="uni066F.fina" unicode="&#x66f;" horiz-adv-x="1937" 
d="M1937 217v-217h-206q-22 -110 -71 -193.5t-117.5 -138t-162 -89t-197.5 -48.5t-231 -14q-185 0 -328.5 30.5t-235 82.5t-150 127.5t-82 158t-23.5 180.5q0 82 16.5 158t48 138.5t82 100t113.5 37.5q55 0 88.5 -24t40.5 -55q-47 -47 -85 -144.5t-38 -220.5
q0 -83 24.5 -144t82.5 -109.5t162.5 -73.5t255.5 -25q491 0 526 266h-162q-383 0 -383 508q0 112 19 194.5t54 136.5t91 86t123 45t156 13q107 0 178 -19.5t123.5 -70t76 -138.5t23.5 -223v-315h188zM1171 508q0 -73 16 -135.5t57.5 -109t103.5 -46.5h135v430
q0 44 -24.5 72.5t-53.5 38.5t-59 10q-78 0 -126.5 -75t-48.5 -185z" />
    <glyph glyph-name="uni06A1.init" unicode="&#x6a1;" horiz-adv-x="1116" 
d="M559 983q79 0 138.5 -9t115.5 -35.5t91.5 -71t57 -118.5t21.5 -176v-288q0 -134 -66.5 -209.5t-199.5 -75.5h-717v217h195q-27 50 -41.5 132.5t-14.5 164.5q0 90 14 162t36 120t56 83.5t68.5 55t80 31t82 14.5t83.5 3zM717 348v299q0 44 -24.5 72.5t-53.5 38.5t-59 10
q-78 0 -126 -75t-48 -185q0 -46 9.5 -94t29 -93.5t55.5 -74.5t82 -29h47q88 0 88 131z" />
    <glyph glyph-name="uni06A1.medi" unicode="&#x6a1;" horiz-adv-x="1159" 
d="M979 217h180v-217h-203q-64 0 -122 18q-50 -18 -117 -18h-717v217h195q-27 50 -41.5 132.5t-14.5 164.5q0 90 14 162t36 120t56 83.5t68.5 55t80 31t82 14.5t83.5 3q79 0 138.5 -9t115.5 -35.5t91.5 -71t57 -118.5t21.5 -176v-288q0 -28 -4 -68zM717 348v299
q0 44 -24.5 72.5t-53.5 38.5t-59 10q-78 0 -126 -75t-48 -185q0 -46 9.5 -94t29 -93.5t55.5 -74.5t82 -29h47q88 0 88 131z" />
    <glyph glyph-name="uni06A1.fina" unicode="&#x6a1;" horiz-adv-x="2060" 
d="M1882 217h178v-217h-200q-64 0 -123 18q-49 -18 -117 -18h-1073q-414 0 -414 444q0 103 22 179t59.5 117t80.5 60t92 19q73 0 112.5 -37t43.5 -82q-53 -27 -98.5 -105.5t-45.5 -195.5q0 -97 43 -139.5t109 -42.5h547q-27 50 -41.5 132.5t-14.5 164.5q0 90 14 162t36 120
t56 83.5t68.5 55t80 31t82 14.5t83.5 3q79 0 138.5 -9t115.5 -35.5t91.5 -71t57 -118.5t21.5 -176v-288q0 -28 -4 -68zM1620 348v299q0 44 -24.5 72.5t-53.5 38.5t-59 10q-78 0 -126 -75t-48 -185q0 -46 9.5 -94t29 -93.5t55.5 -74.5t82 -29h47q88 0 88 131z" />
    <glyph glyph-name="uni06BA.init" unicode="&#x6ba;" horiz-adv-x="729" 
d="M0 0v217h188q60 0 101 80t41 231q0 78 -9 132t-31 91t-42 57.5t-58 49.5q0 41 43.5 83t122.5 42q117 0 178.5 -106t61.5 -291q0 -116 -24 -218.5t-71.5 -186t-126.5 -132.5t-181 -49h-193z" />
    <glyph glyph-name="uni06BA.medi" unicode="&#x6ba;" horiz-adv-x="745" 
d="M594 217h151v-217h-292q-107 0 -201 72q-46 -38 -85.5 -55t-98.5 -17h-68v217h68q54 0 92 15t80 47v569q0 55 32 95t101 40t101 -40.5t32 -98.5v-496q0 -131 88 -131z" />
    <glyph glyph-name="uni06C2.init" unicode="&#x6c2;" horiz-adv-x="729" 
d="M199 1200q-35 7 -50.5 42t10 68t93.5 33q-32 14 -58 51t-26 85q0 74 56 136t163 62q63 0 100 -25.5t37 -78.5q0 -37 -19.5 -53.5t-45 -15.5t-53.5 12q2 29 -11.5 53t-42.5 24q-39 -44 -39 -94q0 -49 38 -88t98 -39q18 0 45 5t34 5q28 0 40 -27.5t2 -55.5t-33 -29
q-19 0 -66 -3t-112 -10t-112.5 -22t-47.5 -35zM0 0v217h188q60 0 101 80t41 231q0 78 -9 132t-31 91t-42 57.5t-58 49.5q0 41 43.5 83t122.5 42q117 0 178.5 -106t61.5 -291q0 -116 -24 -218.5t-71.5 -186t-126.5 -132.5t-181 -49h-193zM297 -621q-64 0 -99.5 47t-35.5 113
q0 120 54 212.5t181 176.5l37 -49q-67 -44 -117.5 -109t-50.5 -147l31 6q59 0 92 -34t33 -91t-33 -91t-92 -34z" />
    <glyph glyph-name="uni06C2.medi" unicode="&#x6c2;" horiz-adv-x="1011" 
d="M328 741q-35 7 -50.5 42.5t10 68.5t93.5 33q-32 14 -58 50.5t-26 84.5q0 33 13 66.5t38 64t68.5 49.5t99.5 19q63 0 100 -26t37 -79q0 -37 -19.5 -53.5t-45 -15.5t-53.5 12q2 30 -11.5 54t-42.5 24q-39 -44 -39 -95q0 -49 38 -88t98 -39q18 0 45 5.5t34 5.5q28 0 40 -28
t2 -56t-33 -29q-19 0 -66 -3t-112 -10t-112.5 -22t-47.5 -35zM1012 215v-215h-109v-406q0 -41 -29 -69.5t-69 -28.5q-54 0 -107 3.5t-125 16.5t-134 34t-125 60t-107.5 90t-72.5 128.5t-28 171.5h-106v215h201q44 0 68.5 -27t29.5 -71q1 -10 3 -44t4 -59.5t10.5 -65t21 -69
t38 -62.5t59 -54t85.5 -34.5t117 -13.5v404q0 40 28 68t68 28h279z" />
    <glyph glyph-name="uni06C2.fina" unicode="&#x6c2;" horiz-adv-x="1095" 
d="M389 1098q-35 7 -50.5 42t10 68t93.5 33q-32 14 -58 50.5t-26 84.5q0 74 56.5 136.5t163.5 62.5q63 0 100 -26t37 -79q0 -36 -20 -53t-45.5 -16t-53.5 12q2 30 -11 54t-42 24q-39 -44 -39 -94q0 -49 37.5 -88t97.5 -39q18 0 45.5 5t34.5 5q28 0 39.5 -28t1.5 -56t-33 -29
q-19 0 -65.5 -3t-112 -10t-113 -21.5t-47.5 -34.5zM977 217h119v-217h-211q-102 0 -174 41q-78 -45 -191 -45q-387 0 -387 487q0 95 15 171t39.5 127.5t62 89.5t75 59t86.5 33.5t89.5 16t89.5 3.5q85 0 142.5 -11.5t107 -43.5t78 -89t44 -147t15.5 -219v-256zM399 496
q0 -47 4.5 -88t16 -88t38.5 -75t66 -28h187v428q0 64 -44 92.5t-104 28.5q-93 0 -128.5 -67.5t-35.5 -202.5z" />
    <glyph glyph-name="uni06C3.fina" unicode="&#x6c3;" horiz-adv-x="1370" 
d="M682 1126q-54 0 -93.5 39.5t-39.5 94.5t39.5 94t93.5 39q56 0 94.5 -38.5t38.5 -94.5t-39 -95t-94 -39zM1014 1126q-54 0 -93.5 39.5t-39.5 94.5t39.5 94t93.5 39q57 0 95 -38.5t38 -94.5t-38 -95t-95 -39zM1174 217h196v-217h-366q-41 0 -69 29t-28 69v668
q-241 -86 -374.5 -294t-133.5 -472h-266q0 174 47 329.5t131.5 273.5t196.5 204.5t246 131t276 44.5q81 0 112.5 -20t31.5 -78v-668z" />
    <glyph glyph-name="uniFB51" unicode="&#x671;" horiz-adv-x="653" arabic-form="final" 
d="M59 1311q-19 0 -19 47t19 47h45q0 7 8 26.5t26.5 48t43.5 54t64.5 43.5t83.5 18q28 0 54 -6.5t51.5 -22t41 -46.5t15.5 -74q0 -71 -39.5 -103t-92.5 -32h-301zM150 1405h184q24 0 34.5 17t10.5 38q0 30 -23 49t-57 19q-54 0 -101.5 -42.5t-47.5 -80.5zM463 0
q-87 0 -149 46.5t-89.5 119t-27.5 162.5v598q0 35 -6 62t-13.5 42.5t-20 28t-20 17t-20.5 10t-15 6.5q0 38 42 86.5t122 48.5q88 0 142.5 -69.5t54.5 -176.5v-633q0 -131 88 -131h102v-217h-190z" />
    <glyph glyph-name="uniFB57" unicode="&#x67e;" horiz-adv-x="1761" arabic-form="final" 
d="M1487 217h274v-217h-176q-123 0 -217 70q-86 -70 -209 -70h-760q-133 0 -199.5 75.5t-66.5 209.5v467q0 55 32 95t101 40t101 -40.5t32 -98.5v-400q0 -131 88 -131h668q60 0 100.5 80t40.5 231q0 63 -7 111.5t-17.5 79t-31 58t-37 43t-46.5 38.5q0 41 43.5 83t122.5 42
q117 0 178.5 -106t61.5 -291q0 -214 -76 -369zM815 -297q0 -55 -38.5 -94t-94.5 -39q-54 0 -93.5 39t-39.5 94t39.5 94t93.5 39q56 0 94.5 -39t38.5 -94zM1014 -164q57 0 95 -38.5t38 -94.5t-38 -94.5t-95 -38.5q-54 0 -93.5 39t-39.5 94t39.5 94t93.5 39zM848 -469
q51 0 87 -36t36 -87q0 -53 -35.5 -88t-87.5 -35q-54 0 -88.5 34.5t-34.5 88.5q0 52 35 87.5t88 35.5z" />
    <glyph glyph-name="uniFB58" unicode="&#x67e;" horiz-adv-x="729" arabic-form="initial" 
d="M0 0v217h188q60 0 101 80t41 231q0 78 -9 132t-31 91t-42 57.5t-58 49.5q0 41 43.5 83t122.5 42q117 0 178.5 -106t61.5 -291q0 -116 -24 -218.5t-71.5 -186t-126.5 -132.5t-181 -49h-193zM184 -430q-54 0 -93.5 39t-39.5 94t39.5 94t93.5 39q56 0 94.5 -39t38.5 -94
t-38.5 -94t-94.5 -39zM516 -430q-54 0 -93.5 39t-39.5 94t39.5 94t93.5 39q57 0 95 -38.5t38 -94.5t-38 -94.5t-95 -38.5zM350 -715q-54 0 -88.5 34.5t-34.5 88.5q0 52 35 87.5t88 35.5q51 0 87 -36t36 -87q0 -53 -35.5 -88t-87.5 -35z" />
    <glyph glyph-name="uniFB59" unicode="&#x67e;" horiz-adv-x="745" arabic-form="medial" 
d="M594 217h151v-217h-292q-107 0 -201 72q-46 -38 -85.5 -55t-98.5 -17h-68v217h68q54 0 92 15t80 47v569q0 55 32 95t101 40t101 -40.5t32 -98.5v-496q0 -131 88 -131zM340 -297q0 -55 -39 -94t-94 -39q-54 0 -93.5 39t-39.5 94t39.5 94t93.5 39q55 0 94 -39t39 -94z
M539 -164q57 0 95 -38.5t38 -94.5t-38 -94.5t-95 -38.5q-54 0 -93.5 39t-39.5 94t39.5 94t93.5 39zM373 -469q51 0 87 -36t36 -87q0 -53 -35.5 -88t-87.5 -35q-54 0 -88.5 34.5t-34.5 88.5q0 52 35 87.5t88 35.5z" />
    <glyph glyph-name="uniFB67" unicode="&#x679;" horiz-adv-x="1761" arabic-form="final" 
d="M635 1024q-19 0 -19 47t19 47h20v258q0 18 -7.5 29.5t-16.5 13.5q-2 14 8.5 25.5t34.5 11.5q31 0 42 -20t11 -56v-180q72 109 188 109q28 0 54 -7t51.5 -22.5t41 -46.5t15.5 -74q0 -71 -39 -103t-92 -32h-311zM885 1241q-55 0 -103.5 -42.5t-48.5 -80.5h187
q24 0 34.5 17.5t10.5 38.5q0 30 -23 48.5t-57 18.5zM1487 217h274v-217h-176q-123 0 -217 70q-86 -70 -209 -70h-760q-133 0 -199.5 75.5t-66.5 209.5v467q0 55 32 95t101 40t101 -40.5t32 -98.5v-400q0 -131 88 -131h668q60 0 100.5 80t40.5 231q0 63 -7 111.5t-17.5 79
t-31 58t-37 43t-46.5 38.5q0 41 43.5 83t122.5 42q117 0 178.5 -106t61.5 -291q0 -214 -76 -369z" />
    <glyph glyph-name="uniFB68" unicode="&#x679;" horiz-adv-x="729" arabic-form="initial" 
d="M145 1116q-19 0 -19 47t19 47h21v258q0 18 -8 29.5t-17 13.5q-2 14 8.5 25.5t34.5 11.5q54 0 54 -75v-181q72 109 188 109q28 0 54 -7t51.5 -22.5t41 -46.5t15.5 -74q0 -71 -39 -103t-92 -32h-312zM244 1210h186q24 0 34.5 17.5t10.5 38.5q0 30 -23 48.5t-57 18.5
q-55 0 -103 -42.5t-48 -80.5zM0 0v217h188q60 0 101 80t41 231q0 78 -9 132t-31 91t-42 57.5t-58 49.5q0 41 43.5 83t122.5 42q117 0 178.5 -106t61.5 -291q0 -116 -24 -218.5t-71.5 -186t-126.5 -132.5t-181 -49h-193z" />
    <glyph glyph-name="uniFB69" unicode="&#x679;" horiz-adv-x="745" arabic-form="medial" 
d="M160 1116q-19 0 -19 47t19 47h20v258q0 18 -7.5 29.5t-16.5 13.5q-2 14 8.5 25.5t34.5 11.5q31 0 42 -19.5t11 -55.5v-181q72 109 188 109q28 0 54 -7t51.5 -22.5t41 -46.5t15.5 -74q0 -71 -39 -103t-92 -32h-311zM410 1333q-55 0 -103.5 -42.5t-48.5 -80.5h186
q24 0 34.5 17.5t10.5 38.5q0 30 -22.5 48.5t-56.5 18.5zM594 217h151v-217h-292q-107 0 -201 72q-46 -38 -85.5 -55t-98.5 -17h-68v217h68q54 0 92 15t80 47v569q0 55 32 95t101 40t101 -40.5t32 -98.5v-496q0 -131 88 -131z" />
    <glyph glyph-name="uniFB6B" unicode="&#x6a4;" horiz-adv-x="2060" arabic-form="final" 
d="M1475 1421q-53 0 -88 35.5t-35 87.5q0 54 34.5 88.5t88.5 34.5q52 0 87 -35t35 -88q0 -51 -35.5 -87t-86.5 -36zM1309 1116q-54 0 -93.5 39t-39.5 94t39.5 94t93.5 39q55 0 94 -39t39 -94t-39 -94t-94 -39zM1507 1249q0 55 39.5 94t93.5 39q57 0 95.5 -38.5t38.5 -94.5
t-38.5 -94.5t-95.5 -38.5q-54 0 -93.5 39t-39.5 94zM1882 217h178v-217h-200q-64 0 -123 18q-49 -18 -117 -18h-1073q-414 0 -414 444q0 103 22 179t59.5 117t80.5 60t92 19q73 0 112.5 -37t43.5 -82q-53 -27 -98.5 -105.5t-45.5 -195.5q0 -97 43 -139.5t109 -42.5h547
q-27 50 -41.5 132.5t-14.5 164.5q0 90 14 162t36 120t56 83.5t68.5 55t80 31t82 14.5t83.5 3q79 0 138.5 -9t115.5 -35.5t91.5 -71t57 -118.5t21.5 -176v-288q0 -28 -4 -68zM1620 348v299q0 44 -24.5 72.5t-53.5 38.5t-59 10q-78 0 -126 -75t-48 -185q0 -46 9.5 -94
t29 -93.5t55.5 -74.5t82 -29h47q88 0 88 131z" />
    <glyph glyph-name="uniFB6C" unicode="&#x6a4;" horiz-adv-x="1116" arabic-form="initial" 
d="M571 1421q-53 0 -87.5 35.5t-34.5 87.5q0 54 34 88.5t88 34.5q52 0 87.5 -35t35.5 -88q0 -51 -36 -87t-87 -36zM406 1116q-54 0 -94 39t-40 94t40 94t94 39q56 0 94.5 -39t38.5 -94t-38.5 -94t-94.5 -39zM604 1249q0 55 39.5 94t93.5 39q57 0 95 -38.5t38 -94.5
t-38 -94.5t-95 -38.5q-54 0 -93.5 39t-39.5 94zM559 983q79 0 138.5 -9t115.5 -35.5t91.5 -71t57 -118.5t21.5 -176v-288q0 -134 -66.5 -209.5t-199.5 -75.5h-717v217h195q-27 50 -41.5 132.5t-14.5 164.5q0 90 14 162t36 120t56 83.5t68.5 55t80 31t82 14.5t83.5 3z
M717 348v299q0 44 -24.5 72.5t-53.5 38.5t-59 10q-78 0 -126 -75t-48 -185q0 -46 9.5 -94t29 -93.5t55.5 -74.5t82 -29h47q88 0 88 131z" />
    <glyph glyph-name="uniFB6D" unicode="&#x6a4;" horiz-adv-x="1159" arabic-form="medial" 
d="M578 1421q-53 0 -88 35.5t-35 87.5q0 54 34.5 88.5t88.5 34.5q52 0 87 -35t35 -88q0 -51 -35.5 -87t-86.5 -36zM412 1116q-54 0 -93.5 39t-39.5 94t39.5 94t93.5 39q56 0 94.5 -39t38.5 -94t-38.5 -94t-94.5 -39zM610 1249q0 55 39.5 94t93.5 39q57 0 95.5 -38.5
t38.5 -94.5t-38.5 -94.5t-95.5 -38.5q-54 0 -93.5 39t-39.5 94zM979 217h180v-217h-203q-64 0 -122 18q-50 -18 -117 -18h-717v217h195q-27 50 -41.5 132.5t-14.5 164.5q0 90 14 162t36 120t56 83.5t68.5 55t80 31t82 14.5t83.5 3q79 0 138.5 -9t115.5 -35.5t91.5 -71
t57 -118.5t21.5 -176v-288q0 -28 -4 -68zM717 348v299q0 44 -24.5 72.5t-53.5 38.5t-59 10q-78 0 -126 -75t-48 -185q0 -46 9.5 -94t29 -93.5t55.5 -74.5t82 -29h47q88 0 88 131z" />
    <glyph glyph-name="uniFB7B" unicode="&#x686;" horiz-adv-x="1374" arabic-form="final" 
d="M1178 217h196v-217h-100q-125 0 -213 68q-91 -68 -217 -68h-486q0 -182 48 -303.5t108 -159.5q-9 -31 -44.5 -56.5t-92.5 -25.5q-69 0 -119.5 39.5t-76 103t-37 127t-11.5 128.5q0 165 61.5 264.5t192.5 99.5h434q48 0 99 80.5t51 187.5q0 78 -31.5 136t-83 89t-107 45.5
t-114.5 14.5h-201q-48 0 -87 20.5t-62 53t-35 68.5t-12 71q0 39 15.5 58.5t35.5 17.5q14 -31 73.5 -56.5t155.5 -25.5q29 0 126 3t112 3q79 0 162 -32.5t155 -92t118 -154.5t46 -208q0 -153 -59 -279zM791 -242q0 -55 -39 -94t-95 -39q-54 0 -93.5 39t-39.5 94t39.5 94
t93.5 39q56 0 95 -39t39 -94zM989 -109q57 0 95 -38.5t38 -94.5t-38 -94.5t-95 -38.5q-54 0 -93.5 39t-39.5 94t39.5 94t93.5 39zM823 -414q51 0 87 -36t36 -87q0 -53 -35.5 -87.5t-87.5 -34.5q-54 0 -88.5 34t-34.5 88q0 52 35 87.5t88 35.5z" />
    <glyph glyph-name="uniFB7C" unicode="&#x686;" horiz-adv-x="1179" arabic-form="initial" 
d="M0 0v217h633q48 0 97.5 80t49.5 192q0 67 -21.5 118.5t-54.5 81.5t-79.5 49t-89.5 25.5t-91 6.5h-200q-96 0 -146.5 62t-50.5 151q0 39 15.5 58.5t35.5 17.5q14 -31 74 -56.5t156 -25.5q29 0 125.5 3t111.5 3q79 0 162 -32.5t155.5 -92t118.5 -154.5t46 -208
q0 -51 -8.5 -108t-34.5 -128.5t-67.5 -127t-115 -94t-168.5 -38.5h-653zM410 -430q-54 0 -94 39t-40 94t40 94t94 39q56 0 94.5 -39t38.5 -94t-38.5 -94t-94.5 -39zM741 -430q-54 0 -93.5 39t-39.5 94t39.5 94t93.5 39q57 0 95 -38.5t38 -94.5t-38 -94.5t-95 -38.5z
M575 -715q-54 0 -88 34.5t-34 88.5q0 52 34.5 87.5t87.5 35.5q51 0 87 -36t36 -87q0 -53 -35.5 -88t-87.5 -35z" />
    <glyph glyph-name="uniFB7D" unicode="&#x686;" horiz-adv-x="1130" arabic-form="medial" 
d="M987 217h143v-217h-47q-125 0 -213 68q-91 -68 -217 -68h-653v217h633q48 0 97.5 80t49.5 192q0 67 -21.5 118.5t-54.5 81.5t-79.5 49t-89.5 25.5t-91 6.5h-200q-96 0 -146.5 62t-50.5 151q0 39 15.5 58.5t35.5 17.5q14 -31 74 -56.5t156 -25.5q29 0 125.5 3t111.5 3
q79 0 162 -32.5t155.5 -92t118.5 -154.5t46 -208q0 -151 -60 -279zM543 -297q0 -55 -38.5 -94t-94.5 -39q-54 0 -94 39t-40 94t40 94t94 39q56 0 94.5 -39t38.5 -94zM741 -164q57 0 95 -38.5t38 -94.5t-38 -94.5t-95 -38.5q-54 0 -93.5 39t-39.5 94t39.5 94t93.5 39z
M575 -469q51 0 87 -36t36 -87q0 -53 -35.5 -88t-87.5 -35q-54 0 -88 34.5t-34 88.5q0 52 34.5 87.5t87.5 35.5z" />
    <glyph glyph-name="uniFB89" unicode="&#x688;" horiz-adv-x="1128" arabic-form="final" 
d="M317 1116q-19 0 -19 47t19 47h21v258q0 18 -8 29.5t-17 13.5q-2 14 8.5 25.5t34.5 11.5q54 0 54 -75v-181q72 109 188 109q28 0 54 -7t51.5 -22.5t41 -46.5t15.5 -74q0 -71 -39 -103t-92 -32h-312zM567 1333q-55 0 -103 -42.5t-48 -80.5h186q24 0 34.5 17.5t10.5 38.5
q0 30 -23 48.5t-57 18.5zM862 217h266v-217h-186q-123 0 -207 61q-80 -61 -200 -61h-316q-27 0 -46 12t-26.5 31t-10.5 34.5t-3 31.5t3 31.5t10.5 34.5t26.5 30.5t46 11.5h127q87 0 149.5 21t97.5 59t50.5 84.5t15.5 103.5q0 108 -47.5 190t-107.5 116q-36 4 -66 -37.5
t-30 -124.5q-75 -29 -129 -29q-59 0 -102.5 39.5t-43.5 112.5q0 55 28 98t68 67t90 40t87.5 21t66.5 5q50 0 108.5 -18.5t120 -58.5t111.5 -94t81.5 -133t31.5 -169q0 -157 -64 -293zM514 786h2h-2z" />
    <glyph glyph-name="uniFB8B" unicode="&#x698;" horiz-adv-x="759" arabic-form="final" 
d="M430 1421q-53 0 -88 35.5t-35 87.5q0 54 34.5 88.5t88.5 34.5q52 0 87.5 -35t35.5 -88q0 -51 -36 -87t-87 -36zM264 1116q-54 0 -93.5 39t-39.5 94t39.5 94t93.5 39q56 0 94.5 -39t38.5 -94t-38.5 -94t-94.5 -39zM463 1249q0 55 39.5 94t93.5 39q57 0 95 -38.5t38 -94.5
t-38 -94.5t-95 -38.5q-54 0 -93.5 39t-39.5 94zM760 217v-217h-197v-98q0 -43 -6.5 -85.5t-30 -96.5t-61 -94t-106 -67.5t-158.5 -27.5q-87 0 -150 26t-94 68t-42.5 88.5t-4.5 93.5q37 -30 100 -54.5t125 -24.5q41 0 75.5 10.5t60.5 40t26 74.5v1003q0 58 37 92.5t96 34.5
t96 -35t37 -96v-635h197z" />
    <glyph glyph-name="uniFB8D" unicode="&#x691;" horiz-adv-x="759" arabic-form="final" 
d="M217 1116q-19 0 -19 47t19 47h21v258q0 18 -8 29.5t-17 13.5q-2 14 8.5 25.5t34.5 11.5q31 0 42 -19.5t11 -55.5v-181q72 109 189 109q28 0 53.5 -7t51 -22.5t41 -46.5t15.5 -74q0 -71 -39 -103t-92 -32h-311zM467 1333q-55 0 -103.5 -42.5t-48.5 -80.5h187
q24 0 34.5 17.5t10.5 38.5q0 30 -23 48.5t-57 18.5zM760 217v-217h-197v-98q0 -43 -6.5 -85.5t-30 -96.5t-61 -94t-106 -67.5t-158.5 -27.5q-87 0 -150 26t-94 68t-42.5 88.5t-4.5 93.5q37 -30 100 -54.5t125 -24.5q41 0 75.5 10.5t60.5 40t26 74.5v1003q0 58 37 92.5
t96 34.5t96 -35t37 -96v-635h197z" />
    <glyph glyph-name="uniFB8F" unicode="&#x6a9;" horiz-adv-x="1861" arabic-form="final" 
d="M1561 217h301v-217h-226q-109 0 -186 49q-67 -49 -170 -49h-881q-87 0 -149 46.5t-89.5 119t-27.5 162.5v190q0 55 32 95t101 40t101 -40.5t32 -98.5v-166q0 -131 88 -131h705q58 0 88.5 39.5t30.5 101.5q0 142 -162 142h-219q-163 0 -250.5 94t-87.5 252q0 368 479 368
q39 0 180 -6q96 0 156 25.5t74 56.5q51 0 51 -82q0 -83 -51.5 -147t-145.5 -64h-274q-102 0 -152.5 -41t-50.5 -106q0 -57 39 -95t109 -38h163q408 0 408 -365q0 -69 -16 -135z" />
    <glyph glyph-name="uniFB90" unicode="&#x6a9;" horiz-adv-x="1261" arabic-form="initial" 
d="M0 0v217h743q58 0 88.5 39.5t30.5 101.5q0 142 -162 142h-219q-163 0 -250.5 94t-87.5 252q0 368 480 368q39 0 180 -6q96 0 155.5 25.5t73.5 56.5q51 0 51 -82q0 -84 -51 -147.5t-145 -63.5h-275q-102 0 -152 -41t-50 -106q0 -57 38.5 -95t108.5 -38h164q407 0 407 -365
q0 -162 -76.5 -257t-220.5 -95h-831z" />
    <glyph glyph-name="uniFB91" unicode="&#x6a9;" horiz-adv-x="1595" arabic-form="medial" 
d="M1112 217h483v-217h-471q-81 0 -151 31q-64 -31 -142 -31h-831v217h743q58 0 88.5 39.5t30.5 101.5q0 142 -162 142h-219q-163 0 -250.5 94t-87.5 252q0 368 480 368q39 0 180 -6q96 0 155.5 25.5t73.5 56.5q51 0 51 -82q0 -84 -51 -147.5t-145 -63.5h-275
q-102 0 -152 -41t-50 -106q0 -57 38.5 -95t108.5 -38h164q407 0 407 -365q0 -69 -16 -135z" />
    <glyph glyph-name="uniFB93" unicode="&#x6af;" horiz-adv-x="1861" arabic-form="final" 
d="M788 1264q-51 0 -51 82q0 83 51.5 146.5t145.5 63.5q16 0 62.5 -1t114 -2.5t103.5 -2.5q96 0 156 25.5t74 56.5q51 0 51 -82q0 -83 -51.5 -147t-145.5 -64q-16 0 -63.5 1.5t-112 3t-104.5 2.5q-96 0 -156 -25.5t-74 -56.5zM1561 217h301v-217h-226q-109 0 -186 49
q-67 -49 -170 -49h-881q-87 0 -149 46.5t-89.5 119t-27.5 162.5v190q0 55 32 95t101 40t101 -40.5t32 -98.5v-166q0 -131 88 -131h705q58 0 88.5 39.5t30.5 101.5q0 142 -162 142h-219q-163 0 -250.5 94t-87.5 252q0 368 479 368q39 0 180 -6q96 0 156 25.5t74 56.5
q51 0 51 -82q0 -83 -51.5 -147t-145.5 -64h-274q-102 0 -152.5 -41t-50.5 -106q0 -57 39 -95t109 -38h163q408 0 408 -365q0 -69 -16 -135z" />
    <glyph glyph-name="uniFB94" unicode="&#x6af;" horiz-adv-x="1200" arabic-form="initial" 
d="M236 1264q-52 0 -52 82q0 83 51.5 146.5t145.5 63.5q16 0 63 -1t114.5 -2.5t103.5 -2.5q96 0 155.5 25.5t73.5 56.5q51 0 51 -82q0 -83 -51.5 -147t-145.5 -64q-16 0 -63.5 1.5t-112 3t-104.5 2.5q-96 0 -155.5 -25.5t-73.5 -56.5zM0 0v217h743q58 0 88.5 39.5
t30.5 101.5q0 142 -162 142h-219q-163 0 -250.5 94t-87.5 252q0 368 480 368q39 0 180 -6q96 0 155.5 25.5t73.5 56.5q51 0 51 -82q0 -84 -51 -147.5t-145 -63.5h-275q-102 0 -152 -41t-50 -106q0 -57 38.5 -95t108.5 -38h164q407 0 407 -365q0 -162 -76.5 -257t-220.5 -95
h-831z" />
    <glyph glyph-name="uniFB95" unicode="&#x6af;" horiz-adv-x="1595" arabic-form="medial" 
d="M236 1264q-52 0 -52 82q0 83 51.5 146.5t145.5 63.5q16 0 63 -1t114.5 -2.5t103.5 -2.5q96 0 155.5 25.5t73.5 56.5q51 0 51 -82q0 -83 -51.5 -147t-145.5 -64q-16 0 -63.5 1.5t-112 3t-104.5 2.5q-96 0 -155.5 -25.5t-73.5 -56.5zM1112 217h483v-217h-471q-81 0 -151 31
q-64 -31 -142 -31h-831v217h743q58 0 88.5 39.5t30.5 101.5q0 142 -162 142h-219q-163 0 -250.5 94t-87.5 252q0 368 480 368q39 0 180 -6q96 0 155.5 25.5t73.5 56.5q51 0 51 -82q0 -84 -51 -147.5t-145 -63.5h-275q-102 0 -152 -41t-50 -106q0 -57 38.5 -95t108.5 -38h164
q407 0 407 -365q0 -69 -16 -135z" />
    <glyph glyph-name="uniFB9F" unicode="&#x6ba;" horiz-adv-x="1513" arabic-form="final" 
d="M1317 217h196v-217h-32q-87 0 -164 45q-14 -528 -569 -528q-299 0 -457 149t-158 426q0 55 6 105t23 103t44 91.5t72.5 63t104.5 24.5q53 0 97 -17t65 -38q-54 -38 -99 -131.5t-45 -216.5q0 -166 94.5 -255t249.5 -89q69 0 123.5 19t88 48.5t55.5 70.5t30.5 81.5
t8.5 83.5v813q0 55 32 95t101 40t101 -40.5t32 -98.5v-627z" />
    <glyph glyph-name="uniFBA7" unicode="&#x6c1;" horiz-adv-x="1370" arabic-form="final" 
d="M1174 217h196v-217h-366q-41 0 -69 29t-28 69v668q-241 -86 -374.5 -294t-133.5 -472h-266q0 174 47 329.5t131.5 273.5t196.5 204.5t246 131t276 44.5q81 0 112.5 -20t31.5 -78v-668z" />
    <glyph glyph-name="uniFBA8" unicode="&#x6c1;" horiz-adv-x="729" arabic-form="initial" 
d="M0 0v217h188q60 0 101 80t41 231q0 78 -9 132t-31 91t-42 57.5t-58 49.5q0 41 43.5 83t122.5 42q117 0 178.5 -106t61.5 -291q0 -116 -24 -218.5t-71.5 -186t-126.5 -132.5t-181 -49h-193zM297 -621q-64 0 -99.5 47t-35.5 113q0 120 54 212.5t181 176.5l37 -49
q-67 -44 -117.5 -109t-50.5 -147l31 6q59 0 92 -34t33 -91t-33 -91t-92 -34z" />
    <glyph glyph-name="uniFBA9" unicode="&#x6c1;" horiz-adv-x="1011" arabic-form="medial" 
d="M1012 215v-215h-109v-406q0 -41 -29 -69.5t-69 -28.5q-54 0 -107 3.5t-125 16.5t-134 34t-125 60t-107.5 90t-72.5 128.5t-28 171.5h-106v215h201q44 0 68.5 -27t29.5 -71q1 -10 3 -44t4 -59.5t10.5 -65t21 -69t38 -62.5t59 -54t85.5 -34.5t117 -13.5v404q0 40 28 68
t68 28h279z" />
    <glyph glyph-name="uniFBAB" unicode="&#x6be;" horiz-adv-x="1628" arabic-form="final" 
d="M1376 217h252v-217h-221q-117 0 -211 61l8 9q-137 -70 -336 -70q-49 0 -96 5t-71 10t-68.5 16t-57.5 14q-61 -31 -128 -38t-240 -7h-74v217h51q64 -35 131 -35q36 0 62 11q-36 56 -57 140t-21 167q0 54 9 105t29.5 100t51.5 85t79 58t107 22q73 0 130 -33.5t89 -88
t48 -116t16 -126.5q0 -97 -30 -204t-60 -140q30 -6 80 -6q64 0 115 10t99 37t80 71t51 115.5t19 167.5q0 118 -28 209t-75.5 144.5t-104.5 80.5t-121 27h-301q-62 0 -110 20.5t-74 53t-43 74t-16.5 83.5t5.5 80q14 -36 93.5 -65t215.5 -29q45 0 195.5 4t163.5 4
q55 0 116 -22.5t124 -74t113 -124t82 -183.5t32 -241q0 -236 -103 -381zM575 227q20 20 43 102.5t23 151.5q0 68 -21.5 121t-44.5 53t-41 -51.5t-18 -124.5q0 -75 19.5 -149t39.5 -103z" />
    <glyph glyph-name="uniFBAC" unicode="&#x6be;" horiz-adv-x="1478" arabic-form="initial" 
d="M879 1243q55 0 116 -22.5t124 -74t113 -124t82 -183.5t32 -241q0 -293 -157.5 -445.5t-453.5 -152.5q-49 0 -96 5t-71 10t-68.5 16t-57.5 14q-61 -31 -128.5 -38t-239.5 -7h-74v217h51q64 -35 131 -35q36 0 62 11q-36 56 -57 140t-21 167q0 54 9 105t29.5 100t51.5 85
t79 58t107 22q73 0 130 -33.5t89 -88t48 -116t16 -126.5q0 -97 -30 -204t-60 -140q30 -6 80 -6q64 0 115 10t99 37t80 71t51 115.5t19 167.5q0 118 -28 209t-75.5 144.5t-104.5 80.5t-121 27h-301q-62 0 -110 20.5t-74 53t-43 74t-16.5 83.5t5.5 80q14 -36 93.5 -65
t215.5 -29q45 0 195.5 4t163.5 4zM442 227q20 20 43 102.5t23 151.5q0 68 -21.5 121t-44.5 53t-41 -51.5t-18 -124.5q0 -75 19.5 -149t39.5 -103z" />
    <glyph glyph-name="uniFBAD" unicode="&#x6be;" horiz-adv-x="1464" arabic-form="medial" 
d="M1243 217h221v-217h-190q-122 0 -211 61l8 9q-137 -70 -336 -70q-49 0 -96 5t-71 10t-68.5 16t-57.5 14q-61 -31 -128.5 -38t-239.5 -7h-74v217h51q64 -35 131 -35q36 0 62 11q-36 56 -57 140t-21 167q0 54 9 105t29.5 100t51.5 85t79 58t107 22q73 0 130 -33.5t89 -88
t48 -116t16 -126.5q0 -97 -30 -204t-60 -140q30 -6 80 -6q64 0 115 10t99 37t80 71t51 115.5t19 167.5q0 118 -28 209t-75.5 144.5t-104.5 80.5t-121 27h-301q-62 0 -110 20.5t-74 53t-43 74t-16.5 83.5t5.5 80q14 -36 93.5 -65t215.5 -29q45 0 195.5 4t163.5 4
q55 0 116 -22.5t124 -74t113 -124t82 -183.5t32 -241q0 -236 -103 -381zM442 227q20 20 43 102.5t23 151.5q0 68 -21.5 121t-44.5 53t-41 -51.5t-18 -124.5q0 -75 19.5 -149t39.5 -103z" />
    <glyph glyph-name="uniFBAF" unicode="&#x6d2;" horiz-adv-x="933" arabic-form="final" 
d="M526 -483q-33 0 -75.5 7t-100.5 30.5t-104.5 60t-79.5 103t-33 151.5q0 72 22.5 130t60.5 94.5t81 62.5t89.5 38.5t80 17.5t59.5 5h408v-217h-412h-3q-15 1 -28 0.5t-41 -7t-47.5 -18.5t-35 -39.5t-15.5 -66.5q0 -43 18 -72.5t48 -42.5t55 -17.5t53 -4.5h672v-215h-672z
" />
    <glyph glyph-name="uniFBB1" unicode="&#x6d3;" horiz-adv-x="933" arabic-form="final" 
d="M264 330q-35 7 -50.5 42t10 68t93.5 33q-32 14 -58 50.5t-26 84.5q0 74 56.5 136.5t163.5 62.5q63 0 100 -26t37 -79q0 -36 -20 -53t-45.5 -16t-53.5 12q2 30 -11 54t-42 24q-39 -44 -39 -94q0 -49 37.5 -88t97.5 -39q18 0 45.5 5t34.5 5q28 0 39.5 -28t1.5 -56t-33 -29
q-19 0 -65.5 -3t-112 -10t-113 -21.5t-47.5 -34.5zM526 -483q-33 0 -75.5 7t-100.5 30.5t-104.5 60t-79.5 103t-33 151.5q0 72 22.5 130t60.5 94.5t81 62.5t89.5 38.5t80 17.5t59.5 5h408v-217h-412h-3q-15 1 -28 0.5t-41 -7t-47.5 -18.5t-35 -39.5t-15.5 -66.5
q0 -43 18 -72.5t48 -42.5t55 -17.5t53 -4.5h672v-215h-672z" />
    <glyph glyph-name="uniFBE8" unicode="&#x649;" horiz-adv-x="729" arabic-form="initial" 
d="M0 0v217h188q60 0 101 80t41 231q0 78 -9 132t-31 91t-42 57.5t-58 49.5q0 41 43.5 83t122.5 42q117 0 178.5 -106t61.5 -291q0 -116 -24 -218.5t-71.5 -186t-126.5 -132.5t-181 -49h-193z" />
    <glyph glyph-name="uniFBE9" unicode="&#x649;" horiz-adv-x="745" arabic-form="medial" 
d="M594 217h151v-217h-292q-107 0 -201 72q-46 -38 -85.5 -55t-98.5 -17h-68v217h68q54 0 92 15t80 47v569q0 55 32 95t101 40t101 -40.5t32 -98.5v-496q0 -131 88 -131z" />
    <glyph glyph-name="uniFBFD" unicode="&#x6cc;" horiz-adv-x="1931" arabic-form="final" 
d="M889 -483q-136 0 -247 20.5t-185.5 54t-130 83t-86.5 99t-50 110.5t-24.5 110.5t-5.5 105.5q0 102 19 181.5t47.5 125t66 74.5t70.5 39t65 10q64 0 99 -36t40 -82q-54 -43 -97.5 -132.5t-43.5 -199.5q0 -346 485 -346q128 0 224 22.5t150 61.5t80 84.5t26 97.5h-41
q-70 0 -119.5 19t-73 49.5t-31 69t-0.5 77t25 74.5q26 -28 78.5 -50t118.5 -22h583v-217h-272q0 -71 -20 -135.5t-72 -129.5t-131.5 -112t-208.5 -76.5t-293 -29.5h-45z" />
    <glyph glyph-name="uniFBFE" unicode="&#x6cc;" horiz-adv-x="729" arabic-form="initial" 
d="M0 0v217h188q60 0 101 80t41 231q0 78 -9 132t-31 91t-42 57.5t-58 49.5q0 41 43.5 83t122.5 42q117 0 178.5 -106t61.5 -291q0 -116 -24 -218.5t-71.5 -186t-126.5 -132.5t-181 -49h-193zM184 -440q-54 0 -93.5 39t-39.5 94t39.5 94t93.5 39q56 0 94.5 -39t38.5 -94
t-38.5 -94t-94.5 -39zM516 -440q-54 0 -93.5 39t-39.5 94t39.5 94t93.5 39q57 0 95 -38.5t38 -94.5t-38 -94.5t-95 -38.5z" />
    <glyph glyph-name="uniFBFF" unicode="&#x6cc;" horiz-adv-x="745" arabic-form="medial" 
d="M594 217h151v-217h-292q-107 0 -201 72q-46 -38 -85.5 -55t-98.5 -17h-68v217h68q54 0 92 15t80 47v569q0 55 32 95t101 40t101 -40.5t32 -98.5v-496q0 -131 88 -131zM207 -174q55 0 94 -39t39 -94t-39 -94t-94 -39q-54 0 -93.5 39t-39.5 94t39.5 94t93.5 39zM539 -174
q57 0 95 -38.5t38 -94.5t-38 -94.5t-95 -38.5q-54 0 -93.5 39t-39.5 94t39.5 94t93.5 39z" />
    <glyph glyph-name="uniFC64" unicode="&#xfc64;" horiz-adv-x="1456" arabic-form="final" 
d="M973 1098q-35 7 -50.5 42t10 68t93.5 33q-32 14 -58 50.5t-26 84.5q0 33 13 66.5t38 64t68.5 49.5t99.5 19q63 0 100 -26t37 -79q0 -37 -19.5 -53.5t-45 -15.5t-53.5 12q2 30 -11.5 54t-42.5 24q-39 -44 -39 -94q0 -49 38 -88t98 -39q18 0 45.5 5t34.5 5q28 0 39.5 -28
t1.5 -56t-33 -29q-19 0 -65.5 -3t-112 -10t-113 -21.5t-47.5 -34.5zM1354 217h102v-217h-190q-87 0 -149 46.5t-90 119t-28 162.5v438q-142 -1 -260 -39.5t-176 -85.5v-739q0 -43 -6.5 -85.5t-30 -96.5t-61 -94t-106 -67.5t-158.5 -27.5q-87 0 -150 26t-94 68t-42.5 88.5
t-4.5 93.5q37 -30 100 -54.5t125 -24.5q41 0 75.5 10.5t60.5 40t26 74.5v841q25 50 80 98.5t138.5 92.5t205.5 71t262 27q51 0 87.5 -4t76 -18.5t63.5 -40t40 -71.5t16 -110v-391q0 -131 88 -131z" />
    <glyph glyph-name="uniFC65" unicode="&#xfc65;" horiz-adv-x="1456" arabic-form="final" 
d="M973 1098q-35 7 -50.5 42t10 68t93.5 33q-32 14 -58 50.5t-26 84.5q0 33 13 66.5t38 64t68.5 49.5t99.5 19q63 0 100 -26t37 -79q0 -37 -19.5 -53.5t-45 -15.5t-53.5 12q2 30 -11.5 54t-42.5 24q-39 -44 -39 -94q0 -49 38 -88t98 -39q18 0 45.5 5t34.5 5q28 0 39.5 -28
t1.5 -56t-33 -29q-19 0 -65.5 -3t-112 -10t-113 -21.5t-47.5 -34.5zM432 1116q-63 0 -107 44t-44 104q0 61 44 104t107 43q60 0 104 -43t44 -104q0 -60 -44 -104t-104 -44zM1354 217h102v-217h-190q-87 0 -149 46.5t-90 119t-28 162.5v438q-142 -1 -260 -39.5t-176 -85.5
v-739q0 -43 -6.5 -85.5t-30 -96.5t-61 -94t-106 -67.5t-158.5 -27.5q-87 0 -150 26t-94 68t-42.5 88.5t-4.5 93.5q37 -30 100 -54.5t125 -24.5q41 0 75.5 10.5t60.5 40t26 74.5v841q25 50 80 98.5t138.5 92.5t205.5 71t262 27q51 0 87.5 -4t76 -18.5t63.5 -40t40 -71.5
t16 -110v-391q0 -131 88 -131z" />
    <glyph glyph-name="uniFC6A" unicode="&#xfc6a;" horiz-adv-x="1456" arabic-form="final" 
d="M1354 217h102v-217h-190q-87 0 -149 46.5t-90 119t-28 162.5v438q-142 -1 -260 -39.5t-176 -85.5v-739q0 -43 -6.5 -85.5t-30 -96.5t-61 -94t-106 -67.5t-158.5 -27.5q-87 0 -150 26t-94 68t-42.5 88.5t-4.5 93.5q37 -30 100 -54.5t125 -24.5q41 0 75.5 10.5t60.5 40
t26 74.5v841q25 50 80 98.5t138.5 92.5t205.5 71t262 27q51 0 87.5 -4t76 -18.5t63.5 -40t40 -71.5t16 -110v-391q0 -131 88 -131zM1135 -164q60 0 103.5 -43t43.5 -104q0 -60 -43.5 -104t-103.5 -44q-63 0 -107.5 44t-44.5 104q0 61 44.5 104t107.5 43z" />
    <glyph glyph-name="uniFC6B" unicode="&#xfc6b;" horiz-adv-x="1456" arabic-form="final" 
d="M432 1116q-63 0 -107 44t-44 104q0 61 44 104t107 43q60 0 104 -43t44 -104q0 -60 -44 -104t-104 -44zM1354 217h102v-217h-190q-87 0 -149 46.5t-90 119t-28 162.5v438q-142 -1 -260 -39.5t-176 -85.5v-739q0 -43 -6.5 -85.5t-30 -96.5t-61 -94t-106 -67.5t-158.5 -27.5
q-87 0 -150 26t-94 68t-42.5 88.5t-4.5 93.5q37 -30 100 -54.5t125 -24.5q41 0 75.5 10.5t60.5 40t26 74.5v841q25 50 80 98.5t138.5 92.5t205.5 71t262 27q51 0 87.5 -4t76 -18.5t63.5 -40t40 -71.5t16 -110v-391q0 -131 88 -131zM1135 -164q60 0 103.5 -43t43.5 -104
q0 -60 -43.5 -104t-103.5 -44q-63 0 -107.5 44t-44.5 104q0 61 44.5 104t107.5 43z" />
    <glyph glyph-name="uniFC70" unicode="&#xfc70;" horiz-adv-x="1456" arabic-form="final" 
d="M967 1126q-54 0 -93.5 39.5t-39.5 94.5t39.5 94t93.5 39q55 0 94 -38.5t39 -94.5t-39 -95t-94 -39zM1298 1126q-54 0 -93.5 39.5t-39.5 94.5t39.5 94t93.5 39q57 0 95.5 -38.5t38.5 -94.5t-38.5 -95t-95.5 -39zM1354 217h102v-217h-190q-87 0 -149 46.5t-90 119
t-28 162.5v438q-142 -1 -260 -39.5t-176 -85.5v-739q0 -43 -6.5 -85.5t-30 -96.5t-61 -94t-106 -67.5t-158.5 -27.5q-87 0 -150 26t-94 68t-42.5 88.5t-4.5 93.5q37 -30 100 -54.5t125 -24.5q41 0 75.5 10.5t60.5 40t26 74.5v841q25 50 80 98.5t138.5 92.5t205.5 71t262 27
q51 0 87.5 -4t76 -18.5t63.5 -40t40 -71.5t16 -110v-391q0 -131 88 -131z" />
    <glyph glyph-name="uniFC71" unicode="&#xfc71;" horiz-adv-x="1456" arabic-form="final" 
d="M432 1116q-63 0 -107 44t-44 104q0 61 44 104t107 43q60 0 104 -43t44 -104q0 -60 -44 -104t-104 -44zM967 1126q-54 0 -93.5 39.5t-39.5 94.5t39.5 94t93.5 39q55 0 94 -38.5t39 -94.5t-39 -95t-94 -39zM1298 1126q-54 0 -93.5 39.5t-39.5 94.5t39.5 94t93.5 39
q57 0 95.5 -38.5t38.5 -94.5t-38.5 -95t-95.5 -39zM1354 217h102v-217h-190q-87 0 -149 46.5t-90 119t-28 162.5v438q-142 -1 -260 -39.5t-176 -85.5v-739q0 -43 -6.5 -85.5t-30 -96.5t-61 -94t-106 -67.5t-158.5 -27.5q-87 0 -150 26t-94 68t-42.5 88.5t-4.5 93.5
q37 -30 100 -54.5t125 -24.5q41 0 75.5 10.5t60.5 40t26 74.5v841q25 50 80 98.5t138.5 92.5t205.5 71t262 27q51 0 87.5 -4t76 -18.5t63.5 -40t40 -71.5t16 -110v-391q0 -131 88 -131z" />
    <glyph glyph-name="uniFC76" unicode="&#xfc76;" horiz-adv-x="1456" arabic-form="final" 
d="M1133 1421q-53 0 -88 35.5t-35 87.5q0 54 34.5 88.5t88.5 34.5q52 0 87 -35t35 -88q0 -51 -35.5 -87t-86.5 -36zM967 1116q-54 0 -93.5 39t-39.5 94t39.5 94t93.5 39q55 0 94 -39t39 -94t-39 -94t-94 -39zM1165 1249q0 55 39.5 94t93.5 39q57 0 95.5 -38.5t38.5 -94.5
t-38.5 -94.5t-95.5 -38.5q-54 0 -93.5 39t-39.5 94zM1354 217h102v-217h-190q-87 0 -149 46.5t-90 119t-28 162.5v438q-142 -1 -260 -39.5t-176 -85.5v-739q0 -43 -6.5 -85.5t-30 -96.5t-61 -94t-106 -67.5t-158.5 -27.5q-87 0 -150 26t-94 68t-42.5 88.5t-4.5 93.5
q37 -30 100 -54.5t125 -24.5q41 0 75.5 10.5t60.5 40t26 74.5v841q25 50 80 98.5t138.5 92.5t205.5 71t262 27q51 0 87.5 -4t76 -18.5t63.5 -40t40 -71.5t16 -110v-391q0 -131 88 -131z" />
    <glyph glyph-name="uniFC77" unicode="&#xfc77;" horiz-adv-x="1456" arabic-form="final" 
d="M1133 1421q-53 0 -88 35.5t-35 87.5q0 54 34.5 88.5t88.5 34.5q52 0 87 -35t35 -88q0 -51 -35.5 -87t-86.5 -36zM432 1116q-63 0 -107 44t-44 104q0 61 44 104t107 43q60 0 104 -43t44 -104q0 -60 -44 -104t-104 -44zM967 1116q-54 0 -93.5 39t-39.5 94t39.5 94t93.5 39
q55 0 94 -39t39 -94t-39 -94t-94 -39zM1165 1249q0 55 39.5 94t93.5 39q57 0 95.5 -38.5t38.5 -94.5t-38.5 -94.5t-95.5 -38.5q-54 0 -93.5 39t-39.5 94zM1354 217h102v-217h-190q-87 0 -149 46.5t-90 119t-28 162.5v438q-142 -1 -260 -39.5t-176 -85.5v-739
q0 -43 -6.5 -85.5t-30 -96.5t-61 -94t-106 -67.5t-158.5 -27.5q-87 0 -150 26t-94 68t-42.5 88.5t-4.5 93.5q37 -30 100 -54.5t125 -24.5q41 0 75.5 10.5t60.5 40t26 74.5v841q25 50 80 98.5t138.5 92.5t205.5 71t262 27q51 0 87.5 -4t76 -18.5t63.5 -40t40 -71.5t16 -110
v-391q0 -131 88 -131z" />
    <glyph glyph-name="uniFC8A" unicode="&#xfc8a;" horiz-adv-x="1456" arabic-form="final" 
d="M1135 1116q-63 0 -107.5 44t-44.5 104q0 61 44.5 104t107.5 43q60 0 103.5 -43t43.5 -104q0 -60 -43.5 -104t-103.5 -44zM1354 217h102v-217h-190q-87 0 -149 46.5t-90 119t-28 162.5v438q-142 -1 -260 -39.5t-176 -85.5v-739q0 -43 -6.5 -85.5t-30 -96.5t-61 -94
t-106 -67.5t-158.5 -27.5q-87 0 -150 26t-94 68t-42.5 88.5t-4.5 93.5q37 -30 100 -54.5t125 -24.5q41 0 75.5 10.5t60.5 40t26 74.5v841q25 50 80 98.5t138.5 92.5t205.5 71t262 27q51 0 87.5 -4t76 -18.5t63.5 -40t40 -71.5t16 -110v-391q0 -131 88 -131z" />
    <glyph glyph-name="uniFC8B" unicode="&#xfc8b;" horiz-adv-x="1456" arabic-form="final" 
d="M432 1116q-63 0 -107 44t-44 104q0 61 44 104t107 43q60 0 104 -43t44 -104q0 -60 -44 -104t-104 -44zM1135 1116q-63 0 -107.5 44t-44.5 104q0 61 44.5 104t107.5 43q60 0 103.5 -43t43.5 -104q0 -60 -43.5 -104t-103.5 -44zM1354 217h102v-217h-190q-87 0 -149 46.5
t-90 119t-28 162.5v438q-142 -1 -260 -39.5t-176 -85.5v-739q0 -43 -6.5 -85.5t-30 -96.5t-61 -94t-106 -67.5t-158.5 -27.5q-87 0 -150 26t-94 68t-42.5 88.5t-4.5 93.5q37 -30 100 -54.5t125 -24.5q41 0 75.5 10.5t60.5 40t26 74.5v841q25 50 80 98.5t138.5 92.5t205.5 71
t262 27q51 0 87.5 -4t76 -18.5t63.5 -40t40 -71.5t16 -110v-391q0 -131 88 -131z" />
    <glyph glyph-name="uniFC91" unicode="&#xfc91;" horiz-adv-x="1456" arabic-form="final" 
d="M1354 217h102v-217h-190q-87 0 -149 46.5t-90 119t-28 162.5v438q-142 -1 -260 -39.5t-176 -85.5v-739q0 -43 -6.5 -85.5t-30 -96.5t-61 -94t-106 -67.5t-158.5 -27.5q-87 0 -150 26t-94 68t-42.5 88.5t-4.5 93.5q37 -30 100 -54.5t125 -24.5q41 0 75.5 10.5t60.5 40
t26 74.5v841q25 50 80 98.5t138.5 92.5t205.5 71t262 27q51 0 87.5 -4t76 -18.5t63.5 -40t40 -71.5t16 -110v-391q0 -131 88 -131zM967 -174q55 0 94 -39t39 -94t-39 -94t-94 -39q-54 0 -93.5 39t-39.5 94t39.5 94t93.5 39zM1298 -174q57 0 95.5 -38.5t38.5 -94.5
t-38.5 -94.5t-95.5 -38.5q-54 0 -93.5 39t-39.5 94t39.5 94t93.5 39z" />
    <glyph glyph-name="uniFC92" unicode="&#xfc92;" horiz-adv-x="1456" arabic-form="final" 
d="M432 1116q-63 0 -107 44t-44 104q0 61 44 104t107 43q60 0 104 -43t44 -104q0 -60 -44 -104t-104 -44zM1354 217h102v-217h-190q-87 0 -149 46.5t-90 119t-28 162.5v438q-142 -1 -260 -39.5t-176 -85.5v-739q0 -43 -6.5 -85.5t-30 -96.5t-61 -94t-106 -67.5t-158.5 -27.5
q-87 0 -150 26t-94 68t-42.5 88.5t-4.5 93.5q37 -30 100 -54.5t125 -24.5q41 0 75.5 10.5t60.5 40t26 74.5v841q25 50 80 98.5t138.5 92.5t205.5 71t262 27q51 0 87.5 -4t76 -18.5t63.5 -40t40 -71.5t16 -110v-391q0 -131 88 -131zM967 -174q55 0 94 -39t39 -94t-39 -94
t-94 -39q-54 0 -93.5 39t-39.5 94t39.5 94t93.5 39zM1298 -174q57 0 95.5 -38.5t38.5 -94.5t-38.5 -94.5t-95.5 -38.5q-54 0 -93.5 39t-39.5 94t39.5 94t93.5 39z" />
    <glyph glyph-name="uniFD0D" unicode="&#xfd0d;" horiz-adv-x="2744" arabic-form="isolated" 
d="M1792 1421q-53 0 -88 35.5t-35 87.5q0 54 34.5 88.5t88.5 34.5q52 0 87.5 -35t35.5 -88q0 -51 -36 -87t-87 -36zM1626 1116q-54 0 -93.5 39t-39.5 94t39.5 94t93.5 39q56 0 94.5 -39t38.5 -94t-38.5 -94t-94.5 -39zM1825 1249q0 55 39.5 94t93.5 39q57 0 95 -38.5
t38 -94.5t-38 -94.5t-95 -38.5q-54 0 -93.5 39t-39.5 94zM2353 983q126 0 192 -112t66 -332q0 -39 -2 -74.5t-11.5 -92.5t-26 -104t-48.5 -99t-75.5 -87.5t-110.5 -58.5t-150 -23h-26q-196 0 -312 119q-70 -119 -207 -119h-376q-87 0 -149 46.5t-90 119t-28 162.5v438
q-142 -1 -260 -39.5t-176 -85.5v-739q0 -43 -6.5 -85.5t-30 -96.5t-61 -94t-106 -67.5t-158.5 -27.5q-87 0 -150 26t-94 68t-42.5 88.5t-4.5 93.5q37 -30 100 -54.5t125 -24.5q41 0 75.5 10.5t60.5 40t26 74.5v841q25 50 80 98.5t138.5 92.5t205.5 71t262 27q51 0 87.5 -4
t76 -18.5t63.5 -40t40 -71.5t16 -110v-391q0 -131 88 -131h211q94 0 94 160v393q0 82 40 116t93 34t93 -34t40 -116v-393q0 -160 70 -160h207q60 0 101.5 79.5t41.5 205.5q0 153 -47.5 247.5t-106.5 116.5q5 46 45.5 81.5t116.5 35.5z" />
    <glyph glyph-name="uniFD0E" unicode="&#xfd0e;" horiz-adv-x="2744" arabic-form="isolated" 
d="M2353 983q126 0 192 -112t66 -332q0 -39 -2 -74.5t-11.5 -92.5t-26 -104t-48.5 -99t-75.5 -87.5t-110.5 -58.5t-150 -23h-26q-196 0 -312 119q-70 -119 -207 -119h-376q-87 0 -149 46.5t-90 119t-28 162.5v438q-142 -1 -260 -39.5t-176 -85.5v-739q0 -43 -6.5 -85.5
t-30 -96.5t-61 -94t-106 -67.5t-158.5 -27.5q-87 0 -150 26t-94 68t-42.5 88.5t-4.5 93.5q37 -30 100 -54.5t125 -24.5q41 0 75.5 10.5t60.5 40t26 74.5v841q25 50 80 98.5t138.5 92.5t205.5 71t262 27q51 0 87.5 -4t76 -18.5t63.5 -40t40 -71.5t16 -110v-391
q0 -131 88 -131h211q94 0 94 160v393q0 82 40 116t93 34t93 -34t40 -116v-393q0 -160 70 -160h207q60 0 101.5 79.5t41.5 205.5q0 153 -47.5 247.5t-106.5 116.5q5 46 45.5 81.5t116.5 35.5z" />
    <glyph glyph-name="uniFD0F" unicode="&#xfd0f;" horiz-adv-x="2369" arabic-form="isolated" 
d="M1679 983q78 0 151.5 -14t148.5 -50.5t131 -91.5t91 -144t35 -202q0 -36 -3 -71.5t-14 -85t-28.5 -92.5t-49.5 -87t-74.5 -75t-107 -50.5t-142.5 -19.5h-818v766q-142 -1 -260 -39.5t-176 -85.5v-739q0 -43 -6.5 -85.5t-30 -96.5t-61 -94t-106 -67.5t-158.5 -27.5
q-87 0 -150 26t-94 68t-42.5 88.5t-4.5 93.5q37 -30 100 -54.5t125 -24.5q41 0 75.5 10.5t60.5 40t26 74.5v841q25 50 80 98.5t138.5 92.5t205.5 71t262 27q45 0 77 -3t68 -12.5t60 -27.5t44 -49.5t28 -75.5q49 68 158.5 118t260.5 50zM1829 217q52 0 96.5 64.5t44.5 169.5
q0 84 -29 148t-76.5 99t-101 51.5t-110.5 16.5q-116 0 -230.5 -60.5t-156.5 -150.5v-338h563z" />
    <glyph glyph-name="uniFD10" unicode="&#xfd10;" horiz-adv-x="2369" arabic-form="isolated" 
d="M1683 1116q-63 0 -107 44t-44 104q0 61 44 104t107 43q60 0 104 -43t44 -104q0 -60 -44 -104t-104 -44zM1679 983q78 0 151.5 -14t148.5 -50.5t131 -91.5t91 -144t35 -202q0 -36 -3 -71.5t-14 -85t-28.5 -92.5t-49.5 -87t-74.5 -75t-107 -50.5t-142.5 -19.5h-818v766
q-142 -1 -260 -39.5t-176 -85.5v-739q0 -43 -6.5 -85.5t-30 -96.5t-61 -94t-106 -67.5t-158.5 -27.5q-87 0 -150 26t-94 68t-42.5 88.5t-4.5 93.5q37 -30 100 -54.5t125 -24.5q41 0 75.5 10.5t60.5 40t26 74.5v841q25 50 80 98.5t138.5 92.5t205.5 71t262 27q45 0 77 -3
t68 -12.5t60 -27.5t44 -49.5t28 -75.5q49 68 158.5 118t260.5 50zM1829 217q52 0 96.5 64.5t44.5 169.5q0 84 -29 148t-76.5 99t-101 51.5t-110.5 16.5q-116 0 -230.5 -60.5t-156.5 -150.5v-338h563z" />
    <glyph glyph-name="uniFD29" unicode="&#xfd29;" horiz-adv-x="2799" arabic-form="final" 
d="M1792 1421q-53 0 -88 35.5t-35 87.5q0 54 34.5 88.5t88.5 34.5q52 0 87.5 -35t35.5 -88q0 -51 -36 -87t-87 -36zM1626 1116q-54 0 -93.5 39t-39.5 94t39.5 94t93.5 39q56 0 94.5 -39t38.5 -94t-38.5 -94t-94.5 -39zM1825 1249q0 55 39.5 94t93.5 39q57 0 95 -38.5
t38 -94.5t-38 -94.5t-95 -38.5q-54 0 -93.5 39t-39.5 94zM2550 217h250v-217h-177q-123 0 -204 61q-92 -61 -232 -61h-26q-196 0 -312 119q-70 -119 -207 -119h-376q-87 0 -149 46.5t-90 119t-28 162.5v438q-142 -1 -260 -39.5t-176 -85.5v-739q0 -43 -6.5 -85.5t-30 -96.5
t-61 -94t-106 -67.5t-158.5 -27.5q-87 0 -150 26t-94 68t-42.5 88.5t-4.5 93.5q37 -30 100 -54.5t125 -24.5q41 0 75.5 10.5t60.5 40t26 74.5v841q25 50 80 98.5t138.5 92.5t205.5 71t262 27q51 0 87.5 -4t76 -18.5t63.5 -40t40 -71.5t16 -110v-391q0 -131 88 -131h211
q94 0 94 160v393q0 82 40 116t93 34t93 -34t40 -116v-393q0 -160 70 -160h207q60 0 101.5 79.5t41.5 205.5q0 153 -47.5 247.5t-106.5 116.5q5 46 45.5 81.5t116.5 35.5q126 0 192 -112t66 -332q0 -197 -61 -322z" />
    <glyph glyph-name="uniFD2A" unicode="&#xfd2a;" horiz-adv-x="2799" arabic-form="final" 
d="M2550 217h250v-217h-177q-123 0 -204 61q-92 -61 -232 -61h-26q-196 0 -312 119q-70 -119 -207 -119h-376q-87 0 -149 46.5t-90 119t-28 162.5v438q-142 -1 -260 -39.5t-176 -85.5v-739q0 -43 -6.5 -85.5t-30 -96.5t-61 -94t-106 -67.5t-158.5 -27.5q-87 0 -150 26
t-94 68t-42.5 88.5t-4.5 93.5q37 -30 100 -54.5t125 -24.5q41 0 75.5 10.5t60.5 40t26 74.5v841q25 50 80 98.5t138.5 92.5t205.5 71t262 27q51 0 87.5 -4t76 -18.5t63.5 -40t40 -71.5t16 -110v-391q0 -131 88 -131h211q94 0 94 160v393q0 82 40 116t93 34t93 -34t40 -116
v-393q0 -160 70 -160h207q60 0 101.5 79.5t41.5 205.5q0 153 -47.5 247.5t-106.5 116.5q5 46 45.5 81.5t116.5 35.5q126 0 192 -112t66 -332q0 -197 -61 -322z" />
    <glyph glyph-name="uniFD2B" unicode="&#xfd2b;" horiz-adv-x="2410" arabic-form="final" 
d="M2183 217h227v-217h-176q-111 0 -196 53q-88 -53 -221 -53h-818v766q-142 -1 -260 -39.5t-176 -85.5v-739q0 -43 -6.5 -85.5t-30 -96.5t-61 -94t-106 -67.5t-158.5 -27.5q-87 0 -150 26t-94 68t-42.5 88.5t-4.5 93.5q37 -30 100 -54.5t125 -24.5q41 0 75.5 10.5t60.5 40
t26 74.5v841q25 50 80 98.5t138.5 92.5t205.5 71t262 27q45 0 77 -3t68 -12.5t60 -27.5t44 -49.5t28 -75.5q49 68 158.5 118t260.5 50q78 0 151.5 -14t148.5 -50.5t131 -91.5t91 -144t35 -202q0 -151 -53 -264zM1829 217q52 0 96.5 64.5t44.5 169.5q0 84 -29 148t-76.5 99
t-101 51.5t-110.5 16.5q-116 0 -230.5 -60.5t-156.5 -150.5v-338h563z" />
    <glyph glyph-name="uniFD2C" unicode="&#xfd2c;" horiz-adv-x="2410" arabic-form="final" 
d="M1683 1116q-63 0 -107 44t-44 104q0 61 44 104t107 43q60 0 104 -43t44 -104q0 -60 -44 -104t-104 -44zM2183 217h227v-217h-176q-111 0 -196 53q-88 -53 -221 -53h-818v766q-142 -1 -260 -39.5t-176 -85.5v-739q0 -43 -6.5 -85.5t-30 -96.5t-61 -94t-106 -67.5
t-158.5 -27.5q-87 0 -150 26t-94 68t-42.5 88.5t-4.5 93.5q37 -30 100 -54.5t125 -24.5q41 0 75.5 10.5t60.5 40t26 74.5v841q25 50 80 98.5t138.5 92.5t205.5 71t262 27q45 0 77 -3t68 -12.5t60 -27.5t44 -49.5t28 -75.5q49 68 158.5 118t260.5 50q78 0 151.5 -14
t148.5 -50.5t131 -91.5t91 -144t35 -202q0 -151 -53 -264zM1829 217q52 0 96.5 64.5t44.5 169.5q0 84 -29 148t-76.5 99t-101 51.5t-110.5 16.5q-116 0 -230.5 -60.5t-156.5 -150.5v-338h563z" />
    <glyph glyph-name="uniFE82" unicode="&#x622;" horiz-adv-x="653" arabic-form="final" 
d="M385 1311q-54 0 -108.5 21t-103 42t-87.5 21q-32 0 -58 -15.5t-38 -15.5q-31 0 -31 35q0 45 46 87q54 50 134 50q59 0 162 -38t143 -38q35 0 63.5 19.5t37.5 19.5q25 0 28 -35q4 -50 -39 -96q-54 -57 -149 -57zM463 0q-87 0 -149 46.5t-89.5 119t-27.5 162.5v598
q0 35 -6 62t-13.5 42.5t-20 28t-20 17t-20.5 10t-15 6.5q0 38 42 86.5t122 48.5q88 0 142.5 -69.5t54.5 -176.5v-633q0 -131 88 -131h102v-217h-190z" />
    <glyph glyph-name="uniFE84" unicode="&#x623;" horiz-adv-x="653" arabic-form="final" 
d="M106 1292q-35 7 -50 42.5t10.5 68.5t93.5 33q-32 14 -58 50.5t-26 84.5q0 74 56 136t163 62q63 0 100 -25.5t37 -78.5q0 -36 -20 -53t-45.5 -16t-53.5 12q2 30 -11 54t-42 24q-39 -44 -39 -95q0 -49 37.5 -88t97.5 -39q18 0 45.5 5.5t34.5 5.5q28 0 39.5 -28t1.5 -56
t-33 -29q-19 0 -66 -3t-112 -10t-112.5 -22t-47.5 -35zM463 0q-87 0 -149 46.5t-89.5 119t-27.5 162.5v598q0 35 -6 62t-13.5 42.5t-20 28t-20 17t-20.5 10t-15 6.5q0 38 42 86.5t122 48.5q88 0 142.5 -69.5t54.5 -176.5v-633q0 -131 88 -131h102v-217h-190z" />
    <glyph glyph-name="uniFE86" unicode="&#x624;" horiz-adv-x="1173" arabic-form="final" 
d="M395 1098q-35 7 -50 42t10.5 68t93.5 33q-32 14 -58 50.5t-26 84.5q0 33 13 66.5t38 64t68.5 49.5t99.5 19q63 0 100 -26t37 -79q0 -36 -20 -53t-45.5 -16t-53.5 12q2 30 -11 54t-42 24q-39 -44 -39 -94q0 -49 37.5 -88t97.5 -39q18 0 45.5 5t34.5 5q28 0 39.5 -28
t1.5 -56t-33 -29q-19 0 -65.5 -3t-112 -10t-113 -21.5t-47.5 -34.5zM1174 217v-217h-197v-98q0 -29 -3.5 -59t-13.5 -67.5t-26 -70.5t-44 -66t-65 -56t-91.5 -37.5t-119.5 -14.5q-87 0 -150 26t-94 68t-42 88t-4 94q39 -31 101 -55t124 -24q41 0 75.5 10.5t60.5 40t26 74.5
v147l-191 -4q-387 0 -387 487q0 95 15 171t39.5 127.5t62 89.5t75 59t86.5 33.5t89.5 16t89.5 3.5q85 0 142.5 -11.5t107 -43.5t78 -89t44 -147t15.5 -219v-256h197zM399 496q0 -54 4.5 -96.5t16 -87.5t38.5 -70t66 -25h187v428q0 64 -44 92.5t-104 28.5q-93 0 -128.5 -67.5
t-35.5 -202.5z" />
    <glyph glyph-name="uniFE88" unicode="&#x625;" horiz-adv-x="653" arabic-form="final" 
d="M463 0q-129 0 -196.5 93.5t-69.5 234.5v723q0 35 -6 62t-13.5 42.5t-20 28t-20 17t-20.5 10t-15 6.5q0 38 42 86.5t122 48.5q88 0 142.5 -69.5t54.5 -176.5v-758q0 -131 88 -131h102v-217h-190zM168 -580q-35 7 -50.5 42.5t10 68.5t93.5 33q-32 14 -58 50.5t-26 84.5
q0 74 56.5 136.5t164.5 62.5q63 0 100.5 -26t37.5 -79q0 -36 -20 -53t-45.5 -16t-53.5 12q2 30 -11 54t-42 24q-41 -41 -41 -95q0 -49 38.5 -88t98.5 -39q18 0 45.5 5.5t34.5 5.5q28 0 39.5 -28t1.5 -56t-33 -29q-19 0 -66 -3t-112.5 -10t-113.5 -22t-48 -35z" />
    <glyph glyph-name="uniFE8A" unicode="&#x626;" horiz-adv-x="1931" arabic-form="final" 
d="M250 659q-35 7 -50.5 42.5t10 68.5t93.5 33q-32 14 -58 50.5t-26 84.5q0 33 13 66.5t38 64t68.5 49.5t99.5 19q63 0 100 -26t37 -79q0 -37 -19.5 -53.5t-45 -15.5t-53.5 12q2 30 -11.5 54t-42.5 24q-38 -43 -38 -95q0 -49 37.5 -88t97.5 -39q18 0 45.5 5.5t34.5 5.5
q28 0 39.5 -28t1.5 -56t-33 -29q-19 0 -66 -3t-112 -10t-112.5 -22t-47.5 -35zM889 -483q-136 0 -247 20.5t-185.5 54t-130 83t-86.5 99t-50 110.5t-24.5 110.5t-5.5 105.5q0 102 19 181.5t47.5 125t66 74.5t70.5 39t65 10q64 0 99 -36t40 -82q-54 -43 -97.5 -132.5
t-43.5 -199.5q0 -346 485 -346q128 0 224 22.5t150 61.5t80 84.5t26 97.5h-41q-70 0 -119.5 19t-73 49.5t-31 69t-0.5 77t25 74.5q26 -28 78.5 -50t118.5 -22h583v-217h-272q0 -71 -20 -135.5t-72 -129.5t-131.5 -112t-208.5 -76.5t-293 -29.5h-45z" />
    <glyph glyph-name="uniFE8B" unicode="&#x626;" horiz-adv-x="729" arabic-form="initial" 
d="M199 1098q-35 7 -50.5 42t10 68t93.5 33q-32 14 -58 50.5t-26 84.5q0 33 13 66.5t38 64t68.5 49.5t99.5 19q63 0 100 -26t37 -79q0 -37 -19.5 -53.5t-45 -15.5t-53.5 12q2 30 -11.5 54t-42.5 24q-39 -44 -39 -94q0 -49 38 -88t98 -39q18 0 45 5t34 5q28 0 40 -28t2 -56
t-33 -29q-19 0 -65.5 -3t-112 -10t-113 -21.5t-47.5 -34.5zM0 0v217h188q60 0 101 80t41 231q0 78 -9 132t-31 91t-42 57.5t-58 49.5q0 41 43.5 83t122.5 42q117 0 178.5 -106t61.5 -291q0 -116 -24 -218.5t-71.5 -186t-126.5 -132.5t-181 -49h-193z" />
    <glyph glyph-name="uniFE8C" unicode="&#x626;" horiz-adv-x="745" arabic-form="medial" 
d="M213 1098q-35 7 -50.5 42t10 68t93.5 33q-32 14 -58 50.5t-26 84.5q0 33 13 66.5t38 64t68.5 49.5t99.5 19q63 0 100.5 -26t37.5 -79q0 -36 -20 -53t-45.5 -16t-53.5 12q2 30 -11 54t-42 24q-39 -44 -39 -94q0 -49 37.5 -88t97.5 -39q18 0 45.5 5t34.5 5q28 0 39.5 -28
t1.5 -56t-33 -29q-19 0 -65.5 -3t-112 -10t-113 -21.5t-47.5 -34.5zM594 217h151v-217h-292q-107 0 -201 72q-46 -38 -85.5 -55t-98.5 -17h-68v217h68q54 0 92 15t80 47v569q0 55 32 95t101 40t101 -40.5t32 -98.5v-496q0 -131 88 -131z" />
    <glyph glyph-name="uniFE8E" unicode="&#x627;" horiz-adv-x="653" arabic-form="final" 
d="M463 0q-129 0 -196.5 93.5t-69.5 234.5v723q0 35 -6 62t-13.5 42.5t-20 28t-20 17t-20.5 10t-15 6.5q0 38 42 86.5t122 48.5q88 0 142.5 -69.5t54.5 -176.5v-758q0 -131 88 -131h102v-217h-190z" />
    <glyph glyph-name="uniFE90" unicode="&#x628;" horiz-adv-x="1761" arabic-form="final" 
d="M1487 217h274v-217h-176q-123 0 -217 70q-86 -70 -209 -70h-760q-133 0 -199.5 75.5t-66.5 209.5v467q0 55 32 95t101 40t101 -40.5t32 -98.5v-400q0 -131 88 -131h668q60 0 100.5 80t40.5 231q0 63 -7 111.5t-17.5 79t-31 58t-37 43t-46.5 38.5q0 41 43.5 83t122.5 42
q117 0 178.5 -106t61.5 -291q0 -214 -76 -369zM850 -164q60 0 103.5 -43t43.5 -104q0 -60 -43.5 -104t-103.5 -44q-63 0 -107.5 44t-44.5 104q0 61 44.5 104t107.5 43z" />
    <glyph glyph-name="uniFE91" unicode="&#x628;" horiz-adv-x="729" arabic-form="initial" 
d="M0 0v217h188q60 0 101 80t41 231q0 78 -9 132t-31 91t-42 57.5t-58 49.5q0 41 43.5 83t122.5 42q117 0 178.5 -106t61.5 -291q0 -116 -24 -218.5t-71.5 -186t-126.5 -132.5t-181 -49h-193zM352 -459q-63 0 -107 44t-44 104q0 61 44 104t107 43q60 0 104 -43t44 -104
q0 -60 -44 -104t-104 -44z" />
    <glyph glyph-name="uniFE92" unicode="&#x628;" horiz-adv-x="745" arabic-form="medial" 
d="M594 217h151v-217h-292q-107 0 -201 72q-46 -38 -85.5 -55t-98.5 -17h-68v217h68q54 0 92 15t80 47v569q0 55 32 95t101 40t101 -40.5t32 -98.5v-496q0 -131 88 -131zM375 -164q60 0 103.5 -43t43.5 -104q0 -60 -43.5 -104t-103.5 -44q-63 0 -107.5 44t-44.5 104
q0 61 44.5 104t107.5 43z" />
    <glyph glyph-name="uniFE94" unicode="&#x629;" horiz-adv-x="1095" arabic-form="final" 
d="M383 1126q-54 0 -93.5 39.5t-39.5 94.5t39.5 94t93.5 39q55 0 94 -38.5t39 -94.5t-39 -95t-94 -39zM715 1126q-54 0 -93.5 39.5t-39.5 94.5t39.5 94t93.5 39q57 0 95 -38.5t38 -94.5t-38 -95t-95 -39zM977 217h119v-217h-211q-102 0 -174 41q-78 -45 -191 -45
q-387 0 -387 487q0 95 15 171t39.5 127.5t62 89.5t75 59t86.5 33.5t89.5 16t89.5 3.5q85 0 142.5 -11.5t107 -43.5t78 -89t44 -147t15.5 -219v-256zM399 496q0 -47 4.5 -88t16 -88t38.5 -75t66 -28h187v428q0 64 -44 92.5t-104 28.5q-93 0 -128.5 -67.5t-35.5 -202.5z" />
    <glyph glyph-name="uniFE96" unicode="&#x62a;" horiz-adv-x="1761" arabic-form="final" 
d="M682 1034q-54 0 -93.5 39t-39.5 94t39.5 94t93.5 39q56 0 94.5 -39t38.5 -94t-38.5 -94t-94.5 -39zM1014 1034q-54 0 -93.5 39t-39.5 94t39.5 94t93.5 39q57 0 95 -38.5t38 -94.5t-38 -94.5t-95 -38.5zM1487 217h274v-217h-176q-123 0 -217 70q-86 -70 -209 -70h-760
q-133 0 -199.5 75.5t-66.5 209.5v467q0 55 32 95t101 40t101 -40.5t32 -98.5v-400q0 -131 88 -131h668q60 0 100.5 80t40.5 231q0 63 -7 111.5t-17.5 79t-31 58t-37 43t-46.5 38.5q0 41 43.5 83t122.5 42q117 0 178.5 -106t61.5 -291q0 -214 -76 -369z" />
    <glyph glyph-name="uniFE97" unicode="&#x62a;" horiz-adv-x="729" arabic-form="initial" 
d="M193 1126q-54 0 -94 39.5t-40 94.5t40 94t94 39q55 0 94 -38.5t39 -94.5t-39 -95t-94 -39zM524 1126q-54 0 -93.5 39.5t-39.5 94.5t39.5 94t93.5 39q57 0 95 -38.5t38 -94.5t-38 -95t-95 -39zM0 0v217h188q60 0 101 80t41 231q0 78 -9 132t-31 91t-42 57.5t-58 49.5
q0 41 43.5 83t122.5 42q117 0 178.5 -106t61.5 -291q0 -116 -24 -218.5t-71.5 -186t-126.5 -132.5t-181 -49h-193z" />
    <glyph glyph-name="uniFE98" unicode="&#x62a;" horiz-adv-x="745" arabic-form="medial" 
d="M207 1126q-54 0 -93.5 39.5t-39.5 94.5t39.5 94t93.5 39q55 0 94 -38.5t39 -94.5t-39 -95t-94 -39zM539 1126q-54 0 -93.5 39.5t-39.5 94.5t39.5 94t93.5 39q57 0 95 -38.5t38 -94.5t-38 -95t-95 -39zM594 217h151v-217h-292q-107 0 -201 72q-46 -38 -85.5 -55t-98.5 -17
h-68v217h68q54 0 92 15t80 47v569q0 55 32 95t101 40t101 -40.5t32 -98.5v-496q0 -131 88 -131z" />
    <glyph glyph-name="uniFE9A" unicode="&#x62b;" horiz-adv-x="1761" arabic-form="final" 
d="M848 1329q-53 0 -88 35.5t-35 87.5q0 54 34.5 88.5t88.5 34.5q52 0 87.5 -35t35.5 -88q0 -51 -36 -87t-87 -36zM682 1024q-54 0 -93.5 39t-39.5 94t39.5 94t93.5 39q56 0 94.5 -39t38.5 -94t-38.5 -94t-94.5 -39zM881 1157q0 55 39.5 94t93.5 39q57 0 95 -38.5t38 -94.5
t-38 -94.5t-95 -38.5q-54 0 -93.5 39t-39.5 94zM1487 217h274v-217h-176q-123 0 -217 70q-86 -70 -209 -70h-760q-133 0 -199.5 75.5t-66.5 209.5v467q0 55 32 95t101 40t101 -40.5t32 -98.5v-400q0 -131 88 -131h668q60 0 100.5 80t40.5 231q0 63 -7 111.5t-17.5 79t-31 58
t-37 43t-46.5 38.5q0 41 43.5 83t122.5 42q117 0 178.5 -106t61.5 -291q0 -214 -76 -369z" />
    <glyph glyph-name="uniFE9B" unicode="&#x62b;" horiz-adv-x="729" arabic-form="initial" 
d="M358 1667q52 0 87.5 -35t35.5 -88q0 -51 -36 -87t-87 -36q-53 0 -87.5 35.5t-34.5 87.5q0 54 34 88.5t88 34.5zM193 1382q55 0 94 -39t39 -94t-39 -94t-94 -39q-54 0 -94 39t-40 94t40 94t94 39zM524 1382q57 0 95 -38.5t38 -94.5t-38 -94.5t-95 -38.5q-54 0 -93.5 39
t-39.5 94t39.5 94t93.5 39zM0 0v217h188q60 0 101 80t41 231q0 78 -9 132t-31 91t-42 57.5t-58 49.5q0 41 43.5 83t122.5 42q117 0 178.5 -106t61.5 -291q0 -116 -24 -218.5t-71.5 -186t-126.5 -132.5t-181 -49h-193z" />
    <glyph glyph-name="uniFE9C" unicode="&#x62b;" horiz-adv-x="745" arabic-form="medial" 
d="M373 1421q-53 0 -88 35.5t-35 87.5q0 54 34.5 88.5t88.5 34.5q52 0 87.5 -35t35.5 -88q0 -51 -36 -87t-87 -36zM207 1116q-54 0 -93.5 39t-39.5 94t39.5 94t93.5 39q55 0 94 -39t39 -94t-39 -94t-94 -39zM406 1249q0 55 39.5 94t93.5 39q57 0 95 -38.5t38 -94.5
t-38 -94.5t-95 -38.5q-54 0 -93.5 39t-39.5 94zM594 217h151v-217h-292q-107 0 -201 72q-46 -38 -85.5 -55t-98.5 -17h-68v217h68q54 0 92 15t80 47v569q0 55 32 95t101 40t101 -40.5t32 -98.5v-496q0 -131 88 -131z" />
    <glyph glyph-name="uniFE9E" unicode="&#x62c;" horiz-adv-x="1374" arabic-form="final" 
d="M1178 217h196v-217h-100q-125 0 -213 68q-91 -68 -217 -68h-486q0 -182 48 -303.5t108 -159.5q-9 -31 -44.5 -56.5t-92.5 -25.5q-69 0 -119.5 39.5t-76 103t-37 127t-11.5 128.5q0 165 61.5 264.5t192.5 99.5h434q48 0 99 80.5t51 187.5q0 78 -31.5 136t-83 89t-107 45.5
t-114.5 14.5h-201q-48 0 -87 20.5t-62 53t-35 68.5t-12 71q0 39 15.5 58.5t35.5 17.5q14 -31 73.5 -56.5t155.5 -25.5q29 0 126 3t112 3q79 0 162 -32.5t155 -92t118 -154.5t46 -208q0 -153 -59 -279zM776 -98q60 0 104 -43.5t44 -104.5q0 -60 -44 -103.5t-104 -43.5
q-63 0 -107 43.5t-44 103.5q0 62 44 105t107 43z" />
    <glyph glyph-name="uniFE9F" unicode="&#x62c;" horiz-adv-x="1179" arabic-form="initial" 
d="M0 0v217h633q48 0 97.5 80t49.5 192q0 67 -21.5 118.5t-54.5 81.5t-79.5 49t-89.5 25.5t-91 6.5h-200q-96 0 -146.5 62t-50.5 151q0 39 15.5 58.5t35.5 17.5q14 -31 74 -56.5t156 -25.5q29 0 125.5 3t111.5 3q79 0 162 -32.5t155.5 -92t118.5 -154.5t46 -208
q0 -51 -8.5 -108t-34.5 -128.5t-67.5 -127t-115 -94t-168.5 -38.5h-653zM578 -459q-63 0 -107.5 44t-44.5 104q0 61 44.5 104t107.5 43q60 0 103.5 -43t43.5 -104q0 -60 -43.5 -104t-103.5 -44z" />
    <glyph glyph-name="uniFEA0" unicode="&#x62c;" horiz-adv-x="1130" arabic-form="medial" 
d="M987 217h143v-217h-47q-125 0 -213 68q-91 -68 -217 -68h-653v217h633q48 0 97.5 80t49.5 192q0 67 -21.5 118.5t-54.5 81.5t-79.5 49t-89.5 25.5t-91 6.5h-200q-96 0 -146.5 62t-50.5 151q0 39 15.5 58.5t35.5 17.5q14 -31 74 -56.5t156 -25.5q29 0 125.5 3t111.5 3
q79 0 162 -32.5t155.5 -92t118.5 -154.5t46 -208q0 -151 -60 -279zM578 -164q60 0 103.5 -43t43.5 -104q0 -60 -43.5 -104t-103.5 -44q-63 0 -107.5 44t-44.5 104q0 61 44.5 104t107.5 43z" />
    <glyph glyph-name="uniFEA2" unicode="&#x62d;" horiz-adv-x="1374" arabic-form="final" 
d="M1178 217h196v-217h-100q-125 0 -213 68q-91 -68 -217 -68h-486q0 -182 48 -303.5t108 -159.5q-9 -31 -44.5 -56.5t-92.5 -25.5q-69 0 -119.5 39.5t-76 103t-37 127t-11.5 128.5q0 165 61.5 264.5t192.5 99.5h434q48 0 99 80.5t51 187.5q0 78 -31.5 136t-83 89t-107 45.5
t-114.5 14.5h-201q-48 0 -87 20.5t-62 53t-35 68.5t-12 71q0 39 15.5 58.5t35.5 17.5q14 -31 73.5 -56.5t155.5 -25.5q29 0 126 3t112 3q79 0 162 -32.5t155 -92t118 -154.5t46 -208q0 -153 -59 -279z" />
    <glyph glyph-name="uniFEA3" unicode="&#x62d;" horiz-adv-x="1179" arabic-form="initial" 
d="M0 0v217h633q48 0 97.5 80t49.5 192q0 67 -21.5 118.5t-54.5 81.5t-79.5 49t-89.5 25.5t-91 6.5h-200q-96 0 -146.5 62t-50.5 151q0 39 15.5 58.5t35.5 17.5q14 -31 74 -56.5t156 -25.5q29 0 125.5 3t111.5 3q79 0 162 -32.5t155.5 -92t118.5 -154.5t46 -208
q0 -51 -8.5 -108t-34.5 -128.5t-67.5 -127t-115 -94t-168.5 -38.5h-653z" />
    <glyph glyph-name="uniFEA4" unicode="&#x62d;" horiz-adv-x="1130" arabic-form="medial" 
d="M987 217h143v-217h-47q-125 0 -213 68q-91 -68 -217 -68h-653v217h633q48 0 97.5 80t49.5 192q0 67 -21.5 118.5t-54.5 81.5t-79.5 49t-89.5 25.5t-91 6.5h-200q-96 0 -146.5 62t-50.5 151q0 39 15.5 58.5t35.5 17.5q14 -31 74 -56.5t156 -25.5q29 0 125.5 3t111.5 3
q79 0 162 -32.5t155.5 -92t118.5 -154.5t46 -208q0 -151 -60 -279z" />
    <glyph glyph-name="uniFEA6" unicode="&#x62e;" horiz-adv-x="1374" arabic-form="final" 
d="M688 1116q-63 0 -107 44t-44 104q0 61 44 104t107 43q60 0 104 -43t44 -104q0 -60 -44 -104t-104 -44zM1178 217h196v-217h-100q-125 0 -213 68q-91 -68 -217 -68h-486q0 -182 48 -303.5t108 -159.5q-9 -31 -44.5 -56.5t-92.5 -25.5q-69 0 -119.5 39.5t-76 103t-37 127
t-11.5 128.5q0 165 61.5 264.5t192.5 99.5h434q48 0 99 80.5t51 187.5q0 78 -31.5 136t-83 89t-107 45.5t-114.5 14.5h-201q-48 0 -87 20.5t-62 53t-35 68.5t-12 71q0 39 15.5 58.5t35.5 17.5q14 -31 73.5 -56.5t155.5 -25.5q29 0 126 3t112 3q79 0 162 -32.5t155 -92
t118 -154.5t46 -208q0 -153 -59 -279z" />
    <glyph glyph-name="uniFEA7" unicode="&#x62e;" horiz-adv-x="1179" arabic-form="initial" 
d="M578 1116q-63 0 -107.5 44t-44.5 104q0 61 44.5 104t107.5 43q60 0 103.5 -43t43.5 -104q0 -60 -43.5 -104t-103.5 -44zM0 0v217h633q48 0 97.5 80t49.5 192q0 67 -21.5 118.5t-54.5 81.5t-79.5 49t-89.5 25.5t-91 6.5h-200q-96 0 -146.5 62t-50.5 151q0 39 15.5 58.5
t35.5 17.5q14 -31 74 -56.5t156 -25.5q29 0 125.5 3t111.5 3q79 0 162 -32.5t155.5 -92t118.5 -154.5t46 -208q0 -51 -8.5 -108t-34.5 -128.5t-67.5 -127t-115 -94t-168.5 -38.5h-653z" />
    <glyph glyph-name="uniFEA8" unicode="&#x62e;" horiz-adv-x="1130" arabic-form="medial" 
d="M578 1116q-63 0 -107.5 44t-44.5 104q0 61 44.5 104t107.5 43q60 0 103.5 -43t43.5 -104q0 -60 -43.5 -104t-103.5 -44zM987 217h143v-217h-47q-125 0 -213 68q-91 -68 -217 -68h-653v217h633q48 0 97.5 80t49.5 192q0 67 -21.5 118.5t-54.5 81.5t-79.5 49t-89.5 25.5
t-91 6.5h-200q-96 0 -146.5 62t-50.5 151q0 39 15.5 58.5t35.5 17.5q14 -31 74 -56.5t156 -25.5q29 0 125.5 3t111.5 3q79 0 162 -32.5t155.5 -92t118.5 -154.5t46 -208q0 -151 -60 -279z" />
    <glyph glyph-name="uniFEAA" unicode="&#x62f;" horiz-adv-x="1128" arabic-form="final" 
d="M862 217h266v-217h-186q-123 0 -207 61q-80 -61 -200 -61h-316q-27 0 -46 12t-26.5 31t-10.5 34.5t-3 31.5t3 31.5t10.5 34.5t26.5 30.5t46 11.5h127q87 0 149.5 21t97.5 59t50.5 84.5t15.5 103.5q0 108 -47.5 190t-107.5 116q-36 4 -66 -37.5t-30 -124.5
q-75 -29 -129 -29q-59 0 -102.5 39.5t-43.5 112.5q0 55 28 98t68 67t90 40t87.5 21t66.5 5q50 0 108.5 -18.5t120 -58.5t111.5 -94t81.5 -133t31.5 -169q0 -157 -64 -293zM514 786h2h-2z" />
    <glyph glyph-name="uniFEAC" unicode="&#x630;" horiz-adv-x="1128" arabic-form="final" 
d="M532 1116q-63 0 -107 44t-44 104q0 61 44 104t107 43q60 0 104 -43t44 -104q0 -60 -44 -104t-104 -44zM862 217h266v-217h-186q-123 0 -207 61q-80 -61 -200 -61h-316q-27 0 -46 12t-26.5 31t-10.5 34.5t-3 31.5t3 31.5t10.5 34.5t26.5 30.5t46 11.5h127q87 0 149.5 21
t97.5 59t50.5 84.5t15.5 103.5q0 108 -47.5 190t-107.5 116q-36 4 -66 -37.5t-30 -124.5q-75 -29 -129 -29q-59 0 -102.5 39.5t-43.5 112.5q0 55 28 98t68 67t90 40t87.5 21t66.5 5q50 0 108.5 -18.5t120 -58.5t111.5 -94t81.5 -133t31.5 -169q0 -157 -64 -293zM514 786h2
h-2z" />
    <glyph glyph-name="uniFEAE" unicode="&#x631;" horiz-adv-x="759" arabic-form="final" 
d="M760 217v-217h-197v-98q0 -43 -6.5 -85.5t-30 -96.5t-61 -94t-106 -67.5t-158.5 -27.5q-87 0 -150 26t-94 68t-42.5 88.5t-4.5 93.5q37 -30 100 -54.5t125 -24.5q41 0 75.5 10.5t60.5 40t26 74.5v1003q0 58 37 92.5t96 34.5t96 -35t37 -96v-635h197z" />
    <glyph glyph-name="uniFEB0" unicode="&#x632;" horiz-adv-x="759" arabic-form="final" 
d="M432 1116q-63 0 -107 44t-44 104q0 61 44 104t107 43q60 0 104 -43t44 -104q0 -60 -44 -104t-104 -44zM760 217v-217h-197v-98q0 -43 -6.5 -85.5t-30 -96.5t-61 -94t-106 -67.5t-158.5 -27.5q-87 0 -150 26t-94 68t-42.5 88.5t-4.5 93.5q37 -30 100 -54.5t125 -24.5
q41 0 75.5 10.5t60.5 40t26 74.5v1003q0 58 37 92.5t96 34.5t96 -35t37 -96v-635h197z" />
    <glyph glyph-name="uniFEB2" unicode="&#x633;" horiz-adv-x="2893" arabic-form="final" 
d="M2554 217h340v-217h-258q-126 0 -211 63q-92 -63 -234 -63h-26q-196 0 -312 119q-70 -119 -206 -119h-199q-55 3 -103.5 25.5t-74.5 48.5q0 -78 -5.5 -140t-21.5 -125.5t-42.5 -111t-70.5 -90t-103.5 -69.5t-143 -42.5t-187.5 -15.5q-103 0 -185 15t-140.5 41t-101.5 67
t-68.5 86.5t-41 106t-21 119t-5.5 132.5q0 268 67 385t199 117q72 0 114.5 -29t49.5 -65q-63 -55 -114.5 -180.5t-51.5 -284.5q0 -64 9.5 -113.5t23.5 -82t39.5 -55.5t47 -35t57.5 -18.5t59 -7.5t63 -2q32 0 51.5 0.5t49 3.5t48 10t43 21t39.5 33.5t31 49.5t25 69t15 92
t6 117v651q0 26 1.5 43t9 38.5t21 34.5t39 22t62.5 9t62.5 -9t39 -22t21 -34.5t9 -38.5t1.5 -43v-371q0 -65 22.5 -99t63.5 -36h213q94 0 94 160v393q0 82 40 116t93 34t93 -34t40 -116v-393q0 -160 70 -160h207q60 0 101.5 79.5t41.5 205.5q0 153 -47.5 247.5t-106.5 116.5
q5 46 45.5 81.5t116.5 35.5q126 0 192 -112t66 -332q0 -197 -61 -322z" />
    <glyph glyph-name="uniFEB3" unicode="&#x633;" horiz-adv-x="1953" arabic-form="initial" 
d="M1563 983q126 0 192 -112t66 -332q0 -39 -2 -74.5t-11.5 -92.5t-26 -104t-48.5 -99t-75.5 -87.5t-110.5 -58.5t-150 -23h-27q-195 0 -311 119q-70 -119 -207 -119h-305q-107 0 -201 72q-46 -38 -85.5 -55t-98.5 -17h-162v217h121q39 0 63.5 49t24.5 113v344q0 26 1.5 43
t9 38.5t21 34.5t39 22t62.5 9t62.5 -9t39 -22t21 -34.5t9 -38.5t1.5 -43v-371q0 -65 22.5 -99t63.5 -36h213q94 0 94 160v393q0 82 40 116t93 34t93.5 -34t40.5 -116v-393q0 -160 69 -160h207q60 0 101.5 79.5t41.5 205.5q0 153 -47.5 247.5t-105.5 116.5q5 46 45.5 81.5
t116.5 35.5z" />
    <glyph glyph-name="uniFEB4" unicode="&#x633;" horiz-adv-x="2097" arabic-form="medial" 
d="M1759 217h338v-217h-258q-122 0 -209 61q-97 -61 -233 -61h-27q-195 0 -311 119q-70 -119 -207 -119h-305q-107 0 -201 72q-46 -38 -85.5 -55t-98.5 -17h-162v217h121q39 0 63.5 49t24.5 113v344q0 26 1.5 43t9 38.5t21 34.5t39 22t62.5 9t62.5 -9t39 -22t21 -34.5
t9 -38.5t1.5 -43v-371q0 -65 22.5 -99t63.5 -36h213q94 0 94 160v393q0 82 40 116t93 34t93.5 -34t40.5 -116v-393q0 -160 69 -160h207q60 0 101.5 79.5t41.5 205.5q0 153 -47.5 247.5t-105.5 116.5q5 46 45.5 81.5t116.5 35.5q126 0 192 -112t66 -332q0 -195 -62 -322z" />
    <glyph glyph-name="uniFEB6" unicode="&#x634;" horiz-adv-x="2893" arabic-form="final" 
d="M1796 1421q-53 0 -88 35.5t-35 87.5q0 54 34.5 88.5t88.5 34.5q52 0 87.5 -35t35.5 -88q0 -51 -36 -87t-87 -36zM1630 1116q-54 0 -93.5 39t-39.5 94t39.5 94t93.5 39q56 0 94.5 -39t38.5 -94t-38.5 -94t-94.5 -39zM1829 1249q0 55 39.5 94t93.5 39q57 0 95 -38.5
t38 -94.5t-38 -94.5t-95 -38.5q-54 0 -93.5 39t-39.5 94zM2554 217h340v-217h-258q-126 0 -211 63q-92 -63 -234 -63h-26q-196 0 -312 119q-70 -119 -206 -119h-199q-55 3 -103.5 25.5t-74.5 48.5q0 -78 -5.5 -140t-21.5 -125.5t-42.5 -111t-70.5 -90t-103.5 -69.5
t-143 -42.5t-187.5 -15.5q-103 0 -185 15t-140.5 41t-101.5 67t-68.5 86.5t-41 106t-21 119t-5.5 132.5q0 268 67 385t199 117q72 0 114.5 -29t49.5 -65q-63 -55 -114.5 -180.5t-51.5 -284.5q0 -64 9.5 -113.5t23.5 -82t39.5 -55.5t47 -35t57.5 -18.5t59 -7.5t63 -2
q32 0 51.5 0.5t49 3.5t48 10t43 21t39.5 33.5t31 49.5t25 69t15 92t6 117v651q0 26 1.5 43t9 38.5t21 34.5t39 22t62.5 9t62.5 -9t39 -22t21 -34.5t9 -38.5t1.5 -43v-371q0 -65 22.5 -99t63.5 -36h213q94 0 94 160v393q0 82 40 116t93 34t93 -34t40 -116v-393
q0 -160 70 -160h207q60 0 101.5 79.5t41.5 205.5q0 153 -47.5 247.5t-106.5 116.5q5 46 45.5 81.5t116.5 35.5q126 0 192 -112t66 -332q0 -197 -61 -322z" />
    <glyph glyph-name="uniFEB7" unicode="&#x634;" horiz-adv-x="1953" arabic-form="initial" 
d="M1001 1421q-53 0 -87.5 35.5t-34.5 87.5q0 54 34 88.5t88 34.5q52 0 87.5 -35t35.5 -88q0 -51 -36 -87t-87 -36zM836 1116q-54 0 -94 39t-40 94t40 94t94 39q56 0 94.5 -39t38.5 -94t-38.5 -94t-94.5 -39zM1034 1249q0 55 39.5 94t93.5 39q57 0 95 -38.5t38 -94.5
t-38 -94.5t-95 -38.5q-54 0 -93.5 39t-39.5 94zM1563 983q126 0 192 -112t66 -332q0 -39 -2 -74.5t-11.5 -92.5t-26 -104t-48.5 -99t-75.5 -87.5t-110.5 -58.5t-150 -23h-27q-195 0 -311 119q-70 -119 -207 -119h-305q-107 0 -201 72q-46 -38 -85.5 -55t-98.5 -17h-162v217
h121q39 0 63.5 49t24.5 113v344q0 26 1.5 43t9 38.5t21 34.5t39 22t62.5 9t62.5 -9t39 -22t21 -34.5t9 -38.5t1.5 -43v-371q0 -65 22.5 -99t63.5 -36h213q94 0 94 160v393q0 82 40 116t93 34t93.5 -34t40.5 -116v-393q0 -160 69 -160h207q60 0 101.5 79.5t41.5 205.5
q0 153 -47.5 247.5t-105.5 116.5q5 46 45.5 81.5t116.5 35.5z" />
    <glyph glyph-name="uniFEB8" unicode="&#x634;" horiz-adv-x="2097" arabic-form="medial" 
d="M981 1421q-53 0 -88 35.5t-35 87.5q0 54 34.5 88.5t88.5 34.5q52 0 87.5 -35t35.5 -88q0 -51 -36 -87t-87 -36zM815 1116q-54 0 -93.5 39t-39.5 94t39.5 94t93.5 39q55 0 94 -39t39 -94t-39 -94t-94 -39zM1014 1249q0 55 39.5 94t93.5 39q57 0 95 -38.5t38 -94.5
t-38 -94.5t-95 -38.5q-54 0 -93.5 39t-39.5 94zM1759 217h338v-217h-258q-122 0 -209 61q-97 -61 -233 -61h-27q-195 0 -311 119q-70 -119 -207 -119h-305q-107 0 -201 72q-46 -38 -85.5 -55t-98.5 -17h-162v217h121q39 0 63.5 49t24.5 113v344q0 26 1.5 43t9 38.5t21 34.5
t39 22t62.5 9t62.5 -9t39 -22t21 -34.5t9 -38.5t1.5 -43v-371q0 -65 22.5 -99t63.5 -36h213q94 0 94 160v393q0 82 40 116t93 34t93.5 -34t40.5 -116v-393q0 -160 69 -160h207q60 0 101.5 79.5t41.5 205.5q0 153 -47.5 247.5t-105.5 116.5q5 46 45.5 81.5t116.5 35.5
q126 0 192 -112t66 -332q0 -195 -62 -322z" />
    <glyph glyph-name="uniFEBA" unicode="&#x635;" horiz-adv-x="2441" arabic-form="final" 
d="M2187 217h254v-217h-176q-122 0 -209 61q-94 -61 -235 -61h-553q-3 -68 -11.5 -124t-27 -110.5t-47 -96.5t-72.5 -78.5t-102 -60t-136.5 -37t-175.5 -13.5q-103 0 -185 15t-140.5 41t-101.5 67t-68.5 86.5t-41 106t-21 119t-5.5 132.5q0 268 67 385t199 117
q72 0 114.5 -29t49.5 -65q-63 -55 -114.5 -180.5t-51.5 -284.5q0 -64 9.5 -113.5t23.5 -82t39.5 -55.5t47 -35t57.5 -18.5t59 -7.5t63 -2q32 0 51.5 0.5t49 3.5t48 10t43 21t39.5 33.5t31 49.5t25 69t15 92t6 117v565q0 55 -28 90.5t-61 44.5q13 42 58 75.5t121 33.5
q112 0 155 -88q40 73 155 131.5t279 58.5q78 0 151.5 -14t149 -50.5t131.5 -91.5t91 -144t35 -202q0 -149 -54 -264zM1833 217q52 0 96.5 64.5t44.5 169.5q0 84 -29 148t-76.5 99t-101 51.5t-110.5 16.5q-116 0 -230.5 -60.5t-156.5 -150.5v-338h563z" />
    <glyph glyph-name="uniFEBB" unicode="&#x635;" horiz-adv-x="1579" arabic-form="initial" 
d="M889 983q78 0 151.5 -14t148.5 -50.5t131 -91.5t91 -144t35 -202q0 -36 -3 -71.5t-14 -85t-28.5 -92.5t-50 -87t-75 -75t-107 -50.5t-142.5 -19.5h-1026v217h209v420q0 55 -27.5 90.5t-60.5 44.5q13 42 57.5 75.5t120.5 33.5q113 0 156 -88q40 73 155 131.5t279 58.5z
M1038 217q52 0 97 64.5t45 169.5q0 68 -19.5 123t-51 90t-74 58.5t-85.5 33.5t-88 10q-116 0 -230.5 -60.5t-156.5 -150.5v-338h563z" />
    <glyph glyph-name="uniFEBC" unicode="&#x635;" horiz-adv-x="1646" arabic-form="medial" 
d="M1393 217h254v-217h-177q-121 0 -208 61q-94 -61 -236 -61h-1026v217h209v420q0 55 -27.5 90.5t-60.5 44.5q13 42 57.5 75.5t120.5 33.5q113 0 156 -88q40 73 155 131.5t279 58.5q78 0 151.5 -14t148.5 -50.5t131 -91.5t91 -144t35 -202q0 -151 -53 -264zM1038 217
q52 0 97 64.5t45 169.5q0 68 -19.5 123t-51 90t-74 58.5t-85.5 33.5t-88 10q-116 0 -230.5 -60.5t-156.5 -150.5v-338h563z" />
    <glyph glyph-name="uniFEBE" unicode="&#x636;" horiz-adv-x="2441" arabic-form="final" 
d="M1659 1116q-63 0 -107.5 44t-44.5 104q0 61 44.5 104t107.5 43q60 0 103.5 -43t43.5 -104q0 -60 -43.5 -104t-103.5 -44zM2187 217h254v-217h-176q-122 0 -209 61q-94 -61 -235 -61h-553q-3 -68 -11.5 -124t-27 -110.5t-47 -96.5t-72.5 -78.5t-102 -60t-136.5 -37
t-175.5 -13.5q-103 0 -185 15t-140.5 41t-101.5 67t-68.5 86.5t-41 106t-21 119t-5.5 132.5q0 268 67 385t199 117q72 0 114.5 -29t49.5 -65q-63 -55 -114.5 -180.5t-51.5 -284.5q0 -64 9.5 -113.5t23.5 -82t39.5 -55.5t47 -35t57.5 -18.5t59 -7.5t63 -2q32 0 51.5 0.5
t49 3.5t48 10t43 21t39.5 33.5t31 49.5t25 69t15 92t6 117v565q0 55 -28 90.5t-61 44.5q13 42 58 75.5t121 33.5q112 0 155 -88q40 73 155 131.5t279 58.5q78 0 151.5 -14t149 -50.5t131.5 -91.5t91 -144t35 -202q0 -149 -54 -264zM1833 217q52 0 96.5 64.5t44.5 169.5
q0 84 -29 148t-76.5 99t-101 51.5t-110.5 16.5q-116 0 -230.5 -60.5t-156.5 -150.5v-338h563z" />
    <glyph glyph-name="uniFEBF" unicode="&#x636;" horiz-adv-x="1579" arabic-form="initial" 
d="M864 1116q-63 0 -107 44t-44 104q0 61 44 104t107 43q60 0 104 -43t44 -104q0 -60 -44 -104t-104 -44zM889 983q78 0 151.5 -14t148.5 -50.5t131 -91.5t91 -144t35 -202q0 -36 -3 -71.5t-14 -85t-28.5 -92.5t-50 -87t-75 -75t-107 -50.5t-142.5 -19.5h-1026v217h209v420
q0 55 -27.5 90.5t-60.5 44.5q13 42 57.5 75.5t120.5 33.5q113 0 156 -88q40 73 155 131.5t279 58.5zM1038 217q52 0 97 64.5t45 169.5q0 68 -19.5 123t-51 90t-74 58.5t-85.5 33.5t-88 10q-116 0 -230.5 -60.5t-156.5 -150.5v-338h563z" />
    <glyph glyph-name="uniFEC0" unicode="&#x636;" horiz-adv-x="1646" arabic-form="medial" 
d="M864 1116q-63 0 -107 44t-44 104q0 61 44 104t107 43q60 0 104 -43t44 -104q0 -60 -44 -104t-104 -44zM1393 217h254v-217h-177q-121 0 -208 61q-94 -61 -236 -61h-1026v217h209v420q0 55 -27.5 90.5t-60.5 44.5q13 42 57.5 75.5t120.5 33.5q113 0 156 -88
q40 73 155 131.5t279 58.5q78 0 151.5 -14t148.5 -50.5t131 -91.5t91 -144t35 -202q0 -151 -53 -264zM1038 217q52 0 97 64.5t45 169.5q0 68 -19.5 123t-51 90t-74 58.5t-85.5 33.5t-88 10q-116 0 -230.5 -60.5t-156.5 -150.5v-338h563z" />
    <glyph glyph-name="uniFEC2" unicode="&#x637;" horiz-adv-x="1777" arabic-form="final" 
d="M1534 217h244v-217h-160q-126 0 -211 68q-100 -68 -258 -68h-1036q-22 0 -37.5 13.5t-22.5 34t-9.5 35.5t-2.5 26t2.5 26t9.5 35t22.5 33.5t37.5 13.5h100v834q0 35 -6 62t-13 42.5t-19.5 28t-20.5 17t-20.5 10t-14.5 6.5q0 15 9 36t27 44t51 39t75 16q90 0 144 -68.5
t54 -177.5v-500q29 65 77.5 128t117.5 120.5t163.5 93t198.5 35.5q78 0 153.5 -19t146.5 -61.5t124.5 -103t86 -151t32.5 -199.5q0 -134 -45 -232zM1063 217q114 0 183 65.5t69 182.5q0 98 -49 168.5t-123 102.5t-162 32q-87 0 -165 -34.5t-131.5 -84t-98 -114t-68.5 -115
t-39 -96.5v-107h584z" />
    <glyph glyph-name="uniFEC3" unicode="&#x637;" horiz-adv-x="1730" arabic-form="initial" 
d="M1055 983q78 0 153.5 -19t146 -61.5t124 -103t86 -151t32.5 -199.5q0 -69 -12.5 -131t-43.5 -121.5t-78.5 -102t-123.5 -68.5t-172 -26h-1167v217h231v834q0 35 -6 62t-13 42.5t-19.5 28t-20.5 17t-20.5 10t-14.5 6.5q0 15 9 36t27 44t51 39t75 16q90 0 144.5 -69
t54.5 -177v-500q29 65 77.5 128t117.5 120.5t163.5 93t198.5 35.5zM1081 217q114 0 183 65.5t69 182.5q0 98 -49 168.5t-123 102.5t-162 32q-87 0 -165 -34.5t-131 -84t-97.5 -114t-68.5 -115t-39 -96.5v-107h583z" />
    <glyph glyph-name="uniFEC4" unicode="&#x637;" horiz-adv-x="1796" arabic-form="medial" 
d="M1552 217h244v-217h-160q-123 0 -211 68q-100 -68 -258 -68h-1167v217h231v834q0 35 -6 62t-13 42.5t-19.5 28t-20.5 17t-20.5 10t-14.5 6.5q0 15 9 36t27 44t51 39t75 16q90 0 144.5 -69t54.5 -177v-500q29 65 77.5 128t117.5 120.5t163.5 93t198.5 35.5q78 0 153.5 -19
t146 -61.5t124 -103t86 -151t32.5 -199.5q0 -134 -45 -232zM1081 217q114 0 183 65.5t69 182.5q0 98 -49 168.5t-123 102.5t-162 32q-87 0 -165 -34.5t-131 -84t-97.5 -114t-68.5 -115t-39 -96.5v-107h583z" />
    <glyph glyph-name="uniFEC6" unicode="&#x638;" horiz-adv-x="1777" arabic-form="final" 
d="M858 1116q-63 0 -107 44t-44 104q0 61 44 104t107 43q60 0 104 -43t44 -104q0 -60 -44 -104t-104 -44zM1534 217h244v-217h-160q-126 0 -211 68q-100 -68 -258 -68h-1036q-22 0 -37.5 13.5t-22.5 34t-9.5 35.5t-2.5 26t2.5 26t9.5 35t22.5 33.5t37.5 13.5h100v834
q0 35 -6 62t-13 42.5t-19.5 28t-20.5 17t-20.5 10t-14.5 6.5q0 15 9 36t27 44t51 39t75 16q90 0 144 -68.5t54 -177.5v-500q29 65 77.5 128t117.5 120.5t163.5 93t198.5 35.5q78 0 153.5 -19t146.5 -61.5t124.5 -103t86 -151t32.5 -199.5q0 -134 -45 -232zM1063 217
q114 0 183 65.5t69 182.5q0 98 -49 168.5t-123 102.5t-162 32q-87 0 -165 -34.5t-131.5 -84t-98 -114t-68.5 -115t-39 -96.5v-107h584z" />
    <glyph glyph-name="uniFEC7" unicode="&#x638;" horiz-adv-x="1730" arabic-form="initial" 
d="M858 1116q-63 0 -107 44t-44 104q0 61 44 104t107 43q60 0 104 -43t44 -104q0 -60 -44 -104t-104 -44zM1055 983q78 0 153.5 -19t146 -61.5t124 -103t86 -151t32.5 -199.5q0 -69 -12.5 -131t-43.5 -121.5t-78.5 -102t-123.5 -68.5t-172 -26h-1167v217h231v834q0 35 -6 62
t-13 42.5t-19.5 28t-20.5 17t-20.5 10t-14.5 6.5q0 15 9 36t27 44t51 39t75 16q90 0 144.5 -69t54.5 -177v-500q29 65 77.5 128t117.5 120.5t163.5 93t198.5 35.5zM1081 217q114 0 183 65.5t69 182.5q0 98 -49 168.5t-123 102.5t-162 32q-87 0 -165 -34.5t-131 -84
t-97.5 -114t-68.5 -115t-39 -96.5v-107h583z" />
    <glyph glyph-name="uniFEC8" unicode="&#x638;" horiz-adv-x="1796" arabic-form="medial" 
d="M858 1116q-63 0 -107 44t-44 104q0 61 44 104t107 43q60 0 104 -43t44 -104q0 -60 -44 -104t-104 -44zM1552 217h244v-217h-160q-123 0 -211 68q-100 -68 -258 -68h-1167v217h231v834q0 35 -6 62t-13 42.5t-19.5 28t-20.5 17t-20.5 10t-14.5 6.5q0 15 9 36t27 44t51 39
t75 16q90 0 144.5 -69t54.5 -177v-500q29 65 77.5 128t117.5 120.5t163.5 93t198.5 35.5q78 0 153.5 -19t146 -61.5t124 -103t86 -151t32.5 -199.5q0 -134 -45 -232zM1081 217q114 0 183 65.5t69 182.5q0 98 -49 168.5t-123 102.5t-162 32q-87 0 -165 -34.5t-131 -84
t-97.5 -114t-68.5 -115t-39 -96.5v-107h583z" />
    <glyph glyph-name="uniFECA" unicode="&#x639;" horiz-adv-x="1239" arabic-form="final" 
d="M1112 217h127v-217h-78q-107 0 -190 51q-76 -51 -185 -51h-374q0 -183 46.5 -303.5t108.5 -159.5q-9 -31 -44.5 -56.5t-92.5 -25.5q-69 0 -119.5 39t-76 103t-37 129t-11.5 133q0 102 24 180t83 128t147 50h74l-381 516q14 42 49.5 84t91.5 80.5t143 62t189 23.5
q255 0 413.5 -129t158.5 -336q0 -157 -66 -301zM782 244q37 20 64.5 55t40.5 74.5t18.5 72t5.5 60.5q0 115 -88 187.5t-211 72.5q-103 0 -174 -57z" />
    <glyph glyph-name="uniFECB" unicode="&#x639;" horiz-adv-x="1019" arabic-form="initial" 
d="M801 217q27 0 46 -11.5t26.5 -30.5t10.5 -34.5t3 -31.5t-3 -31.5t-10.5 -34.5t-26.5 -31t-46 -12h-316q-117 0 -202 59q-85 -59 -205 -59h-78v217h164q-70 144 -70 293q0 90 31.5 169t81.5 133t111.5 94t120 58.5t108.5 18.5q29 0 66.5 -5t87.5 -21t90 -40t68 -67t28 -98
q0 -73 -43.5 -112.5t-102.5 -39.5q-54 0 -129 29q0 84 -30 125t-66 37q-59 -32 -107.5 -113t-48.5 -184q0 -126 73 -201.5t241 -75.5h127z" />
    <glyph glyph-name="uniFECC" unicode="&#x639;" horiz-adv-x="1163" arabic-form="medial" 
d="M1036 217h127v-217h-78q-107 0 -190 51q-76 -51 -184 -51h-711v217h438l-381 516q14 42 49.5 84t91.5 80.5t143 62t189 23.5q255 0 413.5 -129t158.5 -336q0 -157 -66 -301zM709 242q48 27 78.5 80.5t39.5 99t9 88.5q0 111 -88.5 183.5t-210.5 72.5q-104 0 -175 -57z" />
    <glyph glyph-name="uniFECE" unicode="&#x63a;" horiz-adv-x="1239" arabic-form="final" 
d="M643 1116q-63 0 -107 44t-44 104q0 61 44 104t107 43q60 0 104 -43t44 -104q0 -60 -44 -104t-104 -44zM1112 217h127v-217h-78q-107 0 -190 51q-76 -51 -185 -51h-374q0 -183 46.5 -303.5t108.5 -159.5q-9 -31 -44.5 -56.5t-92.5 -25.5q-69 0 -119.5 39t-76 103t-37 129
t-11.5 133q0 102 24 180t83 128t147 50h74l-381 516q14 42 49.5 84t91.5 80.5t143 62t189 23.5q255 0 413.5 -129t158.5 -336q0 -157 -66 -301zM782 244q37 20 64.5 55t40.5 74.5t18.5 72t5.5 60.5q0 115 -88 187.5t-211 72.5q-103 0 -174 -57z" />
    <glyph glyph-name="uniFECF" unicode="&#x63a;" horiz-adv-x="1019" arabic-form="initial" 
d="M512 1116q-63 0 -107.5 44t-44.5 104q0 61 44.5 104t107.5 43q60 0 103.5 -43t43.5 -104q0 -60 -43.5 -104t-103.5 -44zM801 217q27 0 46 -11.5t26.5 -30.5t10.5 -34.5t3 -31.5t-3 -31.5t-10.5 -34.5t-26.5 -31t-46 -12h-316q-117 0 -202 59q-85 -59 -205 -59h-78v217
h164q-70 144 -70 293q0 90 31.5 169t81.5 133t111.5 94t120 58.5t108.5 18.5q29 0 66.5 -5t87.5 -21t90 -40t68 -67t28 -98q0 -73 -43.5 -112.5t-102.5 -39.5q-54 0 -129 29q0 84 -30 125t-66 37q-59 -32 -107.5 -113t-48.5 -184q0 -126 73 -201.5t241 -75.5h127z" />
    <glyph glyph-name="uniFED0" unicode="&#x63a;" horiz-adv-x="1163" arabic-form="medial" 
d="M588 1116q-63 0 -107.5 44t-44.5 104q0 61 44.5 104t107.5 43q60 0 103.5 -43t43.5 -104q0 -60 -43.5 -104t-103.5 -44zM1036 217h127v-217h-78q-107 0 -190 51q-76 -51 -184 -51h-711v217h438l-381 516q14 42 49.5 84t91.5 80.5t143 62t189 23.5q255 0 413.5 -129
t158.5 -336q0 -157 -66 -301zM709 242q48 27 78.5 80.5t39.5 99t9 88.5q0 111 -88.5 183.5t-210.5 72.5q-104 0 -175 -57z" />
    <glyph glyph-name="uniFED2" unicode="&#x641;" horiz-adv-x="2060" arabic-form="final" 
d="M1477 1116q-63 0 -107.5 44t-44.5 104q0 61 44.5 104t107.5 43q60 0 103.5 -43t43.5 -104q0 -60 -43.5 -104t-103.5 -44zM1882 217h178v-217h-200q-64 0 -123 18q-49 -18 -117 -18h-1073q-414 0 -414 444q0 103 22 179t59.5 117t80.5 60t92 19q73 0 112.5 -37t43.5 -82
q-53 -27 -98.5 -105.5t-45.5 -195.5q0 -97 43 -139.5t109 -42.5h547q-27 50 -41.5 132.5t-14.5 164.5q0 90 14 162t36 120t56 83.5t68.5 55t80 31t82 14.5t83.5 3q79 0 138.5 -9t115.5 -35.5t91.5 -71t57 -118.5t21.5 -176v-288q0 -28 -4 -68zM1620 348v299q0 44 -24.5 72.5
t-53.5 38.5t-59 10q-78 0 -126 -75t-48 -185q0 -46 9.5 -94t29 -93.5t55.5 -74.5t82 -29h47q88 0 88 131z" />
    <glyph glyph-name="uniFED3" unicode="&#x641;" horiz-adv-x="1116" arabic-form="initial" 
d="M573 1116q-63 0 -107 44t-44 104q0 61 44 104t107 43q60 0 104 -43t44 -104q0 -60 -44 -104t-104 -44zM559 983q79 0 138.5 -9t115.5 -35.5t91.5 -71t57 -118.5t21.5 -176v-288q0 -134 -66.5 -209.5t-199.5 -75.5h-717v217h195q-27 50 -41.5 132.5t-14.5 164.5
q0 90 14 162t36 120t56 83.5t68.5 55t80 31t82 14.5t83.5 3zM717 348v299q0 44 -24.5 72.5t-53.5 38.5t-59 10q-78 0 -126 -75t-48 -185q0 -46 9.5 -94t29 -93.5t55.5 -74.5t82 -29h47q88 0 88 131z" />
    <glyph glyph-name="uniFED4" unicode="&#x641;" horiz-adv-x="1159" arabic-form="medial" 
d="M580 1116q-63 0 -107.5 44t-44.5 104q0 61 44.5 104t107.5 43q60 0 103.5 -43t43.5 -104q0 -60 -43.5 -104t-103.5 -44zM979 217h180v-217h-203q-64 0 -122 18q-50 -18 -117 -18h-717v217h195q-27 50 -41.5 132.5t-14.5 164.5q0 90 14 162t36 120t56 83.5t68.5 55t80 31
t82 14.5t83.5 3q79 0 138.5 -9t115.5 -35.5t91.5 -71t57 -118.5t21.5 -176v-288q0 -28 -4 -68zM717 348v299q0 44 -24.5 72.5t-53.5 38.5t-59 10q-78 0 -126 -75t-48 -185q0 -46 9.5 -94t29 -93.5t55.5 -74.5t82 -29h47q88 0 88 131z" />
    <glyph glyph-name="uniFED6" unicode="&#x642;" horiz-adv-x="1937" arabic-form="final" 
d="M1178 1126q-54 0 -94 39.5t-40 94.5t40 94t94 39q56 0 94.5 -38.5t38.5 -94.5t-39 -95t-94 -39zM1509 1126q-54 0 -93.5 39.5t-39.5 94.5t39.5 94t93.5 39q57 0 95 -38.5t38 -94.5t-38 -95t-95 -39zM1937 217v-217h-206q-22 -110 -71 -193.5t-117.5 -138t-162 -89
t-197.5 -48.5t-231 -14q-185 0 -328.5 30.5t-235 82.5t-150 127.5t-82 158t-23.5 180.5q0 82 16.5 158t48 138.5t82 100t113.5 37.5q55 0 88.5 -24t40.5 -55q-47 -47 -85 -144.5t-38 -220.5q0 -83 24.5 -144t82.5 -109.5t162.5 -73.5t255.5 -25q491 0 526 266h-162
q-383 0 -383 508q0 112 19 194.5t54 136.5t91 86t123 45t156 13q107 0 178 -19.5t123.5 -70t76 -138.5t23.5 -223v-315h188zM1171 508q0 -73 16 -135.5t57.5 -109t103.5 -46.5h135v430q0 44 -24.5 72.5t-53.5 38.5t-59 10q-78 0 -126.5 -75t-48.5 -185z" />
    <glyph glyph-name="uniFED7" unicode="&#x642;" horiz-adv-x="1116" arabic-form="initial" 
d="M406 1126q-54 0 -94 39.5t-40 94.5t40 94t94 39q56 0 94.5 -38.5t38.5 -94.5t-39 -95t-94 -39zM737 1126q-54 0 -93.5 39.5t-39.5 94.5t39.5 94t93.5 39q57 0 95 -38.5t38 -94.5t-38 -95t-95 -39zM559 983q79 0 138.5 -9t115.5 -35.5t91.5 -71t57 -118.5t21.5 -176v-288
q0 -134 -66.5 -209.5t-199.5 -75.5h-717v217h195q-27 50 -41.5 132.5t-14.5 164.5q0 90 14 162t36 120t56 83.5t68.5 55t80 31t82 14.5t83.5 3zM717 348v299q0 44 -24.5 72.5t-53.5 38.5t-59 10q-78 0 -126 -75t-48 -185q0 -46 9.5 -94t29 -93.5t55.5 -74.5t82 -29h47
q88 0 88 131z" />
    <glyph glyph-name="uniFED8" unicode="&#x642;" horiz-adv-x="1159" arabic-form="medial" 
d="M412 1126q-54 0 -93.5 39.5t-39.5 94.5t39.5 94t93.5 39q56 0 94.5 -38.5t38.5 -94.5t-39 -95t-94 -39zM743 1126q-54 0 -93.5 39.5t-39.5 94.5t39.5 94t93.5 39q57 0 95.5 -38.5t38.5 -94.5t-38.5 -95t-95.5 -39zM979 217h180v-217h-203q-64 0 -122 18q-50 -18 -117 -18
h-717v217h195q-27 50 -41.5 132.5t-14.5 164.5q0 90 14 162t36 120t56 83.5t68.5 55t80 31t82 14.5t83.5 3q79 0 138.5 -9t115.5 -35.5t91.5 -71t57 -118.5t21.5 -176v-288q0 -28 -4 -68zM717 348v299q0 44 -24.5 72.5t-53.5 38.5t-59 10q-78 0 -126 -75t-48 -185
q0 -46 9.5 -94t29 -93.5t55.5 -74.5t82 -29h47q88 0 88 131z" />
    <glyph glyph-name="uniFEDA" unicode="&#x643;" horiz-adv-x="1775" arabic-form="final" 
d="M1565 217h211v-217h-154q-95 0 -172 39q-58 -39 -139 -39h-912q-87 0 -149 46.5t-89.5 119t-27.5 162.5v190q0 55 32 95t101 40t101 -40.5t32 -98.5v-166q0 -131 88 -131h736q42 0 65 34t23 99v701q0 35 -6 62t-13 42.5t-19.5 28t-20.5 17t-20.5 10t-14.5 6.5q0 15 9 36
t26.5 44t50.5 39t75 16q90 0 144.5 -69t54.5 -177v-776q0 -60 -12 -113zM696 637q-35 7 -50 42t10.5 68t93.5 33q-32 14 -58 50.5t-26 84.5q0 33 13 66.5t38 64t68.5 49.5t99.5 19q63 0 100 -25.5t37 -78.5q0 -37 -20 -54t-45.5 -16t-53.5 12q2 30 -11 54t-42 24
q-39 -44 -39 -94q0 -49 37.5 -88t97.5 -39q18 0 45.5 5t34.5 5q28 0 39.5 -27.5t1.5 -55.5t-33 -29q-19 0 -66 -3t-112 -10t-112.5 -22t-47.5 -35z" />
    <glyph glyph-name="uniFEDB" unicode="&#x643;" horiz-adv-x="1261" arabic-form="initial" 
d="M0 0v217h743q58 0 88.5 39.5t30.5 101.5q0 142 -162 142h-219q-163 0 -250.5 94t-87.5 252q0 368 480 368q39 0 180 -6q96 0 155.5 25.5t73.5 56.5q51 0 51 -82q0 -84 -51 -147.5t-145 -63.5h-275q-102 0 -152 -41t-50 -106q0 -57 38.5 -95t108.5 -38h164q407 0 407 -365
q0 -162 -76.5 -257t-220.5 -95h-831z" />
    <glyph glyph-name="uniFEDC" unicode="&#x643;" horiz-adv-x="1595" arabic-form="medial" 
d="M1112 217h483v-217h-471q-81 0 -151 31q-64 -31 -142 -31h-831v217h743q58 0 88.5 39.5t30.5 101.5q0 142 -162 142h-219q-163 0 -250.5 94t-87.5 252q0 368 480 368q39 0 180 -6q96 0 155.5 25.5t73.5 56.5q51 0 51 -82q0 -84 -51 -147.5t-145 -63.5h-275
q-102 0 -152 -41t-50 -106q0 -57 38.5 -95t108.5 -38h164q407 0 407 -365q0 -69 -16 -135z" />
    <glyph glyph-name="uniFEDE" unicode="&#x644;" horiz-adv-x="1521" arabic-form="final" 
d="M1317 217h205v-217h-29q-101 0 -176 55q-7 -538 -569 -538q-299 0 -457 149t-158 426q0 55 6 105t23 103t44 91.5t72.5 63t104.5 24.5q53 0 97 -17t65 -38q-54 -38 -99 -131.5t-45 -216.5q0 -166 94.5 -255t249.5 -89q69 0 123.5 19t88 48.5t55.5 70.5t30.5 81.5
t8.5 83.5v1016q0 35 -6 62t-13.5 42.5t-20 28t-20 17t-20.5 10t-15 6.5q0 15 9 36t27 44t51 39t75 16q90 0 144.5 -69t54.5 -177v-889z" />
    <glyph glyph-name="uniFEDF" unicode="&#x644;" horiz-adv-x="624" arabic-form="initial" 
d="M0 0v217h137q42 0 65 34t23 99v701q0 35 -6 62t-13 42.5t-19.5 28t-20.5 17t-20.5 10t-14.5 6.5q0 15 9 36t27 44t51 39t75 16q90 0 144.5 -69t54.5 -177v-776q0 -90 -28 -163t-90 -120t-149 -47h-225z" />
    <glyph glyph-name="uniFEE0" unicode="&#x644;" horiz-adv-x="690" arabic-form="medial" 
d="M479 217h211v-217h-112q-111 0 -193 53l2 2q-64 -55 -162 -55h-225v217h137q42 0 65 34t23 99v701q0 35 -6 62t-13 42.5t-19.5 28t-20.5 17t-20.5 10t-14.5 6.5q0 15 9 36t27 44t51 39t75 16q90 0 144.5 -69t54.5 -177v-776q0 -56 -13 -113z" />
    <glyph glyph-name="uniFEE2" unicode="&#x645;" horiz-adv-x="1423" arabic-form="final" 
d="M1143 217h280v-217h-180q-123 0 -215 66q-89 -66 -231 -66h-195q-76 0 -118 -36t-42 -91v-197q0 -107 -54 -176t-142 -69q-80 0 -122 48.5t-42 86.5q2 1 14.5 6.5t20.5 10t20.5 17t19.5 28t13 42.5t6 62v121q0 33 7 71t23.5 85t51 91t82.5 72v301q0 129 15.5 219t44 147
t78 89t107 43.5t142.5 11.5q49 0 89.5 -3.5t89.5 -16t86.5 -33.5t75 -59t62 -89.5t39.5 -127.5t15 -171q0 -160 -41 -266zM793 217q39 0 66 28t38.5 75t16 88t4.5 88q0 135 -35.5 202.5t-128.5 67.5q-60 0 -104 -28.5t-44 -92.5v-428h187z" />
    <glyph glyph-name="uniFEE3" unicode="&#x645;" horiz-adv-x="1095" arabic-form="initial" 
d="M506 983q49 0 89.5 -3.5t89.5 -16t86.5 -33.5t75 -59t62 -89.5t39.5 -127.5t15 -171q0 -487 -388 -487q-112 0 -190 45q-72 -41 -174 -41h-211v217h119v256q0 129 15.5 219t44 147t78 89t107 43.5t142.5 11.5zM571 217q39 0 66 28t38.5 75t16 88t4.5 88
q0 135 -35.5 202.5t-128.5 67.5q-59 0 -103 -28.5t-44 -92.5v-428h186z" />
    <glyph glyph-name="uniFEE4" unicode="&#x645;" horiz-adv-x="1079" arabic-form="medial" 
d="M922 217h157v-217h-57q-119 0 -211 63q-91 -67 -236 -67q-112 0 -190 45q-72 -41 -174 -41h-211v217h119v256q0 129 15.5 219t44 147t78 89t107 43.5t142.5 11.5q49 0 89.5 -3.5t89.5 -16t86.5 -33.5t75 -59t62 -89.5t39.5 -127.5t15 -171q0 -160 -41 -266zM571 217
q39 0 66 28t38.5 75t16 88t4.5 88q0 135 -35.5 202.5t-128.5 67.5q-59 0 -103 -28.5t-44 -92.5v-428h186z" />
    <glyph glyph-name="uniFEE6" unicode="&#x646;" horiz-adv-x="1513" arabic-form="final" 
d="M727 983q-63 0 -107.5 43.5t-44.5 103.5q0 61 44.5 104.5t107.5 43.5q60 0 103.5 -43.5t43.5 -104.5q0 -60 -43.5 -103.5t-103.5 -43.5zM1317 217h196v-217h-32q-87 0 -164 45q-14 -528 -569 -528q-299 0 -457 149t-158 426q0 55 6 105t23 103t44 91.5t72.5 63
t104.5 24.5q53 0 97 -17t65 -38q-54 -38 -99 -131.5t-45 -216.5q0 -166 94.5 -255t249.5 -89q69 0 123.5 19t88 48.5t55.5 70.5t30.5 81.5t8.5 83.5v813q0 55 32 95t101 40t101 -40.5t32 -98.5v-627z" />
    <glyph glyph-name="uniFEE7" unicode="&#x646;" horiz-adv-x="729" arabic-form="initial" 
d="M360 1116q-63 0 -107 44t-44 104q0 61 44 104t107 43q60 0 104 -43t44 -104q0 -60 -44 -104t-104 -44zM0 0v217h188q60 0 101 80t41 231q0 78 -9 132t-31 91t-42 57.5t-58 49.5q0 41 43.5 83t122.5 42q117 0 178.5 -106t61.5 -291q0 -116 -24 -218.5t-71.5 -186
t-126.5 -132.5t-181 -49h-193z" />
    <glyph glyph-name="uniFEE8" unicode="&#x646;" horiz-adv-x="745" arabic-form="medial" 
d="M375 1116q-63 0 -107.5 44t-44.5 104q0 61 44.5 104t107.5 43q60 0 103.5 -43t43.5 -104q0 -60 -43.5 -104t-103.5 -44zM594 217h151v-217h-292q-107 0 -201 72q-46 -38 -85.5 -55t-98.5 -17h-68v217h68q54 0 92 15t80 47v569q0 55 32 95t101 40t101 -40.5t32 -98.5v-496
q0 -131 88 -131z" />
    <glyph glyph-name="uniFEEA" unicode="&#x647;" horiz-adv-x="1095" arabic-form="final" 
d="M977 217h119v-217h-211q-102 0 -174 41q-78 -45 -191 -45q-387 0 -387 487q0 95 15 171t39.5 127.5t62 89.5t75 59t86.5 33.5t89.5 16t89.5 3.5q85 0 142.5 -11.5t107 -43.5t78 -89t44 -147t15.5 -219v-256zM399 496q0 -47 4.5 -88t16 -88t38.5 -75t66 -28h187v428
q0 64 -44 92.5t-104 28.5q-93 0 -128.5 -67.5t-35.5 -202.5z" />
    <glyph glyph-name="uniFEEB" unicode="&#x647;" horiz-adv-x="1478" arabic-form="initial" 
d="M879 1243q55 0 116 -22.5t124 -74t113 -124t82 -183.5t32 -241q0 -293 -157.5 -445.5t-453.5 -152.5q-49 0 -96 5t-71 10t-68.5 16t-57.5 14q-61 -31 -128.5 -38t-239.5 -7h-74v217h51q64 -35 131 -35q36 0 62 11q-36 56 -57 140t-21 167q0 54 9 105t29.5 100t51.5 85
t79 58t107 22q73 0 130 -33.5t89 -88t48 -116t16 -126.5q0 -97 -30 -204t-60 -140q30 -6 80 -6q64 0 115 10t99 37t80 71t51 115.5t19 167.5q0 118 -28 209t-75.5 144.5t-104.5 80.5t-121 27h-301q-62 0 -110 20.5t-74 53t-43 74t-16.5 83.5t5.5 80q14 -36 93.5 -65
t215.5 -29q45 0 195.5 4t163.5 4zM442 227q20 20 43 102.5t23 151.5q0 68 -21.5 121t-44.5 53t-41 -51.5t-18 -124.5q0 -75 19.5 -149t39.5 -103z" />
    <glyph glyph-name="uniFEEC" unicode="&#x647;" horiz-adv-x="1150" arabic-form="medial" 
d="M1151 217v-217h-178q-1 -22 -11 -61.5t-39 -98t-71.5 -108t-117.5 -85.5t-167 -36q-94 0 -173 36.5t-129 95.5t-80 125t-38 132h-147v217h143v221q0 101 15 184t39 138t57 97.5t64.5 65.5t66 37.5t57.5 18.5t43 4q29 0 64 -8.5t84 -38t87 -76.5t65.5 -135t27.5 -203
q0 -93 -18 -170.5t-45 -129t-65.5 -92t-74.5 -63t-77 -37.5t-67 -20.5t-50 -7.5q14 -93 58 -134.5t93 -41.5q42 0 78.5 32.5t61 81t42 104t25.5 100.5t8 73h369zM485 741q-10 0 -20.5 -10t-20.5 -32t-17.5 -53.5t-12 -79.5t-4.5 -105v-240q137 37 137 258q0 88 -20 161
t-42 101z" />
    <glyph glyph-name="uniFEEE" unicode="&#x648;" horiz-adv-x="1173" arabic-form="final" 
d="M1174 217v-217h-197v-98q0 -29 -3.5 -59t-13.5 -67.5t-26 -70.5t-44 -66t-65 -56t-91.5 -37.5t-119.5 -14.5q-87 0 -150 26t-94 68t-42 88t-4 94q39 -31 101 -55t124 -24q41 0 75.5 10.5t60.5 40t26 74.5v147l-191 -4q-387 0 -387 487q0 95 15 171t39.5 127.5t62 89.5
t75 59t86.5 33.5t89.5 16t89.5 3.5q85 0 142.5 -11.5t107 -43.5t78 -89t44 -147t15.5 -219v-256h197zM399 496q0 -54 4.5 -96.5t16 -87.5t38.5 -70t66 -25h187v428q0 64 -44 92.5t-104 28.5q-93 0 -128.5 -67.5t-35.5 -202.5z" />
    <glyph glyph-name="uniFEF0" unicode="&#x649;" horiz-adv-x="1931" arabic-form="final" 
d="M889 -483q-136 0 -247 20.5t-185.5 54t-130 83t-86.5 99t-50 110.5t-24.5 110.5t-5.5 105.5q0 102 19 181.5t47.5 125t66 74.5t70.5 39t65 10q64 0 99 -36t40 -82q-54 -43 -97.5 -132.5t-43.5 -199.5q0 -346 485 -346q128 0 224 22.5t150 61.5t80 84.5t26 97.5h-41
q-70 0 -119.5 19t-73 49.5t-31 69t-0.5 77t25 74.5q26 -28 78.5 -50t118.5 -22h583v-217h-272q0 -71 -20 -135.5t-72 -129.5t-131.5 -112t-208.5 -76.5t-293 -29.5h-45z" />
    <glyph glyph-name="uniFEF2" unicode="&#x64a;" horiz-adv-x="1931" arabic-form="final" 
d="M889 -483q-136 0 -247 20.5t-185.5 54t-130 83t-86.5 99t-50 110.5t-24.5 110.5t-5.5 105.5q0 102 19 181.5t47.5 125t66 74.5t70.5 39t65 10q64 0 99 -36t40 -82q-54 -43 -97.5 -132.5t-43.5 -199.5q0 -346 485 -346q128 0 224 22.5t150 61.5t80 84.5t26 97.5h-41
q-70 0 -119.5 19t-73 49.5t-31 69t-0.5 77t25 74.5q26 -28 78.5 -50t118.5 -22h583v-217h-272q0 -71 -20 -135.5t-72 -129.5t-131.5 -112t-208.5 -76.5t-293 -29.5h-45zM723 -883q-54 0 -93.5 39t-39.5 94t39.5 94.5t93.5 39.5q55 0 94 -39t39 -95t-39 -94.5t-94 -38.5z
M1055 -883q-54 0 -93.5 39t-39.5 94t39.5 94.5t93.5 39.5q57 0 95 -39t38 -95t-38 -94.5t-95 -38.5z" />
    <glyph glyph-name="uniFEF3" unicode="&#x64a;" horiz-adv-x="729" arabic-form="initial" 
d="M0 0v217h188q60 0 101 80t41 231q0 78 -9 132t-31 91t-42 57.5t-58 49.5q0 41 43.5 83t122.5 42q117 0 178.5 -106t61.5 -291q0 -116 -24 -218.5t-71.5 -186t-126.5 -132.5t-181 -49h-193zM184 -440q-54 0 -93.5 39t-39.5 94t39.5 94t93.5 39q56 0 94.5 -39t38.5 -94
t-38.5 -94t-94.5 -39zM516 -440q-54 0 -93.5 39t-39.5 94t39.5 94t93.5 39q57 0 95 -38.5t38 -94.5t-38 -94.5t-95 -38.5z" />
    <glyph glyph-name="uniFEF4" unicode="&#x64a;" horiz-adv-x="745" arabic-form="medial" 
d="M594 217h151v-217h-292q-107 0 -201 72q-46 -38 -85.5 -55t-98.5 -17h-68v217h68q54 0 92 15t80 47v569q0 55 32 95t101 40t101 -40.5t32 -98.5v-496q0 -131 88 -131zM207 -174q55 0 94 -39t39 -94t-39 -94t-94 -39q-54 0 -93.5 39t-39.5 94t39.5 94t93.5 39zM539 -174
q57 0 95 -38.5t38 -94.5t-38 -94.5t-95 -38.5q-54 0 -93.5 39t-39.5 94t39.5 94t93.5 39z" />
    <glyph glyph-name=".notdef" horiz-adv-x="552" 
 />
    <glyph glyph-name=".null" 
 />
    <glyph glyph-name="nonmarkingreturn" horiz-adv-x="682" 
 />
    <glyph glyph-name="space" unicode=" " horiz-adv-x="512" 
 />
    <glyph glyph-name="exclam" unicode="!" horiz-adv-x="501" 
d="M154 317l-39 1035h272l-41 -1035h-192zM250 -29q-59 0 -92 34t-33 91t33 91t92 34t92 -34t33 -91t-33 -91t-92 -34z" />
    <glyph glyph-name="quotedbl" unicode="&#x22;" horiz-adv-x="798" 
d="M154 799l-62 553h266l-61 -553h-143zM502 799l-62 553h267l-62 -553h-143z" />
    <glyph glyph-name="numbersign" unicode="#" horiz-adv-x="1431" 
d="M238 0l73 352h-252v133h279l76 361h-232v133h260l84 403h203l-84 -403h260l84 403h203l-84 -403h262v-133h-291l-73 -361h241v-133h-270l-74 -352h-203l74 352h-260l-74 -352h-202zM543 485h258l76 361h-261z" />
    <glyph glyph-name="dollar" unicode="$" horiz-adv-x="1126" 
d="M481 -164v133q-165 13 -280 77.5t-115 164.5v240h57q30 -189 112 -281.5t226 -110.5v529l-139 84q-137 81 -195.5 166.5t-58.5 199.5q0 147 104 239t289 109v119h144v-121q156 -13 270.5 -79.5t114.5 -161.5v-240h-58q-30 191 -110 283t-217 106v-493l170 -101
q144 -84 206 -163t62 -189q0 -162 -114 -262t-324 -117v-131h-144zM481 885v401q-73 -20 -112 -68.5t-39 -119.5q0 -69 36 -115t115 -98zM625 63q84 18 132 67t48 126q0 75 -44 131.5t-136 114.5v-439z" />
    <glyph glyph-name="percent" unicode="%" horiz-adv-x="1546" 
d="M389 797q-155 0 -241.5 74t-86.5 208t87 208.5t241 74.5q151 0 237.5 -74.5t86.5 -208.5t-86.5 -208t-237.5 -74zM170 0l991 1352h217l-991 -1352h-217zM387 879q80 0 121 51t41 149t-42 149.5t-122 51.5q-78 0 -119 -51.5t-41 -149.5t41 -149t121 -51zM1163 -10
q-154 0 -240.5 74t-86.5 208q0 135 86.5 209t240.5 74q151 0 237.5 -74.5t86.5 -208.5t-86.5 -208t-237.5 -74zM1161 72q80 0 121 51t41 149t-42 149.5t-122 51.5q-78 0 -119 -51.5t-41 -149.5t41 -149t121 -51z" />
    <glyph glyph-name="ampersand" unicode="&#x26;" horiz-adv-x="1302" 
d="M1280 0h-279l-77 78q0 -1 -16.5 -13t-49.5 -30t-74.5 -35t-98.5 -29t-114 -12q-137 0 -238 25t-157.5 69.5t-83 99.5t-26.5 123q0 126 86 220t237 172q-26 23 -54 53.5t-72.5 87.5t-72.5 127t-28 137q0 152 108 236t301 84q182 0 280.5 -78t98.5 -209q0 -61 -25 -119
t-71.5 -109.5t-99 -94t-121.5 -87.5l379 -409q52 58 123 166q29 44 49 82l78 -52q-15 -37 -45 -88q-61 -100 -136 -184zM571 1311q-73 0 -108 -53.5t-35 -184.5q0 -164 129 -293q72 65 110 138t38 167q0 116 -40.5 171t-93.5 55zM590 41q81 0 152 31t120 75l-391 422
q-139 -124 -139 -272q0 -120 66 -188t192 -68z" />
    <glyph glyph-name="quotesingle" unicode="'" horiz-adv-x="450" 
d="M154 799l-62 553h266l-61 -553h-143z" />
    <glyph glyph-name="parenleft" unicode="(" horiz-adv-x="655" 
d="M608 -451q-279 189 -419 421t-140 522q0 289 140 521t419 421l29 -41q-322 -286 -322 -901q0 -616 322 -902z" />
    <glyph glyph-name="parenright" unicode=")" horiz-adv-x="657" 
d="M49 -451l-29 41q322 286 322 902q0 615 -322 901l29 41q279 -189 419 -421t140 -521q0 -290 -140 -522t-419 -421z" />
    <glyph glyph-name="asterisk" unicode="*" horiz-adv-x="888" 
d="M330 664l49 247l-201 -182l-100 176l295 103l-295 102l100 176l201 -182l-49 248h229l-49 -248l201 182l100 -176l-295 -102l295 -103l-100 -176l-203 184l51 -249h-229z" />
    <glyph glyph-name="plus" unicode="+" horiz-adv-x="1118" 
d="M467 205v399h-404v144h404v399h184v-399h404v-144h-404v-399h-184z" />
    <glyph glyph-name="comma" unicode="," horiz-adv-x="466" 
d="M129 -328l-37 49q67 44 117.5 109t50.5 147q-24 -6 -31 -6q-59 0 -92 34t-33 91t33 91t92 34q64 0 100 -47t36 -113q0 -120 -54.5 -212.5t-181.5 -176.5z" />
    <glyph glyph-name="hyphen" unicode="-" horiz-adv-x="808" 
d="M119 444v195h571v-195h-571z" />
    <glyph glyph-name="period" unicode="." horiz-adv-x="458" 
d="M229 -29q-59 0 -92 34t-33 91t33 91t92 34t92 -34t33 -91t-33 -91t-92 -34z" />
    <glyph glyph-name="slash" unicode="/" horiz-adv-x="972" 
d="M43 0l657 1352h230l-658 -1352h-229z" />
    <glyph glyph-name="zero" unicode="0" horiz-adv-x="1241" 
d="M621 -41q-533 0 -533 717t533 717q532 0 532 -717t-532 -717zM621 51q128 0 186.5 150t58.5 475t-58 474.5t-187 149.5t-187.5 -149.5t-58.5 -474.5t58.5 -475t187.5 -150z" />
    <glyph glyph-name="one" unicode="1" horiz-adv-x="661" 
d="M244 0v1110l-178 -115l-50 64l316 293h178v-1352h-266z" />
    <glyph glyph-name="two" unicode="2" horiz-adv-x="1103" 
d="M84 0v133q25 25 105.5 101t138 132.5t136.5 145.5t129.5 162.5t87 161t36.5 161.5q0 150 -65 226.5t-160 76.5q-133 0 -219.5 -88.5t-116.5 -269.5h-72q0 71 1.5 110.5t13 93.5t34.5 83q58 71 166.5 117.5t232.5 46.5q44 0 85.5 -4t90 -16t89.5 -30t80 -49t66.5 -71.5
t44 -98t16.5 -127.5q0 -91 -46.5 -191t-116 -184.5t-160 -172t-168 -149.5t-152 -122.5t-99.5 -85.5h424q123 0 189.5 58t66.5 167h62v-153q0 -164 -175 -164h-745z" />
    <glyph glyph-name="three" unicode="3" horiz-adv-x="1112" 
d="M567 -41q-185 0 -301 55.5t-211 165.5l58 60q84 -94 178.5 -141.5t185.5 -47.5q127 0 206 81.5t79 246.5q0 158 -73.5 237.5t-188.5 79.5q-55 0 -90.5 -6.5t-104.5 -26.5q-13 -4 -20 -6l-49 78l559 525h-367q-123 0 -189.5 -58.5t-66.5 -167.5h-61v154q0 164 174 164h692
v-92l-510 -480q1 1 23 3t53.5 3.5t54.5 1.5q48 0 98 -9.5t101.5 -29t96 -52.5t79.5 -77t55.5 -106t20.5 -135q0 -82 -24.5 -150t-66 -112t-91.5 -76.5t-106 -49.5t-103.5 -24.5t-90.5 -7.5z" />
    <glyph glyph-name="four" unicode="4" horiz-adv-x="1171" 
d="M674 0v348h-656v82l709 922h213v-912h184v-92h-184v-348h-266zM160 440h514v672z" />
    <glyph glyph-name="five" unicode="5" horiz-adv-x="1118" 
d="M543 -41q-160 0 -267 55t-200 166l59 53q74 -92 170 -137t191 -45q127 0 204.5 83t77.5 255q0 157 -83.5 236.5t-239.5 79.5q-91 0 -256 -48l-82 80l22 615h797v-90h-559l-19 -474l62 5q105 6 117 6q70 0 138 -11t140 -40.5t126.5 -74t89 -118t34.5 -166.5
q0 -98 -36 -176t-91 -124.5t-127.5 -77t-138 -41.5t-129.5 -11z" />
    <glyph glyph-name="six" unicode="6" horiz-adv-x="1146" 
d="M602 -41q-512 0 -512 717q0 367 143.5 542t430.5 175q86 0 177 -21.5t150 -48.5l-12 -57q-196 34 -274 34q-159 0 -248.5 -128.5t-89.5 -383.5q49 40 125.5 69.5t160.5 29.5q117 0 201.5 -33t133.5 -96.5t72 -146.5t23 -191q0 -91 -31 -173.5t-90 -147t-152 -102.5
t-208 -38zM602 51q96 0 150.5 105.5t54.5 263.5q0 189 -50.5 282t-164.5 93q-56 0 -112 -25.5t-84.5 -50t-28.5 -29.5q0 -639 235 -639z" />
    <glyph glyph-name="seven" unicode="7" horiz-adv-x="968" 
d="M197 0l512 1260h-349q-123 0 -189.5 -58.5t-66.5 -167.5h-61v154q0 164 174 164h739v-92l-512 -1260h-247z" />
    <glyph glyph-name="eight" unicode="8" horiz-adv-x="1183" 
d="M592 -41q-108 0 -198.5 20t-162 61t-111.5 110t-40 161q0 70 27 129t78.5 104t107 77.5t129.5 64.5q-69 38 -114.5 69t-89.5 74t-65.5 95.5t-21.5 115.5q0 98 36 168.5t101 110t144.5 57t179.5 17.5t180 -17t145 -54t100.5 -103.5t35.5 -157.5q0 -209 -277 -328
q59 -32 100.5 -58t87.5 -64t74.5 -77t47 -91t18.5 -111q0 -98 -39.5 -171.5t-110.5 -116.5t-161.5 -64t-200.5 -21zM670 786q56 43 81 104.5t25 170.5q0 67 -17.5 116t-46 74.5t-58.5 37t-62 11.5t-62 -11t-58.5 -34.5t-46 -68t-17.5 -105.5q0 -89 73 -165t189 -130zM592 51
q107 0 171 62t64 178q0 61 -22.5 112t-67.5 93.5t-92 73.5t-115 67q-85 -45 -129.5 -120t-44.5 -206q0 -130 63.5 -195t172.5 -65z" />
    <glyph glyph-name="nine" unicode="9" horiz-adv-x="1146" 
d="M483 -41q-91 0 -186 22.5t-141 47.5l12 57q131 -24 171 -29.5t103 -5.5q159 0 248.5 128.5t89.5 383.5q-48 -40 -125 -69t-161 -29q-431 0 -431 467q0 91 31.5 173.5t90 147t152 102.5t208.5 38q512 0 512 -717q0 -369 -143 -543t-431 -174zM555 557q54 0 110 25.5
t85.5 50t29.5 29.5q0 638 -235 638q-96 0 -150.5 -105t-54.5 -263q0 -189 50.5 -282t164.5 -93z" />
    <glyph glyph-name="colon" unicode=":" horiz-adv-x="487" 
d="M244 694q-59 0 -92 34t-33 91t33 91t92 34t92 -34t33 -91t-33 -91t-92 -34zM244 -29q-59 0 -92 34t-33 91t33 91t92 34t92 -34t33 -91t-33 -91t-92 -34z" />
    <glyph glyph-name="semicolon" unicode=";" horiz-adv-x="509" 
d="M254 694q-59 0 -92 34t-33 91t33 91t92 34t92 -34t33 -91t-33 -91t-92 -34zM154 -328l-37 49q67 44 117.5 109t50.5 147q-24 -6 -31 -6q-59 0 -92 34t-33 91t33 91t92 34q64 0 99.5 -47t35.5 -113q0 -120 -54 -212.5t-181 -176.5z" />
    <glyph glyph-name="less" unicode="&#x3c;" horiz-adv-x="1249" 
d="M1124 152l-1065 462v144l1065 463v-187l-802 -348l802 -348v-186z" />
    <glyph glyph-name="equal" unicode="=" horiz-adv-x="1361" 
d="M119 788v144h1124v-144h-1124zM119 420v143h1124v-143h-1124z" />
    <glyph glyph-name="greater" unicode="&#x3e;" horiz-adv-x="1249" 
d="M125 152v186l803 348l-803 348v187l1065 -463v-144z" />
    <glyph glyph-name="question" unicode="?" horiz-adv-x="1019" 
d="M414 319q4 71 25 134.5t49.5 108t61.5 95.5t60.5 96t45.5 109t18 135q0 303 -213 303q-269 0 -340 -385h-62q0 83 1.5 123.5t14 97.5t38.5 91q61 68 174 117t235 49q193 0 316 -106t123 -290q0 -69 -21 -129t-55.5 -104.5t-76 -85t-84.5 -79t-79 -78t-61.5 -91.5
t-30.5 -111h-139zM483 -29q-59 0 -92 34t-33 91t33 91t92 34t92 -34t33 -91t-33 -91t-92 -34z" />
    <glyph glyph-name="at" unicode="@" horiz-adv-x="1796" 
d="M901 -369q-184 0 -336 57t-262.5 165.5t-171.5 277t-61 381.5t61 381.5t171.5 277t262.5 165.5t336 57q246 0 432.5 -97t293 -288.5t106.5 -454.5q0 -271 -106 -407t-327 -136q-205 0 -256 113h-10q-72 -113 -235 -113q-167 0 -257.5 75.5t-90.5 201.5q0 58 15 102.5
t53 83.5t100 64t158.5 39t226.5 14h30q0 98 -12.5 164.5t-38.5 102.5t-58 50.5t-77 14.5q-74 0 -128.5 -45t-76.5 -140h-113q0 141 74 215q30 30 109 46t176 16q199 0 305 -108t106 -322v-375q0 -47 20.5 -76t61.5 -29q50 0 86.5 21.5t64.5 72t42 139t14 216.5
q0 358 -186 552.5t-502 194.5q-156 0 -281.5 -49.5t-216.5 -146t-140.5 -247t-49.5 -345.5t49.5 -345.5t140.5 -247t216.5 -146t281.5 -49.5q370 0 649 194l54 -82q-291 -205 -703 -205zM860 113q61 0 107 41t67 92v250h-30q-162 0 -224.5 -49t-62.5 -160q0 -174 143 -174z
" />
    <glyph glyph-name="A" unicode="A" horiz-adv-x="1325" 
d="M1286 -8q-46 0 -85 5t-86.5 21.5t-86.5 44.5t-78 78t-67 117l-47 115h-545l-168 -373h-107l605 1352h92l458 -1094q77 -190 213 -205v-51q-38 -10 -98 -10zM334 465h463l-226 534z" />
    <glyph glyph-name="B" unicode="B" horiz-adv-x="1318" 
d="M195 0v1085q0 51 -5.5 85t-20 63t-44 43t-74.5 14h-20v62h553q62 0 114.5 -2.5t116.5 -12t114.5 -24.5t100.5 -42.5t83.5 -64.5t54 -91.5t20.5 -121.5q0 -94 -74.5 -177t-210.5 -118q346 -35 346 -323q0 -375 -604 -375h-450zM461 739h153q133 0 210 63t77 202
q0 73 -26.5 126.5t-73 83t-100.5 43t-117 13.5q-49 0 -123 -15v-516zM614 82q169 0 259 73.5t90 209.5q0 282 -349 282h-153v-545q73 -20 153 -20z" />
    <glyph glyph-name="C" unicode="C" horiz-adv-x="1390" 
d="M752 -41q-158 0 -287 53.5t-213.5 147.5t-130 220.5t-45.5 274.5q0 153 51.5 289.5t141 235t215 156t268.5 57.5q179 0 300.5 -46.5t184.5 -119.5q20 -26 31.5 -58.5t16 -82.5t5 -77.5t0.5 -93.5h-61q-39 188 -143.5 286.5t-272.5 98.5q-451 0 -451 -645
q0 -97 15.5 -183.5t50 -164t85.5 -134t128 -89.5t172 -33q143 0 263.5 76t193.5 217l71 -55q-98 -172 -237 -251t-352 -79z" />
    <glyph glyph-name="D" unicode="D" horiz-adv-x="1507" 
d="M195 0v1085q0 51 -5.5 85t-20 63t-44 43t-74.5 14h-20v62h557q415 0 630.5 -175.5t215.5 -492.5q0 -152 -52 -277t-150.5 -216t-249.5 -141t-341 -50h-446zM635 82q217 0 354 161t137 433q0 269 -136.5 431.5t-358.5 162.5q-70 0 -170 -15v-1159q16 -3 30 -5l24.5 -3.5
t22.5 -2.5t18 -2t18.5 -1h17.5h21h22z" />
    <glyph glyph-name="E" unicode="E" horiz-adv-x="1228" 
d="M195 0v1085q0 51 -5.5 85t-20 63t-44 43t-74.5 14h-20v62h903q174 0 174 -164v-174h-61q0 127 -65 186.5t-191 59.5h-330v-512h532v-93h-532v-563h350q117 0 194.5 52.5t129.5 181.5l55 -21l-60 -162q-26 -75 -62.5 -109t-115.5 -34h-757z" />
    <glyph glyph-name="F" unicode="F" horiz-adv-x="1103" 
d="M195 0v1085q0 51 -5.5 85t-20 63t-44 43t-74.5 14h-20v62h858q174 0 174 -164v-174h-62q0 130 -64.5 188t-191.5 58h-284v-523h450v-92h-450v-645h-266z" />
    <glyph glyph-name="G" unicode="G" horiz-adv-x="1503" 
d="M809 -41q-157 0 -294.5 57.5t-234.5 155.5t-152.5 234.5t-55.5 289.5q0 196 83 354t238 250.5t355 92.5q180 0 306 -47t189 -119q24 -32 37 -88t14.5 -94t1.5 -103h-61q-38 187 -141.5 272.5t-284.5 85.5q-95 0 -172 -33t-128 -89.5t-85.5 -134t-50 -164t-15.5 -183.5
q0 -655 451 -655q160 0 276 53v365q0 38 7.5 69.5t32.5 66.5t67 59t116.5 39.5t174.5 15.5v-52q-131 0 -131 -194v-367q-225 -137 -543 -137z" />
    <glyph glyph-name="H" unicode="H" horiz-adv-x="1474" 
d="M195 0v1085q0 51 -5.5 85t-20 63t-44 43t-74.5 14h-20v62h245q107 0 146 -57t39 -210v-337h553v604h266v-1086q0 -51 5.5 -85t20 -63t43.5 -43t74 -14h21v-61h-246q-107 0 -145.5 55.5t-38.5 210.5v389h-553v-655h-266z" />
    <glyph glyph-name="I" unicode="I" horiz-adv-x="622" 
d="M346 0q-107 0 -145.5 55.5t-38.5 210.5v1086h266v-1086q0 -51 5.5 -85t20 -63t43.5 -43t74 -14h21v-61h-246z" />
    <glyph glyph-name="J" unicode="J" horiz-adv-x="569" 
d="M-39 -281v62q65 8 105 43t63 119.5t23 226.5v1182h266v-1182q0 -137 -19 -220t-71.5 -137t-138.5 -74t-228 -20z" />
    <glyph glyph-name="K" unicode="K" horiz-adv-x="1419" 
d="M1292 -20q-129 0 -246.5 51.5t-252.5 193.5l-330 344v-569h-266l-2 1085q0 51 -5.5 85t-20 63t-44 43t-74.5 14h-20v62h245q106 0 146.5 -57.5t40.5 -209.5v-389l354 441q76 99 163.5 157t199.5 58h143v-72q-127 0 -218.5 -32t-156.5 -113l-305 -377l473 -492
q76 -84 170.5 -146.5t155.5 -70.5v-49q-62 -20 -150 -20z" />
    <glyph glyph-name="L" unicode="L" horiz-adv-x="1167" 
d="M195 0v1085q0 51 -5.5 85t-20 63t-44 43t-74.5 14h-20v62h245q107 0 146 -57t39 -210v-993h706v-92h-972z" />
    <glyph glyph-name="M" unicode="M" horiz-adv-x="1775" 
d="M1735 -92q-222 0 -319 103.5t-97 336.5v725l-449 -1073h-67l-549 1114v-1114h-102v1352h249l496 -1006l420 1006h268v-1004q0 -192 33 -282t117 -107v-51z" />
    <glyph glyph-name="N" unicode="N" horiz-adv-x="1417" 
d="M1171 -6l-868 1020v-1014h-102v1106q0 184 -185 184h-10v62h144q115 0 188 -30t121 -93l704 -819v942h103v-1358h-95z" />
    <glyph glyph-name="O" unicode="O" horiz-adv-x="1501" 
d="M752 -41q-200 0 -355 95t-238 258t-83 364t83 364t238 258t355 95q150 0 277 -55.5t213 -151.5t134.5 -228t48.5 -282t-48.5 -282t-134.5 -228t-213 -151.5t-277 -55.5zM752 51q186 0 288.5 163t102.5 462t-102.5 461.5t-288.5 162.5t-288 -162.5t-102 -461.5t102 -462
t288 -163z" />
    <glyph glyph-name="P" unicode="P" horiz-adv-x="1181" 
d="M195 0v1085q0 51 -5.5 85t-20 63t-44 43t-74.5 14h-20v62h563q46 0 89 -3t100.5 -13.5t106 -27.5t97.5 -48.5t83 -73.5t55.5 -105.5t21.5 -140.5q0 -73 -21.5 -133t-55 -100t-79.5 -70t-91 -47t-95 -27t-84.5 -13t-65.5 -3h-194v-547h-266zM461 629h123q56 0 102.5 15
t87 49.5t63.5 100t23 156.5q0 90 -23 155.5t-62.5 100t-84 49.5t-96.5 15q-54 0 -133 -15v-626z" />
    <glyph glyph-name="Q" unicode="Q" horiz-adv-x="1505" 
d="M1419 -420q-538 0 -878 412q-213 66 -338 251t-125 433q0 201 83 364t238 258t355 95q150 0 277 -55.5t213 -151.5t134.5 -228t48.5 -282q0 -256 -129 -442.5t-350 -247.5q53 -146 195.5 -249.5t275.5 -103.5v-53zM754 51q186 0 288.5 163t102.5 462t-102.5 461.5
t-288.5 162.5t-287.5 -162.5t-101.5 -461.5t101.5 -462t287.5 -163z" />
    <glyph glyph-name="R" unicode="R" horiz-adv-x="1261" 
d="M1145 -20q-111 0 -204.5 67.5t-190.5 228.5l-205 342h-82v-618h-268v1085q0 51 -5.5 85t-20 63t-44 43t-74.5 14h-20v62h565q46 0 90 -3t100.5 -13t105.5 -26t97.5 -44.5t82.5 -66.5t55.5 -94t21.5 -124q0 -79 -27 -139.5t-77 -100t-104 -64t-124 -42.5l215 -359
q121 -202 254 -225v-51q-46 -20 -141 -20zM463 700h123q52 0 99 15t88 46.5t65 89t24 134.5q0 76 -24 133.5t-64 89.5t-86.5 47t-97.5 15q-48 0 -127 -15v-555z" />
    <glyph glyph-name="S" unicode="S" horiz-adv-x="1148" 
d="M559 -35q-115 0 -219 28t-174 86t-70 132v240h58q32 -210 129.5 -302t273.5 -92q120 0 189 51.5t69 147.5q0 82 -50.5 139.5t-160.5 124.5l-252 152q-137 81 -195.5 166.5t-58.5 199.5q0 161 124 256t335 95q115 0 219 -28t174 -86t70 -132v-240h-57
q-34 208 -128.5 300.5t-254.5 92.5q-111 0 -175.5 -53t-64.5 -145q0 -42 14 -76t45.5 -64.5t64.5 -53.5t89 -56l252 -150q144 -84 206 -163t62 -189q0 -179 -134.5 -280t-379.5 -101z" />
    <glyph glyph-name="T" unicode="T" horiz-adv-x="1177" 
d="M475 0v1260h-145q-115 0 -175.5 -57.5t-60.5 -188.5h-61v174q0 164 174 164h962v-92h-428v-1260h-266z" />
    <glyph glyph-name="U" unicode="U" horiz-adv-x="1421" 
d="M741 -20q-553 0 -553 610v495q0 98 -25.5 148.5t-99.5 56.5h-18v62h225q107 0 146 -57t39 -210l2 -557q2 -217 84 -336.5t241 -119.5q209 0 304.5 124.5t95.5 393.5v762h102v-762q0 -301 -127 -455.5t-416 -154.5z" />
    <glyph glyph-name="V" unicode="V" horiz-adv-x="1300" 
d="M612 -20l-477 1132q-48 113 -94 160t-109 55v41q4 0 40 2t46 2q40 0 73 -3.5t73 -12t74 -27t68 -46t64 -71.5t54 -100l324 -766l432 1006h104l-590 -1372h-82z" />
    <glyph glyph-name="W" unicode="W" horiz-adv-x="1855" 
d="M567 -18l-442 1130q-46 113 -92.5 160t-110.5 55v41q4 0 40 2t46 2q50 0 88.5 -4t88 -19.5t87.5 -42t76.5 -76t65.5 -118.5l276 -706l184 524l-71 182q-45 110 -97.5 158.5t-119.5 56.5v41q4 0 37 2t43 2q50 0 89 -4t88 -19.5t87 -42.5t76 -76.5t65 -117.5l293 -745
l350 985h98l-485 -1370h-82l-315 802l-281 -802h-82z" />
    <glyph glyph-name="X" unicode="X" horiz-adv-x="1325" 
d="M35 0l504 637l-291 448q-55 86 -132.5 152.5t-142.5 73.5v41h226q72 0 140 -36.5t111.5 -83.5t81.5 -106l179 -274l395 500h133l-469 -592l322 -494q55 -86 132 -152t142 -73v-41h-225q-105 0 -189.5 65.5t-144.5 159.5l-207 320l-432 -545h-133z" />
    <glyph glyph-name="Y" unicode="Y" horiz-adv-x="1306" 
d="M571 0v541l-362 544q-62 89 -134.5 154t-137.5 72v41h223q105 0 189.5 -66t144.5 -160l278 -419l397 645h134l-465 -756v-596h-267z" />
    <glyph glyph-name="Z" unicode="Z" horiz-adv-x="1226" 
d="M63 0v66l762 1196h-444q-114 0 -175 -58.5t-61 -189.5h-61v174q0 164 174 164h932l-803 -1260h793v-92h-1117z" />
    <glyph glyph-name="bracketleft" unicode="[" horiz-adv-x="677" 
d="M135 -410v1803h502v-93h-256v-1617h256v-93h-502z" />
    <glyph glyph-name="backslash" unicode="\" horiz-adv-x="972" 
d="M700 0l-657 1352h229l658 -1352h-230z" />
    <glyph glyph-name="bracketright" unicode="]" horiz-adv-x="677" 
d="M41 -410v93h256v1617h-256v93h502v-1803h-502z" />
    <glyph glyph-name="asciicircum" unicode="^" horiz-adv-x="1052" 
d="M41 676l440 717h90l441 -717h-201l-285 465l-284 -465h-201z" />
    <glyph glyph-name="underscore" unicode="_" horiz-adv-x="892" 
d="M16 -143v143h861v-143h-861z" />
    <glyph glyph-name="grave" unicode="`" horiz-adv-x="464" 
d="M272 977l-231 416h256l127 -416h-152z" />
    <glyph glyph-name="a" unicode="a" horiz-adv-x="1015" 
d="M408 -20q-167 0 -258 75t-91 201q0 77 25 131t86 95t170.5 61t271.5 20h31q0 178 -48.5 253t-145.5 75q-79 0 -130.5 -38.5t-74.5 -145.5h-113q0 46 2 74.5t14 66t35 63.5q64 72 307 72q204 0 312 -108t108 -322v-553h-174l-71 92h-11q-31 -47 -95 -79.5t-150 -32.5z
M469 82q61 0 107 41t67 92v256h-31q-146 0 -211 -52.5t-65 -162.5q0 -85 35 -129.5t98 -44.5z" />
    <glyph glyph-name="b" unicode="b" horiz-adv-x="1120" 
d="M614 -20q-84 0 -144.5 32.5t-90.5 79.5h-10l-72 -92h-174v1085q0 51 -5.5 85t-20 63t-43.5 43t-74 14h-21v62h246q107 0 145.5 -57t38.5 -210v-163q96 61 215 61q109 0 194 -38.5t138 -107t80.5 -159t27.5 -197.5q0 -143 -46.5 -254.5t-145.5 -179t-238 -67.5zM573 72
q52 0 90 30.5t60.5 86t33.5 128.5t11 164q0 410 -205 410q-87 0 -174 -62v-624q26 -56 74 -94.5t110 -38.5z" />
    <glyph glyph-name="c" unicode="c" horiz-adv-x="1015" 
d="M565 -20q-120 0 -215 40t-154.5 109t-90.5 159t-31 193q0 104 31 193.5t90.5 159t155 109.5t214.5 40q246 0 318 -72q35 -35 43 -92t8 -194h-62q-7 129 -79.5 197.5t-196.5 68.5q-113 0 -179.5 -103.5t-66.5 -306.5q0 -409 256 -409q97 0 164 43.5t129 126.5l64 -47
q-21 -33 -41.5 -58.5t-56 -56.5t-75.5 -51.5t-98.5 -34.5t-126.5 -14z" />
    <glyph glyph-name="d" unicode="d" horiz-adv-x="1120" 
d="M506 -20q-139 0 -238 67.5t-145.5 179t-46.5 254.5q0 107 27.5 197.5t80.5 159t138 107t194 38.5q119 0 215 -61v163q0 51 -5.5 85t-20 63t-43.5 43t-74 14h-21v62h246q107 0 145.5 -57t38.5 -210v-1085h-174l-71 92h-11q-29 -46 -91 -79t-144 -33zM547 72
q65 0 110.5 40.5t73.5 92.5v624q-83 62 -174 62q-205 0 -205 -410q0 -91 10.5 -163.5t33 -129t61 -86.5t90.5 -30z" />
    <glyph glyph-name="e" unicode="e" horiz-adv-x="1042" 
d="M547 -20q-213 0 -342 141t-129 360q0 238 126 370t324 132q193 0 322 -114t129 -296l-8 -129h-617q0 -193 60 -282.5t166 -89.5q97 0 163.5 43.5t128.5 126.5l64 -47q-26 -41 -55 -73.5t-75.5 -67.5t-112 -54.5t-144.5 -19.5zM352 537h348q0 191 -45.5 272.5t-128.5 81.5
q-36 0 -66 -18t-55 -57t-39 -110t-14 -169z" />
    <glyph glyph-name="f" unicode="f" horiz-adv-x="700" 
d="M147 0v870h-122v93h122v55q0 174 100 264t300 90q133 0 186 -35q53 -31 80 -88l-82 -71q-66 102 -174 102q-72 0 -107.5 -59t-35.5 -203v-55h266v-93h-266v-870h-267z" />
    <glyph glyph-name="g" unicode="g" horiz-adv-x="1071" 
d="M530 -410q-501 0 -501 318q0 101 81.5 169t194.5 97q-92 29 -92 113q0 68 82 102q-88 32 -146.5 107.5t-58.5 167.5q0 87 33.5 150t95 99t138.5 53t173 17h431v-55l-185 -25q86 -32 140.5 -99.5t54.5 -139.5q0 -169 -114.5 -242.5t-326.5 -73.5q-106 0 -155 -11.5
t-49 -49.5q0 -33 49 -43.5t155 -12.5t195.5 -23t158.5 -59.5t108.5 -100.5t39.5 -140q0 -318 -502 -318zM530 430q164 0 164 234q0 114 -45 175.5t-119 61.5q-75 0 -119 -58.5t-44 -178.5q0 -234 163 -234zM530 -317q107 0 166.5 56t59.5 169q0 90 -56.5 150t-152.5 79
l-96 10q-146 -63 -146 -239q0 -114 59.5 -169.5t165.5 -55.5z" />
    <glyph glyph-name="h" unicode="h" horiz-adv-x="1114" 
d="M123 0v1085q0 51 -5.5 85t-20 63t-43.5 43t-74 14h-21v62h246q107 0 145.5 -57t38.5 -210v-180q39 31 100.5 54.5t124.5 23.5q60 0 112.5 -10t105 -36t89.5 -67t60 -108t23 -154v-608h-267v598q0 148 -52 215.5t-132 67.5t-164 -72v-809h-266z" />
    <glyph glyph-name="i" unicode="i" horiz-adv-x="546" 
d="M295 1073q-74 0 -114 45t-40 111q0 53 32 83.5t81 30.5q74 0 114 -44.5t40 -110.5q0 -53 -32 -84t-81 -31zM162 0v696q0 51 -5.5 85t-20 63t-44 43t-74.5 14h-20v62h246q107 0 145.5 -57t38.5 -210v-696h-266z" />
    <glyph glyph-name="j" unicode="j" horiz-adv-x="546" 
d="M295 1073q-74 0 -114 45t-40 111q0 53 32 83.5t81 30.5q74 0 114 -44.5t40 -110.5q0 -53 -32 -84t-81 -31zM-18 -389v51q64 12 102 49.5t58 119.5t20 220v645q0 51 -5.5 85t-20 63t-44 43t-74.5 14h-20v62h246q107 0 145.5 -57t38.5 -210v-645q0 -129 -22 -211.5
t-75.5 -134.5t-136.5 -73t-212 -21z" />
    <glyph glyph-name="k" unicode="k" horiz-adv-x="1034" 
d="M891 -20q-91 0 -165.5 37.5t-139.5 125.5l-197 258v-401h-266v1085q0 51 -5.5 85t-20 63t-43.5 43t-74 14h-21v62h246q107 0 145.5 -57t38.5 -210v-583l248 303q47 56 82.5 87t89 51t123.5 20h41v-54q-121 0 -205 -102l-199 -242l273 -360q101 -134 190 -156v-49
q-18 -8 -60.5 -14t-80.5 -6z" />
    <glyph glyph-name="l" unicode="l" horiz-adv-x="528" 
d="M131 0v1085q0 51 -5.5 85t-20 63t-43.5 43t-74 14h-21v62h246q107 0 145.5 -57t38.5 -210v-1085h-266z" />
    <glyph glyph-name="m" unicode="m" horiz-adv-x="1691" 
d="M164 0v696q0 105 -28 155t-113 50h-21v62h203q132 0 174 -78h8q112 98 258 98q101 0 175 -38t108 -79q50 54 117 85.5t174 31.5q358 0 358 -377v-606h-266v608q0 141 -45 207t-119 66q-55 0 -101.5 -22t-74.5 -56q33 -68 33 -197v-606h-267v608q0 141 -45 207t-119 66
q-37 0 -76 -19.5t-67 -46.5v-815h-266z" />
    <glyph glyph-name="n" unicode="n" horiz-adv-x="1177" 
d="M164 0v696q0 105 -28 155t-113 50h-21v62h203q69 0 109 -17.5t63 -58.5q105 96 299 96q195 0 292 -91t97 -286v-606h-266v608q0 142 -52.5 207.5t-142.5 65.5q-108 0 -174 -52v-829h-266z" />
    <glyph glyph-name="o" unicode="o" horiz-adv-x="1130" 
d="M565 -20q-149 0 -261.5 67t-171 180t-58.5 254t58.5 254.5t171 180.5t261.5 67t262 -67t171.5 -180.5t58.5 -254.5t-58.5 -254t-171.5 -180t-262 -67zM565 72q104 0 159.5 112.5t55.5 296.5t-55.5 297t-159.5 113t-159.5 -113t-55.5 -297t55.5 -296.5t159.5 -112.5z" />
    <glyph glyph-name="p" unicode="p" horiz-adv-x="1161" 
d="M164 -389v1085q0 105 -28 155t-113 50h-21v62h203q71 0 110 -19t62 -67q121 106 278 106q105 0 188 -38.5t135 -107t79.5 -159t27.5 -197.5q0 -144 -47 -255t-148 -178.5t-245 -67.5q-64 0 -123 18t-92 43v-430h-266zM604 72q205 0 205 409q0 91 -11 164t-33.5 129
t-60.5 86.5t-90 30.5q-106 0 -184 -70v-688q27 -24 76 -42.5t98 -18.5z" />
    <glyph glyph-name="q" unicode="q" horiz-adv-x="1120" 
d="M731 -389v430q-33 -25 -92.5 -43t-122.5 -18q-144 0 -245 67.5t-148 178.5t-47 255q0 107 27.5 197.5t79.5 159t135 107t188 38.5q81 0 143 -34.5t92 -78.5h11l71 93h174v-1352h-266zM557 72q50 0 98 18.5t76 42.5v625q-80 133 -184 133q-69 0 -113.5 -54.5t-63 -143.5
t-18.5 -212q0 -409 205 -409z" />
    <glyph glyph-name="r" unicode="r" horiz-adv-x="856" 
d="M780 942q13 -9 24.5 -22t19 -24.5t13.5 -21.5t9 -17l4 -7l-105 -80q-57 80 -141 80q-118 0 -182 -64q8 -65 8 -98v-688h-266v696q0 105 -28 155t-113 50h-21v62h203q69 0 109 -17.5t63 -58.5q109 96 258 96q89 0 145 -41z" />
    <glyph glyph-name="s" unicode="s" horiz-adv-x="958" 
d="M469 -20q-240 0 -330 83q-23 22 -34.5 64.5t-13 77t-1.5 102.5h72q19 -106 84.5 -170.5t181.5 -64.5q205 0 205 139q0 54 -44 88.5t-140 77.5l-107 45q-130 57 -196 125.5t-66 163.5q0 130 107.5 201t281.5 71q239 0 330 -84q23 -22 34.5 -64.5t13 -77t1.5 -102.5h-72
q-19 106 -84.5 171t-181.5 65q-88 0 -131 -37.5t-43 -101.5q0 -52 35.5 -86t109.5 -66l123 -51q151 -64 218 -129t67 -168q0 -130 -115.5 -201t-304.5 -71z" />
    <glyph glyph-name="t" unicode="t" horiz-adv-x="724" 
d="M463 -20q-141 0 -219 76.5t-78 222.5v591h-123v93h123v184l102 123h164v-307h225v-93h-225v-604q0 -110 26 -152t81 -42q84 0 161 55l29 -57q-101 -90 -266 -90z" />
    <glyph glyph-name="u" unicode="u" horiz-adv-x="1157" 
d="M522 -20q-194 0 -286.5 90t-92.5 286v340q0 51 -5.5 85t-20 63t-43.5 43t-74 14h-20v62h245q107 0 146 -57t39 -210v-342q0 -153 43 -217.5t131 -64.5q65 0 110.5 40.5t73.5 92.5v758h266v-963h-174l-72 92h-10q-104 -112 -256 -112z" />
    <glyph glyph-name="v" unicode="v" horiz-adv-x="1024" 
d="M504 -20l-346 747q-55 115 -94 161t-89 50v41q4 0 35 2t41 2q137 0 230.5 -53.5t162.5 -202.5l181 -393l278 629h111l-436 -983h-74z" />
    <glyph glyph-name="w" unicode="w" horiz-adv-x="1587" 
d="M496 -20l-334 747q-50 114 -93 161t-98 52v39q4 0 46.5 2t52.5 2q136 0 220.5 -55t151.5 -201l174 -391l138 328q-71 159 -114 215t-95 61v39q4 0 36 2t42 2q139 0 233 -56t160 -200l188 -412l250 648h109l-377 -983h-94l-267 575l-237 -575h-92z" />
    <glyph glyph-name="x" unicode="x" horiz-adv-x="1015" 
d="M47 0l346 428l-196 330q-42 72 -92 114t-99 50v41h195q94 0 154 -41t108 -123l98 -166l268 330h138l-346 -426l198 -332q42 -72 92 -114t99 -50v-41h-195q-94 0 -154 41t-108 123l-100 166l-269 -330h-137z" />
    <glyph glyph-name="y" unicode="y" horiz-adv-x="1042" 
d="M188 -410v72q112 0 182.5 43.5t112.5 155.5l43 110l-368 807q-67 149 -191 164v41h180q91 0 161 -44t106 -120l235 -516l250 660h109l-414 -1096q-58 -159 -134 -218t-190 -59h-82z" />
    <glyph glyph-name="z" unicode="z" horiz-adv-x="1009" 
d="M80 0v63l538 807h-241q-128 0 -182 -46t-54 -148h-61v123q0 164 174 164h729l-582 -871h539v-92h-860z" />
    <glyph glyph-name="braceleft" unicode="{" horiz-adv-x="638" 
d="M600 -432q-104 8 -181 41t-121.5 84t-65.5 112t-21 134v286q0 92 -48.5 155t-156.5 79v65q108 16 156.5 79t48.5 155v286q0 73 21 134t65.5 112t121.5 84t181 41v-72q-67 -12 -95 -64.5t-28 -148.5v-352q0 -116 -58 -183.5t-188 -102.5q130 -35 188 -102.5t58 -184.5
v-352q0 -96 28 -148.5t95 -64.5v-72z" />
    <glyph glyph-name="bar" unicode="|" horiz-adv-x="536" 
d="M135 -389v1782h266v-1782h-266z" />
    <glyph glyph-name="braceright" unicode="}" horiz-adv-x="638" 
d="M39 -432v72q67 12 95 64.5t28 148.5v352q0 117 58 184.5t188 102.5q-130 35 -188 102.5t-58 183.5v352q0 96 -28 148.5t-95 64.5v72q104 -8 181 -41t121.5 -84t65.5 -112t21 -134v-286q0 -92 48.5 -155t156.5 -79v-65q-108 -16 -156.5 -79t-48.5 -155v-286
q0 -73 -21 -134t-65.5 -112t-121.5 -84t-181 -41z" />
    <glyph glyph-name="asciitilde" unicode="~" horiz-adv-x="1251" 
d="M903 342q-70 0 -154 25.5t-147 56.5t-133.5 56.5t-118.5 25.5q-85 0 -124.5 -30.5t-39.5 -92.5h-82q0 161 60 240t186 79q70 0 154 -25.5t147 -56t133.5 -56t118.5 -25.5q85 0 124.5 30.5t39.5 92.5h82q0 -161 -60 -240.5t-186 -79.5z" />
    <glyph glyph-name="uni00A0" unicode="&#xa0;" horiz-adv-x="512" 
 />
    <glyph glyph-name="exclamdown" unicode="&#xa1;" horiz-adv-x="489" 
d="M244 733q-59 0 -92 34t-33 91t33 91t92 34t92 -34t33 -91t-33 -91t-92 -34zM109 -397l38 1034h193l41 -1034h-272z" />
    <glyph glyph-name="cent" unicode="&#xa2;" horiz-adv-x="1015" 
d="M494 -102v86q-207 17 -319 156t-112 341q0 201 112 339.5t319 158.5v86h122v-84q190 -9 256 -70q35 -35 43.5 -93t8.5 -193h-62q-7 121 -70.5 187t-175.5 77v-817q90 4 151 46.5t122 123.5l63 -47q-26 -39 -50 -67t-64.5 -62t-97 -55t-124.5 -27v-86h-122zM494 92v776
q-154 -75 -154 -387q0 -318 154 -389z" />
    <glyph glyph-name="sterling" unicode="&#xa3;" horiz-adv-x="1095" 
d="M74 0v61q78 25 105.5 106.5t27.5 283.5v204h-123v93h123v194q0 100 26.5 178t68 124.5t98.5 76t112 40.5t115 11q101 0 186 -18t121 -54q24 -24 36 -62.5t13.5 -65.5t1.5 -76h-113q-23 97 -73.5 140.5t-130.5 43.5q-195 0 -195 -338v-194h266v-93h-266v-204
q0 -242 -143 -359h389q122 0 178.5 61t56.5 185h62v-174q0 -164 -174 -164h-768z" />
    <glyph glyph-name="currency" unicode="&#xa4;" horiz-adv-x="1239" 
d="M238 0v389h-103v92h103v103h-103v92h103v420q0 96 -29.5 145t-114.5 49h-20v62h563q114 0 210.5 -22t172 -66t118 -116t42.5 -165q0 -101 -43 -178.5t-119 -125t-174.5 -71.5t-216.5 -24h-123v-103h512v-92h-512v-389h-266zM504 676h123q53 0 98 15.5t84 49t61.5 95.5
t22.5 147q0 73 -23.5 130.5t-62.5 90.5t-82 49.5t-88 16.5q-92 0 -133 -10v-584z" />
    <glyph glyph-name="yen" unicode="&#xa5;" horiz-adv-x="1456" 
d="M678 0v276h-172v93h172v82h-172v92h170l-361 542q-62 89 -134.5 154t-137.5 72v41h223q105 0 189.5 -66t144.5 -160l279 -419l397 645h133l-465 -756v-53h176v-92h-176v-82h176v-93h-176v-276h-266z" />
    <glyph glyph-name="brokenbar" unicode="&#xa6;" horiz-adv-x="548" 
d="M141 670v723h267v-723h-267zM141 -389v723h267v-723h-267z" />
    <glyph glyph-name="section" unicode="&#xa7;" horiz-adv-x="921" 
d="M451 -410q-95 0 -171.5 21.5t-117.5 62.5q-28 28 -41.5 64.5t-16 67.5t-2.5 94h66q18 -102 74.5 -159.5t146.5 -57.5q81 0 123.5 42.5t42.5 137.5q0 57 -26 105t-68 83.5t-92.5 68.5t-100.5 66.5t-92 71t-68 89.5t-26 114q0 94 63.5 173.5t165.5 123.5
q-93 63 -145.5 134.5t-52.5 166.5q0 79 29 140.5t79.5 98.5t113.5 55.5t136 18.5q95 0 171.5 -21.5t117.5 -62.5q40 -40 49.5 -86t9.5 -139h-65q-18 102 -75 159.5t-147 57.5q-81 0 -122 -42.5t-41 -137.5q0 -56 26 -104.5t67.5 -84t91.5 -68.5t100.5 -67.5t92 -71.5
t67.5 -89t26 -113q0 -101 -63 -177.5t-171 -119.5q96 -67 149.5 -137t53.5 -164q0 -105 -51.5 -178t-130 -104.5t-176.5 -31.5zM528 256q44 18 66 61.5t22 122.5q0 78 -58.5 140.5t-164.5 124.5q-88 -36 -88 -183q0 -143 223 -266z" />
    <glyph glyph-name="dieresis" unicode="&#xa8;" horiz-adv-x="577" 
d="M115 1413q-52 0 -83.5 33t-31.5 82t31 81.5t84 32.5q52 0 83 -32.5t31 -81.5t-31 -82t-83 -33zM463 1413q-52 0 -83.5 33t-31.5 82t31 81.5t84 32.5t84 -32.5t31 -81.5t-31.5 -82t-83.5 -33z" />
    <glyph glyph-name="copyright" unicode="&#xa9;" horiz-adv-x="1650" 
d="M825 -57q-216 0 -389 94t-270.5 262t-97.5 377t97.5 377t270.5 262t389 94q162 0 303 -55.5t241 -152t157 -232.5t57 -293t-57 -293t-157 -232.5t-241 -152t-303 -55.5zM825 35q270 0 442.5 179.5t172.5 461.5t-172.5 461.5t-442.5 179.5q-178 0 -318 -81t-218 -227.5
t-78 -332.5t78 -332.5t218 -227.5t318 -81zM825 209q-198 0 -319 132t-121 329q0 203 129 345t311 142q122 0 205.5 -30.5t122.5 -77.5q20 -24 30 -62.5t11.5 -67t1.5 -81.5h-63q-25 132 -88 193t-179 61q-61 0 -111 -22t-90 -69.5t-62.5 -131.5t-22.5 -199
q0 -77 16.5 -145.5t50 -126t90 -91t129.5 -33.5q175 0 295 197l51 -37q-65 -120 -157.5 -172.5t-229.5 -52.5z" />
    <glyph glyph-name="ordfeminine" unicode="&#xaa;" horiz-adv-x="663" 
d="M268 811q-80 0 -131 35t-51 108q0 79 72 122.5t211 43.5h32q0 106 -26 143t-68 37q-101 0 -123 -106h-59q0 71 14 98q6 12 15 21q34 39 174 39q40 0 70 -5t59.5 -19.5t48.5 -39.5t31 -67.5t12 -100.5v-299h-94l-39 51h-6q-56 -61 -142 -61zM307 862q58 0 94 70v137h-32
q-60 0 -98 -32t-38 -83q0 -49 21.5 -70.5t52.5 -21.5z" />
    <glyph glyph-name="guillemotleft" unicode="&#xab;" horiz-adv-x="870" 
d="M387 61l-324 400l324 399h131l-199 -397l199 -402h-131zM631 164l-209 297l209 297h131l-127 -297l127 -297h-131z" />
    <glyph glyph-name="logicalnot" unicode="&#xac;" horiz-adv-x="1355" 
d="M1051 236v215h-932v143h1116v-358h-184z" />
    <glyph glyph-name="uni00AD" unicode="&#xad;" horiz-adv-x="808" 
d="M119 444v195h571v-195h-571z" />
    <glyph glyph-name="registered" unicode="&#xae;" horiz-adv-x="1650" 
d="M825 -51q-216 0 -389 92.5t-270.5 259t-97.5 375.5t97.5 375.5t270.5 259t389 92.5q162 0 303 -54.5t241 -149.5t157 -230.5t57 -292.5t-57 -292.5t-157 -230.5t-241 -149.5t-303 -54.5zM825 41q271 0 443 176.5t172 458.5t-172 458.5t-443 176.5t-442.5 -176.5
t-171.5 -458.5t171.5 -458.5t442.5 -176.5zM1137 242q-78 0 -132 41.5t-122 150.5l-138 221h-40v-399h-181v721q0 66 -11.5 96.5t-49.5 30.5h-37v33h354q363 0 363 -248q0 -171 -211 -221l139 -226q51 -80 88 -115.5t84 -41.5v-29q0 -1 -10.5 -4.5t-37 -6.5t-58.5 -3z
M774 715q80 0 127 43.5t47 138.5q0 93 -47 136.5t-127 43.5q-23 0 -69 -4v-354q20 -4 69 -4z" />
    <glyph glyph-name="macron" unicode="&#xaf;" horiz-adv-x="512" 
 />
    <glyph glyph-name="degree" unicode="&#xb0;" horiz-adv-x="851" 
d="M426 737q-164 0 -256 92.5t-92 235.5t92 235.5t256 92.5t256 -92.5t92 -235.5t-92 -235.5t-256 -92.5zM426 860q79 0 131.5 57t52.5 148t-52.5 148t-131.5 57t-131.5 -57t-52.5 -148t52.5 -148t131.5 -57z" />
    <glyph glyph-name="plusminus" unicode="&#xb1;" horiz-adv-x="1191" 
d="M100 113v143h404v348h-404v144h404v399h184v-399h404v-144h-404v-348h404v-143h-992z" />
    <glyph glyph-name="uni00B2" unicode="&#xb2;" horiz-adv-x="651" 
d="M109 772v47q25 26 74.5 76t66.5 68.5t49.5 55t43 55t26 48t20 55.5t4.5 56q0 68 -23 95.5t-69 27.5q-121 0 -149 -162h-33q0 113 22 143q28 32 78 53t109 21q40 0 75 -8.5t67.5 -27.5t51.5 -55.5t19 -86.5q0 -46 -15 -86t-49.5 -80.5t-66 -70.5t-89.5 -81t-96 -88h166
q59 0 88 21.5t29 69.5h31v-72q0 -74 -80 -74h-350z" />
    <glyph glyph-name="uni00B3" unicode="&#xb3;" horiz-adv-x="622" 
d="M315 752q-81 0 -133 26t-94 78l29 25q68 -74 170 -74q46 0 78 34.5t32 104.5q0 68 -34.5 97.5t-88.5 29.5q-41 0 -88 -12l-32 57l241 219h-159q-103 0 -103 -88h-27v68q0 76 80 76h314v-37l-262 -236q33 8 79 8q57 0 106.5 -17.5t85.5 -60.5t36 -104q0 -45 -16.5 -80.5
t-41.5 -56t-57.5 -34t-60.5 -18.5t-54 -5z" />
    <glyph glyph-name="acute" unicode="&#xb4;" horiz-adv-x="411" 
d="M41 1434l86 286h244l-217 -286h-113z" />
    <glyph glyph-name="uni00B5" unicode="&#xb5;" horiz-adv-x="1126" 
d="M129 -389v1352h266v-482q0 -205 50.5 -307t144.5 -102q117 0 174 133v758h266v-963h-174l-72 92h-10q-29 -46 -87 -79t-128 -33q-113 0 -205 92v-461h-225z" />
    <glyph glyph-name="paragraph" unicode="&#xb6;" horiz-adv-x="1298" 
d="M524 -389v942q-203 0 -337 112t-134 287q0 176 134 288t337 112h697v-92h-113v-1649h-246v1649h-92v-1649h-246z" />
    <glyph glyph-name="periodcentered" unicode="&#xb7;" horiz-adv-x="462" 
d="M231 553q-59 0 -92 34t-33 91t33 91t92 34t92 -34t33 -91t-33 -91t-92 -34z" />
    <glyph glyph-name="cedilla" unicode="&#xb8;" horiz-adv-x="409" 
d="M82 -422v94h102q37 0 59.5 19.5t22.5 46.5q0 30 -22 48.5t-60 18.5h-92v195h133v-102q86 0 135.5 -43t49.5 -117q0 -73 -49.5 -116.5t-135.5 -43.5h-143z" />
    <glyph glyph-name="uni00B9" unicode="&#xb9;" horiz-adv-x="438" 
d="M164 772v485l-70 -40l-33 45l140 131h110v-621h-147z" />
    <glyph glyph-name="ordmasculine" unicode="&#xba;" horiz-adv-x="690" 
d="M344 752q-87 0 -146.5 46.5t-84.5 118.5t-25 164q0 144 63.5 237t192.5 93q131 0 194.5 -92.5t63.5 -237.5q0 -144 -63.5 -236.5t-194.5 -92.5zM344 803q54 0 82.5 62t28.5 216q0 106 -15.5 170t-38.5 86.5t-57 22.5q-51 0 -79.5 -62t-28.5 -217q0 -278 108 -278z" />
    <glyph glyph-name="guillemotright" unicode="&#xbb;" horiz-adv-x="870" 
d="M352 61l199 402l-199 397h131l324 -399l-324 -400h-131zM109 164l127 297l-127 297h131l209 -297l-209 -297h-131z" />
    <glyph glyph-name="onequarter" unicode="&#xbc;" horiz-adv-x="1263" 
d="M231 772v485l-69 -40l-33 45l139 131h111v-621h-148zM53 0l932 1352h195l-932 -1352h-195zM956 0v150h-297v49l308 424h137v-418h70v-55h-70v-150h-148zM739 205h217v299z" />
    <glyph glyph-name="onehalf" unicode="&#xbd;" horiz-adv-x="1294" 
d="M231 772v485l-69 -40l-33 45l139 131h111v-621h-148zM53 0l932 1352h195l-932 -1352h-195zM762 0v47q26 27 74.5 76t66.5 68.5t50 55t43 54.5t26.5 48.5t20 55.5t4.5 56q0 68 -23.5 95.5t-69.5 27.5q-121 0 -149 -162h-33q0 112 23 143q28 32 77.5 53t108.5 21
q40 0 75 -8.5t67.5 -27.5t51.5 -55.5t19 -86.5q0 -46 -15 -86t-49 -80.5t-65.5 -70.5t-89.5 -81t-96 -88h165q59 0 88 21t29 69h31v-71q0 -74 -80 -74h-350z" />
    <glyph glyph-name="threequarters" unicode="&#xbe;" horiz-adv-x="1282" 
d="M303 752q-81 0 -133 26t-94 78l28 25q68 -74 170 -74q46 0 78.5 34.5t32.5 104.5q0 68 -34.5 97.5t-88.5 29.5q-41 0 -88 -12l-33 57l242 219h-160q-102 0 -102 -88h-27v68q0 76 80 76h313v-37l-262 -236q33 8 80 8q57 0 106.5 -17.5t85 -60.5t35.5 -104q0 -56 -24 -96.5
t-62 -60.5t-73.5 -28.5t-69.5 -8.5zM92 0l932 1352h195l-932 -1352h-195zM975 0v150h-297v49l307 424h137v-418h70v-55h-70v-150h-147zM758 205h217v299z" />
    <glyph glyph-name="questiondown" unicode="&#xbf;" horiz-adv-x="1007" 
d="M530 737q-59 0 -91.5 34t-32.5 91t32.5 91t91.5 34t92 -34t33 -91t-33 -91t-92 -34zM492 -434q-193 0 -316 105.5t-123 289.5q0 70 21 130t55.5 104t76 84.5t84.5 78.5t79 78t61.5 92t30.5 111h139q-4 -71 -25 -134.5t-49.5 -108t-61.5 -95.5t-60.5 -96t-45.5 -109
t-18 -135q0 -303 213 -303q125 0 215 94t125 291h61q0 -66 -0.5 -93.5t-5 -77t-16 -82t-31.5 -58.5q-60 -69 -173 -117.5t-236 -48.5z" />
    <glyph glyph-name="Agrave" unicode="&#xc0;" horiz-adv-x="1325" 
d="M604 1436l-217 286h244l86 -286h-113zM1286 -8q-46 0 -85 5t-86.5 21.5t-86.5 44.5t-78 78t-67 117l-47 115h-545l-168 -373h-107l605 1352h92l458 -1094q77 -190 213 -205v-51q-38 -10 -98 -10zM334 465h463l-226 534z" />
    <glyph glyph-name="Aacute" unicode="&#xc1;" horiz-adv-x="1325" 
d="M616 1434l86 286h244l-217 -286h-113zM1286 -8q-46 0 -85 5t-86.5 21.5t-86.5 44.5t-78 78t-67 117l-47 115h-545l-168 -373h-107l605 1352h92l458 -1094q77 -190 213 -205v-51q-38 -10 -98 -10zM334 465h463l-226 534z" />
    <glyph glyph-name="Acircumflex" unicode="&#xc2;" horiz-adv-x="1325" 
d="M365 1403l163 256h267l163 -256h-122l-174 164l-175 -164h-122zM1286 -8q-46 0 -85 5t-86.5 21.5t-86.5 44.5t-78 78t-67 117l-47 115h-545l-168 -373h-107l605 1352h92l458 -1094q77 -190 213 -205v-51q-38 -10 -98 -10zM334 465h463l-226 534z" />
    <glyph glyph-name="Atilde" unicode="&#xc3;" horiz-adv-x="1325" 
d="M430 1434q0 115 35.5 159.5t103.5 44.5q39 0 74.5 -20.5t64 -41t50.5 -20.5q33 0 52 24.5t19 57.5h82q0 -116 -35 -160t-102 -44q-39 0 -74.5 20.5t-64 41t-51.5 20.5q-33 0 -52.5 -24.5t-19.5 -57.5h-82zM1286 -8q-46 0 -85 5t-86.5 21.5t-86.5 44.5t-78 78t-67 117
l-47 115h-545l-168 -373h-107l605 1352h92l458 -1094q77 -190 213 -205v-51q-38 -10 -98 -10zM334 465h463l-226 534z" />
    <glyph glyph-name="Adieresis" unicode="&#xc4;" horiz-adv-x="1325" 
d="M489 1413q-52 0 -83 33t-31 82t31 81.5t83 32.5q53 0 84 -32.5t31 -81.5t-31.5 -82t-83.5 -33zM838 1413q-52 0 -83.5 33t-31.5 82t31 81.5t84 32.5q52 0 83 -32.5t31 -81.5t-31 -82t-83 -33zM1286 -8q-46 0 -85 5t-86.5 21.5t-86.5 44.5t-78 78t-67 117l-47 115h-545
l-168 -373h-107l605 1352h92l458 -1094q77 -190 213 -205v-51q-38 -10 -98 -10zM334 465h463l-226 534z" />
    <glyph glyph-name="Aring" unicode="&#xc5;" horiz-adv-x="1325" 
d="M1286 -8q-46 0 -85 5t-86.5 21.5t-86.5 44.5t-78 78t-67 117l-47 115h-545l-168 -373h-107l566 1268q-44 22 -77.5 68t-33.5 108q0 86 54.5 140t140.5 54t140 -54t54 -140q0 -62 -34.5 -109t-77.5 -67l423 -1010q77 -190 213 -205v-51q-38 -10 -98 -10zM621 1352h92
q45 29 45 92q0 46 -26.5 74t-65.5 28t-66 -28t-27 -74q0 -61 48 -92zM334 465h463l-226 534z" />
    <glyph glyph-name="AE" unicode="&#xc6;" horiz-adv-x="1777" 
d="M-45 0l758 1352h770q174 0 174 -164v-174h-62q0 127 -65 186.5t-191 59.5h-329v-512h532v-93h-532v-563h350q117 0 194 52.5t129 181.5l56 -21l-60 -162q-26 -75 -62.5 -109t-115.5 -34h-758v389h-446l-219 -389h-123zM348 481h395v705z" />
    <glyph glyph-name="Ccedilla" unicode="&#xc7;" horiz-adv-x="1390" 
d="M1341 289q-94 -164 -223 -243.5t-323 -86.5v-61q86 0 135 -43t49 -117q0 -73 -49.5 -116.5t-134.5 -43.5h-144v94h103q37 0 59.5 19.5t22.5 46.5q0 30 -22 48.5t-60 18.5h-92v158q-275 29 -430.5 220t-155.5 472q0 153 51.5 289.5t141 235t215 156t268.5 57.5
q179 0 300.5 -46.5t184.5 -119.5q20 -26 31.5 -58.5t16 -82.5t5 -77.5t0.5 -93.5h-61q-39 188 -143.5 286.5t-272.5 98.5q-451 0 -451 -645q0 -97 15.5 -183.5t50 -164t85.5 -134t128 -89.5t172 -33q143 0 263.5 76t193.5 217z" />
    <glyph glyph-name="Egrave" unicode="&#xc8;" horiz-adv-x="1228" 
d="M610 1436l-217 286h244l86 -286h-113zM195 0v1085q0 51 -5.5 85t-20 63t-44 43t-74.5 14h-20v62h903q174 0 174 -164v-174h-61q0 127 -65 186.5t-191 59.5h-330v-512h532v-93h-532v-563h350q117 0 194.5 52.5t129.5 181.5l55 -21l-60 -162q-26 -75 -62.5 -109t-115.5 -34
h-757z" />
    <glyph glyph-name="Eacute" unicode="&#xc9;" horiz-adv-x="1228" 
d="M573 1434l86 286h244l-217 -286h-113zM195 0v1085q0 51 -5.5 85t-20 63t-44 43t-74.5 14h-20v62h903q174 0 174 -164v-174h-61q0 127 -65 186.5t-191 59.5h-330v-512h532v-93h-532v-563h350q117 0 194.5 52.5t129.5 181.5l55 -21l-60 -162q-26 -75 -62.5 -109t-115.5 -34
h-757z" />
    <glyph glyph-name="Ecircumflex" unicode="&#xca;" horiz-adv-x="1228" 
d="M328 1479l164 256h266l164 -256h-123l-174 163l-174 -163h-123zM195 0v1085q0 51 -5.5 85t-20 63t-44 43t-74.5 14h-20v62h903q174 0 174 -164v-174h-61q0 127 -65 186.5t-191 59.5h-330v-512h532v-93h-532v-563h350q117 0 194.5 52.5t129.5 181.5l55 -21l-60 -162
q-26 -75 -62.5 -109t-115.5 -34h-757z" />
    <glyph glyph-name="Edieresis" unicode="&#xcb;" horiz-adv-x="1228" 
d="M434 1495q-52 0 -83.5 33t-31.5 82t31 81.5t84 32.5t84 -32.5t31 -81.5t-31.5 -82t-83.5 -33zM803 1495q-52 0 -83.5 33t-31.5 82t31 81.5t84 32.5t84 -32.5t31 -81.5t-31.5 -82t-83.5 -33zM195 0v1085q0 51 -5.5 85t-20 63t-44 43t-74.5 14h-20v62h903q174 0 174 -164
v-174h-61q0 127 -65 186.5t-191 59.5h-330v-512h532v-93h-532v-563h350q117 0 194.5 52.5t129.5 181.5l55 -21l-60 -162q-26 -75 -62.5 -109t-115.5 -34h-757z" />
    <glyph glyph-name="Igrave" unicode="&#xcc;" horiz-adv-x="622" 
d="M260 1436l-217 286h244l86 -286h-113zM346 0q-107 0 -145.5 55.5t-38.5 210.5v1086h266v-1086q0 -51 5.5 -85t20 -63t43.5 -43t74 -14h21v-61h-246z" />
    <glyph glyph-name="Iacute" unicode="&#xcd;" horiz-adv-x="622" 
d="M227 1434l86 286h244l-217 -286h-113zM346 0q-107 0 -145.5 55.5t-38.5 210.5v1086h266v-1086q0 -51 5.5 -85t20 -63t43.5 -43t74 -14h21v-61h-246z" />
    <glyph glyph-name="Icircumflex" unicode="&#xce;" horiz-adv-x="622" 
d="M-2 1423l164 256h266l164 -256h-123l-174 164l-174 -164h-123zM346 0q-107 0 -145.5 55.5t-38.5 210.5v1086h266v-1086q0 -51 5.5 -85t20 -63t43.5 -43t74 -14h21v-61h-246z" />
    <glyph glyph-name="Idieresis" unicode="&#xcf;" horiz-adv-x="622" 
d="M125 1464q-52 0 -83.5 33t-31.5 82t31.5 82t83.5 33t83.5 -33t31.5 -82t-31.5 -82t-83.5 -33zM465 1464q-52 0 -83.5 33t-31.5 82t31.5 82t83.5 33t83.5 -33t31.5 -82t-31.5 -82t-83.5 -33zM346 0q-107 0 -145.5 55.5t-38.5 210.5v1086h266v-1086q0 -51 5.5 -85t20 -63
t43.5 -43t74 -14h21v-61h-246z" />
    <glyph glyph-name="Eth" unicode="&#xd0;" horiz-adv-x="1507" 
d="M195 0v625h-144v102h144v358q0 51 -5.5 85t-20 63t-44 43t-74.5 14h-20v62h557q415 0 630.5 -175.5t215.5 -492.5q0 -152 -52 -277t-150.5 -216t-249.5 -141t-341 -50h-446zM635 82q217 0 354 161t137 433q0 269 -136.5 431.5t-358.5 162.5q-70 0 -170 -15v-528h153v-102
h-153v-529q16 -3 30 -5l24.5 -3.5t22.5 -2.5t18 -2t18.5 -1h17.5h21h22z" />
    <glyph glyph-name="Ntilde" unicode="&#xd1;" horiz-adv-x="1417" 
d="M481 1421q0 115 36 160t104 45q39 0 74.5 -20.5t63.5 -41t50 -20.5q33 0 52.5 24.5t19.5 57.5h82q0 -115 -35.5 -160t-102.5 -45q-39 0 -74.5 20.5t-64 41t-51.5 20.5q-33 0 -52.5 -24.5t-19.5 -57.5h-82zM1171 -6l-868 1020v-1014h-102v1106q0 184 -185 184h-10v62h144
q115 0 188 -30t121 -93l704 -819v942h103v-1358h-95z" />
    <glyph glyph-name="Ograve" unicode="&#xd2;" horiz-adv-x="1501" 
d="M705 1481l-218 286h244l86 -286h-112zM752 -41q-200 0 -355 95t-238 258t-83 364t83 364t238 258t355 95q150 0 277 -55.5t213 -151.5t134.5 -228t48.5 -282t-48.5 -282t-134.5 -228t-213 -151.5t-277 -55.5zM752 51q186 0 288.5 163t102.5 462t-102.5 461.5
t-288.5 162.5t-288 -162.5t-102 -461.5t102 -462t288 -163z" />
    <glyph glyph-name="Oacute" unicode="&#xd3;" horiz-adv-x="1501" 
d="M692 1483l86 286h244l-217 -286h-113zM752 -41q-200 0 -355 95t-238 258t-83 364t83 364t238 258t355 95q150 0 277 -55.5t213 -151.5t134.5 -228t48.5 -282t-48.5 -282t-134.5 -228t-213 -151.5t-277 -55.5zM752 51q186 0 288.5 163t102.5 462t-102.5 461.5
t-288.5 162.5t-288 -162.5t-102 -461.5t102 -462t288 -163z" />
    <glyph glyph-name="Ocircumflex" unicode="&#xd4;" horiz-adv-x="1501" 
d="M446 1497l164 256h267l163 -256h-122l-175 164l-174 -164h-123zM752 -41q-200 0 -355 95t-238 258t-83 364t83 364t238 258t355 95q150 0 277 -55.5t213 -151.5t134.5 -228t48.5 -282t-48.5 -282t-134.5 -228t-213 -151.5t-277 -55.5zM752 51q186 0 288.5 163t102.5 462
t-102.5 461.5t-288.5 162.5t-288 -162.5t-102 -461.5t102 -462t288 -163z" />
    <glyph glyph-name="Otilde" unicode="&#xd5;" horiz-adv-x="1501" 
d="M510 1511q0 115 35.5 160t103.5 45q39 0 74.5 -20.5t64 -41t50.5 -20.5q33 0 52 24.5t19 57.5h82q0 -116 -35 -160.5t-102 -44.5q-39 0 -74.5 20.5t-64 41t-51.5 20.5q-33 0 -52.5 -24.5t-19.5 -57.5h-82zM752 -41q-200 0 -355 95t-238 258t-83 364t83 364t238 258
t355 95q150 0 277 -55.5t213 -151.5t134.5 -228t48.5 -282t-48.5 -282t-134.5 -228t-213 -151.5t-277 -55.5zM752 51q186 0 288.5 163t102.5 462t-102.5 461.5t-288.5 162.5t-288 -162.5t-102 -461.5t102 -462t288 -163z" />
    <glyph glyph-name="Odieresis" unicode="&#xd6;" horiz-adv-x="1501" 
d="M567 1505q-52 0 -83 33t-31 82t31 82t83 33t83.5 -33t31.5 -82t-31.5 -82t-83.5 -33zM936 1505q-52 0 -83.5 33t-31.5 82t31.5 82t83.5 33t83.5 -33t31.5 -82t-31.5 -82t-83.5 -33zM752 -41q-200 0 -355 95t-238 258t-83 364t83 364t238 258t355 95q150 0 277 -55.5
t213 -151.5t134.5 -228t48.5 -282t-48.5 -282t-134.5 -228t-213 -151.5t-277 -55.5zM752 51q186 0 288.5 163t102.5 462t-102.5 461.5t-288.5 162.5t-288 -162.5t-102 -461.5t102 -462t288 -163z" />
    <glyph glyph-name="multiply" unicode="&#xd7;" horiz-adv-x="1001" 
d="M215 270l-129 129l285 285l-283 283l131 131l283 -283l284 285l132 -129l-287 -287l282 -283l-131 -129l-280 283z" />
    <glyph glyph-name="Oslash" unicode="&#xd8;" horiz-adv-x="1501" 
d="M219 -41l92 156q-113 99 -174 243.5t-61 317.5q0 201 83 364t238 258t355 95q161 0 292 -64l37 64h189l-90 -150q118 -99 181.5 -244.5t63.5 -322.5q0 -150 -48.5 -282t-134.5 -228t-213 -151.5t-277 -55.5q-164 0 -303 68l-41 -68h-189zM422 297l553 917q-95 86 -223 86
q-186 0 -288 -162.5t-102 -461.5q0 -222 60 -379zM752 51q186 0 288.5 163t102.5 462q0 229 -68 393l-557 -926q92 -92 234 -92z" />
    <glyph glyph-name="Ugrave" unicode="&#xd9;" horiz-adv-x="1421" 
d="M756 1393l-217 286h243l86 -286h-112zM741 -20q-553 0 -553 610v495q0 98 -25.5 148.5t-99.5 56.5h-18v62h225q107 0 146 -57t39 -210l2 -557q2 -217 84 -336.5t241 -119.5q209 0 304.5 124.5t95.5 393.5v762h102v-762q0 -301 -127 -455.5t-416 -154.5z" />
    <glyph glyph-name="Uacute" unicode="&#xda;" horiz-adv-x="1421" 
d="M690 1393l86 286h244l-217 -286h-113zM741 -20q-553 0 -553 610v495q0 98 -25.5 148.5t-99.5 56.5h-18v62h225q107 0 146 -57t39 -210l2 -557q2 -217 84 -336.5t241 -119.5q209 0 304.5 124.5t95.5 393.5v762h102v-762q0 -301 -127 -455.5t-416 -154.5z" />
    <glyph glyph-name="Ucircumflex" unicode="&#xdb;" horiz-adv-x="1421" 
d="M498 1395l164 256h266l164 -256h-123l-174 164l-174 -164h-123zM741 -20q-553 0 -553 610v495q0 98 -25.5 148.5t-99.5 56.5h-18v62h225q107 0 146 -57t39 -210l2 -557q2 -217 84 -336.5t241 -119.5q209 0 304.5 124.5t95.5 393.5v762h102v-762q0 -301 -127 -455.5
t-416 -154.5z" />
    <glyph glyph-name="Udieresis" unicode="&#xdc;" horiz-adv-x="1421" 
d="M600 1393q-53 0 -84 32.5t-31 81.5t31.5 82t83.5 33t83.5 -33t31.5 -82t-31 -81.5t-84 -32.5zM969 1393q-53 0 -84 32.5t-31 81.5t31.5 82t83.5 33t83 -33t31 -82t-31 -81.5t-83 -32.5zM741 -20q-553 0 -553 610v495q0 98 -25.5 148.5t-99.5 56.5h-18v62h225
q107 0 146 -57t39 -210l2 -557q2 -217 84 -336.5t241 -119.5q209 0 304.5 124.5t95.5 393.5v762h102v-762q0 -301 -127 -455.5t-416 -154.5z" />
    <glyph glyph-name="Yacute" unicode="&#xdd;" horiz-adv-x="1306" 
d="M651 1370l86 287h244l-217 -287h-113zM571 0v541l-362 544q-62 89 -134.5 154t-137.5 72v41h223q105 0 189.5 -66t144.5 -160l278 -419l397 645h134l-465 -756v-596h-267z" />
    <glyph glyph-name="Thorn" unicode="&#xde;" horiz-adv-x="1136" 
d="M199 -61v1208q0 51 -5.5 85t-20 63t-44 43t-74.5 14h-20v61h246q107 0 145.5 -56.5t38.5 -209.5v-21q635 -15 635 -481q0 -469 -635 -481v-225h-266zM465 256q175 12 261.5 114t86.5 275t-87 275t-261 112v-776z" />
    <glyph glyph-name="germandbls" unicode="&#xdf;" horiz-adv-x="1173" 
d="M778 -20q-79 0 -148.5 21.5t-107.5 59.5q-23 23 -35.5 61.5t-14 62t-1.5 61.5h61q8 -68 63.5 -121t141.5 -53q67 0 105.5 38.5t38.5 94.5q0 45 -22 84t-57.5 68t-78 56.5t-85 57.5t-78 63t-57.5 80t-22 103q0 46 12 83.5t31 63.5t41.5 49.5t45.5 45t42 44t31 54t12 69.5
q0 75 -39.5 114.5t-103.5 39.5q-164 0 -164 -256v-1024h-266v1024q0 104 31.5 174.5t94 107.5t136.5 51.5t178 14.5q195 0 292 -54.5t97 -150.5q0 -62 -26.5 -114t-64 -87t-75 -66.5t-64 -67.5t-26.5 -74q0 -62 45.5 -112t110 -87t129.5 -77t110.5 -100t45.5 -136
q0 -67 -31 -119.5t-83.5 -83.5t-114.5 -47t-130 -16z" />
    <glyph glyph-name="agrave" unicode="&#xe0;" horiz-adv-x="1015" 
d="M453 1075l-217 287h243l86 -287h-112zM408 -20q-167 0 -258 75t-91 201q0 77 25 131t86 95t170.5 61t271.5 20h31q0 178 -48.5 253t-145.5 75q-79 0 -130.5 -38.5t-74.5 -145.5h-113q0 46 2 74.5t14 66t35 63.5q64 72 307 72q204 0 312 -108t108 -322v-553h-174l-71 92
h-11q-31 -47 -95 -79.5t-150 -32.5zM469 82q61 0 107 41t67 92v256h-31q-146 0 -211 -52.5t-65 -162.5q0 -85 35 -129.5t98 -44.5z" />
    <glyph glyph-name="aacute" unicode="&#xe1;" horiz-adv-x="1015" 
d="M412 1075l86 287h243l-217 -287h-112zM408 -20q-167 0 -258 75t-91 201q0 77 25 131t86 95t170.5 61t271.5 20h31q0 178 -48.5 253t-145.5 75q-79 0 -130.5 -38.5t-74.5 -145.5h-113q0 46 2 74.5t14 66t35 63.5q64 72 307 72q204 0 312 -108t108 -322v-553h-174l-71 92
h-11q-31 -47 -95 -79.5t-150 -32.5zM469 82q61 0 107 41t67 92v256h-31q-146 0 -211 -52.5t-65 -162.5q0 -85 35 -129.5t98 -44.5z" />
    <glyph glyph-name="acircumflex" unicode="&#xe2;" horiz-adv-x="1015" 
d="M215 1085l164 256h266l164 -256h-123l-174 164l-174 -164h-123zM408 -20q-167 0 -258 75t-91 201q0 77 25 131t86 95t170.5 61t271.5 20h31q0 178 -48.5 253t-145.5 75q-79 0 -130.5 -38.5t-74.5 -145.5h-113q0 46 2 74.5t14 66t35 63.5q64 72 307 72q204 0 312 -108
t108 -322v-553h-174l-71 92h-11q-31 -47 -95 -79.5t-150 -32.5zM469 82q61 0 107 41t67 92v256h-31q-146 0 -211 -52.5t-65 -162.5q0 -85 35 -129.5t98 -44.5z" />
    <glyph glyph-name="atilde" unicode="&#xe3;" horiz-adv-x="1015" 
d="M262 1096q0 115 35.5 159.5t103.5 44.5q39 0 74.5 -20t64 -40.5t50.5 -20.5q33 0 52.5 24t19.5 57h81q0 -116 -35 -160t-102 -44q-39 0 -74.5 20.5t-64 41t-51.5 20.5q-33 0 -52.5 -24.5t-19.5 -57.5h-82zM408 -20q-167 0 -258 75t-91 201q0 77 25 131t86 95t170.5 61
t271.5 20h31q0 178 -48.5 253t-145.5 75q-79 0 -130.5 -38.5t-74.5 -145.5h-113q0 46 2 74.5t14 66t35 63.5q64 72 307 72q204 0 312 -108t108 -322v-553h-174l-71 92h-11q-31 -47 -95 -79.5t-150 -32.5zM469 82q61 0 107 41t67 92v256h-31q-146 0 -211 -52.5t-65 -162.5
q0 -85 35 -129.5t98 -44.5z" />
    <glyph glyph-name="adieresis" unicode="&#xe4;" horiz-adv-x="1015" 
d="M326 1096q-53 0 -84 32.5t-31 81.5t31.5 82t83.5 33t83 -33t31 -82t-31 -81.5t-83 -32.5zM694 1096q-52 0 -83 32.5t-31 81.5t31 82t83 33t83.5 -33t31.5 -82t-31 -81.5t-84 -32.5zM408 -20q-167 0 -258 75t-91 201q0 77 25 131t86 95t170.5 61t271.5 20h31
q0 178 -48.5 253t-145.5 75q-79 0 -130.5 -38.5t-74.5 -145.5h-113q0 46 2 74.5t14 66t35 63.5q64 72 307 72q204 0 312 -108t108 -322v-553h-174l-71 92h-11q-31 -47 -95 -79.5t-150 -32.5zM469 82q61 0 107 41t67 92v256h-31q-146 0 -211 -52.5t-65 -162.5
q0 -85 35 -129.5t98 -44.5z" />
    <glyph glyph-name="aring" unicode="&#xe5;" horiz-adv-x="1015" 
d="M498 1065q-86 0 -140.5 54.5t-54.5 140.5t54.5 140t140.5 54t140 -54t54 -140t-54 -140.5t-140 -54.5zM498 1157q39 0 65.5 28.5t26.5 74.5t-26.5 74t-65.5 28t-65.5 -28t-26.5 -74t26.5 -74.5t65.5 -28.5zM408 -20q-167 0 -258 75t-91 201q0 77 25 131t86 95t170.5 61
t271.5 20h31q0 178 -48.5 253t-145.5 75q-79 0 -130.5 -38.5t-74.5 -145.5h-113q0 46 2 74.5t14 66t35 63.5q64 72 307 72q204 0 312 -108t108 -322v-553h-174l-71 92h-11q-31 -47 -95 -79.5t-150 -32.5zM469 82q61 0 107 41t67 92v256h-31q-146 0 -211 -52.5t-65 -162.5
q0 -85 35 -129.5t98 -44.5z" />
    <glyph glyph-name="ae" unicode="&#xe6;" horiz-adv-x="1628" 
d="M426 -20q-179 0 -274 73t-95 193q0 55 16 97.5t55.5 80t103 61.5t161.5 38t228 14h30q0 183 -51.5 268.5t-153.5 85.5q-79 0 -130 -38.5t-74 -145.5h-113q0 46 2 74.5t14 66t35 63.5q32 36 109 54t157 18q128 0 219.5 -49t139.5 -137q59 92 143.5 139t184.5 47
q182 0 306 -114.5t124 -295.5l-9 -129h-616v-20q1 -182 61 -267t164 -85q97 0 164 43.5t129 126.5l64 -47q-26 -41 -55 -73.5t-75.5 -67.5t-112 -54.5t-144.5 -19.5q-226 0 -349 184q-41 -78 -132.5 -131t-225.5 -53zM938 537h348q0 180 -47 267t-127 87q-75 0 -124.5 -88
t-49.5 -266zM467 82q119 0 184 133v229h-30q-87 0 -145 -13t-88.5 -40.5t-42 -61t-11.5 -83.5q0 -71 36.5 -117.5t96.5 -46.5z" />
    <glyph glyph-name="ccedilla" unicode="&#xe7;" horiz-adv-x="1015" 
d="M963 195q-25 -39 -51 -69t-68 -63.5t-101.5 -54.5t-132.5 -26v-48q86 0 135.5 -42.5t49.5 -116.5q0 -73 -49.5 -116.5t-135.5 -43.5h-143v94h102q37 0 59.5 19.5t22.5 46.5q0 30 -22 48.5t-60 18.5h-92v144q-194 27 -298.5 164.5t-104.5 330.5q0 104 31 193.5t90.5 159
t155 109.5t214.5 40q246 0 318 -72q35 -35 43 -92t8 -194h-62q-7 129 -79.5 197.5t-196.5 68.5q-113 0 -179.5 -103.5t-66.5 -306.5q0 -409 256 -409q97 0 164 43.5t129 126.5z" />
    <glyph glyph-name="egrave" unicode="&#xe8;" horiz-adv-x="1042" 
d="M481 1075l-217 287h244l86 -287h-113zM547 -20q-213 0 -342 141t-129 360q0 238 126 370t324 132q193 0 322 -114t129 -296l-8 -129h-617q0 -193 60 -282.5t166 -89.5q97 0 163.5 43.5t128.5 126.5l64 -47q-26 -41 -55 -73.5t-75.5 -67.5t-112 -54.5t-144.5 -19.5z
M352 537h348q0 191 -45.5 272.5t-128.5 81.5q-36 0 -66 -18t-55 -57t-39 -110t-14 -169z" />
    <glyph glyph-name="eacute" unicode="&#xe9;" horiz-adv-x="1042" 
d="M449 1073l86 287h243l-217 -287h-112zM547 -20q-213 0 -342 141t-129 360q0 238 126 370t324 132q193 0 322 -114t129 -296l-8 -129h-617q0 -193 60 -282.5t166 -89.5q97 0 163.5 43.5t128.5 126.5l64 -47q-26 -41 -55 -73.5t-75.5 -67.5t-112 -54.5t-144.5 -19.5z
M352 537h348q0 191 -45.5 272.5t-128.5 81.5q-36 0 -66 -18t-55 -57t-39 -110t-14 -169z" />
    <glyph glyph-name="ecircumflex" unicode="&#xea;" horiz-adv-x="1042" 
d="M227 1083l164 256h266l164 -256h-123l-174 164l-174 -164h-123zM547 -20q-213 0 -342 141t-129 360q0 238 126 370t324 132q193 0 322 -114t129 -296l-8 -129h-617q0 -193 60 -282.5t166 -89.5q97 0 163.5 43.5t128.5 126.5l64 -47q-26 -41 -55 -73.5t-75.5 -67.5
t-112 -54.5t-144.5 -19.5zM352 537h348q0 191 -45.5 272.5t-128.5 81.5q-36 0 -66 -18t-55 -57t-39 -110t-14 -169z" />
    <glyph glyph-name="edieresis" unicode="&#xeb;" horiz-adv-x="1042" 
d="M332 1096q-53 0 -84 32.5t-31 81.5t31.5 82t83.5 33t83 -33t31 -82t-31 -81.5t-83 -32.5zM700 1096q-52 0 -83 32.5t-31 81.5t31 82t83 33t83.5 -33t31.5 -82t-31 -81.5t-84 -32.5zM547 -20q-213 0 -342 141t-129 360q0 238 126 370t324 132q193 0 322 -114t129 -296
l-8 -129h-617q0 -193 60 -282.5t166 -89.5q97 0 163.5 43.5t128.5 126.5l64 -47q-26 -41 -55 -73.5t-75.5 -67.5t-112 -54.5t-144.5 -19.5zM352 537h348q0 191 -45.5 272.5t-128.5 81.5q-36 0 -66 -18t-55 -57t-39 -110t-14 -169z" />
    <glyph glyph-name="igrave" unicode="&#xec;" horiz-adv-x="546" 
d="M238 1075l-218 287h244l86 -287h-112zM162 0v696q0 51 -5.5 85t-20 63t-44 43t-74.5 14h-20v62h246q107 0 145.5 -57t38.5 -210v-696h-266z" />
    <glyph glyph-name="iacute" unicode="&#xed;" horiz-adv-x="546" 
d="M203 1075l86 287h243l-217 -287h-112zM162 0v696q0 51 -5.5 85t-20 63t-44 43t-74.5 14h-20v62h246q107 0 145.5 -57t38.5 -210v-696h-266z" />
    <glyph glyph-name="icircumflex" unicode="&#xee;" horiz-adv-x="546" 
d="M-23 1087l164 256h267l163 -256h-122l-175 164l-174 -164h-123zM162 0v696q0 51 -5.5 85t-20 63t-44 43t-74.5 14h-20v62h246q107 0 145.5 -57t38.5 -210v-696h-266z" />
    <glyph glyph-name="idieresis" unicode="&#xef;" horiz-adv-x="546" 
d="M111 1094q-74 0 -114 44.5t-40 110.5q0 53 32 84t81 31q74 0 113.5 -45t39.5 -111q0 -53 -31.5 -83.5t-80.5 -30.5zM489 1094q-74 0 -113.5 44.5t-39.5 110.5q0 53 32 84t81 31q74 0 113.5 -45t39.5 -111q0 -53 -32 -83.5t-81 -30.5zM162 0v696q0 51 -5.5 85t-20 63
t-44 43t-74.5 14h-20v62h246q107 0 145.5 -57t38.5 -210v-696h-266z" />
    <glyph glyph-name="eth" unicode="&#xf0;" horiz-adv-x="1140" 
d="M565 -20q-120 0 -214.5 39t-154.5 108t-91 159t-31 195q0 140 53 252.5t161.5 181t256.5 68.5q99 0 173.5 -43t112.5 -121q-47 212 -135 318l-96 -97l-82 82l96 97q-39 37 -91 49t-122 12q-48 0 -108 -18l-29 65q34 22 84.5 33.5t93.5 11.5q156 0 263 -74l88 95l81 -78
l-86 -86q122 -108 195.5 -283t73.5 -393q0 -267 -125.5 -420t-366.5 -153zM565 72q92 0 153.5 106t61.5 303q0 104 -20.5 193.5t-71 153t-123.5 63.5t-123.5 -63.5t-71 -153t-20.5 -193.5q0 -197 61.5 -303t153.5 -106z" />
    <glyph glyph-name="ntilde" unicode="&#xf1;" horiz-adv-x="1177" 
d="M362 1114q0 115 36 160t104 45q39 0 74.5 -20.5t63.5 -41t50 -20.5q33 0 52.5 24.5t19.5 57.5h82q0 -116 -35 -160.5t-102 -44.5q-39 0 -75 20.5t-64.5 41t-51.5 20.5q-33 0 -52.5 -24.5t-19.5 -57.5h-82zM164 0v696q0 105 -28 155t-113 50h-21v62h203q69 0 109 -17.5
t63 -58.5q105 96 299 96q195 0 292 -91t97 -286v-606h-266v608q0 142 -52.5 207.5t-142.5 65.5q-108 0 -174 -52v-829h-266z" />
    <glyph glyph-name="ograve" unicode="&#xf2;" horiz-adv-x="1130" 
d="M530 1075l-217 287h244l86 -287h-113zM565 -20q-149 0 -261.5 67t-171 180t-58.5 254t58.5 254.5t171 180.5t261.5 67t262 -67t171.5 -180.5t58.5 -254.5t-58.5 -254t-171.5 -180t-262 -67zM565 72q104 0 159.5 112.5t55.5 296.5t-55.5 297t-159.5 113t-159.5 -113
t-55.5 -297t55.5 -296.5t159.5 -112.5z" />
    <glyph glyph-name="oacute" unicode="&#xf3;" horiz-adv-x="1130" 
d="M477 1073l86 287h244l-217 -287h-113zM565 -20q-149 0 -261.5 67t-171 180t-58.5 254t58.5 254.5t171 180.5t261.5 67t262 -67t171.5 -180.5t58.5 -254.5t-58.5 -254t-171.5 -180t-262 -67zM565 72q104 0 159.5 112.5t55.5 296.5t-55.5 297t-159.5 113t-159.5 -113
t-55.5 -297t55.5 -296.5t159.5 -112.5z" />
    <glyph glyph-name="ocircumflex" unicode="&#xf4;" horiz-adv-x="1130" 
d="M268 1073l164 256h266l164 -256h-123l-174 164l-174 -164h-123zM565 -20q-149 0 -261.5 67t-171 180t-58.5 254t58.5 254.5t171 180.5t261.5 67t262 -67t171.5 -180.5t58.5 -254.5t-58.5 -254t-171.5 -180t-262 -67zM565 72q104 0 159.5 112.5t55.5 296.5t-55.5 297
t-159.5 113t-159.5 -113t-55.5 -297t55.5 -296.5t159.5 -112.5z" />
    <glyph glyph-name="otilde" unicode="&#xf5;" horiz-adv-x="1130" 
d="M324 1096q0 115 35.5 159.5t103.5 44.5q31 0 60.5 -12.5t47.5 -28t40 -28t40 -12.5q33 0 52.5 24t19.5 57h82q0 -116 -35 -160t-102 -44q-39 0 -75 20.5t-64.5 41t-51.5 20.5q-33 0 -52 -24.5t-19 -57.5h-82zM565 -20q-149 0 -261.5 67t-171 180t-58.5 254t58.5 254.5
t171 180.5t261.5 67t262 -67t171.5 -180.5t58.5 -254.5t-58.5 -254t-171.5 -180t-262 -67zM565 72q104 0 159.5 112.5t55.5 296.5t-55.5 297t-159.5 113t-159.5 -113t-55.5 -297t55.5 -296.5t159.5 -112.5z" />
    <glyph glyph-name="odieresis" unicode="&#xf6;" horiz-adv-x="1130" 
d="M381 1096q-53 0 -84 32.5t-31 81.5t31.5 82t83.5 33t83.5 -33t31.5 -82t-31 -81.5t-84 -32.5zM750 1096q-53 0 -84 32.5t-31 81.5t31.5 82t83.5 33t83 -33t31 -82t-31 -81.5t-83 -32.5zM565 -20q-149 0 -261.5 67t-171 180t-58.5 254t58.5 254.5t171 180.5t261.5 67
t262 -67t171.5 -180.5t58.5 -254.5t-58.5 -254t-171.5 -180t-262 -67zM565 72q104 0 159.5 112.5t55.5 296.5t-55.5 297t-159.5 113t-159.5 -113t-55.5 -297t55.5 -296.5t159.5 -112.5z" />
    <glyph glyph-name="divide" unicode="&#xf7;" horiz-adv-x="1122" 
d="M561 870q-52 0 -83.5 33t-31.5 82t31.5 82t83.5 33t83.5 -33t31.5 -82t-31.5 -82t-83.5 -33zM90 608v133h942v-133h-942zM561 252q-52 0 -83.5 33t-31.5 82t31 81.5t84 32.5t84 -32.5t31 -81.5t-31.5 -82t-83.5 -33z" />
    <glyph glyph-name="oslash" unicode="&#xf8;" horiz-adv-x="1130" 
d="M565 -20q-128 0 -237 53l-25 -33h-188l90 123q-131 140 -131 358q0 141 58.5 254.5t171 180.5t261.5 67q129 0 238 -53l24 33h189l-92 -123q133 -136 133 -359q0 -141 -58.5 -254t-171.5 -180t-262 -67zM360 332l349 471q-56 88 -144 88q-104 0 -159.5 -113t-55.5 -297
q0 -90 10 -149zM565 72q104 0 159.5 112.5t55.5 296.5q0 81 -12 148l-348 -471q55 -86 145 -86z" />
    <glyph glyph-name="ugrave" unicode="&#xf9;" horiz-adv-x="1157" 
d="M535 1022l-218 287h244l86 -287h-112zM522 -20q-194 0 -286.5 90t-92.5 286v340q0 51 -5.5 85t-20 63t-43.5 43t-74 14h-20v62h245q107 0 146 -57t39 -210v-342q0 -153 43 -217.5t131 -64.5q65 0 110.5 40.5t73.5 92.5v758h266v-963h-174l-72 92h-10q-104 -112 -256 -112
z" />
    <glyph glyph-name="uacute" unicode="&#xfa;" horiz-adv-x="1157" 
d="M494 1024l86 287h243l-217 -287h-112zM522 -20q-194 0 -286.5 90t-92.5 286v340q0 51 -5.5 85t-20 63t-43.5 43t-74 14h-20v62h245q107 0 146 -57t39 -210v-342q0 -153 43 -217.5t131 -64.5q65 0 110.5 40.5t73.5 92.5v758h266v-963h-174l-72 92h-10q-104 -112 -256 -112
z" />
    <glyph glyph-name="ucircumflex" unicode="&#xfb;" horiz-adv-x="1157" 
d="M293 1085l164 256h266l164 -256h-123l-174 164l-174 -164h-123zM522 -20q-194 0 -286.5 90t-92.5 286v340q0 51 -5.5 85t-20 63t-43.5 43t-74 14h-20v62h245q107 0 146 -57t39 -210v-342q0 -153 43 -217.5t131 -64.5q65 0 110.5 40.5t73.5 92.5v758h266v-963h-174l-72 92
h-10q-104 -112 -256 -112z" />
    <glyph glyph-name="udieresis" unicode="&#xfc;" horiz-adv-x="1157" 
d="M381 1053q-53 0 -84 32.5t-31 81.5t31.5 82t83.5 33t83.5 -33t31.5 -82t-31 -81.5t-84 -32.5zM750 1053q-53 0 -84 32.5t-31 81.5t31.5 82t83.5 33t83 -33t31 -82t-31 -81.5t-83 -32.5zM522 -20q-194 0 -286.5 90t-92.5 286v340q0 51 -5.5 85t-20 63t-43.5 43t-74 14h-20
v62h245q107 0 146 -57t39 -210v-342q0 -153 43 -217.5t131 -64.5q65 0 110.5 40.5t73.5 92.5v758h266v-963h-174l-72 92h-10q-104 -112 -256 -112z" />
    <glyph glyph-name="yacute" unicode="&#xfd;" horiz-adv-x="1042" 
d="M528 1024l86 287h244l-217 -287h-113zM188 -410v72q112 0 182.5 43.5t112.5 155.5l43 110l-368 807q-67 149 -191 164v41h180q91 0 161 -44t106 -120l235 -516l250 660h109l-414 -1096q-58 -159 -134 -218t-190 -59h-82z" />
    <glyph glyph-name="thorn" unicode="&#xfe;" horiz-adv-x="1110" 
d="M123 -389v1474q0 51 -5.5 85t-20 63t-43.5 43t-74 14h-21v62h246q107 0 145.5 -57t38.5 -210v-174q87 72 234 72q201 0 305 -135.5t104 -366.5q0 -232 -107.5 -366.5t-322.5 -134.5q-117 0 -213 40v-409h-266zM530 72q108 0 167 108t59 301q0 190 -56 300t-149 110
t-162 -62v-727q82 -30 141 -30z" />
    <glyph glyph-name="ydieresis" unicode="&#xff;" horiz-adv-x="1042" 
d="M399 1063q-52 0 -83 33t-31 82t31 81.5t83 32.5q53 0 84 -32.5t31 -81.5t-31.5 -82t-83.5 -33zM768 1063q-52 0 -83.5 33t-31.5 82t31 81.5t84 32.5t84 -32.5t31 -81.5t-31.5 -82t-83.5 -33zM188 -410v72q112 0 182.5 43.5t112.5 155.5l43 110l-368 807q-67 149 -191 164
v41h180q91 0 161 -44t106 -120l235 -516l250 660h109l-414 -1096q-58 -159 -134 -218t-190 -59h-82z" />
    <glyph glyph-name="Gbreve" unicode="&#x11e;" horiz-adv-x="1503" 
d="M741 1493q-98 0 -173.5 52.5t-114.5 140.5l57 43q83 -103 231 -103q149 0 232 103l57 -43q-39 -88 -115 -140.5t-174 -52.5zM809 -41q-157 0 -294.5 57.5t-234.5 155.5t-152.5 234.5t-55.5 289.5q0 196 83 354t238 250.5t355 92.5q180 0 306 -47t189 -119q24 -32 37 -88
t14.5 -94t1.5 -103h-61q-38 187 -141.5 272.5t-284.5 85.5q-95 0 -172 -33t-128 -89.5t-85.5 -134t-50 -164t-15.5 -183.5q0 -655 451 -655q160 0 276 53v365q0 38 7.5 69.5t32.5 66.5t67 59t116.5 39.5t174.5 15.5v-52q-131 0 -131 -194v-367q-225 -137 -543 -137z" />
    <glyph glyph-name="gbreve" unicode="&#x11f;" horiz-adv-x="1071" 
d="M502 1087q-98 0 -174 52.5t-115 140.5l57 43q82 -102 232 -102q149 0 231 102l58 -43q-39 -88 -115 -140.5t-174 -52.5zM530 -410q-501 0 -501 318q0 101 81.5 169t194.5 97q-92 29 -92 113q0 68 82 102q-88 32 -146.5 107.5t-58.5 167.5q0 87 33.5 150t95 99t138.5 53
t173 17h431v-55l-185 -25q86 -32 140.5 -99.5t54.5 -139.5q0 -169 -114.5 -242.5t-326.5 -73.5q-106 0 -155 -11.5t-49 -49.5q0 -33 49 -43.5t155 -12.5t195.5 -23t158.5 -59.5t108.5 -100.5t39.5 -140q0 -318 -502 -318zM530 430q164 0 164 234q0 114 -45 175.5t-119 61.5
q-75 0 -119 -58.5t-44 -178.5q0 -234 163 -234zM530 -317q107 0 166.5 56t59.5 169q0 90 -56.5 150t-152.5 79l-96 10q-146 -63 -146 -239q0 -114 59.5 -169.5t165.5 -55.5z" />
    <glyph glyph-name="Idotaccent" unicode="&#x130;" horiz-adv-x="622" 
d="M305 1462q-74 0 -113.5 45t-39.5 111q0 53 31.5 84t80.5 31q74 0 114 -45t40 -111q0 -53 -32 -84t-81 -31zM346 0q-107 0 -145.5 55.5t-38.5 210.5v1086h266v-1086q0 -51 5.5 -85t20 -63t43.5 -43t74 -14h21v-61h-246z" />
    <glyph glyph-name="dotlessi" unicode="&#x131;" horiz-adv-x="546" 
d="M162 0v696q0 51 -5.5 85t-20 63t-44 43t-74.5 14h-20v62h246q107 0 145.5 -57t38.5 -210v-696h-266z" />
    <glyph glyph-name="OE" unicode="&#x152;" horiz-adv-x="1959" 
d="M752 -41q-200 0 -355 95t-238 258t-83 364t83 364t238 258t355 95q78 0 128 -10t107 -31h678q174 0 174 -164v-174h-61q0 127 -65 186.5t-191 59.5h-330v-512h532v-93h-532v-563h350q117 0 194.5 52.5t129.5 181.5l55 -21l-59 -162q-26 -74 -63 -108.5t-116 -34.5h-696
q-95 -41 -235 -41zM752 51q97 0 174 47v1153q-76 49 -174 49q-186 0 -288 -162.5t-102 -461.5t102 -462t288 -163z" />
    <glyph glyph-name="oe" unicode="&#x153;" horiz-adv-x="1746" 
d="M565 -20q-149 0 -261.5 67t-171 180t-58.5 254t58.5 254.5t171 180.5t261.5 67q209 0 344 -129q123 129 322 129q193 0 321.5 -114t128.5 -296q0 -38 -4 -88l-4 -41h-616q0 -372 225 -372q97 0 164 43.5t129 126.5l63 -47q-26 -41 -55 -73.5t-75.5 -67.5t-112 -54.5
t-144.5 -19.5q-210 0 -336 135q-135 -135 -350 -135zM565 72q104 0 159.5 112.5t55.5 296.5t-55.5 297t-159.5 113t-159.5 -113t-55.5 -297t55.5 -296.5t159.5 -112.5zM1057 537h348q0 191 -45.5 272.5t-128.5 81.5q-36 0 -66 -18t-55 -57t-39 -110t-14 -169z" />
    <glyph glyph-name="Scedilla" unicode="&#x15e;" horiz-adv-x="1148" 
d="M1073 346q0 -166 -116 -266t-330 -113v-69q86 0 135 -43t49 -117q0 -73 -49.5 -116.5t-134.5 -43.5h-144v94h103q37 0 59.5 19.5t22.5 46.5q0 30 -22 48.5t-60 18.5h-92v162q-105 8 -193.5 38t-146.5 84t-58 122v240h58q32 -210 129.5 -302t273.5 -92q120 0 189 51.5
t69 147.5q0 82 -50.5 139.5t-160.5 124.5l-252 152q-137 81 -195.5 166.5t-58.5 199.5q0 161 124 256t335 95q115 0 219 -28t174 -86t70 -132v-240h-57q-34 208 -128.5 300.5t-254.5 92.5q-111 0 -175.5 -53t-64.5 -145q0 -42 14 -76t45.5 -64.5t64.5 -53.5t89 -56l252 -150
q144 -84 206 -163t62 -189z" />
    <glyph glyph-name="scedilla" unicode="&#x15f;" horiz-adv-x="958" 
d="M889 252q0 -120 -99.5 -190.5t-265.5 -79.5v-43q86 0 135.5 -43t49.5 -117q0 -73 -49.5 -116.5t-135.5 -43.5h-143v94h102q37 0 59.5 19.5t22.5 46.5q0 30 -22 48.5t-60 18.5h-92v136q-176 11 -252 81q-23 22 -34.5 64.5t-13 77t-1.5 102.5h72q19 -106 84.5 -170.5
t181.5 -64.5q205 0 205 139q0 54 -44 88.5t-140 77.5l-107 45q-130 57 -196 125.5t-66 163.5q0 130 107.5 201t281.5 71q239 0 330 -84q23 -22 34.5 -64.5t13 -77t1.5 -102.5h-72q-19 106 -84.5 171t-181.5 65q-88 0 -131 -37.5t-43 -101.5q0 -52 35.5 -86t109.5 -66
l123 -51q151 -64 218 -129t67 -168z" />
    <glyph glyph-name="Scaron" unicode="&#x160;" horiz-adv-x="1148" 
d="M414 1477l-164 256h143l154 -164l153 164h144l-164 -256h-266zM559 -35q-115 0 -219 28t-174 86t-70 132v240h58q32 -210 129.5 -302t273.5 -92q120 0 189 51.5t69 147.5q0 82 -50.5 139.5t-160.5 124.5l-252 152q-137 81 -195.5 166.5t-58.5 199.5q0 161 124 256t335 95
q115 0 219 -28t174 -86t70 -132v-240h-57q-34 208 -128.5 300.5t-254.5 92.5q-111 0 -175.5 -53t-64.5 -145q0 -42 14 -76t45.5 -64.5t64.5 -53.5t89 -56l252 -150q144 -84 206 -163t62 -189q0 -179 -134.5 -280t-379.5 -101z" />
    <glyph glyph-name="scaron" unicode="&#x161;" horiz-adv-x="958" 
d="M322 1065l-164 256h143l154 -164l153 164h144l-164 -256h-266zM469 -20q-240 0 -330 83q-23 22 -34.5 64.5t-13 77t-1.5 102.5h72q19 -106 84.5 -170.5t181.5 -64.5q205 0 205 139q0 54 -44 88.5t-140 77.5l-107 45q-130 57 -196 125.5t-66 163.5q0 130 107.5 201
t281.5 71q239 0 330 -84q23 -22 34.5 -64.5t13 -77t1.5 -102.5h-72q-19 106 -84.5 171t-181.5 65q-88 0 -131 -37.5t-43 -101.5q0 -52 35.5 -86t109.5 -66l123 -51q151 -64 218 -129t67 -168q0 -130 -115.5 -201t-304.5 -71z" />
    <glyph glyph-name="Ydieresis" unicode="&#x178;" horiz-adv-x="1306" 
d="M557 1413q-52 0 -83.5 33t-31.5 82t31 81.5t84 32.5t84 -32.5t31 -81.5t-31.5 -82t-83.5 -33zM905 1413q-52 0 -83 33t-31 82t31 81.5t83 32.5q53 0 84 -32.5t31 -81.5t-31.5 -82t-83.5 -33zM571 0v541l-362 544q-62 89 -134.5 154t-137.5 72v41h223q105 0 189.5 -66
t144.5 -160l278 -419l397 645h134l-465 -756v-596h-267z" />
    <glyph glyph-name="Zcaron" unicode="&#x17d;" horiz-adv-x="1226" 
d="M512 1456l-164 256h144l153 -164l154 164h143l-164 -256h-266zM63 0v66l762 1196h-444q-114 0 -175 -58.5t-61 -189.5h-61v174q0 164 174 164h932l-803 -1260h793v-92h-1117z" />
    <glyph glyph-name="zcaron" unicode="&#x17e;" horiz-adv-x="1009" 
d="M395 1065l-164 256h144l153 -164l154 164h143l-163 -256h-267zM80 0v63l538 807h-241q-128 0 -182 -46t-54 -148h-61v123q0 164 174 164h729l-582 -871h539v-92h-860z" />
    <glyph glyph-name="florin" unicode="&#x192;" horiz-adv-x="452" 
 />
    <glyph glyph-name="circumflex" unicode="&#x2c6;" horiz-adv-x="675" 
d="M41 1352l164 256h266l164 -256h-123l-174 164l-174 -164h-123z" />
    <glyph glyph-name="caron" unicode="&#x2c7;" horiz-adv-x="675" 
d="M205 1065l-164 256h143l154 -164l154 164h143l-164 -256h-266z" />
    <glyph glyph-name="breve" unicode="&#x2d8;" horiz-adv-x="659" 
d="M330 1044q-98 0 -174 52.5t-115 140.5l57 43q82 -102 232 -102q149 0 231 102l57 -43q-39 -88 -114.5 -140.5t-173.5 -52.5z" />
    <glyph glyph-name="ring" unicode="&#x2da;" horiz-adv-x="471" 
d="M236 1065q-86 0 -140.5 54.5t-54.5 140.5t54.5 140t140.5 54t140 -54t54 -140t-54 -140.5t-140 -54.5zM236 1157q39 0 65.5 28.5t26.5 74.5t-26.5 74t-65.5 28t-66 -28t-27 -74t27 -74.5t66 -28.5z" />
    <glyph glyph-name="tilde" unicode="&#x2dc;" horiz-adv-x="563" 
d="M41 1393q0 115 35.5 159.5t103.5 44.5q39 0 74.5 -20.5t64 -40.5t50.5 -20q33 0 52 24t19 57h82q0 -116 -35 -160t-102 -44q-39 0 -74.5 20.5t-64 41t-51.5 20.5q-33 0 -52.5 -24.5t-19.5 -57.5h-82z" />
    <glyph glyph-name="uni0401" unicode="&#x401;" horiz-adv-x="1228" 
d="M424 1495q-52 0 -83.5 33t-31.5 82t31 81.5t84 32.5t84 -32.5t31 -81.5t-31.5 -82t-83.5 -33zM772 1495q-52 0 -83.5 33t-31.5 82t31 81.5t84 32.5t84 -32.5t31 -81.5t-31.5 -82t-83.5 -33zM195 0v1085q0 51 -5.5 85t-20 63t-44 43t-74.5 14h-20v62h903q174 0 174 -164
v-174h-61q0 127 -65 186.5t-191 59.5h-330v-512h532v-93h-532v-563h350q117 0 194.5 52.5t129.5 181.5l55 -21l-60 -162q-26 -75 -62.5 -109t-115.5 -34h-757z" />
    <glyph glyph-name="uni0402" unicode="&#x402;" horiz-adv-x="1306" 
d="M817 -82v51q84 0 129 109.5t45 331.5q0 83 -12.5 148t-33.5 106t-51 67t-61 36.5t-67 10.5q-157 0 -266 -71v-707h-267v1260h-245v92h757v-92h-245v-461q52 34 135.5 58t171.5 24q81 0 145 -12.5t122.5 -44.5t97.5 -84t62 -135.5t23 -194.5q0 -260 -112 -376t-328 -116z
" />
    <glyph glyph-name="uni0403" unicode="&#x403;" horiz-adv-x="1114" 
d="M469 1440l86 286h244l-217 -286h-113zM195 0v1085q0 51 -5.5 85t-20 63t-44 43t-74.5 14h-20v62h878q174 0 174 -164v-174h-61q0 130 -64.5 188t-191.5 58h-305v-1260h-266z" />
    <glyph glyph-name="uni0404" unicode="&#x404;" horiz-adv-x="1390" 
d="M752 -41q-158 0 -287 53.5t-213.5 147.5t-130 220.5t-45.5 274.5q0 153 51.5 289.5t141 235t215 156t268.5 57.5q179 0 300.5 -46.5t184.5 -119.5q20 -26 31.5 -58.5t16 -82.5t5 -77.5t0.5 -93.5h-61q-39 188 -143.5 286.5t-272.5 98.5q-427 0 -448 -573h632v-92h-635
q2 -94 18.5 -178t52 -159t86.5 -129.5t126.5 -86t167.5 -31.5q143 0 263.5 76t193.5 217l71 -55q-98 -172 -237 -251t-352 -79z" />
    <glyph glyph-name="uni0405" unicode="&#x405;" horiz-adv-x="1148" 
d="M559 -35q-115 0 -219 28t-174 86t-70 132v240h58q32 -210 129.5 -302t273.5 -92q120 0 189 51.5t69 147.5q0 82 -50.5 139.5t-160.5 124.5l-252 152q-137 81 -195.5 166.5t-58.5 199.5q0 161 124 256t335 95q115 0 219 -28t174 -86t70 -132v-240h-57
q-34 208 -128.5 300.5t-254.5 92.5q-111 0 -175.5 -53t-64.5 -145q0 -42 14 -76t45.5 -64.5t64.5 -53.5t89 -56l252 -150q144 -84 206 -163t62 -189q0 -179 -134.5 -280t-379.5 -101z" />
    <glyph glyph-name="uni0406" unicode="&#x406;" horiz-adv-x="622" 
d="M346 0q-107 0 -145.5 55.5t-38.5 210.5v1086h266v-1086q0 -51 5.5 -85t20 -63t43.5 -43t74 -14h21v-61h-246z" />
    <glyph glyph-name="uni0407" unicode="&#x407;" horiz-adv-x="622" 
d="M125 1464q-52 0 -83.5 33t-31.5 82t31.5 82t83.5 33t83.5 -33t31.5 -82t-31.5 -82t-83.5 -33zM465 1464q-52 0 -83.5 33t-31.5 82t31.5 82t83.5 33t83.5 -33t31.5 -82t-31.5 -82t-83.5 -33zM346 0q-107 0 -145.5 55.5t-38.5 210.5v1086h266v-1086q0 -51 5.5 -85t20 -63
t43.5 -43t74 -14h21v-61h-246z" />
    <glyph glyph-name="uni0408" unicode="&#x408;" horiz-adv-x="569" 
d="M-39 -281v62q65 8 105 43t63 119.5t23 226.5v1182h266v-1182q0 -137 -19 -220t-71.5 -137t-138.5 -74t-228 -20z" />
    <glyph glyph-name="uni0409" unicode="&#x409;" horiz-adv-x="2023" 
d="M106 -31q-63 0 -122 19v63q40 9 72.5 25t67 50t61 83.5t50 128.5t39 182t24.5 246t9 319q0 105 -28 155t-113 50h-21v62h1076v-553h184q88 0 166.5 -10.5t157 -38.5t134.5 -72t91 -115.5t35 -163.5t-35 -163.5t-91 -115t-134.5 -71.5t-157 -38.5t-166.5 -10.5h-451v1260
h-422v-175q0 -255 -21 -449.5t-57.5 -319.5t-91.5 -204t-117 -111t-139 -32zM1374 82q328 0 328 317q0 318 -328 318q-62 0 -153 -21v-594q65 -20 153 -20z" />
    <glyph glyph-name="uni040A" unicode="&#x40a;" horiz-adv-x="2056" 
d="M195 0v1085q0 51 -5.5 85t-20 63t-44 43t-74.5 14h-20v62h245q107 0 146 -57t39 -210v-337h514v604h266v-594h182q94 0 177 -10.5t163 -37.5t137.5 -69t92.5 -109t35 -153t-35 -153t-92.5 -109t-137.5 -69t-163 -37.5t-177 -10.5h-448v655h-514v-655h-266zM1393 82
q348 0 348 297t-348 297q-112 0 -154 -21v-553q73 -20 154 -20z" />
    <glyph glyph-name="uni040B" unicode="&#x40b;" horiz-adv-x="1331" 
d="M233 0v1260h-245v92h757v-92h-245v-461q52 34 135.5 58t171.5 24q69 0 129.5 -9.5t121 -35t103.5 -66t69.5 -106.5t26.5 -152v-512h-266v512q0 144 -58.5 205t-166.5 61q-157 0 -266 -71v-707h-267z" />
    <glyph glyph-name="uni040C" unicode="&#x40c;" horiz-adv-x="1419" 
d="M588 1382l86 287h244l-218 -287h-112zM1292 -20q-129 0 -246.5 51.5t-252.5 193.5l-330 344v-569h-266l-2 1085q0 51 -5.5 85t-20 63t-44 43t-74.5 14h-20v62h245q106 0 146.5 -57.5t40.5 -209.5v-389l354 441q76 99 163.5 157t199.5 58h143v-72q-127 0 -218.5 -32
t-156.5 -113l-305 -377l473 -492q76 -84 170.5 -146.5t155.5 -70.5v-49q-62 -20 -150 -20z" />
    <glyph glyph-name="uni040E" unicode="&#x40e;" horiz-adv-x="1265" 
d="M709 1423q-98 0 -174 52.5t-115 140.5l57 43q83 -103 232 -103q148 0 231 103l57 -43q-39 -88 -114.5 -140.5t-173.5 -52.5zM291 -20v73q51 0 92 5.5t84 20t76 44t53 72.5l14 30l-420 860q-95 212 -253 226v41h204q113 0 200.5 -62t133.5 -164l283 -577l362 803h133
l-524 -1157q-44 -102 -129.5 -158.5t-206.5 -56.5h-102z" />
    <glyph glyph-name="uni040F" unicode="&#x40f;" horiz-adv-x="1411" 
d="M655 -358l-30 358h-430v1085q0 51 -5.5 85t-20 63t-44 43t-74.5 14h-20v62h245q107 0 146 -57t39 -210v-993h532v1260h267v-1352h-431l-30 -358h-144z" />
    <glyph glyph-name="uni0410" unicode="&#x410;" horiz-adv-x="1325" 
d="M1286 -8q-46 0 -85 5t-86.5 21.5t-86.5 44.5t-78 78t-67 117l-47 115h-545l-168 -373h-107l605 1352h92l458 -1094q77 -190 213 -205v-51q-38 -10 -98 -10zM334 465h463l-226 534z" />
    <glyph glyph-name="uni0411" unicode="&#x411;" horiz-adv-x="1300" 
d="M195 0v1085q0 51 -5.5 85t-20 63t-44 43t-74.5 14h-20v62h899q174 0 174 -164v-174h-62q0 130 -64.5 188t-191.5 58h-325v-482h184q97 0 177 -8.5t162 -34t138 -67.5t91.5 -113t35.5 -166t-35.5 -166t-91.5 -113t-138 -67.5t-162 -34t-177 -8.5h-450zM614 82
q184 0 266.5 72.5t82.5 234.5t-82.5 234.5t-266.5 72.5q-66 0 -153 -20v-574q73 -20 153 -20z" />
    <glyph glyph-name="uni0412" unicode="&#x412;" horiz-adv-x="1318" 
d="M195 0v1085q0 51 -5.5 85t-20 63t-44 43t-74.5 14h-20v62h553q62 0 114.5 -2.5t116.5 -12t114.5 -24.5t100.5 -42.5t83.5 -64.5t54 -91.5t20.5 -121.5q0 -94 -74.5 -177t-210.5 -118q346 -35 346 -323q0 -375 -604 -375h-450zM461 739h153q133 0 210 63t77 202
q0 73 -26.5 126.5t-73 83t-100.5 43t-117 13.5q-49 0 -123 -15v-516zM614 82q169 0 259 73.5t90 209.5q0 282 -349 282h-153v-545q73 -20 153 -20z" />
    <glyph glyph-name="uni0413" unicode="&#x413;" horiz-adv-x="1114" 
d="M195 0v1085q0 51 -5.5 85t-20 63t-44 43t-74.5 14h-20v62h878q174 0 174 -164v-174h-61q0 130 -64.5 188t-191.5 58h-305v-1260h-266z" />
    <glyph glyph-name="uni0414" unicode="&#x414;" horiz-adv-x="1421" 
d="M-2 -377v397q0 31 20.5 51.5t51.5 20.5h71q95 206 134.5 450.5t39.5 542.5q0 51 -5.5 85t-20 63t-43.5 43t-74 14h-20v62h1083v-1260h72q31 0 51 -20.5t20 -51.5v-397h-102q-16 146 -49 229t-81.5 115.5t-125.5 32.5h-664q-77 0 -125.5 -32.5t-81.5 -115.5t-49 -229h-102
zM354 92h615v1168h-451q0 -422 -37 -690.5t-127 -477.5z" />
    <glyph glyph-name="uni0415" unicode="&#x415;" horiz-adv-x="1228" 
d="M195 0v1085q0 51 -5.5 85t-20 63t-44 43t-74.5 14h-20v62h903q174 0 174 -164v-174h-61q0 127 -65 186.5t-191 59.5h-330v-512h532v-93h-532v-563h350q117 0 194.5 52.5t129.5 181.5l55 -21l-60 -162q-26 -75 -62.5 -109t-115.5 -34h-757z" />
    <glyph glyph-name="uni0416" unicode="&#x416;" horiz-adv-x="2025" 
d="M111 -20q-69 0 -131 20v49q64 11 149 70t158 147l411 492l-284 377q-68 84 -144.5 114.5t-210.5 30.5v72h123q113 0 200 -57.5t163 -157.5l334 -441v656h268v-656l334 441q76 100 162.5 157.5t199.5 57.5h123v-72q-134 0 -210 -30.5t-144 -114.5l-285 -377l412 -492
q73 -88 158 -147t149 -70v-49q-62 -20 -131 -20q-71 0 -128 10.5t-120 38t-125.5 81.5t-126.5 136l-268 338v-584h-268v584l-269 -338q-64 -82 -126.5 -136t-125 -81.5t-119.5 -38t-128 -10.5z" />
    <glyph glyph-name="uni0417" unicode="&#x417;" horiz-adv-x="1187" 
d="M573 -41q-184 0 -312 68t-222 209l61 51q38 -51 76.5 -89.5t90 -73.5t116 -54t139.5 -19q136 0 226 76t90 211q0 146 -93 226.5t-256 80.5h-174v92h174q76 0 144.5 30t116 97.5t47.5 159.5q0 70 -25 125.5t-65.5 87t-85 47.5t-89.5 16q-137 0 -233 -90t-135 -247h-64
q0 78 2 118.5t14 89t36 78.5q52 64 165.5 104t225.5 40q530 0 530 -359q0 -104 -84 -198t-231 -129q97 -12 170 -47.5t114.5 -86.5t61.5 -107.5t20 -117.5q0 -85 -34 -153.5t-89 -111.5t-128.5 -71.5t-147.5 -40.5t-152 -12z" />
    <glyph glyph-name="uni0418" unicode="&#x418;" horiz-adv-x="1452" 
d="M195 0v1085q0 51 -5.5 85t-20 63t-44 43t-74.5 14h-20v62h245q107 0 146 -57t39 -210v-819l594 1086h245v-1352h-266v1085l-594 -1085h-245z" />
    <glyph glyph-name="uni0419" unicode="&#x419;" horiz-adv-x="1452" 
d="M756 1434q-98 0 -174 52t-115 140l57 43q82 -102 232 -102q149 0 231 102l57 -43q-39 -88 -114.5 -140t-173.5 -52zM195 0v1085q0 51 -5.5 85t-20 63t-44 43t-74.5 14h-20v62h245q107 0 146 -57t39 -210v-819l594 1086h245v-1352h-266v1085l-594 -1085h-245z" />
    <glyph glyph-name="uni041A" unicode="&#x41a;" horiz-adv-x="1419" 
d="M1292 -20q-129 0 -246.5 51.5t-252.5 193.5l-330 344v-569h-266l-2 1085q0 51 -5.5 85t-20 63t-44 43t-74.5 14h-20v62h245q106 0 146.5 -57.5t40.5 -209.5v-389l354 441q76 99 163.5 157t199.5 58h143v-72q-127 0 -218.5 -32t-156.5 -113l-305 -377l473 -492
q76 -84 170.5 -146.5t155.5 -70.5v-49q-62 -20 -150 -20z" />
    <glyph glyph-name="uni041B" unicode="&#x41b;" horiz-adv-x="1390" 
d="M106 -31q-63 0 -122 19v63q40 9 72.5 25t67 50t61 83.5t50 128.5t39 182t24.5 246t9 319q0 51 -5.5 85t-20 63t-43.5 43t-74 14h-21v62h1096v-1352h-266v1260h-443v-175q0 -255 -21 -449.5t-57 -319.5t-90.5 -204t-116.5 -111t-139 -32z" />
    <glyph glyph-name="uni041C" unicode="&#x41c;" horiz-adv-x="1775" 
d="M1735 -92q-222 0 -319 103.5t-97 336.5v725l-449 -1073h-67l-549 1114v-1114h-102v1352h249l496 -1006l420 1006h268v-1004q0 -192 33 -282t117 -107v-51z" />
    <glyph glyph-name="uni041D" unicode="&#x41d;" horiz-adv-x="1474" 
d="M195 0v1085q0 51 -5.5 85t-20 63t-44 43t-74.5 14h-20v62h245q107 0 146 -57t39 -210v-337h553v604h266v-1086q0 -51 5.5 -85t20 -63t43.5 -43t74 -14h21v-61h-246q-107 0 -145.5 55.5t-38.5 210.5v389h-553v-655h-266z" />
    <glyph glyph-name="uni041E" unicode="&#x41e;" horiz-adv-x="1501" 
d="M752 -41q-200 0 -355 95t-238 258t-83 364t83 364t238 258t355 95q150 0 277 -55.5t213 -151.5t134.5 -228t48.5 -282t-48.5 -282t-134.5 -228t-213 -151.5t-277 -55.5zM752 51q186 0 288.5 163t102.5 462t-102.5 461.5t-288.5 162.5t-288 -162.5t-102 -461.5t102 -462
t288 -163z" />
    <glyph glyph-name="uni041F" unicode="&#x41f;" horiz-adv-x="1411" 
d="M195 0v1085q0 51 -5.5 85t-20 63t-44 43t-74.5 14h-20v62h1229v-1352h-267v1260h-532v-1260h-266z" />
    <glyph glyph-name="uni0420" unicode="&#x420;" horiz-adv-x="1181" 
d="M195 0v1085q0 51 -5.5 85t-20 63t-44 43t-74.5 14h-20v62h563q46 0 89 -3t100.5 -13.5t106 -27.5t97.5 -48.5t83 -73.5t55.5 -105.5t21.5 -140.5q0 -73 -21.5 -133t-55 -100t-79.5 -70t-91 -47t-95 -27t-84.5 -13t-65.5 -3h-194v-547h-266zM461 629h123q56 0 102.5 15
t87 49.5t63.5 100t23 156.5q0 90 -23 155.5t-62.5 100t-84 49.5t-96.5 15q-54 0 -133 -15v-626z" />
    <glyph glyph-name="uni0421" unicode="&#x421;" horiz-adv-x="1390" 
d="M752 -41q-158 0 -287 53.5t-213.5 147.5t-130 220.5t-45.5 274.5q0 153 51.5 289.5t141 235t215 156t268.5 57.5q179 0 300.5 -46.5t184.5 -119.5q20 -26 31.5 -58.5t16 -82.5t5 -77.5t0.5 -93.5h-61q-39 188 -143.5 286.5t-272.5 98.5q-451 0 -451 -645
q0 -97 15.5 -183.5t50 -164t85.5 -134t128 -89.5t172 -33q143 0 263.5 76t193.5 217l71 -55q-98 -172 -237 -251t-352 -79z" />
    <glyph glyph-name="uni0422" unicode="&#x422;" horiz-adv-x="1177" 
d="M475 0v1260h-145q-115 0 -175.5 -57.5t-60.5 -188.5h-61v174q0 164 174 164h962v-92h-428v-1260h-266z" />
    <glyph glyph-name="uni0423" unicode="&#x423;" horiz-adv-x="1265" 
d="M291 -20v73q51 0 92 5.5t84 20t76 44t53 72.5l14 30l-420 860q-95 212 -253 226v41h204q113 0 200.5 -62t133.5 -164l283 -577l362 803h133l-524 -1157q-44 -102 -129.5 -158.5t-206.5 -56.5h-102z" />
    <glyph glyph-name="uni0424" unicode="&#x424;" horiz-adv-x="1681" 
d="M709 -82v154q-317 0 -486.5 153.5t-169.5 419.5t169.5 420t486.5 154q0 153 -144 153h-20v62h246q104 0 144 -48t40 -167q317 0 486 -154t169 -420t-169 -419.5t-486 -153.5v-154h-266zM709 164v962q-120 0 -205 -65t-124.5 -172t-39.5 -244t39.5 -244t124.5 -172
t205 -65zM975 164q118 0 203 65t125 172t40 244t-40 244t-125 172t-203 65v-962z" />
    <glyph glyph-name="uni0425" unicode="&#x425;" horiz-adv-x="1325" 
d="M35 0l504 637l-291 448q-55 86 -132.5 152.5t-142.5 73.5v41h226q72 0 140 -36.5t111.5 -83.5t81.5 -106l179 -274l395 500h133l-469 -592l322 -494q55 -86 132 -152t142 -73v-41h-225q-105 0 -189.5 65.5t-144.5 159.5l-207 320l-432 -545h-133z" />
    <glyph glyph-name="uni0426" unicode="&#x426;" horiz-adv-x="1445" 
d="M1300 -379q-16 147 -49 230.5t-81.5 116t-125.5 32.5h-849v1085q0 51 -5.5 85t-20 63t-44 43t-74.5 14h-20v62h245q107 0 146 -57t39 -210v-993h532v1260h267v-1260h71q31 0 51.5 -20.5t20.5 -51.5v-399h-103z" />
    <glyph glyph-name="uni0427" unicode="&#x427;" horiz-adv-x="1357" 
d="M940 0v532q-93 -40 -264 -40q-514 0 -514 450v143q0 51 -5.5 85t-20 63t-44 43t-74.5 14h-20v62h246q107 0 145.5 -57t38.5 -210v-163q0 -164 79.5 -251t207.5 -87q122 0 225 41v727h266v-1352h-266z" />
    <glyph glyph-name="uni0428" unicode="&#x428;" horiz-adv-x="1943" 
d="M195 0v1085q0 51 -5.5 85t-20 63t-44 43t-74.5 14h-20v62h245q107 0 146 -57t39 -210v-993h399v1260h266v-1260h400v1260h266v-1352h-1597z" />
    <glyph glyph-name="uni0429" unicode="&#x429;" horiz-adv-x="1978" 
d="M1833 -379q-16 147 -49 230.5t-81.5 116t-125.5 32.5h-1382v1085q0 51 -5.5 85t-20 63t-44 43t-74.5 14h-20v62h245q107 0 146 -57t39 -210v-993h399v1260h266v-1260h400v1260h266v-1260h72q31 0 51 -20.5t20 -51.5v-399h-102z" />
    <glyph glyph-name="uni042A" unicode="&#x42a;" horiz-adv-x="1478" 
d="M389 0v1260h-22q-117 0 -173 -74t-63 -244h-82v338q0 31 20.5 51.5t51.5 20.5h534v-553h185q94 0 176.5 -10.5t163 -38.5t137.5 -72t92 -115.5t35 -163.5t-35 -163.5t-92 -115t-137.5 -71.5t-162.5 -38.5t-177 -10.5h-451zM809 82q181 0 264.5 80t83.5 237
q0 158 -83.5 238t-264.5 80q-62 0 -154 -21v-594q73 -20 154 -20z" />
    <glyph glyph-name="uni042B" unicode="&#x42b;" horiz-adv-x="1830" 
d="M195 0v1085q0 51 -5.5 85t-20 63t-44 43t-74.5 14h-20v62h245q107 0 146 -57t39 -210v-286h164q94 0 176.5 -10.5t163 -38.5t137.5 -72t92 -115.5t35 -163.5t-35 -163.5t-92 -115t-137.5 -71.5t-162.5 -38.5t-177 -10.5h-430zM1554 0q-107 0 -145.5 55.5t-38.5 210.5
v1086h266v-1086q0 -51 5.5 -85t20 -63t44 -43t74.5 -14h20v-61h-246zM594 82q181 0 264.5 80t83.5 237q0 158 -83.5 238t-264.5 80q-48 0 -133 -21v-594q20 -7 62.5 -13.5t70.5 -6.5z" />
    <glyph glyph-name="uni042C" unicode="&#x42c;" horiz-adv-x="1284" 
d="M195 0v1085q0 51 -5.5 85t-20 63t-44 43t-74.5 14h-20v62h245q107 0 146 -57t39 -210v-286h184q94 0 176.5 -10.5t163 -38.5t137.5 -72t92 -115.5t35 -163.5t-35 -163.5t-92 -115t-137.5 -71.5t-162.5 -38.5t-177 -10.5h-450zM614 82q181 0 265 80t84 237t-84 237.5
t-265 80.5q-62 0 -153 -21v-594q73 -20 153 -20z" />
    <glyph glyph-name="uni042D" unicode="&#x42d;" horiz-adv-x="1392" 
d="M641 -41q-213 0 -352.5 79t-237.5 251l72 55q73 -141 193.5 -217t263.5 -76q92 0 167.5 31.5t126.5 86t86 129.5t51.5 159t18.5 178h-635v92h633q-21 573 -448 573q-168 0 -272.5 -98.5t-143.5 -286.5h-62q0 83 1.5 123.5t14 97.5t38.5 91q63 73 184.5 119.5t300.5 46.5
q143 0 268.5 -57.5t215 -156t141 -235t51.5 -289.5q0 -148 -45.5 -274.5t-130 -220.5t-213.5 -147.5t-287 -53.5z" />
    <glyph glyph-name="uni042E" unicode="&#x42e;" horiz-adv-x="1878" 
d="M1188 -41q-125 0 -237 51t-194.5 140.5t-132 220.5t-51.5 284h-112v-655h-266v1085q0 51 -5.5 85t-20 63t-44 43t-74.5 14h-20v62h245q107 0 146 -57t39 -210v-337h114q25 289 195.5 467t417.5 178q129 0 241.5 -52.5t194.5 -145.5t129 -227.5t47 -291.5t-47 -291.5
t-129 -227.5t-194.5 -145.5t-241.5 -52.5zM1188 51q146 0 238 162t92 463t-92 462.5t-238 161.5q-147 0 -237.5 -161t-90.5 -463t90.5 -463.5t237.5 -161.5z" />
    <glyph glyph-name="uni042F" unicode="&#x42f;" horiz-adv-x="1284" 
d="M158 -33q-37 0 -79.5 6.5t-60.5 14.5v51q122 23 254 225l195 309q-60 13 -116.5 42t-106 73.5t-79.5 111t-30 144.5q0 81 25 146.5t69.5 109t98.5 74.5t119 47.5t123 23.5t118 7h565v-62h-20q-45 0 -74 -14t-43.5 -43t-20 -63t-5.5 -85v-1085h-269v557h-90l-184 -293
q-101 -161 -193.5 -229t-195.5 -68zM698 639h123v616q-87 15 -133 15q-47 0 -93 -20t-85 -57.5t-63.5 -100t-24.5 -138.5q0 -79 24.5 -141t65 -99t88 -56t98.5 -19z" />
    <glyph glyph-name="uni0430" unicode="&#x430;" horiz-adv-x="1015" 
d="M408 -20q-167 0 -258 75t-91 201q0 77 25 131t86 95t170.5 61t271.5 20h31q0 178 -48.5 253t-145.5 75q-79 0 -130.5 -38.5t-74.5 -145.5h-113q0 46 2 74.5t14 66t35 63.5q64 72 307 72q204 0 312 -108t108 -322v-553h-174l-71 92h-11q-31 -47 -95 -79.5t-150 -32.5z
M469 82q61 0 107 41t67 92v256h-31q-146 0 -211 -52.5t-65 -162.5q0 -85 35 -129.5t98 -44.5z" />
    <glyph glyph-name="uni0431" unicode="&#x431;" horiz-adv-x="1116" 
d="M563 -20q-218 0 -344.5 134.5t-126.5 377.5v61q0 153 17.5 268.5t47 190t77 125.5t99 76.5t120.5 41.5l284 66q96 23 142 44.5t53 57.5h61v-163q0 -106 -123 -134l-335 -75q-134 -32 -218.5 -133.5t-91.5 -282.5h11q50 130 138 198t230 68q194 0 312 -116.5t118 -344.5
q0 -231 -124.5 -345.5t-346.5 -114.5zM563 72q34 0 65.5 16.5t62 55t49 114.5t18.5 182q0 102 -18.5 178t-49 115.5t-62 57.5t-65.5 18t-65.5 -18t-61.5 -57.5t-48.5 -115.5t-18.5 -178q0 -106 18 -182t48.5 -114.5t62 -55t65.5 -16.5z" />
    <glyph glyph-name="uni0432" unicode="&#x432;" horiz-adv-x="1073" 
d="M152 0v696q0 51 -5.5 85t-20 63t-44 43t-74.5 14h-10v62h549q190 0 302 -63t112 -183q0 -178 -261 -215q136 -18 218.5 -79t82.5 -157q0 -266 -454 -266h-395zM418 553h71q82 0 138.5 44.5t56.5 119.5q0 80 -52.5 122t-121.5 42q-46 0 -92 -15v-313zM510 82
q96 0 155.5 47.5t59.5 136.5q0 96 -62.5 145.5t-173.5 49.5h-71v-365q43 -14 92 -14z" />
    <glyph glyph-name="uni0433" unicode="&#x433;" horiz-adv-x="901" 
d="M152 0v696q0 51 -5.5 85t-20 63t-44 43t-74.5 14h-10v62h707q153 0 153 -164v-144h-61q0 113 -49.5 164t-145.5 51h-184v-870h-266z" />
    <glyph glyph-name="uni0434" unicode="&#x434;" horiz-adv-x="1193" 
d="M18 -328v348q0 31 20.5 51.5t51.5 20.5h74q123 274 123 625q0 43 -5.5 73t-21 57t-47.5 40.5t-80 13.5v62h911v-871h62q31 0 51.5 -20.5t20.5 -51.5v-348h-103q-11 131 -41.5 204t-74 98.5t-113.5 25.5h-496q-70 0 -113.5 -25.5t-74 -98.5t-41.5 -204h-103zM377 92h401
v778h-289q0 -265 -25.5 -445.5t-86.5 -332.5z" />
    <glyph glyph-name="uni0435" unicode="&#x435;" horiz-adv-x="1042" 
d="M547 -20q-213 0 -342 141t-129 360q0 238 126 370t324 132q193 0 322 -114t129 -296l-8 -129h-617q0 -193 60 -282.5t166 -89.5q97 0 163.5 43.5t128.5 126.5l64 -47q-26 -41 -55 -73.5t-75.5 -67.5t-112 -54.5t-144.5 -19.5zM352 537h348q0 191 -45.5 272.5t-128.5 81.5
q-36 0 -66 -18t-55 -57t-39 -110t-14 -169z" />
    <glyph glyph-name="uni0436" unicode="&#x436;" horiz-adv-x="1515" 
d="M143 -20q-38 0 -80.5 6t-60.5 14v49q97 24 191 156l253 360l-180 242q-76 102 -205 102v54h41q103 0 166.5 -37t128.5 -121l228 -303v461h266v-461l227 303q65 84 128.5 121t166.5 37h41v-54q-129 0 -205 -102l-180 -242l254 -360q94 -132 190 -156v-49q-18 -8 -60.5 -14
t-80.5 -6q-90 0 -163 41.5t-142 142.5l-176 252v-416h-266v416l-176 -252q-69 -100 -142.5 -142t-163.5 -42z" />
    <glyph glyph-name="uni0437" unicode="&#x437;" horiz-adv-x="942" 
d="M440 -20q-251 0 -379 163l62 52q98 -123 256 -123q99 0 157 44.5t58 139.5q0 101 -54.5 148t-191.5 47h-102v92h102q121 0 168 40t47 134q0 87 -53.5 130.5t-130.5 43.5q-93 0 -156 -63t-69 -162h-62q0 73 2 107t13.5 74t35.5 64q72 72 287 72q191 0 300.5 -66.5
t109.5 -199.5q0 -90 -66.5 -148.5t-179.5 -76.5q128 -17 202 -80.5t74 -155.5q0 -276 -430 -276z" />
    <glyph glyph-name="uni0438" unicode="&#x438;" horiz-adv-x="1165" 
d="M162 0v696q0 51 -5.5 85t-20 63t-44 43t-74.5 14h-20v62h246q107 0 145.5 -57t38.5 -210v-440l369 707h245v-963h-266v707l-368 -707h-246z" />
    <glyph glyph-name="uni0439" unicode="&#x439;" horiz-adv-x="1165" 
d="M584 1044q-98 0 -174 52.5t-115 140.5l57 43q82 -102 232 -102q149 0 231 102l57 -43q-39 -88 -114.5 -140.5t-173.5 -52.5zM162 0v696q0 51 -5.5 85t-20 63t-44 43t-74.5 14h-20v62h246q107 0 145.5 -57t38.5 -210v-440l369 707h245v-963h-266v707l-368 -707h-246z" />
    <glyph glyph-name="uni043A" unicode="&#x43a;" horiz-adv-x="1073" 
d="M930 -20q-91 0 -165.5 37.5t-139.5 125.5l-197 258v-401h-266v696q0 51 -5.5 85t-20 63t-44 43t-74.5 14h-20v62h246q107 0 145.5 -57t38.5 -210v-194l248 303q47 56 82.5 87t89 51t123.5 20h41v-54q-121 0 -205 -102l-199 -242l273 -360q101 -134 190 -156v-49
q-18 -8 -60.5 -14t-80.5 -6z" />
    <glyph glyph-name="uni043B" unicode="&#x43b;" horiz-adv-x="1161" 
d="M135 -31q-68 0 -123 19v59q46 8 81.5 27.5t70 65.5t57 117.5t36 188t13.5 271.5q0 90 -31.5 137t-121.5 47v62h921v-963h-266v870h-289v-153q0 -748 -348 -748z" />
    <glyph glyph-name="uni043C" unicode="&#x43c;" horiz-adv-x="1363" 
d="M1360 -51q-219 0 -317.5 97.5t-98.5 301.5v357l-295 -705h-67l-357 725v-723h-102v961h250l303 -617l266 637h268v-635q0 -174 33.5 -254.5t116.5 -93.5v-51z" />
    <glyph glyph-name="uni043D" unicode="&#x43d;" horiz-adv-x="1183" 
d="M162 0v696q0 51 -5.5 85t-20 63t-44 43t-74.5 14h-20v62h246q107 0 145.5 -57t38.5 -210v-164h328v431h266v-697q0 -51 5.5 -85t20 -63t43.5 -43t74 -14h21v-61h-246q-107 0 -145.5 55.5t-38.5 210.5v174h-328v-440h-266z" />
    <glyph glyph-name="uni043E" unicode="&#x43e;" horiz-adv-x="1130" 
d="M565 -20q-149 0 -261.5 67t-171 180t-58.5 254t58.5 254.5t171 180.5t261.5 67t262 -67t171.5 -180.5t58.5 -254.5t-58.5 -254t-171.5 -180t-262 -67zM565 72q104 0 159.5 112.5t55.5 296.5t-55.5 297t-159.5 113t-159.5 -113t-55.5 -297t55.5 -296.5t159.5 -112.5z" />
    <glyph glyph-name="uni043F" unicode="&#x43f;" horiz-adv-x="1134" 
d="M152 0v696q0 51 -5.5 85t-20 63t-44 43t-74.5 14h-10v62h1014v-963h-267v870h-327v-870h-266z" />
    <glyph glyph-name="uni0440" unicode="&#x440;" horiz-adv-x="1161" 
d="M164 -389v1085q0 105 -28 155t-113 50h-21v62h203q71 0 110 -19t62 -67q121 106 278 106q105 0 188 -38.5t135 -107t79.5 -159t27.5 -197.5q0 -144 -47 -255t-148 -178.5t-245 -67.5q-64 0 -123 18t-92 43v-430h-266zM604 72q205 0 205 409q0 91 -11 164t-33.5 129
t-60.5 86.5t-90 30.5q-106 0 -184 -70v-688q27 -24 76 -42.5t98 -18.5z" />
    <glyph glyph-name="uni0441" unicode="&#x441;" horiz-adv-x="1015" 
d="M565 -20q-120 0 -215 40t-154.5 109t-90.5 159t-31 193q0 104 31 193.5t90.5 159t155 109.5t214.5 40q246 0 318 -72q35 -35 43 -92t8 -194h-62q-7 129 -79.5 197.5t-196.5 68.5q-113 0 -179.5 -103.5t-66.5 -306.5q0 -409 256 -409q97 0 164 43.5t129 126.5l64 -47
q-21 -33 -41.5 -58.5t-56 -56.5t-75.5 -51.5t-98.5 -34.5t-126.5 -14z" />
    <glyph glyph-name="uni0442" unicode="&#x442;" horiz-adv-x="956" 
d="M362 0v870h-61q-96 0 -145.5 -51t-49.5 -164h-61v144q0 164 154 164h739v-93h-309v-870h-267z" />
    <glyph glyph-name="uni0443" unicode="&#x443;" horiz-adv-x="1042" 
d="M188 -410v72q112 0 182.5 43.5t112.5 155.5l43 110l-368 807q-67 149 -191 164v41h180q91 0 161 -44t106 -120l235 -516l250 660h109l-414 -1096q-58 -159 -134 -218t-190 -59h-82z" />
    <glyph glyph-name="uni0444" unicode="&#x444;" horiz-adv-x="1441" 
d="M588 -389v369q-242 17 -377 152.5t-135 348.5t135 349t377 153v102q0 51 -5.5 85t-20 63t-44 43t-74.5 14h-20v62h246q107 0 145.5 -57t38.5 -210v-102q242 -17 377 -153t135 -349t-135 -348.5t-377 -152.5v-369h-266zM598 51v860q-103 -19 -174.5 -130t-71.5 -300
t71.5 -300t174.5 -130zM844 51q103 19 174.5 130t71.5 300t-71.5 300t-174.5 130v-860z" />
    <glyph glyph-name="uni0445" unicode="&#x445;" horiz-adv-x="1015" 
d="M47 0l346 428l-196 330q-42 72 -92 114t-99 50v41h195q94 0 154 -41t108 -123l98 -166l268 330h138l-346 -426l198 -332q42 -72 92 -114t99 -50v-41h-195q-94 0 -154 41t-108 123l-100 166l-269 -330h-137z" />
    <glyph glyph-name="uni0446" unicode="&#x446;" horiz-adv-x="1171" 
d="M1063 -328q-11 131 -41.5 204t-74 98.5t-113.5 25.5h-672v696q0 51 -5.5 85t-20 63t-44 43t-74.5 14h-20v62h246q107 0 145.5 -57t38.5 -210v-604h328v871h266v-871h61q31 0 51.5 -20.5t20.5 -51.5v-348h-92z" />
    <glyph glyph-name="uni0447" unicode="&#x447;" horiz-adv-x="1134" 
d="M745 0v365q-84 -37 -184 -37q-83 0 -151.5 17t-123 52.5t-84.5 96t-30 141.5v61q0 51 -5.5 85t-20 63t-43.5 43t-74 14h-21v62h246q107 0 145.5 -57t38.5 -210v-61q0 -215 170 -215q78 0 137 33v510h267v-963h-267z" />
    <glyph glyph-name="uni0448" unicode="&#x448;" horiz-adv-x="1554" 
d="M162 0v696q0 51 -5.5 85t-20 63t-44 43t-74.5 14h-20v62h246q107 0 145.5 -57t38.5 -210v-604h236v871h266v-871h235v871h267v-963h-1270z" />
    <glyph glyph-name="uni0449" unicode="&#x449;" horiz-adv-x="1581" 
d="M1473 -328q-11 131 -41.5 204t-74.5 98.5t-114 25.5h-1081v696q0 51 -5.5 85t-20 63t-44 43t-74.5 14h-20v62h246q107 0 145.5 -57t38.5 -210v-604h236v871h266v-871h235v871h267v-871h61q31 0 51.5 -20.5t20.5 -51.5v-348h-92z" />
    <glyph glyph-name="uni044A" unicode="&#x44a;" horiz-adv-x="1224" 
d="M344 0v870h-16q-95 0 -138 -69.5t-51 -206.5h-82v297q0 31 20.5 51.5t51.5 20.5h481v-390h154q195 0 307.5 -74.5t112.5 -211.5q0 -138 -112.5 -212.5t-307.5 -74.5h-420zM702 82q205 0 205 205t-205 205q-46 0 -92 -15v-381q43 -14 92 -14z" />
    <glyph glyph-name="uni044B" unicode="&#x44b;" horiz-adv-x="1511" 
d="M162 0v696q0 51 -5.5 85t-20 63t-44 43t-74.5 14h-20v62h246q107 0 145.5 -57t38.5 -210v-123h133q195 0 307.5 -74.5t112.5 -211.5q0 -138 -112.5 -212.5t-307.5 -74.5h-399zM1268 0q-107 0 -146 55.5t-39 210.5v697h267v-697q0 -51 5.5 -85t20 -63t43.5 -43t74 -14h20
v-61h-245zM520 82q79 0 132 48.5t53 156.5t-53 156.5t-132 48.5q-46 0 -92 -15v-381q43 -14 92 -14z" />
    <glyph glyph-name="uni044C" unicode="&#x44c;" horiz-adv-x="1042" 
d="M162 0v696q0 51 -5.5 85t-20 63t-44 43t-74.5 14h-20v62h246q107 0 145.5 -57t38.5 -210v-123h154q195 0 307 -74.5t112 -211.5q0 -138 -112 -212.5t-307 -74.5h-420zM520 82q205 0 205 205t-205 205q-46 0 -92 -15v-381q43 -14 92 -14z" />
    <glyph glyph-name="uni044D" unicode="&#x44d;" horiz-adv-x="1026" 
d="M461 -20q-68 0 -126.5 14t-98.5 34.5t-75.5 51.5t-56 56.5t-41.5 58.5l64 47q42 -54 76.5 -87t91 -58t125.5 -25q239 0 254 358h-387v92h387q-7 181 -72.5 275t-171.5 94q-124 0 -196.5 -68.5t-79.5 -197.5h-62q0 95 2 136.5t13 83t36 66.5q72 72 318 72q119 0 214.5 -40
t155 -109.5t90.5 -159t31 -193.5q0 -103 -31 -193t-90.5 -159t-154.5 -109t-215 -40z" />
    <glyph glyph-name="uni044E" unicode="&#x44e;" horiz-adv-x="1505" 
d="M971 -20q-194 0 -321.5 130.5t-139.5 329.5h-82v-440h-266v696q0 51 -5.5 85t-20 63t-44 43t-74.5 14h-20v62h246q107 0 145.5 -57t38.5 -210v-164h84q18 196 142.5 323.5t316.5 127.5q136 0 242 -67t162.5 -181t56.5 -254t-56.5 -254t-162.5 -180.5t-242 -66.5zM971 72
q89 0 136.5 112.5t47.5 296.5t-47.5 297t-136.5 113t-137 -113t-48 -297t48 -296.5t137 -112.5z" />
    <glyph glyph-name="uni044F" unicode="&#x44f;" horiz-adv-x="1081" 
d="M164 -31q-68 0 -133 21v53q93 13 174 152l123 213q-108 17 -172 87.5t-64 170.5q0 154 120.5 225.5t330.5 71.5h532v-62h-10q-45 0 -74 -14t-43.5 -43t-20 -63t-5.5 -85v-696h-267v397h-90l-123 -243q-46 -96 -109 -140.5t-169 -44.5zM563 481q22 0 45.5 4.5t35.5 7.5
l11 3v370l-11 3q-12 3 -35.5 7.5t-45.5 4.5q-85 0 -139.5 -46.5t-54.5 -148.5q0 -103 55 -154t139 -51z" />
    <glyph glyph-name="uni0451" unicode="&#x451;" horiz-adv-x="1042" 
d="M332 1096q-53 0 -84 32.5t-31 81.5t31.5 82t83.5 33t83 -33t31 -82t-31 -81.5t-83 -32.5zM700 1096q-52 0 -83 32.5t-31 81.5t31 82t83 33t83.5 -33t31.5 -82t-31 -81.5t-84 -32.5zM547 -20q-213 0 -342 141t-129 360q0 238 126 370t324 132q193 0 322 -114t129 -296
l-8 -129h-617q0 -193 60 -282.5t166 -89.5q97 0 163.5 43.5t128.5 126.5l64 -47q-26 -41 -55 -73.5t-75.5 -67.5t-112 -54.5t-144.5 -19.5zM352 537h348q0 191 -45.5 272.5t-128.5 81.5q-36 0 -66 -18t-55 -57t-39 -110t-14 -169z" />
    <glyph glyph-name="uni0452" unicode="&#x452;" horiz-adv-x="1118" 
d="M567 -287v51q88 18 129 99.5t41 249.5v399q0 266 -164 266q-46 0 -95.5 -27t-88.5 -71v-680h-266v1014h-143v92h143v123l102 123h164v-246h205v-92h-205v-236q48 48 113 75.5t133 27.5q79 0 141 -16.5t115.5 -56t83 -114.5t29.5 -182v-399q0 -202 -107.5 -301t-329.5 -99
z" />
    <glyph glyph-name="uni0453" unicode="&#x453;" horiz-adv-x="901" 
d="M414 1044l86 287h243l-217 -287h-112zM152 0v696q0 51 -5.5 85t-20 63t-44 43t-74.5 14h-10v62h707q153 0 153 -164v-144h-61q0 113 -49.5 164t-145.5 51h-184v-870h-266z" />
    <glyph glyph-name="uni0454" unicode="&#x454;" horiz-adv-x="1026" 
d="M565 -20q-120 0 -215 40t-154.5 109t-90.5 159t-31 193q0 104 31 193.5t90.5 159t155 109.5t214.5 40q246 0 318 -72q35 -35 43 -92t8 -194h-62q-7 129 -79.5 197.5t-196.5 68.5q-106 0 -171.5 -94t-72.5 -275h387v-92h-387q15 -358 254 -358q97 0 164 43.5t129 126.5
l64 -47q-21 -33 -41.5 -58.5t-56 -56.5t-75.5 -51.5t-98.5 -34.5t-126.5 -14z" />
    <glyph glyph-name="uni0455" unicode="&#x455;" horiz-adv-x="958" 
d="M469 -20q-240 0 -330 83q-23 22 -34.5 64.5t-13 77t-1.5 102.5h72q19 -106 84.5 -170.5t181.5 -64.5q205 0 205 139q0 54 -44 88.5t-140 77.5l-107 45q-130 57 -196 125.5t-66 163.5q0 130 107.5 201t281.5 71q239 0 330 -84q23 -22 34.5 -64.5t13 -77t1.5 -102.5h-72
q-19 106 -84.5 171t-181.5 65q-88 0 -131 -37.5t-43 -101.5q0 -52 35.5 -86t109.5 -66l123 -51q151 -64 218 -129t67 -168q0 -130 -115.5 -201t-304.5 -71z" />
    <glyph glyph-name="uni0456" unicode="&#x456;" horiz-adv-x="546" 
d="M295 1073q-74 0 -114 45t-40 111q0 53 32 83.5t81 30.5q74 0 114 -44.5t40 -110.5q0 -53 -32 -84t-81 -31zM162 0v696q0 51 -5.5 85t-20 63t-44 43t-74.5 14h-20v62h246q107 0 145.5 -57t38.5 -210v-696h-266z" />
    <glyph glyph-name="uni0457" unicode="&#x457;" horiz-adv-x="546" 
d="M111 1094q-74 0 -114 44.5t-40 110.5q0 53 32 84t81 31q74 0 113.5 -45t39.5 -111q0 -53 -31.5 -83.5t-80.5 -30.5zM489 1094q-74 0 -113.5 44.5t-39.5 110.5q0 53 32 84t81 31q74 0 113.5 -45t39.5 -111q0 -53 -32 -83.5t-81 -30.5zM162 0v696q0 51 -5.5 85t-20 63
t-44 43t-74.5 14h-20v62h246q107 0 145.5 -57t38.5 -210v-696h-266z" />
    <glyph glyph-name="uni0458" unicode="&#x458;" horiz-adv-x="546" 
d="M295 1073q-74 0 -114 45t-40 111q0 53 32 83.5t81 30.5q74 0 114 -44.5t40 -110.5q0 -53 -32 -84t-81 -31zM-18 -389v51q64 12 102 49.5t58 119.5t20 220v645q0 51 -5.5 85t-20 63t-44 43t-74.5 14h-20v62h246q107 0 145.5 -57t38.5 -210v-645q0 -129 -22 -211.5
t-75.5 -134.5t-136.5 -73t-212 -21z" />
    <glyph glyph-name="uni0459" unicode="&#x459;" horiz-adv-x="1628" 
d="M135 -31q-68 0 -123 19v59q46 8 81.5 27.5t70 65.5t57 117.5t36 188t13.5 271.5q0 90 -31.5 137t-121.5 47v62h897v-390h153q195 0 307.5 -74.5t112.5 -211.5q0 -138 -112.5 -212.5t-307.5 -74.5h-419v870h-265v-153q0 -748 -348 -748zM1106 82q205 0 205 205t-205 205
q-46 0 -92 -15v-381q43 -14 92 -14z" />
    <glyph glyph-name="uni045A" unicode="&#x45a;" horiz-adv-x="1613" 
d="M162 0v696q0 51 -5.5 85t-20 63t-44 43t-74.5 14h-20v62h246q107 0 145.5 -57t38.5 -210v-143h307v410h266v-410h154q193 0 306.5 -73.5t113.5 -203.5q0 -129 -113 -202.5t-307 -73.5h-420v461h-307v-461h-266zM1094 82q93 0 148.5 46t55.5 148t-56 148.5t-148 46.5
q-50 0 -93 -14v-361q43 -14 93 -14z" />
    <glyph glyph-name="uni045B" unicode="&#x45b;" horiz-adv-x="1118" 
d="M123 0v1014h-143v92h143v123l102 123h164v-246h205v-92h-205v-236q48 48 113 75.5t133 27.5q79 0 141 -16.5t115.5 -56t83 -114.5t29.5 -182v-512h-267v512q0 266 -164 266q-46 0 -95.5 -27t-88.5 -71v-680h-266z" />
    <glyph glyph-name="uni045C" unicode="&#x45c;" horiz-adv-x="1073" 
d="M469 991l86 287h244l-217 -287h-113zM930 -20q-91 0 -165.5 37.5t-139.5 125.5l-197 258v-401h-266v696q0 51 -5.5 85t-20 63t-44 43t-74.5 14h-20v62h246q107 0 145.5 -57t38.5 -210v-194l248 303q47 56 82.5 87t89 51t123.5 20h41v-54q-121 0 -205 -102l-199 -242
l273 -360q101 -134 190 -156v-49q-18 -8 -60.5 -14t-80.5 -6z" />
    <glyph glyph-name="uni045E" unicode="&#x45e;" horiz-adv-x="1042" 
d="M602 1014q-98 0 -174 52t-115 140l58 43q82 -102 231 -102q150 0 232 102l57 -43q-39 -88 -115 -140t-174 -52zM188 -410v72q112 0 182.5 43.5t112.5 155.5l43 110l-368 807q-67 149 -191 164v41h180q91 0 161 -44t106 -120l235 -516l250 660h109l-414 -1096
q-58 -159 -134 -218t-190 -59h-82z" />
    <glyph glyph-name="uni045F" unicode="&#x45f;" horiz-adv-x="1144" 
d="M530 -307l-30 307h-338v696q0 51 -5.5 85t-20 63t-44 43t-74.5 14h-20v62h246q107 0 145.5 -57t38.5 -210v-604h328v871h266v-963h-338l-31 -307h-123z" />
    <glyph glyph-name="uni0490" unicode="&#x490;" horiz-adv-x="1101" 
d="M195 0v1085q0 51 -5.5 85t-20 63t-44 43t-74.5 14h-20v62h735q127 0 191.5 57.5t64.5 187.5h61v-174q0 -163 -174 -163h-448v-1260h-266z" />
    <glyph glyph-name="uni0491" unicode="&#x491;" horiz-adv-x="886" 
d="M152 0v696q0 51 -5.5 85t-20 63t-44 43t-74.5 14h-10v62h604q96 0 145.5 51t49.5 164h61v-144q0 -164 -153 -164h-287v-870h-266z" />
    <glyph glyph-name="uni060C" unicode="&#x60c;" horiz-adv-x="477" 
d="M238 -31q-64 0 -100 47t-36 113q0 120 54.5 212.5t181.5 176.5l37 -49q-67 -44 -117.5 -109t-50.5 -147l31 6q59 0 91.5 -34t32.5 -91t-32.5 -91t-91.5 -34z" />
    <glyph glyph-name="uni0615" unicode="&#x615;" 
d="M-209 983q-19 0 -19 47t19 47h21v258q0 18 -8 29.5t-17 13.5q-2 14 8.5 25.5t34.5 11.5q31 0 42 -20t11 -56v-180q72 109 189 109q28 0 53.5 -7t51 -22.5t41 -46.5t15.5 -74q0 -71 -39 -103t-92 -32h-311zM-111 1077h187q24 0 34.5 17.5t10.5 38.5q0 30 -23 48.5
t-57 18.5q-55 0 -103.5 -42.5t-48.5 -80.5z" />
    <glyph glyph-name="uni061B" unicode="&#x61b;" horiz-adv-x="505" 
d="M352 1233l37 -49q-67 -44 -117.5 -109t-50.5 -147q24 6 31 6q59 0 92 -34t33 -91t-33 -91t-92 -34q-64 0 -99.5 47t-35.5 113q0 120 54 212.5t181 176.5zM252 -39q-59 0 -92 34t-33 91t33 91t92 34t92 -34t33 -91t-33 -91t-92 -34z" />
    <glyph glyph-name="uni061F" unicode="&#x61f;" horiz-adv-x="935" 
d="M483 344q-5 0 -7.5 2t-4.5 9t-3.5 15.5t-6 26t-10.5 35.5q-32 102 -94.5 225.5t-116.5 212t-96 178.5t-42 144q0 30 9.5 66t36 81t66 81t108 60.5t153.5 24.5q82 0 148 -22.5t104 -55.5t63.5 -73.5t34.5 -73.5t9 -59q0 -17 -5 -36t-18.5 -44.5t-46 -41.5t-80.5 -16
q-32 0 -61 7.5t-40.5 13.5t-15.5 10v84q0 51 -31 81t-65 30q-38 0 -70 -38.5t-32 -101.5q0 -44 19.5 -89t47 -89t55 -94t47 -124.5t19.5 -160.5q0 -95 -19.5 -181.5t-54.5 -86.5zM494 -25q-63 0 -107.5 44t-44.5 104q0 61 45 104t107 43q60 0 103.5 -43t43.5 -104
q0 -60 -43 -104t-104 -44z" />
    <glyph glyph-name="uni0621" unicode="&#x621;" horiz-adv-x="983" 
d="M799 272q32 0 52.5 -20.5t25.5 -50t1 -59.5t-22 -51.5t-43 -22.5q-59 0 -343.5 -35t-322.5 -64q-29 27 -39 66t1.5 76t60 63.5t127.5 26.5q-59 30 -105.5 95t-46.5 153q0 47 14 95t45 95t76 84t112.5 59.5t148.5 22.5q115 0 182.5 -46.5t67.5 -142.5q0 -50 -20.5 -80.5
t-53.5 -38.5t-69 -4t-73 19q2 34 -5 64t-29.5 54t-59.5 25q-28 -28 -50.5 -76t-22.5 -98q0 -88 68.5 -157.5t176.5 -69.5q32 0 81.5 9t64.5 9z" />
    <glyph glyph-name="uni0622" unicode="&#x622;" horiz-adv-x="565" 
d="M385 1311q-54 0 -108.5 21t-103 42t-87.5 21q-32 0 -58 -15.5t-38 -15.5q-31 0 -31 35q0 45 46 87q54 50 134 50q59 0 162 -38t143 -38q35 0 63.5 19.5t37.5 19.5q25 0 28 -35q4 -50 -39 -96q-54 -57 -149 -57zM330 0q-69 0 -101 40.5t-32 98.5v787q0 35 -6 62
t-13.5 42.5t-20 28t-20 17t-20.5 10t-15 6.5q0 38 42 86.5t122 48.5q88 0 142.5 -69.5t54.5 -176.5v-846q0 -55 -32 -95t-101 -40z" />
    <glyph glyph-name="uni0623" unicode="&#x623;" horiz-adv-x="565" 
d="M106 1292q-35 7 -50 42.5t10.5 68.5t93.5 33q-32 14 -58 50.5t-26 84.5q0 74 56 136t163 62q63 0 100 -25.5t37 -78.5q0 -36 -20 -53t-45.5 -16t-53.5 12q2 30 -11 54t-42 24q-39 -44 -39 -95q0 -49 37.5 -88t97.5 -39q18 0 45.5 5.5t34.5 5.5q28 0 39.5 -28t1.5 -56
t-33 -29q-19 0 -66 -3t-112 -10t-112.5 -22t-47.5 -35zM330 0q-69 0 -101 40.5t-32 98.5v787q0 35 -6 62t-13.5 42.5t-20 28t-20 17t-20.5 10t-15 6.5q0 38 42 86.5t122 48.5q88 0 142.5 -69.5t54.5 -176.5v-846q0 -55 -32 -95t-101 -40z" />
    <glyph glyph-name="uni0624" unicode="&#x624;" horiz-adv-x="1110" 
d="M395 1098q-35 7 -50 42t10.5 68t93.5 33q-32 14 -58 50.5t-26 84.5q0 33 13 66.5t38 64t68.5 49.5t99.5 19q63 0 100 -26t37 -79q0 -36 -20 -53t-45.5 -16t-53.5 12q2 30 -11 54t-42 24q-39 -44 -39 -94q0 -49 37.5 -88t97.5 -39q18 0 45.5 5t34.5 5q28 0 39.5 -28
t1.5 -56t-33 -29q-19 0 -65.5 -3t-112 -10t-113 -21.5t-47.5 -34.5zM590 983q85 0 142.5 -11.5t107 -43.5t78 -89t44 -147t15.5 -219v-571q0 -29 -3.5 -59t-13.5 -67.5t-26 -70.5t-44 -66t-65 -56t-91.5 -37.5t-119.5 -14.5q-87 0 -150 26t-94 68t-42 88t-4 94
q39 -31 101 -55t124 -24q41 0 75.5 10.5t60.5 40t26 74.5v147l-191 -4q-387 0 -387 487q0 95 15 171t39.5 127.5t62 89.5t75 59t86.5 33.5t89.5 16t89.5 3.5zM399 496q0 -54 4.5 -96.5t16 -87.5t38.5 -70t66 -25h187v428q0 64 -44 92.5t-104 28.5q-93 0 -128.5 -67.5
t-35.5 -202.5z" />
    <glyph glyph-name="uni0625" unicode="&#x625;" horiz-adv-x="565" 
d="M330 0q-69 0 -101 40.5t-32 98.5v912q0 35 -6 62t-13.5 42.5t-20 28t-20 17t-20.5 10t-15 6.5q0 38 42 86.5t122 48.5q88 0 142.5 -69.5t54.5 -176.5v-971q0 -55 -32 -95t-101 -40zM168 -580q-35 7 -50.5 42.5t10 68.5t93.5 33q-32 14 -58 50.5t-26 84.5q0 74 56.5 136.5
t164.5 62.5q63 0 100.5 -26t37.5 -79q0 -36 -20 -53t-45.5 -16t-53.5 12q2 30 -11 54t-42 24q-41 -41 -41 -95q0 -49 38.5 -88t98.5 -39q18 0 45.5 5.5t34.5 5.5q28 0 39.5 -28t1.5 -56t-33 -29q-19 0 -66 -3t-112.5 -10t-113.5 -22t-48 -35z" />
    </font>
</defs>
</svg>
