<?xml version="1.0" standalone="no"?>
<!DOCTYPE svg PUBLIC "-//W3C//DTD SVG 1.1//EN" "http://www.w3.org/Graphics/SVG/1.1/DTD/svg11.dtd" >
<svg xmlns="http://www.w3.org/2000/svg" xmlns:xlink="http://www.w3.org/1999/xlink" version="1.1">
<metadata>
Created by FontForge 20201107 at Fri Jan 10 15:39:13 2020
 By 
(c) 2000-2020 JetBrains s.r.o. Developed with drive and IntelliJ IDEA.
</metadata>
<defs>
<font id="JetBrainsMono-ExtraBold" horiz-adv-x="600" >
  <font-face 
    font-family="JetBrains Mono ExtraBold"
    font-weight="800"
    font-stretch="normal"
    units-per-em="1000"
    panose-1="0 0 0 0 0 0 0 0 0 0"
    ascent="800"
    descent="-200"
    x-height="550"
    cap-height="720"
    bbox="-1750 -245 1165 985"
    underline-thickness="45"
    underline-position="-141"
    unicode-range="U+000A-FB02"
  />
<missing-glyph 
d="M90 0v720h420v-720h-420zM160 50h300v561zM440 670h-300v-561z" />
    <glyph glyph-name=".notdef" 
d="M90 0v720h420v-720h-420zM160 50h300v561zM440 670h-300v-561z" />
    <glyph glyph-name="uni0000" horiz-adv-x="0" 
 />
    <glyph glyph-name="uni0000" horiz-adv-x="0" 
 />
    <glyph glyph-name="uni000D" unicode="&#xd;" 
 />
    <glyph glyph-name="uni000A" unicode="&#xa;" 
 />
    <glyph glyph-name="space" unicode=" " 
 />
    <glyph glyph-name="exclam" unicode="!" 
d="M221 720h158v-150l-23 -325h-112l-23 325v150zM285 135h30q34 0 54.5 -19t20.5 -51t-20.5 -51t-55.5 -19h-29q-34 0 -54.5 19t-20.5 51t20.5 51t54.5 19z" />
    <glyph glyph-name="quotedbl" unicode="&#x22;" 
d="M342 730h148v-160l-13 -140h-121l-14 140v160zM110 570v160h148v-160l-13 -140h-121z" />
    <glyph glyph-name="numbersign" unicode="#" 
d="M435 170l-30 -170h-105l30 170h-125l-30 -170h-105l30 170h-80v100h97l31 180h-94v100h111l30 170h105l-30 -170h125l30 170h105l-30 -170h80v-100h-97l-31 -180h93v-100h-110zM347 270l31 180h-125l-31 -180h125z" />
    <glyph glyph-name="dollar" unicode="$" 
d="M45 195h150q8 -75 108 -75q50 0 76 21.5t26 57.5q0 32 -20.5 55t-56.5 31l-76 17q-98 22 -148.5 78.5t-50.5 144.5q0 73 42.5 124.5t117.5 71.5l-1 19v80h150v-80l-1 -14q81 -14 128.5 -65t53.5 -130h-150q-4 33 -29.5 51.5t-67.5 18.5q-44 0 -68.5 -21t-24.5 -53
q0 -28 19 -48.5t55 -28.5l80 -18q97 -22 147.5 -79.5t50.5 -146.5q0 -81 -49.5 -136.5t-135.5 -72.5l2 -27v-80h-150v80l2 28q-80 17 -127 68.5t-52 128.5z" />
    <glyph glyph-name="percent" unicode="%" 
d="M570 565v-85l-540 -324v85zM180 642q-21 0 -33.5 -13t-12.5 -34v-60q0 -21 12.5 -34t33.5 -13t33.5 13t12.5 34v60q0 21 -12.5 34t-33.5 13zM180 405q-66 0 -105.5 35.5t-39.5 94.5v60q0 59 39.5 94.5t105.5 35.5t105.5 -35.5t39.5 -94.5v-60q0 -59 -39.5 -94.5
t-105.5 -35.5zM420 232q-21 0 -33.5 -13t-12.5 -34v-60q0 -21 12.5 -34t33.5 -13t33.5 13t12.5 34v60q0 21 -12.5 34t-33.5 13zM420 -5q-66 0 -105.5 35.5t-39.5 94.5v60q0 59 39.5 94.5t105.5 35.5t105.5 -35.5t39.5 -94.5v-60q0 -59 -39.5 -94.5t-105.5 -35.5z" />
    <glyph glyph-name="ampersand" unicode="&#x26;" 
d="M34 260q0 65 26.5 108t75.5 61q-19 33 -27.5 62.5t-8.5 59.5q0 40 14.5 73t40.5 56.5t63 36.5t82 13q46 0 84 -13.5t65 -38.5t41.5 -60t14.5 -78h-135q0 32 -19 51t-51 19t-51 -19t-19 -51q0 -21 10 -44t36 -60l115 -165l43 89h140l-102 -205l108 -155h-143l-36 51
q-69 -61 -166 -61t-149 54t-52 151v65zM202 332q-28 -20 -28 -72v-65q0 -42 20.5 -63.5t54.5 -21.5q27 0 47 11.5t34 29.5z" />
    <glyph glyph-name="quotesingle" unicode="'" 
d="M226 730h148v-160l-13 -140h-121l-14 140v160z" />
    <glyph glyph-name="parenleft" unicode="(" 
d="M155 455q0 71 22.5 133t65 112t103.5 87t139 58v-150q-85 -21 -132.5 -84t-47.5 -156v-191q0 -45 12.5 -84t35.5 -69.5t56.5 -52t75.5 -31.5v-152q-160 43 -245 143t-85 246v191z" />
    <glyph glyph-name="parenright" unicode=")" 
d="M115 27q42 10 75.5 31.5t56.5 52t35.5 69.5t12.5 84v191q0 93 -47.5 156t-132.5 84v150q78 -21 139 -58t103.5 -87t65 -112t22.5 -133v-191q0 -146 -85 -246t-245 -143v152z" />
    <glyph glyph-name="asterisk" unicode="*" 
d="M27 367l44 122l52 -19q20 -7 41 -19.5t41 -26.5t37.5 -28t30.5 -25l5 4q-6 15 -13 37t-14 46.5t-11.5 49.5t-4.5 47v55h130v-55q0 -22 -4.5 -47t-11.5 -49.5t-14 -46.5t-13 -37l4 -3q13 11 30.5 25t37.5 28t41.5 26t40.5 19l52 19l45 -122l-52 -19q-19 -7 -43 -11.5
t-48 -6.5t-46.5 -3t-39.5 -1l-2 -4q14 -9 32 -22.5t37 -29.5t37 -33.5t30 -34.5l31 -46l-106 -74l-32 45q-12 18 -23 41t-19.5 47t-15 46t-10.5 38h-6q-4 -16 -10.5 -38t-15 -46t-19.5 -47t-23 -41l-32 -45l-106 74l31 45q12 18 30 35.5t37 33.5t37.5 29.5t31.5 22.5l-2 4
q-17 0 -39.5 1t-47 3t-48 6.5t-43.5 11.5z" />
    <glyph glyph-name="plus" unicode="+" 
d="M55 260v140h170v170h150v-170h170v-140h-170v-170h-150v170h-170z" />
    <glyph glyph-name="comma" unicode="," 
d="M400 151l-130 -311h-130l80 311h180z" />
    <glyph glyph-name="hyphen" unicode="-" 
d="M100 400h400v-140h-400v140z" />
    <glyph glyph-name="period" unicode="." 
d="M195 94q0 48 28.5 77t76.5 29t76.5 -29t28.5 -77q0 -47 -28.5 -75.5t-76.5 -28.5t-76.5 28.5t-28.5 75.5z" />
    <glyph glyph-name="slash" unicode="/" 
d="M395 830h155l-345 -940h-155z" />
    <glyph glyph-name="zero" unicode="0" 
d="M198 215q0 -43 27.5 -68.5t74.5 -25.5t74.5 25.5t27.5 68.5v291q0 43 -27.5 68.5t-74.5 25.5t-74.5 -25.5t-27.5 -68.5v-291zM48 506q0 51 18 92t51 70.5t79.5 45.5t103.5 16t103.5 -16t79.5 -45.5t51 -70.5t18 -92v-291q0 -50 -18.5 -91.5t-51.5 -71t-79.5 -46
t-102.5 -16.5q-57 0 -103.5 16t-79.5 45.5t-51 71t-18 92.5v291zM255 395q0 23 12.5 36.5t32.5 13.5t32.5 -13.5t12.5 -36.5v-80q0 -23 -12.5 -36.5t-32.5 -13.5t-32.5 13.5t-12.5 36.5v80z" />
    <glyph glyph-name="one" unicode="1" 
d="M70 130h193v377q0 43 3 62q1 12 2 20h-3q-4 -5 -11 -11q-5 -5 -13.5 -12t-20.5 -15l-141 -91v145l169 115h165v-590h152v-130h-495v130z" />
    <glyph glyph-name="two" unicode="2" 
d="M546 511q0 -71 -36.5 -131t-119.5 -126l-92 -73q-31 -24 -57 -35q-13 -6 -25 -10v-4q13 1 29 2q14 0 32 0.5t38 0.5h241v-135h-506v155l257 204q46 36 67.5 70.5t21.5 72.5q0 45 -26 71t-71 26q-47 0 -75.5 -24.5t-28.5 -64.5h-150q0 50 18.5 90.5t52 69t81 44.5
t105.5 16q54 0 99 -16t77.5 -44.5t50 -69t17.5 -89.5z" />
    <glyph glyph-name="three" unicode="3" 
d="M340 446q50 -4 90 -22t67.5 -47t42.5 -69t15 -88q0 -52 -18.5 -94.5t-52 -72.5t-80.5 -46.5t-104 -16.5q-55 0 -100 13.5t-78.5 39t-53 61.5t-23.5 81h150q5 -32 34 -51t71 -19q48 0 76.5 28.5t28.5 76.5t-30 76.5t-80 28.5h-90v135l96 84q13 11 27 21t25 17q14 9 27 16
v10q-15 -4 -33 -6q-15 -3 -35.5 -5t-43.5 -2h-188v125h445v-135l-129 -104q-19 -15 -38 -25q-9 -6 -18 -10z" />
    <glyph glyph-name="four" unicode="4" 
d="M334 720h170l-314 -419v-37h190v146h150v-410h-150v134h-330v209z" />
    <glyph glyph-name="five" unicode="5" 
d="M357 464q45 0 82.5 -15t64 -43t41.5 -67.5t15 -88.5v-35q0 -52 -18 -93.5t-51.5 -70.5t-81 -45t-105.5 -16q-52 0 -96 13t-77 37t-54 58.5t-27 76.5h150q9 -27 37.5 -43.5t66.5 -16.5q48 0 77 27.5t29 72.5v35q0 45 -29 72.5t-77 27.5q-30 0 -53 -8t-35 -22h-145l5 400
h457v-130h-315l-4 -201h4q9 21 27 38q15 14 42 25.5t70 11.5z" />
    <glyph glyph-name="six" unicode="6" 
d="M300 -10q-60 0 -108 17.5t-81.5 49.5t-52 77t-18.5 101q0 69 29 138.5t85 153.5l130 193h167l-165 -241q-27 -40 -42.5 -62.5t-23.5 -34.5q-9 -13 -11 -17h6q15 23 35 41q18 15 45 27.5t62 12.5q45 0 82.5 -16t64.5 -44.5t41.5 -69t14.5 -90.5q0 -53 -18.5 -96.5
t-52.5 -74.5t-82 -48t-107 -17zM190 225q0 -51 29.5 -80.5t80.5 -29.5t80.5 29.5t29.5 80.5t-29.5 80.5t-80.5 29.5q-50 0 -80 -30t-30 -80z" />
    <glyph glyph-name="seven" unicode="7" 
d="M190 580v-106h-135v246h495v-150l-256 -570h-162l235 512q7 14 14 26t12 21q7 11 14 20v3q-14 -1 -28 -1q-12 0 -25 -0.5t-23 -0.5h-141z" />
    <glyph glyph-name="eight" unicode="8" 
d="M300 320q-51 0 -80.5 -28.5t-29.5 -76.5q0 -46 29.5 -75.5t80.5 -29.5t81 29.5t30 75.5q0 48 -30 76.5t-81 28.5zM300 620q-48 0 -76.5 -24.5t-28.5 -64.5q0 -43 28.5 -72t76.5 -29q47 0 75.5 28.5t28.5 72.5q0 40 -28.5 64.5t-75.5 24.5zM300 730q57 0 102 -13t77 -38
t49 -60.5t17 -79.5q0 -32 -10.5 -60t-29.5 -49t-46 -35t-60 -17v-4q73 -12 117 -58.5t44 -115.5q0 -48 -18.5 -87t-52.5 -66t-82 -42t-107 -15q-60 0 -108 15t-81.5 43t-52 66.5t-18.5 85.5q0 69 44 115.5t117 58.5v4q-33 3 -60 17t-46 35t-29.5 49t-10.5 60q0 44 17 79.5
t49 60.5t77 38t102 13z" />
    <glyph glyph-name="nine" unicode="9" 
d="M300 730q60 0 108 -17.5t81.5 -49.5t52 -77t18.5 -101q0 -69 -29 -138.5t-85 -153.5l-130 -193h-167l165 241q28 40 43 63t23 34q9 13 11 17h-6q-15 -23 -35 -40q-18 -16 -44.5 -28.5t-62.5 -12.5q-45 0 -82.5 16t-64.5 44.5t-41.5 69.5t-14.5 90q0 53 18.5 96.5
t52.5 74.5t82 48t107 17zM190 495q0 -51 29.5 -80.5t80.5 -29.5q50 0 80 30t30 80q0 51 -29.5 80.5t-80.5 29.5t-80.5 -29.5t-29.5 -80.5z" />
    <glyph glyph-name="colon" unicode=":" 
d="M200 85q0 45 27.5 73t72.5 28t72.5 -28t27.5 -73q0 -42 -27.5 -68.5t-72.5 -26.5t-72.5 26.5t-27.5 68.5zM200 459q0 45 27.5 73t72.5 28t72.5 -28t27.5 -73q0 -42 -27.5 -68.5t-72.5 -26.5t-72.5 26.5t-27.5 68.5z" />
    <glyph glyph-name="semicolon" unicode=";" 
d="M400 151l-130 -311h-130l80 311h180zM195 454q0 48 28.5 77t76.5 29t76.5 -29t28.5 -77q0 -47 -28.5 -75.5t-76.5 -28.5t-76.5 28.5t-28.5 75.5z" />
    <glyph glyph-name="less" unicode="&#x3c;" 
d="M70 401l460 199v-136l-276 -112q-14 -6 -30 -9t-30 -4q-16 -2 -31 -2v-10q15 -1 31 -3q14 -2 30 -5.5t30 -9.5l276 -112v-137l-460 198v143z" />
    <glyph glyph-name="equal" unicode="=" 
d="M80 275h440v-140h-440v140zM80 385v140h440v-140h-440z" />
    <glyph glyph-name="greater" unicode="&#x3e;" 
d="M70 195l276 112q15 6 30.5 9t29.5 5q16 1 31 1v10q-15 1 -31 3q-14 2 -30 6t-30 9l-276 112v137l460 -198v-143l-460 -199v136z" />
    <glyph glyph-name="question" unicode="?" 
d="M229 135h30q34 0 54.5 -19t20.5 -51t-20.5 -51t-55.5 -19h-29q-34 0 -54.5 19t-20.5 51t20.5 51t54.5 19zM520 510q0 -46 -15 -84t-42.5 -65t-66 -41.5t-85.5 -14.5v-80h-125l-5 215h100q42 0 65.5 18.5t23.5 51.5t-24 51.5t-66 18.5h-165v140h155q56 0 102 -15t79 -42.5
t51 -66.5t18 -86z" />
    <glyph glyph-name="at" unicode="@" 
d="M25 440q0 68 20 121.5t57.5 91t91.5 57.5t121 20q125 0 195 -58t70 -162v-435h-111l-1 96q-12 -51 -42 -78.5t-76 -27.5q-68 0 -99 41.5t-31 133.5v80q0 92 31 133.5t99 41.5q40 0 67.5 -21t42.5 -59l2 -6l2 -6q-1 13 -2.5 36.5t-1.5 50.5v20q0 54 -38 84.5t-107 30.5
q-81 0 -125.5 -47.5t-44.5 -137.5v-315q0 -88 46 -134t134 -46h70v-110h-70q-70 0 -125.5 20t-94.5 57.5t-59.5 91.5t-20.5 121v315zM340 240q0 -44 13.5 -67t42.5 -23q64 0 64 90v80q0 90 -64 90q-27 0 -41.5 -21t-14.5 -69v-80z" />
    <glyph glyph-name="A" unicode="A" 
d="M10 0l192 720h200l188 -720h-152l-38 165h-201l-38 -165h-151zM372 282l-55 237q-3 15 -6 32.5t-5 33.5q-2 17 -4 35h-6q-2 -18 -5 -35q-2 -16 -4.5 -33.5t-6.5 -32.5l-54 -237h146z" />
    <glyph glyph-name="B" unicode="B" 
d="M63 0v720h241q56 0 101 -13t76.5 -37t48.5 -58t17 -76q0 -67 -37.5 -108t-103.5 -47v-11q72 -5 113 -48t41 -113q0 -48 -17.5 -86.5t-50 -66t-79 -42t-103.5 -14.5h-247zM208 313v-193h96q50 0 77.5 25t27.5 71t-27.5 71.5t-77.5 25.5h-96zM208 600v-167h94q43 0 68.5 23
t25.5 61t-25 60.5t-69 22.5h-94z" />
    <glyph glyph-name="C" unicode="C" 
d="M305 730q56 0 102 -16t79 -45.5t51 -71t18 -92.5h-150q0 42 -27 66t-73 24q-47 0 -74.5 -24t-27.5 -66v-290q0 -42 26.5 -66t74.5 -24q47 0 74 25t27 65h150q0 -51 -18 -92.5t-51 -71t-79 -45.5t-103 -16t-103 16t-79 45.5t-51 71t-18 92.5v290q0 51 18 92.5t51 71
t79.5 45.5t103.5 16z" />
    <glyph glyph-name="D" unicode="D" 
d="M300 140q46 0 74 26t28 69v251q0 42 -28 68t-74 26h-87v-440h87zM63 0v720h237q57 0 103.5 -16.5t79.5 -47.5t51 -74t18 -96v-251q0 -53 -18 -96.5t-51 -74t-79.5 -47.5t-103.5 -17h-237z" />
    <glyph glyph-name="E" unicode="E" 
d="M80 0v720h455v-130h-305v-156h270v-130h-270v-174h305v-130h-455z" />
    <glyph glyph-name="F" unicode="F" 
d="M70 720h470v-140h-322v-152h296v-140h-294v-288h-150v720z" />
    <glyph glyph-name="G" unicode="G" 
d="M290 400h262v-185q0 -51 -18 -92.5t-51 -71t-79.5 -45.5t-103.5 -16t-103.5 16t-79.5 45.5t-51 71t-18 92.5v290q0 50 18 90.5t51 69t79.5 44.5t103.5 16q53 0 97 -14.5t77 -42t53 -66.5t25 -87h-150q-4 35 -31.5 55t-70.5 20q-47 0 -74.5 -23.5t-27.5 -61.5v-290
q0 -43 27.5 -68.5t74.5 -25.5t74.5 25.5t27.5 68.5v58h-112v127z" />
    <glyph glyph-name="H" unicode="H" 
d="M215 720v-276h170v276h150v-720h-150v304h-170v-304h-150v720h150z" />
    <glyph glyph-name="I" unicode="I" 
d="M75 0v130h150v460h-150v130h450v-130h-150v-460h150v-130h-450z" />
    <glyph glyph-name="J" unicode="J" 
d="M270 119q46 0 73 27t27 72v363h-240v140h390v-503q0 -53 -17.5 -95.5t-50 -72t-78.5 -45.5t-104 -16q-56 0 -101.5 15.5t-78 44t-50.5 69.5t-20 92h150q2 -41 29 -66t71 -25z" />
    <glyph glyph-name="K" unicode="K" 
d="M215 720v-282h76l120 282h163l-150 -348l156 -372h-165l-124 300h-76v-300h-150v720h150z" />
    <glyph glyph-name="L" unicode="L" 
d="M245 720v-580h295v-140h-445v720h150z" />
    <glyph glyph-name="M" unicode="M" 
d="M40 0v720h174l73 -218q4 -11 6 -23t4 -22l2 -22h8q1 11 3 22q2 10 4 22t5 23l65 218h176v-720h-131v440q0 28 2.5 56t5.5 51q3 28 7 53h-12q-5 -24 -9 -47q-5 -20 -9 -41.5t-9 -36.5l-45 -160h-118l-50 160q-5 15 -9 36t-7 41q-4 23 -8 48h-13q4 -25 8 -53q3 -23 5.5 -51
t2.5 -56v-440h-131z" />
    <glyph glyph-name="N" unicode="N" 
d="M58 720h182l160 -477q5 -14 8 -33.5t5 -36.5q2 -21 4 -43h14l-2.5 18t-5.5 45t-6 58.5t-3 57.5v411h128v-720h-182l-157 477q-5 17 -9 36.5t-6 36.5q-2 20 -3 40h-14q4 -30 8 -61q2 -26 4.5 -57t2.5 -60v-412h-128v720z" />
    <glyph glyph-name="O" unicode="O" 
d="M198 215q0 -43 27.5 -68.5t74.5 -25.5t74.5 25.5t27.5 68.5v291q0 43 -27.5 68.5t-74.5 25.5t-74.5 -25.5t-27.5 -68.5v-291zM48 506q0 51 18 92t51 70.5t79.5 45.5t103.5 16t103.5 -16t79.5 -45.5t51 -70.5t18 -92v-291q0 -50 -18.5 -91.5t-51.5 -71t-79.5 -46
t-102.5 -16.5q-57 0 -103.5 16t-79.5 45.5t-51 71t-18 92.5v291z" />
    <glyph glyph-name="P" unicode="P" 
d="M315 720q59 0 106 -15.5t80 -45t51 -71t18 -93.5q0 -51 -18 -93t-51 -71t-80 -45t-106 -16h-102v-270h-150v720h252zM213 595v-200h102q50 0 77.5 27.5t27.5 72.5t-27.5 72.5t-77.5 27.5h-102z" />
    <glyph glyph-name="Q" unicode="Q" 
d="M48 506q0 51 18 92t51 70.5t79.5 45.5t103.5 16t103.5 -16t79.5 -45.5t51 -70.5t18 -92v-291q0 -67 -31.5 -117t-86.5 -78l122 -185h-156l-102 155q-57 0 -103 16.5t-78.5 46t-50.5 70.5t-18 92v291zM198 215q0 -43 27.5 -68.5t74.5 -25.5t74.5 25.5t27.5 68.5v291
q0 43 -27.5 68.5t-74.5 25.5t-74.5 -25.5t-27.5 -68.5v-291z" />
    <glyph glyph-name="R" unicode="R" 
d="M65 720h240q59 0 106 -15.5t80 -44t51 -69t18 -91.5q0 -70 -34 -120t-94 -76l138 -304h-160l-122 280h-74v-280h-149v720zM214 395h91q49 0 77 26.5t28 71.5q0 47 -28.5 74.5t-76.5 27.5h-91v-200z" />
    <glyph glyph-name="S" unicode="S" 
d="M300 -10q-56 0 -102 14.5t-79 41t-52 64.5t-22 85h150q8 -75 108 -75q50 0 76 21.5t26 57.5q0 32 -20.5 55t-56.5 31l-76 17q-98 22 -148.5 78.5t-50.5 144.5q0 46 17.5 84t49.5 65t77.5 42t102.5 15q107 0 171.5 -53t71.5 -147h-150q-4 33 -29.5 51.5t-67.5 18.5
q-44 0 -68.5 -21t-24.5 -53q0 -28 19 -48.5t55 -28.5l80 -18q97 -22 147.5 -79.5t50.5 -146.5q0 -48 -18 -87.5t-51.5 -68t-80.5 -44.5t-105 -16z" />
    <glyph glyph-name="T" unicode="T" 
d="M35 720h530v-140h-190v-580h-150v580h-190v140z" />
    <glyph glyph-name="U" unicode="U" 
d="M300 -10q-55 0 -99.5 15.5t-76 44.5t-48 70.5t-16.5 93.5v506h150v-505q0 -46 23.5 -70.5t66.5 -24.5q42 0 66 24.5t24 70.5v505h150v-506q0 -52 -16.5 -93.5t-48 -70.5t-75.5 -44.5t-100 -15.5z" />
    <glyph glyph-name="V" unicode="V" 
d="M10 720h152l121 -519q4 -15 6.5 -32.5t4.5 -32.5l4 -36h6q2 18 5 36q2 15 5 32.5t6 32.5l119 519h151l-192 -720h-200z" />
    <glyph glyph-name="W" unicode="W" 
d="M123 720l37 -478q2 -15 2 -39v-47v-56h11v56q0 23 0.5 47t2.5 39l56 478h138l53 -478q2 -15 2.5 -39t1.5 -47q1 -27 1 -56h11v56q0 23 0.5 47t1.5 39l35 478h114l-73 -720h-156l-51 475q-2 18 -2.5 42.5t-1.5 47.5v55h-10v-55q-1 -23 -2 -47.5t-3 -42.5l-56 -475h-153
l-72 720h113z" />
    <glyph glyph-name="X" unicode="X" 
d="M216 372l-183 348h165l77 -156q8 -15 12.5 -26.5t7.5 -19.5q3 -10 4 -16h5q1 6 4 15q5 16 18 44l80 159h161l-183 -348l196 -372h-165l-89 178q-16 34 -20 48q-4 9 -5 16h-5q-1 -7 -5 -16q-2 -8 -7 -19.5t-13 -27.5l-90 -179h-161z" />
    <glyph glyph-name="Y" unicode="Y" 
d="M15 720h157l107 -255q8 -17 11.5 -33t5.5 -29q2 -15 3 -28h7q1 13 3 28q2 13 6 29t11 33l103 255h156l-210 -470v-250h-150v250z" />
    <glyph glyph-name="Z" unicode="Z" 
d="M514 720v-141l-274 -443v-2l71 5h214v-139h-450v140l273 443v2l-73 -4h-192v139h431z" />
    <glyph glyph-name="bracketleft" unicode="[" 
d="M170 -110v940h305v-140h-155v-660h155v-140h-305z" />
    <glyph glyph-name="backslash" unicode="\" 
d="M204.024 830h-154.991l344.979 -940h154.99z" />
    <glyph glyph-name="bracketright" unicode="]" 
d="M125 -110v140h155v660h-155v140h305v-940h-305z" />
    <glyph glyph-name="asciicircum" unicode="^" 
d="M228 720h146l166 -390h-142l-81 221q-7 22 -9 44q-1 11 -1 21h-12q0 -10 -1 -21q-1 -10 -2.5 -21.5t-6.5 -22.5l-84 -221h-141z" />
    <glyph glyph-name="underscore" unicode="_" 
d="M50 -25h500v-140h-500v140z" />
    <glyph glyph-name="grave" unicode="`" 
d="M155 786h150l100 -146h-130z" />
    <glyph glyph-name="a" unicode="a" 
d="M43 150q0 84 61 132.5t166 48.5h119v49q0 29 -24.5 47t-66.5 18q-37 0 -61.5 -13.5t-31.5 -36.5h-145q6 38 25.5 68.5t50.5 52t72 33t90 11.5q54 0 98.5 -13t76 -36.5t49 -56.5t17.5 -74v-380h-143v110h-9q-7 -56 -52.5 -88t-115.5 -32q-81 0 -128.5 43t-47.5 117z
M280 105q48 0 78.5 22.5t30.5 57.5v56h-119q-35 0 -56 -17.5t-21 -49.5t22.5 -50.5t64.5 -18.5z" />
    <glyph glyph-name="b" unicode="b" 
d="M63 730h150v-180q0 -14 -0.5 -30.5t-1.5 -30.5q-2 -17 -3 -34h10q8 49 45.5 77t96.5 28q44 0 79 -15t60.5 -43t39 -68t13.5 -89v-135q0 -51 -13.5 -91.5t-39 -69t-60.5 -44t-79 -15.5q-59 0 -96.5 28t-45.5 78h-9v-96h-146v730zM213 210q0 -39 25 -64t70 -25t69.5 26
t24.5 68v125q0 42 -25.5 66t-68.5 24t-69 -24.5t-26 -65.5v-130z" />
    <glyph glyph-name="c" unicode="c" 
d="M305 -10q-57 0 -103.5 15t-79.5 43t-51 67.5t-18 88.5v141q0 49 18 88.5t51 67.5t79.5 43.5t103.5 15.5q50 0 93 -14t76 -40t55 -63t30 -83h-150q-7 32 -35 51t-69 19q-48 0 -75 -22.5t-27 -62.5v-141q0 -40 27 -62t75 -22q40 0 68 19.5t36 51.5h150q-8 -46 -30 -83
t-55 -63.5t-76 -40.5t-93 -14z" />
    <glyph glyph-name="d" unicode="d" 
d="M48 345q0 49 13.5 89t39 68t61 43t78.5 15q59 0 96.5 -28t45.5 -77h10l-2 34q-2 15 -2.5 31.5t-0.5 29.5v180h150v-730h-145v96h-10q-8 -50 -45.5 -78t-96.5 -28q-43 0 -78.5 15.5t-61 44t-39 69t-13.5 91.5v135zM292 121q45 0 70 25t25 64v130q0 41 -26 65.5t-69 24.5
t-68.5 -24t-25.5 -66v-125q0 -42 24.5 -68t69.5 -26z" />
    <glyph glyph-name="e" unicode="e" 
d="M300 -10q-57 0 -103.5 16t-79.5 44.5t-51 69.5t-18 90v131q0 50 18 90t51 69t79.5 44.5t103.5 15.5q56 0 102 -16t79 -45t51 -69.5t18 -89.5v-100h-354v-30q0 -50 27 -77.5t77 -27.5q37 0 63 12t35 33h147q-9 -36 -31.5 -65.5t-54.5 -50.5t-72.5 -32.5t-86.5 -11.5z
M405 330v10q0 50 -27.5 77.5t-77.5 27.5q-49 0 -76.5 -27.5t-27.5 -76.5v-11h209z" />
    <glyph glyph-name="f" unicode="f" 
d="M49 360v135h146v65q0 38 13.5 69.5t38.5 54t60 34.5t78 12h161v-130h-156q-20 0 -32.5 -12.5t-12.5 -32.5v-60h201v-135h-201v-360h-150v360h-146z" />
    <glyph glyph-name="g" unicode="g" 
d="M48 345q0 48 13.5 88t38.5 68t60.5 43.5t78.5 15.5q63 0 102 -30t44 -80h7v100h145v-521q0 -44 -17 -79.5t-48 -61t-75 -39.5t-97 -14h-155v120h155q39 0 63 20.5t24 53.5v6l5 116h-7q-6 -50 -45 -80t-102 -30q-43 0 -78 15.5t-60 43.5t-38.5 68t-13.5 88v89zM198 261
q0 -42 25.5 -66t68.5 -24t69 24.5t26 65.5v79q0 41 -26 65.5t-69 24.5t-68.5 -24t-25.5 -66v-79z" />
    <glyph glyph-name="h" unicode="h" 
d="M61 730h150v-180q0 -15 -1.5 -32t-3.5 -31t-3 -23l-1 -9h11q7 50 44 77.5t97 27.5q84 0 132.5 -55t48.5 -150v-355h-150v340q0 42 -23.5 66t-63.5 24t-63.5 -24t-23.5 -66v-340h-150v730z" />
    <glyph glyph-name="i" unicode="i" 
d="M75 136h195v279h-170v135h310v-414h155v-136h-490v136zM240 695q0 32 20.5 51t54.5 19h30q34 0 54.5 -19t20.5 -51t-20.5 -51t-55.5 -19h-29q-34 0 -54.5 19t-20.5 51z" />
    <glyph glyph-name="j" unicode="j" 
d="M325 410h-215v140h365v-500q0 -49 -15 -89t-43 -68t-67.5 -43t-88.5 -15h-171v140h160q35 0 55 20t20 55v360zM410 765q34 0 54.5 -19t20.5 -51t-20.5 -51t-55.5 -19h-29q-34 0 -54.5 19t-20.5 51t20.5 51t54.5 19h30z" />
    <glyph glyph-name="k" unicode="k" 
d="M220 730v-388h74l115 208h167l-153 -269l156 -281h-170l-116 216h-73v-216h-150v730h150z" />
    <glyph glyph-name="l" unicode="l" 
d="M345 730v-540q0 -26 14.5 -40.5t40.5 -14.5h165v-135h-180q-89 0 -139.5 50.5t-50.5 139.5v405h-170v135h320z" />
    <glyph glyph-name="m" unicode="m" 
d="M152 550v-80h10q2 42 27 66t66 24q39 0 65.5 -24t36.5 -66h4q2 42 27 66t66 24q50 0 78.5 -37.5t28.5 -102.5v-420h-123v403q0 55 -40 55q-20 0 -28 -14.5t-8 -40.5v-403h-123v403q0 55 -40 55q-20 0 -28 -14.5t-8 -40.5v-403h-123v550h112z" />
    <glyph glyph-name="n" unicode="n" 
d="M61 0v550h142v-95h10q7 50 44 77.5t97 27.5q84 0 132.5 -55t48.5 -150v-355h-150v340q0 42 -23.5 66t-63.5 24t-63.5 -24t-23.5 -66v-340h-150z" />
    <glyph glyph-name="o" unicode="o" 
d="M198 210q0 -41 27.5 -65t74.5 -24t74.5 24t27.5 65v131q0 41 -27.5 65t-74.5 24t-74.5 -24t-27.5 -65v-131zM48 341q0 48 18 88.5t51 69.5t79.5 45t103.5 16t103.5 -16t79.5 -45t51 -69.5t18 -88.5v-131q0 -48 -18 -88.5t-51 -70t-79.5 -45.5t-103.5 -16t-103.5 16
t-79.5 45.5t-51 70t-18 88.5v131z" />
    <glyph glyph-name="p" unicode="p" 
d="M208 550v-95h10q8 49 45.5 77t96.5 28q44 0 79 -15t60.5 -43t39 -68t13.5 -89v-135q0 -51 -13.5 -91.5t-39 -69t-60.5 -44t-79 -15.5q-59 0 -96.5 28t-45.5 78h-10q1 -8 3 -36t2 -60v-165h-150v715h145zM213 210q0 -39 25 -64t70 -25t69.5 26t24.5 68v125q0 42 -25.5 66
t-68.5 24t-69 -24.5t-26 -65.5v-130z" />
    <glyph glyph-name="q" unicode="q" 
d="M48 345q0 49 13.5 89t39 68t61 43t78.5 15q59 0 96.5 -28t45.5 -77h10v95h145v-715h-150v165q0 32 2 60t3 36h-10q-8 -50 -45.5 -78t-96.5 -28q-43 0 -78.5 15.5t-61 44t-39 69t-13.5 91.5v135zM292 430q-43 0 -68.5 -24t-25.5 -66v-125q0 -42 24.5 -68t69.5 -26t70 25
t25 64v130q0 41 -26 65.5t-69 24.5z" />
    <glyph glyph-name="r" unicode="r" 
d="M82 550h142v-95h10q8 51 47 78t103 27q91 0 141 -55.5t50 -154.5v-45h-160v35q0 45 -26 70t-71 25q-40 0 -63 -25.5t-23 -69.5v-340h-150v550z" />
    <glyph glyph-name="s" unicode="s" 
d="M274 -10q-103 0 -161 39.5t-68 115.5h150q7 -23 27.5 -35t51.5 -12h50q42 0 64 15t22 43q0 49 -80 58l-75 8q-103 11 -151.5 52.5t-48.5 118.5q0 81 56.5 124t162.5 43h50q100 0 156.5 -38t65.5 -113h-150q-11 44 -72 44h-50q-74 0 -74 -50q0 -48 68 -56l80 -9
q207 -24 207 -176q0 -85 -59 -128.5t-172 -43.5h-50z" />
    <glyph glyph-name="t" unicode="t" 
d="M35 550h145v170h150v-170h205v-135h-205v-225q0 -26 14.5 -40.5t40.5 -14.5h140v-135h-155q-89 0 -139.5 50.5t-50.5 139.5v225h-145v135z" />
    <glyph glyph-name="u" unicode="u" 
d="M65 550h150v-335q0 -95 85 -95t85 95v335h150v-336q0 -106 -62.5 -165t-172.5 -59q-112 0 -173.5 59.5t-61.5 164.5v336z" />
    <glyph glyph-name="v" unicode="v" 
d="M23 550h155l104 -332q6 -18 9.5 -37t5.5 -35q2 -19 3 -36h6q1 17 3 36q2 16 6 35t9 37l100 332h153l-186 -550h-180z" />
    <glyph glyph-name="w" unicode="w" 
d="M109 550l38 -317q2 -15 3.5 -39t3.5 -47q2 -28 3 -57h11q3 30 6 57q3 23 6.5 47.5l5.5 38.5l53 317h124l53 -317q3 -15 5.5 -39t4.5 -47q3 -28 5 -57h11q2 29 4 57q2 23 4 47t4 39l36 317h100l-73 -550h-153l-51 330q-2 12 -3 34t-2 43q-1 25 -2 53h-8q-1 -28 -2 -53
q-1 -22 -2.5 -43.5t-3.5 -33.5l-54 -330h-154l-72 550h99z" />
    <glyph glyph-name="x" unicode="x" 
d="M216 285l-182 265h167l77 -114q5 -8 8.5 -14.5t5.5 -11.5q2 -7 4 -12h8q1 5 4 11q2 5 5.5 12t8.5 15l77 114h167l-181 -265l194 -285h-167l-89 133q-10 17 -15 27q-2 6 -4 11h-8q-2 -5 -4 -11q-2 -5 -5.5 -11.5t-8.5 -14.5l-90 -134h-167z" />
    <glyph glyph-name="y" unicode="y" 
d="M187 550l96 -277q5 -15 9 -34t6 -36q2 -21 4 -41h9q1 20 3 41q2 17 5 36t8 34l91 277h157l-257 -715h-157l75 190l-211 525h162z" />
    <glyph glyph-name="z" unicode="z" 
d="M73 550h451v-131l-275 -295q12 1 25 3q11 1 23 1.5t23 0.5h215v-129h-470v130l275 295l-26 -2q-11 -1 -23.5 -1.5t-23.5 -0.5h-194v129z" />
    <glyph glyph-name="braceleft" unicode="{" 
d="M200 429q32 0 52 19t18 51l-10 151q-3 41 9.5 74.5t36.5 57t58.5 36t75.5 12.5h85v-140h-55q-29 0 -45.5 -14t-14.5 -46l10 -151q2 -28 -8 -49.5t-28.5 -35.5t-44 -22t-54.5 -9v-5q29 -1 54.5 -9t44 -23t28.5 -37t8 -50l-10 -150q-2 -27 15.5 -43.5t44.5 -16.5h55v-140
h-85q-41 0 -75.5 13t-58.5 37.5t-36.5 58.5t-9.5 76l10 145q2 32 -18 51t-52 19h-125v140h125z" />
    <glyph glyph-name="bar" unicode="|" 
d="M225 830h150v-940h-150v940z" />
    <glyph glyph-name="braceright" unicode="}" 
d="M80 -111v140h55q29 0 45.5 14t14.5 46l-10 151q-2 28 8 49.5t28.5 35.5t44 22t54.5 9v5q-29 1 -54.5 9.5t-44 23.5t-28.5 36.5t-8 49.5l10 150q2 27 -15.5 43.5t-44.5 16.5h-55v140h85q41 0 75.5 -13t58.5 -37.5t36.5 -58.5t9.5 -76l-10 -145q-2 -32 18 -51t52 -19h125
v-140h-125q-32 0 -52 -19t-18 -51l10 -151q3 -41 -9.5 -74.5t-36.5 -57t-58.5 -36t-75.5 -12.5h-85z" />
    <glyph glyph-name="asciitilde" unicode="~" 
d="M410 250q-49 0 -79 15.5t-52 34.5t-40 34.5t-42 15.5q-17 0 -27 -10.5t-10 -27.5v-57h-110v70q0 60 37.5 95t102.5 35q49 0 79 -15.5t52 -34.5t40 -34.5t42 -15.5q17 0 27 10.5t10 27.5v57h110v-70q0 -60 -37.5 -95t-102.5 -35z" />
    <glyph glyph-name="exclamdown" unicode="&#xa1;" 
d="M379 -165h-158v150l23 325h112l23 -325v-150zM315 420h-30q-34 0 -54.5 19.5t-20.5 51.5t20.5 50.5t55.5 18.5h29q34 0 54.5 -19t20.5 -51t-20.5 -51t-54.5 -19z" />
    <glyph glyph-name="cent" unicode="&#xa2;" 
d="M230 -3q-83 18 -130 72t-47 135v141q0 81 47.5 135.5t129.5 71.5v88h150v-89q72 -18 119 -67.5t60 -123.5h-150q-8 36 -39 53t-65 17q-20 0 -38.5 -5t-32.5 -15t-22.5 -26t-8.5 -39v-141q0 -22 8.5 -38t22.5 -26.5t32.5 -15t38.5 -4.5q34 0 65 18t39 53h150
q-13 -75 -60 -124.5t-119 -67.5v-90h-150v88z" />
    <glyph glyph-name="sterling" unicode="&#xa3;" 
d="M123 390q-13 14 -25.5 28.5t-22.5 31t-16 36t-6 44.5q0 42 17.5 77t49.5 60t77.5 39t102.5 14q107 0 171.5 -53t71.5 -147h-150q-4 33 -29.5 51.5t-67.5 18.5q-44 0 -68.5 -18t-24.5 -50q0 -20 7.5 -35.5t19 -30.5t25.5 -30.5t26 -35.5h154v-120h-120q0 -33 -12.5 -57
t-33 -40t-47.5 -24t-57 -9h370v-140h-460v160q31 8 55 22q20 11 37 28.5t17 43.5q0 11 -1 16h-118v120h58z" />
    <glyph glyph-name="currency" unicode="&#xa4;" 
d="M42 554l63 63l88 -88q47 28 106 28q62 0 110 -31l85 85l63 -63l-85 -85q14 -23 21.5 -50.5t7.5 -57.5q0 -62 -31 -110l87 -87l-63 -63l-87 87q-23 -14 -50.5 -21.5t-57.5 -7.5q-61 0 -107 29l-87 -87l-63 63l86 86q-32 47 -32 111q0 32 8.5 60.5t23.5 52.5zM299 226
q58 0 93 35.5t35 93.5t-35 93.5t-93 35.5t-93.5 -35.5t-35.5 -93.5t35.5 -93.5t93.5 -35.5z" />
    <glyph glyph-name="yen" unicode="&#xa5;" 
d="M172 720l108 -245q8 -17 12 -32.5t6 -26.5q2 -13 2 -24h5q1 11 3 24q2 11 6 26.5t11 32.5l104 245h156l-162 -355h117v-105h-165v-55h165v-105h-165v-100h-150v100h-165v105h165v55h-165v105h117l-162 355h157z" />
    <glyph glyph-name="brokenbar" unicode="&#xa6;" 
d="M225 830h150v-380h-150v380zM225 -110v380h150v-380h-150z" />
    <glyph glyph-name="section" unicode="&#xa7;" 
d="M45 -8h150q6 -20 30.5 -32.5t58.5 -12.5h30q45 0 70.5 18.5t25.5 47.5q0 24 -19 40t-61 25l-93 20q-86 18 -134 60.5t-48 102.5q0 59 36 92.5t105 39.5v7q-39 11 -70 31q-27 18 -49 48t-22 77q0 81 60 127.5t169 46.5h30q103 0 163 -39.5t69 -112.5h-150q-4 16 -25.5 28
t-56.5 12h-30q-42 0 -63 -16t-21 -42q0 -49 68 -63l103 -22q89 -19 136.5 -64.5t47.5 -106.5q0 -58 -36.5 -92.5t-105.5 -39.5v-7q40 -8 71 -27q27 -17 49 -47.5t22 -81.5q0 -81 -63 -127.5t-178 -46.5h-30q-106 0 -167.5 41t-71.5 116zM199 294q0 -34 16.5 -57.5
t43.5 -28.5l55 -11q6 -2 12 -2h11q34 0 53.5 22t19.5 61q0 32 -19 56t-51 31l-55 12q-5 1 -9.5 1.5t-9.5 0.5q-31 0 -49 -22.5t-18 -62.5z" />
    <glyph glyph-name="dieresis" unicode="&#xa8;" 
d="M120 719q0 29 20.5 47t54.5 18t54.5 -18t20.5 -47q0 -31 -20.5 -49.5t-54.5 -18.5t-54.5 18.5t-20.5 49.5zM330 719q0 29 20.5 47t54.5 18t54.5 -18t20.5 -47q0 -31 -20.5 -49.5t-54.5 -18.5t-54.5 18.5t-20.5 49.5z" />
    <glyph glyph-name="copyright" unicode="&#xa9;" 
d="M100 350q0 -43 14.5 -78t41 -60t63 -38.5t81.5 -13.5t82 13.5t63 38.5t40.5 60t14.5 78v150q0 43 -14.5 78t-40.5 60t-63 38.5t-82 13.5t-81.5 -13.5t-63 -38.5t-41 -60t-14.5 -78v-150zM45 500q0 54 18.5 98.5t52 76t80.5 48.5t104 17t104 -17t80.5 -48.5t52 -76
t18.5 -98.5v-150q0 -54 -18.5 -98t-52 -75.5t-80.5 -49t-104 -17.5t-104 17.5t-80.5 49t-52 75.5t-18.5 98v150zM255 370q0 -23 13.5 -36.5t36.5 -13.5q17 0 30.5 13t18.5 27h85q-12 -52 -49 -83.5t-85 -31.5q-61 0 -98 34t-37 91v110q0 57 37 91t98 34q51 0 87.5 -31.5
t46.5 -83.5h-85q-3 18 -16.5 29t-32.5 11q-23 0 -36.5 -13.5t-13.5 -36.5v-110z" />
    <glyph glyph-name="ordfeminine" unicode="&#xaa;" 
d="M165 538q0 39 31.5 63t83.5 24h70v25q0 14 -12.5 22t-32.5 8q-19 0 -31 -7t-14 -18h-80q8 38 42 61.5t83 23.5q57 0 91 -24.5t34 -65.5v-195h-77v55h-3q-11 -29 -34 -44.5t-52 -15.5q-45 0 -72 24t-27 64zM287 505q28 0 45.5 13.5t17.5 36.5v20h-70q-16 0 -25.5 -9
t-9.5 -26q0 -15 12 -25t30 -10z" />
    <glyph glyph-name="guillemotleft" unicode="&#xab;" 
d="M265 280l165 240h155l-141 -204q-7 -10 -13.5 -16.5l-11.5 -11.5q-6 -4 -11 -7v-2q5 -3 11 -8q12 -9 25 -27l141 -204h-155zM15 280l165 240h155l-141 -204q-7 -10 -13.5 -16.5l-11.5 -11.5q-6 -4 -11 -7v-2q5 -3 11 -8q12 -9 25 -27l141 -204h-155z" />
    <glyph glyph-name="logicalnot" unicode="&#xac;" 
d="M70 450h460v-275h-150v135h-310v140z" />
    <glyph glyph-name="registered" unicode="&#xae;" 
d="M300 740q57 0 104 -17t80.5 -48.5t52 -76t18.5 -98.5v-150q0 -54 -18.5 -98t-52 -75.5t-80.5 -49t-104 -17.5t-104 17.5t-80.5 49t-52 75.5t-18.5 98v150q0 54 18.5 98.5t52 76t80.5 48.5t104 17zM100 350q0 -43 14.5 -78t41 -60t63 -38.5t81.5 -13.5t82 13.5t63 38.5
t40.5 60t14.5 78v150q0 43 -14.5 78t-40.5 60t-63 38.5t-82 13.5t-81.5 -13.5t-63 -38.5t-41 -60t-14.5 -78v-150zM180 600h124q57 0 92 -30t35 -80q0 -32 -15 -54.5t-41 -35.5l62 -150h-84l-53 135h-40v-135h-80v350zM304 450q21 0 33.5 12.5t12.5 32.5t-12.5 32.5
t-33.5 12.5h-44v-90h44z" />
    <glyph glyph-name="macron" unicode="&#xaf;" 
d="M150 785h300v-130h-300v130z" />
    <glyph glyph-name="degree" unicode="&#xb0;" 
d="M150 595q0 66 41 105.5t109 39.5t109 -39.5t41 -105.5t-41 -105.5t-109 -39.5t-109 39.5t-41 105.5zM225 595q0 -36 20.5 -58t54.5 -22t54.5 22t20.5 58t-20.5 58t-54.5 22t-54.5 -22t-20.5 -58z" />
    <glyph glyph-name="plusminus" unicode="&#xb1;" 
d="M230 445v170h150v-170h170v-140h-170v-170h-150v170h-170v140h170zM65 111h470v-111h-470v111z" />
    <glyph glyph-name="twosuperior" unicode="&#xb2;" 
d="M415 667q0 -35 -23.5 -63t-73.5 -54l-58 -31v-9q10 1 21 3q9 1 19.5 1.5t19.5 0.5h100v-75h-275v89l143 80q37 21 37 50q0 19 -11.5 30t-30.5 11q-22 0 -35 -12t-13 -32h-90q0 51 38.5 82.5t99.5 31.5q60 0 96 -28t36 -75z" />
    <glyph glyph-name="threesuperior" unicode="&#xb3;" 
d="M284 435q-63 0 -101 28.5t-38 76.5h90q0 -16 13.5 -25.5t35.5 -9.5q21 0 33.5 11t12.5 29t-12.5 29t-32.5 11h-30v66l85 51v7q-10 -3 -23 -4q-23 -5 -62 -5h-85v65h235v-71l-50 -38q-4 -2 -12 -5.5t-16 -6.5q43 -6 68 -32.5t25 -66.5q0 -50 -37 -80t-99 -30z" />
    <glyph glyph-name="acute" unicode="&#xb4;" 
d="M345 640h-130l100 146h150z" />
    <glyph glyph-name="mu" unicode="&#xb5;" 
d="M215 550v-335q0 -46 21 -70.5t64 -24.5q42 0 63.5 24.5t21.5 70.5v335h150v-336q0 -105 -58.5 -164.5t-161.5 -59.5q-47 0 -75.5 14.5t-45.5 32.5q-20 20 -29 46h-9q1 0 4.5 -10t8 -24.5t9 -31t6.5 -30.5l20 -152l-139 -1v716h150z" />
    <glyph glyph-name="paragraph" unicode="&#xb6;" 
d="M50 550q0 38 13.5 69.5t38.5 54t60 34.5t78 12h290v-720h-110v620h-70v-620h-110v300q-43 0 -78 12t-60 34.5t-38.5 54t-13.5 69.5v80z" />
    <glyph glyph-name="periodcentered" unicode="&#xb7;" 
d="M195 356q0 48 28.5 77t76.5 29t76.5 -29t28.5 -77q0 -47 -28.5 -75.5t-76.5 -28.5t-76.5 28.5t-28.5 75.5z" />
    <glyph glyph-name="cedilla" unicode="&#xb8;" 
d="M249 16h75l-26 -51q40 -4 71 -15q27 -10 49 -28t22 -50q0 -37 -38.5 -59.5t-101.5 -22.5h-110v70h80q25 0 40 7t15 19q0 23 -30.5 36t-85.5 13z" />
    <glyph glyph-name="onesuperior" unicode="&#xb9;" 
d="M170 440v75h114v130q0 24 3 38t3 15h-5q-6 -6 -12 -13q-5 -5 -12.5 -12t-15.5 -13l-61 -47v98l75 54h115v-250h90v-75h-294z" />
    <glyph glyph-name="ordmasculine" unicode="&#xba;" 
d="M245 571q0 -23 15 -37t40 -14t40 14t15 37v49q0 23 -15 36.5t-40 13.5t-40 -13.5t-15 -36.5v-49zM435 571q0 -52 -37 -86.5t-98 -34.5t-98 34.5t-37 86.5v49q0 54 37 87t98 33t98 -33t37 -87v-49z" />
    <glyph glyph-name="guillemotright" unicode="&#xbb;" 
d="M265 520h155l165 -240l-165 -240h-155l141 204q13 18 25 27q6 5 11 8v2q-5 3 -11 7q-5 5 -11 11.5t-14 16.5zM15 40l141 204q13 18 25 27q6 5 11 8v2q-5 3 -11 7q-5 5 -11 11.5t-14 16.5l-141 204h155l165 -240l-165 -240h-155z" />
    <glyph glyph-name="onequarter" unicode="&#xbc;" 
d="M37 394v75h114v130q0 24 3 38t3 15h-5q-6 -6 -12 -13q-5 -5 -12.5 -12t-15.5 -13l-61 -47v98l75 54h115v-250h80l129 241h81l-381 -710h-81l211 394h-243zM294 60v100l126 165h99l-135 -179v-16h76v75h90v-205h-90v60h-166z" />
    <glyph glyph-name="onehalf" unicode="&#xbd;" 
d="M151 471v130q0 24 3 38t3 15h-5q-6 -6 -12 -13q-5 -5 -12.5 -12t-15.5 -13l-61 -47v98l75 54h115v-250h81l128 239h81l-381 -710h-81l213 396h-245v75h114zM310 216q0 51 38.5 82.5t99.5 31.5q60 0 96 -28t36 -75q0 -35 -23.5 -63t-73.5 -54l-58 -31v-9q10 1 21 3
q9 1 19.5 1.5t19.5 0.5h100v-75h-275v89l143 80q37 21 37 50q0 19 -11.5 30t-30.5 11q-22 0 -35 -12t-13 -32h-90z" />
    <glyph glyph-name="threequarters" unicode="&#xbe;" 
d="M450 710h81l-381 -710h-81zM-7 494h90q0 -16 13.5 -25.5t35.5 -9.5q21 0 33.5 11t12.5 29t-12.5 29t-32.5 11h-30v66l85 51v7q-10 -3 -23 -4q-23 -5 -62 -5h-85v65h235v-71l-50 -38q-4 -2 -12 -5.5t-16 -6.5q43 -6 68 -32.5t25 -66.5q0 -50 -37 -80t-99 -30
q-63 0 -101 28.5t-38 76.5zM294 60v100l126 165h99l-135 -179v-16h76v75h90v-205h-90v60h-166z" />
    <glyph glyph-name="questiondown" unicode="&#xbf;" 
d="M80 45q0 46 15 84t42.5 65t66 41.5t85.5 14.5v80h125l5 -215h-100q-42 0 -65.5 -18.5t-23.5 -51.5t24 -51.5t66 -18.5h165v-140h-155q-56 0 -102 15t-79 42.5t-51 66.5t-18 86zM371 420h-30q-34 0 -54.5 19.5t-20.5 51.5t20.5 50.5t55.5 18.5h29q34 0 54.5 -19t20.5 -51
t-20.5 -51t-54.5 -19z" />
    <glyph glyph-name="Agrave" unicode="&#xc0;" 
d="M10 0l192 720h200l188 -720h-152l-38 165h-201l-38 -165h-151zM372 282l-55 237q-3 15 -6 32.5t-5 33.5q-2 17 -4 35h-6q-2 -18 -5 -35q-2 -16 -4.5 -33.5t-6.5 -32.5l-54 -237h146zM155 946h150l100 -146h-130z" />
    <glyph glyph-name="Aacute" unicode="&#xc1;" 
d="M10 0l192 720h200l188 -720h-152l-38 165h-201l-38 -165h-151zM372 282l-55 237q-3 15 -6 32.5t-5 33.5q-2 17 -4 35h-6q-2 -18 -5 -35q-2 -16 -4.5 -33.5t-6.5 -32.5l-54 -237h146zM345 800h-130l100 146h150z" />
    <glyph glyph-name="Acircumflex" unicode="&#xc2;" 
d="M10 0l192 720h200l188 -720h-152l-38 165h-201l-38 -165h-151zM372 282l-55 237q-3 15 -6 32.5t-5 33.5q-2 17 -4 35h-6q-2 -18 -5 -35q-2 -16 -4.5 -33.5t-6.5 -32.5l-54 -237h146zM215 945h170l100 -145h-110l-48 57q-8 10 -13 16.5t-8 10.5q-4 4 -5 7h-2q-1 -2 -5 -6
q-2 -4 -7.5 -10t-13.5 -17l-48 -58h-110z" />
    <glyph glyph-name="Atilde" unicode="&#xc3;" 
d="M10 0l192 720h200l188 -720h-152l-38 165h-201l-38 -165h-151zM372 282l-55 237q-3 15 -6 32.5t-5 33.5q-2 17 -4 35h-6q-2 -18 -5 -35q-2 -16 -4.5 -33.5t-6.5 -32.5l-54 -237h146zM380 890q14 0 22 7.5t8 20.5v37h85v-35q0 -51 -29.5 -83t-80.5 -32q-32 0 -54.5 11
t-41 24t-34.5 24t-35 11q-14 0 -22 -9t-8 -24v-32h-85v35q0 51 29.5 83t80.5 32q32 0 54.5 -11t41 -24t34.5 -24t35 -11z" />
    <glyph glyph-name="Adieresis" unicode="&#xc4;" 
d="M10 0l192 720h200l188 -720h-152l-38 165h-201l-38 -165h-151zM372 282l-55 237q-3 15 -6 32.5t-5 33.5q-2 17 -4 35h-6q-2 -18 -5 -35q-2 -16 -4.5 -33.5t-6.5 -32.5l-54 -237h146zM120 879q0 29 20.5 47t54.5 18t54.5 -18t20.5 -47q0 -31 -20.5 -49.5t-54.5 -18.5
t-54.5 18.5t-20.5 49.5zM330 879q0 29 20.5 47t54.5 18t54.5 -18t20.5 -47q0 -31 -20.5 -49.5t-54.5 -18.5t-54.5 18.5t-20.5 49.5z" />
    <glyph glyph-name="Aring" unicode="&#xc5;" 
d="M10 0l192 720h200l188 -720h-152l-38 165h-201l-38 -165h-151zM372 282l-55 237q-3 15 -6 32.5t-5 33.5q-2 17 -4 35h-6q-2 -18 -5 -35q-2 -16 -4.5 -33.5t-6.5 -32.5l-54 -237h146zM180 870q0 48 33 76.5t87 28.5t87 -28.5t33 -76.5t-33 -76.5t-87 -28.5t-87 28.5
t-33 76.5zM250 870q0 -51 49 -51q51 0 51 51t-51 51q-49 0 -49 -51z" />
    <glyph glyph-name="AE" unicode="&#xc6;" 
d="M0 0l137 720h443v-125h-161v-163h136v-126h-136v-180h161v-126h-294v165h-119l-26 -165h-141zM286 270l1 325h-51l-52 -325h102z" />
    <glyph glyph-name="Ccedilla" unicode="&#xc7;" 
d="M305 730q56 0 102 -16t79 -45.5t51 -71t18 -92.5h-150q0 42 -27 66t-73 24q-47 0 -74.5 -24t-27.5 -66v-290q0 -42 26.5 -66t74.5 -24q47 0 74 25t27 65h150q0 -51 -18 -92.5t-51 -71t-79 -45.5t-103 -16t-103 16t-79 45.5t-51 71t-18 92.5v290q0 51 18 92.5t51 71
t79.5 45.5t103.5 16zM249 16h75l-26 -51q40 -4 71 -15q27 -10 49 -28t22 -50q0 -37 -38.5 -59.5t-101.5 -22.5h-110v70h80q25 0 40 7t15 19q0 23 -30.5 36t-85.5 13z" />
    <glyph glyph-name="Egrave" unicode="&#xc8;" 
d="M80 0v720h455v-130h-305v-156h270v-130h-270v-174h305v-130h-455zM155 946h150l100 -146h-130z" />
    <glyph glyph-name="Eacute" unicode="&#xc9;" 
d="M80 0v720h455v-130h-305v-156h270v-130h-270v-174h305v-130h-455zM345 800h-130l100 146h150z" />
    <glyph glyph-name="Ecircumflex" unicode="&#xca;" 
d="M80 0v720h455v-130h-305v-156h270v-130h-270v-174h305v-130h-455zM215 945h170l100 -145h-110l-48 57q-8 10 -13 16.5t-8 10.5q-4 4 -5 7h-2q-1 -2 -5 -6q-2 -4 -7.5 -10t-13.5 -17l-48 -58h-110z" />
    <glyph glyph-name="Edieresis" unicode="&#xcb;" 
d="M80 0v720h455v-130h-305v-156h270v-130h-270v-174h305v-130h-455zM120 879q0 29 20.5 47t54.5 18t54.5 -18t20.5 -47q0 -31 -20.5 -49.5t-54.5 -18.5t-54.5 18.5t-20.5 49.5zM330 879q0 29 20.5 47t54.5 18t54.5 -18t20.5 -47q0 -31 -20.5 -49.5t-54.5 -18.5t-54.5 18.5
t-20.5 49.5z" />
    <glyph glyph-name="Igrave" unicode="&#xcc;" 
d="M75 0v130h150v460h-150v130h450v-130h-150v-460h150v-130h-450zM155 946h150l100 -146h-130z" />
    <glyph glyph-name="Iacute" unicode="&#xcd;" 
d="M75 0v130h150v460h-150v130h450v-130h-150v-460h150v-130h-450zM345 800h-130l100 146h150z" />
    <glyph glyph-name="Icircumflex" unicode="&#xce;" 
d="M75 0v130h150v460h-150v130h450v-130h-150v-460h150v-130h-450zM215 945h170l100 -145h-110l-48 57q-8 10 -13 16.5t-8 10.5q-4 4 -5 7h-2q-1 -2 -5 -6q-2 -4 -7.5 -10t-13.5 -17l-48 -58h-110z" />
    <glyph glyph-name="Idieresis" unicode="&#xcf;" 
d="M75 0v130h150v460h-150v130h450v-130h-150v-460h150v-130h-450zM120 879q0 29 20.5 47t54.5 18t54.5 -18t20.5 -47q0 -31 -20.5 -49.5t-54.5 -18.5t-54.5 18.5t-20.5 49.5zM330 879q0 29 20.5 47t54.5 18t54.5 -18t20.5 -47q0 -31 -20.5 -49.5t-54.5 -18.5t-54.5 18.5
t-20.5 49.5z" />
    <glyph glyph-name="Eth" unicode="&#xd0;" 
d="M63 425v295h237q57 0 103.5 -16.5t79.5 -47.5t51 -74t18 -96v-251q0 -53 -18 -96.5t-51 -74t-79.5 -47.5t-103.5 -17h-237v290h-43v135h43zM300 425v-135h-87v-150h87q46 0 74 26t28 69v251q0 42 -28 68t-74 26h-87v-155h87z" />
    <glyph glyph-name="Ntilde" unicode="&#xd1;" 
d="M58 720h182l160 -477q5 -14 8 -33.5t5 -36.5q2 -21 4 -43h14l-2.5 18t-5.5 45t-6 58.5t-3 57.5v411h128v-720h-182l-157 477q-5 17 -9 36.5t-6 36.5q-2 20 -3 40h-14q4 -30 8 -61q2 -26 4.5 -57t2.5 -60v-412h-128v720zM380 890q14 0 22 7.5t8 20.5v37h85v-35
q0 -51 -29.5 -83t-80.5 -32q-32 0 -54.5 11t-41 24t-34.5 24t-35 11q-14 0 -22 -9t-8 -24v-32h-85v35q0 51 29.5 83t80.5 32q32 0 54.5 -11t41 -24t34.5 -24t35 -11z" />
    <glyph glyph-name="Ograve" unicode="&#xd2;" 
d="M198 215q0 -43 27.5 -68.5t74.5 -25.5t74.5 25.5t27.5 68.5v291q0 43 -27.5 68.5t-74.5 25.5t-74.5 -25.5t-27.5 -68.5v-291zM48 506q0 51 18 92t51 70.5t79.5 45.5t103.5 16t103.5 -16t79.5 -45.5t51 -70.5t18 -92v-291q0 -50 -18.5 -91.5t-51.5 -71t-79.5 -46
t-102.5 -16.5q-57 0 -103.5 16t-79.5 45.5t-51 71t-18 92.5v291zM155 946h150l100 -146h-130z" />
    <glyph glyph-name="Oacute" unicode="&#xd3;" 
d="M198 215q0 -43 27.5 -68.5t74.5 -25.5t74.5 25.5t27.5 68.5v291q0 43 -27.5 68.5t-74.5 25.5t-74.5 -25.5t-27.5 -68.5v-291zM48 506q0 51 18 92t51 70.5t79.5 45.5t103.5 16t103.5 -16t79.5 -45.5t51 -70.5t18 -92v-291q0 -50 -18.5 -91.5t-51.5 -71t-79.5 -46
t-102.5 -16.5q-57 0 -103.5 16t-79.5 45.5t-51 71t-18 92.5v291zM345 800h-130l100 146h150z" />
    <glyph glyph-name="Ocircumflex" unicode="&#xd4;" 
d="M198 215q0 -43 27.5 -68.5t74.5 -25.5t74.5 25.5t27.5 68.5v291q0 43 -27.5 68.5t-74.5 25.5t-74.5 -25.5t-27.5 -68.5v-291zM48 506q0 51 18 92t51 70.5t79.5 45.5t103.5 16t103.5 -16t79.5 -45.5t51 -70.5t18 -92v-291q0 -50 -18.5 -91.5t-51.5 -71t-79.5 -46
t-102.5 -16.5q-57 0 -103.5 16t-79.5 45.5t-51 71t-18 92.5v291zM215 945h170l100 -145h-110l-48 57q-8 10 -13 16.5t-8 10.5q-4 4 -5 7h-2q-1 -2 -5 -6q-2 -4 -7.5 -10t-13.5 -17l-48 -58h-110z" />
    <glyph glyph-name="Otilde" unicode="&#xd5;" 
d="M198 215q0 -43 27.5 -68.5t74.5 -25.5t74.5 25.5t27.5 68.5v291q0 43 -27.5 68.5t-74.5 25.5t-74.5 -25.5t-27.5 -68.5v-291zM48 506q0 51 18 92t51 70.5t79.5 45.5t103.5 16t103.5 -16t79.5 -45.5t51 -70.5t18 -92v-291q0 -50 -18.5 -91.5t-51.5 -71t-79.5 -46
t-102.5 -16.5q-57 0 -103.5 16t-79.5 45.5t-51 71t-18 92.5v291zM380 890q14 0 22 7.5t8 20.5v37h85v-35q0 -51 -29.5 -83t-80.5 -32q-32 0 -54.5 11t-41 24t-34.5 24t-35 11q-14 0 -22 -9t-8 -24v-32h-85v35q0 51 29.5 83t80.5 32q32 0 54.5 -11t41 -24t34.5 -24t35 -11z
" />
    <glyph glyph-name="Odieresis" unicode="&#xd6;" 
d="M198 215q0 -43 27.5 -68.5t74.5 -25.5t74.5 25.5t27.5 68.5v291q0 43 -27.5 68.5t-74.5 25.5t-74.5 -25.5t-27.5 -68.5v-291zM48 506q0 51 18 92t51 70.5t79.5 45.5t103.5 16t103.5 -16t79.5 -45.5t51 -70.5t18 -92v-291q0 -50 -18.5 -91.5t-51.5 -71t-79.5 -46
t-102.5 -16.5q-57 0 -103.5 16t-79.5 45.5t-51 71t-18 92.5v291zM120 879q0 29 20.5 47t54.5 18t54.5 -18t20.5 -47q0 -31 -20.5 -49.5t-54.5 -18.5t-54.5 18.5t-20.5 49.5zM330 879q0 29 20.5 47t54.5 18t54.5 -18t20.5 -47q0 -31 -20.5 -49.5t-54.5 -18.5t-54.5 18.5
t-20.5 49.5z" />
    <glyph glyph-name="multiply" unicode="&#xd7;" 
d="M79 203l120 120l-120 120l103 103l120 -120l120 120l103 -103l-121 -120l121 -120l-103 -103l-120 121l-120 -121z" />
    <glyph glyph-name="Oslash" unicode="&#xd8;" 
d="M15 -30l69 119q-36 53 -36 126v291q0 51 18 92t51 70.5t79.5 45.5t103.5 16q82 0 140 -32l25 42h120l-66 -113q33 -53 33 -121v-291q0 -50 -18.5 -91.5t-51.5 -71t-79.5 -46t-102.5 -16.5q-79 0 -136 30l-29 -50h-120zM370 578q-27 22 -70 22q-47 0 -74.5 -25.5
t-27.5 -68.5v-223zM234 140q27 -19 66 -19q47 0 74.5 25.5t27.5 68.5v212z" />
    <glyph glyph-name="Ugrave" unicode="&#xd9;" 
d="M300 -10q-55 0 -99.5 15.5t-76 44.5t-48 70.5t-16.5 93.5v506h150v-505q0 -46 23.5 -70.5t66.5 -24.5q42 0 66 24.5t24 70.5v505h150v-506q0 -52 -16.5 -93.5t-48 -70.5t-75.5 -44.5t-100 -15.5zM155 946h150l100 -146h-130z" />
    <glyph glyph-name="Uacute" unicode="&#xda;" 
d="M300 -10q-55 0 -99.5 15.5t-76 44.5t-48 70.5t-16.5 93.5v506h150v-505q0 -46 23.5 -70.5t66.5 -24.5q42 0 66 24.5t24 70.5v505h150v-506q0 -52 -16.5 -93.5t-48 -70.5t-75.5 -44.5t-100 -15.5zM345 800h-130l100 146h150z" />
    <glyph glyph-name="Ucircumflex" unicode="&#xdb;" 
d="M300 -10q-55 0 -99.5 15.5t-76 44.5t-48 70.5t-16.5 93.5v506h150v-505q0 -46 23.5 -70.5t66.5 -24.5q42 0 66 24.5t24 70.5v505h150v-506q0 -52 -16.5 -93.5t-48 -70.5t-75.5 -44.5t-100 -15.5zM215 945h170l100 -145h-110l-48 57q-8 10 -13 16.5t-8 10.5q-4 4 -5 7h-2
q-1 -2 -5 -6q-2 -4 -7.5 -10t-13.5 -17l-48 -58h-110z" />
    <glyph glyph-name="Udieresis" unicode="&#xdc;" 
d="M300 -10q-55 0 -99.5 15.5t-76 44.5t-48 70.5t-16.5 93.5v506h150v-505q0 -46 23.5 -70.5t66.5 -24.5q42 0 66 24.5t24 70.5v505h150v-506q0 -52 -16.5 -93.5t-48 -70.5t-75.5 -44.5t-100 -15.5zM120 879q0 29 20.5 47t54.5 18t54.5 -18t20.5 -47q0 -31 -20.5 -49.5
t-54.5 -18.5t-54.5 18.5t-20.5 49.5zM330 879q0 29 20.5 47t54.5 18t54.5 -18t20.5 -47q0 -31 -20.5 -49.5t-54.5 -18.5t-54.5 18.5t-20.5 49.5z" />
    <glyph glyph-name="Yacute" unicode="&#xdd;" 
d="M15 720h157l107 -255q8 -17 11.5 -33t5.5 -29q2 -15 3 -28h7q1 13 3 28q2 13 6 29t11 33l103 255h156l-210 -470v-250h-150v250zM345 800h-130l100 146h150z" />
    <glyph glyph-name="Thorn" unicode="&#xde;" 
d="M70 710h150v-120h120q109 0 169.5 -56.5t60.5 -158.5q0 -101 -61 -158t-169 -57h-120v-160h-150v710zM220 465v-180h95q51 0 78 23t27 67t-27 67t-78 23h-95z" />
    <glyph glyph-name="germandbls" unicode="&#xdf;" 
d="M40 551q0 40 16.5 73t46 56.5t69.5 36.5t87 13h53q52 0 94.5 -13t73 -36.5t47 -56.5t16.5 -73v-101h-115q-30 0 -47 -14t-17 -38t11 -37t31 -18l33 -8q72 -17 109 -62.5t37 -115.5q0 -37 -13 -68t-36.5 -53t-56 -34t-70.5 -12q-36 0 -67.5 11t-55 30.5t-38 47t-18.5 61.5
h115q4 -23 21.5 -36.5t42.5 -13.5q26 0 41 17t15 45q0 30 -13 50t-36 25l-30 7q-73 17 -108 54.5t-35 103.5q0 35 12.5 64t35 50t54 32.5t68.5 11.5q0 32 -27.5 51t-73.5 19h-53q-39 0 -61.5 -19t-22.5 -51v-550h-135v551z" />
    <glyph glyph-name="agrave" unicode="&#xe0;" 
d="M43 150q0 84 61 132.5t166 48.5h119v49q0 29 -24.5 47t-66.5 18q-37 0 -61.5 -13.5t-31.5 -36.5h-145q6 38 25.5 68.5t50.5 52t72 33t90 11.5q54 0 98.5 -13t76 -36.5t49 -56.5t17.5 -74v-380h-143v110h-9q-7 -56 -52.5 -88t-115.5 -32q-81 0 -128.5 43t-47.5 117z
M280 105q48 0 78.5 22.5t30.5 57.5v56h-119q-35 0 -56 -17.5t-21 -49.5t22.5 -50.5t64.5 -18.5zM155 786h150l100 -146h-130z" />
    <glyph glyph-name="aacute" unicode="&#xe1;" 
d="M43 150q0 84 61 132.5t166 48.5h119v49q0 29 -24.5 47t-66.5 18q-37 0 -61.5 -13.5t-31.5 -36.5h-145q6 38 25.5 68.5t50.5 52t72 33t90 11.5q54 0 98.5 -13t76 -36.5t49 -56.5t17.5 -74v-380h-143v110h-9q-7 -56 -52.5 -88t-115.5 -32q-81 0 -128.5 43t-47.5 117z
M280 105q48 0 78.5 22.5t30.5 57.5v56h-119q-35 0 -56 -17.5t-21 -49.5t22.5 -50.5t64.5 -18.5zM345 640h-130l100 146h150z" />
    <glyph glyph-name="acircumflex" unicode="&#xe2;" 
d="M43 150q0 84 61 132.5t166 48.5h119v49q0 29 -24.5 47t-66.5 18q-37 0 -61.5 -13.5t-31.5 -36.5h-145q6 38 25.5 68.5t50.5 52t72 33t90 11.5q54 0 98.5 -13t76 -36.5t49 -56.5t17.5 -74v-380h-143v110h-9q-7 -56 -52.5 -88t-115.5 -32q-81 0 -128.5 43t-47.5 117z
M280 105q48 0 78.5 22.5t30.5 57.5v56h-119q-35 0 -56 -17.5t-21 -49.5t22.5 -50.5t64.5 -18.5zM215 785h170l100 -145h-110l-48 57q-8 10 -13 16.5t-8 10.5q-4 4 -5 7h-2q-1 -2 -5 -6q-2 -4 -7.5 -10t-13.5 -17l-48 -58h-110z" />
    <glyph glyph-name="atilde" unicode="&#xe3;" 
d="M43 150q0 84 61 132.5t166 48.5h119v49q0 29 -24.5 47t-66.5 18q-37 0 -61.5 -13.5t-31.5 -36.5h-145q6 38 25.5 68.5t50.5 52t72 33t90 11.5q54 0 98.5 -13t76 -36.5t49 -56.5t17.5 -74v-380h-143v110h-9q-7 -56 -52.5 -88t-115.5 -32q-81 0 -128.5 43t-47.5 117z
M280 105q48 0 78.5 22.5t30.5 57.5v56h-119q-35 0 -56 -17.5t-21 -49.5t22.5 -50.5t64.5 -18.5zM380 730q14 0 22 7.5t8 20.5v37h85v-35q0 -51 -29.5 -83t-80.5 -32q-32 0 -54.5 11t-41 24t-34.5 24t-35 11q-14 0 -22 -9t-8 -24v-32h-85v35q0 51 29.5 83t80.5 32
q32 0 54.5 -11t41 -24t34.5 -24t35 -11z" />
    <glyph glyph-name="adieresis" unicode="&#xe4;" 
d="M43 150q0 84 61 132.5t166 48.5h119v49q0 29 -24.5 47t-66.5 18q-37 0 -61.5 -13.5t-31.5 -36.5h-145q6 38 25.5 68.5t50.5 52t72 33t90 11.5q54 0 98.5 -13t76 -36.5t49 -56.5t17.5 -74v-380h-143v110h-9q-7 -56 -52.5 -88t-115.5 -32q-81 0 -128.5 43t-47.5 117z
M280 105q48 0 78.5 22.5t30.5 57.5v56h-119q-35 0 -56 -17.5t-21 -49.5t22.5 -50.5t64.5 -18.5zM120 719q0 29 20.5 47t54.5 18t54.5 -18t20.5 -47q0 -31 -20.5 -49.5t-54.5 -18.5t-54.5 18.5t-20.5 49.5zM330 719q0 29 20.5 47t54.5 18t54.5 -18t20.5 -47
q0 -31 -20.5 -49.5t-54.5 -18.5t-54.5 18.5t-20.5 49.5z" />
    <glyph glyph-name="aring" unicode="&#xe5;" 
d="M43 150q0 84 61 132.5t166 48.5h119v49q0 29 -24.5 47t-66.5 18q-37 0 -61.5 -13.5t-31.5 -36.5h-145q6 38 25.5 68.5t50.5 52t72 33t90 11.5q54 0 98.5 -13t76 -36.5t49 -56.5t17.5 -74v-380h-143v110h-9q-7 -56 -52.5 -88t-115.5 -32q-81 0 -128.5 43t-47.5 117z
M280 105q48 0 78.5 22.5t30.5 57.5v56h-119q-35 0 -56 -17.5t-21 -49.5t22.5 -50.5t64.5 -18.5zM180 710q0 48 33 76.5t87 28.5t87 -28.5t33 -76.5t-33 -76.5t-87 -28.5t-87 28.5t-33 76.5zM250 710q0 -51 49 -51q51 0 51 51t-51 51q-49 0 -49 -51z" />
    <glyph glyph-name="ae" unicode="&#xe6;" 
d="M181 560q39 0 62 -12.5t35 -27.5q13 -18 18 -40h8q5 22 19 40q12 15 35 27.5t62 12.5q69 0 107 -39.5t38 -110.5v-160h-208v-110q0 -24 13 -38.5t34 -14.5t33.5 14.5t12.5 38.5h115q0 -31 -10.5 -58.5t-29.5 -48t-45.5 -32t-59.5 -11.5q-39 0 -62 12.5t-35 27.5
q-14 18 -19 40h-8q-5 -22 -20 -40q-13 -15 -37.5 -27.5t-66.5 -12.5q-63 0 -100 40.5t-37 109.5v50q0 66 44 103t121 37h43v80q0 24 -12 38.5t-32 14.5q-23 0 -36 -17t-13 -46h-115q0 72 40 116t106 44zM199 87q21 0 32.5 14t11.5 39v110h-43q-23 0 -36.5 -16t-13.5 -44v-50
q0 -25 13 -39t36 -14zM357 330h93v80q0 24 -12.5 38.5t-33.5 14.5t-34 -14.5t-13 -38.5v-80z" />
    <glyph glyph-name="ccedilla" unicode="&#xe7;" 
d="M305 -10q-57 0 -103.5 15t-79.5 43t-51 67.5t-18 88.5v141q0 49 18 88.5t51 67.5t79.5 43.5t103.5 15.5q50 0 93 -14t76 -40t55 -63t30 -83h-150q-7 32 -35 51t-69 19q-48 0 -75 -22.5t-27 -62.5v-141q0 -40 27 -62t75 -22q40 0 68 19.5t36 51.5h150q-8 -46 -30 -83
t-55 -63.5t-76 -40.5t-93 -14zM249 16h75l-26 -51q40 -4 71 -15q27 -10 49 -28t22 -50q0 -37 -38.5 -59.5t-101.5 -22.5h-110v70h80q25 0 40 7t15 19q0 23 -30.5 36t-85.5 13z" />
    <glyph glyph-name="egrave" unicode="&#xe8;" 
d="M300 -10q-57 0 -103.5 16t-79.5 44.5t-51 69.5t-18 90v131q0 50 18 90t51 69t79.5 44.5t103.5 15.5q56 0 102 -16t79 -45t51 -69.5t18 -89.5v-100h-354v-30q0 -50 27 -77.5t77 -27.5q37 0 63 12t35 33h147q-9 -36 -31.5 -65.5t-54.5 -50.5t-72.5 -32.5t-86.5 -11.5z
M405 330v10q0 50 -27.5 77.5t-77.5 27.5q-49 0 -76.5 -27.5t-27.5 -76.5v-11h209zM155 786h150l100 -146h-130z" />
    <glyph glyph-name="eacute" unicode="&#xe9;" 
d="M300 -10q-57 0 -103.5 16t-79.5 44.5t-51 69.5t-18 90v131q0 50 18 90t51 69t79.5 44.5t103.5 15.5q56 0 102 -16t79 -45t51 -69.5t18 -89.5v-100h-354v-30q0 -50 27 -77.5t77 -27.5q37 0 63 12t35 33h147q-9 -36 -31.5 -65.5t-54.5 -50.5t-72.5 -32.5t-86.5 -11.5z
M405 330v10q0 50 -27.5 77.5t-77.5 27.5q-49 0 -76.5 -27.5t-27.5 -76.5v-11h209zM345 640h-130l100 146h150z" />
    <glyph glyph-name="ecircumflex" unicode="&#xea;" 
d="M300 -10q-57 0 -103.5 16t-79.5 44.5t-51 69.5t-18 90v131q0 50 18 90t51 69t79.5 44.5t103.5 15.5q56 0 102 -16t79 -45t51 -69.5t18 -89.5v-100h-354v-30q0 -50 27 -77.5t77 -27.5q37 0 63 12t35 33h147q-9 -36 -31.5 -65.5t-54.5 -50.5t-72.5 -32.5t-86.5 -11.5z
M405 330v10q0 50 -27.5 77.5t-77.5 27.5q-49 0 -76.5 -27.5t-27.5 -76.5v-11h209zM215 785h170l100 -145h-110l-48 57q-8 10 -13 16.5t-8 10.5q-4 4 -5 7h-2q-1 -2 -5 -6q-2 -4 -7.5 -10t-13.5 -17l-48 -58h-110z" />
    <glyph glyph-name="edieresis" unicode="&#xeb;" 
d="M300 -10q-57 0 -103.5 16t-79.5 44.5t-51 69.5t-18 90v131q0 50 18 90t51 69t79.5 44.5t103.5 15.5q56 0 102 -16t79 -45t51 -69.5t18 -89.5v-100h-354v-30q0 -50 27 -77.5t77 -27.5q37 0 63 12t35 33h147q-9 -36 -31.5 -65.5t-54.5 -50.5t-72.5 -32.5t-86.5 -11.5z
M405 330v10q0 50 -27.5 77.5t-77.5 27.5q-49 0 -76.5 -27.5t-27.5 -76.5v-11h209zM120 719q0 29 20.5 47t54.5 18t54.5 -18t20.5 -47q0 -31 -20.5 -49.5t-54.5 -18.5t-54.5 18.5t-20.5 49.5zM330 719q0 29 20.5 47t54.5 18t54.5 -18t20.5 -47q0 -31 -20.5 -49.5t-54.5 -18.5
t-54.5 18.5t-20.5 49.5z" />
    <glyph glyph-name="igrave" unicode="&#xec;" 
d="M66 136h204v279h-180v135h320v-414h155v-136h-499v136zM155 786h150l100 -146h-130z" />
    <glyph glyph-name="iacute" unicode="&#xed;" 
d="M66 136h204v279h-180v135h320v-414h155v-136h-499v136zM345 640h-130l100 146h150z" />
    <glyph glyph-name="icircumflex" unicode="&#xee;" 
d="M66 136h204v279h-180v135h320v-414h155v-136h-499v136zM215 785h170l100 -145h-110l-48 57q-8 10 -13 16.5t-8 10.5q-4 4 -5 7h-2q-1 -2 -5 -6q-2 -4 -7.5 -10t-13.5 -17l-48 -58h-110z" />
    <glyph glyph-name="idieresis" unicode="&#xef;" 
d="M66 136h204v279h-180v135h320v-414h155v-136h-499v136zM120 719q0 29 20.5 47t54.5 18t54.5 -18t20.5 -47q0 -31 -20.5 -49.5t-54.5 -18.5t-54.5 18.5t-20.5 49.5zM330 719q0 29 20.5 47t54.5 18t54.5 -18t20.5 -47q0 -31 -20.5 -49.5t-54.5 -18.5t-54.5 18.5t-20.5 49.5
z" />
    <glyph glyph-name="eth" unicode="&#xf0;" 
d="M40 236q0 50 14.5 90.5t41.5 69t64.5 44.5t82.5 16q36 0 62.5 -12.5t44.5 -27.5q20 -18 35 -41h6q-1 4 -10 18q-7 12 -22.5 34.5t-44.5 61.5l-51 70l-157 -57v105l96 35l-73 98h167l37 -51l160 58v-105l-98 -36l51 -69q60 -82 87 -152t27 -136q0 -57 -18.5 -103.5
t-52 -78.5t-81.5 -49.5t-108 -17.5q-59 0 -107 17t-82 48t-52.5 74.5t-18.5 96.5zM190 235q0 -51 29.5 -80.5t80.5 -29.5t80.5 29.5t29.5 80.5q0 50 -30 80t-80 30q-51 0 -80.5 -29.5t-29.5 -80.5z" />
    <glyph glyph-name="ntilde" unicode="&#xf1;" 
d="M61 0v550h142v-95h10q7 50 44 77.5t97 27.5q84 0 132.5 -55t48.5 -150v-355h-150v340q0 42 -23.5 66t-63.5 24t-63.5 -24t-23.5 -66v-340h-150zM380 730q14 0 22 7.5t8 20.5v37h85v-35q0 -51 -29.5 -83t-80.5 -32q-32 0 -54.5 11t-41 24t-34.5 24t-35 11q-14 0 -22 -9
t-8 -24v-32h-85v35q0 51 29.5 83t80.5 32q32 0 54.5 -11t41 -24t34.5 -24t35 -11z" />
    <glyph glyph-name="ograve" unicode="&#xf2;" 
d="M198 210q0 -41 27.5 -65t74.5 -24t74.5 24t27.5 65v131q0 41 -27.5 65t-74.5 24t-74.5 -24t-27.5 -65v-131zM48 341q0 48 18 88.5t51 69.5t79.5 45t103.5 16t103.5 -16t79.5 -45t51 -69.5t18 -88.5v-131q0 -48 -18 -88.5t-51 -70t-79.5 -45.5t-103.5 -16t-103.5 16
t-79.5 45.5t-51 70t-18 88.5v131zM155 786h150l100 -146h-130z" />
    <glyph glyph-name="oacute" unicode="&#xf3;" 
d="M198 210q0 -41 27.5 -65t74.5 -24t74.5 24t27.5 65v131q0 41 -27.5 65t-74.5 24t-74.5 -24t-27.5 -65v-131zM48 341q0 48 18 88.5t51 69.5t79.5 45t103.5 16t103.5 -16t79.5 -45t51 -69.5t18 -88.5v-131q0 -48 -18 -88.5t-51 -70t-79.5 -45.5t-103.5 -16t-103.5 16
t-79.5 45.5t-51 70t-18 88.5v131zM345 640h-130l100 146h150z" />
    <glyph glyph-name="ocircumflex" unicode="&#xf4;" 
d="M198 210q0 -41 27.5 -65t74.5 -24t74.5 24t27.5 65v131q0 41 -27.5 65t-74.5 24t-74.5 -24t-27.5 -65v-131zM48 341q0 48 18 88.5t51 69.5t79.5 45t103.5 16t103.5 -16t79.5 -45t51 -69.5t18 -88.5v-131q0 -48 -18 -88.5t-51 -70t-79.5 -45.5t-103.5 -16t-103.5 16
t-79.5 45.5t-51 70t-18 88.5v131zM215 785h170l100 -145h-110l-48 57q-8 10 -13 16.5t-8 10.5q-4 4 -5 7h-2q-1 -2 -5 -6q-2 -4 -7.5 -10t-13.5 -17l-48 -58h-110z" />
    <glyph glyph-name="otilde" unicode="&#xf5;" 
d="M198 210q0 -41 27.5 -65t74.5 -24t74.5 24t27.5 65v131q0 41 -27.5 65t-74.5 24t-74.5 -24t-27.5 -65v-131zM48 341q0 48 18 88.5t51 69.5t79.5 45t103.5 16t103.5 -16t79.5 -45t51 -69.5t18 -88.5v-131q0 -48 -18 -88.5t-51 -70t-79.5 -45.5t-103.5 -16t-103.5 16
t-79.5 45.5t-51 70t-18 88.5v131zM380 730q14 0 22 7.5t8 20.5v37h85v-35q0 -51 -29.5 -83t-80.5 -32q-32 0 -54.5 11t-41 24t-34.5 24t-35 11q-14 0 -22 -9t-8 -24v-32h-85v35q0 51 29.5 83t80.5 32q32 0 54.5 -11t41 -24t34.5 -24t35 -11z" />
    <glyph glyph-name="odieresis" unicode="&#xf6;" 
d="M198 210q0 -41 27.5 -65t74.5 -24t74.5 24t27.5 65v131q0 41 -27.5 65t-74.5 24t-74.5 -24t-27.5 -65v-131zM48 341q0 48 18 88.5t51 69.5t79.5 45t103.5 16t103.5 -16t79.5 -45t51 -69.5t18 -88.5v-131q0 -48 -18 -88.5t-51 -70t-79.5 -45.5t-103.5 -16t-103.5 16
t-79.5 45.5t-51 70t-18 88.5v131zM120 719q0 29 20.5 47t54.5 18t54.5 -18t20.5 -47q0 -31 -20.5 -49.5t-54.5 -18.5t-54.5 18.5t-20.5 49.5zM330 719q0 29 20.5 47t54.5 18t54.5 -18t20.5 -47q0 -31 -20.5 -49.5t-54.5 -18.5t-54.5 18.5t-20.5 49.5z" />
    <glyph glyph-name="divide" unicode="&#xf7;" 
d="M100 400h400v-140h-400v140zM285 600h30q34 0 54.5 -19t20.5 -51t-20.5 -51t-55.5 -19h-29q-34 0 -54.5 19t-20.5 51t20.5 51t54.5 19zM285 200h30q34 0 54.5 -19t20.5 -51t-20.5 -51t-55.5 -19h-29q-34 0 -54.5 19t-20.5 51t20.5 51t54.5 19z" />
    <glyph glyph-name="oslash" unicode="&#xf8;" 
d="M25 -30l73 102q-24 28 -37 62.5t-13 75.5v131q0 48 18 88.5t51 69.5t79.5 45t103.5 16q72 0 127 -26l33 46h115l-72 -101q23 -28 36 -62.5t13 -75.5v-131q0 -48 -18 -88.5t-51 -70t-79.5 -45.5t-103.5 -16q-72 0 -127 26l-33 -46h-115zM347 422q-21 8 -47 8
q-47 0 -74.5 -24t-27.5 -65v-128zM253 129q22 -8 47 -8q47 0 74.5 24t27.5 65v127z" />
    <glyph glyph-name="ugrave" unicode="&#xf9;" 
d="M65 550h150v-335q0 -95 85 -95t85 95v335h150v-336q0 -106 -62.5 -165t-172.5 -59q-112 0 -173.5 59.5t-61.5 164.5v336zM155 786h150l100 -146h-130z" />
    <glyph glyph-name="uacute" unicode="&#xfa;" 
d="M65 550h150v-335q0 -95 85 -95t85 95v335h150v-336q0 -106 -62.5 -165t-172.5 -59q-112 0 -173.5 59.5t-61.5 164.5v336zM345 640h-130l100 146h150z" />
    <glyph glyph-name="ucircumflex" unicode="&#xfb;" 
d="M65 550h150v-335q0 -95 85 -95t85 95v335h150v-336q0 -106 -62.5 -165t-172.5 -59q-112 0 -173.5 59.5t-61.5 164.5v336zM215 785h170l100 -145h-110l-48 57q-8 10 -13 16.5t-8 10.5q-4 4 -5 7h-2q-1 -2 -5 -6q-2 -4 -7.5 -10t-13.5 -17l-48 -58h-110z" />
    <glyph glyph-name="udieresis" unicode="&#xfc;" 
d="M65 550h150v-335q0 -95 85 -95t85 95v335h150v-336q0 -106 -62.5 -165t-172.5 -59q-112 0 -173.5 59.5t-61.5 164.5v336zM120 719q0 29 20.5 47t54.5 18t54.5 -18t20.5 -47q0 -31 -20.5 -49.5t-54.5 -18.5t-54.5 18.5t-20.5 49.5zM330 719q0 29 20.5 47t54.5 18t54.5 -18
t20.5 -47q0 -31 -20.5 -49.5t-54.5 -18.5t-54.5 18.5t-20.5 49.5z" />
    <glyph glyph-name="yacute" unicode="&#xfd;" 
d="M187 550l96 -277q5 -15 9 -34t6 -36q2 -21 4 -41h9q1 20 3 41q2 17 5 36t8 34l91 277h157l-257 -715h-157l75 190l-211 525h162zM345 640h-130l100 146h150z" />
    <glyph glyph-name="thorn" unicode="&#xfe;" 
d="M213 730v-180q0 -14 -0.5 -30.5t-1.5 -30.5q-2 -17 -3 -34h10q8 49 45.5 77t96.5 28q44 0 79 -15t60.5 -43t39 -68t13.5 -89v-135q0 -51 -13.5 -91.5t-39 -69t-60.5 -44t-79 -15.5q-59 0 -96.5 28t-45.5 78h-9v-46l4 -215h-150v895h150zM308 430q-43 0 -69 -24.5
t-26 -65.5v-130q0 -39 25 -64t70 -25t69.5 26t24.5 68v125q0 42 -25.5 66t-68.5 24z" />
    <glyph glyph-name="ydieresis" unicode="&#xff;" 
d="M187 550l96 -277q5 -15 9 -34t6 -36q2 -21 4 -41h9q1 20 3 41q2 17 5 36t8 34l91 277h157l-257 -715h-157l75 190l-211 525h162zM120 719q0 29 20.5 47t54.5 18t54.5 -18t20.5 -47q0 -31 -20.5 -49.5t-54.5 -18.5t-54.5 18.5t-20.5 49.5zM330 719q0 29 20.5 47t54.5 18
t54.5 -18t20.5 -47q0 -31 -20.5 -49.5t-54.5 -18.5t-54.5 18.5t-20.5 49.5z" />
    <glyph glyph-name="Amacron" unicode="&#x100;" 
d="M10 0l192 720h200l188 -720h-152l-38 165h-201l-38 -165h-151zM372 282l-55 237q-3 15 -6 32.5t-5 33.5q-2 17 -4 35h-6q-2 -18 -5 -35q-2 -16 -4.5 -33.5t-6.5 -32.5l-54 -237h146zM150 945h300v-130h-300v130z" />
    <glyph glyph-name="amacron" unicode="&#x101;" 
d="M43 150q0 84 61 132.5t166 48.5h119v49q0 29 -24.5 47t-66.5 18q-37 0 -61.5 -13.5t-31.5 -36.5h-145q6 38 25.5 68.5t50.5 52t72 33t90 11.5q54 0 98.5 -13t76 -36.5t49 -56.5t17.5 -74v-380h-143v110h-9q-7 -56 -52.5 -88t-115.5 -32q-81 0 -128.5 43t-47.5 117z
M280 105q48 0 78.5 22.5t30.5 57.5v56h-119q-35 0 -56 -17.5t-21 -49.5t22.5 -50.5t64.5 -18.5zM150 785h300v-130h-300v130z" />
    <glyph glyph-name="Abreve" unicode="&#x102;" 
d="M10 0l192 720h200l188 -720h-152l-38 165h-201l-38 -165h-151zM372 282l-55 237q-3 15 -6 32.5t-5 33.5q-2 17 -4 35h-6q-2 -18 -5 -35q-2 -16 -4.5 -33.5t-6.5 -32.5l-54 -237h146zM235 940q0 -27 17 -41t47 -14q32 0 49 14t17 41h115q0 -33 -13 -59.5t-36.5 -45.5
t-56.5 -29.5t-74 -10.5q-40 0 -73.5 10.5t-57 29.5t-36.5 45.5t-13 59.5h115z" />
    <glyph glyph-name="abreve" unicode="&#x103;" 
d="M43 150q0 84 61 132.5t166 48.5h119v49q0 29 -24.5 47t-66.5 18q-37 0 -61.5 -13.5t-31.5 -36.5h-145q6 38 25.5 68.5t50.5 52t72 33t90 11.5q54 0 98.5 -13t76 -36.5t49 -56.5t17.5 -74v-380h-143v110h-9q-7 -56 -52.5 -88t-115.5 -32q-81 0 -128.5 43t-47.5 117z
M280 105q48 0 78.5 22.5t30.5 57.5v56h-119q-35 0 -56 -17.5t-21 -49.5t22.5 -50.5t64.5 -18.5zM235 780q0 -27 17 -41t47 -14q32 0 49 14t17 41h115q0 -33 -13 -59.5t-36.5 -45.5t-56.5 -29.5t-74 -10.5q-40 0 -73.5 10.5t-57 29.5t-36.5 45.5t-13 59.5h115z" />
    <glyph glyph-name="Aogonek" unicode="&#x104;" 
d="M10 0l192 720h200l188 -720h-152l-38 165h-201l-38 -165h-151zM372 282l-55 237q-3 15 -6 32.5t-5 33.5q-2 17 -4 35h-6q-2 -18 -5 -35q-2 -16 -4.5 -33.5t-6.5 -32.5l-54 -237h146zM560 11l-21 -17q-25 -21 -36 -40t-11 -36q0 -20 12.5 -31.5t33.5 -11.5h69v-85h-98
q-59 0 -95 27t-36 72q0 31 16.5 59t55.5 63h110z" />
    <glyph glyph-name="aogonek" unicode="&#x105;" 
d="M43 150q0 84 61 132.5t166 48.5h119v49q0 29 -24.5 47t-66.5 18q-37 0 -61.5 -13.5t-31.5 -36.5h-145q6 38 25.5 68.5t50.5 52t72 33t90 11.5q54 0 98.5 -13t76 -36.5t49 -56.5t17.5 -74v-380h-143v110h-9q-7 -56 -52.5 -88t-115.5 -32q-81 0 -128.5 43t-47.5 117z
M280 105q48 0 78.5 22.5t30.5 57.5v56h-119q-35 0 -56 -17.5t-21 -49.5t22.5 -50.5t64.5 -18.5zM516 11l-21 -17q-25 -21 -36 -40t-11 -36q0 -20 12.5 -31.5t33.5 -11.5h69v-85h-98q-59 0 -95 27t-36 72q0 31 16.5 59t55.5 63h110z" />
    <glyph glyph-name="Cacute" unicode="&#x106;" 
d="M305 730q56 0 102 -16t79 -45.5t51 -71t18 -92.5h-150q0 42 -27 66t-73 24q-47 0 -74.5 -24t-27.5 -66v-290q0 -42 26.5 -66t74.5 -24q47 0 74 25t27 65h150q0 -51 -18 -92.5t-51 -71t-79 -45.5t-103 -16t-103 16t-79 45.5t-51 71t-18 92.5v290q0 51 18 92.5t51 71
t79.5 45.5t103.5 16zM345 800h-130l100 146h150z" />
    <glyph glyph-name="cacute" unicode="&#x107;" 
d="M305 -10q-57 0 -103.5 15t-79.5 43t-51 67.5t-18 88.5v141q0 49 18 88.5t51 67.5t79.5 43.5t103.5 15.5q50 0 93 -14t76 -40t55 -63t30 -83h-150q-7 32 -35 51t-69 19q-48 0 -75 -22.5t-27 -62.5v-141q0 -40 27 -62t75 -22q40 0 68 19.5t36 51.5h150q-8 -46 -30 -83
t-55 -63.5t-76 -40.5t-93 -14zM345 640h-130l100 146h150z" />
    <glyph glyph-name="Ccircumflex" unicode="&#x108;" 
d="M305 730q56 0 102 -16t79 -45.5t51 -71t18 -92.5h-150q0 42 -27 66t-73 24q-47 0 -74.5 -24t-27.5 -66v-290q0 -42 26.5 -66t74.5 -24q47 0 74 25t27 65h150q0 -51 -18 -92.5t-51 -71t-79 -45.5t-103 -16t-103 16t-79 45.5t-51 71t-18 92.5v290q0 51 18 92.5t51 71
t79.5 45.5t103.5 16zM215 945h170l100 -145h-110l-48 57q-8 10 -13 16.5t-8 10.5q-4 4 -5 7h-2q-1 -2 -5 -6q-2 -4 -7.5 -10t-13.5 -17l-48 -58h-110z" />
    <glyph glyph-name="ccircumflex" unicode="&#x109;" 
d="M305 -10q-57 0 -103.5 15t-79.5 43t-51 67.5t-18 88.5v141q0 49 18 88.5t51 67.5t79.5 43.5t103.5 15.5q50 0 93 -14t76 -40t55 -63t30 -83h-150q-7 32 -35 51t-69 19q-48 0 -75 -22.5t-27 -62.5v-141q0 -40 27 -62t75 -22q40 0 68 19.5t36 51.5h150q-8 -46 -30 -83
t-55 -63.5t-76 -40.5t-93 -14zM215 785h170l100 -145h-110l-48 57q-8 10 -13 16.5t-8 10.5q-4 4 -5 7h-2q-1 -2 -5 -6q-2 -4 -7.5 -10t-13.5 -17l-48 -58h-110z" />
    <glyph glyph-name="Cdotaccent" unicode="&#x10a;" 
d="M305 730q56 0 102 -16t79 -45.5t51 -71t18 -92.5h-150q0 42 -27 66t-73 24q-47 0 -74.5 -24t-27.5 -66v-290q0 -42 26.5 -66t74.5 -24q47 0 74 25t27 65h150q0 -51 -18 -92.5t-51 -71t-79 -45.5t-103 -16t-103 16t-79 45.5t-51 71t-18 92.5v290q0 51 18 92.5t51 71
t79.5 45.5t103.5 16zM275 955h30q34 0 54.5 -19t20.5 -51t-20.5 -51t-55.5 -19h-29q-34 0 -54.5 19t-20.5 51t20.5 51t54.5 19z" />
    <glyph glyph-name="cdotaccent" unicode="&#x10b;" 
d="M305 -10q-57 0 -103.5 15t-79.5 43t-51 67.5t-18 88.5v141q0 49 18 88.5t51 67.5t79.5 43.5t103.5 15.5q50 0 93 -14t76 -40t55 -63t30 -83h-150q-7 32 -35 51t-69 19q-48 0 -75 -22.5t-27 -62.5v-141q0 -40 27 -62t75 -22q40 0 68 19.5t36 51.5h150q-8 -46 -30 -83
t-55 -63.5t-76 -40.5t-93 -14zM275 795h30q34 0 54.5 -19t20.5 -51t-20.5 -51t-55.5 -19h-29q-34 0 -54.5 19t-20.5 51t20.5 51t54.5 19z" />
    <glyph glyph-name="Ccaron" unicode="&#x10c;" 
d="M305 730q56 0 102 -16t79 -45.5t51 -71t18 -92.5h-150q0 42 -27 66t-73 24q-47 0 -74.5 -24t-27.5 -66v-290q0 -42 26.5 -66t74.5 -24q47 0 74 25t27 65h150q0 -51 -18 -92.5t-51 -71t-79 -45.5t-103 -16t-103 16t-79 45.5t-51 71t-18 92.5v290q0 51 18 92.5t51 71
t79.5 45.5t103.5 16zM115 945h110l48 -58q17 -19 21 -27q4 -4 5 -6h2q1 3 5 7q3 5 8 11t13 16l48 57h110l-100 -145h-170z" />
    <glyph glyph-name="ccaron" unicode="&#x10d;" 
d="M305 -10q-57 0 -103.5 15t-79.5 43t-51 67.5t-18 88.5v141q0 49 18 88.5t51 67.5t79.5 43.5t103.5 15.5q50 0 93 -14t76 -40t55 -63t30 -83h-150q-7 32 -35 51t-69 19q-48 0 -75 -22.5t-27 -62.5v-141q0 -40 27 -62t75 -22q40 0 68 19.5t36 51.5h150q-8 -46 -30 -83
t-55 -63.5t-76 -40.5t-93 -14zM115 785h110l48 -58q17 -19 21 -27q4 -4 5 -6h2q1 3 5 7q3 5 8 11t13 16l48 57h110l-100 -145h-170z" />
    <glyph glyph-name="Dcaron" unicode="&#x10e;" 
d="M300 140q46 0 74 26t28 69v251q0 42 -28 68t-74 26h-87v-440h87zM63 0v720h237q57 0 103.5 -16.5t79.5 -47.5t51 -74t18 -96v-251q0 -53 -18 -96.5t-51 -74t-79.5 -47.5t-103.5 -17h-237zM115 945h110l48 -58q17 -19 21 -27q4 -4 5 -6h2q1 3 5 7q3 5 8 11t13 16l48 57
h110l-100 -145h-170z" />
    <glyph glyph-name="dcaron" unicode="&#x10f;" 
d="M38 210v135q0 49 13.5 89t39 68t61 43t78.5 15q59 0 96.5 -28t45.5 -77h10l-2 34q-2 15 -2.5 31.5t-0.5 29.5v180h150v-730h-145v96h-10q-8 -50 -45.5 -78t-96.5 -28q-43 0 -78.5 15.5t-61 44t-39 69t-13.5 91.5zM282 121q45 0 70 25t25 64v130q0 41 -26 65.5t-69 24.5
t-68.5 -24t-25.5 -66v-125q0 -42 24.5 -68t69.5 -26zM580 756h90l-65 -146h-70z" />
    <glyph glyph-name="Dcroat" unicode="&#x110;" 
d="M63 425v295h237q57 0 103.5 -16.5t79.5 -47.5t51 -74t18 -96v-251q0 -53 -18 -96.5t-51 -74t-79.5 -47.5t-103.5 -17h-237v290h-43v135h43zM300 425v-135h-87v-150h87q46 0 74 26t28 69v251q0 42 -28 68t-74 26h-87v-155h87z" />
    <glyph glyph-name="dcroat" unicode="&#x111;" 
d="M48 210v135q0 49 13.5 89t39 68t61 43t78.5 15q59 0 96.5 -28t45.5 -77h10l-2 34q-2 15 -2.5 31.5t-0.5 29.5v30h-97v90h97v60h150v-60h53v-90h-53v-580h-145v96h-10q-8 -50 -45.5 -78t-96.5 -28q-43 0 -78.5 15.5t-61 44t-39 69t-13.5 91.5zM198 215q0 -42 24.5 -68
t69.5 -26t70 25t25 64v130q0 41 -26 65.5t-69 24.5t-68.5 -24t-25.5 -66v-125z" />
    <glyph glyph-name="Emacron" unicode="&#x112;" 
d="M80 0v720h455v-130h-305v-156h270v-130h-270v-174h305v-130h-455zM150 945h300v-130h-300v130z" />
    <glyph glyph-name="emacron" unicode="&#x113;" 
d="M300 -10q-57 0 -103.5 16t-79.5 44.5t-51 69.5t-18 90v131q0 50 18 90t51 69t79.5 44.5t103.5 15.5q56 0 102 -16t79 -45t51 -69.5t18 -89.5v-100h-354v-30q0 -50 27 -77.5t77 -27.5q37 0 63 12t35 33h147q-9 -36 -31.5 -65.5t-54.5 -50.5t-72.5 -32.5t-86.5 -11.5z
M405 330v10q0 50 -27.5 77.5t-77.5 27.5q-49 0 -76.5 -27.5t-27.5 -76.5v-11h209zM150 785h300v-130h-300v130z" />
    <glyph glyph-name="Ebreve" unicode="&#x114;" 
d="M80 0v720h455v-130h-305v-156h270v-130h-270v-174h305v-130h-455zM235 940q0 -27 17 -41t47 -14q32 0 49 14t17 41h115q0 -33 -13 -59.5t-36.5 -45.5t-56.5 -29.5t-74 -10.5q-40 0 -73.5 10.5t-57 29.5t-36.5 45.5t-13 59.5h115z" />
    <glyph glyph-name="ebreve" unicode="&#x115;" 
d="M300 -10q-57 0 -103.5 16t-79.5 44.5t-51 69.5t-18 90v131q0 50 18 90t51 69t79.5 44.5t103.5 15.5q56 0 102 -16t79 -45t51 -69.5t18 -89.5v-100h-354v-30q0 -50 27 -77.5t77 -27.5q37 0 63 12t35 33h147q-9 -36 -31.5 -65.5t-54.5 -50.5t-72.5 -32.5t-86.5 -11.5z
M405 330v10q0 50 -27.5 77.5t-77.5 27.5q-49 0 -76.5 -27.5t-27.5 -76.5v-11h209zM235 780q0 -27 17 -41t47 -14q32 0 49 14t17 41h115q0 -33 -13 -59.5t-36.5 -45.5t-56.5 -29.5t-74 -10.5q-40 0 -73.5 10.5t-57 29.5t-36.5 45.5t-13 59.5h115z" />
    <glyph glyph-name="Edotaccent" unicode="&#x116;" 
d="M80 0v720h455v-130h-305v-156h270v-130h-270v-174h305v-130h-455zM275 955h30q34 0 54.5 -19t20.5 -51t-20.5 -51t-55.5 -19h-29q-34 0 -54.5 19t-20.5 51t20.5 51t54.5 19z" />
    <glyph glyph-name="edotaccent" unicode="&#x117;" 
d="M300 -10q-57 0 -103.5 16t-79.5 44.5t-51 69.5t-18 90v131q0 50 18 90t51 69t79.5 44.5t103.5 15.5q56 0 102 -16t79 -45t51 -69.5t18 -89.5v-100h-354v-30q0 -50 27 -77.5t77 -27.5q37 0 63 12t35 33h147q-9 -36 -31.5 -65.5t-54.5 -50.5t-72.5 -32.5t-86.5 -11.5z
M405 330v10q0 50 -27.5 77.5t-77.5 27.5q-49 0 -76.5 -27.5t-27.5 -76.5v-11h209zM275 795h30q34 0 54.5 -19t20.5 -51t-20.5 -51t-55.5 -19h-29q-34 0 -54.5 19t-20.5 51t20.5 51t54.5 19z" />
    <glyph glyph-name="Eogonek" unicode="&#x118;" 
d="M80 0v720h455v-130h-305v-156h270v-130h-270v-174h305v-130h-455zM477 11l-21 -17q-25 -21 -36 -40t-11 -36q0 -20 12.5 -31.5t33.5 -11.5h69v-85h-98q-59 0 -95 27t-36 72q0 31 16.5 59t55.5 63h110z" />
    <glyph glyph-name="eogonek" unicode="&#x119;" 
d="M300 -10q-57 0 -103.5 16t-79.5 44.5t-51 69.5t-18 90v131q0 50 18 90t51 69t79.5 44.5t103.5 15.5q56 0 102 -16t79 -45t51 -69.5t18 -89.5v-100h-354v-30q0 -50 27 -77.5t77 -27.5q37 0 63 12t35 33h147q-10 -36 -32.5 -65.5t-54.5 -50.5l-47 -40q-25 -21 -36 -40
t-11 -36q0 -20 12.5 -31.5t33.5 -11.5h90v-85h-109q-66 0 -103.5 24t-37.5 66q0 49 65 110h-15zM405 330v10q0 50 -27.5 77.5t-77.5 27.5q-49 0 -76.5 -27.5t-27.5 -76.5v-11h209z" />
    <glyph glyph-name="Ecaron" unicode="&#x11a;" 
d="M80 0v720h455v-130h-305v-156h270v-130h-270v-174h305v-130h-455zM115 945h110l48 -58q17 -19 21 -27q4 -4 5 -6h2q1 3 5 7q3 5 8 11t13 16l48 57h110l-100 -145h-170z" />
    <glyph glyph-name="ecaron" unicode="&#x11b;" 
d="M300 -10q-57 0 -103.5 16t-79.5 44.5t-51 69.5t-18 90v131q0 50 18 90t51 69t79.5 44.5t103.5 15.5q56 0 102 -16t79 -45t51 -69.5t18 -89.5v-100h-354v-30q0 -50 27 -77.5t77 -27.5q37 0 63 12t35 33h147q-9 -36 -31.5 -65.5t-54.5 -50.5t-72.5 -32.5t-86.5 -11.5z
M405 330v10q0 50 -27.5 77.5t-77.5 27.5q-49 0 -76.5 -27.5t-27.5 -76.5v-11h209zM115 785h110l48 -58q17 -19 21 -27q4 -4 5 -6h2q1 3 5 7q3 5 8 11t13 16l48 57h110l-100 -145h-170z" />
    <glyph glyph-name="Gcircumflex" unicode="&#x11c;" 
d="M290 400h262v-185q0 -51 -18 -92.5t-51 -71t-79.5 -45.5t-103.5 -16t-103.5 16t-79.5 45.5t-51 71t-18 92.5v290q0 50 18 90.5t51 69t79.5 44.5t103.5 16q53 0 97 -14.5t77 -42t53 -66.5t25 -87h-150q-4 35 -31.5 55t-70.5 20q-47 0 -74.5 -23.5t-27.5 -61.5v-290
q0 -43 27.5 -68.5t74.5 -25.5t74.5 25.5t27.5 68.5v58h-112v127zM215 945h170l100 -145h-110l-48 57q-8 10 -13 16.5t-8 10.5q-4 4 -5 7h-2q-1 -2 -5 -6q-2 -4 -7.5 -10t-13.5 -17l-48 -58h-110z" />
    <glyph glyph-name="gcircumflex" unicode="&#x11d;" 
d="M48 345q0 48 13.5 88t38.5 68t60.5 43.5t78.5 15.5q63 0 102 -30t44 -80h7v100h145v-521q0 -44 -17 -79.5t-48 -61t-75 -39.5t-97 -14h-155v120h155q39 0 63 20.5t24 53.5v6l5 116h-7q-6 -50 -45 -80t-102 -30q-43 0 -78 15.5t-60 43.5t-38.5 68t-13.5 88v89zM198 261
q0 -42 25.5 -66t68.5 -24t69 24.5t26 65.5v79q0 41 -26 65.5t-69 24.5t-68.5 -24t-25.5 -66v-79zM215 785h170l100 -145h-110l-48 57q-8 10 -13 16.5t-8 10.5q-4 4 -5 7h-2q-1 -2 -5 -6q-2 -4 -7.5 -10t-13.5 -17l-48 -58h-110z" />
    <glyph glyph-name="Gbreve" unicode="&#x11e;" 
d="M290 400h262v-185q0 -51 -18 -92.5t-51 -71t-79.5 -45.5t-103.5 -16t-103.5 16t-79.5 45.5t-51 71t-18 92.5v290q0 50 18 90.5t51 69t79.5 44.5t103.5 16q53 0 97 -14.5t77 -42t53 -66.5t25 -87h-150q-4 35 -31.5 55t-70.5 20q-47 0 -74.5 -23.5t-27.5 -61.5v-290
q0 -43 27.5 -68.5t74.5 -25.5t74.5 25.5t27.5 68.5v58h-112v127zM235 940q0 -27 17 -41t47 -14q32 0 49 14t17 41h115q0 -33 -13 -59.5t-36.5 -45.5t-56.5 -29.5t-74 -10.5q-40 0 -73.5 10.5t-57 29.5t-36.5 45.5t-13 59.5h115z" />
    <glyph glyph-name="gbreve" unicode="&#x11f;" 
d="M48 345q0 48 13.5 88t38.5 68t60.5 43.5t78.5 15.5q63 0 102 -30t44 -80h7v100h145v-521q0 -44 -17 -79.5t-48 -61t-75 -39.5t-97 -14h-155v120h155q39 0 63 20.5t24 53.5v6l5 116h-7q-6 -50 -45 -80t-102 -30q-43 0 -78 15.5t-60 43.5t-38.5 68t-13.5 88v89zM198 261
q0 -42 25.5 -66t68.5 -24t69 24.5t26 65.5v79q0 41 -26 65.5t-69 24.5t-68.5 -24t-25.5 -66v-79zM235 780q0 -27 17 -41t47 -14q32 0 49 14t17 41h115q0 -33 -13 -59.5t-36.5 -45.5t-56.5 -29.5t-74 -10.5q-40 0 -73.5 10.5t-57 29.5t-36.5 45.5t-13 59.5h115z" />
    <glyph glyph-name="Gdotaccent" unicode="&#x120;" 
d="M290 400h262v-185q0 -51 -18 -92.5t-51 -71t-79.5 -45.5t-103.5 -16t-103.5 16t-79.5 45.5t-51 71t-18 92.5v290q0 50 18 90.5t51 69t79.5 44.5t103.5 16q53 0 97 -14.5t77 -42t53 -66.5t25 -87h-150q-4 35 -31.5 55t-70.5 20q-47 0 -74.5 -23.5t-27.5 -61.5v-290
q0 -43 27.5 -68.5t74.5 -25.5t74.5 25.5t27.5 68.5v58h-112v127zM275 955h30q34 0 54.5 -19t20.5 -51t-20.5 -51t-55.5 -19h-29q-34 0 -54.5 19t-20.5 51t20.5 51t54.5 19z" />
    <glyph glyph-name="gdotaccent" unicode="&#x121;" 
d="M48 345q0 48 13.5 88t38.5 68t60.5 43.5t78.5 15.5q63 0 102 -30t44 -80h7v100h145v-521q0 -44 -17 -79.5t-48 -61t-75 -39.5t-97 -14h-155v120h155q39 0 63 20.5t24 53.5v6l5 116h-7q-6 -50 -45 -80t-102 -30q-43 0 -78 15.5t-60 43.5t-38.5 68t-13.5 88v89zM198 261
q0 -42 25.5 -66t68.5 -24t69 24.5t26 65.5v79q0 41 -26 65.5t-69 24.5t-68.5 -24t-25.5 -66v-79zM275 795h30q34 0 54.5 -19t20.5 -51t-20.5 -51t-55.5 -19h-29q-34 0 -54.5 19t-20.5 51t20.5 51t54.5 19z" />
    <glyph glyph-name="uni0122" unicode="&#x122;" 
d="M290 400h262v-185q0 -51 -18 -92.5t-51 -71t-79.5 -45.5t-103.5 -16t-103.5 16t-79.5 45.5t-51 71t-18 92.5v290q0 50 18 90.5t51 69t79.5 44.5t103.5 16q53 0 97 -14.5t77 -42t53 -66.5t25 -87h-150q-4 35 -31.5 55t-70.5 20q-47 0 -74.5 -23.5t-27.5 -61.5v-290
q0 -43 27.5 -68.5t74.5 -25.5t74.5 25.5t27.5 68.5v58h-112v127zM425 -95l-125 -150h-125l85 150h165z" />
    <glyph glyph-name="uni0123" unicode="&#x123;" 
d="M48 345q0 48 13.5 88t38.5 68t60.5 43.5t78.5 15.5q63 0 102 -30t44 -80h7v100h145v-521q0 -44 -17 -79.5t-48 -61t-75 -39.5t-97 -14h-155v120h155q39 0 63 20.5t24 53.5v6l5 116h-7q-6 -50 -45 -80t-102 -30q-43 0 -78 15.5t-60 43.5t-38.5 68t-13.5 88v89zM198 261
q0 -42 25.5 -66t68.5 -24t69 24.5t26 65.5v79q0 41 -26 65.5t-69 24.5t-68.5 -24t-25.5 -66v-79zM175.026 689.994l124.992 149.991h124.992l-84.9951 -149.991h-164.989z" />
    <glyph glyph-name="Hcircumflex" unicode="&#x124;" 
d="M215 720v-276h170v276h150v-720h-150v304h-170v-304h-150v720h150zM215 945h170l100 -145h-110l-48 57q-8 10 -13 16.5t-8 10.5q-4 4 -5 7h-2q-1 -2 -5 -6q-2 -4 -7.5 -10t-13.5 -17l-48 -58h-110z" />
    <glyph glyph-name="hcircumflex" unicode="&#x125;" 
d="M61 730h150v-180q0 -15 -1.5 -32t-3.5 -31t-3 -23l-1 -9h11q7 50 44 77.5t97 27.5q84 0 132.5 -55t48.5 -150v-355h-150v340q0 42 -23.5 66t-63.5 24t-63.5 -24t-23.5 -66v-340h-150v730zM65 945h170l100 -145h-110l-48 57q-8 10 -13 16.5t-8 10.5q-4 4 -5 7h-2
q-1 -2 -5 -6q-2 -4 -7.5 -10t-13.5 -17l-48 -58h-110z" />
    <glyph glyph-name="Hbar" unicode="&#x126;" 
d="M575 620v-100h-40v-520h-150v304h-170v-304h-150v520h-40v100h40v100h150v-100h170v100h150v-100h40zM215 520v-76h170v76h-170z" />
    <glyph glyph-name="hbar" unicode="&#x127;" 
d="M211 595v-45q0 -15 -1.5 -32t-3.5 -31t-3 -23l-1 -9h11q7 50 44 77.5t97 27.5q84 0 132.5 -55t48.5 -150v-355h-150v340q0 42 -23.5 66t-63.5 24t-63.5 -24t-23.5 -66v-340h-150v595h-61v85h61v50h150v-50h99v-85h-99z" />
    <glyph glyph-name="Itilde" unicode="&#x128;" 
d="M75 0v130h150v460h-150v130h450v-130h-150v-460h150v-130h-450zM380 890q14 0 22 7.5t8 20.5v37h85v-35q0 -51 -29.5 -83t-80.5 -32q-32 0 -54.5 11t-41 24t-34.5 24t-35 11q-14 0 -22 -9t-8 -24v-32h-85v35q0 51 29.5 83t80.5 32q32 0 54.5 -11t41 -24t34.5 -24t35 -11z
" />
    <glyph glyph-name="itilde" unicode="&#x129;" 
d="M66 136h204v279h-180v135h320v-414h155v-136h-499v136zM380 730q14 0 22 7.5t8 20.5v37h85v-35q0 -51 -29.5 -83t-80.5 -32q-32 0 -54.5 11t-41 24t-34.5 24t-35 11q-14 0 -22 -9t-8 -24v-32h-85v35q0 51 29.5 83t80.5 32q32 0 54.5 -11t41 -24t34.5 -24t35 -11z" />
    <glyph glyph-name="Imacron" unicode="&#x12a;" 
d="M75 0v130h150v460h-150v130h450v-130h-150v-460h150v-130h-450zM150 945h300v-130h-300v130z" />
    <glyph glyph-name="imacron" unicode="&#x12b;" 
d="M66 136h204v279h-180v135h320v-414h155v-136h-499v136zM150 785h300v-130h-300v130z" />
    <glyph glyph-name="Ibreve" unicode="&#x12c;" 
d="M75 0v130h150v460h-150v130h450v-130h-150v-460h150v-130h-450zM235 940q0 -27 17 -41t47 -14q32 0 49 14t17 41h115q0 -33 -13 -59.5t-36.5 -45.5t-56.5 -29.5t-74 -10.5q-40 0 -73.5 10.5t-57 29.5t-36.5 45.5t-13 59.5h115z" />
    <glyph glyph-name="ibreve" unicode="&#x12d;" 
d="M66 136h204v279h-180v135h320v-414h155v-136h-499v136zM235 780q0 -27 17 -41t47 -14q32 0 49 14t17 41h115q0 -33 -13 -59.5t-36.5 -45.5t-56.5 -29.5t-74 -10.5q-40 0 -73.5 10.5t-57 29.5t-36.5 45.5t-13 59.5h115z" />
    <glyph glyph-name="Iogonek" unicode="&#x12e;" 
d="M75 0v130h150v460h-150v130h450v-130h-150v-460h150v-130h-450zM363 11l-21 -17q-25 -21 -36 -40t-11 -36q0 -20 12.5 -31.5t33.5 -11.5h69v-85h-98q-59 0 -95 27t-36 72q0 31 16.5 59t55.5 63h110z" />
    <glyph glyph-name="iogonek" unicode="&#x12f;" 
d="M75 136h195v279h-170v135h310v-414h155v-136h-490v136zM240 695q0 32 20.5 51t54.5 19h30q34 0 54.5 -19t20.5 -51t-20.5 -51t-55.5 -19h-29q-34 0 -54.5 19t-20.5 51zM398 11l-21 -17q-25 -21 -36 -40t-11 -36q0 -20 12.5 -31.5t33.5 -11.5h69v-85h-98q-59 0 -95 27
t-36 72q0 31 16.5 59t55.5 63h110z" />
    <glyph glyph-name="Idotaccent" unicode="&#x130;" 
d="M75 0v130h150v460h-150v130h450v-130h-150v-460h150v-130h-450zM275 955h30q34 0 54.5 -19t20.5 -51t-20.5 -51t-55.5 -19h-29q-34 0 -54.5 19t-20.5 51t20.5 51t54.5 19z" />
    <glyph glyph-name="dotlessi" unicode="&#x131;" 
d="M66 136h204v279h-180v135h320v-414h155v-136h-499v136z" />
    <glyph glyph-name="IJ" unicode="&#x132;" 
d="M255 130h50q48 0 74 24.5t26 69.5v356h-140v140h290v-496q0 -108 -64.5 -166t-185.5 -58h-50v130zM45 0v720h150v-720h-150z" />
    <glyph glyph-name="ij" unicode="&#x133;" 
d="M299 -35q39 0 60.5 17t21.5 48v520h150v-520q0 -43 -17 -78.5t-48 -61.5t-73.5 -40.5t-93.5 -14.5h-79v130h79zM221 550v-550h-140v550h140zM437 625q-34 0 -54.5 19t-20.5 51t20.5 51t54.5 19h30q34 0 54.5 -19t20.5 -51t-20.5 -51t-55.5 -19h-29zM57 695q0 32 20.5 51
t54.5 19h30q34 0 54.5 -19t20.5 -51t-20.5 -51t-55.5 -19h-29q-34 0 -54.5 19t-20.5 51z" />
    <glyph glyph-name="Jcircumflex" unicode="&#x134;" 
d="M270 119q46 0 73 27t27 72v363h-240v140h390v-503q0 -53 -17.5 -95.5t-50 -72t-78.5 -45.5t-104 -16q-56 0 -101.5 15.5t-78 44t-50.5 69.5t-20 92h150q2 -41 29 -66t71 -25zM245 945h170l100 -145h-110l-48 57q-8 10 -13 16.5t-8 10.5q-4 4 -5 7h-2q-1 -2 -5 -6
q-2 -4 -7.5 -10t-13.5 -17l-48 -58h-110z" />
    <glyph glyph-name="jcircumflex" unicode="&#x135;" 
d="M235 785h170l100 -145h-110l-48 57q-8 10 -13 16.5t-8 10.5q-4 4 -5 7h-2q-1 -2 -5 -6q-2 -4 -7.5 -10t-13.5 -17l-48 -58h-110zM325 410h-215v140h365v-500q0 -48 -16.5 -88t-47 -68t-73.5 -43.5t-95 -15.5h-153v140h153q37 0 59.5 20.5t22.5 54.5v360z" />
    <glyph glyph-name="uni0136" unicode="&#x136;" 
d="M215 720v-282h76l120 282h163l-150 -348l156 -372h-165l-124 300h-76v-300h-150v720h150zM425 -95l-125 -150h-125l85 150h165z" />
    <glyph glyph-name="uni0137" unicode="&#x137;" 
d="M220 730v-388h74l115 208h167l-153 -269l156 -281h-170l-116 216h-73v-216h-150v730h150zM425 -95l-125 -150h-125l85 150h165z" />
    <glyph glyph-name="kgreenlandic" unicode="&#x138;" 
d="M220 550v-208h74l117 208h165l-149 -269l152 -281h-169l-116 216h-74v-216h-150v550h150z" />
    <glyph glyph-name="Lacute" unicode="&#x139;" 
d="M245 720v-580h295v-140h-445v720h150zM245 800h-130l100 146h150z" />
    <glyph glyph-name="lacute" unicode="&#x13a;" 
d="M345 730v-540q0 -26 14.5 -40.5t40.5 -14.5h165v-135h-180q-89 0 -139.5 50.5t-50.5 139.5v405h-170v135h320zM345 800h-130l100 146h150z" />
    <glyph glyph-name="uni013B" unicode="&#x13b;" 
d="M245 720v-580h295v-140h-445v720h150zM425 -95l-125 -150h-125l85 150h165z" />
    <glyph glyph-name="uni013C" unicode="&#x13c;" 
d="M345 730v-540q0 -26 14.5 -40.5t40.5 -14.5h165v-135h-180q-89 0 -139.5 50.5t-50.5 139.5v405h-170v135h320zM425 -95l-125 -150h-125l85 150h165z" />
    <glyph glyph-name="Lcaron" unicode="&#x13d;" 
d="M245 720v-580h295v-140h-445v720h150zM485 610h-130l100 146h150z" />
    <glyph glyph-name="lcaron" unicode="&#x13e;" 
d="M345 730v-540q0 -26 14.5 -40.5t40.5 -14.5h165v-135h-180q-89 0 -139.5 50.5t-50.5 139.5v405h-170v135h320zM545 610h-130l100 146h150z" />
    <glyph glyph-name="Ldot" unicode="&#x13f;" 
d="M245 720v-580h295v-140h-445v720h150zM325 356q0 48 28.5 77t76.5 29t76.5 -29t28.5 -77q0 -47 -28.5 -75.5t-76.5 -28.5t-76.5 28.5t-28.5 75.5z" />
    <glyph glyph-name="ldot" unicode="&#x140;" 
d="M325 730v-540q0 -26 14.5 -40.5t40.5 -14.5h165v-135h-180q-89 0 -139.5 50.5t-50.5 139.5v405h-170v135h320zM365 356q0 48 28.5 77t76.5 29t76.5 -29t28.5 -77q0 -47 -28.5 -75.5t-76.5 -28.5t-76.5 28.5t-28.5 75.5z" />
    <glyph glyph-name="Lslash" unicode="&#x141;" 
d="M20 370l85 43v307h150v-232l145 72v-140l-145 -72v-208h295v-140h-445v273l-85 -43v140z" />
    <glyph glyph-name="lslash" unicode="&#x142;" 
d="M25 730h320v-237l135 67v-140l-135 -67v-163q0 -26 14.5 -40.5t40.5 -14.5h165v-135h-180q-89 0 -139.5 50.5t-50.5 139.5v88l-95 -48v140l95 48v177h-170v135z" />
    <glyph glyph-name="Nacute" unicode="&#x143;" 
d="M58 720h182l160 -477q5 -14 8 -33.5t5 -36.5q2 -21 4 -43h14l-2.5 18t-5.5 45t-6 58.5t-3 57.5v411h128v-720h-182l-157 477q-5 17 -9 36.5t-6 36.5q-2 20 -3 40h-14q4 -30 8 -61q2 -26 4.5 -57t2.5 -60v-412h-128v720zM345 800h-130l100 146h150z" />
    <glyph glyph-name="nacute" unicode="&#x144;" 
d="M61 0v550h142v-95h10q7 50 44 77.5t97 27.5q84 0 132.5 -55t48.5 -150v-355h-150v340q0 42 -23.5 66t-63.5 24t-63.5 -24t-23.5 -66v-340h-150zM345 640h-130l100 146h150z" />
    <glyph glyph-name="uni0145" unicode="&#x145;" 
d="M58 720h182l160 -477q5 -14 8 -33.5t5 -36.5q2 -21 4 -43h14l-2.5 18t-5.5 45t-6 58.5t-3 57.5v411h128v-720h-182l-157 477q-5 17 -9 36.5t-6 36.5q-2 20 -3 40h-14q4 -30 8 -61q2 -26 4.5 -57t2.5 -60v-412h-128v720zM425 -95l-125 -150h-125l85 150h165z" />
    <glyph glyph-name="uni0146" unicode="&#x146;" 
d="M61 0v550h142v-95h10q7 50 44 77.5t97 27.5q84 0 132.5 -55t48.5 -150v-355h-150v340q0 42 -23.5 66t-63.5 24t-63.5 -24t-23.5 -66v-340h-150zM425 -95l-125 -150h-125l85 150h165z" />
    <glyph glyph-name="Ncaron" unicode="&#x147;" 
d="M58 720h182l160 -477q5 -14 8 -33.5t5 -36.5q2 -21 4 -43h14l-2.5 18t-5.5 45t-6 58.5t-3 57.5v411h128v-720h-182l-157 477q-5 17 -9 36.5t-6 36.5q-2 20 -3 40h-14q4 -30 8 -61q2 -26 4.5 -57t2.5 -60v-412h-128v720zM115 945h110l48 -58q17 -19 21 -27q4 -4 5 -6h2
q1 3 5 7q3 5 8 11t13 16l48 57h110l-100 -145h-170z" />
    <glyph glyph-name="ncaron" unicode="&#x148;" 
d="M61 0v550h142v-95h10q7 50 44 77.5t97 27.5q84 0 132.5 -55t48.5 -150v-355h-150v340q0 42 -23.5 66t-63.5 24t-63.5 -24t-23.5 -66v-340h-150zM115 785h110l48 -58q17 -19 21 -27q4 -4 5 -6h2q1 3 5 7q3 5 8 11t13 16l48 57h110l-100 -145h-170z" />
    <glyph glyph-name="napostrophe" unicode="&#x149;" 
d="M61 0v550h142v-95h10q7 50 44 77.5t97 27.5q84 0 132.5 -55t48.5 -150v-355h-150v340q0 42 -23.5 66t-63.5 24t-63.5 -24t-23.5 -66v-340h-150zM215 735l-125 -150h-125l85 150h165z" />
    <glyph glyph-name="Eng" unicode="&#x14a;" 
d="M55 0v710h185l163 -392q7 -15 11 -33.5t6 -35.5q3 -20 5 -39h9l-2.5 15t-6.5 38.5t-7 51.5t-3 54v341h130v-670q0 -45 -17.5 -83t-49.5 -65t-76 -42t-97 -15h-70v145h80q38 0 59 20t21 56l-194 446q-8 19 -12.5 38t-6.5 34q-2 19 -3 36h-7q4 -24 7 -51q2 -23 4 -50.5
t2 -56.5v-452h-130z" />
    <glyph glyph-name="eng" unicode="&#x14b;" 
d="M203 550v-105h13q7 55 41.5 85t95.5 30q86 0 134 -56.5t48 -153.5v-310q0 -45 -17.5 -83t-49.5 -65t-76 -42t-97 -15h-50v145h60q38 0 59 20t21 56v284q0 42 -23.5 66t-63.5 24t-63.5 -24t-23.5 -66v-340h-150v550h142z" />
    <glyph glyph-name="Omacron" unicode="&#x14c;" 
d="M198 215q0 -43 27.5 -68.5t74.5 -25.5t74.5 25.5t27.5 68.5v291q0 43 -27.5 68.5t-74.5 25.5t-74.5 -25.5t-27.5 -68.5v-291zM48 506q0 51 18 92t51 70.5t79.5 45.5t103.5 16t103.5 -16t79.5 -45.5t51 -70.5t18 -92v-291q0 -50 -18.5 -91.5t-51.5 -71t-79.5 -46
t-102.5 -16.5q-57 0 -103.5 16t-79.5 45.5t-51 71t-18 92.5v291zM150 945h300v-130h-300v130z" />
    <glyph glyph-name="omacron" unicode="&#x14d;" 
d="M198 210q0 -41 27.5 -65t74.5 -24t74.5 24t27.5 65v131q0 41 -27.5 65t-74.5 24t-74.5 -24t-27.5 -65v-131zM48 341q0 48 18 88.5t51 69.5t79.5 45t103.5 16t103.5 -16t79.5 -45t51 -69.5t18 -88.5v-131q0 -48 -18 -88.5t-51 -70t-79.5 -45.5t-103.5 -16t-103.5 16
t-79.5 45.5t-51 70t-18 88.5v131zM150 785h300v-130h-300v130z" />
    <glyph glyph-name="Obreve" unicode="&#x14e;" 
d="M198 215q0 -43 27.5 -68.5t74.5 -25.5t74.5 25.5t27.5 68.5v291q0 43 -27.5 68.5t-74.5 25.5t-74.5 -25.5t-27.5 -68.5v-291zM48 506q0 51 18 92t51 70.5t79.5 45.5t103.5 16t103.5 -16t79.5 -45.5t51 -70.5t18 -92v-291q0 -50 -18.5 -91.5t-51.5 -71t-79.5 -46
t-102.5 -16.5q-57 0 -103.5 16t-79.5 45.5t-51 71t-18 92.5v291zM235 940q0 -27 17 -41t47 -14q32 0 49 14t17 41h115q0 -33 -13 -59.5t-36.5 -45.5t-56.5 -29.5t-74 -10.5q-40 0 -73.5 10.5t-57 29.5t-36.5 45.5t-13 59.5h115z" />
    <glyph glyph-name="obreve" unicode="&#x14f;" 
d="M198 210q0 -41 27.5 -65t74.5 -24t74.5 24t27.5 65v131q0 41 -27.5 65t-74.5 24t-74.5 -24t-27.5 -65v-131zM48 341q0 48 18 88.5t51 69.5t79.5 45t103.5 16t103.5 -16t79.5 -45t51 -69.5t18 -88.5v-131q0 -48 -18 -88.5t-51 -70t-79.5 -45.5t-103.5 -16t-103.5 16
t-79.5 45.5t-51 70t-18 88.5v131zM235 780q0 -27 17 -41t47 -14q32 0 49 14t17 41h115q0 -33 -13 -59.5t-36.5 -45.5t-56.5 -29.5t-74 -10.5q-40 0 -73.5 10.5t-57 29.5t-36.5 45.5t-13 59.5h115z" />
    <glyph glyph-name="Ohungarumlaut" unicode="&#x150;" 
d="M198 215q0 -43 27.5 -68.5t74.5 -25.5t74.5 25.5t27.5 68.5v291q0 43 -27.5 68.5t-74.5 25.5t-74.5 -25.5t-27.5 -68.5v-291zM48 506q0 51 18 92t51 70.5t79.5 45.5t103.5 16t103.5 -16t79.5 -45.5t51 -70.5t18 -92v-291q0 -50 -18.5 -91.5t-51.5 -71t-79.5 -46
t-102.5 -16.5q-57 0 -103.5 16t-79.5 45.5t-51 71t-18 92.5v291zM340.01 946h-149.991l-99.9941 -146h129.992zM570.01 946h-149.991l-99.9941 -146h129.992z" />
    <glyph glyph-name="ohungarumlaut" unicode="&#x151;" 
d="M198 210q0 -41 27.5 -65t74.5 -24t74.5 24t27.5 65v131q0 41 -27.5 65t-74.5 24t-74.5 -24t-27.5 -65v-131zM48 341q0 48 18 88.5t51 69.5t79.5 45t103.5 16t103.5 -16t79.5 -45t51 -69.5t18 -88.5v-131q0 -48 -18 -88.5t-51 -70t-79.5 -45.5t-103.5 -16t-103.5 16
t-79.5 45.5t-51 70t-18 88.5v131zM340.01 786h-149.991l-99.9941 -146h129.992zM570.01 786h-149.991l-99.9941 -146h129.992z" />
    <glyph glyph-name="OE" unicode="&#x152;" 
d="M30 531q0 94 38 146.5t107 52.5q38 0 59.5 -14t32.5 -31q13 -20 18 -45h5v80h290v-125h-161v-163h136v-126h-136v-180h161v-126h-290v86h-5q-5 -25 -18 -45q-11 -17 -32.5 -31t-59.5 -14q-69 0 -107 52.5t-38 146.5v336zM170 195q0 -35 15.5 -54.5t41.5 -19.5
q27 0 42 19.5t15 54.5v336q0 35 -15 54.5t-42 19.5q-26 0 -41.5 -19.5t-15.5 -54.5v-336z" />
    <glyph glyph-name="oe" unicode="&#x153;" 
d="M35 410q0 69 39 109.5t106 40.5q38 0 61 -12.5t35 -27.5q15 -18 20 -40h8q6 22 20 40q13 15 35.5 27.5t60.5 12.5q67 0 106 -40.5t39 -109.5v-160h-208v-110q0 -24 13 -38.5t34 -14.5q17 0 29 10.5t14 27.5h115q-10 -63 -48 -99t-94 -36q-38 0 -60.5 12.5t-35.5 27.5
q-14 18 -20 40h-8q-5 -22 -20 -40q-12 -15 -35 -27.5t-61 -12.5q-66 0 -105.5 40.5t-39.5 109.5v270zM197 463q-21 0 -34 -14.5t-13 -38.5v-270q0 -24 13 -38.5t34 -14.5t33.5 14.5t12.5 38.5v270q0 24 -12.5 38.5t-33.5 14.5zM357 330h93v80q0 24 -12.5 38.5t-33.5 14.5
t-34 -14.5t-13 -38.5v-80z" />
    <glyph glyph-name="Racute" unicode="&#x154;" 
d="M65 720h240q59 0 106 -15.5t80 -44t51 -69t18 -91.5q0 -70 -34 -120t-94 -76l138 -304h-160l-122 280h-74v-280h-149v720zM214 395h91q49 0 77 26.5t28 71.5q0 47 -28.5 74.5t-76.5 27.5h-91v-200zM345 800h-130l100 146h150z" />
    <glyph glyph-name="racute" unicode="&#x155;" 
d="M82 550h142v-95h10q8 51 47 78t103 27q91 0 141 -55.5t50 -154.5v-45h-160v35q0 45 -26 70t-71 25q-40 0 -63 -25.5t-23 -69.5v-340h-150v550zM345 640h-130l100 146h150z" />
    <glyph glyph-name="uni0156" unicode="&#x156;" 
d="M65 720h240q59 0 106 -15.5t80 -44t51 -69t18 -91.5q0 -70 -34 -120t-94 -76l138 -304h-160l-122 280h-74v-280h-149v720zM214 395h91q49 0 77 26.5t28 71.5q0 47 -28.5 74.5t-76.5 27.5h-91v-200zM425 -95l-125 -150h-125l85 150h165z" />
    <glyph glyph-name="uni0157" unicode="&#x157;" 
d="M82 550h142v-95h10q8 51 47 78t103 27q91 0 141 -55.5t50 -154.5v-45h-160v35q0 45 -26 70t-71 25q-40 0 -63 -25.5t-23 -69.5v-340h-150v550zM425 -95l-125 -150h-125l85 150h165z" />
    <glyph glyph-name="Rcaron" unicode="&#x158;" 
d="M65 720h240q59 0 106 -15.5t80 -44t51 -69t18 -91.5q0 -70 -34 -120t-94 -76l138 -304h-160l-122 280h-74v-280h-149v720zM214 395h91q49 0 77 26.5t28 71.5q0 47 -28.5 74.5t-76.5 27.5h-91v-200zM115 945h110l48 -58q17 -19 21 -27q4 -4 5 -6h2q1 3 5 7q3 5 8 11t13 16
l48 57h110l-100 -145h-170z" />
    <glyph glyph-name="rcaron" unicode="&#x159;" 
d="M82 550h142v-95h10q8 51 47 78t103 27q91 0 141 -55.5t50 -154.5v-45h-160v35q0 45 -26 70t-71 25q-40 0 -63 -25.5t-23 -69.5v-340h-150v550zM115 785h110l48 -58q17 -19 21 -27q4 -4 5 -6h2q1 3 5 7q3 5 8 11t13 16l48 57h110l-100 -145h-170z" />
    <glyph glyph-name="Sacute" unicode="&#x15a;" 
d="M300 -10q-56 0 -102 14.5t-79 41t-52 64.5t-22 85h150q8 -75 108 -75q50 0 76 21.5t26 57.5q0 32 -20.5 55t-56.5 31l-76 17q-98 22 -148.5 78.5t-50.5 144.5q0 46 17.5 84t49.5 65t77.5 42t102.5 15q107 0 171.5 -53t71.5 -147h-150q-4 33 -29.5 51.5t-67.5 18.5
q-44 0 -68.5 -21t-24.5 -53q0 -28 19 -48.5t55 -28.5l80 -18q97 -22 147.5 -79.5t50.5 -146.5q0 -48 -18 -87.5t-51.5 -68t-80.5 -44.5t-105 -16zM345 800h-130l100 146h150z" />
    <glyph glyph-name="sacute" unicode="&#x15b;" 
d="M274 -10q-103 0 -161 39.5t-68 115.5h150q7 -23 27.5 -35t51.5 -12h50q42 0 64 15t22 43q0 49 -80 58l-75 8q-103 11 -151.5 52.5t-48.5 118.5q0 81 56.5 124t162.5 43h50q100 0 156.5 -38t65.5 -113h-150q-11 44 -72 44h-50q-74 0 -74 -50q0 -48 68 -56l80 -9
q207 -24 207 -176q0 -85 -59 -128.5t-172 -43.5h-50zM345 640h-130l100 146h150z" />
    <glyph glyph-name="Scircumflex" unicode="&#x15c;" 
d="M300 -10q-56 0 -102 14.5t-79 41t-52 64.5t-22 85h150q8 -75 108 -75q50 0 76 21.5t26 57.5q0 32 -20.5 55t-56.5 31l-76 17q-98 22 -148.5 78.5t-50.5 144.5q0 46 17.5 84t49.5 65t77.5 42t102.5 15q107 0 171.5 -53t71.5 -147h-150q-4 33 -29.5 51.5t-67.5 18.5
q-44 0 -68.5 -21t-24.5 -53q0 -28 19 -48.5t55 -28.5l80 -18q97 -22 147.5 -79.5t50.5 -146.5q0 -48 -18 -87.5t-51.5 -68t-80.5 -44.5t-105 -16zM215 945h170l100 -145h-110l-48 57q-8 10 -13 16.5t-8 10.5q-4 4 -5 7h-2q-1 -2 -5 -6q-2 -4 -7.5 -10t-13.5 -17l-48 -58
h-110z" />
    <glyph glyph-name="scircumflex" unicode="&#x15d;" 
d="M274 -10q-103 0 -161 39.5t-68 115.5h150q7 -23 27.5 -35t51.5 -12h50q42 0 64 15t22 43q0 49 -80 58l-75 8q-103 11 -151.5 52.5t-48.5 118.5q0 81 56.5 124t162.5 43h50q100 0 156.5 -38t65.5 -113h-150q-11 44 -72 44h-50q-74 0 -74 -50q0 -48 68 -56l80 -9
q207 -24 207 -176q0 -85 -59 -128.5t-172 -43.5h-50zM215 785h170l100 -145h-110l-48 57q-8 10 -13 16.5t-8 10.5q-4 4 -5 7h-2q-1 -2 -5 -6q-2 -4 -7.5 -10t-13.5 -17l-48 -58h-110z" />
    <glyph glyph-name="Scedilla" unicode="&#x15e;" 
d="M300 -10q-56 0 -102 14.5t-79 41t-52 64.5t-22 85h150q8 -75 108 -75q50 0 76 21.5t26 57.5q0 32 -20.5 55t-56.5 31l-76 17q-98 22 -148.5 78.5t-50.5 144.5q0 46 17.5 84t49.5 65t77.5 42t102.5 15q107 0 171.5 -53t71.5 -147h-150q-4 33 -29.5 51.5t-67.5 18.5
q-44 0 -68.5 -21t-24.5 -53q0 -28 19 -48.5t55 -28.5l80 -18q97 -22 147.5 -79.5t50.5 -146.5q0 -48 -18 -87.5t-51.5 -68t-80.5 -44.5t-105 -16zM249 16h75l-26 -51q40 -4 71 -15q27 -10 49 -28t22 -50q0 -37 -38.5 -59.5t-101.5 -22.5h-110v70h80q25 0 40 7t15 19
q0 23 -30.5 36t-85.5 13z" />
    <glyph glyph-name="scedilla" unicode="&#x15f;" 
d="M274 -10q-103 0 -161 39.5t-68 115.5h150q7 -23 27.5 -35t51.5 -12h50q42 0 64 15t22 43q0 49 -80 58l-75 8q-103 11 -151.5 52.5t-48.5 118.5q0 81 56.5 124t162.5 43h50q100 0 156.5 -38t65.5 -113h-150q-11 44 -72 44h-50q-74 0 -74 -50q0 -48 68 -56l80 -9
q207 -24 207 -176q0 -85 -59 -128.5t-172 -43.5h-50zM249 16h75l-26 -51q40 -4 71 -15q27 -10 49 -28t22 -50q0 -37 -38.5 -59.5t-101.5 -22.5h-110v70h80q25 0 40 7t15 19q0 23 -30.5 36t-85.5 13z" />
    <glyph glyph-name="Scaron" unicode="&#x160;" 
d="M300 -10q-56 0 -102 14.5t-79 41t-52 64.5t-22 85h150q8 -75 108 -75q50 0 76 21.5t26 57.5q0 32 -20.5 55t-56.5 31l-76 17q-98 22 -148.5 78.5t-50.5 144.5q0 46 17.5 84t49.5 65t77.5 42t102.5 15q107 0 171.5 -53t71.5 -147h-150q-4 33 -29.5 51.5t-67.5 18.5
q-44 0 -68.5 -21t-24.5 -53q0 -28 19 -48.5t55 -28.5l80 -18q97 -22 147.5 -79.5t50.5 -146.5q0 -48 -18 -87.5t-51.5 -68t-80.5 -44.5t-105 -16zM115 945h110l48 -58q17 -19 21 -27q4 -4 5 -6h2q1 3 5 7q3 5 8 11t13 16l48 57h110l-100 -145h-170z" />
    <glyph glyph-name="scaron" unicode="&#x161;" 
d="M274 -10q-103 0 -161 39.5t-68 115.5h150q7 -23 27.5 -35t51.5 -12h50q42 0 64 15t22 43q0 49 -80 58l-75 8q-103 11 -151.5 52.5t-48.5 118.5q0 81 56.5 124t162.5 43h50q100 0 156.5 -38t65.5 -113h-150q-11 44 -72 44h-50q-74 0 -74 -50q0 -48 68 -56l80 -9
q207 -24 207 -176q0 -85 -59 -128.5t-172 -43.5h-50zM115 785h110l48 -58q17 -19 21 -27q4 -4 5 -6h2q1 3 5 7q3 5 8 11t13 16l48 57h110l-100 -145h-170z" />
    <glyph glyph-name="uni0162" unicode="&#x162;" 
d="M35 720h530v-140h-190v-580h-150v580h-190v140zM279 16h75l-26 -51q40 -4 71 -15q27 -10 49 -28t22 -50q0 -37 -38.5 -59.5t-101.5 -22.5h-110v70h80q25 0 40 7t15 19q0 23 -30.5 36t-85.5 13z" />
    <glyph glyph-name="uni0163" unicode="&#x163;" 
d="M35 550h145v170h150v-170h205v-135h-205v-225q0 -26 14.5 -40.5t40.5 -14.5h140v-135h-155q-89 0 -139.5 50.5t-50.5 139.5v225h-145v135zM309 16h75l-26 -51q40 -4 71 -15q27 -10 49 -28t22 -50q0 -37 -38.5 -59.5t-101.5 -22.5h-110v70h80q25 0 40 7t15 19
q0 23 -30.5 36t-85.5 13z" />
    <glyph glyph-name="Tcaron" unicode="&#x164;" 
d="M35 720h530v-140h-190v-580h-150v580h-190v140zM115 945h110l48 -58q17 -19 21 -27q4 -4 5 -6h2q1 3 5 7q3 5 8 11t13 16l48 57h110l-100 -145h-170z" />
    <glyph glyph-name="tcaron" unicode="&#x165;" 
d="M35 415v135h145v170h150v-170h205v-135h-205v-225q0 -26 14.5 -40.5t40.5 -14.5h140v-135h-155q-89 0 -139.5 50.5t-50.5 139.5v225h-145zM445 610l45 146h100l-65 -146h-80z" />
    <glyph glyph-name="Tbar" unicode="&#x166;" 
d="M35 720h530v-140h-190v-580h-150v580h-190v140zM150 405h300v-130h-300v130z" />
    <glyph glyph-name="tbar" unicode="&#x167;" 
d="M35 550h145v170h150v-170h205v-135h-205v-225q0 -26 14.5 -40.5t40.5 -14.5h140v-135h-155q-89 0 -139.5 50.5t-50.5 139.5v225h-145v135zM109 335h300v-130h-300v130z" />
    <glyph glyph-name="Utilde" unicode="&#x168;" 
d="M300 -10q-55 0 -99.5 15.5t-76 44.5t-48 70.5t-16.5 93.5v506h150v-505q0 -46 23.5 -70.5t66.5 -24.5q42 0 66 24.5t24 70.5v505h150v-506q0 -52 -16.5 -93.5t-48 -70.5t-75.5 -44.5t-100 -15.5zM380 890q14 0 22 7.5t8 20.5v37h85v-35q0 -51 -29.5 -83t-80.5 -32
q-32 0 -54.5 11t-41 24t-34.5 24t-35 11q-14 0 -22 -9t-8 -24v-32h-85v35q0 51 29.5 83t80.5 32q32 0 54.5 -11t41 -24t34.5 -24t35 -11z" />
    <glyph glyph-name="utilde" unicode="&#x169;" 
d="M65 550h150v-335q0 -95 85 -95t85 95v335h150v-336q0 -106 -62.5 -165t-172.5 -59q-112 0 -173.5 59.5t-61.5 164.5v336zM380 730q14 0 22 7.5t8 20.5v37h85v-35q0 -51 -29.5 -83t-80.5 -32q-32 0 -54.5 11t-41 24t-34.5 24t-35 11q-14 0 -22 -9t-8 -24v-32h-85v35
q0 51 29.5 83t80.5 32q32 0 54.5 -11t41 -24t34.5 -24t35 -11z" />
    <glyph glyph-name="Umacron" unicode="&#x16a;" 
d="M300 -10q-55 0 -99.5 15.5t-76 44.5t-48 70.5t-16.5 93.5v506h150v-505q0 -46 23.5 -70.5t66.5 -24.5q42 0 66 24.5t24 70.5v505h150v-506q0 -52 -16.5 -93.5t-48 -70.5t-75.5 -44.5t-100 -15.5zM150 945h300v-130h-300v130z" />
    <glyph glyph-name="umacron" unicode="&#x16b;" 
d="M65 550h150v-335q0 -95 85 -95t85 95v335h150v-336q0 -106 -62.5 -165t-172.5 -59q-112 0 -173.5 59.5t-61.5 164.5v336zM150 785h300v-130h-300v130z" />
    <glyph glyph-name="Ubreve" unicode="&#x16c;" 
d="M300 -10q-55 0 -99.5 15.5t-76 44.5t-48 70.5t-16.5 93.5v506h150v-505q0 -46 23.5 -70.5t66.5 -24.5q42 0 66 24.5t24 70.5v505h150v-506q0 -52 -16.5 -93.5t-48 -70.5t-75.5 -44.5t-100 -15.5zM235 940q0 -27 17 -41t47 -14q32 0 49 14t17 41h115q0 -33 -13 -59.5
t-36.5 -45.5t-56.5 -29.5t-74 -10.5q-40 0 -73.5 10.5t-57 29.5t-36.5 45.5t-13 59.5h115z" />
    <glyph glyph-name="ubreve" unicode="&#x16d;" 
d="M65 550h150v-335q0 -95 85 -95t85 95v335h150v-336q0 -106 -62.5 -165t-172.5 -59q-112 0 -173.5 59.5t-61.5 164.5v336zM235 780q0 -27 17 -41t47 -14q32 0 49 14t17 41h115q0 -33 -13 -59.5t-36.5 -45.5t-56.5 -29.5t-74 -10.5q-40 0 -73.5 10.5t-57 29.5t-36.5 45.5
t-13 59.5h115z" />
    <glyph glyph-name="Uring" unicode="&#x16e;" 
d="M300 -10q-55 0 -99.5 15.5t-76 44.5t-48 70.5t-16.5 93.5v506h150v-505q0 -46 23.5 -70.5t66.5 -24.5q42 0 66 24.5t24 70.5v505h150v-506q0 -52 -16.5 -93.5t-48 -70.5t-75.5 -44.5t-100 -15.5zM180 870q0 48 33 76.5t87 28.5t87 -28.5t33 -76.5t-33 -76.5t-87 -28.5
t-87 28.5t-33 76.5zM250 870q0 -51 49 -51q51 0 51 51t-51 51q-49 0 -49 -51z" />
    <glyph glyph-name="uring" unicode="&#x16f;" 
d="M65 550h150v-335q0 -95 85 -95t85 95v335h150v-336q0 -106 -62.5 -165t-172.5 -59q-112 0 -173.5 59.5t-61.5 164.5v336zM180 710q0 48 33 76.5t87 28.5t87 -28.5t33 -76.5t-33 -76.5t-87 -28.5t-87 28.5t-33 76.5zM250 710q0 -51 49 -51q51 0 51 51t-51 51
q-49 0 -49 -51z" />
    <glyph glyph-name="Uhungarumlaut" unicode="&#x170;" 
d="M300 -10q-55 0 -99.5 15.5t-76 44.5t-48 70.5t-16.5 93.5v506h150v-505q0 -46 23.5 -70.5t66.5 -24.5q42 0 66 24.5t24 70.5v505h150v-506q0 -52 -16.5 -93.5t-48 -70.5t-75.5 -44.5t-100 -15.5zM340.01 946h-149.991l-99.9941 -146h129.992zM570.01 946h-149.991
l-99.9941 -146h129.992z" />
    <glyph glyph-name="uhungarumlaut" unicode="&#x171;" 
d="M65 550h150v-335q0 -95 85 -95t85 95v335h150v-336q0 -106 -62.5 -165t-172.5 -59q-112 0 -173.5 59.5t-61.5 164.5v336zM340.01 786h-149.991l-99.9941 -146h129.992zM570.01 786h-149.991l-99.9941 -146h129.992z" />
    <glyph glyph-name="Uogonek" unicode="&#x172;" 
d="M300 -10q-55 0 -99.5 15.5t-76 44.5t-48 70.5t-16.5 93.5v506h150v-505q0 -46 23.5 -70.5t66.5 -24.5q42 0 66 24.5t24 70.5v505h150v-506q0 -52 -16.5 -93.5t-48 -70.5t-75.5 -44.5t-100 -15.5zM441 11l-21 -17q-25 -21 -36 -40t-11 -36q0 -20 12.5 -31.5t33.5 -11.5h69
v-85h-98q-59 0 -95 27t-36 72q0 31 16.5 59t55.5 63h110z" />
    <glyph glyph-name="uogonek" unicode="&#x173;" 
d="M65 550h150v-335q0 -95 85 -95t85 95v335h150v-336q0 -106 -62.5 -165t-172.5 -59q-112 0 -173.5 59.5t-61.5 164.5v336zM357 11l-21 -17q-25 -21 -36 -40t-11 -36q0 -20 12.5 -31.5t33.5 -11.5h69v-85h-98q-59 0 -95 27t-36 72q0 31 16.5 59t55.5 63h110z" />
    <glyph glyph-name="Wcircumflex" unicode="&#x174;" 
d="M123 720l37 -478q2 -15 2 -39v-47v-56h11v56q0 23 0.5 47t2.5 39l56 478h138l53 -478q2 -15 2.5 -39t1.5 -47q1 -27 1 -56h11v56q0 23 0.5 47t1.5 39l35 478h114l-73 -720h-156l-51 475q-2 18 -2.5 42.5t-1.5 47.5v55h-10v-55q-1 -23 -2 -47.5t-3 -42.5l-56 -475h-153
l-72 720h113zM215 945h170l100 -145h-110l-48 57q-8 10 -13 16.5t-8 10.5q-4 4 -5 7h-2q-1 -2 -5 -6q-2 -4 -7.5 -10t-13.5 -17l-48 -58h-110z" />
    <glyph glyph-name="wcircumflex" unicode="&#x175;" 
d="M109 550l38 -317q2 -15 3.5 -39t3.5 -47q2 -28 3 -57h11q3 30 6 57q3 23 6.5 47.5l5.5 38.5l53 317h124l53 -317q3 -15 5.5 -39t4.5 -47q3 -28 5 -57h11q2 29 4 57q2 23 4 47t4 39l36 317h100l-73 -550h-153l-51 330q-2 12 -3 34t-2 43q-1 25 -2 53h-8q-1 -28 -2 -53
q-1 -22 -2.5 -43.5t-3.5 -33.5l-54 -330h-154l-72 550h99zM215 785h170l100 -145h-110l-48 57q-8 10 -13 16.5t-8 10.5q-4 4 -5 7h-2q-1 -2 -5 -6q-2 -4 -7.5 -10t-13.5 -17l-48 -58h-110z" />
    <glyph glyph-name="Ycircumflex" unicode="&#x176;" 
d="M15 720h157l107 -255q8 -17 11.5 -33t5.5 -29q2 -15 3 -28h7q1 13 3 28q2 13 6 29t11 33l103 255h156l-210 -470v-250h-150v250zM215 945h170l100 -145h-110l-48 57q-8 10 -13 16.5t-8 10.5q-4 4 -5 7h-2q-1 -2 -5 -6q-2 -4 -7.5 -10t-13.5 -17l-48 -58h-110z" />
    <glyph glyph-name="ycircumflex" unicode="&#x177;" 
d="M187 550l96 -277q5 -15 9 -34t6 -36q2 -21 4 -41h9q1 20 3 41q2 17 5 36t8 34l91 277h157l-257 -715h-157l75 190l-211 525h162zM215 785h170l100 -145h-110l-48 57q-8 10 -13 16.5t-8 10.5q-4 4 -5 7h-2q-1 -2 -5 -6q-2 -4 -7.5 -10t-13.5 -17l-48 -58h-110z" />
    <glyph glyph-name="Ydieresis" unicode="&#x178;" 
d="M15 720h157l107 -255q8 -17 11.5 -33t5.5 -29q2 -15 3 -28h7q1 13 3 28q2 13 6 29t11 33l103 255h156l-210 -470v-250h-150v250zM120 879q0 29 20.5 47t54.5 18t54.5 -18t20.5 -47q0 -31 -20.5 -49.5t-54.5 -18.5t-54.5 18.5t-20.5 49.5zM330 879q0 29 20.5 47t54.5 18
t54.5 -18t20.5 -47q0 -31 -20.5 -49.5t-54.5 -18.5t-54.5 18.5t-20.5 49.5z" />
    <glyph glyph-name="Zacute" unicode="&#x179;" 
d="M514 720v-141l-274 -443v-2l71 5h214v-139h-450v140l273 443v2l-73 -4h-192v139h431zM345 800h-130l100 146h150z" />
    <glyph glyph-name="zacute" unicode="&#x17a;" 
d="M73 550h451v-131l-275 -295q12 1 25 3q11 1 23 1.5t23 0.5h215v-129h-470v130l275 295l-26 -2q-11 -1 -23.5 -1.5t-23.5 -0.5h-194v129zM345 640h-130l100 146h150z" />
    <glyph glyph-name="Zdotaccent" unicode="&#x17b;" 
d="M514 720v-141l-274 -443v-2l71 5h214v-139h-450v140l273 443v2l-73 -4h-192v139h431zM285 955h30q34 0 54.5 -19t20.5 -51t-20.5 -51t-55.5 -19h-29q-34 0 -54.5 19t-20.5 51t20.5 51t54.5 19z" />
    <glyph glyph-name="zdotaccent" unicode="&#x17c;" 
d="M73 550h451v-131l-275 -295q12 1 25 3q11 1 23 1.5t23 0.5h215v-129h-470v130l275 295l-26 -2q-11 -1 -23.5 -1.5t-23.5 -0.5h-194v129zM285 795h30q34 0 54.5 -19t20.5 -51t-20.5 -51t-55.5 -19h-29q-34 0 -54.5 19t-20.5 51t20.5 51t54.5 19z" />
    <glyph glyph-name="Zcaron" unicode="&#x17d;" 
d="M514 720v-141l-274 -443v-2l71 5h214v-139h-450v140l273 443v2l-73 -4h-192v139h431zM115 945h110l48 -58q17 -19 21 -27q4 -4 5 -6h2q1 3 5 7q3 5 8 11t13 16l48 57h110l-100 -145h-170z" />
    <glyph glyph-name="zcaron" unicode="&#x17e;" 
d="M73 550h451v-131l-275 -295q12 1 25 3q11 1 23 1.5t23 0.5h215v-129h-470v130l275 295l-26 -2q-11 -1 -23.5 -1.5t-23.5 -0.5h-194v129zM115 785h110l48 -58q17 -19 21 -27q4 -4 5 -6h2q1 3 5 7q3 5 8 11t13 16l48 57h110l-100 -145h-170z" />
    <glyph glyph-name="longs" unicode="&#x17f;" 
d="M535 730v-130h-175q-34 0 -54.5 -20.5t-20.5 -54.5v-525h-150v525q0 47 15 85t43 64.5t68 41t89 14.5h185z" />
    <glyph glyph-name="florin" unicode="&#x192;" 
d="M0 -165v145h125q38 0 59 20t21 56v294h-155v130h155v75q0 80 47.5 127.5t127.5 47.5h175v-130h-155q-20 0 -32.5 -12t-12.5 -33v-75h205v-130h-205v-310q0 -45 -17.5 -83t-49.5 -65t-76 -42t-97 -15h-115z" />
    <glyph glyph-name="uni0218" unicode="&#x218;" 
d="M300 -10q-56 0 -102 14.5t-79 41t-52 64.5t-22 85h150q8 -75 108 -75q50 0 76 21.5t26 57.5q0 32 -20.5 55t-56.5 31l-76 17q-98 22 -148.5 78.5t-50.5 144.5q0 46 17.5 84t49.5 65t77.5 42t102.5 15q107 0 171.5 -53t71.5 -147h-150q-4 33 -29.5 51.5t-67.5 18.5
q-44 0 -68.5 -21t-24.5 -53q0 -28 19 -48.5t55 -28.5l80 -18q97 -22 147.5 -79.5t50.5 -146.5q0 -48 -18 -87.5t-51.5 -68t-80.5 -44.5t-105 -16zM425 -95l-125 -150h-125l85 150h165z" />
    <glyph glyph-name="uni0219" unicode="&#x219;" 
d="M274 -10q-103 0 -161 39.5t-68 115.5h150q7 -23 27.5 -35t51.5 -12h50q42 0 64 15t22 43q0 49 -80 58l-75 8q-103 11 -151.5 52.5t-48.5 118.5q0 81 56.5 124t162.5 43h50q100 0 156.5 -38t65.5 -113h-150q-11 44 -72 44h-50q-74 0 -74 -50q0 -48 68 -56l80 -9
q207 -24 207 -176q0 -85 -59 -128.5t-172 -43.5h-50zM425 -95l-125 -150h-125l85 150h165z" />
    <glyph glyph-name="uni021A" unicode="&#x21a;" 
d="M35 720h530v-140h-190v-580h-150v580h-190v140zM425 -95l-125 -150h-125l85 150h165z" />
    <glyph glyph-name="uni021B" unicode="&#x21b;" 
d="M35 550h145v170h150v-170h205v-135h-205v-225q0 -26 14.5 -40.5t40.5 -14.5h140v-135h-155q-89 0 -139.5 50.5t-50.5 139.5v225h-145v135zM425 -95l-125 -150h-125l85 150h165z" />
    <glyph glyph-name="uni0237" unicode="&#x237;" 
d="M325 410h-215v140h365v-500q0 -48 -16.5 -88t-47 -68t-73.5 -43.5t-95 -15.5h-153v140h153q37 0 59.5 20.5t22.5 54.5v360z" />
    <glyph glyph-name="circumflex" unicode="&#x2c6;" 
d="M215 785h170l100 -145h-110l-48 57q-8 10 -13 16.5t-8 10.5q-4 4 -5 7h-2q-1 -2 -5 -6q-2 -4 -7.5 -10t-13.5 -17l-48 -58h-110z" />
    <glyph glyph-name="caron" unicode="&#x2c7;" 
d="M115 785h110l48 -58q17 -19 21 -27q4 -4 5 -6h2q1 3 5 7q3 5 8 11t13 16l48 57h110l-100 -145h-170z" />
    <glyph glyph-name="uni02C9" unicode="&#x2c9;" 
d="M150 945h300v-130h-300v130z" />
    <glyph glyph-name="breve" unicode="&#x2d8;" 
d="M235 780q0 -27 17 -41t47 -14q32 0 49 14t17 41h115q0 -33 -13 -59.5t-36.5 -45.5t-56.5 -29.5t-74 -10.5q-40 0 -73.5 10.5t-57 29.5t-36.5 45.5t-13 59.5h115z" />
    <glyph glyph-name="dotaccent" unicode="&#x2d9;" 
d="M275 795h30q34 0 54.5 -19t20.5 -51t-20.5 -51t-55.5 -19h-29q-34 0 -54.5 19t-20.5 51t20.5 51t54.5 19z" />
    <glyph glyph-name="ring" unicode="&#x2da;" 
d="M180 710q0 48 33 76.5t87 28.5t87 -28.5t33 -76.5t-33 -76.5t-87 -28.5t-87 28.5t-33 76.5zM250 710q0 -51 49 -51q51 0 51 51t-51 51q-49 0 -49 -51z" />
    <glyph glyph-name="ogonek" unicode="&#x2db;" 
d="M357 11l-21 -17q-25 -21 -36 -40t-11 -36q0 -20 12.5 -31.5t33.5 -11.5h69v-85h-98q-59 0 -95 27t-36 72q0 31 16.5 59t55.5 63h110z" />
    <glyph glyph-name="tilde" unicode="&#x2dc;" 
d="M380 730q14 0 22 7.5t8 20.5v37h85v-35q0 -51 -29.5 -83t-80.5 -32q-32 0 -54.5 11t-41 24t-34.5 24t-35 11q-14 0 -22 -9t-8 -24v-32h-85v35q0 51 29.5 83t80.5 32q32 0 54.5 -11t41 -24t34.5 -24t35 -11z" />
    <glyph glyph-name="hungarumlaut" unicode="&#x2dd;" 
d="M340.01 786h-149.991l-99.9941 -146h129.992zM570.01 786h-149.991l-99.9941 -146h129.992z" />
    <glyph glyph-name="uni03BC" unicode="&#x3bc;" 
d="M215 550v-335q0 -46 21 -70.5t64 -24.5q42 0 63.5 24.5t21.5 70.5v335h150v-336q0 -105 -58.5 -164.5t-161.5 -59.5q-47 0 -75.5 14.5t-45.5 32.5q-20 20 -29 46h-9q1 0 4.5 -10t8 -24.5t9 -31t6.5 -30.5l20 -152l-139 -1v716h150z" />
    <glyph glyph-name="pi" unicode="&#x3c0;" 
d="M9 550h566v-140h-75v-210q0 -32 16.5 -51t43.5 -19h30v-135h-40q-91 0 -143 52.5t-52 143.5v219h-131v-410h-145v410h-70v140z" />
    <glyph glyph-name="uni0401" unicode="&#x401;" 
d="M80 0v720h455v-130h-305v-156h270v-130h-270v-174h305v-130h-455zM120 879q0 29 20.5 47t54.5 18t54.5 -18t20.5 -47q0 -31 -20.5 -49.5t-54.5 -18.5t-54.5 18.5t-20.5 49.5zM330 879q0 29 20.5 47t54.5 18t54.5 -18t20.5 -47q0 -31 -20.5 -49.5t-54.5 -18.5t-54.5 18.5
t-20.5 49.5z" />
    <glyph glyph-name="uni0402" unicode="&#x402;" 
d="M0 720h360v-140h-110v-160l14 14q61 61 131 61q81 0 129.5 -54.5t49.5 -150.5l1 -250q0 -45 -17.5 -83t-49.5 -65t-76 -42t-97 -15h-50v145h60q38 0 59 20t21 56l-1 229q0 80 -64 80q-41 0 -77 -36l-33 -33v-296h-150v580h-100v140z" />
    <glyph glyph-name="uni0403" unicode="&#x403;" 
d="M540 720v-140h-295v-580h-150v720h445zM305 800h-130l100 146h150z" />
    <glyph glyph-name="uni0404" unicode="&#x404;" 
d="M405.012 210q0 -40 -26.498 -62.5t-73.4961 -22.5q-46.9971 0 -74.4951 23t-27.498 62v89h200.987v131h-200.987v81q0 38 27.498 61t74.4951 23q45.998 0 72.9961 -23t26.998 -62h149.991q-3 50 -21.999 90.5t-51.9971 69q-32.9971 28.5 -77.4951 44.5
q-44.4971 16 -98.4941 16q-56.9961 0 -103.493 -16t-79.4951 -45t-50.9971 -69.5t-17.999 -88.5v-301q0 -48 17.999 -88.5t50.9971 -70t79.4951 -45.5t103.493 -16q53.9971 0 98.4941 16q44.498 16 77.4951 44.5q32.998 28.5 51.9971 69.5t21.999 90h-149.991z" />
    <glyph glyph-name="uni0405" unicode="&#x405;" 
d="M300 -10q-56 0 -102 14.5t-79 41t-52 64.5t-22 85h150q8 -75 108 -75q50 0 76 21.5t26 57.5q0 32 -20.5 55t-56.5 31l-76 17q-98 22 -148.5 78.5t-50.5 144.5q0 46 17.5 84t49.5 65t77.5 42t102.5 15q107 0 171.5 -53t71.5 -147h-150q-4 33 -29.5 51.5t-67.5 18.5
q-44 0 -68.5 -21t-24.5 -53q0 -28 19 -48.5t55 -28.5l80 -18q97 -22 147.5 -79.5t50.5 -146.5q0 -48 -18 -87.5t-51.5 -68t-80.5 -44.5t-105 -16z" />
    <glyph glyph-name="uni0406" unicode="&#x406;" 
d="M75 0v130h150v460h-150v130h450v-130h-150v-460h150v-130h-450z" />
    <glyph glyph-name="uni0407" unicode="&#x407;" 
d="M75 0v130h150v460h-150v130h450v-130h-150v-460h150v-130h-450zM120 879q0 29 20.5 47t54.5 18t54.5 -18t20.5 -47q0 -31 -20.5 -49.5t-54.5 -18.5t-54.5 18.5t-20.5 49.5zM330 879q0 29 20.5 47t54.5 18t54.5 -18t20.5 -47q0 -31 -20.5 -49.5t-54.5 -18.5t-54.5 18.5
t-20.5 49.5z" />
    <glyph glyph-name="uni0408" unicode="&#x408;" 
d="M270 119q46 0 73 27t27 72v363h-240v140h390v-503q0 -53 -17.5 -95.5t-50 -72t-78.5 -45.5t-104 -16q-56 0 -101.5 15.5t-78 44t-50.5 69.5t-20 92h150q2 -41 29 -66t71 -25z" />
    <glyph glyph-name="uni0409" unicode="&#x409;" 
d="M-10 -5v115h20q27 0 43 26t17 69l7 515h318v-275h5q88 0 139 -49t51 -137v-74q0 -88 -51 -136.5t-139 -48.5h-125v610h-80l-5 -405q-1 -39 -11 -76.5t-30 -67t-52 -48t-77 -18.5h-30zM395 110h5q33 0 51.5 19.5t18.5 56.5v71q0 38 -18.5 58t-51.5 20h-5v-225z" />
    <glyph glyph-name="uni040A" unicode="&#x40a;" 
d="M40 0v720h120v-265h115v265h120v-265h5q88 0 139 -49t51 -137v-84q0 -88 -51 -136.5t-139 -48.5h-125v345h-115v-345h-120zM395 110h5q33 0 51.5 19.5t18.5 56.5v81q0 38 -18.5 58t-51.5 20h-5v-235z" />
    <glyph glyph-name="uni040B" unicode="&#x40b;" 
d="M0 720h360v-140h-110v-160l14 14q61 61 131 61q81 0 130 -54.5t49 -150.5l1 -290h-150l-1 285q0 80 -64 80q-41 0 -77 -36l-33 -33v-296h-150v580h-100v140z" />
    <glyph glyph-name="uni040C" unicode="&#x40c;" 
d="M215 720v-282h76l120 282h163l-150 -348l156 -372h-165l-124 300h-76v-300h-150v720h150zM305 800h-130l100 146h150z" />
    <glyph glyph-name="uni040E" unicode="&#x40e;" 
d="M182 720l101 -287q5 -15 9 -34t6 -36q2 -21 4 -41h9q1 20 3 41q2 17 5 36t8 34l96 287h157l-262 -720h-157l75 185l-216 535h162zM235 940q0 -27 17 -41t47 -14q32 0 49 14t17 41h115q0 -33 -13 -59.5t-36.5 -45.5t-56.5 -29.5t-74 -10.5q-40 0 -73.5 10.5t-57 29.5
t-36.5 45.5t-13 59.5h115z" />
    <glyph glyph-name="uni040F" unicode="&#x40f;" 
d="M215 720v-580h170v580h150v-720h-160v-125h-150v125h-160v720h150z" />
    <glyph glyph-name="uni0410" unicode="&#x410;" 
d="M10 0l192 720h200l188 -720h-152l-38 165h-201l-38 -165h-151zM372 282l-55 237q-3 15 -6 32.5t-5 33.5q-2 17 -4 35h-6q-2 -18 -5 -35q-2 -16 -4.5 -33.5t-6.5 -32.5l-54 -237h146z" />
    <glyph glyph-name="uni0411" unicode="&#x411;" 
d="M80 720h463v-140h-323v-135h124q53 0 95.5 -16.5t72.5 -45.5t46.5 -70t16.5 -90t-16.5 -90t-47 -70.5t-73 -46t-93.5 -16.5h-265v720zM305 125q57 0 88 27.5t31 72.5t-31 70t-88 25h-85v-195h85z" />
    <glyph glyph-name="uni0412" unicode="&#x412;" 
d="M63 0v720h241q56 0 101 -13t76.5 -37t48.5 -58t17 -76q0 -67 -37.5 -108t-103.5 -47v-11q72 -5 113 -48t41 -113q0 -48 -17.5 -86.5t-50 -66t-79 -42t-103.5 -14.5h-247zM208 313v-193h96q50 0 77.5 25t27.5 71t-27.5 71.5t-77.5 25.5h-96zM208 600v-167h94q43 0 68.5 23
t25.5 61t-25 60.5t-69 22.5h-94z" />
    <glyph glyph-name="uni0413" unicode="&#x413;" 
d="M540 720v-140h-295v-580h-150v720h445z" />
    <glyph glyph-name="uni0414" unicode="&#x414;" 
d="M20 -140v268h29q15 26 26 66q11 34 19.5 87.5t9.5 128.5l5 310h411v-592h60v-268h-140v140h-280v-140h-140zM199 128h179v462h-130l-3 -179q-1 -74 -8.5 -125.5t-15.5 -84.5q-10 -38 -22 -62v-11z" />
    <glyph glyph-name="uni0415" unicode="&#x415;" 
d="M80 0v720h455v-130h-305v-156h270v-130h-270v-174h305v-130h-455z" />
    <glyph glyph-name="uni0416" unicode="&#x416;" 
d="M0 0l96 368l-90 352h116l79 -324h40v324h114v-324h41l81 324h113l-90 -349l100 -371h-115l-87 342h-43l5 -342h-114l-5 342h-42l-83 -342h-116z" />
    <glyph glyph-name="uni0417" unicode="&#x417;" 
d="M46 525q5 47 25 84.5t53 64.5t78 41.5t98 14.5q57 0 102.5 -13.5t77.5 -39t49.5 -61.5t17.5 -80q0 -67 -37.5 -108t-103.5 -47v-11q72 -5 113 -48t41 -113q0 -51 -18.5 -91.5t-52.5 -69t-82 -43.5t-107 -15q-57 0 -104 14.5t-80.5 41t-53 64.5t-22.5 85h150q4 -35 33 -55
t77 -20q49 0 79.5 25t30.5 65q0 42 -29 66t-81 24h-105v135h105q50 0 78 21.5t28 59.5t-28.5 61t-77.5 23q-42 0 -69.5 -20t-34.5 -55h-150z" />
    <glyph glyph-name="uni0418" unicode="&#x418;" 
d="M58 720h130v-411q0 -26 -3 -57.5t-6 -58.5t-5.5 -45l-2.5 -18h14q1 19 3 37q2 17 5.5 35t8.5 34l158 484h182v-720h-130v412q0 29 2.5 60t5.5 57q3 31 7 61h-14q-1 -16 -3 -34q-2 -15 -5.5 -34t-9.5 -38l-155 -484h-182v720z" />
    <glyph glyph-name="uni0419" unicode="&#x419;" 
d="M58 720h130v-411q0 -26 -3 -57.5t-6 -58.5t-5.5 -45l-2.5 -18h14q1 19 3 37q2 17 5.5 35t8.5 34l158 484h182v-720h-130v412q0 29 2.5 60t5.5 57q3 31 7 61h-14q-1 -16 -3 -34q-2 -15 -5.5 -34t-9.5 -38l-155 -484h-182v720zM235 940q0 -27 17 -41t47 -14q32 0 49 14
t17 41h115q0 -33 -13 -59.5t-36.5 -45.5t-56.5 -29.5t-74 -10.5q-40 0 -73.5 10.5t-57 29.5t-36.5 45.5t-13 59.5h115z" />
    <glyph glyph-name="uni041A" unicode="&#x41a;" 
d="M215 720v-282h76l120 282h163l-150 -348l156 -372h-165l-124 300h-76v-300h-150v720h150z" />
    <glyph glyph-name="uni041B" unicode="&#x41b;" 
d="M112 720h428v-720h-150v580h-131l-4 -350q-1 -54 -15.5 -97.5t-40.5 -74t-62.5 -47t-81.5 -16.5h-40v135h30q26 0 43 27.5t18 72.5z" />
    <glyph glyph-name="uni041C" unicode="&#x41c;" 
d="M40 0v720h174l73 -218q4 -11 6 -23t4 -22l2 -22h8q1 11 3 22q2 10 4 22t5 23l65 218h176v-720h-131v440q0 28 2.5 56t5.5 51q3 28 7 53h-12q-5 -24 -9 -47q-5 -20 -9 -41.5t-9 -36.5l-45 -160h-118l-50 160q-5 15 -9 36t-7 41q-4 23 -8 48h-13q4 -25 8 -53q3 -23 5.5 -51
t2.5 -56v-440h-131z" />
    <glyph glyph-name="uni041D" unicode="&#x41d;" 
d="M215 720v-276h170v276h150v-720h-150v304h-170v-304h-150v720h150z" />
    <glyph glyph-name="uni041E" unicode="&#x41e;" 
d="M198 215q0 -43 27.5 -68.5t74.5 -25.5t74.5 25.5t27.5 68.5v291q0 43 -27.5 68.5t-74.5 25.5t-74.5 -25.5t-27.5 -68.5v-291zM48 506q0 51 18 92t51 70.5t79.5 45.5t103.5 16t103.5 -16t79.5 -45.5t51 -70.5t18 -92v-291q0 -50 -18.5 -91.5t-51.5 -71t-79.5 -46
t-102.5 -16.5q-57 0 -103.5 16t-79.5 45.5t-51 71t-18 92.5v291z" />
    <glyph glyph-name="uni041F" unicode="&#x41f;" 
d="M65 0v720h470v-720h-150v580h-170v-580h-150z" />
    <glyph glyph-name="uni0420" unicode="&#x420;" 
d="M315 720q59 0 106 -15.5t80 -45t51 -71t18 -93.5q0 -51 -18 -93t-51 -71t-80 -45t-106 -16h-102v-270h-150v720h252zM213 595v-200h102q50 0 77.5 27.5t27.5 72.5t-27.5 72.5t-77.5 27.5h-102z" />
    <glyph glyph-name="uni0421" unicode="&#x421;" 
d="M305 730q56 0 102 -16t79 -45.5t51 -71t18 -92.5h-150q0 42 -27 66t-73 24q-47 0 -74.5 -24t-27.5 -66v-290q0 -42 26.5 -66t74.5 -24q47 0 74 25t27 65h150q0 -51 -18 -92.5t-51 -71t-79 -45.5t-103 -16t-103 16t-79 45.5t-51 71t-18 92.5v290q0 51 18 92.5t51 71
t79.5 45.5t103.5 16z" />
    <glyph glyph-name="uni0422" unicode="&#x422;" 
d="M35 720h530v-140h-190v-580h-150v580h-190v140z" />
    <glyph glyph-name="uni0423" unicode="&#x423;" 
d="M182 720l101 -287q5 -15 9 -34t6 -36q2 -21 4 -41h9q1 20 3 41q2 17 5 36t8 34l96 287h157l-262 -720h-157l75 185l-216 535h162z" />
    <glyph glyph-name="uni0424" unicode="&#x424;" 
d="M30 481q0 49 15 89.5t43 69t66.5 44.5t85.5 16v70h120v-70q47 0 85.5 -16t66.5 -44.5t43 -69t15 -89.5v-217q0 -49 -15 -89.5t-43 -69t-66.5 -44.5t-85.5 -16v-70h-120v70q-47 0 -85.5 16t-66.5 44.5t-43 69t-15 89.5v217zM360 161q40 0 65 28t25 75v217q0 47 -25 75.5
t-65 28.5v-424zM150 264q0 -47 25 -75t65 -28v424q-40 0 -65 -28.5t-25 -75.5v-217z" />
    <glyph glyph-name="uni0425" unicode="&#x425;" 
d="M216 372l-183 348h165l77 -156q8 -15 12.5 -26.5t7.5 -19.5q3 -10 4 -16h5q1 6 4 15q5 16 18 44l80 159h161l-183 -348l196 -372h-165l-89 178q-16 34 -20 48q-4 9 -5 16h-5q-1 -7 -5 -16q-2 -8 -7 -19.5t-13 -27.5l-90 -179h-161z" />
    <glyph glyph-name="uni0426" unicode="&#x426;" 
d="M65 720h150v-580h140v580h150v-580h75v-275h-140v135h-375v720z" />
    <glyph glyph-name="uni0427" unicode="&#x427;" 
d="M190 720v-250q0 -37 28.5 -58.5t76.5 -21.5q24 0 41 1.5t28 3.5q12 2 21 5v320h150v-720h-150v200q0 26 0.5 40t0.5 21q0 8 1 9q-1 0 -2 -1q-8 -2 -41.5 -8t-83.5 -6q-103 0 -161.5 54.5t-58.5 151.5v259h150z" />
    <glyph glyph-name="uni0428" unicode="&#x428;" 
d="M40 0v720h120v-620h80v620h120v-620h80v620h120v-720h-520z" />
    <glyph glyph-name="uni0429" unicode="&#x429;" 
d="M145 720v-620h77v620h110v-620h80v620h110v-620h65v-235h-100v135h-452v720h110z" />
    <glyph glyph-name="uni042A" unicode="&#x42a;" 
d="M0 600v120h245v-275h84q56 0 102.5 -16t79.5 -45t51 -70t18 -91t-18 -91t-51 -70.5t-79 -45.5t-102 -16h-235v600h-95zM245 315v-185h75q51 0 80 24.5t29 67.5t-29 68t-80 25h-75z" />
    <glyph glyph-name="uni042B" unicode="&#x42b;" 
d="M30 720h125v-275h55q43 0 78 -13.5t60 -38.5t38.5 -60.5t13.5 -78.5v-64q0 -43 -13.5 -78t-38.5 -60t-60 -38.5t-78 -13.5h-180v720zM445 0v720h125v-720h-125zM155 330v-215h50q33 0 51.5 19.5t18.5 56.5v61q0 38 -18.5 58t-51.5 20h-50z" />
    <glyph glyph-name="uni042C" unicode="&#x42c;" 
d="M70 720h150v-275h104q58 0 104.5 -15.5t79 -44t50 -70t17.5 -92.5t-17.5 -92.5t-50 -70.5t-78.5 -44.5t-104 -15.5h-255v720zM315 130q51 0 80 24.5t29 67.5t-29 68t-80 25h-95v-185h95z" />
    <glyph glyph-name="uni042D" unicode="&#x42d;" 
d="M195 210q0 -40 26.5 -62.5t73.5 -22.5t74.5 23t27.5 62v89h-201v131h201v81q0 38 -27.5 61t-74.5 23q-46 0 -73 -23t-27 -62h-150q3 50 22 90.5t52 69t77.5 44.5t98.5 16q57 0 103.5 -16t79.5 -45t51 -69.5t18 -88.5v-301q0 -48 -18 -88.5t-51 -70t-79.5 -45.5
t-103.5 -16q-54 0 -98.5 16t-77.5 44.5t-52 69.5t-22 90h150z" />
    <glyph glyph-name="uni042E" unicode="&#x42e;" 
d="M150 720v-288h70v119q0 40 13.5 73t37.5 56.5t57 36.5t72 13t72 -13t57 -36.5t37.5 -56.5t13.5 -73v-381q0 -40 -13 -73.5t-37 -57t-57 -36.5t-73 -13t-73 13t-57 36.5t-37 57t-13 73.5v147h-70v-317h-130v720h130zM350 160q0 -27 14 -43.5t36 -16.5t36 16.5t14 43.5v401
q0 26 -14 42.5t-36 16.5t-36 -16.5t-14 -42.5v-401z" />
    <glyph glyph-name="uni042F" unicode="&#x42f;" 
d="M164 305q-59 26 -91.5 76t-32.5 119q0 51 18 91.5t51 69t80.5 44t105.5 15.5h240v-720h-149v280h-80l-118 -280h-158zM190 493q0 -45 28.5 -71.5t76.5 -26.5h91v200h-91q-48 0 -76.5 -27.5t-28.5 -74.5z" />
    <glyph glyph-name="uni0430" unicode="&#x430;" 
d="M43 150q0 84 61 132.5t166 48.5h119v49q0 29 -24.5 47t-66.5 18q-37 0 -61.5 -13.5t-31.5 -36.5h-145q6 38 25.5 68.5t50.5 52t72 33t90 11.5q54 0 98.5 -13t76 -36.5t49 -56.5t17.5 -74v-380h-143v110h-9q-7 -56 -52.5 -88t-115.5 -32q-81 0 -128.5 43t-47.5 117z
M280 105q48 0 78.5 22.5t30.5 57.5v56h-119q-35 0 -56 -17.5t-21 -49.5t22.5 -50.5t64.5 -18.5z" />
    <glyph glyph-name="uni0431" unicode="&#x431;" 
d="M48 445q0 66 20.5 119t59 90t93.5 56.5t124 19.5h165v-145h-165q-67 0 -107 -38t-40 -102v-55h10q8 28 27 50q17 19 46.5 34.5t78.5 15.5q44 0 79.5 -15t60.5 -43t38.5 -67.5t13.5 -89.5v-65q0 -49 -18 -90t-51 -69.5t-79.5 -44.5t-103.5 -16t-103.5 16t-79.5 44.5
t-51 69.5t-18 90v235zM198 210q0 -42 27.5 -66t74.5 -24t74.5 24t27.5 66v65q0 42 -27.5 66t-74.5 24t-74.5 -24t-27.5 -66v-65z" />
    <glyph glyph-name="uni0432" unicode="&#x432;" 
d="M65 550h262q100 0 155 -40t55 -110q0 -48 -35.5 -76.5t-98.5 -30.5v-10q72 -2 109.5 -34t37.5 -92q0 -73 -58.5 -115t-161.5 -42h-265v550zM205 227v-120h115q38 0 59 15.5t21 42.5q0 29 -21 45.5t-59 16.5h-115zM205 331h108q35 0 55 15t20 41t-20 41t-55 15h-108v-112z
" />
    <glyph glyph-name="uni0433" unicode="&#x433;" 
d="M535 550v-140h-280v-410h-150v550h430z" />
    <glyph glyph-name="uni0434" unicode="&#x434;" 
d="M20 -140v268h28q15 16 27 39q10 20 18.5 50.5t9.5 72.5l5 260h412v-422h60v-268h-140v140h-280v-140h-140zM198 128h180v292h-131l-3 -129q-1 -40 -8 -68.5t-16 -47.5q-10 -22 -22 -36v-11z" />
    <glyph glyph-name="uni0435" unicode="&#x435;" 
d="M300 -10q-57 0 -103.5 16t-79.5 44.5t-51 69.5t-18 90v131q0 50 18 90t51 69t79.5 44.5t103.5 15.5q56 0 102 -16t79 -45t51 -69.5t18 -89.5v-100h-354v-30q0 -50 27 -77.5t77 -27.5q37 0 63 12t35 33h147q-9 -36 -31.5 -65.5t-54.5 -50.5t-72.5 -32.5t-86.5 -11.5z
M405 330v10q0 50 -27.5 77.5t-77.5 27.5q-49 0 -76.5 -27.5t-27.5 -76.5v-11h209z" />
    <glyph glyph-name="uni0436" unicode="&#x436;" 
d="M107 282l-96 268h117l87 -247h26v247h118v-247h27l87 247h116l-96 -265l104 -285h-120l-90 257h-28v-257h-118v257h-28l-90 -257h-120z" />
    <glyph glyph-name="uni0437" unicode="&#x437;" 
d="M47 390q13 79 72 123t153 44h51q100 0 157 -40.5t57 -109.5q0 -52 -34 -81.5t-97 -32.5v-10q144 -10 144 -126q0 -37 -15.5 -67.5t-44.5 -52t-69.5 -33t-91.5 -11.5h-62q-94 0 -154 44t-73 123h145q7 -24 28.5 -37t53.5 -13h62q33 0 52 15.5t19 42.5q0 26 -19 41t-52 15
h-134v114h128q31 0 48 13.5t17 37.5q0 26 -17 38.5t-48 12.5h-51q-31 0 -52 -12.5t-28 -37.5h-145z" />
    <glyph glyph-name="uni0438" unicode="&#x438;" 
d="M58 550h135v-281q0 -26 -3 -52.5t-6 -48t-5.5 -35l-2.5 -13.5h14q3 19 7 37q4 17 9 35t12 34l142 324h182v-550h-135v282q0 29 2.5 55.5t5.5 46.5q3 24 7 46h-14q-3 -16 -7 -34q-3 -15 -8.5 -34t-13.5 -38l-139 -324h-182v550z" />
    <glyph glyph-name="uni0439" unicode="&#x439;" 
d="M58 550h135v-281q0 -26 -3 -52.5t-6 -48t-5.5 -35l-2.5 -13.5h14q3 19 7 37q4 17 9 35t12 34l142 324h182v-550h-135v282q0 29 2.5 55.5t5.5 46.5q3 24 7 46h-14q-3 -16 -7 -34q-3 -15 -8.5 -34t-13.5 -38l-139 -324h-182v550zM235 785q0 -27 17 -41t47 -14q32 0 49 14
t17 41h115q0 -33 -13 -59.5t-36.5 -45.5t-56.5 -29.5t-74 -10.5q-40 0 -73.5 10.5t-57 29.5t-36.5 45.5t-13 59.5h115z" />
    <glyph glyph-name="uni043A" unicode="&#x43a;" 
d="M220 550v-208h74l117 208h165l-149 -269l152 -281h-169l-116 216h-74v-216h-150v550h150z" />
    <glyph glyph-name="uni043B" unicode="&#x43b;" 
d="M112 550h428v-550h-150v410h-131l-4 -210q-1 -46 -15.5 -84t-41 -65t-63 -41.5t-80.5 -14.5h-40v135h30q26 0 43 22t18 58z" />
    <glyph glyph-name="uni043C" unicode="&#x43c;" 
d="M40 0v550h174l74 -203q6 -17 8 -39q1 -11 2 -23h10q1 12 2 23q3 22 8 39l66 203h176v-550h-131v270q0 28 1.5 51.5t3.5 40.5q2 21 5 38h-13l-6 -34q-3 -14 -7 -31.5t-9 -32.5l-44 -137h-118l-49 137q-5 15 -9 32t-6 32l-4 34h-14q3 -17 6 -38q2 -17 3.5 -40.5t1.5 -51.5
v-270h-131z" />
    <glyph glyph-name="uni043D" unicode="&#x43d;" 
d="M215 550v-204h170v204h150v-550h-150v206h-170v-206h-150v550h150z" />
    <glyph glyph-name="uni043E" unicode="&#x43e;" 
d="M198 210q0 -41 27.5 -65t74.5 -24t74.5 24t27.5 65v131q0 41 -27.5 65t-74.5 24t-74.5 -24t-27.5 -65v-131zM48 341q0 48 18 88.5t51 69.5t79.5 45t103.5 16t103.5 -16t79.5 -45t51 -69.5t18 -88.5v-131q0 -48 -18 -88.5t-51 -70t-79.5 -45.5t-103.5 -16t-103.5 16
t-79.5 45.5t-51 70t-18 88.5v131z" />
    <glyph glyph-name="uni043F" unicode="&#x43f;" 
d="M65 0v550h470v-550h-150v410h-170v-410h-150z" />
    <glyph glyph-name="uni0440" unicode="&#x440;" 
d="M208 550v-95h10q8 49 45.5 77t96.5 28q44 0 79 -15t60.5 -43t39 -68t13.5 -89v-135q0 -51 -13.5 -91.5t-39 -69t-60.5 -44t-79 -15.5q-59 0 -96.5 28t-45.5 78h-10q1 -8 3 -36t2 -60v-165h-150v715h145zM213 210q0 -39 25 -64t70 -25t69.5 26t24.5 68v125q0 42 -25.5 66
t-68.5 24t-69 -24.5t-26 -65.5v-130z" />
    <glyph glyph-name="uni0441" unicode="&#x441;" 
d="M305 -10q-57 0 -103.5 15t-79.5 43t-51 67.5t-18 88.5v141q0 49 18 88.5t51 67.5t79.5 43.5t103.5 15.5q50 0 93 -14t76 -40t55 -63t30 -83h-150q-7 32 -35 51t-69 19q-48 0 -75 -22.5t-27 -62.5v-141q0 -40 27 -62t75 -22q40 0 68 19.5t36 51.5h150q-8 -46 -30 -83
t-55 -63.5t-76 -40.5t-93 -14z" />
    <glyph glyph-name="uni0442" unicode="&#x442;" 
d="M35 550h530v-140h-190v-410h-150v410h-190v140z" />
    <glyph glyph-name="uni0443" unicode="&#x443;" 
d="M187 550l96 -277q5 -15 9 -34t6 -36q2 -21 4 -41h9q1 20 3 41q2 17 5 36t8 34l91 277h157l-257 -715h-157l75 190l-211 525h162z" />
    <glyph glyph-name="uni0444" unicode="&#x444;" 
d="M239 0q-99 0 -154 53.5t-55 153.5v137q0 100 55 153t154 53v180h122v-180q99 0 154 -53t55 -153v-137q0 -100 -55 -153.5t-154 -53.5v-165h-122v165zM447 344q0 42 -23.5 65.5t-62.5 23.5v-315q39 0 62.5 23t23.5 66v137zM153 207q0 -43 23.5 -66t62.5 -23v315
q-39 0 -62.5 -23.5t-23.5 -65.5v-137z" />
    <glyph glyph-name="uni0445" unicode="&#x445;" 
d="M216 285l-182 265h167l77 -114q5 -8 8.5 -14.5t5.5 -11.5q2 -7 4 -12h8q1 5 4 11q2 5 5.5 12t8.5 15l77 114h167l-181 -265l194 -285h-167l-89 133q-10 17 -15 27q-2 6 -4 11h-8q-2 -5 -4 -11q-2 -5 -5.5 -11.5t-8.5 -14.5l-90 -134h-167z" />
    <glyph glyph-name="uni0446" unicode="&#x446;" 
d="M65 550h150v-410h140v410h150v-410h75v-275h-140v135h-375v550z" />
    <glyph glyph-name="uni0447" unicode="&#x447;" 
d="M260 154q-103 0 -161.5 54.5t-58.5 151.5v190h150v-181q0 -37 28.5 -58.5t76.5 -21.5q24 0 41 1.5t28 3.5q12 2 21 5v251h150v-550h-150v99q0 26 0.5 40t0.5 21q0 8 1 9q-1 0 -2 -1q-8 -2 -41.5 -8t-83.5 -6z" />
    <glyph glyph-name="uni0448" unicode="&#x448;" 
d="M40 0v550h122v-450h77v450h122v-450h77v450h122v-550h-520z" />
    <glyph glyph-name="uni0449" unicode="&#x449;" 
d="M40 0v550h112v-450h75v450h112v-450h78v450h112v-450h58v-235h-100v135h-447z" />
    <glyph glyph-name="uni044A" unicode="&#x44a;" 
d="M0 550h270v-165h94q104 0 162.5 -51.5t58.5 -142.5q0 -89 -59 -140t-161 -51h-245v410h-120v140zM270 255v-125h85q38 0 58.5 16.5t20.5 46.5q0 29 -20.5 45.5t-58.5 16.5h-85z" />
    <glyph glyph-name="uni044B" unicode="&#x44b;" 
d="M165 550v-165h25q96 0 148 -51.5t52 -144.5q0 -42 -15 -76.5t-41.5 -59.5t-63 -39t-80.5 -14h-150v550h125zM435 550h125v-550h-125v550zM165 115h20q38 0 59 20t21 55q0 37 -19 58.5t-61 21.5h-20v-155z" />
    <glyph glyph-name="uni044C" unicode="&#x44c;" 
d="M70 550h150v-165h134q104 0 162.5 -51.5t58.5 -142.5q0 -89 -59 -140t-161 -51h-285v550zM345 130q38 0 58.5 16.5t20.5 46.5q0 29 -20.5 45.5t-58.5 16.5h-125v-125h125z" />
    <glyph glyph-name="uni044D" unicode="&#x44d;" 
d="M41 365q8 44 30 80t55 61.5t76 39.5t93 14q57 0 103.5 -15t79.5 -43t51 -68t18 -89v-141q0 -49 -18 -88.5t-51 -67.5t-79.5 -43t-103.5 -15q-50 0 -93 14t-76 39.5t-55 61.5t-30 81h150q7 -29 35.5 -47.5t68.5 -18.5q47 0 74.5 21t27.5 63v16h-164v114h164v11
q0 42 -27.5 63.5t-74.5 21.5q-40 0 -69 -18t-35 -47h-150z" />
    <glyph glyph-name="uni044E" unicode="&#x44e;" 
d="M150 550v-215h70v60q0 37 12.5 67.5t35.5 52t55.5 33.5t71.5 12q40 0 72 -11.5t55 -33.5t35.5 -52t12.5 -68v-239q0 -37 -12.5 -68t-35.5 -52.5t-55.5 -33.5t-71.5 -12t-71.5 12t-55.5 33.5t-35.5 52.5t-12.5 68v64h-70v-220h-120v550h120zM340 156q0 -25 15.5 -40.5
t39.5 -15.5t39.5 15.5t15.5 40.5v239q0 24 -15.5 39.5t-39.5 15.5t-39.5 -15.5t-15.5 -39.5v-239z" />
    <glyph glyph-name="uni044F" unicode="&#x44f;" 
d="M160 188q-56 21 -85.5 63.5t-29.5 103.5q0 93 60.5 144t169.5 51h260v-550h-150v170h-77l-101 -170h-172zM195 357q0 -35 24 -53.5t66 -18.5h100v145h-100q-42 0 -66 -19t-24 -54z" />
    <glyph glyph-name="uni0451" unicode="&#x451;" 
d="M300 -10q-57 0 -103.5 16t-79.5 44.5t-51 69.5t-18 90v131q0 50 18 90t51 69t79.5 44.5t103.5 15.5q56 0 102 -16t79 -45t51 -69.5t18 -89.5v-100h-354v-30q0 -50 27 -77.5t77 -27.5q37 0 63 12t35 33h147q-9 -36 -31.5 -65.5t-54.5 -50.5t-72.5 -32.5t-86.5 -11.5z
M405 330v10q0 50 -27.5 77.5t-77.5 27.5q-49 0 -76.5 -27.5t-27.5 -76.5v-11h209zM120 719q0 29 20.5 47t54.5 18t54.5 -18t20.5 -47q0 -31 -20.5 -49.5t-54.5 -18.5t-54.5 18.5t-20.5 49.5zM330 719q0 29 20.5 47t54.5 18t54.5 -18t20.5 -47q0 -31 -20.5 -49.5t-54.5 -18.5
t-54.5 18.5t-20.5 49.5z" />
    <glyph glyph-name="uni0452" unicode="&#x452;" 
d="M0 595v85h61v50h150v-50h99v-85h-99v-45q0 -15 -1.5 -32t-3.5 -31t-3 -23l-1 -9h14q7 51 42.5 78t95.5 27q84 0 132.5 -55t48.5 -150v-315q0 -45 -17.5 -83t-49.5 -65t-76 -42t-97 -15h-50v145h60q38 0 59 20t21 56v284q0 42 -23.5 66t-63.5 24t-63.5 -24t-23.5 -66v-340
h-150v595h-61z" />
    <glyph glyph-name="uni0453" unicode="&#x453;" 
d="M535 550v-140h-280v-410h-150v550h430zM305 640h-130l100 146h150z" />
    <glyph glyph-name="uni0454" unicode="&#x454;" 
d="M566.003 365q-8 44 -29.999 80q-21.998 36 -54.9961 61.5t-75.9951 39.5q-42.998 14 -92.9951 14q-56.9961 0 -103.493 -15t-79.4951 -43t-50.9971 -68t-17.999 -89v-141q0 -49 17.999 -88.5t50.9971 -67.5t79.4951 -43t103.493 -15q49.9971 0 92.9951 14
q42.9971 14 75.9951 39.5t54.9961 61.5q21.999 36 29.999 81h-149.991q-7 -29 -35.498 -47.5t-68.4961 -18.5q-46.9971 0 -74.4951 21t-27.498 63v16h163.99v114h-163.99v11q0 42 27.498 63.5t74.4951 21.5q39.998 0 68.9961 -18t34.998 -47h149.991z" />
    <glyph glyph-name="uni0455" unicode="&#x455;" 
d="M274 -10q-103 0 -161 39.5t-68 115.5h150q7 -23 27.5 -35t51.5 -12h50q42 0 64 15t22 43q0 49 -80 58l-75 8q-103 11 -151.5 52.5t-48.5 118.5q0 81 56.5 124t162.5 43h50q100 0 156.5 -38t65.5 -113h-150q-11 44 -72 44h-50q-74 0 -74 -50q0 -48 68 -56l80 -9
q207 -24 207 -176q0 -85 -59 -128.5t-172 -43.5h-50z" />
    <glyph glyph-name="uni0456" unicode="&#x456;" 
d="M75 136h195v279h-170v135h310v-414h155v-136h-490v136zM240 695q0 32 20.5 51t54.5 19h30q34 0 54.5 -19t20.5 -51t-20.5 -51t-55.5 -19h-29q-34 0 -54.5 19t-20.5 51z" />
    <glyph glyph-name="uni0457" unicode="&#x457;" 
d="M120 719q0 29 20.5 47t54.5 18t54.5 -18t20.5 -47q0 -31 -20.5 -49.5t-54.5 -18.5t-54.5 18.5t-20.5 49.5zM330 719q0 29 20.5 47t54.5 18t54.5 -18t20.5 -47q0 -31 -20.5 -49.5t-54.5 -18.5t-54.5 18.5t-20.5 49.5zM66 136h204v279h-180v135h320v-414h155v-136h-499v136
z" />
    <glyph glyph-name="uni0458" unicode="&#x458;" 
d="M325 410h-215v140h365v-500q0 -49 -15 -89t-43 -68t-67.5 -43t-88.5 -15h-171v140h160q35 0 55 20t20 55v360zM410 765q34 0 54.5 -19t20.5 -51t-20.5 -51t-55.5 -19h-29q-34 0 -54.5 19t-20.5 51t20.5 51t54.5 19h30z" />
    <glyph glyph-name="uni0459" unicode="&#x459;" 
d="M14 110q26 0 42.5 25.5t17.5 69.5l5 345h316v-175h35q75 0 120 -43t45 -116v-66q0 -69 -44.5 -109.5t-119.5 -40.5h-156v440h-78l-3 -235q-1 -39 -11 -76.5t-30 -67t-52 -48t-77 -18.5h-30v115h20zM430 110q20 0 32.5 11t12.5 30v66q0 21 -12.5 34t-32.5 13h-35v-154h35z
" />
    <glyph glyph-name="uni045A" unicode="&#x45a;" 
d="M40 0v550h120v-175h115v175h120v-175h35q75 0 120 -43t45 -116v-66q0 -68 -45 -109t-119 -41h-156v265h-115v-265h-120zM395 110h35q20 0 32.5 11t12.5 30v66q0 21 -12.5 34t-32.5 13h-35v-154z" />
    <glyph glyph-name="uni045B" unicode="&#x45b;" 
d="M211 595v-45q0 -15 -1.5 -32t-3.5 -31t-3 -23l-1 -9h11q7 50 44 77.5t97 27.5q84 0 132.5 -55t48.5 -150v-355h-150v340q0 42 -23.5 66t-63.5 24t-63.5 -24t-23.5 -66v-340h-150v595h-61v85h61v50h150v-50h99v-85h-99z" />
    <glyph glyph-name="uni045C" unicode="&#x45c;" 
d="M220 550v-208h74l117 208h165l-149 -269l152 -281h-169l-116 216h-74v-216h-150v550h150zM305 640h-130l100 146h150z" />
    <glyph glyph-name="uni045E" unicode="&#x45e;" 
d="M187 550l96 -277q5 -15 9 -34t6 -36q2 -21 4 -41h9q1 20 3 41q2 17 5 36t8 34l91 277h157l-257 -715h-157l75 190l-211 525h162zM235 780q0 -27 17 -41t47 -14q32 0 49 14t17 41h115q0 -33 -13 -59.5t-36.5 -45.5t-56.5 -29.5t-74 -10.5q-40 0 -73.5 10.5t-57 29.5
t-36.5 45.5t-13 59.5h115z" />
    <glyph glyph-name="uni045F" unicode="&#x45f;" 
d="M215 550v-410h170v410h150v-550h-160v-125h-150v125h-160v550h150z" />
    <glyph glyph-name="uni0490" unicode="&#x490;" 
d="M395 720v105h145v-245h-295v-580h-150v720h300z" />
    <glyph glyph-name="uni0491" unicode="&#x491;" 
d="M395 550v105h145v-245h-295v-410h-150v550h300z" />
    <glyph glyph-name="Wgrave" unicode="&#x1e80;" 
d="M123 720l37 -478q2 -15 2 -39v-47v-56h11v56q0 23 0.5 47t2.5 39l56 478h138l53 -478q2 -15 2.5 -39t1.5 -47q1 -27 1 -56h11v56q0 23 0.5 47t1.5 39l35 478h114l-73 -720h-156l-51 475q-2 18 -2.5 42.5t-1.5 47.5v55h-10v-55q-1 -23 -2 -47.5t-3 -42.5l-56 -475h-153
l-72 720h113zM155 946h150l100 -146h-130z" />
    <glyph glyph-name="wgrave" unicode="&#x1e81;" 
d="M109 550l38 -317q2 -15 3.5 -39t3.5 -47q2 -28 3 -57h11q3 30 6 57q3 23 6.5 47.5l5.5 38.5l53 317h124l53 -317q3 -15 5.5 -39t4.5 -47q3 -28 5 -57h11q2 29 4 57q2 23 4 47t4 39l36 317h100l-73 -550h-153l-51 330q-2 12 -3 34t-2 43q-1 25 -2 53h-8q-1 -28 -2 -53
q-1 -22 -2.5 -43.5t-3.5 -33.5l-54 -330h-154l-72 550h99zM155 786h150l100 -146h-130z" />
    <glyph glyph-name="Wacute" unicode="&#x1e82;" 
d="M123 720l37 -478q2 -15 2 -39v-47v-56h11v56q0 23 0.5 47t2.5 39l56 478h138l53 -478q2 -15 2.5 -39t1.5 -47q1 -27 1 -56h11v56q0 23 0.5 47t1.5 39l35 478h114l-73 -720h-156l-51 475q-2 18 -2.5 42.5t-1.5 47.5v55h-10v-55q-1 -23 -2 -47.5t-3 -42.5l-56 -475h-153
l-72 720h113zM345 800h-130l100 146h150z" />
    <glyph glyph-name="wacute" unicode="&#x1e83;" 
d="M109 550l38 -317q2 -15 3.5 -39t3.5 -47q2 -28 3 -57h11q3 30 6 57q3 23 6.5 47.5l5.5 38.5l53 317h124l53 -317q3 -15 5.5 -39t4.5 -47q3 -28 5 -57h11q2 29 4 57q2 23 4 47t4 39l36 317h100l-73 -550h-153l-51 330q-2 12 -3 34t-2 43q-1 25 -2 53h-8q-1 -28 -2 -53
q-1 -22 -2.5 -43.5t-3.5 -33.5l-54 -330h-154l-72 550h99zM345 640h-130l100 146h150z" />
    <glyph glyph-name="Wdieresis" unicode="&#x1e84;" 
d="M123 720l37 -478q2 -15 2 -39v-47v-56h11v56q0 23 0.5 47t2.5 39l56 478h138l53 -478q2 -15 2.5 -39t1.5 -47q1 -27 1 -56h11v56q0 23 0.5 47t1.5 39l35 478h114l-73 -720h-156l-51 475q-2 18 -2.5 42.5t-1.5 47.5v55h-10v-55q-1 -23 -2 -47.5t-3 -42.5l-56 -475h-153
l-72 720h113zM120 879q0 29 20.5 47t54.5 18t54.5 -18t20.5 -47q0 -31 -20.5 -49.5t-54.5 -18.5t-54.5 18.5t-20.5 49.5zM330 879q0 29 20.5 47t54.5 18t54.5 -18t20.5 -47q0 -31 -20.5 -49.5t-54.5 -18.5t-54.5 18.5t-20.5 49.5z" />
    <glyph glyph-name="wdieresis" unicode="&#x1e85;" 
d="M109 550l38 -317q2 -15 3.5 -39t3.5 -47q2 -28 3 -57h11q3 30 6 57q3 23 6.5 47.5l5.5 38.5l53 317h124l53 -317q3 -15 5.5 -39t4.5 -47q3 -28 5 -57h11q2 29 4 57q2 23 4 47t4 39l36 317h100l-73 -550h-153l-51 330q-2 12 -3 34t-2 43q-1 25 -2 53h-8q-1 -28 -2 -53
q-1 -22 -2.5 -43.5t-3.5 -33.5l-54 -330h-154l-72 550h99zM120 719q0 29 20.5 47t54.5 18t54.5 -18t20.5 -47q0 -31 -20.5 -49.5t-54.5 -18.5t-54.5 18.5t-20.5 49.5zM330 719q0 29 20.5 47t54.5 18t54.5 -18t20.5 -47q0 -31 -20.5 -49.5t-54.5 -18.5t-54.5 18.5t-20.5 49.5
z" />
    <glyph glyph-name="endash" unicode="&#x2013;" 
d="M55 400h490v-140h-490v140z" />
    <glyph glyph-name="emdash" unicode="&#x2014;" 
d="M10 400h580v-140h-580v140z" />
    <glyph glyph-name="quoteleft" unicode="&#x2018;" 
d="M203.024 504.009l129.992 310.981h129.992l-79.9951 -310.981h-179.989z" />
    <glyph glyph-name="quoteright" unicode="&#x2019;" 
d="M398 776l-130 -311h-130l80 311h180z" />
    <glyph glyph-name="quotesinglbase" unicode="&#x201a;" 
d="M400 151l-130 -311h-130l80 311h180z" />
    <glyph glyph-name="quotedblleft" unicode="&#x201c;" 
d="M65.0244 504.009l129.992 310.981h129.992l-79.9951 -310.981h-179.989zM340.024 504.009l129.992 310.981h129.992l-79.9951 -310.981h-179.989z" />
    <glyph glyph-name="quotedblright" unicode="&#x201d;" 
d="M535 776l-130 -311h-130l80 311h180zM260 776l-130 -311h-130l80 311h180z" />
    <glyph glyph-name="quotedblbase" unicode="&#x201e;" 
d="M535 150l-130 -311h-130l80 311h180zM260 151l-130 -311h-130l80 311h180z" />
    <glyph glyph-name="dagger" unicode="&#x2020;" 
d="M225 830h150v-940h-150v940zM100 400h400v-140h-400v140z" />
    <glyph glyph-name="daggerdbl" unicode="&#x2021;" 
d="M225 830h150v-940h-150v940zM80 275h440v-140h-440v140zM80 385v140h440v-140h-440z" />
    <glyph glyph-name="bullet" unicode="&#x2022;" 
d="M160 355q0 62 38.5 99.5t101.5 37.5t101.5 -37.5t38.5 -99.5q0 -60 -38.5 -96.5t-101.5 -36.5t-101.5 36.5t-38.5 96.5z" />
    <glyph glyph-name="ellipsis" unicode="&#x2026;" 
d="M45 115q0 29 17.5 47t46.5 18q30 0 48 -18t18 -47v-60q0 -29 -18 -47t-48 -18q-29 0 -46.5 18t-17.5 47v60zM235 115q0 29 17.5 47t46.5 18q30 0 48 -18t18 -47v-60q0 -29 -18 -47t-48 -18q-29 0 -46.5 18t-17.5 47v60zM425 115q0 29 17.5 47t46.5 18q30 0 48 -18t18 -47
v-60q0 -29 -18 -47t-48 -18q-29 0 -46.5 18t-17.5 47v60z" />
    <glyph glyph-name="perthousand" unicode="&#x2030;" 
d="M167 180q0 53 34 81.5t83 28.5q29 0 46 -10t28 -22q11 -14 17 -32q6 18 18 32q11 12 28.5 22t45.5 10q49 0 83 -28.5t34 -81.5v-75q0 -53 -34 -81.5t-83 -28.5q-28 0 -45.5 10t-28.5 22q-11 14 -17 32q-6 -18 -18 -32q-10 -12 -27.5 -22t-46.5 -10q-49 0 -83 28.5
t-34 81.5v75zM30 545v65q0 52 35.5 83.5t94.5 31.5t94.5 -31.5t35.5 -83.5v-65q0 -52 -35.5 -83.5t-94.5 -31.5t-94.5 31.5t-35.5 83.5zM30 264v81l540 160v-81zM414 105q0 -20 12.5 -32t33.5 -12q19 0 30.5 12t11.5 32v75q0 20 -11.5 32t-30.5 12q-21 0 -33.5 -12
t-12.5 -32v-75zM249 105q0 -20 12 -32t31 -12q21 0 32.5 12t11.5 32v75q0 20 -11.5 32t-32.5 12q-19 0 -31 -12t-12 -32v-75zM115 610v-65q0 -20 12.5 -32.5t32.5 -12.5t32.5 12.5t12.5 32.5v65q0 21 -12.5 33.5t-32.5 12.5t-32.5 -12.5t-12.5 -33.5z" />
    <glyph glyph-name="guilsinglleft" unicode="&#x2039;" 
d="M305 520h155l-141 -204q-7 -10 -13.5 -16.5l-11.5 -11.5q-6 -4 -11 -7v-2q5 -3 11 -8q12 -9 25 -27l141 -204h-155l-165 240z" />
    <glyph glyph-name="guilsinglright" unicode="&#x203a;" 
d="M460 280l-165 -240h-155l141 204q13 18 25 27q6 5 11 8v2q-5 3 -11 7q-5 5 -11 11.5t-14 16.5l-141 204h155z" />
    <glyph glyph-name="fraction" unicode="&#x2044;" 
d="M450 710h81l-381 -710h-81z" />
    <glyph glyph-name="uni2070" unicode="&#x2070;" 
d="M300 695q-27 0 -43.5 -16.5t-16.5 -43.5v-65q0 -27 16.5 -43.5t43.5 -16.5t43.5 16.5t16.5 43.5v65q0 27 -16.5 43.5t-43.5 16.5zM300 435q-63 0 -101.5 37t-38.5 98v65q0 61 38.5 98t101.5 37t101.5 -37t38.5 -98v-65q0 -61 -38.5 -98t-101.5 -37z" />
    <glyph glyph-name="uni2074" unicode="&#x2074;" 
d="M291 765h99l-135 -179v-16h76v75h90v-205h-90v60h-166v100z" />
    <glyph glyph-name="uni2080" unicode="&#x2080;" 
d="M300 210q-27 0 -43.5 -16.5t-16.5 -43.5v-65q0 -27 16.5 -43.5t43.5 -16.5t43.5 16.5t16.5 43.5v65q0 27 -16.5 43.5t-43.5 16.5zM300 -50q-63 0 -101.5 37t-38.5 98v65q0 61 38.5 98t101.5 37t101.5 -37t38.5 -98v-65q0 -61 -38.5 -98t-101.5 -37z" />
    <glyph glyph-name="uni2081" unicode="&#x2081;" 
d="M170 -45v75h114v130q0 24 3 38t3 15h-5q-6 -6 -12 -13q-5 -5 -12.5 -12t-15.5 -13l-61 -47v98l75 54h115v-250h90v-75h-294z" />
    <glyph glyph-name="uni2082" unicode="&#x2082;" 
d="M415 182q0 -35 -23.5 -63t-73.5 -54l-58 -31v-9q10 1 21 3q9 1 19.5 1.5t19.5 0.5h100v-75h-275v89l143 80q37 21 37 50q0 19 -11.5 30t-30.5 11q-22 0 -35 -12t-13 -32h-90q0 51 38.5 82.5t99.5 31.5q60 0 96 -28t36 -75z" />
    <glyph glyph-name="uni2083" unicode="&#x2083;" 
d="M284 -50q-63 0 -101 28.5t-38 76.5h90q0 -16 13.5 -25.5t35.5 -9.5q21 0 33.5 11t12.5 29t-12.5 29t-32.5 11h-30v66l85 51v7q-10 -3 -23 -4q-23 -5 -62 -5h-85v65h235v-71l-50 -38q-4 -2 -12 -5.5t-16 -6.5q43 -6 68 -32.5t25 -66.5q0 -50 -37 -80t-99 -30z" />
    <glyph glyph-name="uni2084" unicode="&#x2084;" 
d="M291 280h99l-135 -179v-16h76v75h90v-205h-90v60h-166v100z" />
    <glyph glyph-name="Euro" unicode="&#x20ac;" 
d="M356 480v-95h-143v-70h143v-95h-143v-5q0 -42 26.5 -66t74.5 -24q47 0 74 25t27 65h150q0 -51 -18 -92.5t-51 -71t-79 -45.5t-103 -16t-103 16t-79 45.5t-51 71t-18 92.5v5h-48v95h48v70h-48v95h48v25q0 51 18 92.5t51 71t79.5 45.5t103.5 16q56 0 102 -16t79 -45.5
t51 -71t18 -92.5h-150q0 42 -27 66t-73 24q-47 0 -74.5 -24t-27.5 -66v-25h143z" />
    <glyph glyph-name="uni2113" unicode="&#x2113;" 
d="M134 335v220q0 42 14 76t39.5 58t61.5 37.5t80 13.5q42 0 76 -13.5t58 -37.5t37.5 -58t13.5 -76v-32q0 -39 -13 -76t-36.5 -68.5t-57 -56.5t-74.5 -41l-49 -19v-82q0 -26 14.5 -40.5t40.5 -14.5q17 0 29.5 7t21.5 16q10 9 18 22l112 -77q-17 -29 -42 -51q-23 -20 -57 -36
t-82 -16q-44 0 -81.5 13t-65 37.5t-43 60t-15.5 79.5v25l-62 -24l-42 114zM291 395q38 14 60.5 49t22.5 79v32q0 25 -12.5 40t-32.5 15t-32.5 -15t-12.5 -40v-163z" />
    <glyph glyph-name="uni2116" unicode="&#x2116;" 
d="M15 720h140l85 -383q6 -25 12.5 -63.5t11.5 -75.5q7 -42 13 -88h14l-3.5 24.5t-8.5 63t-11.5 87.5t-12 97.5t-9 93t-3.5 74.5v170h120v-720h-140l-85 384q-6 29 -12.5 68t-11.5 74q-6 41 -11 84h-14q13 -91 23 -175q5 -36 9 -73t7 -72.5t5 -66t2 -53.5v-170h-120v720z
M490 730q43 0 69 -26t26 -69v-240q0 -43 -26 -69t-69 -26t-69 26t-26 69v240q0 43 26 69t69 26zM470 391q0 -21 20 -21t20 21v248q0 21 -20 21t-20 -21v-248z" />
    <glyph glyph-name="trademark" unicode="&#x2122;" 
d="M310 370v360h80l34 -102q4 -10 6 -21.5t3 -22.5q2 -12 3 -24h6q1 12 3 24q2 11 4 22.5t5 21.5l33 102h78v-360h-55v251q0 9 1 20.5t3 22.5q1 13 3 26h-9q-2 -14 -5 -26q-2 -11 -4.5 -23t-4.5 -21l-30 -110h-52l-32 111q-2 9 -5 20.5t-5 22.5q-3 13 -5 26h-8l4 -26
q2 -11 3 -22.5t1 -20.5v-251h-55zM275 730v-50h-100v-310h-60v310h-100v50h260z" />
    <glyph glyph-name="Omega" unicode="&#x2126;" 
d="M195 145q-41 6 -73 26q-28 17 -51 48.5t-23 85.5v201q0 51 18 92t51 70.5t79.5 45.5t103.5 16t103.5 -16t79.5 -45.5t51 -70.5t18 -92v-201q0 -27 -6.5 -48t-16.5 -37.5t-23 -28.5t-27 -20q-33 -19 -74 -25v-6h146v-140h-211v230q28 0 45 19t17 51v206q0 43 -27.5 68.5
t-74.5 25.5t-74.5 -25.5t-27.5 -68.5v-206q0 -32 17 -51t45 -19v-230h-210v140h145v5z" />
    <glyph glyph-name="estimated" unicode="&#x212e;" 
d="M300 -10q-54 0 -98 19t-75.5 53t-49 82t-17.5 106v220q0 58 17.5 106t49 82t75.5 53t98 19t98.5 -18.5t76 -52.5t48.5 -82t17 -107v-111h-380v-259q12 -18 32 -32q17 -13 43.5 -23t64.5 -10q57 0 104 30t68 80h55q-12 -35 -34.5 -63.5t-52 -49t-65.5 -31.5t-75 -11z
M440 409v211q-12 18 -32 33q-17 12 -43.5 22t-64.5 10t-64.5 -10t-43.5 -22q-20 -15 -32 -33v-211h280z" />
    <glyph glyph-name="partialdiff" unicode="&#x2202;" 
d="M402 275q0 43 -27 67t-75 24t-75 -24t-27 -67v-60q0 -45 27 -70t75 -25t75 25t27 70v60zM552 210q0 -48 -18 -88.5t-51 -70t-79.5 -45.5t-103.5 -16t-103.5 17t-79.5 47t-51 71.5t-18 89.5v60q0 102 54 161t148 59q48 0 75.5 -15.5t42.5 -34.5q17 -22 24 -50h10
q-2 29 -14 61q-11 27 -32.5 60.5t-60.5 68.5l-163 145h209l85 -76q62 -55 94 -123t32 -146v-175z" />
    <glyph glyph-name="Delta" unicode="&#x2206;" 
d="M202 720h200l158 -603v-117h-520v117zM189 117h220l-92 402q-3 15 -6 32.5t-5 33.5q-2 17 -4 35h-6q-2 -18 -5 -35q-2 -16 -4.5 -33.5t-6.5 -32.5z" />
    <glyph glyph-name="product" unicode="&#x220f;" 
d="M65 0v720h470v-720h-150v580h-170v-580h-150z" />
    <glyph glyph-name="summation" unicode="&#x2211;" 
d="M540 720v-139h-230l-73 4v-2l228 -237v-137l-228 -237v-2l73 4h230v-139h-485v141l280 297l-280 306v141h485z" />
    <glyph glyph-name="minus" unicode="&#x2212;" 
d="M100 400h400v-140h-400v140z" />
    <glyph glyph-name="uni2215" unicode="&#x2215;" 
d="M450 710h81l-381 -710h-81z" />
    <glyph glyph-name="uni2219" unicode="&#x2219;" 
d="M195 329q0 48 28.5 77t76.5 29t76.5 -29t28.5 -77q0 -47 -28.5 -75.5t-76.5 -28.5t-76.5 28.5t-28.5 75.5z" />
    <glyph glyph-name="radical" unicode="&#x221a;" 
d="M5 415v135h200l79 -332q5 -18 8 -37t5 -35q2 -19 3 -36h6q1 17 3 36q2 16 5 35t8 37l133 512h150l-211 -730h-186l-110 415h-93z" />
    <glyph glyph-name="infinity" unicode="&#x221e;" 
d="M172 505q53 0 91.5 -25.5t57.5 -73.5h5q5 28 19 50q13 18 36 33.5t63 15.5q62 0 99 -38.5t37 -101.5v-65q0 -30 -11 -56t-31 -44.5t-48 -29t-62 -10.5q-53 0 -91.5 25.5t-57.5 73.5h-5q-5 -28 -19 -49q-12 -19 -35.5 -34.5t-63.5 -15.5q-62 0 -99 38.5t-37 101.5v65
q0 30 11 56t31 44.5t48 29t62 10.5zM425 420q-26 0 -42 -10.5t-25 -23.5q-11 -16 -17 -35l22 -61q8 -23 25 -34t37 -11q25 0 40 15t15 40v65q0 25 -15 40t-40 15zM175 420q-25 0 -40 -15t-15 -40v-65q0 -25 15 -40t40 -15q26 0 42 10.5t26 24.5q11 15 16 34l-22 61
q-19 45 -62 45z" />
    <glyph glyph-name="integral" unicode="&#x222b;" 
d="M580 730v-145h-125q-38 0 -59 -20t-21 -56v-469q0 -45 -17.5 -83t-49.5 -65t-76 -42t-97 -15h-115v145h125q38 0 59 20t21 56v469q0 45 17.5 83t49.5 65t76 42t97 15h115z" />
    <glyph glyph-name="approxequal" unicode="&#x2248;" 
d="M410 350q-49 0 -79 15.5t-52 34.5t-40 34.5t-42 15.5q-17 0 -27 -10.5t-10 -27.5v-57h-110v70q0 60 37.5 95t102.5 35q49 0 79 -15.5t52 -34.5t40 -34.5t42 -15.5q17 0 27 10.5t10 27.5v57h110v-70q0 -60 -37.5 -95t-102.5 -35zM410 105q-49 0 -79 15.5t-52 34.5
t-40 34.5t-42 15.5q-17 0 -27 -10.5t-10 -27.5v-57h-110v70q0 60 37.5 95t102.5 35q49 0 79 -15.5t52 -34.5t40 -34.5t42 -15.5q17 0 27 10.5t10 27.5v57h110v-70q0 -60 -37.5 -95t-102.5 -35z" />
    <glyph glyph-name="notequal" unicode="&#x2260;" 
d="M80 275h130l48 110h-178v140h239l61 140h130l-61 -140h71v-140h-132l-48 -110h180v-140h-241l-59 -135h-130l59 135h-69v140z" />
    <glyph glyph-name="lessequal" unicode="&#x2264;" 
d="M70 526l460 199v-136l-276 -112q-14 -6 -30 -9t-30 -4q-16 -2 -31 -2v-10q15 -1 31 -3q14 -2 30 -5.5t30 -9.5l276 -112v-137l-460 198v143zM70 140h460v-140h-460v140z" />
    <glyph glyph-name="greaterequal" unicode="&#x2265;" 
d="M70 320l276 112q15 6 30.5 9t29.5 5q16 1 31 1v10q-15 1 -31 3q-14 2 -30 6t-30 9l-276 112v137l460 -198v-143l-460 -199v136zM70 140h460v-140h-460v140z" />
    <glyph glyph-name="lozenge" unicode="&#x25ca;" 
d="M40 417l162 303h200l158 -303v-114l-158 -303h-200l-162 300v117zM410 417l-67 122q-8 15 -15.5 31t-13.5 30l-12 30h-6l-14 -32q-6 -14 -13 -29.5t-15 -29.5l-64 -122v-114l64 -122q8 -14 15 -29.5t13 -29.5l14 -32h6q6 15 12 31q6 13 13.5 29t15.5 31l67 122v114z" />
    <glyph glyph-name="uni26C4" unicode="&#x26c4;" 
d="M250 -127v-38h-38v44q-99 23 -155.5 91t-56.5 170q0 63 20 105t65 67q-24 5 -32 37q-5 20 3 35t25 19q3 1 8 1q14 0 24.5 -10.5t14.5 -28.5q5 -21 -5 -37q66 22 177 22t177 -22q-9 16 -5 38q8 38 39 38q6 0 9 -1q16 -3 23.5 -18t3.5 -35q-8 -33 -33 -38q46 -25 66 -67
t20 -104q0 -103 -56.5 -171t-155.5 -91v-44h-38v38q-24 -3 -50 -3t-50 3zM35 180q0 -36 15.5 -64t43.5 -47t68 -29t88 -10q23 0 39 1t27 3q13 2 21 4q-4 -10 -13 -22q-7 -10 -20 -23t-35 -27q67 0 121.5 13.5t93.5 41t60 67.5t21 92q0 59 -34 94.5t-91 35.5
q-52 0 -83.5 -28.5t-31.5 -75.5q0 -25 13 -48t33 -34l64 -34h-146q-20 0 -32 11t-12 28q0 18 11 29t29 11q0 27 -9.5 52.5t-26 45t-39.5 31.5t-50 12q-57 0 -91 -35.5t-34 -94.5zM80 815q0 81 30 125.5t84 44.5q53 0 82 -44.5t29 -125.5q0 -56 -19.5 -110.5t-54.5 -93.5
l-87 -98v-9l171 1v-55h-235v70l110 125q26 29 40.5 74t14.5 96q0 115 -50 115q-26 0 -40.5 -30t-14.5 -85q0 -42 5 -75t11 -56q6 -27 15 -47h-60q-9 20 -15 47q-6 23 -11 56t-5 75zM330 625q0 34 3 60.5t7 45.5q4 22 10 39h60q-6 -17 -10 -39q-4 -19 -7 -45.5t-3 -60.5
q0 -57 15 -91t40 -34t40 34t15 91q0 33 -4 61t-11 49t-17.5 33t-22.5 12h-35v65l71 72v8h-141v55h205v-60l-75 -81v-11q41 -11 65.5 -67t24.5 -136q0 -81 -31.5 -130.5t-83.5 -49.5t-83.5 49.5t-31.5 130.5zM385 195q0 23 13.5 36.5t36.5 13.5t36.5 -13.5t13.5 -36.5
t-13.5 -36.5t-36.5 -13.5t-36.5 13.5t-13.5 36.5zM115 195q0 22 14 36t36 14q23 0 36.5 -13.5t13.5 -36.5t-13.5 -36.5t-36.5 -13.5t-36.5 13.5t-13.5 36.5zM0 448v76h57v-76h-57z" />
    <glyph glyph-name="fi" unicode="&#xfb01;" horiz-adv-x="1200" 
d="M49 360v135h146v65q0 38 13.5 69.5t38.5 54t60 34.5t78 12h161v-130h-156q-20 0 -32.5 -12.5t-12.5 -32.5v-60h201v-135h-201v-360h-150v360h-146zM675 136h195v279h-170v135h310v-414h155v-136h-490v136zM840 695q0 32 20.5 51t54.5 19h30q34 0 54.5 -19t20.5 -51
t-20.5 -51t-55.5 -19h-29q-34 0 -54.5 19t-20.5 51z" />
    <glyph glyph-name="fl" unicode="&#xfb02;" horiz-adv-x="1200" 
d="M49 360v135h146v65q0 38 13.5 69.5t38.5 54t60 34.5t78 12h161v-130h-156q-20 0 -32.5 -12.5t-12.5 -32.5v-60h201v-135h-201v-360h-150v360h-146zM945 730v-540q0 -26 14.5 -40.5t40.5 -14.5h165v-135h-180q-89 0 -139.5 50.5t-50.5 139.5v405h-170v135h320z" />
    <glyph glyph-name="hyphen_hyphen_greater.liga" 
d="M-1100 400h1410q-3 3 -5.5 6.5t-5.5 7.5l-156 211h177l220 -295l-221 -295h-176l157 210l12 15h-1412v140z" />
    <glyph glyph-name="slash_slash.liga" 
d="M320 830h155l-345 -940h-155zM-130 830h155l-345 -940h-155z" />
    <glyph glyph-name="slash_asterisk_asterisk.liga" 
d="M-805 830h155l-345 -940h-155zM-622 497l44 122l52 -19q20 -7 41 -19.5t41 -26.5t37.5 -28t30.5 -25l5 4q-6 15 -13 37t-14 46.5t-11.5 49.5t-4.5 47v55h130v-55q0 -22 -4.5 -47t-11.5 -49.5t-14 -46.5t-13 -37l4 -3q13 11 30.5 25t37.5 28t41.5 26t40.5 19l52 19
l45 -122l-52 -19q-19 -7 -43 -11.5t-48 -6.5t-46.5 -3t-39.5 -1l-2 -4q14 -9 32 -22.5t37 -29.5t37 -33.5t30 -34.5l31 -46l-106 -74l-32 45q-12 18 -23 41t-19.5 47t-15 46t-10.5 38h-6q-4 -16 -10.5 -38t-15 -46t-19.5 -47t-23 -41l-32 -45l-106 74l31 45q12 18 30 35.5
t37 33.5t37.5 29.5t31.5 22.5l-2 4q-17 0 -39.5 1t-47 3t-48 6.5t-43.5 11.5zM-32 497l44 122l52 -19q20 -7 41 -19.5t41 -26.5t37.5 -28t30.5 -25l5 4q-6 15 -13 37t-14 46.5t-11.5 49.5t-4.5 47v55h130v-55q0 -22 -4.5 -47t-11.5 -49.5t-14 -46.5t-13 -37l4 -3
q13 11 30.5 25t37.5 28t41.5 26t40.5 19l52 19l45 -122l-52 -19q-19 -7 -43 -11.5t-48 -6.5t-46.5 -3t-39.5 -1l-2 -4q14 -9 32 -22.5t37 -29.5t37 -33.5t30 -34.5l31 -46l-106 -74l-32 45q-12 18 -23 41t-19.5 47t-15 46t-10.5 38h-6q-4 -16 -10.5 -38t-15 -46t-19.5 -47
t-23 -41l-32 -45l-106 74l31 45q12 18 30 35.5t37 33.5t37.5 29.5t31.5 22.5l-2 4q-17 0 -39.5 1t-47 3t-48 6.5t-43.5 11.5z" />
    <glyph glyph-name="slash_asterisk.liga" 
d="M-205 830h155l-345 -940h-155zM-22 497l44 122l52 -19q20 -7 41 -19.5t41 -26.5t37.5 -28t30.5 -25l5 4q-6 15 -13 37t-14 46.5t-11.5 49.5t-4.5 47v55h130v-55q0 -22 -4.5 -47t-11.5 -49.5t-14 -46.5t-13 -37l4 -3q13 11 30.5 25t37.5 28t41.5 26t40.5 19l52 19l45 -122
l-52 -19q-19 -7 -43 -11.5t-48 -6.5t-46.5 -3t-39.5 -1l-2 -4q14 -9 32 -22.5t37 -29.5t37 -33.5t30 -34.5l31 -46l-106 -74l-32 45q-12 18 -23 41t-19.5 47t-15 46t-10.5 38h-6q-4 -16 -10.5 -38t-15 -46t-19.5 -47t-23 -41l-32 -45l-106 74l31 45q12 18 30 35.5t37 33.5
t37.5 29.5t31.5 22.5l-2 4q-17 0 -39.5 1t-47 3t-48 6.5t-43.5 11.5z" />
    <glyph glyph-name="asterisk_slash.liga" 
d="M-523 287l44 122l52 -19q20 -7 41 -19.5t41 -26.5t37.5 -28t30.5 -25l5 4q-6 15 -13 37t-14 46.5t-11.5 49.5t-4.5 47v55h130v-55q0 -22 -4.5 -47t-11.5 -49.5t-14 -46.5t-13 -37l4 -3q13 11 30.5 25t37.5 28t41.5 26t40.5 19l52 19l45 -122l-52 -19q-19 -7 -43 -11.5
t-48 -6.5t-46.5 -3t-39.5 -1l-2 -4q14 -9 32 -22.5t37 -29.5t37 -33.5t30 -34.5l31 -46l-106 -74l-32 45q-12 18 -23 41t-19.5 47t-15 46t-10.5 38h-6q-4 -16 -10.5 -38t-15 -46t-19.5 -47t-23 -41l-32 -45l-106 74l31 45q12 18 30 35.5t37 33.5t37.5 29.5t31.5 22.5l-2 4
q-17 0 -39.5 1t-47 3t-48 6.5t-43.5 11.5zM395 830h155l-345 -940h-155z" />
    <glyph glyph-name="less_exclam_hyphen_hyphen.liga" 
d="M-825 260v140h1325v-140h-1325zM-1522 625h177l-156 -211q-3 -4 -5.5 -7.5t-5.5 -6.5h317v-140h-318q2 -4 5 -7.5t6 -7.5l157 -210h-174l-221 295zM-931 720v-150l-23 -325h-112l-23 325v150h158zM-1100 65q0 32 20.5 51t54.5 19h30q34 0 54.5 -19t20.5 -51t-20.5 -51
t-55.5 -19h-29q-34 0 -54.5 19t-20.5 51zM-1578 328l2 -2q3 -3 6 -5v17q-3 -2 -6 -5l-2 -2v-3z" />
    <glyph glyph-name="colon_equal.liga" 
d="M-80 275h550v-140h-550v140zM-80 525h550v-140h-550v140zM-350 575q45 0 72.5 -27.5t27.5 -73.5q0 -43 -27.5 -69t-72.5 -26t-72.5 26t-27.5 69q0 46 27.5 73.5t72.5 27.5zM-450 180q0 46 27.5 73.5t72.5 27.5t72.5 -27.5t27.5 -73.5q0 -43 -27.5 -69t-72.5 -26t-72.5 26
t-27.5 69z" />
    <glyph glyph-name="hyphen_greater_greater.liga" 
d="M-1100 400h1040q-3 3 -5.5 6.5t-5.5 7.5l-156 211h177l220 -295l-221 -295h-176l157 210l12 15h-1042v140zM143 625h177l220 -295l-221 -295h-176l157 210q14 19 27.5 34t24.5 26q13 13 24 23v3q-11 10 -24 22q-11 11 -25 26.5t-28 34.5zM0 336v-13q2 2 3 2.5t2 1.5l1 1
v3l-1 1q-3 3 -5 4z" />
    <glyph glyph-name="less_less_hyphen.liga" 
d="M-552 625h177l-156 -211q-3 -4 -5.5 -7.5t-5.5 -6.5h1042v-140h-1043q2 -4 5 -7.5t6 -7.5l157 -210h-174l-221 295zM-922 625h177l-156 -211q-14 -19 -27.5 -34t-24.5 -26q-13 -13 -25 -23v-3q12 -10 24 -23q11 -11 24.5 -26t27.5 -34l157 -210h-174l-221 295z" />
    <glyph glyph-name="hyphen_greater.liga" 
d="M-500 400h810q-3 3 -5.5 6.5t-5.5 7.5l-156 211h177l220 -295l-221 -295h-176l157 210l12 15h-812v140z" />
    <glyph glyph-name="less_hyphen.liga" 
d="M-322 625h177l-156 -211q-3 -4 -5.5 -7.5t-5.5 -6.5h812v-140h-813q2 -4 5 -7.5t6 -7.5l157 -210h-174l-221 295z" />
    <glyph glyph-name="less_equal_greater.liga" 
d="M-922 625h177l-74 -100h1036l-74 100h177l220 -295l-221 -295h-176l75 100h-1038l75 -100h-174l-221 295zM-978 328q14 -12 27 -25.5t25 -27.5h1250q11 14 24.5 28t27.5 25v3q-29 25 -54 54h-1246q-26 -28 -54 -54v-3z" />
    <glyph glyph-name="equal_equal.liga" 
d="M-520 385v140h1040v-140h-1040zM520 275v-140h-1040v140h1040z" />
    <glyph glyph-name="exclam_equal.liga" 
d="M-520 275h404l71 110h-475v140h565l91 140h150l-91 -140h325v-140h-415l-71 -110h486v-140h-577l-87 -135h-150l87 135h-313v140z" />
    <glyph glyph-name="less_equal.liga" 
d="M-305 351v147l610 202v-136l-426 -122q-19 -5 -39.5 -6.5t-34.5 -1.5h-17v-10q23 0 46 -1.5t45 -7.5l426 -128v-137zM-305 121v127l610 -201v-127z" />
    <glyph glyph-name="greater_equal.liga" 
d="M-305 150v137l426 122q14 5 30 7t30 3q16 2 31 2v10q-23 0 -45.5 1.5t-45.5 7.5l-426 124v136l610 -202v-147zM-305 47l610 201v-127l-610 -201v127z" />
    <glyph glyph-name="equal_colon_equal.liga" 
d="M-550 275v-140h-570v140h570zM-550 525v-140h-570v140h570zM520 275v-140h-570v140h570zM-50 525h570v-140h-570v140zM-400 474q0 45 26.5 73t73.5 28t73.5 -28t26.5 -73q0 -46 -28.5 -70.5t-71.5 -24.5t-71.5 24.5t-28.5 70.5zM-400 180q0 47 27.5 74t72.5 27t72.5 -27
t27.5 -74q0 -44 -27.5 -69.5t-72.5 -25.5t-72.5 25.5t-27.5 69.5z" />
    <glyph glyph-name="exclam_equal_equal.liga" 
d="M-1120 380h789l58 90h-847v100h911l84 130h122l-84 -130h607v-100h-671l-58 -90h729v-100h-794l-58 -90h852v-100h-916l-80 -124h-122l80 124h-602v100h666l58 90h-724v100z" />
    <glyph glyph-name="ampersand_ampersand.liga" 
d="M204 -10q-96 0 -148 52.5t-52 152.5v65q0 56 23.5 102t78.5 67q-14 28 -24 53.5t-12 57.5q0 92 55 141t145 49q46 0 84 -13.5t65 -38.5t41.5 -60t14.5 -78h-135q0 32 -19 51t-51 19t-51 -19t-19 -51q0 -21 10 -44t36 -60l115 -165l43 89h140l-102 -205l108 -155h-143
l-37 52q-71 -62 -166 -62zM-526 195v65q0 65 26.5 108t75.5 61q-19 33 -27.5 62.5t-8.5 59.5q0 40 14.5 73t40.5 56.5t63 36.5t82 13q46 0 84 -13.5t65 -38.5t41.5 -60t14.5 -78h-135q0 32 -19 51t-51 19t-51 -19t-19 -51q0 -20 9.5 -42.5t33.5 -57.5q1 -1 1.5 -2t1.5 -2
l304 -436h-143l-36 51q-69 -61 -167 -61q-94 0 -147 51.5t-53 153.5zM172 332q-28 -20 -28 -72v-65q0 -42 20.5 -63.5t54.5 -21.5q27 0 47 11.5t34 29.5zM-358 332q-28 -20 -28 -72v-65q0 -42 20.5 -63.5t54.5 -21.5q27 0 47 11.5t34 29.5z" />
    <glyph glyph-name="bar_bar.liga" 
d="M165 830h150v-940h-150v940zM-315 830h150v-940h-150v940z" />
    <glyph glyph-name="period_period_period.liga" 
d="M-925 94q0 48 28.5 77t76.5 29t76.5 -29t28.5 -77q0 -47 -28.5 -75.5t-76.5 -28.5t-76.5 28.5t-28.5 75.5zM-405 94q0 48 28.5 77t76.5 29t76.5 -29t28.5 -77q0 -47 -28.5 -75.5t-76.5 -28.5t-76.5 28.5t-28.5 75.5zM115 94q0 48 28.5 77t76.5 29t76.5 -29t28.5 -77
q0 -47 -28.5 -75.5t-76.5 -28.5t-76.5 28.5t-28.5 75.5z" />
    <glyph glyph-name="period_period.liga" 
d="M-325 94q0 48 28.5 77t76.5 29t76.5 -29t28.5 -77q0 -47 -28.5 -75.5t-76.5 -28.5t-76.5 28.5t-28.5 75.5zM115 94q0 48 28.5 77t76.5 29t76.5 -29t28.5 -77q0 -47 -28.5 -75.5t-76.5 -28.5t-76.5 28.5t-28.5 75.5z" />
    <glyph glyph-name="grave.case" 
d="M155 946h150l100 -146h-130z" />
    <glyph glyph-name="dieresis.case" 
d="M120 879q0 29 20.5 47t54.5 18t54.5 -18t20.5 -47q0 -31 -20.5 -49.5t-54.5 -18.5t-54.5 18.5t-20.5 49.5zM330 879q0 29 20.5 47t54.5 18t54.5 -18t20.5 -47q0 -31 -20.5 -49.5t-54.5 -18.5t-54.5 18.5t-20.5 49.5z" />
    <glyph glyph-name="macron.case" 
d="M150 945h300v-130h-300v130z" />
    <glyph glyph-name="acute.case" 
d="M305 800h-130l100 146h150z" />
    <glyph glyph-name="circumflex.case" 
d="M215 945h170l100 -145h-110l-48 57q-8 10 -13 16.5t-8 10.5q-4 4 -5 7h-2q-1 -2 -5 -6q-2 -4 -7.5 -10t-13.5 -17l-48 -58h-110z" />
    <glyph glyph-name="caron.case" 
d="M115 945h110l48 -58q17 -19 21 -27q4 -4 5 -6h2q1 3 5 7q3 5 8 11t13 16l48 57h110l-100 -145h-170z" />
    <glyph glyph-name="breve.case" 
d="M235 940q0 -27 17 -41t47 -14q32 0 49 14t17 41h115q0 -33 -13 -59.5t-36.5 -45.5t-56.5 -29.5t-74 -10.5q-40 0 -73.5 10.5t-57 29.5t-36.5 45.5t-13 59.5h115z" />
    <glyph glyph-name="dotaccent.case" 
d="M275 955h30q34 0 54.5 -19t20.5 -51t-20.5 -51t-55.5 -19h-29q-34 0 -54.5 19t-20.5 51t20.5 51t54.5 19z" />
    <glyph glyph-name="ring.case" 
d="M180 870q0 48 33 76.5t87 28.5t87 -28.5t33 -76.5t-33 -76.5t-87 -28.5t-87 28.5t-33 76.5zM250 870q0 -51 49 -51q51 0 51 51t-51 51q-49 0 -49 -51z" />
    <glyph glyph-name="tilde.case" 
d="M380 890q14 0 22 7.5t8 20.5v37h85v-35q0 -51 -29.5 -83t-80.5 -32q-32 0 -54.5 11t-41 24t-34.5 24t-35 11q-14 0 -22 -9t-8 -24v-32h-85v35q0 51 29.5 83t80.5 32q32 0 54.5 -11t41 -24t34.5 -24t35 -11z" />
    <glyph glyph-name="hungarumlaut.case" 
d="M340.01 946h-149.991l-99.9941 -146h129.992zM570.01 946h-149.991l-99.9941 -146h129.992z" />
    <glyph glyph-name="caron.salt" 
d="M115 785h110l48 -58q17 -19 21 -27q4 -4 5 -6h2q1 3 5 7q3 5 8 11t13 16l48 57h110l-100 -145h-170z" />
    <glyph glyph-name="commaaccent" 
d="M425 -95l-125 -150h-125l85 150h165z" />
    <glyph glyph-name="commaaccent.salt" 
d="M425 -95l-125 -150h-125l85 150h165z" />
    <glyph glyph-name="bar_bar_bar.liga" 
d="M266 820v-940h-150v940h150zM-232 820v-940h-150v940h150zM-865 -120v940h150v-940h-150z" />
    <glyph glyph-name="slash_slash_slash.liga" 
d="M-685 830h155l-345 -940h-155zM-205 830h155l-345 -940h-155zM275 830h155l-345 -940h-155z" />
    <glyph glyph-name="ampersand_ampersand_ampersand.liga" 
d="M-36 260q0 56 23.5 102t78.5 67q-14 28 -24 53.5t-12 57.5q0 92 55 141t145 49q46 0 84 -13.5t65 -38.5t41.5 -60t14.5 -78h-135q0 32 -19 51t-51 19t-51 -19t-19 -51q0 -21 10 -44t36 -60l115 -165l43 89h140l-102 -205l108 -155h-143l-37 52q-71 -62 -166 -62
q-96 0 -148 52.5t-52 152.5v65zM-1116 195v65q0 65 26.5 108t75.5 61q-19 33 -27.5 62.5t-8.5 59.5q0 40 14.5 73t40.5 56.5t63 36.5t82 13q46 0 84 -13.5t65 -38.5t41.5 -60t14.5 -78h-135q0 32 -19 51t-51 19t-51 -19t-19 -51q0 -20 9.5 -42.5t33.5 -57.5q1 -1 1.5 -2
t1.5 -2l304 -436h-143l-36 51q-69 -61 -167 -61q-94 0 -147 51.5t-53 153.5zM-576 260q0 28 5.5 54t17.5 48t31.5 39.5t47.5 27.5q-14 28 -24 53.5t-12 57.5q0 92 55 141t145 49q46 0 84 -13.5t65 -38.5t41.5 -60t14.5 -78h-135q0 32 -19 51t-51 19t-51 -19t-19 -51
q0 -20 9.5 -42.5t33.5 -57.5q1 -1 1.5 -2t1.5 -2l304 -436h-143l-36 51q-35 -31 -78 -46t-89 -15q-96 0 -148 52.5t-52 152.5v65zM-408 332q-28 -20 -28 -72v-65q0 -42 20.5 -63.5t54.5 -21.5q27 0 47 11.5t34 29.5zM132 332q-28 -20 -28 -72v-65q0 -42 20.5 -63.5
t54.5 -21.5q27 0 47 11.5t34 29.5zM-948 332q-28 -20 -28 -72v-65q0 -42 20.5 -63.5t54.5 -21.5q27 0 47 11.5t34 29.5z" />
    <glyph glyph-name="equal_equal_equal.liga" 
d="M520 190v-100h-1640v100h1640zM-1120 570h1640v-100h-1640v100zM-1120 380h1640v-100h-1640v100z" />
    <glyph glyph-name="plus_plus.liga" 
d="M-490 260v140h170v170h150v-170h340v170h150v-170h170v-140h-170v-170h-150v170h-340v-170h-150v170h-170z" />
    <glyph glyph-name="hyphen_hyphen.liga" 
d="M50 400h450v-140h-450v140zM-50 400v-140h-450v140h450z" />
    <glyph glyph-name="equal_greater.liga" 
d="M217 525l-74 100h177l220 -295l-221 -295h-176l75 100h-738v140h844q11 14 24.5 28t27.5 25v3q-29 25 -54 54h-842v140h737z" />
    <glyph glyph-name="bar_greater.liga" 
d="M-340 750h150l575 -348v-144l-575 -343h-150v835zM-190 584v-506l376 222q14 8 27 13t24 7q13 3 24 4v10q-12 1 -24 4q-11 2 -24 6.5t-26 12.5z" />
    <glyph glyph-name="less_bar.liga" 
d="M340 750v-835h-150l-575 343v144l575 348h150zM190 587l-376 -227q-14 -8 -27 -13t-24 -7q-13 -3 -24 -4v-10q12 -1 24 -4q11 -2 24 -6.5t26 -12.5l377 -222v506z" />
    <glyph glyph-name="bar_bar_greater.liga" 
d="M-250 750l575 -348v-144l-575 -343h-150v835h150zM-840 -85v835h150v-835h-150zM-250 78l376 222q14 8 27 13t24 7q13 3 24 4v10q-12 1 -24 4q-11 2 -24 6.5t-26 12.5l-377 227v-506z" />
    <glyph glyph-name="less_bar_bar.liga" 
d="M-930 402l575 348h150v-835h-150l-575 343v144zM90 -85v835h150v-835h-150zM-806 336v-10q12 -1 24 -4q11 -2 24 -6.5t26 -12.5l377 -222v506l-376 -227q-14 -8 -27 -13t-24 -7q-13 -3 -24 -4z" />
    <glyph glyph-name="bar_bar_bar_greater.liga" 
d="M-490 750h150l575 -348v-144l-575 -343h-150v835zM-935 -85v835h150v-835h-150zM-1215 750v-835h-150v835h150zM-340 78l376 222q14 8 27 13t24 7q13 3 24 4v10q-12 1 -24 4q-11 2 -24 6.5t-26 12.5l-377 227v-506z" />
    <glyph glyph-name="less_bar_bar_bar.liga" 
d="M-1435 402l575 348h150v-835h-150l-575 343v144zM-265 750v-835h-150v835h150zM15 -85v835h150v-835h-150zM-1311 326q12 -1 24 -4q11 -2 24 -6.5t26 -12.5l377 -222v506l-376 -227q-14 -8 -27 -13t-24 -7q-13 -3 -24 -4v-10z" />
    <glyph glyph-name="greater_greater.liga" 
d="M40 594l445 -191v-150l-445 -188v135l251 101q14 6 29.5 9.5t27.5 5.5q15 3 29 4v10q-14 2 -29 5q-12 2 -27.5 6t-29.5 10l-251 104v139zM-485 200l251 101q14 6 29 9.5t28 5.5q15 3 29 4v10q-14 2 -29 5q-13 2 -28 6t-29 10l-251 104v139l445 -191v-150l-445 -188v135z
" />
    <glyph glyph-name="less_less.liga" 
d="M470 595v-138l-251 -103q-14 -6 -29 -9.5t-28 -5.5q-15 -3 -29 -4v-10q14 -2 29 -4q13 -3 28 -7t29 -10l251 -103v-136l-445 190v150zM-485 405l445 190v-138l-251 -103q-14 -6 -29.5 -9.5t-27.5 -5.5q-15 -3 -29 -4v-10q14 -2 29 -4q12 -3 27.5 -7t29.5 -10l251 -103
v-136l-445 190v150z" />
    <glyph glyph-name="a.alt" 
d="M48 345q0 49 13.5 89t39 68t61 43t78.5 15q59 0 96.5 -28t45.5 -77h10v95h145v-550h-145v96h-10q-8 -50 -45.5 -78t-96.5 -28q-43 0 -78.5 15.5t-61 44t-39 69t-13.5 91.5v135zM292 121q45 0 70 25t25 64v130q0 41 -26 65.5t-69 24.5t-68.5 -24t-25.5 -66v-125
q0 -42 24.5 -68t69.5 -26z" />
    <glyph glyph-name="SPC" 
 />
    <glyph glyph-name="colon_colon_equal.liga" 
d="M-970 140q0 45 27.5 73t72.5 28t72.5 -28t27.5 -73q0 -42 -27.5 -68.5t-72.5 -26.5t-72.5 26.5t-27.5 68.5zM-970 514q0 45 27.5 73t72.5 28t72.5 -28t27.5 -73q0 -42 -27.5 -68.5t-72.5 -26.5t-72.5 26.5t-27.5 68.5zM-520 140q0 45 27.5 73t72.5 28t72.5 -28t27.5 -73
q0 -42 -27.5 -68.5t-72.5 -26.5t-72.5 26.5t-27.5 68.5zM-520 514q0 45 27.5 73t72.5 28t72.5 -28t27.5 -73q0 -42 -27.5 -68.5t-72.5 -26.5t-72.5 26.5t-27.5 68.5zM-50 275h440v-140h-440v140zM-50 385v140h440v-140h-440z" />
    <glyph glyph-name="bar_bracketright.liga" 
d="M-45 830h415v-940h-415v140h265v660h-265v140zM-370 -110v940h150v-940h-150z" />
    <glyph glyph-name="bracketleft_bar.liga" 
d="M44.9971 830h-414.975v-940h414.975v140h-264.983v660h264.983v140zM369.978 -110v940h-149.991v-940h149.991z" />
    <glyph glyph-name="braceleft_bar.liga" 
d="M-89.9951 830q-40.9971 0 -73.9951 -13t-56.4971 -37.5q-23.498 -24.5 -36.4971 -58.5t-12.999 -76v-145q0 -32 -18.999 -51t-50.9971 -19h-114.993v-140h114.993q31.998 0 50.9971 -19t18.999 -51v-151q0 -83 48.4971 -131.5q48.4961 -48.5 131.491 -48.5h129.992v140
h-99.9941q-28.998 0 -44.4971 14t-15.499 46v151q0 56 -38.4971 85q-38.498 29 -96.4941 31v5q58.9961 2 96.9941 32q37.9971 30 37.9971 87v150q0 27 16.499 43.5t43.4971 16.5h99.9941v140h-129.992zM364.978 -111v941h-149.991v-941h149.991z" />
    <glyph glyph-name="bar_braceright.liga" 
d="M85 830q41 0 74 -13t56.5 -37.5t36.5 -58.5t13 -76v-145q0 -32 19 -51t51 -19h115v-140h-115q-32 0 -51 -19t-19 -51v-151q0 -83 -48.5 -131.5t-131.5 -48.5h-130v140h100q29 0 44.5 14t15.5 46v151q0 56 38.5 85t96.5 31v5q-59 2 -97 32t-38 87v150q0 27 -16.5 43.5
t-43.5 16.5h-100v140h130zM-370 -111v941h150v-941h-150z" />
    <glyph glyph-name="bracketleft_less.liga" 
d="M-405 -110v940h305v-140h-155v-660h155v-140h-305zM-45 416l460 199v-136l-276 -112q-14 -6 -30 -9t-30 -4q-16 -2 -31 -2v-10q15 -1 31 -3q14 -2 30 -5.5t30 -9.5l276 -112v-137l-460 198v143z" />
    <glyph glyph-name="greater_bracketright.liga" 
d="M-415 210l276 112q15 6 30.5 9t29.5 5q16 1 31 1v10q-15 1 -31 3q-14 2 -30 6t-30 9l-276 112v137l460 -198v-143l-460 -199v136zM100 -110v140h155v660h-155v140h305v-940h-305z" />
    <glyph glyph-name="colon_question_greater.liga" 
d="M-585 720h155q56 0 102 -15t79 -42.5t51 -66.5t18 -86q0 -46 -15 -84t-42.5 -65t-66 -41.5t-85.5 -14.5v-80h-125l-5 215h100q42 0 65.5 18.5t23.5 51.5t-24 51.5t-66 18.5h-165v140zM256 307q15 6 30.5 9t29.5 5q16 1 31 1v10q-15 1 -31 3q-14 2 -30 6t-30 9l-276 112
v137l460 -198v-143l-460 -199v136zM-900 560q45 0 72.5 -28t27.5 -73q0 -42 -27.5 -68.5t-72.5 -26.5t-72.5 26.5t-27.5 68.5q0 45 27.5 73t72.5 28zM-1000 85q0 45 27.5 73t72.5 28t72.5 -28t27.5 -73q0 -42 -27.5 -68.5t-72.5 -26.5t-72.5 26.5t-27.5 68.5zM-546 65
q0 32 20.5 51t54.5 19h30q34 0 54.5 -19t20.5 -51t-20.5 -51t-55.5 -19h-29q-34 0 -54.5 19t-20.5 51z" />
    <glyph glyph-name="colon_question.liga" 
d="M-350 85q0 45 27.5 73t72.5 28t72.5 -28t27.5 -73q0 -42 -27.5 -68.5t-72.5 -26.5t-72.5 26.5t-27.5 68.5zM-350 459q0 45 27.5 73t72.5 28t72.5 -28t27.5 -73q0 -42 -27.5 -68.5t-72.5 -26.5t-72.5 26.5t-27.5 68.5zM139 135h30q34 0 54.5 -19t20.5 -51t-20.5 -51
t-55.5 -19h-29q-34 0 -54.5 19t-20.5 51t20.5 51t54.5 19zM430 510q0 -46 -15 -84t-42.5 -65t-66 -41.5t-85.5 -14.5v-80h-125l-5 215h100q42 0 65.5 18.5t23.5 51.5t-24 51.5t-66 18.5h-165v140h155q56 0 102 -15t79 -42.5t51 -66.5t18 -86z" />
    <glyph glyph-name="zero.alt" 
d="M300 -10q-57 0 -103.5 16t-79.5 45.5t-51 71t-18 92.5v291q0 51 18 92t51 70.5t79.5 45.5t103.5 16t103.5 -16t79.5 -45.5t51 -70.5t18 -92v-291q0 -50 -18.5 -91.5t-51.5 -71t-79.5 -46t-102.5 -16.5zM402 502v4q0 43 -27.5 68.5t-74.5 25.5t-74.5 -25.5t-27.5 -68.5
v-205zM198 218v-3q0 -43 27.5 -68.5t74.5 -25.5t74.5 25.5t27.5 68.5v204z" />
    <glyph glyph-name="slash_equal.liga" 
d="M-520 -110l345 940h155l-112 -306h622v-139h-673l-41 -111h714v-139h-765l-90 -245h-155z" />
    <glyph glyph-name="bracketleft_bar_bar_bracketright.liga" 
d="M65 30h155v660h-155v140h305v-940h-305v140zM-1570 830h305v-140h-155v-660h155v-140h-305v940zM-385 -110v940h150v-940h-150zM-815 830v-940h-150v940h150z" />
    <glyph glyph-name="exclam_exclam.liga" 
d="M-319 720h158v-150l-23 -325h-112l-23 325v150zM-255 135h30q34 0 54.5 -19t20.5 -51t-20.5 -51t-55.5 -19h-29q-34 0 -54.5 19t-20.5 51t20.5 51t54.5 19zM161 720h158v-150l-23 -325h-112l-23 325v150zM225 135h30q34 0 54.5 -19t20.5 -51t-20.5 -51t-55.5 -19h-29
q-34 0 -54.5 19t-20.5 51t20.5 51t54.5 19z" />
    <glyph glyph-name="question_colon.liga" 
d="M-261 135h30q34 0 54.5 -19t20.5 -51t-20.5 -51t-55.5 -19h-29q-34 0 -54.5 19t-20.5 51t20.5 51t54.5 19zM30 510q0 -46 -15 -84t-42.5 -65t-66 -41.5t-85.5 -14.5v-80h-125l-5 215h100q42 0 65.5 18.5t23.5 51.5t-24 51.5t-66 18.5h-165v140h155q56 0 102 -15t79 -42.5
t51 -66.5t18 -86zM150 85q0 45 27.5 73t72.5 28t72.5 -28t27.5 -73q0 -42 -27.5 -68.5t-72.5 -26.5t-72.5 26.5t-27.5 68.5zM150 459q0 45 27.5 73t72.5 28t72.5 -28t27.5 -73q0 -42 -27.5 -68.5t-72.5 -26.5t-72.5 26.5t-27.5 68.5z" />
    <glyph glyph-name="question_period.liga" 
d="M-261 135h30q34 0 54.5 -19t20.5 -51t-20.5 -51t-55.5 -19h-29q-34 0 -54.5 19t-20.5 51t20.5 51t54.5 19zM30 510q0 -46 -15 -84t-42.5 -65t-66 -41.5t-85.5 -14.5v-80h-125l-5 215h100q42 0 65.5 18.5t23.5 51.5t-24 51.5t-66 18.5h-165v140h155q56 0 102 -15t79 -42.5
t51 -66.5t18 -86zM115 94q0 48 28.5 77t76.5 29t76.5 -29t28.5 -77q0 -47 -28.5 -75.5t-76.5 -28.5t-76.5 28.5t-28.5 75.5z" />
    <glyph glyph-name="colon_colon.liga" 
d="M-320 85q0 45 27.5 73t72.5 28t72.5 -28t27.5 -73q0 -42 -27.5 -68.5t-72.5 -26.5t-72.5 26.5t-27.5 68.5zM-320 459q0 45 27.5 73t72.5 28t72.5 -28t27.5 -73q0 -42 -27.5 -68.5t-72.5 -26.5t-72.5 26.5t-27.5 68.5zM120 85q0 45 27.5 73t72.5 28t72.5 -28t27.5 -73
q0 -42 -27.5 -68.5t-72.5 -26.5t-72.5 26.5t-27.5 68.5zM120 459q0 45 27.5 73t72.5 28t72.5 -28t27.5 -73q0 -42 -27.5 -68.5t-72.5 -26.5t-72.5 26.5t-27.5 68.5z" />
    <glyph glyph-name="plus_plus_plus.liga" 
d="M-1035 260v140h170v170h150v-170h340v170h150v-170h340v170h150v-170h170v-140h-170v-170h-150v170h-340v-170h-150v170h-340v-170h-150v170h-170z" />
    <glyph glyph-name="question_question.liga" 
d="M-311 135h30q34 0 54.5 -19t20.5 -51t-20.5 -51t-55.5 -19h-29q-34 0 -54.5 19t-20.5 51t20.5 51t54.5 19zM-20 510q0 -46 -15 -84t-42.5 -65t-66 -41.5t-85.5 -14.5v-80h-125l-5 215h100q42 0 65.5 18.5t23.5 51.5t-24 51.5t-66 18.5h-165v140h155q56 0 102 -15
t79 -42.5t51 -66.5t18 -86zM194 135h30q34 0 54.5 -19t20.5 -51t-20.5 -51t-55.5 -19h-29q-34 0 -54.5 19t-20.5 51t20.5 51t54.5 19zM485 510q0 -46 -15 -84t-42.5 -65t-66 -41.5t-85.5 -14.5v-80h-125l-5 215h100q42 0 65.5 18.5t23.5 51.5t-24 51.5t-66 18.5h-165v140
h155q56 0 102 -15t79 -42.5t51 -66.5t18 -86z" />
    <glyph glyph-name="numbersign_numbersign_numbersign.liga" 
d="M-948 270h125l31 180h-125zM-483 270l31 180h-235l-31 -180h235zM-253 270l31 180h-125l-31 -180h125zM-117 450l-31 -180h235l31 180h-235zM192 270h125l31 180h-125zM-175 720h105l-30 -170h235l30 170h105l-30 -170h125l30 170h105l-30 -170h80v-100h-97l-31 -180h93
v-100h-110l-30 -170h-105l30 170h-125l-30 -170h-105l30 170h-235l-30 -170h-105l30 170h-125l-30 -170h-105l30 170h-235l-30 -170h-105l30 170h-125l-30 -170h-105l30 170h-80v100h97l31 180h-93v100h110l30 170h105l-30 -170h125l30 170h105l-30 -170h235l30 170h105
l-30 -170h125z" />
    <glyph glyph-name="numbersign_numbersign.liga" 
d="M-223 270l31 180h-125l-31 -180h125zM-87 450l-31 -180h205l31 180h-205zM192 270h125l31 180h-125zM-145 720h105l-30 -170h205l30 170h105l-30 -170h125l30 170h105l-30 -170h80v-100h-97l-31 -180h93v-100h-110l-30 -170h-105l30 170h-125l-30 -170h-105l30 170h-205
l-30 -170h-105l30 170h-125l-30 -170h-105l30 170h-80v100h97l31 180h-94v100h111l30 170h105l-30 -170h125z" />
    <glyph glyph-name="colon_colon_colon.liga" 
d="M-840 85q0 45 27.5 73t72.5 28t72.5 -28t27.5 -73q0 -42 -27.5 -68.5t-72.5 -26.5t-72.5 26.5t-27.5 68.5zM-840 459q0 45 27.5 73t72.5 28t72.5 -28t27.5 -73q0 -42 -27.5 -68.5t-72.5 -26.5t-72.5 26.5t-27.5 68.5zM-400 85q0 45 27.5 73t72.5 28t72.5 -28t27.5 -73
q0 -42 -27.5 -68.5t-72.5 -26.5t-72.5 26.5t-27.5 68.5zM-400 459q0 45 27.5 73t72.5 28t72.5 -28t27.5 -73q0 -42 -27.5 -68.5t-72.5 -26.5t-72.5 26.5t-27.5 68.5zM40 85q0 45 27.5 73t72.5 28t72.5 -28t27.5 -73q0 -42 -27.5 -68.5t-72.5 -26.5t-72.5 26.5t-27.5 68.5z
M40 459q0 45 27.5 73t72.5 28t72.5 -28t27.5 -73q0 -42 -27.5 -68.5t-72.5 -26.5t-72.5 26.5t-27.5 68.5z" />
    <glyph glyph-name="numbersign_numbersign_numbersign_numbersign.liga" 
d="M-1548 270h125l31 180h-125zM-1073 270l31 180h-245l-31 -180h245zM-843 270l31 180h-125l-31 -180h125zM-707 450l-31 -180h245l31 180h-245zM-263 270l31 180h-125l-31 -180h125zM-127 450l-31 -180h245l31 180h-245zM192 270h125l31 180h-125zM-765 720h105l-30 -170
h245l30 170h105l-30 -170h125l30 170h105l-30 -170h245l30 170h105l-30 -170h125l30 170h105l-30 -170h80v-100h-97l-31 -180h93v-100h-110l-30 -170h-105l30 170h-125l-30 -170h-105l30 170h-245l-30 -170h-105l30 170h-125l-30 -170h-105l30 170h-245l-30 -170h-105
l30 170h-125l-30 -170h-105l30 170h-245l-30 -170h-105l30 170h-125l-30 -170h-105l30 170h-80v100h97l31 180h-94v100h111l30 170h105l-30 -170h125l30 170h105l-30 -170h245l30 170h105l-30 -170h125z" />
    <glyph glyph-name="period_question.liga" 
d="M-405 94q0 48 28.5 77t76.5 29t76.5 -29t28.5 -77q0 -47 -28.5 -75.5t-76.5 -28.5t-76.5 28.5t-28.5 75.5zM139 135h30q34 0 54.5 -19t20.5 -51t-20.5 -51t-55.5 -19h-29q-34 0 -54.5 19t-20.5 51t20.5 51t54.5 19zM430 510q0 -46 -15 -84t-42.5 -65t-66 -41.5
t-85.5 -14.5v-80h-125l-5 215h100q42 0 65.5 18.5t23.5 51.5t-24 51.5t-66 18.5h-165v140h155q56 0 102 -15t79 -42.5t51 -66.5t18 -86z" />
    <glyph glyph-name="question_equal.liga" 
d="M-283 720q56 0 102 -15t79 -42.5t51 -66.5t18 -86q0 -46 -15 -84t-42.5 -65t-66 -41.5t-85.5 -14.5v-80h-125l-5 215h100q42 0 65.5 18.5t23.5 51.5t-24 51.5t-66 18.5h-165v140h155zM-40 280q30 9 52 32.5t28 52.5h477v-140h-557v55zM517 615v-140h-457q0 39 -4 77.5
t-10 62.5h471zM-399 65q0 32 20.5 51t54.5 19h30q34 0 54.5 -19t20.5 -51t-20.5 -51t-55.5 -19h-29q-34 0 -54.5 19t-20.5 51z" />
    <glyph glyph-name="equal_exclam_equal.liga" 
d="M-1120 275h570v-140h-570v140zM-1120 525h570v-140h-570v140zM520 275v-140h-570v140h570zM520 525v-140h-570v140h570zM-379 720h158v-150l-23 -325h-112l-23 325v150zM-315 135h30q34 0 54.5 -19t20.5 -51t-20.5 -51t-55.5 -19h-29q-34 0 -54.5 19t-20.5 51t20.5 51
t54.5 19z" />
    <glyph glyph-name="less_bar_greater.liga" 
d="M-1060 258v144l575 348v-170l-376 -227q-14 -8 -27 -13t-24 -7q-13 -3 -24 -4v-10q12 -1 24 -4q11 -2 24 -6.5t26 -12.5l377 -222v-159zM-115 -85v170l376 222q14 8 27 13t24 7q13 3 24 4v10q-12 1 -24 4q-11 2 -24 6.5t-26 12.5l-377 227v159l575 -348v-144zM-375 780
h150v-890h-150v890z" />
    <glyph glyph-name="less_colon.liga" 
d="M-395 401l460 199v-136l-276 -112q-14 -6 -30 -9t-30 -4q-16 -2 -31 -2v-10q15 -1 31 -3q14 -2 30 -5.5t30 -9.5l276 -112v-137l-460 198v143zM200 140q0 45 27.5 73t72.5 28t72.5 -28t27.5 -73q0 -42 -27.5 -68.5t-72.5 -26.5t-72.5 26.5t-27.5 68.5zM200 514
q0 45 27.5 73t72.5 28t72.5 -28t27.5 -73q0 -42 -27.5 -68.5t-72.5 -26.5t-72.5 26.5t-27.5 68.5z" />
    <glyph glyph-name="colon_less.liga" 
d="M-400 140q0 45 27.5 73t72.5 28t72.5 -28t27.5 -73q0 -42 -27.5 -68.5t-72.5 -26.5t-72.5 26.5t-27.5 68.5zM-400 514q0 45 27.5 73t72.5 28t72.5 -28t27.5 -73q0 -42 -27.5 -68.5t-72.5 -26.5t-72.5 26.5t-27.5 68.5zM-70 401l460 199v-136l-276 -112q-14 -6 -30 -9
t-30 -4q-16 -2 -31 -2v-10q15 -1 31 -3q14 -2 30 -5.5t30 -9.5l276 -112v-137l-460 198v143z" />
    <glyph glyph-name="colon_greater.liga" 
d="M-30 195l276 112q15 6 30.5 9t29.5 5q16 1 31 1v10q-15 1 -31 3q-14 2 -30 6t-30 9l-276 112v137l460 -198v-143l-460 -199v136zM-400 140q0 45 27.5 73t72.5 28t72.5 -28t27.5 -73q0 -42 -27.5 -68.5t-72.5 -26.5t-72.5 26.5t-27.5 68.5zM-400 514q0 45 27.5 73t72.5 28
t72.5 -28t27.5 -73q0 -42 -27.5 -68.5t-72.5 -26.5t-72.5 26.5t-27.5 68.5z" />
    <glyph glyph-name="greater_colon.liga" 
d="M-390 195l276 112q15 6 30.5 9t29.5 5q16 1 31 1v10q-15 1 -31 3q-14 2 -30 6t-30 9l-276 112v137l460 -198v-143l-460 -199v136zM200 140q0 45 27.5 73t72.5 28t72.5 -28t27.5 -73q0 -42 -27.5 -68.5t-72.5 -26.5t-72.5 26.5t-27.5 68.5zM200 514q0 45 27.5 73t72.5 28
t72.5 -28t27.5 -73q0 -42 -27.5 -68.5t-72.5 -26.5t-72.5 26.5t-27.5 68.5z" />
    <glyph glyph-name="less_greater.liga" 
d="M0 600l460 -199v-143l-460 -198l-460 198v143zM-367 327q15 -1 31 -3q14 -2 30 -5.5t30 -9.5l272 -112l280 112q21 9 44.5 11t46.5 2v10q-15 1 -31 3q-14 2 -30 5.5t-30 9.5l-276 114l-276 -112q-15 -6 -30.5 -9t-29.5 -4q-16 -2 -31 -2v-10z" />
    <glyph glyph-name="asterisk_asterisk_asterisk.liga" 
d="M-1133 367l44 122l52 -19q20 -7 41 -19.5t41 -26.5t37.5 -28t30.5 -25l5 4q-6 15 -13 37t-14 46.5t-11.5 49.5t-4.5 47v55h130v-55q0 -22 -4.5 -47t-11.5 -49.5t-14 -46.5t-13 -37l4 -3q13 11 30.5 25t37.5 28t41.5 26t40.5 19l52 19l45 -122l-52 -19q-19 -7 -43 -11.5
t-48 -6.5t-46.5 -3t-39.5 -1l-2 -4q14 -9 32 -22.5t37 -29.5t37 -33.5t30 -34.5l31 -46l-106 -74l-32 45q-12 18 -23 41t-19.5 47t-15 46t-10.5 38h-6q-4 -16 -10.5 -38t-15 -46t-19.5 -47t-23 -41l-32 -45l-106 74l31 45q12 18 30 35.5t37 33.5t37.5 29.5t31.5 22.5l-2 4
q-17 0 -39.5 1t-47 3t-48 6.5t-43.5 11.5zM-573 527l44 122l52 -19q20 -7 41 -19.5t41 -26.5t37.5 -28t30.5 -25l5 4q-6 15 -13 37t-14 46.5t-11.5 49.5t-4.5 47v55h130v-55q0 -22 -4.5 -47t-11.5 -49.5t-14 -46.5t-13 -37l4 -3q13 11 30.5 25t37.5 28t41.5 26t40.5 19
l52 19l45 -122l-52 -19q-19 -7 -43 -11.5t-48 -6.5t-46.5 -3t-39.5 -1l-2 -4q14 -9 32 -22.5t37 -29.5t37 -33.5t30 -34.5l31 -46l-106 -74l-32 45q-12 18 -23 41t-19.5 47t-15 46t-10.5 38h-6q-4 -16 -10.5 -38t-15 -46t-19.5 -47t-23 -41l-32 -45l-106 74l31 45
q12 18 30 35.5t37 33.5t37.5 29.5t31.5 22.5l-2 4q-17 0 -39.5 1t-47 3t-48 6.5t-43.5 11.5zM-14 367l44 122l52 -19q20 -7 41 -19.5t41 -26.5t37.5 -28t30.5 -25l5 4q-6 15 -13 37t-14 46.5t-11.5 49.5t-4.5 47v55h130v-55q0 -22 -4.5 -47t-11.5 -49.5t-14 -46.5t-13 -37
l4 -3q13 11 30.5 25t37.5 28t41.5 26t40.5 19l52 19l45 -122l-52 -19q-19 -7 -43 -11.5t-48 -6.5t-46.5 -3t-39.5 -1l-2 -4q14 -9 32 -22.5t37 -29.5t37 -33.5t30 -34.5l31 -46l-106 -74l-32 45q-12 18 -23 41t-19.5 47t-15 46t-10.5 38h-6q-4 -16 -10.5 -38t-15 -46
t-19.5 -47t-23 -41l-32 -45l-106 74l31 45q12 18 30 35.5t37 33.5t37.5 29.5t31.5 22.5l-2 4q-17 0 -39.5 1t-47 3t-48 6.5t-43.5 11.5z" />
    <glyph glyph-name="semicolon_semicolon.liga" 
d="M-120 151l-130 -311h-130l80 311h180zM-325 454q0 48 28.5 77t76.5 29t76.5 -29t28.5 -77q0 -47 -28.5 -75.5t-76.5 -28.5t-76.5 28.5t-28.5 75.5zM320 151l-130 -311h-130l80 311h180zM115 454q0 48 28.5 77t76.5 29t76.5 -29t28.5 -77q0 -47 -28.5 -75.5t-76.5 -28.5
t-76.5 28.5t-28.5 75.5z" />
    <glyph glyph-name="slash_equal_equal.liga" 
d="M-1120 -110l345 940h155l-112 -306h1222v-139h-1273l-41 -111h1314v-139h-1365l-90 -245h-155z" />
    <glyph glyph-name="period_equal.liga" 
d="M-440 335q0 62 38.5 99.5t101.5 37.5t101.5 -37.5t38.5 -99.5q0 -60 -38.5 -96.5t-101.5 -36.5t-101.5 36.5t-38.5 96.5zM80 275h440v-140h-440v140zM80 385v140h440v-140h-440z" />
    <glyph glyph-name="period_hyphen.liga" 
d="M-440 330q0 62 38.5 99.5t101.5 37.5t101.5 -37.5t38.5 -99.5q0 -60 -38.5 -96.5t-101.5 -36.5t-101.5 36.5t-38.5 96.5zM100 400h400v-140h-400v140z" />
    <glyph glyph-name="underscore_underscore.liga" 
d="M-550 -25h1100v-140h-1100v140z" />
    <glyph glyph-name="equal_slash_equal.liga" 
d="M-1160 275h729l71 110h-800v140h890l91 140h150l-91 -140h640v-140h-730l-71 -110h801v-140h-892l-87 -135h-150l87 135h-638v140z" />
    <glyph glyph-name="less_hyphen_less.liga" 
d="M-922 625h177l-156 -211q-3 -4 -5.5 -7.5t-5.5 -6.5h1109l166 225h177l-156 -211q-14 -19 -27.5 -34t-24.5 -26q-13 -13 -25 -23v-3q12 -10 25 -23q11 -11 24 -26t27 -34l157 -210h-174l-169 225h-1110q2 -4 5 -7.5t6 -7.5l157 -210h-174l-221 295z" />
    <glyph glyph-name="less_less_less.liga" 
d="M5 405l445 190v-138l-251 -103q-14 -6 -29 -9.5t-28 -5.5q-15 -3 -29 -4v-10q14 -2 29 -4q13 -3 28 -7t29 -10l251 -103v-136l-445 190v150zM-520 405l445 190v-138l-251 -103q-14 -6 -29.5 -9.5t-27.5 -5.5q-15 -3 -29 -4v-10q14 -2 29 -4q12 -3 27.5 -7t29.5 -10
l251 -103v-136l-445 190v150zM-600 595v-138l-251 -103q-14 -6 -29.5 -9.5t-27.5 -5.5q-15 -3 -29 -4v-10q14 -2 29 -4q12 -3 27.5 -7t29.5 -10l251 -103v-136l-445 190v150z" />
    <glyph glyph-name="greater_greater_greater.liga" 
d="M0 65v135l251 101q14 6 29.5 9.5t27.5 5.5q15 3 29 4v10q-14 2 -29 5q-12 2 -27.5 6t-29.5 10l-251 104v139l445 -191v-150zM-80 403v-150l-445 -188v135l251 101q14 6 29 9.5t28 5.5q15 3 29 4v10q-14 2 -29 5q-13 2 -28 6t-29 10l-251 104v139zM-1050 65v135l251 101
q14 6 29 9.5t28 5.5q15 3 29 4v10q-14 2 -29 5q-13 2 -28 6t-29 10l-251 104v139l445 -191v-150z" />
    <glyph glyph-name="less_equal_less.liga" 
d="M-1140 330l218 295h177l-74 -100h1108l74 100h177l-156 -211q-23 -32 -44.5 -53t-29.5 -27l-3 -3v-3l3 -3q8 -6 29 -27.5t44 -52.5l157 -210h-174l-75 100h-1111l75 -100h-174zM-978 328l2 -2q3 -3 6 -5l18.5 -18.5t25.5 -27.5h1112l-41 55l41 55h-1110
q-14 -17 -26 -28.5t-20 -18.5q-3 -2 -6 -5l-2 -2v-3z" />
    <glyph glyph-name="less_less_equal.liga" 
d="M-552 625h177l-74 -100h949v-140h-1054q-14 -17 -26 -28.5t-20 -18.5q-3 -2 -6 -5l-2 -2v-3l2 -2q3 -3 6 -5l18.5 -18.5t25.5 -27.5h1056v-140h-950l75 -100h-174l-221 295zM-1140 330l218 295h177l-156 -211q-14 -19 -27.5 -34t-24.5 -26q-13 -13 -25 -23v-3
q12 -10 24 -23q11 -11 24.5 -26t27.5 -34l157 -210h-174z" />
    <glyph glyph-name="less_equal_equal.liga" 
d="M-922 625h177l-74 -100h1319v-140h-1424q-26 -28 -54 -54v-3q14 -12 27 -25.5t25 -27.5h1426v-140h-1320l75 -100h-174l-221 295z" />
    <glyph glyph-name="less_equal_equal_greater.liga" 
d="M-1522 625h177l-74 -100h1636l-74 100h177l220 -295l-221 -295h-176l75 100h-1638l75 -100h-174l-221 295zM-1578 328q14 -12 27 -25.5t25 -27.5h1850q15 17 27 29.5t19 18.5q2 2 3 2.5t2 1.5l1 1v3l-1 1q-3 3 -5 4q-7 6 -19.5 18.5t-28.5 30.5h-1846q-5 -5 -8.5 -9
t-7.5 -9q-8 -8 -15 -14.5t-12 -11.5q-6 -6 -11 -10v-3z" />
    <glyph glyph-name="equal_equal_greater.liga" 
d="M-1100 135v140h1424q12 14 25 27.5t27 25.5v3l-4 4t-5 4.5t-7 5.5l-17.5 17.5t-20.5 22.5h-1422v140h1317l-74 100h177l220 -295l-221 -295h-176l75 100h-1318z" />
    <glyph glyph-name="equal_greater_greater.liga" 
d="M-1100 525h947l-74 100h177l220 -295l-221 -295h-176l75 100h-948v140h1054q5 5 8.5 9t7.5 9q15 17 26 26q5 5 10 9v3q-29 26 -54 54h-1052v140zM143 625h177l220 -295l-221 -295h-176l157 210q14 19 27.5 34t24.5 26q13 13 24 23v3q-11 10 -24 22q-11 11 -25 26.5
t-28 34.5z" />
    <glyph glyph-name="greater_equal_greater.liga" 
d="M-1137 35l157 210q14 19 27.5 34t24.5 26q13 13 24 23v3q-11 10 -24 22q-11 11 -25 26.5t-28 34.5l-156 211h177l75 -100h1102l-74 100h177l220 -295l-221 -295h-176l75 100h-1104l-75 -100h-176zM-781 275h1105q5 5 8.5 9t7.5 9l26 26q5 5 10 9v3q-28 26 -54 54h-1103
l41 -55z" />
    <glyph glyph-name="greater_greater_equal.liga" 
d="M-610 245q17 22 36 44t40 39v3q-22 18 -41 39t-36 44l-156 211h177l75 -100h1015v-140h-911l41 -55l-41 -55h911v-140h-1016l-75 -100h-176zM-1137 625h177l220 -295l-221 -295h-176l157 210q14 19 27.5 34t24.5 26q13 13 24 23v3q-11 10 -24 22q-11 11 -25 26.5
t-28 34.5z" />
    <glyph glyph-name="greater_greater_hyphen.liga" 
d="M-610 245q14 19 27.5 34t24.5 26q13 13 24 23v3q-11 10 -24 22q-11 11 -25 26.5t-28 34.5l-156 211h177l168 -225h923v-140h-923l-169 -225h-176zM-1137 625h177l220 -295l-221 -295h-176l157 210q14 19 27.5 34t24.5 26q13 13 24 23v3q-11 10 -24 22q-11 11 -25 26.5
t-28 34.5z" />
    <glyph glyph-name="greater_hyphen.liga" 
d="M-360 625l168 -225h693v-140h-693l-169 -225h-176l157 210q14 19 27.5 34t24.5 26q13 13 24 23v3q-11 10 -24 22q-11 11 -25 26.5t-28 34.5l-156 211h177z" />
    <glyph glyph-name="less_asciitilde_greater.liga" 
d="M-615 260h-110v45q0 31 11 54.5t30.5 39t44.5 23.5t54 8q41 0 69 -15.5t49 -34.5t38.5 -34.5t38.5 -15.5t37 15.5t36 34.5t48.5 34.5t73.5 15.5t70 -15.5t41.5 -34.5t29.5 -34.5t34 -15.5q20 0 30 10.5t10 27.5v32h110v-45q0 -31 -11 -54t-30.5 -39t-44.5 -24t-54 -8
q-41 0 -67.5 15.5t-45.5 34.5t-35 34.5t-37 15.5t-37 -15.5t-36 -34.5t-48.5 -34.5t-73.5 -15.5t-72 15.5t-45 34.5t-32.5 34.5t-35.5 15.5q-20 0 -30 -10.5t-10 -27.5v-32zM331 307q21 9 44.5 12t46.5 3v10q-15 1 -31 3q-14 2 -30 5.5t-30 9.5l-256 112v137l440 -198v-143
l-440 -199v136zM-675 600v-136l-256 -112q-21 -9 -44.5 -12t-46.5 -3v-10q15 -1 31 -3q14 -2 30 -5t30 -10l256 -112v-137l-440 198v143z" />
    <glyph glyph-name="hyphen_less.liga" 
d="M-500 400h697l166 225h177l-156 -211q-14 -19 -27.5 -34t-24.5 -26q-13 -13 -25 -23v-3q12 -10 25 -23q11 -11 24 -26t27 -34l157 -210h-174l-169 225h-697v140z" />
    <glyph glyph-name="hyphen_less_less.liga" 
d="M-1050 260v140h887l166 225h177l-156 -211q-14 -19 -27.5 -34t-24.5 -26q-13 -13 -25 -23v-3q12 -10 24 -23q11 -11 24.5 -26t27.5 -34l157 -210h-174l-169 225h-887zM145 330l218 295h177l-156 -211q-14 -19 -27.5 -34t-24.5 -26q-13 -13 -25 -23v-3q12 -10 25 -23
q11 -11 24 -26t27 -34l157 -210h-174z" />
    <glyph glyph-name="equal_less_less.liga" 
d="M-1100 275h926l-41 55l41 55h-926v140h1029l74 100h177l-156 -211q-18 -24 -35.5 -42.5t-28.5 -28.5q-7 -7 -10 -9q-1 -2 -3 -3v-3q21 -17 40.5 -39t35.5 -44l157 -210h-174l-75 100h-1031v140zM363 625h177l-156 -211q-14 -19 -27.5 -34t-24.5 -26q-13 -13 -25 -23v-3
q12 -10 25 -23q11 -11 24 -26t27 -34l157 -210h-174l-221 295z" />
    <glyph glyph-name="hyphen_hyphen_hyphen.liga" 
d="M500 400v-140h-470v140h470zM-535 400h470v-140h-470v140zM-1100 260v140h470v-140h-470z" />
    <glyph glyph-name="less_hyphen_bar.liga" 
d="M-922 625h177l-156 -211q-3 -4 -5.5 -7.5t-5.5 -6.5h1272v225h150v-590h-150v225h-1273q2 -4 5 -7.5t6 -7.5l157 -210h-174l-221 295z" />
    <glyph glyph-name="less_equal_bar.liga" 
d="M-922 625h177l-74 -100h1179v100h150v-590h-150v100h-1180l75 -100h-174l-221 295zM-978 328q14 -11 27.5 -25t24.5 -28h1286v110h-1284q-25 -29 -54 -54v-3z" />
    <glyph glyph-name="slash_backslash.liga" 
d="M-430 0l345 730h169l345 -730h-155l-221 471q-11 23 -19.5 46t-15.5 43q-8 23 -15 45h-8q-7 -22 -16 -45q-8 -20 -17 -43t-20 -46l-219 -471h-153z" />
    <glyph glyph-name="backslash_slash.liga" 
d="M-430 730h155l221 -471q11 -22 19.5 -45.5t15.5 -43.5q8 -23 15 -45h8q7 22 16 45q8 20 17 43.5t20 45.5l219 471h153l-345 -730h-169z" />
    <glyph glyph-name="bar_equal_greater.liga" 
d="M-1110 35v590h150v-100h1177l-74 100h177l220 -295l-221 -295h-176l75 100h-1178v-100h-150zM-960 385v-110h1284q12 14 25 27.5t27 25.5v3l-4 4t-5 4.5t-7 5.5l-17.5 17.5t-20.5 22.5h-1282z" />
    <glyph glyph-name="bar_hyphen_greater.liga" 
d="M-1110 35v590h150v-225h1270q-3 3 -5.5 6.5t-5.5 7.5l-156 211h177l220 -295l-221 -295h-176l157 210l12 15h-1272v-225h-150z" />
    <glyph glyph-name="less_asciitilde_asciitilde.liga" 
d="M-922 625h177l-150 -203q25 -9 43 -24.5t33 -30.5t28.5 -26t30.5 -11q21 0 35.5 15.5t32.5 34.5t45 34.5t72 15.5q41 0 69 -15.5t49 -34.5t38.5 -34.5t38.5 -15.5t37 15.5t36 34.5t48.5 34.5t73.5 15.5q41 0 69 -15.5t49 -34.5t38.5 -34.5t38.5 -15.5t37 15.5t36 34.5
t48.5 34.5t73.5 15.5t70 -15.5t41.5 -34.5t29.5 -34.5t34 -15.5q20 0 30 10.5t10 27.5v32h110v-45q0 -57 -38.5 -91t-101.5 -34q-41 0 -67.5 15.5t-45.5 34.5t-35 34.5t-37 15.5t-37 -15.5t-36 -34.5t-48.5 -34.5t-73.5 -15.5t-73.5 15.5t-48.5 34.5t-36 34.5t-37 15.5
t-37 -15.5t-36 -34.5t-48.5 -34.5t-73.5 -15.5t-73.5 15.5t-48.5 34.5t-36 34.5t-37 15.5t-35.5 -15.5t-32.5 -34.5t-45 -34.5t-72 -15.5t-72 15.5t-45 34.5t-32.5 34.5t-35.5 15.5h-33v-2q12 -10 24 -23q11 -11 24.5 -26t27.5 -34l157 -210h-174l-221 295z" />
    <glyph glyph-name="less_asciitilde.liga" 
d="M-540 330l218 295h177l-156 -211q-14 -19 -27.5 -34t-24.5 -26q-13 -13 -25 -23v-1h18q21 0 36 15.5t34.5 34.5t47 34.5t72.5 15.5q41 0 68 -15.5t47.5 -34.5t37 -34.5t37.5 -15.5t36 15.5t34.5 34.5t47 34.5t72.5 15.5t69.5 -15.5t40 -34.5t27.5 -34.5t33 -15.5
q18 0 29 10.5t11 27.5v32h110v-45q0 -57 -38.5 -91t-101.5 -34q-41 0 -66.5 15.5t-44 34.5t-33.5 34.5t-36 15.5t-36 -15.5t-34.5 -34.5t-47 -34.5t-72.5 -15.5t-72.5 15.5t-47 34.5t-34.5 34.5t-36 15.5q-17 0 -29.5 -10.5t-26.5 -24.5t-31 -29.5t-42 -24.5l154 -206h-174z
" />
    <glyph glyph-name="asciitilde_asciitilde.liga" 
d="M-430 260v45q0 28 10 52t28.5 41t44 27t57.5 10q41 0 69 -15.5t49 -34.5t38.5 -34.5t38.5 -15.5t37 15.5t36 34.5t48.5 34.5t73.5 15.5t72 -15.5t45 -34.5t32.5 -34.5t35.5 -15.5q18 0 29 10.5t11 27.5v32h110v-45q0 -28 -10 -52t-28.5 -41t-44 -27t-57.5 -10
q-41 0 -69 15.5t-49 34.5t-38.5 34.5t-38.5 15.5t-37 -15.5t-36 -34.5t-48.5 -34.5t-73.5 -15.5t-72 15.5t-45 34.5t-32.5 34.5t-35.5 15.5q-18 0 -29 -10.5t-11 -27.5v-32h-110z" />
    <glyph glyph-name="asciitilde_asciitilde_greater.liga" 
d="M-1141 400h110v-32q0 -17 10 -27.5t30 -10.5q21 0 34 15.5t29.5 34.5t41.5 34.5t70 15.5t73.5 -15.5t48.5 -34.5t36 -34.5t37 -15.5t38.5 15.5t38.5 34.5t49 34.5t69 15.5q45 0 73.5 -15.5t48.5 -34.5t36 -34.5t37 -15.5t38.5 15.5t38.5 34.5t49 34.5t69 15.5
q45 0 72 -15.5t45 -34.5t32.5 -34.5t35.5 -15.5q18 0 32 11.5t29 27.5t34 31.5t47 23.5l-148 201h177l220 -295l-221 -295h-176l157 210q14 19 27.5 34t24.5 26q13 13 24 23v2h-42q-21 0 -35.5 -15.5t-32.5 -34.5t-45 -34.5t-72 -15.5t-72 15.5t-45 34.5t-32.5 34.5
t-35.5 15.5t-37 -15.5t-36 -34.5t-48.5 -34.5t-73.5 -15.5t-73.5 15.5t-48.5 34.5t-36 34.5t-37 15.5t-37 -15.5t-36 -34.5t-48.5 -34.5t-73.5 -15.5t-73.5 15.5t-48.5 34.5t-36 34.5t-37 15.5t-37 -15.5t-35 -34.5t-45.5 -34.5t-67.5 -15.5q-63 0 -101.5 34t-38.5 91v45z
" />
    <glyph glyph-name="asciitilde_greater.liga" 
d="M-530 400h110v-32q0 -17 11 -27.5t29 -10.5q21 0 33 15.5t27.5 34.5t40 34.5t69.5 15.5t72.5 -15.5t47 -34.5t34.5 -34.5t36 -15.5t37.5 15.5t37 34.5t47.5 34.5t68 15.5q45 0 72.5 -15.5t47 -34.5t34.5 -34.5t36 -15.5h16v1q-11 10 -24 22q-11 11 -25 26.5t-28 34.5
l-156 211h177l220 -295l-221 -295h-176l154 206q-24 10 -41 25t-30.5 29.5t-26 24.5t-29.5 10q-21 0 -36 -15.5t-34.5 -34.5t-47 -34.5t-72.5 -15.5t-72.5 15.5t-47 34.5t-34.5 34.5t-36 15.5t-36 -15.5t-33.5 -34.5t-44 -34.5t-66.5 -15.5q-63 0 -101.5 34t-38.5 91v45z
" />
    <glyph glyph-name="less_dollar_greater.liga" 
d="M-1080 258v143l425 199v-135l-241 -111q-21 -10 -44.5 -12.5t-46.5 -2.5v-10q16 -1 32 -4q14 -2 29.5 -5.5t29.5 -8.5l414 -157q42 -16 91 -25t91 -9q48 0 76.5 22.5t28.5 59.5q0 30 -20.5 52.5t-56.5 30.5l-76 17q-98 22 -148.5 78.5t-50.5 144.5q0 74 42.5 125
t117.5 71l-1 19v80h150v-80l-1 -15q40 -7 87.5 -24.5t109.5 -47.5l522 -252v-143l-425 -199v136l241 112q21 11 44.5 13t46.5 2v10q-15 0 -31 2q-14 2 -30 5.5t-30 10.5l-389 189q-63 31 -116.5 46.5t-94.5 15.5q-42 0 -67.5 -20t-25.5 -54q0 -28 19 -48.5t55 -28.5l80 -18
q97 -22 147.5 -79.5t50.5 -146.5q0 -40 -13 -75t-37 -62t-58.5 -45.5t-76.5 -26.5l2 -27v-80h-150v80l2 26q-39 6 -79 16.5t-74 24.5z" />
    <glyph glyph-name="less_dollar.liga" 
d="M-515 401l425 199v-135l-241 -111q-21 -10 -44.5 -12.5t-46.5 -2.5v-10q16 -1 32 -4q14 -2 29.5 -5.5t29.5 -8.5l414 -157q42 -16 91 -25t91 -9q48 0 76.5 22.5t28.5 59.5q0 30 -20.5 52.5t-56.5 30.5l-76 17q-98 22 -148.5 78.5t-50.5 144.5q0 74 42.5 125t117.5 71
l-1 19v80h150v-80l-1 -14q81 -14 128.5 -65t53.5 -130h-150q-4 33 -29.5 51.5t-67.5 18.5t-67.5 -20t-25.5 -54q0 -28 19 -48.5t55 -28.5l80 -18q97 -22 147.5 -79.5t50.5 -146.5q0 -40 -13 -75t-37 -62t-58.5 -45.5t-76.5 -26.5l2 -27v-80h-150v80l2 26q-39 6 -79 16.5
t-74 24.5l-551 221v143z" />
    <glyph glyph-name="dollar_greater.liga" 
d="M-373 195q8 -75 103 -75q48 0 76.5 22.5t28.5 59.5q0 30 -20.5 52.5t-56.5 30.5l-76 17q-98 22 -148.5 78.5t-50.5 144.5q0 74 42.5 125t117.5 71l-1 19v80h150v-80l-1 -15q40 -7 87.5 -24.5t109.5 -47.5l522 -252v-143l-425 -199v136l241 112q21 11 44.5 13t46.5 2v10
q-15 0 -31 2q-14 2 -30 5.5t-30 10.5l-389 189q-63 31 -116.5 46.5t-94.5 15.5q-42 0 -67.5 -20t-25.5 -54q0 -28 19 -48.5t55 -28.5l80 -18q97 -22 147.5 -79.5t50.5 -146.5q0 -40 -13 -75t-37 -62t-58.5 -45.5t-76.5 -26.5l2 -27v-80h-150v80l2 28q-81 17 -126.5 68
t-50.5 129h150z" />
    <glyph glyph-name="less_plus_greater.liga" 
d="M-375 400v215h150v-215h210v-140h-210v-215h-150v215h-210v140h210zM60 195l276 112q15 6 30.5 9t29.5 5q16 1 31 1v10q-15 1 -31 3q-14 2 -30 6t-30 9l-276 112v137l460 -198v-143l-460 -199v136zM-660 600v-136l-276 -112q-15 -6 -30.5 -9t-29.5 -4q-16 -2 -31 -2v-10
q15 -1 31 -3q14 -2 30 -5.5t30 -9.5l276 -112v-137l-460 198v143z" />
    <glyph glyph-name="less_plus.liga" 
d="M-25 260v140h210v215h150v-215h210v-140h-210v-215h-150v215h-210zM-94 600v-136l-276 -112q-15 -6 -30.5 -9t-29.5 -4q-16 -2 -31 -2v-10q15 -1 31 -3q14 -2 30 -5.5t30 -9.5l276 -112v-137l-460 198v143z" />
    <glyph glyph-name="plus_greater.liga" 
d="M-575 400h210v215h150v-215h210v-140h-210v-215h-150v215h-210v140zM70 599l460 -198v-143l-460 -199v136l276 112q15 6 30.5 9t29.5 5q16 1 31 1v10q-15 1 -31 3q-14 2 -30 6t-30 9l-276 112v137z" />
    <glyph glyph-name="less_asterisk_greater.liga" 
d="M-559 499l82 -29q19 -7 40.5 -19.5t41.5 -26.5t37.5 -28t30.5 -25l5 4q-6 15 -13 37t-14 46.5t-11.5 49.5t-4.5 47v85h130v-85q0 -22 -4.5 -47t-11.5 -49.5t-14 -46.5t-13 -37l4 -3q13 11 30.5 25t37.5 28t41 26t41 19l82 29l45 -122l-82 -29q-20 -7 -43.5 -11.5
t-47.5 -6.5t-46.5 -3t-39.5 -1l-2 -4q13 -9 31.5 -22.5t37.5 -29.5t37 -33.5t30 -34.5l51 -76l-106 -74l-52 75q-12 18 -23 41t-19.5 47t-15 46t-10.5 38h-6q-4 -16 -10.5 -38t-15 -46t-19.5 -47t-23 -41l-52 -75l-106 74l51 75q12 18 30 35.5t36.5 33.5t37 30t32.5 23l-2 3
q-17 0 -39.5 1t-47 3t-48.5 6.5t-43 11.5l-81 29zM60 195l276 112q15 6 30.5 9t29.5 5q16 1 31 1v10q-15 1 -31 3q-14 2 -30 6t-30 9l-276 112v137l460 -198v-143l-460 -199v136zM-1120 401l460 199v-136l-276 -112q-15 -6 -30.5 -9t-29.5 -4q-16 -2 -31 -2v-10q15 -1 31 -3
q14 -2 30 -5.5t30 -9.5l276 -112v-137l-460 198v143z" />
    <glyph glyph-name="less_asterisk.liga" 
d="M-28 377l44 122l82 -29q20 -7 41 -19.5t41 -26.5t37.5 -28t30.5 -25l5 4q-6 15 -13 37t-14 46.5t-11.5 49.5t-4.5 47v85h130v-85q0 -22 -4.5 -47t-11.5 -49.5t-14 -46.5t-13 -37l4 -3q13 11 30.5 25t37.5 28t41.5 26t40.5 19l82 29l45 -122l-82 -29q-19 -7 -43 -11.5
t-48 -6.5t-46.5 -3t-39.5 -1l-2 -4q14 -9 32 -22.5t37 -29.5t37 -33.5t30 -34.5l51 -76l-106 -74l-52 75q-12 18 -23 41t-19.5 47t-15 46t-10.5 38h-6q-4 -16 -10.5 -38t-15 -46t-19.5 -47t-23 -41l-52 -75l-106 74l51 75q12 18 30 35.5t36.5 33.5t37 30t32.5 23l-2 3
q-17 0 -39.5 1t-47 3t-48 6.5t-43.5 11.5zM-545 401l460 199v-136l-276 -112q-15 -6 -30.5 -9t-29.5 -4q-16 -2 -31 -2v-10q15 -1 31 -3q14 -2 30 -5.5t30 -9.5l276 -112v-137l-460 198v143z" />
    <glyph glyph-name="asterisk_greater.liga" 
d="M-534 499l82 -29q19 -7 40.5 -19.5t41.5 -26.5t37.5 -28t30.5 -25l5 4q-6 15 -13 37t-14 46.5t-11.5 49.5t-4.5 47v85h130v-85q0 -22 -4.5 -47t-11.5 -49.5t-14 -46.5t-13 -37l4 -3q13 11 30.5 25t37.5 28t41 26t41 19l82 29l45 -122l-82 -29q-20 -7 -43.5 -11.5
t-47.5 -6.5t-46.5 -3t-39.5 -1l-2 -4q13 -9 31.5 -22.5t37.5 -29.5t37 -33.5t30 -34.5l51 -76l-106 -74l-52 75q-12 18 -23 41t-19.5 47t-15 46t-10.5 38h-6q-4 -16 -10.5 -38t-15 -46t-19.5 -47t-23 -41l-52 -75l-106 74l51 75q12 18 30 35.5t36.5 33.5t37 30t32.5 23l-2 3
q-17 0 -39.5 1t-47 3t-48.5 6.5t-43 11.5l-81 29zM85 195l276 112q15 6 30.5 9t29.5 5q16 1 31 1v10q-15 1 -31 3q-14 2 -30 6t-30 9l-276 112v137l460 -198v-143l-460 -199v136z" />
    <glyph glyph-name="less_slash.liga" 
d="M-30 600v-136l-276 -112q-15 -6 -30.5 -9t-29.5 -4q-16 -2 -31 -2v-10q15 -1 31 -3q14 -2 30 -5t30 -10l403 -181l258 702h155l-345 -940h-155l45 122l-545 246v143z" />
    <glyph glyph-name="less_slash_greater.liga" 
d="M-1050 401l460 199v-136l-276 -112q-15 -6 -30.5 -9t-29.5 -4q-16 -2 -31 -2v-10q15 -1 31 -3q14 -2 30 -5t30 -10l403 -181l258 702h155l-63 -172l563 -257v-143l-460 -199v136l276 112q15 6 30.5 9t29.5 5q16 1 31 1v10q-16 1 -32 3q-14 2 -29.5 5.5t-29.5 9.5
l-422 192l-239 -652h-155l45 122l-545 246v143z" />
    <glyph glyph-name="slash_greater.liga" 
d="M-165 830h155l-63 -172l563 -257v-143l-460 -199v136l276 112q15 6 30.5 9t29.5 5q16 1 31 1v10q-16 1 -32 3q-14 2 -29.5 5.5t-29.5 9.5l-422 192l-239 -652h-155z" />
    <glyph glyph-name="less_hyphen_greater.liga" 
d="M-1140 330l218 295h177l-156 -211q-3 -4 -5.5 -7.5t-5.5 -6.5h1222q-3 3 -5.5 6.5t-5.5 7.5l-156 211h177l220 -295l-221 -295h-176l157 210l12 15h-1225q2 -4 5 -7.5t6 -7.5l157 -210h-174z" />
    <glyph glyph-name="period_period_less.liga" 
d="M-120 401l460 199v-136l-276 -112q-14 -6 -30 -9t-30 -4q-16 -2 -31 -2v-10q15 -1 31 -3q14 -2 30 -5.5t30 -9.5l276 -112v-137l-460 198v143zM-935 94q0 48 28.5 77t76.5 29t76.5 -29t28.5 -77q0 -47 -28.5 -75.5t-76.5 -28.5t-76.5 28.5t-28.5 75.5zM-495 94
q0 48 28.5 77t76.5 29t76.5 -29t28.5 -77q0 -47 -28.5 -75.5t-76.5 -28.5t-76.5 28.5t-28.5 75.5z" />
    <glyph glyph-name="asciitilde_equal.liga" 
d="M-370 260h740v-140h-740v140zM-370 355v35q0 36 13.5 65.5t38.5 50.5t60 32.5t78 11.5q56 0 105.5 -15t93 -32.5t82 -32.5t74.5 -15q38 0 61.5 18t23.5 47v25h110v-35q0 -36 -13.5 -65.5t-38.5 -50.5t-60 -32.5t-78 -11.5q-56 0 -105.5 15t-93 32.5t-82 32.5t-74.5 15
q-38 0 -61.5 -18t-23.5 -47v-25h-110z" />
    <glyph glyph-name="asciitilde_hyphen.liga" 
d="M-495 235v70q0 33 11.5 59.5t32.5 45.5t50.5 29.5t65.5 10.5q52 0 89.5 -21t67.5 -46.5t56.5 -46.5t56.5 -21q25 0 40 16.5t15 43.5v25h510v-140h-435q-45 -50 -125 -50q-35 0 -63 10t-51.5 25t-43 32.5t-38 32.5t-36.5 25t-38 10q-25 0 -40 -15t-15 -40v-55h-110z" />
    <glyph glyph-name="hyphen_asciitilde.liga" 
d="M-495 400h510v-25q0 -27 15 -43.5t40 -16.5q30 0 56.5 21t56.5 46.5t67.5 46.5t89.5 21q36 0 65.5 -10.5t50.5 -29.5t32.5 -45.5t11.5 -59.5v-70h-110v55q0 25 -15 40t-40 15q-20 0 -38 -10t-36.5 -25t-38 -32.5t-43 -32.5t-51.5 -25t-63 -10q-80 0 -125 50h-435v140z
" />
    <glyph glyph-name="asciitilde_at.liga" 
d="M-395 455q49 0 87 -15.5t69.5 -34.5t58.5 -34.5t53 -15.5q33 0 55.5 28t43.5 69.5t44.5 90t58 90t84 69.5t121.5 28q122 0 191 -58.5t69 -161.5v-435h-111l-1 96q-12 -51 -42 -78.5t-76 -27.5q-68 0 -99 41.5t-31 133.5v80q0 92 31 133.5t99 41.5q40 0 67.5 -21t42.5 -59
l2 -6l2 -6q-1 13 -2.5 36.5t-1.5 50.5v20q0 54 -37 84.5t-103 30.5q-55 0 -91 -28t-61.5 -69.5t-46.5 -90t-47.5 -90t-63.5 -69.5t-95 -28q-47 0 -84 15.5t-68 34.5t-58 34.5t-53 15.5q-23 0 -37.5 -12.5t-14.5 -32.5v-50h-110v60q0 63 42.5 101.5t112.5 38.5zM300 320v-80
q0 -44 13.5 -67t42.5 -23q64 0 64 90v80q0 90 -64 90q-27 0 -41.5 -21t-14.5 -69z" />
    <glyph glyph-name="asciicircum_equal.liga" 
d="M-260 760h120l132 -235h423v-140h-485l-111 204q-5 10 -8 23.5t-5 26.5q-2 15 -2 31h-4q0 -16 -2 -31q-2 -13 -5 -26.5t-8 -23.5l-112 -204h-143zM-70 135v140h485v-140h-485z" />
    <glyph glyph-name="hyphen_bar.liga" 
d="M-420 260v140h640v350h150v-835h-150v345h-640z" />
    <glyph glyph-name="underscore_bar_underscore.liga" 
d="M-990 -165v140h615v775h150v-775h615v-140h-1380z" />
    <glyph glyph-name="bar_hyphen.liga" 
d="M-375 -85v835h150v-350h645v-140h-645v-345h-150z" />
    <glyph glyph-name="bar_bar_hyphen.liga" 
d="M-460 -85v835h150v-350h680v-140h-680v-345h-150zM-890 -85v835h150v-835h-150z" />
    <glyph glyph-name="bar_equal.liga" 
d="M-375 -85v835h150v-225h645v-140h-645v-110h645v-140h-645v-220h-150z" />
    <glyph glyph-name="bar_bar_equal.liga" 
d="M-460 -85v835h150v-225h681v-140h-681v-110h681v-140h-681v-220h-150zM-890 -85v835h150v-835h-150z" />
    <glyph glyph-name="numbersign_braceleft.liga" 
d="M-580 265h96l33 190h-95v95h111l30 170h105l-30 -170h125l30 170h105l-30 -170h367l-7 100q-3 41 9.5 74.5t36.5 57t58.5 36t75.5 12.5h85v-140h-55q-29 0 -45.5 -14t-14.5 -46l10 -151q2 -28 -8 -49.5t-28.5 -35.5t-44 -22t-54.5 -9v-5q29 -1 54.5 -9t44 -23t28.5 -37
t8 -50l-10 -150q-2 -27 15.5 -43.5t44.5 -16.5h55v-140h-85q-41 0 -75.5 13t-58.5 37.5t-36.5 58.5t-9.5 76l7 96h-432l-30 -170h-105l30 170h-125l-30 -170h-105l30 170h-80v95zM259 265q-9 15 -24.5 24.5t-34.5 9.5h-100v120h100q20 0 35.5 10t24.5 26h-376l-33 -190h408z
M-379 265h125l33 190h-125z" />
    <glyph glyph-name="numbersign_bracketleft.liga" 
d="M-580 170v100h97l31 180h-94v100h111l30 170h105l-30 -170h125l30 170h105l-30 -170h270v280h305v-140h-155v-660h155v-140h-305v280h-335l-30 -170h-105l30 170h-125l-30 -170h-105l30 170h-80zM-148 270h318v180h-287zM-378 270h125l31 180h-125z" />
    <glyph glyph-name="bracketright_numbersign.liga" 
d="M-475 -110v140h155v660h-155v140h305v-280h335l30 170h105l-30 -170h125l30 170h105l-30 -170h80v-100h-97l-31 -180h93v-100h-110l-30 -170h-105l30 170h-125l-30 -170h-105l30 170h-270v-280h-305zM117 270l31 180h-318v-180h287zM222 270h125l31 180h-125z" />
    <glyph glyph-name="numbersign_parenleft.liga" 
d="M-580 270h97l31 180h-94v100h111l30 170h105l-30 -170h125l30 170h105l-30 -170h266q26 108 108 184t211 111v-150q-85 -21 -132.5 -84t-47.5 -156v-191q0 -45 12.5 -84t35.5 -69.5t56.5 -52t75.5 -31.5v-152q-133 35 -214 110.5t-106 184.5h-330l-30 -170h-105l30 170
h-125l-30 -170h-105l30 170h-80v100zM-148 270h303v180h-272zM-253 270l31 180h-125l-31 -180h125z" />
    <glyph glyph-name="numbersign_question.liga" 
d="M-580 270h97l31 180h-94v100h111l30 170h105l-30 -170h125l30 170h105l-30 -170h104q7 39 27.5 70t52.5 53.5t74 34.5t92 12h50q56 0 102 -15t79 -42.5t51 -66.5t18 -86q0 -46 -15 -84t-42.5 -65t-66 -41.5t-85.5 -14.5v-80h-125l-5 215h100q42 0 65.5 18.5t23.5 51.5
q0 32 -24 51t-66 19h-70q-42 0 -66 -19t-24 -51v-60h-267l-31 -180h93v-100h-110l-30 -170h-105l30 170h-125l-30 -170h-105l30 170h-80v100zM184 65q0 32 20.5 51t54.5 19h30q34 0 54.5 -19t20.5 -51t-20.5 -51t-55.5 -19h-29q-34 0 -54.5 19t-20.5 51zM-253 270l31 180
h-125l-31 -180h125z" />
    <glyph glyph-name="numbersign_underscore.liga" 
d="M-483 270l31 180h-94v100h111l30 170h105l-30 -170h126l29 170h105l-29 -170h79v-100h-97l-31 -180h93v-100h-110l-34 -195h749v-140h-878l58 335h-125l-30 -170h-105l30 170h-80v100h97zM-378 270h125l31 180h-125z" />
    <glyph glyph-name="numbersign_underscore_parenleft.liga" 
d="M-1180 170v100h97l31 180h-94v100h111l30 170h105l-30 -170h125l30 170h105l-30 -170h80v-100h-97l-31 -180h93v-100h-111l-34 -195h1039q-84 96 -84 239v241q0 71 22.5 133t65 112t103.5 87t139 58v-150q-85 -21 -132.5 -84t-47.5 -156v-241q0 -45 12.5 -84t35.5 -69.5
t56.5 -52t75.5 -31.5v-2h1v-140h-1415l58 335h-124l-30 -170h-105l30 170h-80zM-978 270h125l31 180h-125z" />
    <glyph glyph-name="numbersign_colon.liga" 
d="M-165 170l-30 -170h-105l30 170h-125l-30 -170h-105l30 170h-80v100h97l31 180h-94v100h111l30 170h105l-30 -170h125l30 170h105l-30 -170h80v-100h-97l-31 -180h93v-100h-110zM300 605q45 0 72.5 -27.5t27.5 -73.5q0 -43 -27.5 -69t-72.5 -26t-72.5 26t-27.5 69
q0 46 27.5 73.5t72.5 27.5zM200 210q0 46 27.5 73.5t72.5 27.5t72.5 -27.5t27.5 -73.5q0 -43 -27.5 -69t-72.5 -26t-72.5 26t-27.5 69zM-253 270l31 180h-125l-31 -180h125z" />
    <glyph glyph-name="numbersign_exclam.liga" 
d="M-483 270l31 180h-94v100h111l30 170h105l-30 -170h125l30 170h105l-30 -170h80v-100h-97l-31 -180h93v-100h-110l-30 -170h-105l30 170h-125l-30 -170h-105l30 170h-80v100h97zM222 570l26 150h158l-26 -150l-81 -325h-112zM122 65q5 32 29 51t58 19h30q34 0 51 -19
t12 -51q-6 -32 -30 -51t-59 -19h-29q-34 0 -51 19t-11 51zM-253 270l31 180h-125l-31 -180h125z" />
    <glyph glyph-name="numbersign_equal.liga" 
d="M-165 170l-30 -170h-105l30 170h-125l-30 -170h-105l30 170h-80v100h97l31 180h-94v100h111l30 170h105l-30 -170h125l30 170h105l-30 -170h80v-100h-97l-31 -180h93v-100h-110zM-253 270l31 180h-125l-31 -180h125zM80 305h440v-140h-440v140zM80 415v140h440v-140h-440
z" />
    <glyph glyph-name="ampersand_equal.liga" 
d="M-424 429q-19 33 -27.5 62.5t-8.5 59.5q0 40 14.5 73t40.5 56.5t63 36.5t82 13q46 0 84 -13.5t65 -38.5t41.5 -60t14.5 -78h-135q0 32 -19 51t-51 19t-51 -19t-19 -51q0 -23 11.5 -46.5t34.5 -57.5l120 -172l152 261h532v-140h-470l-135 -234l105 -151h-143l-37 53
q-35 -30 -75.5 -46.5t-85.5 -16.5q-95 0 -150 55t-55 150v65q0 65 26.5 108t75.5 61zM520 275v-140h-475v140h475zM-358 332q-28 -20 -28 -72v-65q0 -85 80 -85q24 0 42.5 11t32.5 31z" />
    <glyph glyph-name=".ttfautohint" 
d="M0 0z" />
  </font>
</defs>
</svg>
