<?xml version="1.0" standalone="no"?>
<!DOCTYPE svg PUBLIC "-//W3C//DTD SVG 1.1//EN" "http://www.w3.org/Graphics/SVG/1.1/DTD/svg11.dtd" >
<svg xmlns="http://www.w3.org/2000/svg" xmlns:xlink="http://www.w3.org/1999/xlink" version="1.1">
<metadata>
Created by FontForge 20201107 at Mon Mar 27 12:07:32 2023
 By 
Copyright 2022 The Noto Project Authors (https://github.com/notofonts/sinhala)
</metadata>
<defs>
<font id="NotoSerifSinhala-Regular" horiz-adv-x="0" >
  <font-face 
    font-family="Noto Serif Sinhala"
    font-weight="400"
    font-stretch="normal"
    units-per-em="1000"
    panose-1="0 0 0 0 0 0 0 0 0 0"
    ascent="800"
    descent="-200"
    x-height="536"
    cap-height="714"
    bbox="-895 -290 1928 979"
    underline-thickness="50"
    underline-position="-125"
    unicode-range="U+000D-111F4"
  />
<missing-glyph horiz-adv-x="600" 
d="M94 714h411v-714h-411v714zM454 51v612h-309v-612h309z" />
    <glyph glyph-name=".notdef" horiz-adv-x="600" 
d="M94 714h411v-714h-411v714zM454 51v612h-309v-612h309z" />
    <glyph glyph-name=".null" 
 />
    <glyph glyph-name="nonmarkingreturn" horiz-adv-x="333" 
 />
    <glyph glyph-name="NULL" 
 />
    <glyph glyph-name="CR" unicode="&#xd;" horiz-adv-x="500" 
 />
    <glyph glyph-name="space" unicode=" " horiz-adv-x="500" 
 />
    <glyph glyph-name="exclam.sinh" unicode="!" horiz-adv-x="332" 
d="M108 714h116l-31 -513h-54zM166 -7q-26 0 -44.5 15t-18.5 53q0 39 18.5 53.5t44.5 14.5t44.5 -14.5t18.5 -53.5q0 -38 -18.5 -53t-44.5 -15z" />
    <glyph glyph-name="quotedbl.sinh" unicode="&#x22;" horiz-adv-x="422" 
d="M252 799h106l-30 -235h-46zM64 799h106l-30 -235h-46z" />
    <glyph glyph-name="numbersign.sinh" unicode="#" horiz-adv-x="572" 
d="M121 203h-92v59h103l38 196h-109v59h120l37 197h60l-37 -197h144l37 197h60l-37 -197h98v-59h-109l-37 -196h114v-59h-126l-38 -203h-60l38 203h-144l-38 -203h-60zM337 262l37 196h-144l-37 -196h144z" />
    <glyph glyph-name="dollar" unicode="$" horiz-adv-x="559" 
d="M253 40q-47 0 -83.5 9.5t-62 27t-38.5 43t-13 56.5q0 20 8.5 35t24.5 23.5t39 8.5q7 -41 19.5 -77.5t37.5 -59t68 -22.5v247q-62 28 -99.5 55.5t-54 60.5t-16.5 77q0 45 21 78.5t59 54t90 25.5v78h50v-76q60 -1 96.5 -16t53 -40t16.5 -56q0 -32 -21.5 -48.5t-57.5 -16.5
q0 29 -7 58t-25.5 49.5t-54.5 23.5v-233q60 -26 101.5 -53t63 -60.5t21.5 -81.5q0 -75 -48.5 -117t-137.5 -51v-121h-50v119zM303 87q45 8 69.5 36.5t24.5 71.5q0 40 -21 65.5t-73 48.5v-222zM253 636q-40 -8 -60 -36.5t-20 -67.5q0 -28 9 -47t27 -32.5t44 -25.5v209z" />
    <glyph glyph-name="percent.sinh" unicode="%" horiz-adv-x="904" 
d="M596 714h65l-356 -714h-66zM213 280q-86 0 -125 61.5t-39 161.5q0 101 39 161t126 60q82 0 122.5 -60t40.5 -161q0 -100 -40.5 -161.5t-123.5 -61.5zM213 321q29 0 46 21.5t24 62.5t7 98q0 85 -16.5 132t-59.5 47q-29 0 -46.5 -21t-25 -61t-7.5 -97q0 -86 17.5 -134
t60.5 -48zM691 -10q-86 0 -125 61.5t-39 161.5q0 101 39 161t126 60q82 0 122.5 -60t40.5 -161q0 -100 -40.5 -161.5t-123.5 -61.5zM691 31q29 0 46 21.5t24 62.5t7 98q0 85 -16.5 132t-59.5 47q-29 0 -46.5 -21t-25 -61t-7.5 -97q0 -86 17.5 -134t60.5 -48z" />
    <glyph glyph-name="ampersand" unicode="&#x26;" horiz-adv-x="742" 
d="M274 -10q-80 0 -133 26.5t-79 73.5t-26 110q0 57 20 95t56 64t84 46q-25 30 -42.5 57t-26 55t-8.5 60q0 44 19.5 77t61.5 51.5t108 18.5q64 0 103 -19.5t56.5 -51.5t17.5 -71q0 -43 -17 -74t-54 -56t-98 -51l182 -193q14 45 18.5 91t4.5 83v39h180v-42h-9q-22 0 -43 -4.5
t-37 -18.5t-25 -45q-9 -32 -20.5 -69.5t-28.5 -75.5l93 -99q14 -15 33.5 -20t59.5 -5h9v-42h-160l-83 88q-24 -27 -55 -49.5t-70.5 -35.5t-90.5 -13zM283 46q59 0 101 23t70 58l-221 237q-30 -17 -52.5 -39.5t-34.5 -53.5t-12 -74q0 -73 41 -112t108 -39zM282 439
q59 26 87 58t28 84q0 40 -21 67t-72 27q-44 0 -68 -26t-24 -69q0 -25 7 -46.5t22.5 -44t40.5 -50.5z" />
    <glyph glyph-name="quotesingle.sinh" unicode="'" horiz-adv-x="240" 
d="M64 799h112l-33 -235h-46z" />
    <glyph glyph-name="parenleft.sinh" unicode="(" horiz-adv-x="391" 
d="M359 -264q-72 24 -128 67t-95 107.5t-59 153t-20 205.5t20 206.5t59 154t95 107.5t128 67v-46q-80 -40 -125.5 -108t-64 -163t-18.5 -218q0 -121 18.5 -216t64 -163t125.5 -108v-46z" />
    <glyph glyph-name="parenright.sinh" unicode=")" horiz-adv-x="391" 
d="M32 804q72 -24 128 -67t95 -107.5t59 -153.5t20 -205q0 -117 -20 -206.5t-59 -154t-95 -107.5t-128 -67v46q80 40 125.5 108t64 163.5t18.5 217.5t-18.5 216.5t-64 162.5t-125.5 108v46z" />
    <glyph glyph-name="asterisk.sinh" unicode="*" horiz-adv-x="514" 
d="M239 575l-153 -95l-35 78l168 50l-168 50l35 79l154 -97l-26 159h87l-28 -158l155 94l35 -78l-169 -49l169 -49l-35 -77l-155 93l28 -158h-87z" />
    <glyph glyph-name="plus.sinh" unicode="+" horiz-adv-x="559" 
d="M249 328h-184v59h184v185h60v-185h185v-59h-185v-185h-60v185z" />
    <glyph glyph-name="comma.sinh" unicode="," horiz-adv-x="270" 
d="M134 129q31 0 54 -23.5t23 -70.5q0 -39 -16 -75.5t-52 -66t-96 -47.5v42q49 16 72 38.5t23 51.5q0 15 -11 23t-25.5 15t-25.5 19t-11 35q0 29 18.5 44t46.5 15z" />
    <glyph glyph-name="hyphen.sinh" unicode="-" horiz-adv-x="340" 
d="M40 351h260v-77h-260v77z" />
    <glyph glyph-name="period.sinh" unicode="." horiz-adv-x="270" 
d="M135 -7q-26 0 -44.5 15t-18.5 53q0 39 18.5 53.5t44.5 14.5t44.5 -14.5t18.5 -53.5q0 -38 -18.5 -53t-44.5 -15z" />
    <glyph glyph-name="slash.sinh" unicode="/" horiz-adv-x="423" 
d="M324 799h63l-288 -1058h-63z" />
    <glyph glyph-name="zero.sinh" unicode="0" horiz-adv-x="559" 
d="M280 -10q-82 0 -134 46t-76.5 129t-24.5 194t24.5 193t76.5 127t135 45q78 0 130 -45t77.5 -127.5t25.5 -193.5t-26 -193.5t-77.5 -128.5t-130.5 -46zM280 44q51 0 81 37.5t43 107.5t13 169t-13 169t-42.5 106.5t-80.5 36.5t-81.5 -36.5t-44 -106.5t-13.5 -169t13.5 -169
t43.5 -107.5t81 -37.5z" />
    <glyph glyph-name="one.sinh" unicode="1" horiz-adv-x="559" 
d="M98 42h71q23 0 41.5 5t29.5 20.5t11 46.5v526q-38 -46 -70.5 -75.5t-62.5 -29.5q-22 0 -36 15t-14 39q30 8 63.5 24t82.5 53l70 52h61v-604q0 -31 11 -46.5t30 -20.5t41 -5h52v-42h-381v42z" />
    <glyph glyph-name="two.sinh" unicode="2" horiz-adv-x="559" 
d="M51 73l167 193q56 65 88 110.5t45 85t13 85.5q0 37 -11.5 65t-34.5 44t-60 16q-46 0 -71 -20.5t-34.5 -53.5t-9.5 -73q-24 0 -42 5.5t-28.5 20t-10.5 39.5q0 39 22 69t66 47.5t108 17.5q63 0 108.5 -20.5t70 -58t24.5 -88.5q0 -28 -7.5 -55t-21.5 -54t-34 -55.5
t-46 -59.5t-58 -66l-169 -187h231q34 0 50 10t22.5 27t11.5 38l4 18h42l-5 -173h-430v73z" />
    <glyph glyph-name="three.sinh" unicode="3" horiz-adv-x="559" 
d="M244 -10q-66 0 -108 15.5t-61.5 41t-19.5 54.5q0 30 17.5 47t45.5 17q0 -52 31.5 -86.5t95.5 -34.5q45 0 80 14.5t55 48.5t20 91q0 68 -48.5 107t-138.5 39h-32v51h32q71 0 116.5 42t45.5 113q0 59 -25.5 90.5t-86.5 31.5q-45 0 -70 -20.5t-34.5 -53.5t-9.5 -73
q-36 0 -59 13.5t-23 51.5q0 39 23 69t67 47.5t106 17.5q95 0 152 -41.5t57 -117.5q0 -45 -20.5 -82.5t-56.5 -64t-82 -37.5q28 -3 60 -12.5t60.5 -30t46.5 -54t18 -84.5q0 -59 -23 -99t-61 -64.5t-82.5 -35.5t-87.5 -11z" />
    <glyph glyph-name="four.sinh" unicode="4" horiz-adv-x="559" 
d="M215 42h31q23 0 41.5 5t29.5 20.5t11 46.5v82h-311v41l309 477h93v-462h126v-56h-126v-82q0 -31 11 -46.5t30 -20.5t41 -5h15v-42h-301v42zM328 252v185q0 29 0.5 66.5t2.5 76t4 69.5q-5 -10 -16.5 -31t-26 -45.5t-28 -46.5t-22.5 -36l-153 -238h239z" />
    <glyph glyph-name="five.sinh" unicode="5" horiz-adv-x="559" 
d="M245 -10q-74 0 -115 16t-57.5 39.5t-16.5 45.5q0 28 14 43.5t46 15.5q0 -28 13.5 -52.5t41 -39t69.5 -14.5q44 0 78 16t53 54t19 103q0 80 -42 118.5t-115 38.5q-50 0 -78 -7t-47 -15l-24 7l32 354h334l5 -151h-42l-4 30q-1 14 -6 23t-16 13.5t-32 4.5h-194l-19 -220
q15 5 44 10.5t73 5.5q65 0 116.5 -23.5t81.5 -70t30 -117.5q0 -41 -10.5 -76t-30.5 -63t-49.5 -48t-67.5 -30.5t-84 -10.5z" />
    <glyph glyph-name="six.sinh" unicode="6" horiz-adv-x="559" 
d="M293 -10q-66 0 -118.5 37.5t-83 118.5t-30.5 210q0 73 16.5 139t49.5 117.5t82.5 81.5t116.5 30q54 0 89.5 -15t53.5 -39t18 -51q0 -28 -18 -44t-56 -16q0 33 -9 58.5t-28.5 40t-53.5 14.5q-51 0 -87 -32t-55.5 -97t-23.5 -163q17 13 40 25.5t52.5 20.5t64.5 8
q87 0 141 -55t54 -153q0 -69 -25.5 -122t-73.5 -83.5t-116 -30.5zM296 44q38 0 64 18.5t39 57.5t13 99q0 86 -30 125t-90 39q-28 0 -54.5 -9t-47.5 -23t-35 -28q2 -150 40 -214.5t101 -64.5z" />
    <glyph glyph-name="seven.sinh" unicode="7" horiz-adv-x="559" 
d="M422 633h-263q-27 0 -41.5 -13t-16.5 -38l-4 -50h-42l5 181h447v-29l-246 -684h-75z" />
    <glyph glyph-name="eight.sinh" unicode="8" horiz-adv-x="559" 
d="M273 -10q-75 0 -125.5 24.5t-76 66t-25.5 91.5q0 52 20.5 86.5t55.5 59.5t78 46q-38 22 -67.5 47.5t-46 58.5t-16.5 75q0 46 22 87t68.5 66.5t120.5 25.5q67 0 112.5 -21t69 -59t23.5 -88q0 -66 -40 -105t-101 -69q50 -23 87.5 -51t59 -62t21.5 -78q0 -95 -65 -148
t-175 -53zM278 40q70 0 108.5 33t38.5 96q0 34 -17.5 62.5t-56 54.5t-103.5 54q-47 -25 -78.5 -67t-31.5 -98q0 -66 36.5 -100.5t103.5 -34.5zM296 405q56 28 79 62.5t23 86.5q0 32 -12.5 59.5t-38.5 44.5t-68 17q-58 0 -90 -33t-32 -85q0 -36 16 -62.5t47 -47.5t76 -42z
" />
    <glyph glyph-name="nine.sinh" unicode="9" horiz-adv-x="559" 
d="M227 -11q-56 0 -88 13t-44.5 32.5t-12.5 40.5q0 19 9.5 31.5t20.5 16.5q9 -21 24 -39t38 -29t54 -11q85 0 127 73.5t47 228.5q-14 -17 -37 -33.5t-52.5 -27t-64.5 -10.5q-58 0 -102.5 22.5t-69.5 68t-25 112.5q0 72 25.5 127.5t73.5 87t115 31.5q68 0 120.5 -35
t82.5 -109t30 -192q0 -79 -15 -150.5t-47.5 -127.5t-84 -88.5t-124.5 -32.5zM270 334q33 1 59.5 13t45.5 31t28 40q-2 92 -19 147.5t-47 80.5t-72 25q-38 0 -65 -21t-40.5 -61.5t-13.5 -100.5q0 -82 31 -118t93 -36z" />
    <glyph glyph-name="colon.sinh" unicode=":" horiz-adv-x="287" 
d="M144 391q-26 0 -44.5 15t-18.5 53q0 39 18.5 53.5t44.5 14.5t44.5 -14.5t18.5 -53.5q0 -38 -18.5 -53t-44.5 -15zM144 -7q-26 0 -44.5 15t-18.5 53q0 39 18.5 53.5t44.5 14.5t44.5 -14.5t18.5 -53.5q0 -38 -18.5 -53t-44.5 -15z" />
    <glyph glyph-name="semicolon.sinh" unicode=";" horiz-adv-x="287" 
d="M144 391q-26 0 -44.5 15t-18.5 53q0 39 18.5 53.5t44.5 14.5t44.5 -14.5t18.5 -53.5q0 -38 -18.5 -53t-44.5 -15zM140 129q31 0 54 -23.5t23 -70.5q0 -39 -16 -75.5t-52 -66t-96 -47.5v42q49 16 72 38.5t23 51.5q0 15 -11 23t-25.5 15t-25.5 19t-11 35q0 29 18.5 44
t46.5 15z" />
    <glyph glyph-name="less.sinh" unicode="&#x3c;" horiz-adv-x="559" 
d="M65 340v35l429 231v-67l-339 -182l339 -180v-67z" />
    <glyph glyph-name="equal.sinh" unicode="=" horiz-adv-x="559" 
d="M65 485h429v-59h-429v59zM65 288h429v-59h-429v59z" />
    <glyph glyph-name="greater.sinh" unicode="&#x3e;" horiz-adv-x="559" 
d="M65 177l339 182l-339 180v67l429 -230v-35l-429 -231v67z" />
    <glyph glyph-name="question.sinh" unicode="?" horiz-adv-x="474" 
d="M220 724q63 0 112 -21.5t76.5 -62t27.5 -97.5q0 -55 -23 -97t-65.5 -74t-102.5 -58l-3 -113h-54l-4 152q60 24 93.5 57t47.5 71.5t14 78.5q0 52 -26 83.5t-85 31.5q-41 0 -66 -18t-35.5 -47t-10.5 -64q-36 0 -59.5 16t-23.5 47q0 24 11.5 45t34.5 37t58 24.5t83 8.5z
M213 -7q-26 0 -44.5 15t-18.5 53q0 39 18.5 53.5t44.5 14.5t44.5 -14.5t18.5 -53.5q0 -38 -18.5 -53t-44.5 -15z" />
    <glyph glyph-name="at" unicode="@" horiz-adv-x="921" 
d="M432 -142q-80 0 -147.5 22t-116.5 67t-76 112.5t-27 158.5q0 106 34 196.5t96 157.5t147.5 104.5t187.5 37.5q112 0 187 -43t113 -115.5t38 -163.5q0 -72 -17.5 -130.5t-46 -99.5t-63 -63t-69.5 -22q-44 0 -74 24t-44 67h-5q-14 -26 -32.5 -46.5t-43.5 -32.5t-59 -12
q-40 0 -75 18.5t-56 56.5t-21 96q0 40 14 88.5t44.5 92.5t79 72t117.5 28q32 0 55.5 -9t38.5 -21l40 21h24l-51 -255l-1.5 -11t-3.5 -26.5t-2 -29.5q0 -35 18.5 -51.5t42.5 -16.5q22 0 45 17.5t42 51.5t30.5 83.5t11.5 112.5q0 88 -36 147.5t-100 90t-147 30.5
q-73 0 -141 -30.5t-122 -88t-85.5 -139.5t-31.5 -185q0 -111 41 -179t109 -99.5t148 -31.5q55 0 101.5 12t85 31t67.5 40l23 -36q-33 -25 -76.5 -47.5t-96 -37t-114.5 -14.5zM431 130q26 0 44.5 11t31 29t20.5 40t12 45l38 203q-6 14 -22 22t-34 8q-45 0 -76.5 -27
t-51.5 -68t-29 -84t-9 -75q0 -52 21 -78t55 -26z" />
    <glyph glyph-name="A" unicode="A" horiz-adv-x="705" 
d="M0 0v42h19q20 0 32 6t22 23t22 49l222 594h78l226 -619q8 -21 17 -32.5t22 -16t32 -4.5h13v-42h-275v42h23q30 0 45 11.5t15 36.5q0 6 -1 11.5t-2.5 12t-4.5 13.5l-40 112h-263l-38 -105q-3 -8 -5 -16t-3 -14.5t-1 -12.5q0 -25 16.5 -37t49.5 -12h23v-42h-244zM221 289
h226l-62 175q-10 30 -19.5 57t-17 52t-13.5 49q-5 -24 -11.5 -46.5t-14.5 -47t-20 -55.5z" />
    <glyph glyph-name="B" unicode="B" horiz-adv-x="654" 
d="M38 0v42h13q23 0 41.5 5t29.5 20.5t11 46.5v490q0 30 -11.5 44.5t-30 19t-40.5 4.5h-13v42h268q130 0 193.5 -43.5t63.5 -135.5q0 -44 -16 -75t-44 -50.5t-64 -31.5v-4q46 -8 80.5 -30.5t54 -60t19.5 -90.5q0 -97 -63.5 -145t-193.5 -48h-298zM331 50q85 0 120 33t35 113
q0 52 -14 86t-47 50.5t-92 16.5h-99v-299h97zM303 399q59 0 92 14t47 44t14 78q0 74 -35 101.5t-120 27.5h-67v-265h69z" />
    <glyph glyph-name="C" unicode="C" horiz-adv-x="614" 
d="M361 -10q-99 0 -167 46t-102.5 128.5t-34.5 193.5q0 108 36.5 190.5t108 129t176.5 46.5q68 0 113 -14.5t67 -40t22 -57.5t-25 -51t-62 -19q0 31 -11 60.5t-36.5 49t-69.5 19.5q-75 0 -121 -36.5t-66.5 -106.5t-20.5 -170q0 -89 21.5 -157.5t67.5 -106.5t119 -38
q49 0 83 12t57.5 31.5t40.5 41.5q8 -5 13.5 -14.5t5.5 -24.5q0 -19 -13 -38.5t-39 -36t-66.5 -27t-96.5 -10.5z" />
    <glyph glyph-name="D" unicode="D" horiz-adv-x="727" 
d="M38 0v42h13q23 0 41.5 5t29.5 20.5t11 46.5v490q0 30 -11.5 44.5t-30 19t-40.5 4.5h-13v42h306q103 0 176 -41.5t111.5 -121t38.5 -193.5q0 -109 -36.5 -189.5t-108.5 -124.5t-181 -44h-306zM321 51q80 0 132.5 35.5t79 104t26.5 167.5t-26.5 167t-79 103.5t-131.5 35.5
h-88v-613h87z" />
    <glyph glyph-name="E" unicode="E" horiz-adv-x="623" 
d="M38 0v42h13q22 0 40.5 4.5t30 19t11.5 43.5v491q0 32 -11 47t-29.5 20t-41.5 5h-13v42h504l5 -175h-52l-5 43q-2 22 -11.5 40.5t-28 30t-48.5 11.5h-168v-266h241v-49h-241v-299h193q32 0 51.5 11.5t30 30t13.5 40.5l7 43h52l-7 -175h-536z" />
    <glyph glyph-name="F" unicode="F" horiz-adv-x="590" 
d="M38 0v42h13q22 0 40.5 4.5t30 19t11.5 43.5v495q0 30 -11.5 44.5t-30 19t-40.5 4.5h-13v42h504l5 -175h-52l-5 43q-4 34 -24.5 58t-67.5 24h-164v-289h241v-49h-241v-212q0 -31 11 -46.5t30 -20.5t41 -5h33v-42h-311z" />
    <glyph glyph-name="G" unicode="G" horiz-adv-x="714" 
d="M401 -10q-116 0 -192.5 46t-114 128.5t-37.5 193.5q0 108 39.5 190.5t117.5 129t193 46.5q74 0 123 -14.5t73.5 -40t24.5 -57.5t-27 -51t-66 -19q0 31 -12.5 60.5t-41.5 49t-78 19.5q-85 0 -136.5 -36.5t-75 -106.5t-23.5 -170t24.5 -169.5t79 -105.5t145.5 -36
q29 0 56 3t48 9v161q0 30 -11.5 44.5t-30 19t-40.5 4.5h-4v42h260v-42h-4q-19 0 -34.5 -5t-25 -20t-9.5 -47v-180q-50 -23 -103 -34.5t-118 -11.5z" />
    <glyph glyph-name="H" unicode="H" horiz-adv-x="793" 
d="M38 0v42h13q23 0 41.5 5t29.5 20.5t11 46.5v490q0 30 -11.5 44.5t-30 19t-40.5 4.5h-13v42h291v-42h-13q-22 0 -41 -5t-30 -20t-11 -47v-202h325v202q0 32 -11 47t-29.5 20t-41.5 5h-13v42h291v-42h-13q-22 0 -41 -5t-30 -20t-11 -47v-491q0 -29 11.5 -43.5t30 -19
t40.5 -4.5h13v-42h-291v42h13q23 0 41.5 5t29.5 20.5t11 46.5v234h-325v-234q0 -31 11 -46.5t30 -20.5t41 -5h13v-42h-291z" />
    <glyph glyph-name="I" unicode="I" horiz-adv-x="367" 
d="M38 0v42h13q23 0 41.5 5t29.5 20.5t11 46.5v486q0 32 -11 47t-29.5 20t-41.5 5h-13v42h291v-42h-13q-22 0 -41 -5t-30 -20t-11 -47v-486q0 -31 11 -46.5t30 -20.5t41 -5h13v-42h-291z" />
    <glyph glyph-name="J" unicode="J" horiz-adv-x="357" 
d="M-11 -240v47h9q43 0 73 16.5t46 57t16 110.5v613q0 30 -11.5 44.5t-30 19t-40.5 4.5h-13v42h291v-42h-13q-22 0 -41 -5t-30 -20t-11 -47v-608q0 -67 -17.5 -112t-48.5 -71t-72.5 -37.5t-89.5 -11.5h-17z" />
    <glyph glyph-name="K" unicode="K" horiz-adv-x="700" 
d="M38 0v42h13q22 0 40.5 4.5t30 19t11.5 43.5v495q0 30 -11.5 44.5t-30 19t-40.5 4.5h-13v42h291v-42h-13q-22 0 -41 -5t-30 -20t-11 -47v-282l207 237q22 25 33.5 43t16.5 31t5 22q0 13 -12 17.5t-37 4.5v41h221v-41q-23 0 -43.5 -11.5t-42.5 -32.5t-48 -50l-145 -163
l211 -294q19 -26 37 -44t36.5 -27t36.5 -9h2v-42h-11q-50 0 -82.5 4t-54 14t-38 27.5t-35.5 44.5l-172 247l-85 -84v-139q0 -31 11 -46.5t30 -20.5t41 -5h13v-42h-291z" />
    <glyph glyph-name="L" unicode="L" horiz-adv-x="623" 
d="M38 0v42h13q23 0 41.5 5t29.5 20.5t11 46.5v486q0 32 -11 47t-29.5 20t-41.5 5h-13v42h291v-42h-13q-22 0 -40.5 -4.5t-30 -19t-11.5 -44.5v-554h197q30 0 48.5 13.5t27.5 34.5t12 42l10 75h52l-7 -215h-536z" />
    <glyph glyph-name="M" unicode="M" horiz-adv-x="938" 
d="M38 0v42h13q22 0 40.5 4.5t30 19t11.5 43.5v495q0 30 -11.5 44.5t-30 19t-40.5 4.5h-13v42h228l207 -572l205 572h222v-42h-13q-22 0 -41 -5t-30 -20t-11 -47v-486q0 -31 11 -46.5t30 -20.5t41 -5h13v-42h-266v42h3q22 0 37.5 4.5t24.5 18t10 40.5v534l-229 -639h-54
l-232 637v-523q0 -31 8.5 -46.5t25 -20.5t38.5 -5h3v-42h-231z" />
    <glyph glyph-name="N" unicode="N" horiz-adv-x="763" 
d="M38 0v42h13q23 0 41.5 5t29.5 20.5t11 46.5v490q0 30 -11.5 44.5t-30 19t-40.5 4.5h-13v42h183l358 -553v443q0 30 -11.5 44.5t-30 19t-40.5 4.5h-13v42h251v-42h-13q-22 0 -41 -5t-30 -20t-11 -47v-600h-71l-375 576v-462q0 -31 11 -46.5t30 -20.5t41 -5h13v-42h-251z
" />
    <glyph glyph-name="O" unicode="O" horiz-adv-x="742" 
d="M371 -10q-106 0 -176 46t-104.5 129t-34.5 194t34.5 193t105 127.5t176.5 45.5q101 0 170.5 -45.5t106 -128t36.5 -193.5t-36.5 -193.5t-106.5 -128.5t-171 -46zM371 44q75 0 119.5 37.5t64 107.5t19.5 169t-19.5 169t-64 107t-118.5 37q-112 0 -158.5 -82t-46.5 -231
q0 -99 20 -169t65 -107.5t119 -37.5z" />
    <glyph glyph-name="P" unicode="P" horiz-adv-x="604" 
d="M38 0v42h13q23 0 41.5 5t29.5 20.5t11 46.5v490q0 30 -11.5 44.5t-30 19t-40.5 4.5h-13v42h281q126 0 186 -55.5t60 -153.5q0 -45 -14 -85.5t-45.5 -72.5t-83 -50.5t-125.5 -18.5h-63v-169q0 -29 11.5 -43.5t30 -19t40.5 -4.5h33v-42h-311zM287 325q45 0 77.5 9.5
t53 30.5t30 54.5t9.5 81.5q0 84 -35 124.5t-120 40.5h-68v-341h53z" />
    <glyph glyph-name="Q" unicode="Q" horiz-adv-x="742" 
d="M559 -230q-40 0 -79 11t-71.5 36t-54 68t-26.5 107q-91 10 -151.5 57.5t-90.5 127t-30 182.5q0 111 34.5 193t105 127.5t176.5 45.5q101 0 170.5 -45.5t106 -128t36.5 -193.5q0 -97 -28.5 -173.5t-83.5 -125t-135 -63.5q4 -51 16.5 -85.5t31.5 -55t44.5 -29.5t55.5 -9h16
v-47h-43zM371 44q112 0 157.5 83t45.5 231q0 99 -19.5 169t-64 107t-118.5 37t-119.5 -37t-65.5 -107t-20 -169t20 -169t65 -107.5t119 -37.5z" />
    <glyph glyph-name="R" unicode="R" horiz-adv-x="656" 
d="M38 0v42h13q22 0 40.5 4.5t30 19t11.5 43.5v495q0 30 -11.5 44.5t-30 19t-40.5 4.5h-13v42h269q87 0 144 -21.5t85 -64t28 -107.5q0 -53 -22 -89.5t-55.5 -58.5t-69.5 -34l137 -217q26 -40 50 -60t55 -20h3v-42h-14q-62 0 -96.5 6.5t-55.5 26t-44 57.5l-135 225h-83v-206
q0 -29 11.5 -43.5t30 -19t40.5 -4.5h13v-42h-291zM304 362q88 0 120.5 39t32.5 117q0 54 -15 86.5t-49 47t-91 14.5h-68v-304h70z" />
    <glyph glyph-name="S" unicode="S" horiz-adv-x="544" 
d="M247 -10q-49 0 -86.5 10t-62.5 29t-37.5 45t-12.5 57q0 20 8.5 35t24.5 23.5t39 8.5q2 -41 16 -77.5t43 -59t76 -22.5q67 0 105 32.5t38 93.5q0 37 -14.5 62.5t-48 47.5t-92.5 46q-62 26 -103 56t-61 70.5t-20 95.5q0 57 28.5 97.5t78 62t112.5 21.5q60 0 101.5 -16
t63.5 -41.5t22 -54.5q0 -32 -21.5 -48.5t-57.5 -16.5q0 31 -10.5 60t-35 48t-66.5 19q-58 0 -90 -31t-32 -83q0 -40 14.5 -67.5t48.5 -49t92 -45.5q59 -24 100.5 -52.5t63.5 -65.5t22 -89q0 -64 -30 -108.5t-85.5 -68.5t-130.5 -24z" />
    <glyph glyph-name="T" unicode="T" horiz-adv-x="613" 
d="M150 0v42h23q22 0 40.5 4.5t30 19t11.5 43.5v555h-96q-44 0 -61 -24.5t-21 -57.5l-5 -43h-52l5 175h563l5 -175h-52l-5 43q-4 33 -21 57.5t-62 24.5h-97v-550q0 -31 11 -46.5t30 -20.5t41 -5h23v-42h-311z" />
    <glyph glyph-name="U" unicode="U" horiz-adv-x="717" 
d="M362 -10q-79 0 -135.5 22.5t-86.5 72.5t-30 131v388q0 30 -11.5 44.5t-30 19t-40.5 4.5h-13v42h291v-42h-13q-22 0 -41 -5t-30 -20t-11 -47v-390q0 -87 47 -123.5t120 -36.5q58 0 95 20t55 55.5t18 80.5v398q0 30 -11.5 44.5t-30 19t-40.5 4.5h-13v42h251v-42h-13
q-22 0 -41 -5t-30 -20t-11 -47v-396q0 -66 -28 -114t-82.5 -74t-134.5 -26z" />
    <glyph glyph-name="V" unicode="V" horiz-adv-x="675" 
d="M84 619q-7 21 -16 32.5t-22 16t-33 4.5h-13v42h275v-42h-23q-30 0 -45 -11.5t-15 -36.5q0 -5 1 -11t3 -12t4 -14l110 -325q10 -29 18 -58t15 -55.5t12 -50.5q5 24 11.5 50t15 54.5t19.5 59.5l110 318q3 8 5 16t3 15t1 12q0 26 -16.5 37.5t-49.5 11.5h-23v42h244v-42h-19
q-19 0 -32 -6t-23 -22.5t-21 -49.5l-207 -594h-73z" />
    <glyph glyph-name="W" unicode="W" horiz-adv-x="1047" 
d="M93 619q-6 21 -15.5 32.5t-22.5 16t-33 4.5h-13v42h275v-42h-23q-30 0 -45 -11.5t-15 -36.5q0 -8 2.5 -17t5.5 -20l92 -320q9 -30 16.5 -59.5t14.5 -57.5t12 -52q8 39 18 85.5t23 94.5l119 429h72l125 -433q14 -49 25 -95t18 -81q5 24 11 49.5t13 54t16 60.5l88 309l7 28
t4 24q0 26 -16.5 37.5t-49.5 11.5h-23v42h244v-42h-19q-19 0 -32.5 -5.5t-23.5 -22.5t-20 -50l-169 -594h-90l-163 560l-153 -560h-92z" />
    <glyph glyph-name="X" unicode="X" horiz-adv-x="660" 
d="M8 0v42h6q24 0 40.5 6.5t31 22t32.5 41.5l167 239l-165 268q-12 19 -26 30.5t-29.5 17t-30.5 5.5h-13v42h271v-42h-3q-34 0 -45.5 -8.5t-11.5 -20.5q0 -10 4 -21.5t20 -37.5l90 -146l95 144q11 17 18 32.5t7 28.5q0 18 -15.5 23.5t-38.5 5.5h-3v42h219v-42h-9
q-19 0 -34.5 -6.5t-30.5 -22t-34 -43.5l-145 -209l184 -296q15 -19 28.5 -31t26.5 -17t25 -5h13v-42h-270v42h5q30 0 45 8.5t15 24.5q0 11 -6 23.5t-27 45.5l-99 159l-111 -164q-5 -8 -11.5 -19.5t-10.5 -23.5t-4 -23q0 -16 16 -23.5t49 -7.5h3v-42h-238z" />
    <glyph glyph-name="Y" unicode="Y" horiz-adv-x="625" 
d="M159 0v42h23q22 0 40.5 4.5t30 19t11.5 43.5v189l-185 321q-11 19 -20.5 30.5t-21.5 17t-29 5.5h-13v42h275v-42h-37q-27 0 -35.5 -9.5t-8.5 -22.5q0 -14 6 -28t12 -25l74 -134q17 -31 29.5 -61t20.5 -53q9 21 26 52l34 62l64 115q10 17 14 32.5t4 27.5q0 22 -15.5 33
t-44.5 11h-29v42h244v-42h-12q-14 0 -26.5 -7t-26 -24t-30.5 -47l-168 -296v-184q0 -31 11 -46.5t30 -20.5t41 -5h23v-42h-311z" />
    <glyph glyph-name="Z" unicode="Z" horiz-adv-x="592" 
d="M36 0v40l375 624h-217q-44 0 -61 -24.5t-21 -57.5l-5 -43h-52l5 175h474v-41l-376 -623h252q30 0 47 11.5t25.5 30t10.5 40.5l5 43h52l-5 -175h-509z" />
    <glyph glyph-name="bracketleft.sinh" unicode="[" horiz-adv-x="353" 
d="M93 799h218v-42h-52q-22 0 -40 -5t-28 -20t-10 -47v-830q0 -47 22 -59.5t56 -12.5h52v-42h-218v1058z" />
    <glyph glyph-name="backslash.sinh" unicode="\" horiz-adv-x="423" 
d="M387 -259h-63l-288 1058h63z" />
    <glyph glyph-name="bracketright.sinh" unicode="]" horiz-adv-x="353" 
d="M260 -259h-218v42h52q23 0 40.5 5t27.5 20.5t10 46.5v830q0 47 -22 59.5t-56 12.5h-52v42h218v-1058z" />
    <glyph glyph-name="asciicircum.sinh" unicode="^" horiz-adv-x="559" 
d="M261 714h35l211 -448h-67l-162 356l-160 -356h-67z" />
    <glyph glyph-name="underscore.sinh" unicode="_" horiz-adv-x="500" 
d="M0 -83h500v-59h-500v59z" />
    <glyph glyph-name="grave" unicode="`" horiz-adv-x="274" 
d="M196 606q-20 14 -43 33.5t-45.5 41.5t-40.5 42t-27 33v10h107q11 -22 25.5 -49t31 -53t30.5 -45v-13h-38z" />
    <glyph glyph-name="a" unicode="a" horiz-adv-x="563" 
d="M205 -10q-44 0 -79.5 17.5t-55.5 53t-20 89.5q0 80 56.5 118t171.5 42l83 3v60q0 36 -6 63.5t-26 43.5t-61 16q-38 0 -58 -14t-26.5 -38.5t-6.5 -56.5q-42 0 -63.5 14.5t-21.5 48.5q0 35 24.5 56t65.5 30.5t90 9.5q92 0 137.5 -39t45.5 -134v-259q0 -28 6 -43.5t20 -22
t36 -6.5h3v-42h-135l-16 86h-8q-21 -28 -41 -49.5t-46.5 -34t-68.5 -12.5zM228 52q41 0 70.5 17t46 48.5t16.5 73.5v81l-64 -3q-57 -2 -89.5 -17t-46.5 -41.5t-14 -65.5q0 -31 9 -51.5t27 -31t45 -10.5z" />
    <glyph glyph-name="b" unicode="b" horiz-adv-x="614" 
d="M355 -10q-58 0 -94.5 24.5t-58.5 63.5h-6l-18 -78h-160v42h8q23 0 41.5 5t29.5 20.5t11 46.5v536q0 30 -11.5 44.5t-30 19t-40.5 4.5h-8v42h184v-184q0 -17 -0.5 -43.5t-1.5 -51t-2 -35.5h4q23 46 59 73t94 27q99 0 151.5 -66.5t52.5 -210.5q0 -96 -23.5 -158t-69 -91.5
t-111.5 -29.5zM339 54q66 0 94.5 55.5t28.5 160.5q0 107 -28.5 159.5t-95.5 52.5q-78 0 -107 -52.5t-29 -160.5q0 -69 12.5 -117t42.5 -73t82 -25z" />
    <glyph glyph-name="c" unicode="c" horiz-adv-x="492" 
d="M283 -10q-66 0 -117.5 28t-81 88.5t-29.5 158.5q0 107 29.5 168.5t80 87t113.5 25.5q42 0 82 -11t66 -33.5t26 -57.5q0 -23 -10 -37t-29.5 -20t-49.5 -6q0 32 -7.5 58t-25.5 41.5t-52 15.5q-38 0 -66.5 -20t-44 -70t-15.5 -140q0 -71 15.5 -118t48.5 -70t87 -23
q31 0 57 9t45.5 25t30.5 36q8 -6 12.5 -15.5t4.5 -23.5q0 -23 -19 -45t-56.5 -36.5t-94.5 -14.5z" />
    <glyph glyph-name="d" unicode="d" horiz-adv-x="614" 
d="M259 -10q-66 0 -111.5 29t-69 90.5t-23.5 157.5q0 97 23.5 158.5t69 91t111.5 29.5q58 0 94.5 -24.5t58.5 -63.5h6q-3 25 -4.5 55.5t-1.5 54.5v82q0 30 -11.5 44.5t-30 19t-40.5 4.5h-8v42h184v-650q0 -29 11.5 -44t30 -19.5t40.5 -4.5h8v-42h-169l-11 90h-4
q-22 -46 -58 -73t-95 -27zM276 54q78 0 107 52.5t29 160.5q0 104 -29 159.5t-108 55.5q-44 0 -71 -25t-39.5 -73t-12.5 -118q0 -106 28.5 -159t95.5 -53z" />
    <glyph glyph-name="e" unicode="e" horiz-adv-x="535" 
d="M287 -10q-109 0 -170.5 72t-61.5 202q0 140 58 211t164 71q97 0 152.5 -60t55.5 -179v-46h-333q2 -109 39.5 -158.5t109.5 -49.5q52 0 88.5 21.5t54.5 48.5q7 -3 13 -12t6 -22q0 -20 -19 -43t-58 -39.5t-99 -16.5zM384 315q0 80 -24.5 128.5t-84.5 48.5
q-55 0 -85.5 -45.5t-35.5 -131.5h230z" />
    <glyph glyph-name="f" unicode="f" horiz-adv-x="369" 
d="M27 0v42h13q23 0 41.5 5t29.5 20.5t11 46.5v375h-91v47h91v50q0 89 47.5 136.5t129.5 47.5q52 0 82.5 -9t44 -24.5t13.5 -36.5q0 -18 -10.5 -30.5t-29 -19t-42.5 -6.5q0 20 -6 38.5t-20 30t-40 11.5q-43 0 -59 -33t-16 -96v-59h141v-47h-141v-375q0 -31 11 -46.5
t30 -20.5t41 -5h38v-42h-309z" />
    <glyph glyph-name="g" unicode="g" horiz-adv-x="538" 
d="M231 -240q-104 0 -156 38.5t-52 107.5q0 39 17.5 65.5t46 41.5t61.5 21q-20 9 -37.5 29.5t-17.5 52.5q0 30 15.5 52t49.5 42q-43 18 -66.5 59.5t-23.5 91.5q0 86 47 135.5t141 49.5q36 0 68 -10t46 -23q10 11 24 23.5t32.5 21.5t40.5 9q30 0 44.5 -15.5t14.5 -36.5
t-12.5 -36.5t-40.5 -15.5q0 11 -6.5 22.5t-26.5 11.5q-13 0 -23 -3t-20 -9q17 -21 28 -49.5t11 -71.5q0 -74 -44.5 -123t-135.5 -49q-12 0 -27.5 1.5t-25.5 3.5q-19 -10 -33 -25t-14 -38q0 -18 11.5 -28t50.5 -10h113q60 0 96 -19.5t52.5 -53t16.5 -76.5q0 -86 -64.5 -136.5
t-200.5 -50.5zM233 -191q72 0 111 15.5t54.5 43t15.5 62.5q0 46 -26 61.5t-76 15.5h-98q-28 0 -53 -7.5t-41 -27.5t-16 -60q0 -29 11 -52.5t39 -37t79 -13.5zM253 240q33 0 52.5 13t28 41t8.5 71q0 45 -9 74.5t-28.5 43.5t-52.5 14q-32 0 -52 -14.5t-29 -44t-9 -74.5
q0 -64 21.5 -94t69.5 -30z" />
    <glyph glyph-name="h" unicode="h" horiz-adv-x="635" 
d="M18 0v42h8q23 0 41.5 5t29.5 20.5t11 46.5v536q0 30 -11.5 44.5t-30 19t-40.5 4.5h-8v42h184v-220q0 -18 -1 -37.5t-2 -33.5l-1 -14h5q15 30 36.5 50.5t49 30.5t61.5 10q86 0 131.5 -46.5t45.5 -149.5v-236q0 -31 10 -46.5t27.5 -20.5t39.5 -5h3v-42h-174v345
q0 65 -24.5 101t-85.5 36q-41 0 -68 -20t-40 -56.5t-13 -85.5v-211q0 -29 11.5 -43.5t30 -19t40.5 -4.5h3v-42h-269z" />
    <glyph glyph-name="i" unicode="i" horiz-adv-x="320" 
d="M23 0v42h13q22 0 40.5 4.5t30 19t11.5 43.5v317q0 30 -11.5 44.5t-30 19t-40.5 4.5h-3v42h179v-422q0 -31 11 -46.5t30 -20.5t41 -5h13v-42h-284zM161 636q-24 0 -40.5 14t-16.5 48q0 35 16.5 48.5t40.5 13.5q23 0 40 -13.5t17 -48.5q0 -34 -17 -48t-40 -14z" />
    <glyph glyph-name="j" unicode="j" horiz-adv-x="300" 
d="M-12 -240v47h7q36 0 61.5 16.5t38.5 57t13 110.5v435q0 30 -11.5 44.5t-30 19t-40.5 4.5h-3v42h179v-544q0 -89 -25.5 -140t-70 -71.5t-102.5 -20.5h-16zM151 636q-24 0 -40.5 14t-16.5 48q0 35 16.5 48.5t40.5 13.5q23 0 40 -13.5t17 -48.5q0 -34 -17 -48t-40 -14z" />
    <glyph glyph-name="k" unicode="k" horiz-adv-x="585" 
d="M18 0v42h8q23 0 41.5 5t29.5 20.5t11 46.5v536q0 30 -11.5 44.5t-30 19t-40.5 4.5h-8v42h184v-386q0 -13 -0.5 -34t-1.5 -42t-1.5 -35.5l-0.5 -14.5l125 137q22 24 33.5 40.5t16.5 28t5 20.5q0 13 -12 16.5t-37 3.5v42h221v-42q-17 0 -34 -6t-34 -18t-35 -29.5t-38 -39.5
l-70 -79l133 -198q26 -40 51.5 -61t59.5 -21h3v-42h-14q-43 0 -72 3t-48.5 12.5t-37 29t-38.5 52.5l-100 157l-74 -55v-90q0 -29 11.5 -43.5t30 -19t40.5 -4.5h3v-42h-269z" />
    <glyph glyph-name="l" unicode="l" horiz-adv-x="310" 
d="M13 0v42h13q23 0 41.5 5t29.5 20.5t11 46.5v536q0 30 -11.5 44.5t-30 19t-40.5 4.5h-13v42h189v-646q0 -31 11 -46.5t30 -20.5t41 -5h13v-42h-284z" />
    <glyph glyph-name="m" unicode="m" horiz-adv-x="945" 
d="M28 0v42h13q23 0 40 5t27 20.5t10 46.5v312q0 30 -10 44.5t-27.5 19t-39.5 4.5h-3v42h157l13 -81h5q30 56 67.5 73.5t83.5 17.5q32 0 60.5 -9t50.5 -28.5t34 -53.5h8q30 56 70.5 73.5t86.5 17.5q77 0 120 -46.5t43 -149.5v-236q0 -31 10 -46.5t27.5 -20.5t39.5 -5h3v-42
h-174v345q0 65 -23.5 101t-81.5 36q-41 0 -65.5 -20.5t-35 -54.5t-10.5 -74v-219q0 -31 10 -46.5t27.5 -20.5t39.5 -5h3v-42h-174v345q0 65 -23.5 101t-81.5 36q-43 0 -68.5 -22.5t-36.5 -59.5t-11 -80v-211q0 -29 11.5 -43.5t30 -19t40.5 -4.5h3v-42h-269z" />
    <glyph glyph-name="n" unicode="n" horiz-adv-x="645" 
d="M28 0v42h8q23 0 41.5 5t29.5 20.5t11 46.5v312q0 30 -11 44.5t-29 19t-40 4.5h-5v42h162l13 -81h5q31 56 69.5 73.5t86.5 17.5q79 0 123.5 -46.5t44.5 -149.5v-236q0 -31 9.5 -46.5t26.5 -20.5t39 -5h5v-42h-174v345q0 65 -24.5 101t-85.5 36q-45 0 -71.5 -22.5
t-38 -59.5t-11.5 -80v-211q0 -29 11 -43.5t29 -19t40 -4.5h5v-42h-269z" />
    <glyph glyph-name="o" unicode="o" horiz-adv-x="577" 
d="M287 -10q-108 0 -170 69t-62 210q0 140 59.5 208.5t175.5 68.5q108 0 170 -68.5t62 -208.5q0 -141 -59.5 -210t-175.5 -69zM289 42q50 0 80 25.5t43 76.5t13 125q0 112 -31 168t-106 56t-105.5 -56t-30.5 -168t31 -169.5t106 -57.5z" />
    <glyph glyph-name="p" unicode="p" horiz-adv-x="614" 
d="M18 -240v42h8q23 0 41.5 5t29.5 20.5t11 46.5v552q0 30 -11.5 44.5t-30 19t-40.5 4.5h-13v42h175l10 -90h4q23 46 59 73t94 27q99 0 151.5 -66.5t52.5 -210.5q0 -145 -52.5 -212t-151.5 -67q-58 0 -94.5 24.5t-58.5 63.5h-4q2 -29 3 -61.5t1 -51.5v-96q0 -29 11.5 -43.5
t30 -19t40.5 -4.5h3v-42h-269zM339 54q66 0 94.5 55.5t28.5 160.5q0 107 -28.5 159.5t-95.5 52.5q-52 0 -81.5 -23t-42 -70.5t-12.5 -119.5q0 -69 12.5 -117t42.5 -73t82 -25z" />
    <glyph glyph-name="q" unicode="q" horiz-adv-x="614" 
d="M297 -240v42h33q23 0 41.5 5t29.5 20.5t11 46.5v86q0 16 0.5 40.5t1.5 49.5t2 40h-4q-22 -46 -58 -73t-95 -27q-99 0 -151.5 66.5t-52.5 210.5q0 97 23.5 158.5t69 91t111.5 29.5q58 0 94.5 -24.5t58.5 -63.5h6l18 78h160v-42h-8q-22 0 -41 -5t-30 -20t-11 -47v-552
q0 -29 11.5 -44t30 -19.5t40.5 -4.5h8v-42h-299zM276 54q39 0 65 13t42 39.5t22.5 66.5t6.5 94q0 70 -12.5 117.5t-42 72.5t-82.5 25q-44 0 -71 -25t-39.5 -73t-12.5 -118q0 -106 28.5 -159t95.5 -53z" />
    <glyph glyph-name="r" unicode="r" horiz-adv-x="471" 
d="M33 0v42h3q23 0 41.5 5t29.5 20.5t11 46.5v312q0 30 -11.5 44.5t-30 19t-40.5 4.5h-3v42h154l19 -99h5q13 30 28 55t40 39.5t69 14.5q55 0 81.5 -19t26.5 -54q0 -31 -21.5 -51t-71.5 -20q0 28 -5 45t-16.5 25t-31.5 8q-28 0 -47 -22t-30 -56t-16 -70.5t-5 -65.5v-157
q0 -29 11.5 -43.5t30 -19t40.5 -4.5h28v-42h-289z" />
    <glyph glyph-name="s" unicode="s" horiz-adv-x="451" 
d="M210 -10q-50 0 -87 12t-57.5 35.5t-20.5 58.5q0 27 11 42t25.5 21t26.5 6q0 -52 23.5 -89.5t84.5 -37.5q53 0 81.5 25.5t28.5 65.5q0 25 -10.5 41t-37 31.5t-75.5 36.5q-51 23 -84.5 44.5t-50 50t-16.5 71.5q0 68 51.5 104.5t136.5 36.5q48 0 80.5 -12.5t49 -33.5
t16.5 -46q0 -27 -18.5 -43.5t-53.5 -16.5q0 50 -21 78t-65 28q-51 0 -73 -22.5t-22 -57.5q0 -38 28.5 -58.5t95.5 -47.5q53 -22 86 -44t48.5 -51t15.5 -71q0 -78 -54 -117.5t-143 -39.5z" />
    <glyph glyph-name="t" unicode="t" horiz-adv-x="352" 
d="M240 -10q-76 0 -110.5 34.5t-34.5 120.5v334h-76v40q18 0 40 7.5t38 24.5q17 18 28 44t18 64h46v-123h131v-57h-131v-337q0 -51 21 -75t55 -24q18 0 33 2t31 5v-44q-13 -6 -39 -11t-50 -5z" />
    <glyph glyph-name="u" unicode="u" horiz-adv-x="635" 
d="M273 -10q-79 0 -122 46.5t-43 149.5v240q0 30 -11.5 44.5t-30 19t-40.5 4.5h-3v42h179v-345q0 -43 9.5 -74t32.5 -47t63 -16q44 0 72 20.5t41 57t13 84.5v206q0 32 -11 47t-29.5 20t-41.5 5h-3v42h179v-427q0 -29 11.5 -43.5t30 -19t40.5 -4.5h3v-42h-159l-13 81h-5
q-31 -56 -72 -73.5t-90 -17.5z" />
    <glyph glyph-name="v" unicode="v" horiz-adv-x="579" 
d="M78 441q-7 21 -16.5 32.5t-23 16t-34.5 4.5v42h250v-42h-13q-30 0 -45 -11.5t-15 -36.5q0 -8 2 -17t6 -20l68 -189q9 -24 18 -52.5t16.5 -54t12.5 -43.5q5 21 21 61t29 76l72 195q5 12 7 23.5t2 19.5q0 26 -16.5 37.5t-49.5 11.5h-7v42h214v-42h-12q-19 0 -31.5 -6
t-22.5 -23t-22 -49l-158 -416h-91z" />
    <glyph glyph-name="w" unicode="w" horiz-adv-x="862" 
d="M75 441q-7 21 -16.5 32.5t-22 16t-32.5 4.5h-3v42h247v-42h-13q-30 0 -45 -8.5t-15 -33.5q0 -8 2.5 -20t5.5 -23l47 -168q7 -24 13.5 -53.5t12.5 -56t9 -43.5h3q3 17 9.5 41t15 51t16.5 51l104 302h63l100 -296q6 -18 12.5 -38.5t12.5 -41.5t11 -39t7 -30h3
q5 25 14.5 61.5t24.5 84.5l50 161q4 13 6.5 27.5t2.5 22.5q0 26 -16.5 37.5t-49.5 11.5h-7v42h214v-42h-13q-19 0 -32 -5.5t-23 -22.5t-20 -50l-129 -416h-80l-137 418l-142 -418h-79z" />
    <glyph glyph-name="x" unicode="x" horiz-adv-x="578" 
d="M5 0v42h9q24 0 41 5.5t33 19.5t35 39l126 163l-126 172q-14 17 -28.5 29t-28.5 18t-29 6h-13v42h254v-42h-3q-34 0 -45.5 -8.5t-11.5 -20.5q0 -10 6 -20t17 -26l66 -90l52 75q11 17 18 32.5t7 28.5q0 18 -15.5 23.5t-38.5 5.5h-3v42h219v-42h-9q-19 0 -34.5 -4.5
t-31 -18.5t-35.5 -41l-103 -137l147 -198q15 -19 28.5 -31t26.5 -17t25 -5h13v-42h-258v42h5q30 0 45 8.5t15 24.5q0 11 -7.5 24.5t-30.5 44.5l-67 90l-70 -98q-9 -12 -18 -29.5t-9 -33.5t14.5 -23.5t47.5 -7.5h3v-42h-238z" />
    <glyph glyph-name="y" unicode="y" horiz-adv-x="565" 
d="M38 -193q51 0 88 15t63 41.5t44 62.5t30 78l-185 437q-9 21 -18 32.5t-21 16t-32 4.5h-3v42h240v-42h-3q-30 0 -45 -11.5t-15 -36.5q0 -8 2 -17t6 -20l73 -178q10 -23 19.5 -50.5t17.5 -52.5t11 -42q7 29 18.5 60t21.5 61l67 195q5 12 7 23.5t2 19.5q0 26 -16.5 37.5
t-49.5 11.5h-3v42h208v-42h-3q-19 0 -32 -6t-22.5 -23t-21.5 -49l-152 -420q-26 -73 -50 -119t-53.5 -71.5t-73.5 -35.5t-110 -10h-9v47z" />
    <glyph glyph-name="z" unicode="z" horiz-adv-x="511" 
d="M42 0v40l290 439h-156q-40 0 -53 -20.5t-24 -60.5l-1 -4h-42l10 142h383v-41l-291 -438h182q35 0 48 25t20 57l5 23h42l-5 -162h-408z" />
    <glyph glyph-name="braceleft.sinh" unicode="{" horiz-adv-x="414" 
d="M372 -259h-70q-70 0 -107 39t-37 105v258q0 41 -15.5 63.5t-42.5 32t-60 10.5v42q33 1 60 10.5t42.5 32t15.5 62.5v260q0 68 37 105.5t107 37.5h70v-43h-43q-44 0 -63 -26.5t-19 -78.5v-249q0 -55 -25 -88.5t-81 -42.5v-1q57 -10 81.5 -43.5t24.5 -89.5v-248
q0 -51 19 -78t63 -27h43v-43z" />
    <glyph glyph-name="bar.sinh" unicode="|" horiz-adv-x="551" 
d="M243 799h63v-1058h-63v1058z" />
    <glyph glyph-name="braceright.sinh" unicode="}" horiz-adv-x="414" 
d="M42 799h70q71 0 107.5 -39t36.5 -105v-258q0 -41 16 -63.5t42.5 -31.5t59.5 -11v-42q-33 -1 -59.5 -10.5t-42.5 -31.5t-16 -63v-260q0 -68 -36.5 -105.5t-107.5 -37.5h-70v43h43q44 0 63 26.5t19 78.5v249q0 55 25.5 88.5t80.5 42.5v1q-57 10 -81.5 43.5t-24.5 89.5v248
q0 51 -19 78t-63 27h-43v43z" />
    <glyph glyph-name="asciitilde.sinh" unicode="~" horiz-adv-x="559" 
d="M54 269q3 29 9 59.5t19 57t35.5 42.5t58.5 16q23 0 42.5 -7.5t39.5 -22t43 -36.5q21 -19 41 -34.5t41 -15.5q28 0 41 30.5t20 85.5h60q-3 -26 -9.5 -56t-19.5 -57t-35.5 -44.5t-57.5 -17.5q-23 0 -43.5 8t-39 22.5t-37.5 32.5q-23 23 -43 38t-43 15q-29 0 -43.5 -28.5
t-19.5 -87.5h-59z" />
    <glyph glyph-name="uni00A0" unicode="&#xa0;" horiz-adv-x="500" 
 />
    <glyph glyph-name="exclamdown" unicode="&#xa1;" horiz-adv-x="332" 
d="M193 333l31 -513h-116l31 513h54zM166 541q26 0 44.5 -15t18.5 -53q0 -39 -18.5 -53.5t-44.5 -14.5q-25 0 -44 14.5t-19 53.5q0 38 19 53t44 15z" />
    <glyph glyph-name="cent" unicode="&#xa2;" horiz-adv-x="559" 
d="M285 88q-60 7 -106.5 36t-73 87t-26.5 150q0 99 27.5 158.5t74.5 88t104 33.5v73h50v-73q39 -3 76 -15t61 -33t24 -53q0 -17 -5.5 -29t-17 -19.5t-28 -11t-38.5 -3.5q0 41 -17 73t-55 39v-444q31 0 58 10t48 27t32 37q8 -6 12.5 -15.5t4.5 -23.5q0 -23 -15 -43.5
t-49 -34.5t-91 -16v-86h-50v88zM285 589q-32 -6 -56.5 -29.5t-38.5 -71t-14 -126.5q0 -59 12 -103t36 -71t61 -37v438z" />
    <glyph glyph-name="sterling" unicode="&#xa3;" horiz-adv-x="559" 
d="M399 -10q-25 0 -50 7.5t-51 16.5q-23 8 -47.5 14.5t-50.5 6.5q-33 0 -62 -9.5t-61 -24.5l-13 -6v53l18 11q25 15 48.5 38.5t39 55t15.5 71.5q0 29 -7 57.5t-18 55.5h-111v47h92q-13 32 -25.5 75t-12.5 84q0 86 55 133.5t149 47.5q65 0 103.5 -14.5t56 -40t17.5 -57.5
t-21.5 -48.5t-57.5 -16.5q0 31 -8 60t-30 48t-64 19q-58 0 -85 -33.5t-27 -95.5q0 -31 6.5 -60.5t15.5 -55t17 -45.5h170v-47h-156q8 -25 14 -51t6 -56q0 -28 -11 -52.5t-30.5 -45t-46.5 -38.5l2 -4q20 10 38.5 14t34.5 4q14 0 29.5 -3t32 -7.5t32.5 -9.5q23 -7 44 -12.5
t36 -5.5q23 0 42 8.5t35 22t28 28.5v-65q-12 -16 -30 -33.5t-42.5 -29t-58.5 -11.5z" />
    <glyph glyph-name="yen" unicode="&#xa5;" horiz-adv-x="559" 
d="M129 0v42h23q22 0 40 4.5t29.5 19t12.5 43.5v68h-140v47h140v70h-140v47h121l-136 278q-14 29 -28 41t-43 12h-3v42h243v-42h-7q-30 0 -43.5 -9.5t-13.5 -29.5q0 -12 4 -27t12 -32l48 -106q14 -31 27 -69t19 -58q3 7 9.5 22.5t15 33.5t14.5 31l57 122q12 26 18 48.5
t6 33.5q0 20 -14 30t-47 10h-3v42h204v-42h-9q-25 0 -39 -15.5t-37 -62.5l-122 -253h124v-47h-140v-70h140v-47h-140v-63q0 -31 11 -46.5t30 -20.5t41 -5h23v-42h-307z" />
    <glyph glyph-name="section" unicode="&#xa7;" horiz-adv-x="544" 
d="M272 -114q-39 0 -70.5 7.5t-54 22.5t-34.5 36.5t-12 49.5q0 27 11 42.5t25.5 21.5t26.5 6q0 -35 12 -66.5t37.5 -51t65.5 -19.5q41 0 68 12.5t40.5 34.5t13.5 53q0 22 -5.5 38.5t-23.5 32.5t-53 36t-94 49q-53 26 -85.5 53.5t-47 60t-14.5 72.5q0 38 17 66t42 46
q-18 22 -27.5 49t-9.5 63q0 51 24 86.5t65.5 54t94.5 18.5q55 0 91 -14.5t54 -40t18 -57.5t-19.5 -46.5t-51.5 -14.5q0 31 -9 59t-30 46t-57 18q-49 0 -77 -25t-28 -72q0 -35 17.5 -56.5t52.5 -38.5t85 -42q57 -27 93 -55t53 -59.5t17 -70.5q0 -37 -18.5 -70.5t-41.5 -56.5
q10 -13 16.5 -28t10.5 -32.5t4 -38.5q0 -52 -20 -92.5t-62 -63.5t-110 -23zM401 199q8 12 13.5 26.5t5.5 30.5q0 23 -9.5 43t-37 41.5t-81.5 47.5q-36 17 -67.5 34t-57.5 37q-10 -10 -17.5 -23.5t-7.5 -33.5q0 -27 13 -47t44.5 -40.5t88.5 -48.5q30 -15 59.5 -30.5
t53.5 -36.5z" />
    <glyph glyph-name="dieresis" unicode="&#xa8;" horiz-adv-x="577" 
d="M383 632q-22 0 -36.5 12.5t-14.5 43.5q0 32 14.5 44t36.5 12q21 0 36 -12t15 -44q0 -31 -15 -43.5t-36 -12.5zM193 632q-22 0 -36.5 12.5t-14.5 43.5q0 32 14.5 44t36.5 12q21 0 36 -12t15 -44q0 -31 -15 -43.5t-36 -12.5z" />
    <glyph glyph-name="copyright" unicode="&#xa9;" horiz-adv-x="845" 
d="M422 -10q-80 0 -147 26t-116.5 74t-76.5 116t-27 152q0 83 27 150.5t76 116t116.5 74.5t147.5 26t147.5 -26t117 -74t76.5 -116t27 -152t-27 -151.5t-76.5 -115.5t-117 -74t-147.5 -26zM428 129q-68 0 -114 28.5t-69 80t-23 120.5q0 67 25 118t74 80t121 29q48 0 79 -9.5
t46.5 -26t15.5 -37.5q0 -22 -20.5 -35t-49.5 -13q0 19 -7 37t-23 29.5t-43 11.5q-73 0 -103.5 -47.5t-30.5 -136.5q0 -59 15.5 -100.5t46 -63t73.5 -21.5q47 0 80 22.5t46 47.5q7 -4 11 -12.5t4 -19.5q0 -19 -17 -38t-51.5 -31.5t-85.5 -12.5zM423 45q70 0 126.5 22t97.5 63
t63 99t22 129q0 72 -22.5 129.5t-63.5 98t-97.5 62.5t-125.5 22q-91 0 -161 -38t-109.5 -108t-39.5 -167q0 -73 23 -131t64.5 -98.5t98.5 -61.5t124 -21z" />
    <glyph glyph-name="ordfeminine" unicode="&#xaa;" horiz-adv-x="382" 
d="M139 380q-48 0 -76 26t-28 76t40 73.5t121 27.5l43 2v29q0 30 -8.5 49t-41.5 19q-30 0 -39 -19.5t-9 -48.5q-37 0 -58 10t-21 33t17.5 36.5t47 19.5t64.5 6q66 0 98.5 -24.5t32.5 -83.5v-152q0 -22 9.5 -30.5t33.5 -8.5v-34h-97l-18 46h-5q-11 -13 -26 -25t-34.5 -19.5
t-45.5 -7.5zM168 426q22 0 38 10t24.5 28.5t8.5 41.5v47l-31 -1q-32 -1 -51 -9.5t-27 -24t-8 -37.5q0 -31 13.5 -43t32.5 -12z" />
    <glyph glyph-name="guillemotleft" unicode="&#xab;" horiz-adv-x="514" 
d="M399 80l-153 174v32l153 174h50l-101 -190l101 -190h-50zM218 80l-153 174v32l153 174h50l-101 -190l101 -190h-50z" />
    <glyph glyph-name="uni00AD.sinh" unicode="&#xad;" horiz-adv-x="340" 
d="M40 351h260v-77h-260v77z" />
    <glyph glyph-name="registered" unicode="&#xae;" horiz-adv-x="845" 
d="M422 -10q-80 0 -147 26t-116.5 74t-76.5 116t-27 152q0 83 27 150.5t76 116t116.5 74.5t147.5 26t147.5 -26t117 -74t76.5 -116t27 -152t-27 -151.5t-76.5 -115.5t-117 -74t-147.5 -26zM423 45q70 0 126.5 22t97.5 63t63 99t22 129q0 72 -22.5 129.5t-63.5 98t-97.5 62.5
t-125.5 22q-91 0 -161 -38t-109.5 -108t-39.5 -167q0 -73 23 -131t64.5 -98.5t98.5 -61.5t124 -21zM230 141v34h13q20 0 34.5 6t14.5 29v293q0 23 -14.5 29t-34.5 6h-13v35h183q86 0 129 -30t43 -87q0 -33 -12.5 -55t-33.5 -35.5t-45 -21.5l89 -142q11 -16 21 -21.5t35 -5.5
v-34h-109l-110 186h-50v-117q0 -23 15 -29t34 -6h14v-34h-203zM412 368q53 0 73.5 20t20.5 63q0 46 -22 63t-75 17h-39v-163h42z" />
    <glyph glyph-name="overscore" unicode="&#xaf;" horiz-adv-x="459" 
d="M-5 760v59h469v-59h-469z" />
    <glyph glyph-name="degree" unicode="&#xb0;" horiz-adv-x="400" 
d="M199 423q-67 0 -109 42t-42 109q0 45 19 79t53 53.5t79 19.5t79.5 -19.5t53.5 -53.5t19 -79t-19 -79t-53.5 -53t-79.5 -19zM200 482q41 0 63.5 25t22.5 67q0 43 -23 68t-63 25q-39 0 -62.5 -25t-23.5 -68q0 -42 23 -67t63 -25z" />
    <glyph glyph-name="acute" unicode="&#xb4;" horiz-adv-x="274" 
d="M40 619q15 19 31 45t31 53t25 49h107v-10q-9 -13 -27 -33t-40.5 -42t-45.5 -41.5t-43 -33.5h-38v13z" />
    <glyph glyph-name="paragraph" unicode="&#xb6;" horiz-adv-x="617" 
d="M169 -111v42h13q23 0 41.5 5t29.5 20.5t11 46.5v383h-71q-58 0 -91.5 27.5t-47.5 72t-14 96.5q0 54 15 94t49.5 62t90.5 22h381v-42h-13q-22 0 -41 -5t-30 -20t-11 -47v-643q0 -31 11 -46.5t30 -20.5t41 -5h13v-42h-156v820h-95v-820h-156z" />
    <glyph glyph-name="periodcentered" unicode="&#xb7;" horiz-adv-x="250" 
d="M125 288q-26 0 -44.5 15t-18.5 53q0 39 18.5 53.5t44.5 14.5t44.5 -14.5t18.5 -53.5q0 -38 -18.5 -53t-44.5 -15z" />
    <glyph glyph-name="cedilla" unicode="&#xb8;" horiz-adv-x="333" 
d="M137 -240q-16 0 -37.5 3t-39.5 8v51q18 -4 36.5 -6t31.5 -2q29 0 45 15.5t16 40.5q0 29 -21.5 44t-53.5 17l21 78h47l-10 -43q33 -2 54.5 -14t32 -31.5t10.5 -46.5q0 -53 -34 -83.5t-98 -30.5z" />
    <glyph glyph-name="ordmasculine" unicode="&#xba;" horiz-adv-x="397" 
d="M198 380q-77 0 -120 42.5t-43 127.5q0 86 41.5 127.5t123.5 41.5q75 0 118.5 -41.5t43.5 -127.5q0 -85 -42 -127.5t-122 -42.5zM199 420q42 0 59.5 33t17.5 97t-18 95.5t-60 31.5t-59 -31.5t-17 -95.5t17 -97t60 -33z" />
    <glyph glyph-name="guillemotright" unicode="&#xbb;" horiz-adv-x="514" 
d="M246 80l101 190l-101 190h50l153 -174v-32l-153 -174h-50zM65 80l101 190l-101 190h50l153 -174v-32l-153 -174h-50z" />
    <glyph glyph-name="questiondown" unicode="&#xbf;" horiz-adv-x="474" 
d="M290 179q-59 -24 -93 -57t-48 -71.5t-14 -78.5q0 -52 26.5 -83.5t84.5 -31.5q42 0 66.5 18t35 47.5t10.5 63.5q36 0 59.5 -16t23.5 -47q0 -24 -11.5 -45t-34.5 -37t-58 -24.5t-83 -8.5q-63 0 -111.5 21.5t-76.5 62t-28 97.5q0 55 23 97t66 74.5t102 57.5l3 113h54z
M261 539q26 0 44.5 -15t18.5 -53q0 -39 -18.5 -53.5t-44.5 -14.5q-25 0 -44 14.5t-19 53.5q0 38 19 53t44 15z" />
    <glyph glyph-name="Agrave" unicode="&#xc0;" horiz-adv-x="705" 
d="M0 0v42h19q20 0 32 6t22 23t22 49l222 594h78l226 -619q8 -21 17 -32.5t22 -16t32 -4.5h13v-42h-275v42h23q30 0 45 11.5t15 36.5q0 6 -1 11.5t-2.5 12t-4.5 13.5l-40 112h-263l-38 -105q-3 -8 -5 -16t-3 -14.5t-1 -12.5q0 -25 16.5 -37t49.5 -12h23v-42h-244zM221 289
h226l-62 175q-10 30 -19.5 57t-17 52t-13.5 49q-5 -24 -11.5 -46.5t-14.5 -47t-20 -55.5zM355 771q-20 14 -43 33.5t-45.5 41.5t-40.5 42t-27 33v10h107q11 -22 25.5 -49t31 -53t30.5 -45v-13h-38z" />
    <glyph glyph-name="Aacute" unicode="&#xc1;" horiz-adv-x="705" 
d="M0 0v42h19q20 0 32 6t22 23t22 49l222 594h78l226 -619q8 -21 17 -32.5t22 -16t32 -4.5h13v-42h-275v42h23q30 0 45 11.5t15 36.5q0 6 -1 11.5t-2.5 12t-4.5 13.5l-40 112h-263l-38 -105q-3 -8 -5 -16t-3 -14.5t-1 -12.5q0 -25 16.5 -37t49.5 -12h23v-42h-244zM221 289
h226l-62 175q-10 30 -19.5 57t-17 52t-13.5 49q-5 -24 -11.5 -46.5t-14.5 -47t-20 -55.5zM311 784q15 19 31 45t31 53t25 49h107v-10q-9 -13 -27 -33t-40.5 -42t-45.5 -41.5t-43 -33.5h-38v13z" />
    <glyph glyph-name="Acircumflex" unicode="&#xc2;" horiz-adv-x="705" 
d="M0 0v42h19q20 0 32 6t22 23t22 49l222 594h78l226 -619q8 -21 17 -32.5t22 -16t32 -4.5h13v-42h-275v42h23q30 0 45 11.5t15 36.5q0 6 -1 11.5t-2.5 12t-4.5 13.5l-40 112h-263l-38 -105q-3 -8 -5 -16t-3 -14.5t-1 -12.5q0 -25 16.5 -37t49.5 -12h23v-42h-244zM221 289
h226l-62 175q-10 30 -19.5 57t-17 52t-13.5 49q-5 -24 -11.5 -46.5t-14.5 -47t-20 -55.5zM206 784q16 19 35 45t37 53t28 49h95q11 -22 28.5 -49t37 -53t34.5 -45v-13h-39q-19 11 -38.5 26t-37.5 31.5t-33 32.5q-15 -16 -33 -32.5t-37 -31.5t-38 -26h-39v13z" />
    <glyph glyph-name="Atilde" unicode="&#xc3;" horiz-adv-x="705" 
d="M0 0v42h19q20 0 32 6t22 23t22 49l222 594h78l226 -619q8 -21 17 -32.5t22 -16t32 -4.5h13v-42h-275v42h23q30 0 45 11.5t15 36.5q0 6 -1 11.5t-2.5 12t-4.5 13.5l-40 112h-263l-38 -105q-3 -8 -5 -16t-3 -14.5t-1 -12.5q0 -25 16.5 -37t49.5 -12h23v-42h-244zM221 289
h226l-62 175q-10 30 -19.5 57t-17 52t-13.5 49q-5 -24 -11.5 -46.5t-14.5 -47t-20 -55.5zM426 771q-27 0 -49 9.5t-40.5 22t-35 22t-32.5 9.5q-30 0 -38 -16.5t-11 -36.5h-45q2 31 13.5 57.5t34 43.5t58.5 17q27 0 48.5 -9.5t40 -22t35 -22t32.5 -9.5q29 0 37.5 16.5
t11.5 36.5h45q-2 -30 -13.5 -57t-33.5 -44t-58 -17z" />
    <glyph glyph-name="Adieresis" unicode="&#xc4;" horiz-adv-x="705" 
d="M0 0v42h19q20 0 32 6t22 23t22 49l222 594h78l226 -619q8 -21 17 -32.5t22 -16t32 -4.5h13v-42h-275v42h23q30 0 45 11.5t15 36.5q0 6 -1 11.5t-2.5 12t-4.5 13.5l-40 112h-263l-38 -105q-3 -8 -5 -16t-3 -14.5t-1 -12.5q0 -25 16.5 -37t49.5 -12h23v-42h-244zM221 289
h226l-62 175q-10 30 -19.5 57t-17 52t-13.5 49q-5 -24 -11.5 -46.5t-14.5 -47t-20 -55.5zM448 797q-22 0 -36.5 12.5t-14.5 43.5q0 32 14.5 44t36.5 12q21 0 36 -12t15 -44q0 -31 -15 -43.5t-36 -12.5zM258 797q-22 0 -36.5 12.5t-14.5 43.5q0 32 14.5 44t36.5 12
q21 0 36 -12t15 -44q0 -31 -15 -43.5t-36 -12.5z" />
    <glyph glyph-name="Aring" unicode="&#xc5;" horiz-adv-x="705" 
d="M0 0v42h19q20 0 32 6t22 23t22 49l207 553q-31 11 -49.5 36.5t-18.5 64.5q0 53 35 81t85 28t85 -28t35 -81q0 -37 -18 -62.5t-47 -36.5l212 -580q11 -31 26.5 -42t44.5 -11h13v-42h-275v42h23q30 0 45 11.5t15 36.5q0 8 -2 17t-6 20l-40 112h-263l-38 -105q-3 -8 -5 -16
t-3 -14.5t-1 -12.5q0 -25 16.5 -37t49.5 -12h23v-42h-244zM221 289h226l-62 175q-10 30 -19.5 57t-17 52t-13.5 49q-5 -24 -11.5 -46.5t-14.5 -47t-20 -55.5zM354 714q27 0 46.5 14t19.5 46t-19.5 46t-46.5 14t-46.5 -14t-19.5 -46t19.5 -46t46.5 -14z" />
    <glyph glyph-name="AE" unicode="&#xc6;" horiz-adv-x="951" 
d="M0 0v42h16q18 0 32.5 8.5t28.5 25.5t28 44l289 547l-78 5v42h554l5 -175h-52l-5 43q-2 22 -11.5 40.5t-28 29.5t-48.5 12h-168v-266h241v-49h-241v-299h193q32 0 51.5 11.5t30 30t13.5 40.5l7 43h52l-7 -175h-536v42h13q22 0 40.5 4.5t29.5 19t12 43.5v130h-230l-55 -105
q-8 -16 -12 -30t-4 -23q0 -20 15.5 -29.5t44.5 -9.5h23v-42h-243zM257 289h204v375h-14z" />
    <glyph glyph-name="Ccedilla" unicode="&#xc7;" horiz-adv-x="614" 
d="M361 -10q-99 0 -167 46t-102.5 128.5t-34.5 193.5q0 108 36.5 190.5t108 129t176.5 46.5q68 0 113 -14.5t67 -40t22 -57.5t-25 -51t-62 -19q0 31 -11 60.5t-36.5 49t-69.5 19.5q-75 0 -121 -36.5t-66.5 -106.5t-20.5 -170q0 -89 21.5 -157.5t67.5 -106.5t119 -38
q49 0 83 12t57.5 31.5t40.5 41.5q8 -5 13.5 -14.5t5.5 -24.5q0 -19 -13 -38.5t-39 -36t-66.5 -27t-96.5 -10.5zM329 -240q-10 0 -23.5 1.5t-27.5 4t-26 5.5v51q18 -4 36.5 -6t31.5 -2q29 0 45 15.5t16 40.5q0 29 -21.5 44t-53.5 17l21 78h47l-10 -43q33 -2 54.5 -14
t32 -31.5t10.5 -46.5q0 -53 -34 -83.5t-98 -30.5z" />
    <glyph glyph-name="Egrave" unicode="&#xc8;" horiz-adv-x="623" 
d="M38 0v42h13q22 0 40.5 4.5t30 19t11.5 43.5v491q0 32 -11 47t-29.5 20t-41.5 5h-13v42h504l5 -175h-52l-5 43q-2 22 -11.5 40.5t-28 30t-48.5 11.5h-168v-266h241v-49h-241v-299h193q32 0 51.5 11.5t30 30t13.5 40.5l7 43h52l-7 -175h-536zM324 771q-20 14 -43 33.5
t-45.5 41.5t-40.5 42t-27 33v10h107q11 -22 25.5 -49t31 -53t30.5 -45v-13h-38z" />
    <glyph glyph-name="Eacute" unicode="&#xc9;" horiz-adv-x="623" 
d="M38 0v42h13q22 0 40.5 4.5t30 19t11.5 43.5v491q0 32 -11 47t-29.5 20t-41.5 5h-13v42h504l5 -175h-52l-5 43q-2 22 -11.5 40.5t-28 30t-48.5 11.5h-168v-266h241v-49h-241v-299h193q32 0 51.5 11.5t30 30t13.5 40.5l7 43h52l-7 -175h-536zM266 784q15 19 31 45t31 53
t25 49h107v-10q-9 -13 -27 -33t-40.5 -42t-45.5 -41.5t-43 -33.5h-38v13z" />
    <glyph glyph-name="Ecircumflex" unicode="&#xca;" horiz-adv-x="623" 
d="M38 0v42h13q22 0 40.5 4.5t30 19t11.5 43.5v491q0 32 -11 47t-29.5 20t-41.5 5h-13v42h504l5 -175h-52l-5 43q-2 22 -11.5 40.5t-28 30t-48.5 11.5h-168v-266h241v-49h-241v-299h193q32 0 51.5 11.5t30 30t13.5 40.5l7 43h52l-7 -175h-536zM171 784q16 19 35 45t37 53
t28 49h95q11 -22 28.5 -49t37 -53t34.5 -45v-13h-39q-19 11 -38.5 26t-37.5 31.5t-33 32.5q-15 -16 -33 -32.5t-37 -31.5t-38 -26h-39v13z" />
    <glyph glyph-name="Edieresis" unicode="&#xcb;" horiz-adv-x="623" 
d="M38 0v42h13q22 0 40.5 4.5t30 19t11.5 43.5v491q0 32 -11 47t-29.5 20t-41.5 5h-13v42h504l5 -175h-52l-5 43q-2 22 -11.5 40.5t-28 30t-48.5 11.5h-168v-266h241v-49h-241v-299h193q32 0 51.5 11.5t30 30t13.5 40.5l7 43h52l-7 -175h-536zM408 797q-22 0 -36.5 12.5
t-14.5 43.5q0 32 14.5 44t36.5 12q21 0 36 -12t15 -44q0 -31 -15 -43.5t-36 -12.5zM218 797q-22 0 -36.5 12.5t-14.5 43.5q0 32 14.5 44t36.5 12q21 0 36 -12t15 -44q0 -31 -15 -43.5t-36 -12.5z" />
    <glyph glyph-name="Igrave" unicode="&#xcc;" horiz-adv-x="367" 
d="M38 0v42h13q23 0 41.5 5t29.5 20.5t11 46.5v486q0 32 -11 47t-29.5 20t-41.5 5h-13v42h291v-42h-13q-22 0 -41 -5t-30 -20t-11 -47v-486q0 -31 11 -46.5t30 -20.5t41 -5h13v-42h-291zM192 771q-20 14 -43 33.5t-45.5 41.5t-40.5 42t-27 33v10h107q11 -22 25.5 -49t31 -53
t30.5 -45v-13h-38z" />
    <glyph glyph-name="Iacute" unicode="&#xcd;" horiz-adv-x="367" 
d="M38 0v42h13q23 0 41.5 5t29.5 20.5t11 46.5v486q0 32 -11 47t-29.5 20t-41.5 5h-13v42h291v-42h-13q-22 0 -41 -5t-30 -20t-11 -47v-486q0 -31 11 -46.5t30 -20.5t41 -5h13v-42h-291zM132 784q15 19 31 45t31 53t25 49h107v-10q-9 -13 -27 -33t-40.5 -42t-45.5 -41.5
t-43 -33.5h-38v13z" />
    <glyph glyph-name="Icircumflex" unicode="&#xce;" horiz-adv-x="367" 
d="M38 0v42h13q23 0 41.5 5t29.5 20.5t11 46.5v486q0 32 -11 47t-29.5 20t-41.5 5h-13v42h291v-42h-13q-22 0 -41 -5t-30 -20t-11 -47v-486q0 -31 11 -46.5t30 -20.5t41 -5h13v-42h-291zM35 784q16 19 35 45t37 53t28 49h95q11 -22 28.5 -49t37 -53t34.5 -45v-13h-39
q-19 11 -38.5 26t-37.5 31.5t-33 32.5q-15 -16 -33 -32.5t-37 -31.5t-38 -26h-39v13z" />
    <glyph glyph-name="Idieresis" unicode="&#xcf;" horiz-adv-x="367" 
d="M38 0v42h13q23 0 41.5 5t29.5 20.5t11 46.5v486q0 32 -11 47t-29.5 20t-41.5 5h-13v42h291v-42h-13q-22 0 -41 -5t-30 -20t-11 -47v-486q0 -31 11 -46.5t30 -20.5t41 -5h13v-42h-291zM276 797q-22 0 -36.5 12.5t-14.5 43.5q0 32 14.5 44t36.5 12q21 0 36 -12t15 -44
q0 -31 -15 -43.5t-36 -12.5zM86 797q-22 0 -36.5 12.5t-14.5 43.5q0 32 14.5 44t36.5 12q21 0 36 -12t15 -44q0 -31 -15 -43.5t-36 -12.5z" />
    <glyph glyph-name="Eth" unicode="&#xd0;" horiz-adv-x="727" 
d="M38 0v42h13q23 0 41.5 5t29.5 20.5t11 46.5v235h-95v49h95v206q0 30 -11.5 44.5t-30 19t-40.5 4.5h-13v42h306q103 0 176 -41.5t111.5 -121t38.5 -193.5q0 -109 -36.5 -189.5t-108.5 -124.5t-181 -44h-306zM321 51q80 0 132.5 35.5t79 104t26.5 167.5t-26.5 167
t-79 103.5t-131.5 35.5h-88v-266h170v-49h-170v-298h87z" />
    <glyph glyph-name="Ntilde" unicode="&#xd1;" horiz-adv-x="763" 
d="M38 0v42h13q23 0 41.5 5t29.5 20.5t11 46.5v490q0 30 -11.5 44.5t-30 19t-40.5 4.5h-13v42h183l358 -553v443q0 30 -11.5 44.5t-30 19t-40.5 4.5h-13v42h251v-42h-13q-22 0 -41 -5t-30 -20t-11 -47v-600h-71l-375 576v-462q0 -31 11 -46.5t30 -20.5t41 -5h13v-42h-251z
M467 771q-27 0 -49 9.5t-40.5 22t-35 22t-32.5 9.5q-30 0 -38 -16.5t-11 -36.5h-45q2 31 13.5 57.5t34 43.5t58.5 17q27 0 48.5 -9.5t40 -22t35 -22t32.5 -9.5q29 0 37.5 16.5t11.5 36.5h45q-2 -30 -13.5 -57t-33.5 -44t-58 -17z" />
    <glyph glyph-name="Ograve" unicode="&#xd2;" horiz-adv-x="742" 
d="M371 -10q-106 0 -176 46t-104.5 129t-34.5 194t34.5 193t105 127.5t176.5 45.5q101 0 170.5 -45.5t106 -128t36.5 -193.5t-36.5 -193.5t-106.5 -128.5t-171 -46zM371 44q75 0 119.5 37.5t64 107.5t19.5 169t-19.5 169t-64 107t-118.5 37q-112 0 -158.5 -82t-46.5 -231
q0 -99 20 -169t65 -107.5t119 -37.5zM382 771q-20 14 -43 33.5t-45.5 41.5t-40.5 42t-27 33v10h107q11 -22 25.5 -49t31 -53t30.5 -45v-13h-38z" />
    <glyph glyph-name="Oacute" unicode="&#xd3;" horiz-adv-x="742" 
d="M371 -10q-106 0 -176 46t-104.5 129t-34.5 194t34.5 193t105 127.5t176.5 45.5q101 0 170.5 -45.5t106 -128t36.5 -193.5t-36.5 -193.5t-106.5 -128.5t-171 -46zM371 44q75 0 119.5 37.5t64 107.5t19.5 169t-19.5 169t-64 107t-118.5 37q-112 0 -158.5 -82t-46.5 -231
q0 -99 20 -169t65 -107.5t119 -37.5zM317 784q15 19 31 45t31 53t25 49h107v-10q-9 -13 -27 -33t-40.5 -42t-45.5 -41.5t-43 -33.5h-38v13z" />
    <glyph glyph-name="Ocircumflex" unicode="&#xd4;" horiz-adv-x="742" 
d="M371 -10q-106 0 -176 46t-104.5 129t-34.5 194t34.5 193t105 127.5t176.5 45.5q101 0 170.5 -45.5t106 -128t36.5 -193.5t-36.5 -193.5t-106.5 -128.5t-171 -46zM371 44q75 0 119.5 37.5t64 107.5t19.5 169t-19.5 169t-64 107t-118.5 37q-112 0 -158.5 -82t-46.5 -231
q0 -99 20 -169t65 -107.5t119 -37.5zM224 784q16 19 35 45t37 53t28 49h95q11 -22 28.5 -49t37 -53t34.5 -45v-13h-39q-19 11 -38.5 26t-37.5 31.5t-33 32.5q-15 -16 -33 -32.5t-37 -31.5t-38 -26h-39v13z" />
    <glyph glyph-name="Otilde" unicode="&#xd5;" horiz-adv-x="742" 
d="M371 -10q-106 0 -176 46t-104.5 129t-34.5 194t34.5 193t105 127.5t176.5 45.5q101 0 170.5 -45.5t106 -128t36.5 -193.5t-36.5 -193.5t-106.5 -128.5t-171 -46zM371 44q75 0 119.5 37.5t64 107.5t19.5 169t-19.5 169t-64 107t-118.5 37q-112 0 -158.5 -82t-46.5 -231
q0 -99 20 -169t65 -107.5t119 -37.5zM437 771q-27 0 -49 9.5t-40.5 22t-35 22t-32.5 9.5q-30 0 -38 -16.5t-11 -36.5h-45q2 31 13.5 57.5t34 43.5t58.5 17q27 0 48.5 -9.5t40 -22t35 -22t32.5 -9.5q29 0 37.5 16.5t11.5 36.5h45q-2 -30 -13.5 -57t-33.5 -44t-58 -17z" />
    <glyph glyph-name="Odieresis" unicode="&#xd6;" horiz-adv-x="742" 
d="M371 -10q-106 0 -176 46t-104.5 129t-34.5 194t34.5 193t105 127.5t176.5 45.5q101 0 170.5 -45.5t106 -128t36.5 -193.5t-36.5 -193.5t-106.5 -128.5t-171 -46zM371 44q75 0 119.5 37.5t64 107.5t19.5 169t-19.5 169t-64 107t-118.5 37q-112 0 -158.5 -82t-46.5 -231
q0 -99 20 -169t65 -107.5t119 -37.5zM463 797q-22 0 -36.5 12.5t-14.5 43.5q0 32 14.5 44t36.5 12q21 0 36 -12t15 -44q0 -31 -15 -43.5t-36 -12.5zM273 797q-22 0 -36.5 12.5t-14.5 43.5q0 32 14.5 44t36.5 12q21 0 36 -12t15 -44q0 -31 -15 -43.5t-36 -12.5z" />
    <glyph glyph-name="multiply.sinh" unicode="&#xd7;" horiz-adv-x="559" 
d="M71 193l166 166l-166 165l42 42l166 -166l166 167l42 -43l-166 -166l166 -166l-42 -42l-166 166l-166 -166z" />
    <glyph glyph-name="Oslash" unicode="&#xd8;" horiz-adv-x="742" 
d="M173 52q-59 47 -88 126t-29 181q0 111 34.5 193t105 127.5t176.5 45.5q44 0 82.5 -9.5t70.5 -26.5l37 66h58l-52 -94q57 -47 87 -124.5t30 -178.5q0 -111 -36.5 -193.5t-106.5 -128.5t-171 -46q-45 0 -84 9t-71 25l-35 -64h-59zM371 44q75 0 119.5 37.5t64 107.5
t19.5 169q0 74 -11 132.5t-35 98.5l-279 -506q47 -39 122 -39zM493 631q-22 20 -52.5 30t-68.5 10q-112 0 -158.5 -82t-46.5 -231q0 -75 11 -133t36 -99z" />
    <glyph glyph-name="Ugrave" unicode="&#xd9;" horiz-adv-x="717" 
d="M362 -10q-79 0 -135.5 22.5t-86.5 72.5t-30 131v388q0 30 -11.5 44.5t-30 19t-40.5 4.5h-13v42h291v-42h-13q-22 0 -41 -5t-30 -20t-11 -47v-390q0 -87 47 -123.5t120 -36.5q58 0 95 20t55 55.5t18 80.5v398q0 30 -11.5 44.5t-30 19t-40.5 4.5h-13v42h251v-42h-13
q-22 0 -41 -5t-30 -20t-11 -47v-396q0 -66 -28 -114t-82.5 -74t-134.5 -26zM378 771q-20 14 -43 33.5t-45.5 41.5t-40.5 42t-27 33v10h107q11 -22 25.5 -49t31 -53t30.5 -45v-13h-38z" />
    <glyph glyph-name="Uacute" unicode="&#xda;" horiz-adv-x="717" 
d="M362 -10q-79 0 -135.5 22.5t-86.5 72.5t-30 131v388q0 30 -11.5 44.5t-30 19t-40.5 4.5h-13v42h291v-42h-13q-22 0 -41 -5t-30 -20t-11 -47v-390q0 -87 47 -123.5t120 -36.5q58 0 95 20t55 55.5t18 80.5v398q0 30 -11.5 44.5t-30 19t-40.5 4.5h-13v42h251v-42h-13
q-22 0 -41 -5t-30 -20t-11 -47v-396q0 -66 -28 -114t-82.5 -74t-134.5 -26zM317 784q15 19 31 45t31 53t25 49h107v-10q-9 -13 -27 -33t-40.5 -42t-45.5 -41.5t-43 -33.5h-38v13z" />
    <glyph glyph-name="Ucircumflex" unicode="&#xdb;" horiz-adv-x="717" 
d="M362 -10q-79 0 -135.5 22.5t-86.5 72.5t-30 131v388q0 30 -11.5 44.5t-30 19t-40.5 4.5h-13v42h291v-42h-13q-22 0 -41 -5t-30 -20t-11 -47v-390q0 -87 47 -123.5t120 -36.5q58 0 95 20t55 55.5t18 80.5v398q0 30 -11.5 44.5t-30 19t-40.5 4.5h-13v42h251v-42h-13
q-22 0 -41 -5t-30 -20t-11 -47v-396q0 -66 -28 -114t-82.5 -74t-134.5 -26zM230 784q16 19 35 45t37 53t28 49h95q11 -22 28.5 -49t37 -53t34.5 -45v-13h-39q-19 11 -38.5 26t-37.5 31.5t-33 32.5q-15 -16 -33 -32.5t-37 -31.5t-38 -26h-39v13z" />
    <glyph glyph-name="Udieresis" unicode="&#xdc;" horiz-adv-x="717" 
d="M362 -10q-79 0 -135.5 22.5t-86.5 72.5t-30 131v388q0 30 -11.5 44.5t-30 19t-40.5 4.5h-13v42h291v-42h-13q-22 0 -41 -5t-30 -20t-11 -47v-390q0 -87 47 -123.5t120 -36.5q58 0 95 20t55 55.5t18 80.5v398q0 30 -11.5 44.5t-30 19t-40.5 4.5h-13v42h251v-42h-13
q-22 0 -41 -5t-30 -20t-11 -47v-396q0 -66 -28 -114t-82.5 -74t-134.5 -26zM474 797q-22 0 -36.5 12.5t-14.5 43.5q0 32 14.5 44t36.5 12q21 0 36 -12t15 -44q0 -31 -15 -43.5t-36 -12.5zM284 797q-22 0 -36.5 12.5t-14.5 43.5q0 32 14.5 44t36.5 12q21 0 36 -12t15 -44
q0 -31 -15 -43.5t-36 -12.5z" />
    <glyph glyph-name="Yacute" unicode="&#xdd;" horiz-adv-x="625" 
d="M159 0v42h23q22 0 40.5 4.5t30 19t11.5 43.5v189l-185 321q-11 19 -20.5 30.5t-21.5 17t-29 5.5h-13v42h275v-42h-37q-27 0 -35.5 -9.5t-8.5 -22.5q0 -14 6 -28t12 -25l74 -134q17 -31 29.5 -61t20.5 -53q9 21 26 52l34 62l64 115q10 17 14 32.5t4 27.5q0 22 -15.5 33
t-44.5 11h-29v42h244v-42h-12q-14 0 -26.5 -7t-26 -24t-30.5 -47l-168 -296v-184q0 -31 11 -46.5t30 -20.5t41 -5h23v-42h-311zM277 784q15 19 31 45t31 53t25 49h107v-10q-9 -13 -27 -33t-40.5 -42t-45.5 -41.5t-43 -33.5h-38v13z" />
    <glyph glyph-name="Thorn" unicode="&#xde;" horiz-adv-x="604" 
d="M38 0v42h13q23 0 41.5 5t29.5 20.5t11 46.5v486q0 32 -11 47t-29.5 20t-41.5 5h-13v42h301v-42h-23q-22 0 -41 -5t-30 -20t-11 -47v-30h85q126 0 186 -50.5t60 -148.5q0 -59 -25.5 -108.5t-84.5 -79t-158 -29.5h-63v-40q0 -31 11 -46.5t30 -20.5t41 -5h23v-42h-301z
M287 201q61 0 98 15t54.5 51.5t17.5 99.5q0 84 -35 119.5t-120 35.5h-68v-321h53z" />
    <glyph glyph-name="germandbls" unicode="&#xdf;" horiz-adv-x="647" 
d="M434 -10q-46 0 -81.5 12t-55 35.5t-19.5 58.5q0 27 10 42t23.5 21t23.5 6q0 -35 9.5 -64t31 -46t57.5 -17q37 0 60.5 22.5t23.5 68.5q0 22 -7.5 40t-28 35.5t-61.5 36.5q-42 21 -70.5 42t-42.5 49.5t-14 70.5q0 41 17.5 71t54.5 47t93 17q0 63 -12.5 102.5t-40 58.5
t-72.5 19q-40 0 -67 -17t-40.5 -48t-13.5 -73v-580h-189v42h13q23 0 41.5 5t29.5 20.5t11 46.5v375h-81v47h81v30q0 74 28.5 117t77.5 61.5t110 18.5q83 0 130.5 -31.5t67.5 -92t20 -148.5h-73q-35 0 -58 -9t-34 -27t-11 -45q0 -20 9.5 -36t32 -30.5t62.5 -33.5
q50 -23 76.5 -49.5t36.5 -55.5t10 -59q0 -76 -45 -116t-124 -40z" />
    <glyph glyph-name="agrave" unicode="&#xe0;" horiz-adv-x="563" 
d="M205 -10q-44 0 -79.5 17.5t-55.5 53t-20 89.5q0 80 56.5 118t171.5 42l83 3v60q0 36 -6 63.5t-26 43.5t-61 16q-38 0 -58 -14t-26.5 -38.5t-6.5 -56.5q-42 0 -63.5 14.5t-21.5 48.5q0 35 24.5 56t65.5 30.5t90 9.5q92 0 137.5 -39t45.5 -134v-259q0 -28 6 -43.5t20 -22
t36 -6.5h3v-42h-135l-16 86h-8q-21 -28 -41 -49.5t-46.5 -34t-68.5 -12.5zM228 52q41 0 70.5 17t46 48.5t16.5 73.5v81l-64 -3q-57 -2 -89.5 -17t-46.5 -41.5t-14 -65.5q0 -31 9 -51.5t27 -31t45 -10.5zM287 606q-20 14 -43 33.5t-45.5 41.5t-40.5 42t-27 33v10h107
q11 -22 25.5 -49t31 -53t30.5 -45v-13h-38z" />
    <glyph glyph-name="aacute" unicode="&#xe1;" horiz-adv-x="563" 
d="M205 -10q-44 0 -79.5 17.5t-55.5 53t-20 89.5q0 80 56.5 118t171.5 42l83 3v60q0 36 -6 63.5t-26 43.5t-61 16q-38 0 -58 -14t-26.5 -38.5t-6.5 -56.5q-42 0 -63.5 14.5t-21.5 48.5q0 35 24.5 56t65.5 30.5t90 9.5q92 0 137.5 -39t45.5 -134v-259q0 -28 6 -43.5t20 -22
t36 -6.5h3v-42h-135l-16 86h-8q-21 -28 -41 -49.5t-46.5 -34t-68.5 -12.5zM228 52q41 0 70.5 17t46 48.5t16.5 73.5v81l-64 -3q-57 -2 -89.5 -17t-46.5 -41.5t-14 -65.5q0 -31 9 -51.5t27 -31t45 -10.5zM230 619q15 19 31 45t31 53t25 49h107v-10q-9 -13 -27 -33t-40.5 -42
t-45.5 -41.5t-43 -33.5h-38v13z" />
    <glyph glyph-name="acircumflex" unicode="&#xe2;" horiz-adv-x="563" 
d="M205 -10q-44 0 -79.5 17.5t-55.5 53t-20 89.5q0 80 56.5 118t171.5 42l83 3v60q0 36 -6 63.5t-26 43.5t-61 16q-38 0 -58 -14t-26.5 -38.5t-6.5 -56.5q-42 0 -63.5 14.5t-21.5 48.5q0 35 24.5 56t65.5 30.5t90 9.5q92 0 137.5 -39t45.5 -134v-259q0 -28 6 -43.5t20 -22
t36 -6.5h3v-42h-135l-16 86h-8q-21 -28 -41 -49.5t-46.5 -34t-68.5 -12.5zM228 52q41 0 70.5 17t46 48.5t16.5 73.5v81l-64 -3q-57 -2 -89.5 -17t-46.5 -41.5t-14 -65.5q0 -31 9 -51.5t27 -31t45 -10.5zM127 619q16 19 35 45t37 53t28 49h95q11 -22 28.5 -49t37 -53
t34.5 -45v-13h-39q-19 11 -38.5 26t-37.5 31.5t-33 32.5q-15 -16 -33 -32.5t-37 -31.5t-38 -26h-39v13z" />
    <glyph glyph-name="atilde" unicode="&#xe3;" horiz-adv-x="563" 
d="M205 -10q-44 0 -79.5 17.5t-55.5 53t-20 89.5q0 80 56.5 118t171.5 42l83 3v60q0 36 -6 63.5t-26 43.5t-61 16q-38 0 -58 -14t-26.5 -38.5t-6.5 -56.5q-42 0 -63.5 14.5t-21.5 48.5q0 35 24.5 56t65.5 30.5t90 9.5q92 0 137.5 -39t45.5 -134v-259q0 -28 6 -43.5t20 -22
t36 -6.5h3v-42h-135l-16 86h-8q-21 -28 -41 -49.5t-46.5 -34t-68.5 -12.5zM228 52q41 0 70.5 17t46 48.5t16.5 73.5v81l-64 -3q-57 -2 -89.5 -17t-46.5 -41.5t-14 -65.5q0 -31 9 -51.5t27 -31t45 -10.5zM351 606q-27 0 -49 9.5t-40.5 22t-35 22t-32.5 9.5q-30 0 -38 -16.5
t-11 -36.5h-45q2 31 13.5 57.5t34 43.5t58.5 17q27 0 48.5 -9.5t40 -22t35 -22t32.5 -9.5q29 0 37.5 16.5t11.5 36.5h45q-2 -30 -13.5 -57t-33.5 -44t-58 -17z" />
    <glyph glyph-name="adieresis" unicode="&#xe4;" horiz-adv-x="563" 
d="M205 -10q-44 0 -79.5 17.5t-55.5 53t-20 89.5q0 80 56.5 118t171.5 42l83 3v60q0 36 -6 63.5t-26 43.5t-61 16q-38 0 -58 -14t-26.5 -38.5t-6.5 -56.5q-42 0 -63.5 14.5t-21.5 48.5q0 35 24.5 56t65.5 30.5t90 9.5q92 0 137.5 -39t45.5 -134v-259q0 -28 6 -43.5t20 -22
t36 -6.5h3v-42h-135l-16 86h-8q-21 -28 -41 -49.5t-46.5 -34t-68.5 -12.5zM228 52q41 0 70.5 17t46 48.5t16.5 73.5v81l-64 -3q-57 -2 -89.5 -17t-46.5 -41.5t-14 -65.5q0 -31 9 -51.5t27 -31t45 -10.5zM366 632q-22 0 -36.5 12.5t-14.5 43.5q0 32 14.5 44t36.5 12
q21 0 36 -12t15 -44q0 -31 -15 -43.5t-36 -12.5zM176 632q-22 0 -36.5 12.5t-14.5 43.5q0 32 14.5 44t36.5 12q21 0 36 -12t15 -44q0 -31 -15 -43.5t-36 -12.5z" />
    <glyph glyph-name="aring" unicode="&#xe5;" horiz-adv-x="563" 
d="M205 -10q-44 0 -79.5 17.5t-55.5 53t-20 89.5q0 80 56.5 118t171.5 42l83 3v60q0 36 -6 63.5t-26 43.5t-61 16q-38 0 -58 -14t-26.5 -38.5t-6.5 -56.5q-42 0 -63.5 14.5t-21.5 48.5q0 35 24.5 56t65.5 30.5t90 9.5q92 0 137.5 -39t45.5 -134v-259q0 -28 6 -43.5t20 -22
t36 -6.5h3v-42h-135l-16 86h-8q-21 -28 -41 -49.5t-46.5 -34t-68.5 -12.5zM228 52q41 0 70.5 17t46 48.5t16.5 73.5v81l-64 -3q-57 -2 -89.5 -17t-46.5 -41.5t-14 -65.5q0 -31 9 -51.5t27 -31t45 -10.5zM280 596q-50 0 -85 28t-35 81t35 81t85 28t85 -28t35 -81t-35 -81
t-85 -28zM280 645q27 0 46.5 14t19.5 46t-19.5 46t-46.5 14t-46.5 -14t-19.5 -46t19.5 -46t46.5 -14z" />
    <glyph glyph-name="ae" unicode="&#xe6;" horiz-adv-x="841" 
d="M205 -10q-44 0 -79.5 17.5t-55.5 53t-20 89.5q0 80 56.5 118t171.5 42l83 3v60q0 36 -6 63.5t-26 43.5t-61 16q-38 0 -58 -14t-26.5 -38.5t-6.5 -56.5q-42 0 -63.5 14.5t-21.5 48.5q0 35 24.5 56t65.5 30.5t90 9.5q38 0 67.5 -6.5t52 -19.5t36.5 -35q28 30 67 45.5
t88 15.5q65 0 111.5 -27t71.5 -80t25 -132v-46h-333q2 -73 18.5 -119t50 -67.5t86.5 -21.5q44 0 81 20.5t56 49.5q7 -3 13 -12t6 -22q0 -20 -19 -43t-57.5 -39.5t-96.5 -16.5q-73 0 -124 29.5t-79 84.5q-12 -30 -37.5 -56t-63 -42t-87.5 -16zM228 52q41 0 70.5 17t46 48.5
t16.5 73.5v81l-64 -3q-57 -2 -89.5 -17t-46.5 -41.5t-14 -65.5q0 -31 9 -51.5t27 -31t45 -10.5zM690 315q0 80 -24.5 128.5t-84.5 48.5q-55 0 -85.5 -45.5t-35.5 -131.5h230z" />
    <glyph glyph-name="ccedilla" unicode="&#xe7;" horiz-adv-x="492" 
d="M283 -10q-66 0 -117.5 28t-81 88.5t-29.5 158.5q0 107 29.5 168.5t80 87t113.5 25.5q42 0 82 -11t66 -33.5t26 -57.5q0 -23 -10 -37t-29.5 -20t-49.5 -6q0 32 -7.5 58t-25.5 41.5t-52 15.5q-38 0 -66.5 -20t-44 -70t-15.5 -140q0 -71 15.5 -118t48.5 -70t87 -23
q31 0 57 9t45.5 25t30.5 36q8 -6 12.5 -15.5t4.5 -23.5q0 -23 -19 -45t-56.5 -36.5t-94.5 -14.5zM255 -240q-16 0 -37.5 3t-39.5 8v51q18 -4 36.5 -6t31.5 -2q29 0 45 15.5t16 40.5q0 29 -21.5 44t-53.5 17l21 78h47l-10 -43q33 -2 54.5 -14t32 -31.5t10.5 -46.5
q0 -53 -34 -83.5t-98 -30.5z" />
    <glyph glyph-name="egrave" unicode="&#xe8;" horiz-adv-x="535" 
d="M287 -10q-109 0 -170.5 72t-61.5 202q0 140 58 211t164 71q97 0 152.5 -60t55.5 -179v-46h-333q2 -109 39.5 -158.5t109.5 -49.5q52 0 88.5 21.5t54.5 48.5q7 -3 13 -12t6 -22q0 -20 -19 -43t-58 -39.5t-99 -16.5zM384 315q0 80 -24.5 128.5t-84.5 48.5
q-55 0 -85.5 -45.5t-35.5 -131.5h230zM295 606q-20 14 -43 33.5t-45.5 41.5t-40.5 42t-27 33v10h107q11 -22 25.5 -49t31 -53t30.5 -45v-13h-38z" />
    <glyph glyph-name="eacute" unicode="&#xe9;" horiz-adv-x="535" 
d="M287 -10q-109 0 -170.5 72t-61.5 202q0 140 58 211t164 71q97 0 152.5 -60t55.5 -179v-46h-333q2 -109 39.5 -158.5t109.5 -49.5q52 0 88.5 21.5t54.5 48.5q7 -3 13 -12t6 -22q0 -20 -19 -43t-58 -39.5t-99 -16.5zM384 315q0 80 -24.5 128.5t-84.5 48.5
q-55 0 -85.5 -45.5t-35.5 -131.5h230zM231 619q15 19 31 45t31 53t25 49h107v-10q-9 -13 -27 -33t-40.5 -42t-45.5 -41.5t-43 -33.5h-38v13z" />
    <glyph glyph-name="ecircumflex" unicode="&#xea;" horiz-adv-x="535" 
d="M287 -10q-109 0 -170.5 72t-61.5 202q0 140 58 211t164 71q97 0 152.5 -60t55.5 -179v-46h-333q2 -109 39.5 -158.5t109.5 -49.5q52 0 88.5 21.5t54.5 48.5q7 -3 13 -12t6 -22q0 -20 -19 -43t-58 -39.5t-99 -16.5zM384 315q0 80 -24.5 128.5t-84.5 48.5
q-55 0 -85.5 -45.5t-35.5 -131.5h230zM124 619q16 19 35 45t37 53t28 49h95q11 -22 28.5 -49t37 -53t34.5 -45v-13h-39q-19 11 -38.5 26t-37.5 31.5t-33 32.5q-15 -16 -33 -32.5t-37 -31.5t-38 -26h-39v13z" />
    <glyph glyph-name="edieresis" unicode="&#xeb;" horiz-adv-x="535" 
d="M287 -10q-109 0 -170.5 72t-61.5 202q0 140 58 211t164 71q97 0 152.5 -60t55.5 -179v-46h-333q2 -109 39.5 -158.5t109.5 -49.5q52 0 88.5 21.5t54.5 48.5q7 -3 13 -12t6 -22q0 -20 -19 -43t-58 -39.5t-99 -16.5zM384 315q0 80 -24.5 128.5t-84.5 48.5
q-55 0 -85.5 -45.5t-35.5 -131.5h230zM364 632q-22 0 -36.5 12.5t-14.5 43.5q0 32 14.5 44t36.5 12q21 0 36 -12t15 -44q0 -31 -15 -43.5t-36 -12.5zM174 632q-22 0 -36.5 12.5t-14.5 43.5q0 32 14.5 44t36.5 12q21 0 36 -12t15 -44q0 -31 -15 -43.5t-36 -12.5z" />
    <glyph glyph-name="igrave" unicode="&#xec;" horiz-adv-x="320" 
d="M23 0v42h13q22 0 40.5 4.5t30 19t11.5 43.5v317q0 30 -11.5 44.5t-30 19t-40.5 4.5h-3v42h179v-422q0 -31 11 -46.5t30 -20.5t41 -5h13v-42h-284zM174 606q-20 14 -43 33.5t-45.5 41.5t-40.5 42t-27 33v10h107q11 -22 25.5 -49t31 -53t30.5 -45v-13h-38z" />
    <glyph glyph-name="iacute" unicode="&#xed;" horiz-adv-x="320" 
d="M23 0v42h13q22 0 40.5 4.5t30 19t11.5 43.5v317q0 30 -11.5 44.5t-30 19t-40.5 4.5h-3v42h179v-422q0 -31 11 -46.5t30 -20.5t41 -5h13v-42h-284zM117 619q15 19 31 45t31 53t25 49h107v-10q-9 -13 -27 -33t-40.5 -42t-45.5 -41.5t-43 -33.5h-38v13z" />
    <glyph glyph-name="icircumflex" unicode="&#xee;" horiz-adv-x="320" 
d="M23 0v42h13q22 0 40.5 4.5t30 19t11.5 43.5v317q0 30 -11.5 44.5t-30 19t-40.5 4.5h-3v42h179v-422q0 -31 11 -46.5t30 -20.5t41 -5h13v-42h-284zM10 619q16 19 35 45t37 53t28 49h95q11 -22 28.5 -49t37 -53t34.5 -45v-13h-39q-19 11 -38.5 26t-37.5 31.5t-33 32.5
q-15 -16 -33 -32.5t-37 -31.5t-38 -26h-39v13z" />
    <glyph glyph-name="idieresis" unicode="&#xef;" horiz-adv-x="320" 
d="M23 0v42h13q22 0 40.5 4.5t30 19t11.5 43.5v317q0 30 -11.5 44.5t-30 19t-40.5 4.5h-3v42h179v-422q0 -31 11 -46.5t30 -20.5t41 -5h13v-42h-284zM249 632q-22 0 -36.5 12.5t-14.5 43.5q0 32 14.5 44t36.5 12q21 0 36 -12t15 -44q0 -31 -15 -43.5t-36 -12.5zM59 632
q-22 0 -36.5 12.5t-14.5 43.5q0 32 14.5 44t36.5 12q21 0 36 -12t15 -44q0 -31 -15 -43.5t-36 -12.5z" />
    <glyph glyph-name="eth" unicode="&#xf0;" horiz-adv-x="577" 
d="M287 -10q-72 0 -124 28.5t-80 86t-28 144.5q0 130 59.5 193.5t175.5 63.5q22 0 42 -3t38.5 -9t34.5 -14q-10 33 -36.5 70t-64.5 70l-125 -71v56l84 48q-25 17 -53 30.5t-60 23.5v54q46 -11 90 -29.5t83 -44.5l129 75v-57l-88 -50q71 -58 114.5 -151t43.5 -213
q0 -101 -26.5 -168t-79 -100t-129.5 -33zM289 42q75 0 105.5 52.5t30.5 154.5q0 68 -13.5 113.5t-43.5 68t-80 22.5t-80 -22.5t-43 -68t-13 -113.5q0 -102 31 -154.5t106 -52.5z" />
    <glyph glyph-name="ntilde" unicode="&#xf1;" horiz-adv-x="645" 
d="M28 0v42h8q23 0 41.5 5t29.5 20.5t11 46.5v312q0 30 -11 44.5t-29 19t-40 4.5h-5v42h162l13 -81h5q31 56 69.5 73.5t86.5 17.5q79 0 123.5 -46.5t44.5 -149.5v-236q0 -31 9.5 -46.5t26.5 -20.5t39 -5h5v-42h-174v345q0 65 -24.5 101t-85.5 36q-45 0 -71.5 -22.5
t-38 -59.5t-11.5 -80v-211q0 -29 11 -43.5t29 -19t40 -4.5h5v-42h-269zM400 606q-27 0 -49 9.5t-40.5 22t-35 22t-32.5 9.5q-30 0 -38 -16.5t-11 -36.5h-45q2 31 13.5 57.5t34 43.5t58.5 17q27 0 48.5 -9.5t40 -22t35 -22t32.5 -9.5q29 0 37.5 16.5t11.5 36.5h45
q-2 -30 -13.5 -57t-33.5 -44t-58 -17z" />
    <glyph glyph-name="ograve" unicode="&#xf2;" horiz-adv-x="577" 
d="M287 -10q-108 0 -170 69t-62 210q0 140 59.5 208.5t175.5 68.5q108 0 170 -68.5t62 -208.5q0 -141 -59.5 -210t-175.5 -69zM289 42q50 0 80 25.5t43 76.5t13 125q0 112 -31 168t-106 56t-105.5 -56t-30.5 -168t31 -169.5t106 -57.5zM301 606q-20 14 -43 33.5t-45.5 41.5
t-40.5 42t-27 33v10h107q11 -22 25.5 -49t31 -53t30.5 -45v-13h-38z" />
    <glyph glyph-name="oacute" unicode="&#xf3;" horiz-adv-x="577" 
d="M287 -10q-108 0 -170 69t-62 210q0 140 59.5 208.5t175.5 68.5q108 0 170 -68.5t62 -208.5q0 -141 -59.5 -210t-175.5 -69zM289 42q50 0 80 25.5t43 76.5t13 125q0 112 -31 168t-106 56t-105.5 -56t-30.5 -168t31 -169.5t106 -57.5zM250 619q15 19 31 45t31 53t25 49h107
v-10q-9 -13 -27 -33t-40.5 -42t-45.5 -41.5t-43 -33.5h-38v13z" />
    <glyph glyph-name="ocircumflex" unicode="&#xf4;" horiz-adv-x="577" 
d="M287 -10q-108 0 -170 69t-62 210q0 140 59.5 208.5t175.5 68.5q108 0 170 -68.5t62 -208.5q0 -141 -59.5 -210t-175.5 -69zM289 42q50 0 80 25.5t43 76.5t13 125q0 112 -31 168t-106 56t-105.5 -56t-30.5 -168t31 -169.5t106 -57.5zM138 619q16 19 35 45t37 53t28 49h95
q11 -22 28.5 -49t37 -53t34.5 -45v-13h-39q-19 11 -38.5 26t-37.5 31.5t-33 32.5q-15 -16 -33 -32.5t-37 -31.5t-38 -26h-39v13z" />
    <glyph glyph-name="otilde" unicode="&#xf5;" horiz-adv-x="577" 
d="M287 -10q-108 0 -170 69t-62 210q0 140 59.5 208.5t175.5 68.5q108 0 170 -68.5t62 -208.5q0 -141 -59.5 -210t-175.5 -69zM289 42q50 0 80 25.5t43 76.5t13 125q0 112 -31 168t-106 56t-105.5 -56t-30.5 -168t31 -169.5t106 -57.5zM358 606q-27 0 -49 9.5t-40.5 22
t-35 22t-32.5 9.5q-30 0 -38 -16.5t-11 -36.5h-45q2 31 13.5 57.5t34 43.5t58.5 17q27 0 48.5 -9.5t40 -22t35 -22t32.5 -9.5q29 0 37.5 16.5t11.5 36.5h45q-2 -30 -13.5 -57t-33.5 -44t-58 -17z" />
    <glyph glyph-name="odieresis" unicode="&#xf6;" horiz-adv-x="577" 
d="M287 -10q-108 0 -170 69t-62 210q0 140 59.5 208.5t175.5 68.5q108 0 170 -68.5t62 -208.5q0 -141 -59.5 -210t-175.5 -69zM289 42q50 0 80 25.5t43 76.5t13 125q0 112 -31 168t-106 56t-105.5 -56t-30.5 -168t31 -169.5t106 -57.5zM379 632q-22 0 -36.5 12.5t-14.5 43.5
q0 32 14.5 44t36.5 12q21 0 36 -12t15 -44q0 -31 -15 -43.5t-36 -12.5zM189 632q-22 0 -36.5 12.5t-14.5 43.5q0 32 14.5 44t36.5 12q21 0 36 -12t15 -44q0 -31 -15 -43.5t-36 -12.5z" />
    <glyph glyph-name="divide.sinh" unicode="&#xf7;" horiz-adv-x="559" 
d="M65 387h429v-59h-429v59zM280 113q-22 0 -36.5 12t-14.5 43q0 32 14.5 43.5t36.5 11.5q21 0 36 -11.5t15 -43.5q0 -31 -15 -43t-36 -12zM280 492q-22 0 -36.5 12t-14.5 43q0 32 14.5 43.5t36.5 11.5q21 0 36 -11.5t15 -43.5q0 -31 -15 -43t-36 -12z" />
    <glyph glyph-name="oslash" unicode="&#xf8;" horiz-adv-x="577" 
d="M126 48q-34 35 -52.5 90t-18.5 131q0 140 59.5 208.5t175.5 68.5q71 0 124 -31l38 61h58l-56 -92q33 -34 50.5 -87.5t17.5 -127.5q0 -141 -59.5 -210t-175.5 -69q-34 0 -64.5 7t-55.5 21l-36 -58h-59zM289 42q50 0 80 25.5t43 76.5t13 125q0 43 -4.5 78t-13.5 61
l-206 -334q16 -16 38 -24t50 -8zM379 457q-16 18 -39 27t-52 9q-75 0 -105.5 -56t-30.5 -168q0 -46 5 -82.5t15 -64.5z" />
    <glyph glyph-name="ugrave" unicode="&#xf9;" horiz-adv-x="635" 
d="M273 -10q-79 0 -122 46.5t-43 149.5v240q0 30 -11.5 44.5t-30 19t-40.5 4.5h-3v42h179v-345q0 -43 9.5 -74t32.5 -47t63 -16q44 0 72 20.5t41 57t13 84.5v206q0 32 -11 47t-29.5 20t-41.5 5h-3v42h179v-427q0 -29 11.5 -43.5t30 -19t40.5 -4.5h3v-42h-159l-13 81h-5
q-31 -56 -72 -73.5t-90 -17.5zM309 606q-20 14 -43 33.5t-45.5 41.5t-40.5 42t-27 33v10h107q11 -22 25.5 -49t31 -53t30.5 -45v-13h-38z" />
    <glyph glyph-name="uacute" unicode="&#xfa;" horiz-adv-x="635" 
d="M273 -10q-79 0 -122 46.5t-43 149.5v240q0 30 -11.5 44.5t-30 19t-40.5 4.5h-3v42h179v-345q0 -43 9.5 -74t32.5 -47t63 -16q44 0 72 20.5t41 57t13 84.5v206q0 32 -11 47t-29.5 20t-41.5 5h-3v42h179v-427q0 -29 11.5 -43.5t30 -19t40.5 -4.5h3v-42h-159l-13 81h-5
q-31 -56 -72 -73.5t-90 -17.5zM264 619q15 19 31 45t31 53t25 49h107v-10q-9 -13 -27 -33t-40.5 -42t-45.5 -41.5t-43 -33.5h-38v13z" />
    <glyph glyph-name="ucircumflex" unicode="&#xfb;" horiz-adv-x="635" 
d="M273 -10q-79 0 -122 46.5t-43 149.5v240q0 30 -11.5 44.5t-30 19t-40.5 4.5h-3v42h179v-345q0 -43 9.5 -74t32.5 -47t63 -16q44 0 72 20.5t41 57t13 84.5v206q0 32 -11 47t-29.5 20t-41.5 5h-3v42h179v-427q0 -29 11.5 -43.5t30 -19t40.5 -4.5h3v-42h-159l-13 81h-5
q-31 -56 -72 -73.5t-90 -17.5zM167 619q16 19 35 45t37 53t28 49h95q11 -22 28.5 -49t37 -53t34.5 -45v-13h-39q-19 11 -38.5 26t-37.5 31.5t-33 32.5q-15 -16 -33 -32.5t-37 -31.5t-38 -26h-39v13z" />
    <glyph glyph-name="udieresis" unicode="&#xfc;" horiz-adv-x="635" 
d="M273 -10q-79 0 -122 46.5t-43 149.5v240q0 30 -11.5 44.5t-30 19t-40.5 4.5h-3v42h179v-345q0 -43 9.5 -74t32.5 -47t63 -16q44 0 72 20.5t41 57t13 84.5v206q0 32 -11 47t-29.5 20t-41.5 5h-3v42h179v-427q0 -29 11.5 -43.5t30 -19t40.5 -4.5h3v-42h-159l-13 81h-5
q-31 -56 -72 -73.5t-90 -17.5zM411 632q-22 0 -36.5 12.5t-14.5 43.5q0 32 14.5 44t36.5 12q21 0 36 -12t15 -44q0 -31 -15 -43.5t-36 -12.5zM221 632q-22 0 -36.5 12.5t-14.5 43.5q0 32 14.5 44t36.5 12q21 0 36 -12t15 -44q0 -31 -15 -43.5t-36 -12.5z" />
    <glyph glyph-name="yacute" unicode="&#xfd;" horiz-adv-x="565" 
d="M38 -193q51 0 88 15t63 41.5t44 62.5t30 78l-185 437q-9 21 -18 32.5t-21 16t-32 4.5h-3v42h240v-42h-3q-30 0 -45 -11.5t-15 -36.5q0 -8 2 -17t6 -20l73 -178q10 -23 19.5 -50.5t17.5 -52.5t11 -42q7 29 18.5 60t21.5 61l67 195q5 12 7 23.5t2 19.5q0 26 -16.5 37.5
t-49.5 11.5h-3v42h208v-42h-3q-19 0 -32 -6t-22.5 -23t-21.5 -49l-152 -420q-26 -73 -50 -119t-53.5 -71.5t-73.5 -35.5t-110 -10h-9v47zM246 619q15 19 31 45t31 53t25 49h107v-10q-9 -13 -27 -33t-40.5 -42t-45.5 -41.5t-43 -33.5h-38v13z" />
    <glyph glyph-name="thorn" unicode="&#xfe;" horiz-adv-x="614" 
d="M18 -240v42h8q23 0 41.5 5t29.5 20.5t11 46.5v776q0 30 -11.5 44.5t-30 19t-40.5 4.5h-8v42h184v-184q0 -22 -1 -53t-2 -54l-1 -23h4q23 46 59 73t94 27q99 0 151.5 -66.5t52.5 -210.5q0 -145 -52.5 -212t-151.5 -67q-58 0 -94.5 24.5t-58.5 63.5h-4l0.5 -14t1.5 -34
t1.5 -38.5t0.5 -26.5v-96q0 -29 11.5 -43.5t30 -19t40.5 -4.5h3v-42h-269zM339 54q66 0 94.5 55.5t28.5 160.5q0 107 -28.5 159.5t-95.5 52.5q-52 0 -81.5 -23t-42 -70.5t-12.5 -119.5q0 -69 12.5 -117t42.5 -73t82 -25z" />
    <glyph glyph-name="ydieresis" unicode="&#xff;" horiz-adv-x="565" 
d="M38 -193q51 0 88 15t63 41.5t44 62.5t30 78l-185 437q-9 21 -18 32.5t-21 16t-32 4.5h-3v42h240v-42h-3q-30 0 -45 -11.5t-15 -36.5q0 -8 2 -17t6 -20l73 -178q10 -23 19.5 -50.5t17.5 -52.5t11 -42q7 29 18.5 60t21.5 61l67 195q5 12 7 23.5t2 19.5q0 26 -16.5 37.5
t-49.5 11.5h-3v42h208v-42h-3q-19 0 -32 -6t-22.5 -23t-21.5 -49l-152 -420q-26 -73 -50 -119t-53.5 -71.5t-73.5 -35.5t-110 -10h-9v47zM394 632q-22 0 -36.5 12.5t-14.5 43.5q0 32 14.5 44t36.5 12q21 0 36 -12t15 -44q0 -31 -15 -43.5t-36 -12.5zM204 632
q-22 0 -36.5 12.5t-14.5 43.5q0 32 14.5 44t36.5 12q21 0 36 -12t15 -44q0 -31 -15 -43.5t-36 -12.5z" />
    <glyph glyph-name="Amacron" unicode="&#x100;" horiz-adv-x="705" 
d="M0 0v42h19q20 0 32 6t22 23t22 49l222 594h78l226 -619q8 -21 17 -32.5t22 -16t32 -4.5h13v-42h-275v42h23q30 0 45 11.5t15 36.5q0 6 -1 11.5t-2.5 12t-4.5 13.5l-40 112h-263l-38 -105q-3 -8 -5 -16t-3 -14.5t-1 -12.5q0 -25 16.5 -37t49.5 -12h23v-42h-244zM221 289
h226l-62 175q-10 30 -19.5 57t-17 52t-13.5 49q-5 -24 -11.5 -46.5t-14.5 -47t-20 -55.5zM205 781v59h290v-59h-290z" />
    <glyph glyph-name="amacron" unicode="&#x101;" horiz-adv-x="563" 
d="M205 -10q-44 0 -79.5 17.5t-55.5 53t-20 89.5q0 80 56.5 118t171.5 42l83 3v60q0 36 -6 63.5t-26 43.5t-61 16q-38 0 -58 -14t-26.5 -38.5t-6.5 -56.5q-42 0 -63.5 14.5t-21.5 48.5q0 35 24.5 56t65.5 30.5t90 9.5q92 0 137.5 -39t45.5 -134v-259q0 -28 6 -43.5t20 -22
t36 -6.5h3v-42h-135l-16 86h-8q-21 -28 -41 -49.5t-46.5 -34t-68.5 -12.5zM228 52q41 0 70.5 17t46 48.5t16.5 73.5v81l-64 -3q-57 -2 -89.5 -17t-46.5 -41.5t-14 -65.5q0 -31 9 -51.5t27 -31t45 -10.5zM126 616v59h290v-59h-290z" />
    <glyph glyph-name="Abreve" unicode="&#x102;" horiz-adv-x="705" 
d="M0 0v42h19q20 0 32 6t22 23t22 49l222 594h78l226 -619q8 -21 17 -32.5t22 -16t32 -4.5h13v-42h-275v42h23q30 0 45 11.5t15 36.5q0 6 -1 11.5t-2.5 12t-4.5 13.5l-40 112h-263l-38 -105q-3 -8 -5 -16t-3 -14.5t-1 -12.5q0 -25 16.5 -37t49.5 -12h23v-42h-244zM221 289
h226l-62 175q-10 30 -19.5 57t-17 52t-13.5 49q-5 -24 -11.5 -46.5t-14.5 -47t-20 -55.5zM350 771q-47 0 -78 18.5t-46 50t-16 68.5h46q8 -36 32.5 -52t61.5 -16t61.5 16t32.5 52h46q-1 -37 -16 -68.5t-45.5 -50t-78.5 -18.5z" />
    <glyph glyph-name="abreve" unicode="&#x103;" horiz-adv-x="563" 
d="M205 -10q-44 0 -79.5 17.5t-55.5 53t-20 89.5q0 80 56.5 118t171.5 42l83 3v60q0 36 -6 63.5t-26 43.5t-61 16q-38 0 -58 -14t-26.5 -38.5t-6.5 -56.5q-42 0 -63.5 14.5t-21.5 48.5q0 35 24.5 56t65.5 30.5t90 9.5q92 0 137.5 -39t45.5 -134v-259q0 -28 6 -43.5t20 -22
t36 -6.5h3v-42h-135l-16 86h-8q-21 -28 -41 -49.5t-46.5 -34t-68.5 -12.5zM228 52q41 0 70.5 17t46 48.5t16.5 73.5v81l-64 -3q-57 -2 -89.5 -17t-46.5 -41.5t-14 -65.5q0 -31 9 -51.5t27 -31t45 -10.5zM275 606q-47 0 -78 18.5t-46 50t-16 68.5h46q8 -36 32.5 -52t61.5 -16
t61.5 16t32.5 52h46q-1 -37 -16 -68.5t-45.5 -50t-78.5 -18.5z" />
    <glyph glyph-name="Aogonek" unicode="&#x104;" horiz-adv-x="705" 
d="M0 0v42h19q20 0 32 6t22 23t22 49l222 594h78l226 -619q8 -21 17 -32.5t22 -16t32 -4.5h13v-42h-275v42h23q30 0 45 11.5t15 36.5q0 6 -1 11.5t-2.5 12t-4.5 13.5l-40 112h-263l-38 -105q-3 -8 -5 -16t-3 -14.5t-1 -12.5q0 -25 16.5 -37t49.5 -12h23v-42h-244zM221 289
h226l-62 175q-10 30 -19.5 57t-17 52t-13.5 49q-5 -24 -11.5 -46.5t-14.5 -47t-20 -55.5zM601 -240q-64 0 -100.5 26.5t-36.5 83.5q0 31 17 58t44 46t57 26h57q-21 -6 -42.5 -21.5t-36 -38.5t-14.5 -55q0 -33 19.5 -48t49.5 -15q14 0 29.5 2t33.5 6v-54q-10 -5 -24 -8.5
t-28 -5.5t-25 -2z" />
    <glyph glyph-name="aogonek" unicode="&#x105;" horiz-adv-x="563" 
d="M205 -10q-44 0 -79.5 17.5t-55.5 53t-20 89.5q0 80 56.5 118t171.5 42l83 3v60q0 36 -6 63.5t-26 43.5t-61 16q-38 0 -58 -14t-26.5 -38.5t-6.5 -56.5q-42 0 -63.5 14.5t-21.5 48.5q0 35 24.5 56t65.5 30.5t90 9.5q92 0 137.5 -39t45.5 -134v-259q0 -28 6 -43.5t20 -22
t36 -6.5h3v-42h-135l-16 86h-8q-21 -28 -41 -49.5t-46.5 -34t-68.5 -12.5zM228 52q41 0 70.5 17t46 48.5t16.5 73.5v81l-64 -3q-57 -2 -89.5 -17t-46.5 -41.5t-14 -65.5q0 -31 9 -51.5t27 -31t45 -10.5zM404 -240q-64 0 -100.5 26.5t-36.5 83.5q0 31 17 58t44 46t57 26h57
q-21 -6 -42.5 -21.5t-36 -38.5t-14.5 -55q0 -33 19.5 -48t49.5 -15q14 0 29.5 2t33.5 6v-54q-10 -5 -24 -8.5t-28 -5.5t-25 -2z" />
    <glyph glyph-name="Cacute" unicode="&#x106;" horiz-adv-x="614" 
d="M361 -10q-99 0 -167 46t-102.5 128.5t-34.5 193.5q0 108 36.5 190.5t108 129t176.5 46.5q68 0 113 -14.5t67 -40t22 -57.5t-25 -51t-62 -19q0 31 -11 60.5t-36.5 49t-69.5 19.5q-75 0 -121 -36.5t-66.5 -106.5t-20.5 -170q0 -89 21.5 -157.5t67.5 -106.5t119 -38
q49 0 83 12t57.5 31.5t40.5 41.5q8 -5 13.5 -14.5t5.5 -24.5q0 -19 -13 -38.5t-39 -36t-66.5 -27t-96.5 -10.5zM321 784q15 19 31 45t31 53t25 49h107v-10q-9 -13 -27 -33t-40.5 -42t-45.5 -41.5t-43 -33.5h-38v13z" />
    <glyph glyph-name="cacute" unicode="&#x107;" horiz-adv-x="492" 
d="M283 -10q-66 0 -117.5 28t-81 88.5t-29.5 158.5q0 107 29.5 168.5t80 87t113.5 25.5q42 0 82 -11t66 -33.5t26 -57.5q0 -23 -10 -37t-29.5 -20t-49.5 -6q0 32 -7.5 58t-25.5 41.5t-52 15.5q-38 0 -66.5 -20t-44 -70t-15.5 -140q0 -71 15.5 -118t48.5 -70t87 -23
q31 0 57 9t45.5 25t30.5 36q8 -6 12.5 -15.5t4.5 -23.5q0 -23 -19 -45t-56.5 -36.5t-94.5 -14.5zM227 619q15 19 31 45t31 53t25 49h107v-10q-9 -13 -27 -33t-40.5 -42t-45.5 -41.5t-43 -33.5h-38v13z" />
    <glyph glyph-name="Cdotaccent" unicode="&#x10a;" horiz-adv-x="614" 
d="M361 -10q-99 0 -167 46t-102.5 128.5t-34.5 193.5q0 108 36.5 190.5t108 129t176.5 46.5q68 0 113 -14.5t67 -40t22 -57.5t-25 -51t-62 -19q0 31 -11 60.5t-36.5 49t-69.5 19.5q-75 0 -121 -36.5t-66.5 -106.5t-20.5 -170q0 -89 21.5 -157.5t67.5 -106.5t119 -38
q49 0 83 12t57.5 31.5t40.5 41.5q8 -5 13.5 -14.5t5.5 -24.5q0 -19 -13 -38.5t-39 -36t-66.5 -27t-96.5 -10.5zM375 801q-24 0 -40.5 14t-16.5 48q0 35 16.5 48.5t40.5 13.5q23 0 40 -13.5t17 -48.5q0 -34 -17 -48t-40 -14z" />
    <glyph glyph-name="cdotaccent" unicode="&#x10b;" horiz-adv-x="492" 
d="M283 -10q-66 0 -117.5 28t-81 88.5t-29.5 158.5q0 107 29.5 168.5t80 87t113.5 25.5q42 0 82 -11t66 -33.5t26 -57.5q0 -23 -10 -37t-29.5 -20t-49.5 -6q0 32 -7.5 58t-25.5 41.5t-52 15.5q-38 0 -66.5 -20t-44 -70t-15.5 -140q0 -71 15.5 -118t48.5 -70t87 -23
q31 0 57 9t45.5 25t30.5 36q8 -6 12.5 -15.5t4.5 -23.5q0 -23 -19 -45t-56.5 -36.5t-94.5 -14.5zM283 636q-24 0 -40.5 14t-16.5 48q0 35 16.5 48.5t40.5 13.5q23 0 40 -13.5t17 -48.5q0 -34 -17 -48t-40 -14z" />
    <glyph glyph-name="Ccaron" unicode="&#x10c;" horiz-adv-x="614" 
d="M361 -10q-99 0 -167 46t-102.5 128.5t-34.5 193.5q0 108 36.5 190.5t108 129t176.5 46.5q68 0 113 -14.5t67 -40t22 -57.5t-25 -51t-62 -19q0 31 -11 60.5t-36.5 49t-69.5 19.5q-75 0 -121 -36.5t-66.5 -106.5t-20.5 -170q0 -89 21.5 -157.5t67.5 -106.5t119 -38
q49 0 83 12t57.5 31.5t40.5 41.5q8 -5 13.5 -14.5t5.5 -24.5q0 -19 -13 -38.5t-39 -36t-66.5 -27t-96.5 -10.5zM313 771q-10 23 -28 49.5t-37 52.5t-35 45v13h39q19 -11 38 -26.5t37 -32t33 -32.5q15 16 33 32.5t37.5 32t38.5 26.5h39v-13q-15 -19 -34.5 -45t-37 -52.5
t-28.5 -49.5h-95z" />
    <glyph glyph-name="ccaron" unicode="&#x10d;" horiz-adv-x="492" 
d="M283 -10q-66 0 -117.5 28t-81 88.5t-29.5 158.5q0 107 29.5 168.5t80 87t113.5 25.5q42 0 82 -11t66 -33.5t26 -57.5q0 -23 -10 -37t-29.5 -20t-49.5 -6q0 32 -7.5 58t-25.5 41.5t-52 15.5q-38 0 -66.5 -20t-44 -70t-15.5 -140q0 -71 15.5 -118t48.5 -70t87 -23
q31 0 57 9t45.5 25t30.5 36q8 -6 12.5 -15.5t4.5 -23.5q0 -23 -19 -45t-56.5 -36.5t-94.5 -14.5zM233 606q-10 23 -28 49.5t-37 52.5t-35 45v13h39q19 -11 38 -26.5t37 -32t33 -32.5q15 16 33 32.5t37.5 32t38.5 26.5h39v-13q-15 -19 -34.5 -45t-37 -52.5t-28.5 -49.5h-95z
" />
    <glyph glyph-name="Dcaron" unicode="&#x10e;" horiz-adv-x="727" 
d="M38 0v42h13q23 0 41.5 5t29.5 20.5t11 46.5v490q0 30 -11.5 44.5t-30 19t-40.5 4.5h-13v42h306q103 0 176 -41.5t111.5 -121t38.5 -193.5q0 -109 -36.5 -189.5t-108.5 -124.5t-181 -44h-306zM321 51q80 0 132.5 35.5t79 104t26.5 167.5t-26.5 167t-79 103.5t-131.5 35.5
h-88v-613h87zM284 771q-10 23 -28 49.5t-37 52.5t-35 45v13h39q19 -11 38 -26.5t37 -32t33 -32.5q15 16 33 32.5t37.5 32t38.5 26.5h39v-13q-15 -19 -34.5 -45t-37 -52.5t-28.5 -49.5h-95z" />
    <glyph glyph-name="dcaron" unicode="&#x10f;" horiz-adv-x="614" 
d="M259 -10q-66 0 -111.5 29t-69 90.5t-23.5 157.5q0 97 23.5 158.5t69 91t111.5 29.5q58 0 94.5 -24.5t58.5 -63.5h6q-3 25 -4.5 55.5t-1.5 54.5v82q0 30 -11.5 44.5t-30 19t-40.5 4.5h-8v42h184v-650q0 -29 11.5 -44t30 -19.5t40.5 -4.5h8v-42h-169l-11 90h-4
q-22 -46 -58 -73t-95 -27zM276 54q78 0 107 52.5t29 160.5q0 104 -29 159.5t-108 55.5q-44 0 -71 -25t-39.5 -73t-12.5 -118q0 -106 28.5 -159t95.5 -53zM561 613q6 22 11 47t10 50.5t9 49.5h87v-10q-9 -21 -23 -48t-30 -54t-30 -48h-34v13z" />
    <glyph glyph-name="Dcroat" unicode="&#x110;" horiz-adv-x="727" 
d="M38 0v42h13q23 0 41.5 5t29.5 20.5t11 46.5v235h-95v49h95v206q0 30 -11.5 44.5t-30 19t-40.5 4.5h-13v42h306q103 0 176 -41.5t111.5 -121t38.5 -193.5q0 -109 -36.5 -189.5t-108.5 -124.5t-181 -44h-306zM321 51q80 0 132.5 35.5t79 104t26.5 167.5t-26.5 167
t-79 103.5t-131.5 35.5h-88v-266h170v-49h-170v-298h87z" />
    <glyph glyph-name="dcroat" unicode="&#x111;" horiz-adv-x="614" 
d="M259 -10q-66 0 -111.5 28t-69 87.5t-23.5 151.5q0 93 23.5 152.5t69 88t111.5 28.5q58 0 94.5 -24.5t58.5 -63.5h6l-1 13.5t-2 33t-2 38t-1 28.5v42h-171v47h171v10q0 29 -11.5 43.5t-30 19.5t-40.5 5h-8v42h184v-120h91v-47h-91v-483q0 -29 11.5 -44t30 -19.5t40.5 -4.5
h8v-42h-169l-11 90h-4q-22 -46 -58 -73t-95 -27zM276 54q52 0 81.5 22t42 67.5t12.5 113.5q0 100 -29 152.5t-108 52.5q-44 0 -71 -23.5t-39.5 -69.5t-12.5 -113q0 -101 28.5 -151.5t95.5 -50.5z" />
    <glyph glyph-name="Emacron" unicode="&#x112;" horiz-adv-x="623" 
d="M38 0v42h13q22 0 40.5 4.5t30 19t11.5 43.5v491q0 32 -11 47t-29.5 20t-41.5 5h-13v42h504l5 -175h-52l-5 43q-2 22 -11.5 40.5t-28 30t-48.5 11.5h-168v-266h241v-49h-241v-299h193q32 0 51.5 11.5t30 30t13.5 40.5l7 43h52l-7 -175h-536zM173 781v59h290v-59h-290z" />
    <glyph glyph-name="emacron" unicode="&#x113;" horiz-adv-x="535" 
d="M287 -10q-109 0 -170.5 72t-61.5 202q0 140 58 211t164 71q97 0 152.5 -60t55.5 -179v-46h-333q2 -109 39.5 -158.5t109.5 -49.5q52 0 88.5 21.5t54.5 48.5q7 -3 13 -12t6 -22q0 -20 -19 -43t-58 -39.5t-99 -16.5zM384 315q0 80 -24.5 128.5t-84.5 48.5
q-55 0 -85.5 -45.5t-35.5 -131.5h230zM128 616v59h290v-59h-290z" />
    <glyph glyph-name="Edotaccent" unicode="&#x116;" horiz-adv-x="623" 
d="M38 0v42h13q22 0 40.5 4.5t30 19t11.5 43.5v491q0 32 -11 47t-29.5 20t-41.5 5h-13v42h504l5 -175h-52l-5 43q-2 22 -11.5 40.5t-28 30t-48.5 11.5h-168v-266h241v-49h-241v-299h193q32 0 51.5 11.5t30 30t13.5 40.5l7 43h52l-7 -175h-536zM322 787q-24 0 -40.5 14
t-16.5 48q0 35 16.5 48.5t40.5 13.5q23 0 40 -13.5t17 -48.5q0 -34 -17 -48t-40 -14z" />
    <glyph glyph-name="edotaccent" unicode="&#x117;" horiz-adv-x="535" 
d="M287 -10q-109 0 -170.5 72t-61.5 202q0 140 58 211t164 71q97 0 152.5 -60t55.5 -179v-46h-333q2 -109 39.5 -158.5t109.5 -49.5q52 0 88.5 21.5t54.5 48.5q7 -3 13 -12t6 -22q0 -20 -19 -43t-58 -39.5t-99 -16.5zM384 315q0 80 -24.5 128.5t-84.5 48.5
q-55 0 -85.5 -45.5t-35.5 -131.5h230zM275 636q-24 0 -40.5 14t-16.5 48q0 35 16.5 48.5t40.5 13.5q23 0 40 -13.5t17 -48.5q0 -34 -17 -48t-40 -14z" />
    <glyph glyph-name="Eogonek" unicode="&#x118;" horiz-adv-x="623" 
d="M38 0v42h13q22 0 40.5 4.5t30 19t11.5 43.5v491q0 32 -11 47t-29.5 20t-41.5 5h-13v42h504l5 -175h-52l-5 43q-2 22 -11.5 40.5t-28 30t-48.5 11.5h-168v-266h241v-49h-241v-299h193q32 0 51.5 11.5t30 30t13.5 40.5l7 43h52l-7 -175h-536zM483 -240q-64 0 -100.5 26.5
t-36.5 83.5q0 31 17 58t43.5 46t57.5 26h57q-21 -6 -42.5 -21.5t-36 -38.5t-14.5 -55q0 -33 19.5 -48t49.5 -15q14 0 29.5 2t33.5 6v-54q-10 -5 -24 -8.5t-28 -5.5t-25 -2z" />
    <glyph glyph-name="eogonek" unicode="&#x119;" horiz-adv-x="535" 
d="M367 -225q-64 0 -100.5 26.5t-36.5 83.5q0 32 20 59.5t46 45.5h-4.5h-4.5q-109 0 -170.5 72t-61.5 202q0 140 58 211t164 71q97 0 152.5 -60t55.5 -179v-46h-333q2 -109 39.5 -158.5t109.5 -49.5q52 0 88.5 21.5t54.5 48.5q7 -3 13 -12t6 -22q0 -20 -14 -37.5t-33 -29.5
t-35 -17q-17 -9 -33 -24t-26 -35t-10 -46q0 -33 19.5 -48t49.5 -15q14 0 29.5 2t33.5 6v-54q-10 -5 -24 -8.5t-28 -5.5t-25 -2zM384 315q0 80 -24.5 128.5t-84.5 48.5q-55 0 -85.5 -45.5t-35.5 -131.5h230z" />
    <glyph glyph-name="Ecaron" unicode="&#x11a;" horiz-adv-x="623" 
d="M38 0v42h13q22 0 40.5 4.5t30 19t11.5 43.5v491q0 32 -11 47t-29.5 20t-41.5 5h-13v42h504l5 -175h-52l-5 43q-2 22 -11.5 40.5t-28 30t-48.5 11.5h-168v-266h241v-49h-241v-299h193q32 0 51.5 11.5t30 30t13.5 40.5l7 43h52l-7 -175h-536zM262 771q-10 23 -28 49.5
t-37 52.5t-35 45v13h39q19 -11 38 -26.5t37 -32t33 -32.5q15 16 33 32.5t37.5 32t38.5 26.5h39v-13q-15 -19 -34.5 -45t-37 -52.5t-28.5 -49.5h-95z" />
    <glyph glyph-name="ecaron" unicode="&#x11b;" horiz-adv-x="535" 
d="M287 -10q-109 0 -170.5 72t-61.5 202q0 140 58 211t164 71q97 0 152.5 -60t55.5 -179v-46h-333q2 -109 39.5 -158.5t109.5 -49.5q52 0 88.5 21.5t54.5 48.5q7 -3 13 -12t6 -22q0 -20 -19 -43t-58 -39.5t-99 -16.5zM384 315q0 80 -24.5 128.5t-84.5 48.5
q-55 0 -85.5 -45.5t-35.5 -131.5h230zM227 606q-10 23 -28 49.5t-37 52.5t-35 45v13h39q19 -11 38 -26.5t37 -32t33 -32.5q15 16 33 32.5t37.5 32t38.5 26.5h39v-13q-15 -19 -34.5 -45t-37 -52.5t-28.5 -49.5h-95z" />
    <glyph glyph-name="Gbreve" unicode="&#x11e;" horiz-adv-x="714" 
d="M401 -10q-116 0 -192.5 46t-114 128.5t-37.5 193.5q0 108 39.5 190.5t117.5 129t193 46.5q74 0 123 -14.5t73.5 -40t24.5 -57.5t-27 -51t-66 -19q0 31 -12.5 60.5t-41.5 49t-78 19.5q-85 0 -136.5 -36.5t-75 -106.5t-23.5 -170t24.5 -169.5t79 -105.5t145.5 -36
q29 0 56 3t48 9v161q0 30 -11.5 44.5t-30 19t-40.5 4.5h-4v42h260v-42h-4q-19 0 -34.5 -5t-25 -20t-9.5 -47v-180q-50 -23 -103 -34.5t-118 -11.5zM394 771q-47 0 -78 18.5t-46 50t-16 68.5h46q8 -36 32.5 -52t61.5 -16t61.5 16t32.5 52h46q-1 -37 -16 -68.5t-45.5 -50
t-78.5 -18.5z" />
    <glyph glyph-name="gbreve" unicode="&#x11f;" horiz-adv-x="538" 
d="M231 -240q-104 0 -156 38.5t-52 107.5q0 39 17.5 65.5t46 41.5t61.5 21q-20 9 -37.5 29.5t-17.5 52.5q0 30 15.5 52t49.5 42q-43 18 -66.5 59.5t-23.5 91.5q0 86 47 135.5t141 49.5q36 0 68 -10t46 -23q10 11 24 23.5t32.5 21.5t40.5 9q30 0 44.5 -15.5t14.5 -36.5
t-12.5 -36.5t-40.5 -15.5q0 11 -6.5 22.5t-26.5 11.5q-13 0 -23 -3t-20 -9q17 -21 28 -49.5t11 -71.5q0 -74 -44.5 -123t-135.5 -49q-12 0 -27.5 1.5t-25.5 3.5q-19 -10 -33 -25t-14 -38q0 -18 11.5 -28t50.5 -10h113q60 0 96 -19.5t52.5 -53t16.5 -76.5q0 -86 -64.5 -136.5
t-200.5 -50.5zM233 -191q72 0 111 15.5t54.5 43t15.5 62.5q0 46 -26 61.5t-76 15.5h-98q-28 0 -53 -7.5t-41 -27.5t-16 -60q0 -29 11 -52.5t39 -37t79 -13.5zM253 240q33 0 52.5 13t28 41t8.5 71q0 45 -9 74.5t-28.5 43.5t-52.5 14q-32 0 -52 -14.5t-29 -44t-9 -74.5
q0 -64 21.5 -94t69.5 -30zM256 606q-47 0 -78 18.5t-46 50t-16 68.5h46q8 -36 32.5 -52t61.5 -16t61.5 16t32.5 52h46q-1 -37 -16 -68.5t-45.5 -50t-78.5 -18.5z" />
    <glyph glyph-name="Gdotaccent" unicode="&#x120;" horiz-adv-x="714" 
d="M401 -10q-116 0 -192.5 46t-114 128.5t-37.5 193.5q0 108 39.5 190.5t117.5 129t193 46.5q74 0 123 -14.5t73.5 -40t24.5 -57.5t-27 -51t-66 -19q0 31 -12.5 60.5t-41.5 49t-78 19.5q-85 0 -136.5 -36.5t-75 -106.5t-23.5 -170t24.5 -169.5t79 -105.5t145.5 -36
q29 0 56 3t48 9v161q0 30 -11.5 44.5t-30 19t-40.5 4.5h-4v42h260v-42h-4q-19 0 -34.5 -5t-25 -20t-9.5 -47v-180q-50 -23 -103 -34.5t-118 -11.5zM403 801q-24 0 -40.5 14t-16.5 48q0 35 16.5 48.5t40.5 13.5q23 0 40 -13.5t17 -48.5q0 -34 -17 -48t-40 -14z" />
    <glyph glyph-name="gdotaccent" unicode="&#x121;" horiz-adv-x="538" 
d="M231 -240q-104 0 -156 38.5t-52 107.5q0 39 17.5 65.5t46 41.5t61.5 21q-20 9 -37.5 29.5t-17.5 52.5q0 30 15.5 52t49.5 42q-43 18 -66.5 59.5t-23.5 91.5q0 86 47 135.5t141 49.5q36 0 68 -10t46 -23q10 11 24 23.5t32.5 21.5t40.5 9q30 0 44.5 -15.5t14.5 -36.5
t-12.5 -36.5t-40.5 -15.5q0 11 -6.5 22.5t-26.5 11.5q-13 0 -23 -3t-20 -9q17 -21 28 -49.5t11 -71.5q0 -74 -44.5 -123t-135.5 -49q-12 0 -27.5 1.5t-25.5 3.5q-19 -10 -33 -25t-14 -38q0 -18 11.5 -28t50.5 -10h113q60 0 96 -19.5t52.5 -53t16.5 -76.5q0 -86 -64.5 -136.5
t-200.5 -50.5zM233 -191q72 0 111 15.5t54.5 43t15.5 62.5q0 46 -26 61.5t-76 15.5h-98q-28 0 -53 -7.5t-41 -27.5t-16 -60q0 -29 11 -52.5t39 -37t79 -13.5zM253 240q33 0 52.5 13t28 41t8.5 71q0 45 -9 74.5t-28.5 43.5t-52.5 14q-32 0 -52 -14.5t-29 -44t-9 -74.5
q0 -64 21.5 -94t69.5 -30zM256 636q-24 0 -40.5 14t-16.5 48q0 35 16.5 48.5t40.5 13.5q23 0 40 -13.5t17 -48.5q0 -34 -17 -48t-40 -14z" />
    <glyph glyph-name="uni0122" unicode="&#x122;" horiz-adv-x="714" 
d="M401 -10q-116 0 -192.5 46t-114 128.5t-37.5 193.5q0 108 39.5 190.5t117.5 129t193 46.5q74 0 123 -14.5t73.5 -40t24.5 -57.5t-27 -51t-66 -19q0 31 -12.5 60.5t-41.5 49t-78 19.5q-85 0 -136.5 -36.5t-75 -106.5t-23.5 -170t24.5 -169.5t79 -105.5t145.5 -36
q29 0 56 3t48 9v161q0 30 -11.5 44.5t-30 19t-40.5 4.5h-4v42h260v-42h-4q-19 0 -34.5 -5t-25 -20t-9.5 -47v-180q-50 -23 -103 -34.5t-118 -11.5zM321 -208q6 22 11 47t10 50.5t9 49.5h97v-10q-9 -21 -23 -48t-30 -54t-30 -48h-44v13z" />
    <glyph glyph-name="uni0123" unicode="&#x123;" horiz-adv-x="538" 
d="M231 -240q-104 0 -156 38.5t-52 107.5q0 39 17.5 65.5t46 41.5t61.5 21q-20 9 -37.5 29.5t-17.5 52.5q0 30 15.5 52t49.5 42q-43 18 -66.5 59.5t-23.5 91.5q0 86 47 135.5t141 49.5q36 0 68 -10t46 -23q10 11 24 23.5t32.5 21.5t40.5 9q30 0 44.5 -15.5t14.5 -36.5
t-12.5 -36.5t-40.5 -15.5q0 11 -6.5 22.5t-26.5 11.5q-13 0 -23 -3t-20 -9q17 -21 28 -49.5t11 -71.5q0 -74 -44.5 -123t-135.5 -49q-12 0 -27.5 1.5t-25.5 3.5q-19 -10 -33 -25t-14 -38q0 -18 11.5 -28t50.5 -10h113q60 0 96 -19.5t52.5 -53t16.5 -76.5q0 -86 -64.5 -136.5
t-200.5 -50.5zM233 -191q72 0 111 15.5t54.5 43t15.5 62.5q0 46 -26 61.5t-76 15.5h-98q-28 0 -53 -7.5t-41 -27.5t-16 -60q0 -29 11 -52.5t39 -37t79 -13.5zM253 240q33 0 52.5 13t28 41t8.5 71q0 45 -9 74.5t-28.5 43.5t-52.5 14q-32 0 -52 -14.5t-29 -44t-9 -74.5
q0 -64 21.5 -94t69.5 -30zM210 616q9 21 23 48t30 54t30 48h44v-13q-5 -22 -10.5 -47t-10.5 -50.5t-9 -49.5h-97v10z" />
    <glyph glyph-name="Hbar" unicode="&#x126;" horiz-adv-x="793" 
d="M38 0v42h13q23 0 41.5 5t29.5 20.5t11 46.5v385h-95v49h95v56q0 30 -11.5 44.5t-30 19t-40.5 4.5h-13v42h291v-42h-13q-22 0 -41 -5t-30 -20t-11 -47v-52h325v52q0 32 -11 47t-29.5 20t-41.5 5h-13v42h291v-42h-13q-22 0 -41 -5t-30 -20t-11 -47v-52h95v-49h-95v-390
q0 -29 11.5 -43.5t30 -19t40.5 -4.5h13v-42h-291v42h13q23 0 41.5 5t29.5 20.5t11 46.5v234h-325v-234q0 -31 11 -46.5t30 -20.5t41 -5h13v-42h-291zM234 398h325v101h-325v-101z" />
    <glyph glyph-name="hbar" unicode="&#x127;" horiz-adv-x="635" 
d="M18 0v42h8q23 0 41.5 5t29.5 20.5t11 46.5v479h-91v47h91v10q0 30 -11.5 44.5t-30 19t-40.5 4.5h-8v42h184v-120h171v-47h-171v-73q0 -18 -1 -37.5t-2 -33.5l-1 -14h5q15 30 36.5 50t49 30.5t61.5 10.5q86 0 131.5 -46.5t45.5 -149.5v-216q0 -31 10 -46.5t27.5 -20.5
t39.5 -5h3v-42h-174v325q0 65 -24.5 101t-85.5 36q-41 0 -68 -20t-40 -56.5t-13 -85.5v-191q0 -29 11.5 -43.5t30 -19t40.5 -4.5h3v-42h-269z" />
    <glyph glyph-name="Imacron" unicode="&#x12a;" horiz-adv-x="367" 
d="M38 0v42h13q23 0 41.5 5t29.5 20.5t11 46.5v486q0 32 -11 47t-29.5 20t-41.5 5h-13v42h291v-42h-13q-22 0 -41 -5t-30 -20t-11 -47v-486q0 -31 11 -46.5t30 -20.5t41 -5h13v-42h-291zM38 781v59h290v-59h-290z" />
    <glyph glyph-name="imacron" unicode="&#x12b;" horiz-adv-x="320" 
d="M23 0v42h13q22 0 40.5 4.5t30 19t11.5 43.5v317q0 30 -11.5 44.5t-30 19t-40.5 4.5h-3v42h179v-422q0 -31 11 -46.5t30 -20.5t41 -5h13v-42h-284zM0 616v59h290v-59h-290z" />
    <glyph glyph-name="Iogonek" unicode="&#x12e;" horiz-adv-x="367" 
d="M38 0v42h13q23 0 41.5 5t29.5 20.5t11 46.5v486q0 32 -11 47t-29.5 20t-41.5 5h-13v42h291v-42h-13q-22 0 -41 -5t-30 -20t-11 -47v-486q0 -31 11 -46.5t30 -20.5t41 -5h13v-42h-291zM222 -240q-64 0 -100.5 26.5t-36.5 83.5q0 31 17 58t43.5 46t57.5 26h57
q-21 -6 -42.5 -21.5t-36 -38.5t-14.5 -55q0 -33 19.5 -48t49.5 -15q14 0 29.5 2t33.5 6v-54q-10 -5 -24 -8.5t-28 -5.5t-25 -2z" />
    <glyph glyph-name="iogonek" unicode="&#x12f;" horiz-adv-x="320" 
d="M23 0v42h13q22 0 40.5 4.5t30 19t11.5 43.5v317q0 30 -11.5 44.5t-30 19t-40.5 4.5h-3v42h179v-422q0 -31 11 -46.5t30 -20.5t41 -5h13v-42h-284zM161 636q-24 0 -40.5 14t-16.5 48q0 35 16.5 48.5t40.5 13.5q23 0 40 -13.5t17 -48.5q0 -34 -17 -48t-40 -14zM204 -240
q-64 0 -100.5 26.5t-36.5 83.5q0 31 17 58t43.5 46t57.5 26h57q-21 -6 -42.5 -21.5t-36 -38.5t-14.5 -55q0 -33 19.5 -48t49.5 -15q14 0 29.5 2t33.5 6v-54q-10 -5 -24 -8.5t-28 -5.5t-25 -2z" />
    <glyph glyph-name="Idotaccent" unicode="&#x130;" horiz-adv-x="367" 
d="M38 0v42h13q23 0 41.5 5t29.5 20.5t11 46.5v486q0 32 -11 47t-29.5 20t-41.5 5h-13v42h291v-42h-13q-22 0 -41 -5t-30 -20t-11 -47v-486q0 -31 11 -46.5t30 -20.5t41 -5h13v-42h-291zM183 801q-24 0 -40.5 14t-16.5 48q0 35 16.5 48.5t40.5 13.5q23 0 40 -13.5t17 -48.5
q0 -34 -17 -48t-40 -14z" />
    <glyph glyph-name="dotlessi" unicode="&#x131;" horiz-adv-x="320" 
d="M23 0v42h13q22 0 40.5 4.5t30 19t11.5 43.5v317q0 30 -11.5 44.5t-30 19t-40.5 4.5h-3v42h179v-422q0 -31 11 -46.5t30 -20.5t41 -5h13v-42h-284z" />
    <glyph glyph-name="IJ" unicode="&#x132;" horiz-adv-x="696" 
d="M38 0v42h13q23 0 41.5 5t29.5 20.5t11 46.5v486q0 32 -11 47t-29.5 20t-41.5 5h-13v42h291v-42h-13q-22 0 -41 -5t-30 -20t-11 -47v-486q0 -31 11 -46.5t30 -20.5t41 -5h13v-42h-291zM328 -240v47h9q43 0 73 16.5t46 57t16 110.5v613q0 30 -11.5 44.5t-30 19t-40.5 4.5
h-13v42h291v-42h-13q-22 0 -41 -5t-30 -20t-11 -47v-608q0 -67 -17.5 -112t-48.5 -71t-72.5 -37.5t-89.5 -11.5h-17z" />
    <glyph glyph-name="ij" unicode="&#x133;" horiz-adv-x="620" 
d="M23 0v42h13q22 0 40.5 4.5t30 19t11.5 43.5v317q0 30 -11.5 44.5t-30 19t-40.5 4.5h-3v42h179v-422q0 -31 11 -46.5t30 -20.5t41 -5h13v-42h-284zM161 636q-24 0 -40.5 14t-16.5 48q0 35 16.5 48.5t40.5 13.5q23 0 40 -13.5t17 -48.5q0 -34 -17 -48t-40 -14zM308 -240v47
h7q36 0 61.5 16.5t38.5 57t13 110.5v435q0 30 -11.5 44.5t-30 19t-40.5 4.5h-3v42h179v-544q0 -89 -25.5 -140t-70 -71.5t-102.5 -20.5h-16zM471 636q-24 0 -40.5 14t-16.5 48q0 35 16.5 48.5t40.5 13.5q23 0 40 -13.5t17 -48.5q0 -34 -17 -48t-40 -14z" />
    <glyph glyph-name="uni0136" unicode="&#x136;" horiz-adv-x="700" 
d="M38 0v42h13q22 0 40.5 4.5t30 19t11.5 43.5v495q0 30 -11.5 44.5t-30 19t-40.5 4.5h-13v42h291v-42h-13q-22 0 -41 -5t-30 -20t-11 -47v-282l207 237q22 25 33.5 43t16.5 31t5 22q0 13 -12 17.5t-37 4.5v41h221v-41q-23 0 -43.5 -11.5t-42.5 -32.5t-48 -50l-145 -163
l211 -294q19 -26 37 -44t36.5 -27t36.5 -9h2v-42h-11q-50 0 -82.5 4t-54 14t-38 27.5t-35.5 44.5l-172 247l-85 -84v-139q0 -31 11 -46.5t30 -20.5t41 -5h13v-42h-291zM299 -208q6 22 11 47t10 50.5t9 49.5h97v-10q-9 -21 -23 -48t-30 -54t-30 -48h-44v13z" />
    <glyph glyph-name="uni0137" unicode="&#x137;" horiz-adv-x="585" 
d="M18 0v42h8q23 0 41.5 5t29.5 20.5t11 46.5v536q0 30 -11.5 44.5t-30 19t-40.5 4.5h-8v42h184v-386q0 -13 -0.5 -34t-1.5 -42t-1.5 -35.5l-0.5 -14.5l125 137q22 24 33.5 40.5t16.5 28t5 20.5q0 13 -12 16.5t-37 3.5v42h221v-42q-17 0 -34 -6t-34 -18t-35 -29.5t-38 -39.5
l-70 -79l133 -198q26 -40 51.5 -61t59.5 -21h3v-42h-14q-43 0 -72 3t-48.5 12.5t-37 29t-38.5 52.5l-100 157l-74 -55v-90q0 -29 11.5 -43.5t30 -19t40.5 -4.5h3v-42h-269zM241 -208q6 22 11 47t10 50.5t9 49.5h97v-10q-9 -21 -23 -48t-30 -54t-30 -48h-44v13z" />
    <glyph glyph-name="Lacute" unicode="&#x139;" horiz-adv-x="623" 
d="M38 0v42h13q23 0 41.5 5t29.5 20.5t11 46.5v486q0 32 -11 47t-29.5 20t-41.5 5h-13v42h291v-42h-13q-22 0 -40.5 -4.5t-30 -19t-11.5 -44.5v-554h197q30 0 48.5 13.5t27.5 34.5t12 42l10 75h52l-7 -215h-536zM148 784q15 19 31 45t31 53t25 49h107v-10q-9 -13 -27 -33
t-40.5 -42t-45.5 -41.5t-43 -33.5h-38v13z" />
    <glyph glyph-name="lacute" unicode="&#x13a;" horiz-adv-x="310" 
d="M13 0v42h13q23 0 41.5 5t29.5 20.5t11 46.5v536q0 30 -11.5 44.5t-30 19t-40.5 4.5h-13v42h189v-646q0 -31 11 -46.5t30 -20.5t41 -5h13v-42h-284zM105 812q15 19 31 45t31 53t25 49h107v-10q-9 -13 -27 -33t-40.5 -42t-45.5 -41.5t-43 -33.5h-38v13z" />
    <glyph glyph-name="uni013B" unicode="&#x13b;" horiz-adv-x="623" 
d="M38 0v42h13q23 0 41.5 5t29.5 20.5t11 46.5v486q0 32 -11 47t-29.5 20t-41.5 5h-13v42h291v-42h-13q-22 0 -40.5 -4.5t-30 -19t-11.5 -44.5v-554h197q30 0 48.5 13.5t27.5 34.5t12 42l10 75h52l-7 -215h-536zM255 -208q6 22 11 47t10 50.5t9 49.5h97v-10q-9 -21 -23 -48
t-30 -54t-30 -48h-44v13z" />
    <glyph glyph-name="uni013C" unicode="&#x13c;" horiz-adv-x="310" 
d="M13 0v42h13q23 0 41.5 5t29.5 20.5t11 46.5v536q0 30 -11.5 44.5t-30 19t-40.5 4.5h-13v42h189v-646q0 -31 11 -46.5t30 -20.5t41 -5h13v-42h-284zM79 -208q6 22 11 47t10 50.5t9 49.5h97v-10q-9 -21 -23 -48t-30 -54t-30 -48h-44v13z" />
    <glyph glyph-name="Lcaron" unicode="&#x13d;" horiz-adv-x="623" 
d="M38 0v42h13q23 0 41.5 5t29.5 20.5t11 46.5v486q0 32 -11 47t-29.5 20t-41.5 5h-13v42h291v-42h-13q-22 0 -40.5 -4.5t-30 -19t-11.5 -44.5v-554h197q30 0 48.5 13.5t27.5 34.5t12 42l10 75h52l-7 -215h-536zM422 567q6 22 11 47t10 50.5t9 49.5h87v-10q-9 -21 -23 -48
t-30 -54t-30 -48h-34v13z" />
    <glyph glyph-name="lcaron" unicode="&#x13e;" horiz-adv-x="310" 
d="M13 0v42h13q23 0 41.5 5t29.5 20.5t11 46.5v536q0 30 -11.5 44.5t-30 19t-40.5 4.5h-13v42h189v-646q0 -31 11 -46.5t30 -20.5t41 -5h13v-42h-284zM257 613q6 22 11 47t10 50.5t9 49.5h87v-10q-9 -21 -23 -48t-30 -54t-30 -48h-34v13z" />
    <glyph glyph-name="Lslash" unicode="&#x141;" horiz-adv-x="623" 
d="M38 0v42h13q23 0 41.5 5t29.5 20.5t11 46.5v169l-95 -54v56l95 55v260q0 32 -11 47t-29.5 20t-41.5 5h-13v42h291v-42h-13q-22 0 -40.5 -4.5t-30 -19t-11.5 -44.5v-206l156 91v-58l-156 -90v-291h197q30 0 48.5 13.5t27.5 34.5t12 42l10 75h52l-7 -215h-536z" />
    <glyph glyph-name="lslash" unicode="&#x142;" horiz-adv-x="324" 
d="M28 0v42h13q23 0 41.5 5t29.5 20.5t11 46.5v163l-85 -48v56l85 49v316q0 30 -11.5 44.5t-30 19t-40.5 4.5h-13v42h189v-372l94 54v-58l-94 -53v-217q0 -31 11 -46.5t30 -20.5t41 -5h13v-42h-284z" />
    <glyph glyph-name="Nacute" unicode="&#x143;" horiz-adv-x="763" 
d="M38 0v42h13q23 0 41.5 5t29.5 20.5t11 46.5v490q0 30 -11.5 44.5t-30 19t-40.5 4.5h-13v42h183l358 -553v443q0 30 -11.5 44.5t-30 19t-40.5 4.5h-13v42h251v-42h-13q-22 0 -41 -5t-30 -20t-11 -47v-600h-71l-375 576v-462q0 -31 11 -46.5t30 -20.5t41 -5h13v-42h-251z
M345 784q15 19 31 45t31 53t25 49h107v-10q-9 -13 -27 -33t-40.5 -42t-45.5 -41.5t-43 -33.5h-38v13z" />
    <glyph glyph-name="nacute" unicode="&#x144;" horiz-adv-x="645" 
d="M28 0v42h8q23 0 41.5 5t29.5 20.5t11 46.5v312q0 30 -11 44.5t-29 19t-40 4.5h-5v42h162l13 -81h5q31 56 69.5 73.5t86.5 17.5q79 0 123.5 -46.5t44.5 -149.5v-236q0 -31 9.5 -46.5t26.5 -20.5t39 -5h5v-42h-174v345q0 65 -24.5 101t-85.5 36q-45 0 -71.5 -22.5
t-38 -59.5t-11.5 -80v-211q0 -29 11 -43.5t29 -19t40 -4.5h5v-42h-269zM278 619q15 19 31 45t31 53t25 49h107v-10q-9 -13 -27 -33t-40.5 -42t-45.5 -41.5t-43 -33.5h-38v13z" />
    <glyph glyph-name="uni0145" unicode="&#x145;" horiz-adv-x="763" 
d="M38 0v42h13q23 0 41.5 5t29.5 20.5t11 46.5v490q0 30 -11.5 44.5t-30 19t-40.5 4.5h-13v42h183l358 -553v443q0 30 -11.5 44.5t-30 19t-40.5 4.5h-13v42h251v-42h-13q-22 0 -41 -5t-30 -20t-11 -47v-600h-71l-375 576v-462q0 -31 11 -46.5t30 -20.5t41 -5h13v-42h-251z
M328 -208q6 22 11 47t10 50.5t9 49.5h97v-10q-9 -21 -23 -48t-30 -54t-30 -48h-44v13z" />
    <glyph glyph-name="uni0146" unicode="&#x146;" horiz-adv-x="645" 
d="M28 0v42h8q23 0 41.5 5t29.5 20.5t11 46.5v312q0 30 -11 44.5t-29 19t-40 4.5h-5v42h162l13 -81h5q31 56 69.5 73.5t86.5 17.5q79 0 123.5 -46.5t44.5 -149.5v-236q0 -31 9.5 -46.5t26.5 -20.5t39 -5h5v-42h-174v345q0 65 -24.5 101t-85.5 36q-45 0 -71.5 -22.5
t-38 -59.5t-11.5 -80v-211q0 -29 11 -43.5t29 -19t40 -4.5h5v-42h-269zM260 -208q6 22 11 47t10 50.5t9 49.5h97v-10q-9 -21 -23 -48t-30 -54t-30 -48h-44v13z" />
    <glyph glyph-name="Ncaron" unicode="&#x147;" horiz-adv-x="763" 
d="M38 0v42h13q23 0 41.5 5t29.5 20.5t11 46.5v490q0 30 -11.5 44.5t-30 19t-40.5 4.5h-13v42h183l358 -553v443q0 30 -11.5 44.5t-30 19t-40.5 4.5h-13v42h251v-42h-13q-22 0 -41 -5t-30 -20t-11 -47v-600h-71l-375 576v-462q0 -31 11 -46.5t30 -20.5t41 -5h13v-42h-251z
M357 771q-10 23 -28 49.5t-37 52.5t-35 45v13h39q19 -11 38 -26.5t37 -32t33 -32.5q15 16 33 32.5t37.5 32t38.5 26.5h39v-13q-15 -19 -34.5 -45t-37 -52.5t-28.5 -49.5h-95z" />
    <glyph glyph-name="ncaron" unicode="&#x148;" horiz-adv-x="645" 
d="M28 0v42h8q23 0 41.5 5t29.5 20.5t11 46.5v312q0 30 -11 44.5t-29 19t-40 4.5h-5v42h162l13 -81h5q31 56 69.5 73.5t86.5 17.5q79 0 123.5 -46.5t44.5 -149.5v-236q0 -31 9.5 -46.5t26.5 -20.5t39 -5h5v-42h-174v345q0 65 -24.5 101t-85.5 36q-45 0 -71.5 -22.5
t-38 -59.5t-11.5 -80v-211q0 -29 11 -43.5t29 -19t40 -4.5h5v-42h-269zM283 606q-10 23 -28 49.5t-37 52.5t-35 45v13h39q19 -11 38 -26.5t37 -32t33 -32.5q15 16 33 32.5t37.5 32t38.5 26.5h39v-13q-15 -19 -34.5 -45t-37 -52.5t-28.5 -49.5h-95z" />
    <glyph glyph-name="Eng" unicode="&#x14a;" horiz-adv-x="763" 
d="M465 -240v47h14q32 0 54.5 16.5t34 57t11.5 110.5v9l-385 576v-462q0 -31 11 -46.5t30 -20.5t41 -5h13v-42h-251v42h13q23 0 41.5 5t29.5 20.5t11 46.5v490q0 30 -11.5 44.5t-30 19t-40.5 4.5h-13v42h183l358 -539v429q0 30 -11.5 44.5t-30 19t-40.5 4.5h-13v42h251v-42
h-13q-22 0 -41 -5t-30 -20t-11 -47v-608q0 -89 -17 -140t-50.5 -71.5t-84.5 -20.5h-23z" />
    <glyph glyph-name="eng" unicode="&#x14b;" horiz-adv-x="635" 
d="M337 -240v47h6q32 0 54.5 16.5t34 57t11.5 110.5v354q0 65 -24.5 101t-85.5 36q-45 0 -71.5 -22.5t-38 -59.5t-11.5 -80v-211q0 -29 11.5 -43.5t30 -19t40.5 -4.5h3v-42h-269v42h8q23 0 41.5 5t29.5 20.5t11 46.5v312q0 30 -11.5 44.5t-30 19t-40.5 4.5h-3v42h162l13 -81
h5q31 56 69.5 73.5t86.5 17.5q79 0 123.5 -46.5t44.5 -149.5v-358q0 -89 -24 -140t-65.5 -71.5t-95.5 -20.5h-15z" />
    <glyph glyph-name="Omacron" unicode="&#x14c;" horiz-adv-x="742" 
d="M371 -10q-106 0 -176 46t-104.5 129t-34.5 194t34.5 193t105 127.5t176.5 45.5q101 0 170.5 -45.5t106 -128t36.5 -193.5t-36.5 -193.5t-106.5 -128.5t-171 -46zM371 44q75 0 119.5 37.5t64 107.5t19.5 169t-19.5 169t-64 107t-118.5 37q-112 0 -158.5 -82t-46.5 -231
q0 -99 20 -169t65 -107.5t119 -37.5zM224 781v59h290v-59h-290z" />
    <glyph glyph-name="omacron" unicode="&#x14d;" horiz-adv-x="577" 
d="M287 -10q-108 0 -170 69t-62 210q0 140 59.5 208.5t175.5 68.5q108 0 170 -68.5t62 -208.5q0 -141 -59.5 -210t-175.5 -69zM289 42q50 0 80 25.5t43 76.5t13 125q0 112 -31 168t-106 56t-105.5 -56t-30.5 -168t31 -169.5t106 -57.5zM141 616v59h290v-59h-290z" />
    <glyph glyph-name="Ohungarumlaut" unicode="&#x150;" horiz-adv-x="742" 
d="M371 -10q-106 0 -176 46t-104.5 129t-34.5 194t34.5 193t105 127.5t176.5 45.5q101 0 170.5 -45.5t106 -128t36.5 -193.5t-36.5 -193.5t-106.5 -128.5t-171 -46zM371 44q75 0 119.5 37.5t64 107.5t19.5 169t-19.5 169t-64 107t-118.5 37q-112 0 -158.5 -82t-46.5 -231
q0 -99 20 -169t65 -107.5t119 -37.5zM397 784q21 32 45 72.5t40 74.5h107v-10q-10 -17 -35.5 -46t-55 -57.5t-52.5 -46.5h-49v13zM217 784q21 32 45 72.5t40 74.5h107v-10q-10 -17 -36 -46t-55 -57.5t-52 -46.5h-49v13z" />
    <glyph glyph-name="ohungarumlaut" unicode="&#x151;" horiz-adv-x="577" 
d="M287 -10q-108 0 -170 69t-62 210q0 140 59.5 208.5t175.5 68.5q108 0 170 -68.5t62 -208.5q0 -141 -59.5 -210t-175.5 -69zM289 42q50 0 80 25.5t43 76.5t13 125q0 112 -31 168t-106 56t-105.5 -56t-30.5 -168t31 -169.5t106 -57.5zM316 619q21 32 45 72.5t40 74.5h107
v-10q-10 -17 -35.5 -46t-55 -57.5t-52.5 -46.5h-49v13zM136 619q21 32 45 72.5t40 74.5h107v-10q-10 -17 -36 -46t-55 -57.5t-52 -46.5h-49v13z" />
    <glyph glyph-name="OE" unicode="&#x152;" horiz-adv-x="959" 
d="M371 -10q-106 0 -176 46t-104.5 129t-34.5 194t34.5 193t105 127.5t176.5 45.5q24 0 53.5 -3t49.5 -8h403l5 -175h-52l-5 43q-2 22 -11.5 40.5t-28 30t-48.5 11.5h-168v-266h241v-49h-241v-299h193q32 0 51.5 11.5t30 30t13.5 40.5l7 43h52l-7 -175h-436q-20 -4 -50 -7
t-53 -3zM371 44q29 0 54 4t44 11v595q-19 8 -43.5 12.5t-53.5 4.5q-112 0 -158.5 -82t-46.5 -231q0 -99 20 -169t65 -107.5t119 -37.5z" />
    <glyph glyph-name="oe" unicode="&#x153;" horiz-adv-x="905" 
d="M287 -10q-108 0 -170 69t-62 210q0 140 59.5 208.5t175.5 68.5q60 0 106 -24t76 -73q29 49 73 73t102 24q97 0 152.5 -60t55.5 -179v-46h-333q2 -64 16.5 -110.5t46.5 -72t86 -25.5q52 0 88.5 21.5t54.5 48.5q7 -3 13 -12t6 -22q0 -20 -19 -43t-58 -39.5t-99 -16.5
q-63 0 -108 25.5t-74 74.5q-29 -50 -76 -75t-112 -25zM289 42q50 0 79.5 25.5t43 76t13.5 126.5q-1 119 -33 171t-104 52q-75 0 -105.5 -56t-30.5 -168t31 -169.5t106 -57.5zM754 315q0 53 -10.5 93t-34.5 62t-64 22q-55 0 -85.5 -45.5t-35.5 -131.5h230z" />
    <glyph glyph-name="Racute" unicode="&#x154;" horiz-adv-x="656" 
d="M38 0v42h13q22 0 40.5 4.5t30 19t11.5 43.5v495q0 30 -11.5 44.5t-30 19t-40.5 4.5h-13v42h269q87 0 144 -21.5t85 -64t28 -107.5q0 -53 -22 -89.5t-55.5 -58.5t-69.5 -34l137 -217q26 -40 50 -60t55 -20h3v-42h-14q-62 0 -96.5 6.5t-55.5 26t-44 57.5l-135 225h-83v-206
q0 -29 11.5 -43.5t30 -19t40.5 -4.5h13v-42h-291zM304 362q88 0 120.5 39t32.5 117q0 54 -15 86.5t-49 47t-91 14.5h-68v-304h70zM256 784q15 19 31 45t31 53t25 49h107v-10q-9 -13 -27 -33t-40.5 -42t-45.5 -41.5t-43 -33.5h-38v13z" />
    <glyph glyph-name="racute" unicode="&#x155;" horiz-adv-x="471" 
d="M33 0v42h3q23 0 41.5 5t29.5 20.5t11 46.5v312q0 30 -11.5 44.5t-30 19t-40.5 4.5h-3v42h154l19 -99h5q13 30 28 55t40 39.5t69 14.5q55 0 81.5 -19t26.5 -54q0 -31 -21.5 -51t-71.5 -20q0 28 -5 45t-16.5 25t-31.5 8q-28 0 -47 -22t-30 -56t-16 -70.5t-5 -65.5v-157
q0 -29 11.5 -43.5t30 -19t40.5 -4.5h28v-42h-289zM182 619q15 19 31 45t31 53t25 49h107v-10q-9 -13 -27 -33t-40.5 -42t-45.5 -41.5t-43 -33.5h-38v13z" />
    <glyph glyph-name="uni0156" unicode="&#x156;" horiz-adv-x="656" 
d="M38 0v42h13q22 0 40.5 4.5t30 19t11.5 43.5v495q0 30 -11.5 44.5t-30 19t-40.5 4.5h-13v42h269q87 0 144 -21.5t85 -64t28 -107.5q0 -53 -22 -89.5t-55.5 -58.5t-69.5 -34l137 -217q26 -40 50 -60t55 -20h3v-42h-14q-62 0 -96.5 6.5t-55.5 26t-44 57.5l-135 225h-83v-206
q0 -29 11.5 -43.5t30 -19t40.5 -4.5h13v-42h-291zM304 362q88 0 120.5 39t32.5 117q0 54 -15 86.5t-49 47t-91 14.5h-68v-304h70zM260 -208q6 22 11 47t10 50.5t9 49.5h97v-10q-9 -21 -23 -48t-30 -54t-30 -48h-44v13z" />
    <glyph glyph-name="uni0157" unicode="&#x157;" horiz-adv-x="471" 
d="M33 0v42h3q23 0 41.5 5t29.5 20.5t11 46.5v312q0 30 -11.5 44.5t-30 19t-40.5 4.5h-3v42h154l19 -99h5q13 30 28 55t40 39.5t69 14.5q55 0 81.5 -19t26.5 -54q0 -31 -21.5 -51t-71.5 -20q0 28 -5 45t-16.5 25t-31.5 8q-28 0 -47 -22t-30 -56t-16 -70.5t-5 -65.5v-157
q0 -29 11.5 -43.5t30 -19t40.5 -4.5h28v-42h-289zM87 -208q6 22 11 47t10 50.5t9 49.5h97v-10q-9 -21 -23 -48t-30 -54t-30 -48h-44v13z" />
    <glyph glyph-name="Rcaron" unicode="&#x158;" horiz-adv-x="656" 
d="M38 0v42h13q22 0 40.5 4.5t30 19t11.5 43.5v495q0 30 -11.5 44.5t-30 19t-40.5 4.5h-13v42h269q87 0 144 -21.5t85 -64t28 -107.5q0 -53 -22 -89.5t-55.5 -58.5t-69.5 -34l137 -217q26 -40 50 -60t55 -20h3v-42h-14q-62 0 -96.5 6.5t-55.5 26t-44 57.5l-135 225h-83v-206
q0 -29 11.5 -43.5t30 -19t40.5 -4.5h13v-42h-291zM304 362q88 0 120.5 39t32.5 117q0 54 -15 86.5t-49 47t-91 14.5h-68v-304h70zM257 771q-10 23 -28 49.5t-37 52.5t-35 45v13h39q19 -11 38 -26.5t37 -32t33 -32.5q15 16 33 32.5t37.5 32t38.5 26.5h39v-13
q-15 -19 -34.5 -45t-37 -52.5t-28.5 -49.5h-95z" />
    <glyph glyph-name="rcaron" unicode="&#x159;" horiz-adv-x="471" 
d="M33 0v42h3q23 0 41.5 5t29.5 20.5t11 46.5v312q0 30 -11.5 44.5t-30 19t-40.5 4.5h-3v42h154l19 -99h5q13 30 28 55t40 39.5t69 14.5q55 0 81.5 -19t26.5 -54q0 -31 -21.5 -51t-71.5 -20q0 28 -5 45t-16.5 25t-31.5 8q-28 0 -47 -22t-30 -56t-16 -70.5t-5 -65.5v-157
q0 -29 11.5 -43.5t30 -19t40.5 -4.5h28v-42h-289zM175 606q-10 23 -28 49.5t-37 52.5t-35 45v13h39q19 -11 38 -26.5t37 -32t33 -32.5q15 16 33 32.5t37.5 32t38.5 26.5h39v-13q-15 -19 -34.5 -45t-37 -52.5t-28.5 -49.5h-95z" />
    <glyph glyph-name="Sacute" unicode="&#x15a;" horiz-adv-x="544" 
d="M247 -10q-49 0 -86.5 10t-62.5 29t-37.5 45t-12.5 57q0 20 8.5 35t24.5 23.5t39 8.5q2 -41 16 -77.5t43 -59t76 -22.5q67 0 105 32.5t38 93.5q0 37 -14.5 62.5t-48 47.5t-92.5 46q-62 26 -103 56t-61 70.5t-20 95.5q0 57 28.5 97.5t78 62t112.5 21.5q60 0 101.5 -16
t63.5 -41.5t22 -54.5q0 -32 -21.5 -48.5t-57.5 -16.5q0 31 -10.5 60t-35 48t-66.5 19q-58 0 -90 -31t-32 -83q0 -40 14.5 -67.5t48.5 -49t92 -45.5q59 -24 100.5 -52.5t63.5 -65.5t22 -89q0 -64 -30 -108.5t-85.5 -68.5t-130.5 -24zM220 784q15 19 31 45t31 53t25 49h107
v-10q-9 -13 -27 -33t-40.5 -42t-45.5 -41.5t-43 -33.5h-38v13z" />
    <glyph glyph-name="sacute" unicode="&#x15b;" horiz-adv-x="451" 
d="M210 -10q-50 0 -87 12t-57.5 35.5t-20.5 58.5q0 27 11 42t25.5 21t26.5 6q0 -52 23.5 -89.5t84.5 -37.5q53 0 81.5 25.5t28.5 65.5q0 25 -10.5 41t-37 31.5t-75.5 36.5q-51 23 -84.5 44.5t-50 50t-16.5 71.5q0 68 51.5 104.5t136.5 36.5q48 0 80.5 -12.5t49 -33.5
t16.5 -46q0 -27 -18.5 -43.5t-53.5 -16.5q0 50 -21 78t-65 28q-51 0 -73 -22.5t-22 -57.5q0 -38 28.5 -58.5t95.5 -47.5q53 -22 86 -44t48.5 -51t15.5 -71q0 -78 -54 -117.5t-143 -39.5zM178 619q15 19 31 45t31 53t25 49h107v-10q-9 -13 -27 -33t-40.5 -42t-45.5 -41.5
t-43 -33.5h-38v13z" />
    <glyph glyph-name="Scedilla" unicode="&#x15e;" horiz-adv-x="544" 
d="M247 -10q-49 0 -86.5 10t-62.5 29t-37.5 45t-12.5 57q0 20 8.5 35t24.5 23.5t39 8.5q2 -41 16 -77.5t43 -59t76 -22.5q67 0 105 32.5t38 93.5q0 37 -14.5 62.5t-48 47.5t-92.5 46q-62 26 -103 56t-61 70.5t-20 95.5q0 57 28.5 97.5t78 62t112.5 21.5q60 0 101.5 -16
t63.5 -41.5t22 -54.5q0 -32 -21.5 -48.5t-57.5 -16.5q0 31 -10.5 60t-35 48t-66.5 19q-58 0 -90 -31t-32 -83q0 -40 14.5 -67.5t48.5 -49t92 -45.5q59 -24 100.5 -52.5t63.5 -65.5t22 -89q0 -64 -30 -108.5t-85.5 -68.5t-130.5 -24zM237 -240q-16 0 -37.5 3t-39.5 8v51
q18 -4 36.5 -6t31.5 -2q29 0 45 15.5t16 40.5q0 29 -21.5 44t-53.5 17l21 78h47l-10 -43q33 -2 54.5 -14t32 -31.5t10.5 -46.5q0 -53 -34 -83.5t-98 -30.5z" />
    <glyph glyph-name="scedilla" unicode="&#x15f;" horiz-adv-x="451" 
d="M210 -10q-50 0 -87 12t-57.5 35.5t-20.5 58.5q0 27 11 42t25.5 21t26.5 6q0 -52 23.5 -89.5t84.5 -37.5q53 0 81.5 25.5t28.5 65.5q0 25 -10.5 41t-37 31.5t-75.5 36.5q-51 23 -84.5 44.5t-50 50t-16.5 71.5q0 68 51.5 104.5t136.5 36.5q48 0 80.5 -12.5t49 -33.5
t16.5 -46q0 -27 -18.5 -43.5t-53.5 -16.5q0 50 -21 78t-65 28q-51 0 -73 -22.5t-22 -57.5q0 -38 28.5 -58.5t95.5 -47.5q53 -22 86 -44t48.5 -51t15.5 -71q0 -78 -54 -117.5t-143 -39.5zM192 -240q-16 0 -37.5 3t-39.5 8v51q18 -4 36.5 -6t31.5 -2q29 0 45 15.5t16 40.5
q0 29 -21.5 44t-53.5 17l21 78h47l-10 -43q33 -2 54.5 -14t32 -31.5t10.5 -46.5q0 -53 -34 -83.5t-98 -30.5z" />
    <glyph glyph-name="Scaron" unicode="&#x160;" horiz-adv-x="544" 
d="M247 -10q-49 0 -86.5 10t-62.5 29t-37.5 45t-12.5 57q0 20 8.5 35t24.5 23.5t39 8.5q2 -41 16 -77.5t43 -59t76 -22.5q67 0 105 32.5t38 93.5q0 37 -14.5 62.5t-48 47.5t-92.5 46q-62 26 -103 56t-61 70.5t-20 95.5q0 57 28.5 97.5t78 62t112.5 21.5q60 0 101.5 -16
t63.5 -41.5t22 -54.5q0 -32 -21.5 -48.5t-57.5 -16.5q0 31 -10.5 60t-35 48t-66.5 19q-58 0 -90 -31t-32 -83q0 -40 14.5 -67.5t48.5 -49t92 -45.5q59 -24 100.5 -52.5t63.5 -65.5t22 -89q0 -64 -30 -108.5t-85.5 -68.5t-130.5 -24zM228 771q-10 23 -28 49.5t-37 52.5
t-35 45v13h39q19 -11 38 -26.5t37 -32t33 -32.5q15 16 33 32.5t37.5 32t38.5 26.5h39v-13q-15 -19 -34.5 -45t-37 -52.5t-28.5 -49.5h-95z" />
    <glyph glyph-name="scaron" unicode="&#x161;" horiz-adv-x="451" 
d="M210 -10q-50 0 -87 12t-57.5 35.5t-20.5 58.5q0 27 11 42t25.5 21t26.5 6q0 -52 23.5 -89.5t84.5 -37.5q53 0 81.5 25.5t28.5 65.5q0 25 -10.5 41t-37 31.5t-75.5 36.5q-51 23 -84.5 44.5t-50 50t-16.5 71.5q0 68 51.5 104.5t136.5 36.5q48 0 80.5 -12.5t49 -33.5
t16.5 -46q0 -27 -18.5 -43.5t-53.5 -16.5q0 50 -21 78t-65 28q-51 0 -73 -22.5t-22 -57.5q0 -38 28.5 -58.5t95.5 -47.5q53 -22 86 -44t48.5 -51t15.5 -71q0 -78 -54 -117.5t-143 -39.5zM182 606q-10 23 -28 49.5t-37 52.5t-35 45v13h39q19 -11 38 -26.5t37 -32t33 -32.5
q15 16 33 32.5t37.5 32t38.5 26.5h39v-13q-15 -19 -34.5 -45t-37 -52.5t-28.5 -49.5h-95z" />
    <glyph glyph-name="Tcaron" unicode="&#x164;" horiz-adv-x="613" 
d="M150 0v42h23q22 0 40.5 4.5t30 19t11.5 43.5v555h-96q-44 0 -61 -24.5t-21 -57.5l-5 -43h-52l5 175h563l5 -175h-52l-5 43q-4 33 -21 57.5t-62 24.5h-97v-550q0 -31 11 -46.5t30 -20.5t41 -5h23v-42h-311zM258 771q-10 23 -28 49.5t-37 52.5t-35 45v13h39
q19 -11 38 -26.5t37 -32t33 -32.5q15 16 33 32.5t37.5 32t38.5 26.5h39v-13q-15 -19 -34.5 -45t-37 -52.5t-28.5 -49.5h-95z" />
    <glyph glyph-name="tcaron" unicode="&#x165;" horiz-adv-x="352" 
d="M240 -10q-76 0 -110.5 34.5t-34.5 120.5v334h-76v40q18 0 40 7.5t38 24.5q17 18 28 44t18 64h46v-123h131v-57h-131v-337q0 -51 21 -75t55 -24q18 0 33 2t31 5v-44q-13 -6 -39 -11t-50 -5zM260 613q6 22 11 47t10 50.5t9 49.5h87v-10q-9 -21 -23 -48t-30 -54t-30 -48h-34
v13z" />
    <glyph glyph-name="Umacron" unicode="&#x16a;" horiz-adv-x="717" 
d="M362 -10q-79 0 -135.5 22.5t-86.5 72.5t-30 131v388q0 30 -11.5 44.5t-30 19t-40.5 4.5h-13v42h291v-42h-13q-22 0 -41 -5t-30 -20t-11 -47v-390q0 -87 47 -123.5t120 -36.5q58 0 95 20t55 55.5t18 80.5v398q0 30 -11.5 44.5t-30 19t-40.5 4.5h-13v42h251v-42h-13
q-22 0 -41 -5t-30 -20t-11 -47v-396q0 -66 -28 -114t-82.5 -74t-134.5 -26zM232 781v59h290v-59h-290z" />
    <glyph glyph-name="umacron" unicode="&#x16b;" horiz-adv-x="635" 
d="M273 -10q-79 0 -122 46.5t-43 149.5v240q0 30 -11.5 44.5t-30 19t-40.5 4.5h-3v42h179v-345q0 -43 9.5 -74t32.5 -47t63 -16q44 0 72 20.5t41 57t13 84.5v206q0 32 -11 47t-29.5 20t-41.5 5h-3v42h179v-427q0 -29 11.5 -43.5t30 -19t40.5 -4.5h3v-42h-159l-13 81h-5
q-31 -56 -72 -73.5t-90 -17.5zM160 616v59h290v-59h-290z" />
    <glyph glyph-name="Ubreve" unicode="&#x16c;" horiz-adv-x="717" 
d="M362 -10q-79 0 -135.5 22.5t-86.5 72.5t-30 131v388q0 30 -11.5 44.5t-30 19t-40.5 4.5h-13v42h291v-42h-13q-22 0 -41 -5t-30 -20t-11 -47v-390q0 -87 47 -123.5t120 -36.5q58 0 95 20t55 55.5t18 80.5v398q0 30 -11.5 44.5t-30 19t-40.5 4.5h-13v42h251v-42h-13
q-22 0 -41 -5t-30 -20t-11 -47v-396q0 -66 -28 -114t-82.5 -74t-134.5 -26zM371 771q-47 0 -78 18.5t-46 50t-16 68.5h46q8 -36 32.5 -52t61.5 -16t61.5 16t32.5 52h46q-1 -37 -16 -68.5t-45.5 -50t-78.5 -18.5z" />
    <glyph glyph-name="ubreve" unicode="&#x16d;" horiz-adv-x="635" 
d="M273 -10q-79 0 -122 46.5t-43 149.5v240q0 30 -11.5 44.5t-30 19t-40.5 4.5h-3v42h179v-345q0 -43 9.5 -74t32.5 -47t63 -16q44 0 72 20.5t41 57t13 84.5v206q0 32 -11 47t-29.5 20t-41.5 5h-3v42h179v-427q0 -29 11.5 -43.5t30 -19t40.5 -4.5h3v-42h-159l-13 81h-5
q-31 -56 -72 -73.5t-90 -17.5zM310 606q-47 0 -78 18.5t-46 50t-16 68.5h46q8 -36 32.5 -52t61.5 -16t61.5 16t32.5 52h46q-1 -37 -16 -68.5t-45.5 -50t-78.5 -18.5z" />
    <glyph glyph-name="Uring" unicode="&#x16e;" horiz-adv-x="717" 
d="M362 -10q-79 0 -135.5 22.5t-86.5 72.5t-30 131v388q0 30 -11.5 44.5t-30 19t-40.5 4.5h-13v42h291v-42h-13q-22 0 -41 -5t-30 -20t-11 -47v-390q0 -87 47 -123.5t120 -36.5q58 0 95 20t55 55.5t18 80.5v398q0 30 -11.5 44.5t-30 19t-40.5 4.5h-13v42h251v-42h-13
q-22 0 -41 -5t-30 -20t-11 -47v-396q0 -66 -28 -114t-82.5 -74t-134.5 -26zM371 761q-50 0 -85 28t-35 81t35 81t85 28t85 -28t35 -81t-35 -81t-85 -28zM371 810q27 0 46.5 14t19.5 46t-19.5 46t-46.5 14t-46.5 -14t-19.5 -46t19.5 -46t46.5 -14z" />
    <glyph glyph-name="uring" unicode="&#x16f;" horiz-adv-x="635" 
d="M273 -10q-79 0 -122 46.5t-43 149.5v240q0 30 -11.5 44.5t-30 19t-40.5 4.5h-3v42h179v-345q0 -43 9.5 -74t32.5 -47t63 -16q44 0 72 20.5t41 57t13 84.5v206q0 32 -11 47t-29.5 20t-41.5 5h-3v42h179v-427q0 -29 11.5 -43.5t30 -19t40.5 -4.5h3v-42h-159l-13 81h-5
q-31 -56 -72 -73.5t-90 -17.5zM304 596q-50 0 -85 28t-35 81t35 81t85 28t85 -28t35 -81t-35 -81t-85 -28zM304 645q27 0 46.5 14t19.5 46t-19.5 46t-46.5 14t-46.5 -14t-19.5 -46t19.5 -46t46.5 -14z" />
    <glyph glyph-name="Uhungarumlaut" unicode="&#x170;" horiz-adv-x="717" 
d="M362 -10q-79 0 -135.5 22.5t-86.5 72.5t-30 131v388q0 30 -11.5 44.5t-30 19t-40.5 4.5h-13v42h291v-42h-13q-22 0 -41 -5t-30 -20t-11 -47v-390q0 -87 47 -123.5t120 -36.5q58 0 95 20t55 55.5t18 80.5v398q0 30 -11.5 44.5t-30 19t-40.5 4.5h-13v42h251v-42h-13
q-22 0 -41 -5t-30 -20t-11 -47v-396q0 -66 -28 -114t-82.5 -74t-134.5 -26zM404 784q21 32 45 72.5t40 74.5h107v-10q-10 -17 -35.5 -46t-55 -57.5t-52.5 -46.5h-49v13zM224 784q21 32 45 72.5t40 74.5h107v-10q-10 -17 -36 -46t-55 -57.5t-52 -46.5h-49v13z" />
    <glyph glyph-name="uhungarumlaut" unicode="&#x171;" horiz-adv-x="635" 
d="M273 -10q-79 0 -122 46.5t-43 149.5v240q0 30 -11.5 44.5t-30 19t-40.5 4.5h-3v42h179v-345q0 -43 9.5 -74t32.5 -47t63 -16q44 0 72 20.5t41 57t13 84.5v206q0 32 -11 47t-29.5 20t-41.5 5h-3v42h179v-427q0 -29 11.5 -43.5t30 -19t40.5 -4.5h3v-42h-159l-13 81h-5
q-31 -56 -72 -73.5t-90 -17.5zM345 619q21 32 45 72.5t40 74.5h107v-10q-10 -17 -35.5 -46t-55 -57.5t-52.5 -46.5h-49v13zM165 619q21 32 45 72.5t40 74.5h107v-10q-10 -17 -36 -46t-55 -57.5t-52 -46.5h-49v13z" />
    <glyph glyph-name="Uogonek" unicode="&#x172;" horiz-adv-x="725" 
d="M370 -10q-79 0 -135.5 22.5t-86.5 72.5t-30 131v388q0 30 -11.5 44.5t-30 19t-40.5 4.5h-13v42h291v-42h-13q-22 0 -41 -5t-30 -20t-11 -47v-390q0 -87 47 -123.5t120 -36.5q58 0 95 20t55 55.5t18 80.5v398q0 30 -11.5 44.5t-30 19t-40.5 4.5h-13v42h251v-42h-13
q-22 0 -41 -5t-30 -20t-11 -47v-396q0 -66 -28 -114t-82.5 -74t-134.5 -26zM409 -240q-64 0 -100.5 26.5t-36.5 83.5q0 31 17 58t43.5 46t57.5 26h57q-21 -6 -42.5 -21.5t-36 -38.5t-14.5 -55q0 -33 19.5 -48t49.5 -15q14 0 29.5 2t33.5 6v-54q-10 -5 -24 -8.5t-28 -5.5
t-25 -2z" />
    <glyph glyph-name="uogonek" unicode="&#x173;" horiz-adv-x="635" 
d="M273 -10q-79 0 -122 46.5t-43 149.5v240q0 30 -11.5 44.5t-30 19t-40.5 4.5h-3v42h179v-345q0 -43 9.5 -74t32.5 -47t63 -16q44 0 72 20.5t41 57t13 84.5v206q0 32 -11 47t-29.5 20t-41.5 5h-3v42h179v-427q0 -29 11.5 -43.5t30 -19t40.5 -4.5h3v-42h-159l-13 81h-5
q-31 -56 -72 -73.5t-90 -17.5zM472 -240q-64 0 -100.5 26.5t-36.5 83.5q0 31 17 58t44 46t57 26h57q-21 -6 -42.5 -21.5t-36 -38.5t-14.5 -55q0 -33 19.5 -48t49.5 -15q14 0 29.5 2t33.5 6v-54q-10 -5 -24 -8.5t-28 -5.5t-25 -2z" />
    <glyph glyph-name="Wcircumflex" unicode="&#x174;" horiz-adv-x="1047" 
d="M93 619q-6 21 -15.5 32.5t-22.5 16t-33 4.5h-13v42h275v-42h-23q-30 0 -45 -11.5t-15 -36.5q0 -8 2.5 -17t5.5 -20l92 -320q9 -30 16.5 -59.5t14.5 -57.5t12 -52q8 39 18 85.5t23 94.5l119 429h72l125 -433q14 -49 25 -95t18 -81q5 24 11 49.5t13 54t16 60.5l88 309l7 28
t4 24q0 26 -16.5 37.5t-49.5 11.5h-23v42h244v-42h-19q-19 0 -32.5 -5.5t-23.5 -22.5t-20 -50l-169 -594h-90l-163 560l-153 -560h-92zM394 784q16 19 35 45t37 53t28 49h95q11 -22 28.5 -49t37 -53t34.5 -45v-13h-39q-19 11 -38.5 26t-37.5 31.5t-33 32.5
q-15 -16 -33 -32.5t-37 -31.5t-38 -26h-39v13z" />
    <glyph glyph-name="wcircumflex" unicode="&#x175;" horiz-adv-x="862" 
d="M75 441q-7 21 -16.5 32.5t-22 16t-32.5 4.5h-3v42h247v-42h-13q-30 0 -45 -8.5t-15 -33.5q0 -8 2.5 -20t5.5 -23l47 -168q7 -24 13.5 -53.5t12.5 -56t9 -43.5h3q3 17 9.5 41t15 51t16.5 51l104 302h63l100 -296q6 -18 12.5 -38.5t12.5 -41.5t11 -39t7 -30h3
q5 25 14.5 61.5t24.5 84.5l50 161q4 13 6.5 27.5t2.5 22.5q0 26 -16.5 37.5t-49.5 11.5h-7v42h214v-42h-13q-19 0 -32 -5.5t-23 -22.5t-20 -50l-129 -416h-80l-137 418l-142 -418h-79zM297 619q16 19 35 45t37 53t28 49h95q11 -22 28.5 -49t37 -53t34.5 -45v-13h-39
q-19 11 -38.5 26t-37.5 31.5t-33 32.5q-15 -16 -33 -32.5t-37 -31.5t-38 -26h-39v13z" />
    <glyph glyph-name="Ycircumflex" unicode="&#x176;" horiz-adv-x="625" 
d="M159 0v42h23q22 0 40.5 4.5t30 19t11.5 43.5v189l-185 321q-11 19 -20.5 30.5t-21.5 17t-29 5.5h-13v42h275v-42h-37q-27 0 -35.5 -9.5t-8.5 -22.5q0 -14 6 -28t12 -25l74 -134q17 -31 29.5 -61t20.5 -53q9 21 26 52l34 62l64 115q10 17 14 32.5t4 27.5q0 22 -15.5 33
t-44.5 11h-29v42h244v-42h-12q-14 0 -26.5 -7t-26 -24t-30.5 -47l-168 -296v-184q0 -31 11 -46.5t30 -20.5t41 -5h23v-42h-311zM167 784q16 19 35 45t37 53t28 49h95q11 -22 28.5 -49t37 -53t34.5 -45v-13h-39q-19 11 -38.5 26t-37.5 31.5t-33 32.5q-15 -16 -33 -32.5
t-37 -31.5t-38 -26h-39v13z" />
    <glyph glyph-name="ycircumflex" unicode="&#x177;" horiz-adv-x="565" 
d="M38 -193q51 0 88 15t63 41.5t44 62.5t30 78l-185 437q-9 21 -18 32.5t-21 16t-32 4.5h-3v42h240v-42h-3q-30 0 -45 -11.5t-15 -36.5q0 -8 2 -17t6 -20l73 -178q10 -23 19.5 -50.5t17.5 -52.5t11 -42q7 29 18.5 60t21.5 61l67 195q5 12 7 23.5t2 19.5q0 26 -16.5 37.5
t-49.5 11.5h-3v42h208v-42h-3q-19 0 -32 -6t-22.5 -23t-21.5 -49l-152 -420q-26 -73 -50 -119t-53.5 -71.5t-73.5 -35.5t-110 -10h-9v47zM148 619q16 19 35 45t37 53t28 49h95q11 -22 28.5 -49t37 -53t34.5 -45v-13h-39q-19 11 -38.5 26t-37.5 31.5t-33 32.5
q-15 -16 -33 -32.5t-37 -31.5t-38 -26h-39v13z" />
    <glyph glyph-name="Ydieresis" unicode="&#x178;" horiz-adv-x="625" 
d="M159 0v42h23q22 0 40.5 4.5t30 19t11.5 43.5v189l-185 321q-11 19 -20.5 30.5t-21.5 17t-29 5.5h-13v42h275v-42h-37q-27 0 -35.5 -9.5t-8.5 -22.5q0 -14 6 -28t12 -25l74 -134q17 -31 29.5 -61t20.5 -53q9 21 26 52l34 62l64 115q10 17 14 32.5t4 27.5q0 22 -15.5 33
t-44.5 11h-29v42h244v-42h-12q-14 0 -26.5 -7t-26 -24t-30.5 -47l-168 -296v-184q0 -31 11 -46.5t30 -20.5t41 -5h23v-42h-311zM416 797q-22 0 -36.5 12.5t-14.5 43.5q0 32 14.5 44t36.5 12q21 0 36 -12t15 -44q0 -31 -15 -43.5t-36 -12.5zM226 797q-22 0 -36.5 12.5
t-14.5 43.5q0 32 14.5 44t36.5 12q21 0 36 -12t15 -44q0 -31 -15 -43.5t-36 -12.5z" />
    <glyph glyph-name="Zacute" unicode="&#x179;" horiz-adv-x="592" 
d="M36 0v40l375 624h-217q-44 0 -61 -24.5t-21 -57.5l-5 -43h-52l5 175h474v-41l-376 -623h252q30 0 47 11.5t25.5 30t10.5 40.5l5 43h52l-5 -175h-509zM242 784q15 19 31 45t31 53t25 49h107v-10q-9 -13 -27 -33t-40.5 -42t-45.5 -41.5t-43 -33.5h-38v13z" />
    <glyph glyph-name="zacute" unicode="&#x17a;" horiz-adv-x="511" 
d="M42 0v40l290 439h-156q-40 0 -53 -20.5t-24 -60.5l-1 -4h-42l10 142h383v-41l-291 -438h182q35 0 48 25t20 57l5 23h42l-5 -162h-408zM209 619q15 19 31 45t31 53t25 49h107v-10q-9 -13 -27 -33t-40.5 -42t-45.5 -41.5t-43 -33.5h-38v13z" />
    <glyph glyph-name="Zdotaccent" unicode="&#x17b;" horiz-adv-x="592" 
d="M36 0v40l375 624h-217q-44 0 -61 -24.5t-21 -57.5l-5 -43h-52l5 175h474v-41l-376 -623h252q30 0 47 11.5t25.5 30t10.5 40.5l5 43h52l-5 -175h-509zM311 801q-24 0 -40.5 14t-16.5 48q0 35 16.5 48.5t40.5 13.5q23 0 40 -13.5t17 -48.5q0 -34 -17 -48t-40 -14z" />
    <glyph glyph-name="zdotaccent" unicode="&#x17c;" horiz-adv-x="511" 
d="M42 0v40l290 439h-156q-40 0 -53 -20.5t-24 -60.5l-1 -4h-42l10 142h383v-41l-291 -438h182q35 0 48 25t20 57l5 23h42l-5 -162h-408zM266 636q-24 0 -40.5 14t-16.5 48q0 35 16.5 48.5t40.5 13.5q23 0 40 -13.5t17 -48.5q0 -34 -17 -48t-40 -14z" />
    <glyph glyph-name="Zcaron" unicode="&#x17d;" horiz-adv-x="592" 
d="M36 0v40l375 624h-217q-44 0 -61 -24.5t-21 -57.5l-5 -43h-52l5 175h474v-41l-376 -623h252q30 0 47 11.5t25.5 30t10.5 40.5l5 43h52l-5 -175h-509zM256 771q-10 23 -28 49.5t-37 52.5t-35 45v13h39q19 -11 38 -26.5t37 -32t33 -32.5q15 16 33 32.5t37.5 32t38.5 26.5
h39v-13q-15 -19 -34.5 -45t-37 -52.5t-28.5 -49.5h-95z" />
    <glyph glyph-name="zcaron" unicode="&#x17e;" horiz-adv-x="511" 
d="M42 0v40l290 439h-156q-40 0 -53 -20.5t-24 -60.5l-1 -4h-42l10 142h383v-41l-291 -438h182q35 0 48 25t20 57l5 23h42l-5 -162h-408zM220 606q-10 23 -28 49.5t-37 52.5t-35 45v13h39q19 -11 38 -26.5t37 -32t33 -32.5q15 16 33 32.5t37.5 32t38.5 26.5h39v-13
q-15 -19 -34.5 -45t-37 -52.5t-28.5 -49.5h-95z" />
    <glyph glyph-name="uni0218" unicode="&#x218;" horiz-adv-x="544" 
d="M247 -10q-49 0 -86.5 10t-62.5 29t-37.5 45t-12.5 57q0 20 8.5 35t24.5 23.5t39 8.5q2 -41 16 -77.5t43 -59t76 -22.5q67 0 105 32.5t38 93.5q0 37 -14.5 62.5t-48 47.5t-92.5 46q-62 26 -103 56t-61 70.5t-20 95.5q0 57 28.5 97.5t78 62t112.5 21.5q60 0 101.5 -16
t63.5 -41.5t22 -54.5q0 -32 -21.5 -48.5t-57.5 -16.5q0 31 -10.5 60t-35 48t-66.5 19q-58 0 -90 -31t-32 -83q0 -40 14.5 -67.5t48.5 -49t92 -45.5q59 -24 100.5 -52.5t63.5 -65.5t22 -89q0 -64 -30 -108.5t-85.5 -68.5t-130.5 -24zM199 -208q6 22 11 47t10 50.5t9 49.5h97
v-10q-9 -21 -23 -48t-30 -54t-30 -48h-44v13z" />
    <glyph glyph-name="uni0219" unicode="&#x219;" horiz-adv-x="451" 
d="M210 -10q-50 0 -87 12t-57.5 35.5t-20.5 58.5q0 27 11 42t25.5 21t26.5 6q0 -52 23.5 -89.5t84.5 -37.5q53 0 81.5 25.5t28.5 65.5q0 25 -10.5 41t-37 31.5t-75.5 36.5q-51 23 -84.5 44.5t-50 50t-16.5 71.5q0 68 51.5 104.5t136.5 36.5q48 0 80.5 -12.5t49 -33.5
t16.5 -46q0 -27 -18.5 -43.5t-53.5 -16.5q0 50 -21 78t-65 28q-51 0 -73 -22.5t-22 -57.5q0 -38 28.5 -58.5t95.5 -47.5q53 -22 86 -44t48.5 -51t15.5 -71q0 -78 -54 -117.5t-143 -39.5zM151 -208q6 22 11 47t10 50.5t9 49.5h97v-10q-9 -21 -23 -48t-30 -54t-30 -48h-44v13z
" />
    <glyph glyph-name="uni021A" unicode="&#x21a;" horiz-adv-x="613" 
d="M150 0v42h23q22 0 40.5 4.5t30 19t11.5 43.5v555h-96q-44 0 -61 -24.5t-21 -57.5l-5 -43h-52l5 175h563l5 -175h-52l-5 43q-4 33 -21 57.5t-62 24.5h-97v-550q0 -31 11 -46.5t30 -20.5t41 -5h23v-42h-311zM227 -208q6 22 11 47t10 50.5t9 49.5h97v-10q-9 -21 -23 -48
t-30 -54t-30 -48h-44v13z" />
    <glyph glyph-name="uni021B" unicode="&#x21b;" horiz-adv-x="352" 
d="M240 -10q-76 0 -110.5 34.5t-34.5 120.5v334h-76v40q18 0 40 7.5t38 24.5q17 18 28 44t18 64h46v-123h131v-57h-131v-337q0 -51 21 -75t55 -24q18 0 33 2t31 5v-44q-13 -6 -39 -11t-50 -5zM135 -208q6 22 11 47t10 50.5t9 49.5h97v-10q-9 -21 -23 -48t-30 -54t-30 -48
h-44v13z" />
    <glyph glyph-name="uni0237" unicode="&#x237;" horiz-adv-x="300" 
d="M-12 -240v47h7q36 0 61.5 16.5t38.5 57t13 110.5v435q0 30 -11 44.5t-29.5 19t-40.5 4.5h-4v42h179v-544q0 -89 -25.5 -140t-70 -71.5t-102.5 -20.5h-16z" />
    <glyph glyph-name="circumflex" unicode="&#x2c6;" horiz-adv-x="375" 
d="M40 619q16 19 35 45t37 53t28 49h95q11 -22 28.5 -49t37 -53t34.5 -45v-13h-39q-19 11 -38.5 26t-37.5 31.5t-33 32.5q-15 -16 -33 -32.5t-37 -31.5t-38 -26h-39v13z" />
    <glyph glyph-name="caron" unicode="&#x2c7;" horiz-adv-x="375" 
d="M140 606q-10 23 -28 49.5t-37 52.5t-35 45v13h39q19 -11 38 -26.5t37 -32t33 -32.5q15 16 33 32.5t37.5 32t38.5 26.5h39v-13q-15 -19 -34.5 -45t-37 -52.5t-28.5 -49.5h-95z" />
    <glyph glyph-name="macronmod" unicode="&#x2c9;" horiz-adv-x="370" 
d="M40 616v59h290v-59h-290z" />
    <glyph glyph-name="breve" unicode="&#x2d8;" horiz-adv-x="360" 
d="M180 606q-47 0 -78 18.5t-46 50t-16 68.5h46q8 -36 32.5 -52t61.5 -16t61.5 16t32.5 52h46q-1 -37 -16 -68.5t-45.5 -50t-78.5 -18.5z" />
    <glyph glyph-name="dotaccent" unicode="&#x2d9;" horiz-adv-x="194" 
d="M97 636q-24 0 -40.5 14t-16.5 48q0 35 16.5 48.5t40.5 13.5q23 0 40 -13.5t17 -48.5q0 -34 -17 -48t-40 -14z" />
    <glyph glyph-name="ring" unicode="&#x2da;" horiz-adv-x="333" 
d="M166 596q-50 0 -85 28t-35 81t35 81t85 28t85 -28t35 -81t-35 -81t-85 -28zM166 645q27 0 46.5 14t19.5 46t-19.5 46t-46.5 14t-46.5 -14t-19.5 -46t19.5 -46t46.5 -14z" />
    <glyph glyph-name="ogonek" unicode="&#x2db;" horiz-adv-x="500" 
d="M309 -240q-64 0 -100.5 26.5t-36.5 83.5q0 31 17 58t44 46t57 26h57q-21 -6 -42.5 -21.5t-36 -38.5t-14.5 -55q0 -33 19.5 -48t49.5 -15q14 0 29.5 2t33.5 6v-54q-10 -5 -24 -8.5t-28 -5.5t-25 -2z" />
    <glyph glyph-name="tilde" unicode="&#x2dc;" horiz-adv-x="436" 
d="M291 606q-27 0 -49 9.5t-40.5 22t-35 22t-32.5 9.5q-30 0 -38 -16.5t-11 -36.5h-45q2 31 13.5 57.5t34 43.5t58.5 17q27 0 48.5 -9.5t40 -22t35 -22t32.5 -9.5q29 0 37.5 16.5t11.5 36.5h45q-2 -30 -13.5 -57t-33.5 -44t-58 -17z" />
    <glyph glyph-name="hungarumlaut" unicode="&#x2dd;" horiz-adv-x="452" 
d="M220 619q21 32 45 72.5t40 74.5h107v-10q-10 -17 -35.5 -46t-55 -57.5t-52.5 -46.5h-49v13zM40 619q21 32 45 72.5t40 74.5h107v-10q-10 -17 -36 -46t-55 -57.5t-52 -46.5h-49v13z" />
    <glyph glyph-name="gravecomb" unicode="&#x300;" 
d="M-274 606q-20 14 -43 33.5t-45.5 41.5t-40.5 42t-27 33v10h107q11 -22 25.5 -49t31 -53t30.5 -45v-13h-38z" />
    <glyph glyph-name="acutecomb" unicode="&#x301;" 
d="M-302 619q15 19 31 45t31 53t25 49h107v-10q-9 -13 -27 -33t-40.5 -42t-45.5 -41.5t-43 -33.5h-38v13z" />
    <glyph glyph-name="uni0302" unicode="&#x302;" 
d="M-437 619q16 19 35 45t37 53t28 49h95q11 -22 28.5 -49t37 -53t34.5 -45v-13h-39q-19 11 -38.5 26t-37.5 31.5t-33 32.5q-15 -16 -33 -32.5t-37 -31.5t-38 -26h-39v13z" />
    <glyph glyph-name="tildecomb" unicode="&#x303;" 
d="M-245 606q-27 0 -49 9.5t-40.5 22t-35 22t-32.5 9.5q-30 0 -38 -16.5t-11 -36.5h-45q2 31 13.5 57.5t34 43.5t58.5 17q27 0 48.5 -9.5t40 -22t35 -22t32.5 -9.5q29 0 37.5 16.5t11.5 36.5h45q-2 -30 -13.5 -57t-33.5 -44t-58 -17z" />
    <glyph glyph-name="uni0304" unicode="&#x304;" 
d="M-145 616v59h290v-59h-290z" />
    <glyph glyph-name="uni0306" unicode="&#x306;" 
d="M0 606q-47 0 -78 18.5t-46 50t-16 68.5h46q8 -36 32.5 -52t61.5 -16t61.5 16t32.5 52h46q-1 -37 -16 -68.5t-45.5 -50t-78.5 -18.5z" />
    <glyph glyph-name="uni0307" unicode="&#x307;" 
d="M0 636q-24 0 -40.5 14t-16.5 48q0 35 16.5 48.5t40.5 13.5q23 0 40 -13.5t17 -48.5q0 -34 -17 -48t-40 -14z" />
    <glyph glyph-name="uni0308" unicode="&#x308;" 
d="M95 632q-22 0 -36.5 12.5t-14.5 43.5q0 32 14.5 44t36.5 12q21 0 36 -12t15 -44q0 -31 -15 -43.5t-36 -12.5zM-95 632q-22 0 -36.5 12.5t-14.5 43.5q0 32 14.5 44t36.5 12q21 0 36 -12t15 -44q0 -31 -15 -43.5t-36 -12.5z" />
    <glyph glyph-name="uni030A" unicode="&#x30a;" 
d="M0 596q-50 0 -85 28t-35 81t35 81t85 28t85 -28t35 -81t-35 -81t-85 -28zM0 645q27 0 46.5 14t19.5 46t-19.5 46t-46.5 14t-46.5 -14t-19.5 -46t19.5 -46t46.5 -14z" />
    <glyph glyph-name="uni030B" unicode="&#x30b;" 
d="M32 619q21 32 45 72.5t40 74.5h107v-10q-10 -17 -35.5 -46t-55 -57.5t-52.5 -46.5h-49v13zM-148 619q21 32 45 72.5t40 74.5h107v-10q-10 -17 -36 -46t-55 -57.5t-52 -46.5h-49v13z" />
    <glyph glyph-name="uni030C" unicode="&#x30c;" 
d="M-339 606q-10 23 -28 49.5t-37 52.5t-35 45v13h39q19 -11 38 -26.5t37 -32t33 -32.5q15 16 33 32.5t37.5 32t38.5 26.5h39v-13q-15 -19 -34.5 -45t-37 -52.5t-28.5 -49.5h-95z" />
    <glyph glyph-name="uni0312" unicode="&#x312;" 
d="M-5 432q-31 0 -54 22.5t-23 64.5q0 64 37.5 117t126.5 79v-42q-32 -10 -53.5 -23.5t-31.5 -30t-10 -36.5q0 -15 11 -23t25.5 -15t25.5 -19t11 -35q0 -28 -18.5 -43.5t-46.5 -15.5z" />
    <glyph glyph-name="uni0326" unicode="&#x326;" 
d="M-65 -208q6 22 11 47t10 50.5t9 49.5h97v-10q-9 -21 -23 -48t-30 -54t-30 -48h-44v13z" />
    <glyph glyph-name="uni0327" unicode="&#x327;" 
d="M-27 -240q-10 0 -23.5 1.5t-27.5 4t-26 5.5v51q18 -4 36.5 -6t31.5 -2q29 0 45 15.5t16 40.5q0 29 -21.5 44t-53.5 17l21 78h47l-10 -43q33 -2 54.5 -14t32 -31.5t10.5 -46.5q0 -53 -34 -83.5t-98 -30.5z" />
    <glyph glyph-name="uni0328" unicode="&#x328;" 
d="M30 -240q-64 0 -100.5 26.5t-36.5 83.5q0 31 17 58t43.5 46t57.5 26h57q-21 -6 -42.5 -21.5t-36 -38.5t-14.5 -55q0 -33 19.5 -48t49.5 -15q14 0 29.5 2t33.5 6v-54q-10 -5 -24 -8.5t-28 -5.5t-25 -2z" />
    <glyph glyph-name="uni0964.sinh" unicode="&#x964;" horiz-adv-x="337" 
d="M191 662h64v-727h-64v727z" />
    <glyph glyph-name="uni0965.sinh" unicode="&#x965;" horiz-adv-x="529" 
d="M191 662h64v-727h-64v727zM383 662h64v-727h-64v727z" />
    <glyph glyph-name="uni0D81" unicode="&#xd81;" 
d="M-315 678q-79 0 -121 40.5t-42 114.5q0 14 2 28.5t6 26.5l42 -9q-2 -9 -3 -16.5t-1 -13.5q0 -39 16 -60.5t43 -30.5t58 -9t57.5 9t42.5 30.5t16 60.5q0 7 -1 14t-3 16l42 9q8 -26 8 -55q0 -74 -42 -114.5t-120 -40.5zM-316 785q-22 0 -36 14t-14 37q0 21 14.5 35.5
t36.5 14.5t36 -14.5t14 -35.5q0 -23 -14.5 -37t-36.5 -14z" />
    <glyph glyph-name="anusvarasinh" unicode="&#xd82;" horiz-adv-x="470" 
d="M32 272q0 58 25 103.5t70.5 72.5t108.5 27q62 0 107.5 -26.5t70 -72.5t24.5 -104q0 -102 -54.5 -160t-149.5 -58q-94 0 -148 59t-54 159zM91 282q0 -58 34 -97t109 -39q51 0 83 17.5t47 48t15 69.5q0 68 -39 105.5t-106 37.5q-65 0 -104 -37t-39 -105z" />
    <glyph glyph-name="visargasinh" unicode="&#xd83;" horiz-adv-x="309" 
d="M279 420q0 -56 -34 -88t-90 -32q-62 0 -93.5 34t-31.5 84t33.5 84t90.5 34t91 -31.5t34 -84.5zM224 420q0 28 -17.5 47t-52.5 19q-31 0 -50 -17.5t-19 -50.5q0 -24 16.5 -44t51.5 -20q31 0 51 16t20 50zM279 120q0 -56 -34 -88t-90 -32q-62 0 -93.5 33.5t-31.5 84.5
q0 50 33.5 84t90.5 34t91 -32t34 -84zM224 121q0 27 -17.5 46t-52.5 19q-31 0 -50 -17.5t-19 -50.5q0 -24 16.5 -44t51.5 -20q31 0 51 16.5t20 50.5z" />
    <glyph glyph-name="asinh" unicode="&#xd85;" horiz-adv-x="707" 
d="M327 -10q-95 0 -160 27.5t-98 77.5t-33 117q0 69 28.5 114t77 70.5t109.5 35.5t125 10h67q-6 38 -30 65t-77 27q-34 0 -45 -17t-11 -36q0 -7 1.5 -15.5t2.5 -13.5l-78 -10q-4 8 -7.5 19t-3.5 29q0 49 36 74t90 25q89 0 131.5 -50.5t42.5 -138.5v-9h-122
q-119 0 -177.5 -39.5t-58.5 -134.5q0 -73 50.5 -121t149.5 -48q52 0 95 6t85 20t89 39l22 -53q-47 -22 -90.5 -37.5t-93.5 -24t-117 -8.5zM440 -226v577q0 68 28.5 130.5t80.5 108.5l47 -39q-49 -37 -73.5 -80.5t-24.5 -104.5v-592h-58zM573 250q-31 0 -64 13.5t-56 30.5
l22 52q20 -19 42.5 -31.5t53.5 -12.5q24 0 37.5 10.5t13.5 32.5q0 20 -9 36.5t-31 39.5q-20 22 -30.5 38t-14 29.5t-3.5 25.5l51 37q-2 -5 -3.5 -10t-1.5 -10q0 -12 7 -27t36 -48t44 -58t15 -53q0 -49 -31.5 -72t-77.5 -23z" />
    <glyph glyph-name="aasinh" unicode="&#xd86;" horiz-adv-x="1081" 
d="M327 -10q-95 0 -160 27.5t-98 77.5t-33 117q0 69 28.5 114t77 70.5t109.5 35.5t125 10h67q-6 38 -30 65t-77 27q-34 0 -45 -17t-11 -36q0 -7 1.5 -15.5t2.5 -13.5l-78 -10q-4 8 -7.5 19t-3.5 29q0 49 36 74t90 25q89 0 131.5 -50.5t42.5 -138.5v-9h-122
q-119 0 -177.5 -39.5t-58.5 -134.5q0 -73 50.5 -121t149.5 -48q52 0 95 6t85 20t89 39l22 -53q-47 -22 -90.5 -37.5t-93.5 -24t-117 -8.5zM440 -226v577q0 68 28.5 130.5t80.5 108.5l47 -39q-49 -37 -73.5 -80.5t-24.5 -104.5v-592h-58zM573 250q-31 0 -64 13.5t-56 30.5
l22 52q20 -19 42.5 -31.5t53.5 -12.5q24 0 37.5 10.5t13.5 32.5q0 20 -9 36.5t-31 39.5q-20 22 -30.5 38t-14 29.5t-3.5 25.5l51 37q-2 -5 -3.5 -10t-1.5 -10q0 -12 7 -27t36 -48t44 -58t15 -53q0 -49 -31.5 -72t-77.5 -23zM1039 248q0 -70 -12.5 -119t-35.5 -79.5
t-55.5 -45t-73.5 -14.5q-38 0 -68 13t-52.5 38t-39.5 59l51 25q18 -36 40 -60.5t59 -24.5q33 0 55 21.5t33 67.5t11 119t-11 118.5t-33 66.5t-55 21q-37 0 -59.5 -23.5t-38.5 -57.5l-52 25q27 47 65.5 76.5t94.5 29.5q55 0 94.5 -25.5t61 -82t21.5 -148.5z" />
    <glyph glyph-name="easinh" unicode="&#xd87;" horiz-adv-x="1005" 
d="M327 -10q-95 0 -160 27.5t-98 77.5t-33 117q0 69 28.5 114t77 70.5t109.5 35.5t125 10h67q-6 38 -30 65t-77 27q-34 0 -45 -17t-11 -36q0 -7 1.5 -15.5t2.5 -13.5l-78 -10q-4 8 -7.5 19t-3.5 29q0 49 36 74t90 25q89 0 131.5 -50.5t42.5 -138.5v-9h-122
q-119 0 -177.5 -39.5t-58.5 -134.5q0 -73 50.5 -121t149.5 -48q52 0 95 6t85 20t89 39l22 -53q-47 -22 -90.5 -37.5t-93.5 -24t-117 -8.5zM440 -226v577q0 68 28.5 130.5t80.5 108.5l47 -39q-49 -37 -73.5 -80.5t-24.5 -104.5v-592h-58zM573 250q-31 0 -64 13.5t-56 30.5
l22 52q20 -19 42.5 -31.5t53.5 -12.5q24 0 37.5 10.5t13.5 32.5q0 20 -9 36.5t-31 39.5q-20 22 -30.5 38t-14 29.5t-3.5 25.5l51 37q-2 -5 -3.5 -10t-1.5 -10q0 -12 7 -27t36 -48t44 -58t15 -53q0 -49 -31.5 -72t-77.5 -23zM716 391h244l29 -54q-85 -85 -130.5 -159.5
t-45.5 -165.5q0 -70 31 -103.5t85 -33.5q26 0 46 7t44 23l23 -44q-33 -21 -66 -31.5t-72 -10.5q-49 0 -89.5 18t-64.5 58.5t-24 108.5q0 52 19.5 104t65 111t123.5 131l-3 -9q-15 -1 -34 -2t-43 -1h-138v53z" />
    <glyph glyph-name="aaesinh" unicode="&#xd88;" horiz-adv-x="1005" 
d="M327 -10q-95 0 -160 27.5t-98 77.5t-33 117q0 69 28.5 114t77 70.5t109.5 35.5t125 10h67q-6 38 -30 65t-77 27q-34 0 -45 -17t-11 -36q0 -7 1.5 -15.5t2.5 -13.5l-78 -10q-4 8 -7.5 19t-3.5 29q0 49 36 74t90 25q89 0 131.5 -50.5t42.5 -138.5v-9h-122
q-119 0 -177.5 -39.5t-58.5 -134.5q0 -73 50.5 -121t149.5 -48q52 0 95 6t85 20t89 39l22 -53q-47 -22 -90.5 -37.5t-93.5 -24t-117 -8.5zM440 -226v577q0 68 28.5 130.5t80.5 108.5l47 -39q-49 -37 -73.5 -80.5t-24.5 -104.5v-592h-58zM573 250q-31 0 -64 13.5t-56 30.5
l22 52q20 -19 42.5 -31.5t53.5 -12.5q24 0 37.5 10.5t13.5 32.5q0 20 -9 36.5t-31 39.5q-20 22 -30.5 38t-14 29.5t-3.5 25.5l51 37q-2 -5 -3.5 -10t-1.5 -10q0 -12 7 -27t36 -48t44 -58t15 -53q0 -49 -31.5 -72t-77.5 -23zM895 -181q-46 0 -84.5 16.5t-61.5 49.5t-23 83
q0 53 29.5 95.5t76.5 76t99 60.5l5 -1q-25 -3 -55.5 -5t-83.5 -2h-42l-20 54q55 34 107 61.5t110 51.5l-11 -12q-15 -3 -38.5 -5t-51 -3t-56.5 -1h-79v53h241l22 -59q-24 -17 -56.5 -34.5t-68.5 -34.5t-73 -33l-1 4q19 3 40 4.5t43 2.5t43 1h50l23 -57q-61 -39 -97.5 -70.5
t-52.5 -63.5t-16 -73q0 -48 30 -75.5t82 -27.5q29 0 49.5 7t44.5 23l23 -44q-33 -21 -68 -31.5t-79 -10.5z" />
    <glyph glyph-name="isinh" unicode="&#xd89;" horiz-adv-x="745" 
d="M282 82q-75 0 -129.5 28t-84.5 80.5t-30 127.5q0 84 41.5 144.5t115.5 93.5t173 33q111 0 186.5 -35.5t114 -99t38.5 -147.5q0 -91 -34 -160t-108 -108t-195 -39h-28l1 52h32q91 0 151.5 27t90.5 77t30 119t-31.5 118.5t-95 76t-159.5 26.5q-75 0 -134.5 -19.5t-94 -62.5
t-34.5 -112q0 -57 22.5 -94t63.5 -55.5t95 -18.5q40 0 76 9t60.5 32.5t29.5 66.5l9 -4q-11 -24 -32 -38t-56 -14q-55 0 -86 30.5t-31 79.5q0 43 29.5 76.5t88.5 33.5q32 0 61 -14.5t47 -46.5t18 -85q0 -67 -29.5 -106t-77.5 -55.5t-104 -16.5zM368 237q28 0 44 15t16 46
q0 22 -14 39.5t-47 17.5q-26 0 -43.5 -15.5t-17.5 -41.5q0 -27 15 -44t47 -17zM259 -13q-7 -13 -10.5 -29.5t-3.5 -36.5q0 -58 37 -86t96 -28q42 0 71.5 11.5t45.5 36.5t16 66q0 32 -11.5 59t-29.5 41l54 19q26 -28 36.5 -58.5t10.5 -63.5q0 -79 -51 -121t-145 -42
q-75 0 -118.5 24t-62.5 62.5t-19 81.5q0 23 5 42t14 37z" />
    <glyph glyph-name="iisinh" unicode="&#xd8a;" horiz-adv-x="688" 
d="M344 -10q-145 0 -224 78.5t-79 213.5q0 86 39 151t107.5 102t156.5 37q94 0 162 -38.5t104.5 -104.5t36.5 -147q0 -93 -37 -158.5t-104.5 -99.5t-161.5 -34zM345 95q47 0 90 11t76.5 36t53 66.5t19.5 101.5q0 69 -34 116.5t-88.5 71.5t-117.5 24q-66 0 -120.5 -25.5
t-87 -73.5t-32.5 -116q0 -60 19.5 -100.5t53.5 -65t77.5 -35.5t90.5 -11zM213 535q80 54 155.5 112.5t139.5 113t108 95.5l48 -56q-29 -25 -73 -59t-94 -71t-100.5 -72t-93.5 -62zM392 727q0 -42 -25.5 -66.5t-67.5 -24.5q-47 0 -71 26t-24 63q0 38 25.5 64t68.5 26
t68.5 -23.5t25.5 -64.5zM344 726q0 19 -11 32t-34 13q-21 0 -34 -12.5t-13 -34.5q0 -15 10.5 -29t35.5 -14q21 0 33.5 11.5t12.5 33.5zM681 608q0 -42 -25.5 -66.5t-67.5 -24.5q-47 0 -71 26t-24 63q0 38 25.5 64t68.5 26t68.5 -24t25.5 -64zM633 608q0 18 -11 31t-34 13
q-21 0 -34 -12t-13 -35q0 -15 10 -29t35 -14q21 0 34 12t13 34z" />
    <glyph glyph-name="usinh" unicode="&#xd8b;" horiz-adv-x="766" 
d="M390 -256q-105 0 -175 30t-110.5 78.5t-57.5 106.5t-17 114q0 127 61.5 208.5t174 121t263.5 39.5h81q-7 36 -35.5 64t-81.5 28q-36 0 -49 -17t-13 -36q0 -4 1 -13.5t2 -14.5l-79 -9q-4 9 -6.5 21.5t-2.5 21.5q0 49 36.5 75.5t97.5 26.5q65 0 106 -24.5t61 -67.5t20 -97
v-9h-140q-135 0 -225 -36t-134.5 -104.5t-44.5 -167.5q0 -72 28 -131.5t89.5 -95.5t161.5 -36q103 0 168.5 30.5t96.5 86.5t31 132q0 12 -1 29t-3 33l55 3q2 -15 3.5 -34.5t1.5 -39.5q0 -69 -22 -127t-67 -100t-113.5 -65.5t-161.5 -23.5z" />
    <glyph glyph-name="uusinh" unicode="&#xd8c;" horiz-adv-x="1239" 
d="M390 -256q-105 0 -175 30t-110.5 78.5t-57.5 106.5t-17 114q0 127 61.5 208.5t174 121t263.5 39.5h81q-7 36 -35.5 64t-81.5 28q-36 0 -49 -17t-13 -36q0 -4 1 -13.5t2 -14.5l-79 -9q-4 9 -6.5 21.5t-2.5 21.5q0 49 36.5 75.5t97.5 26.5q65 0 106 -24.5t61 -67.5t20 -97
v-9h-140q-135 0 -225 -36t-134.5 -104.5t-44.5 -167.5q0 -72 28 -131.5t89.5 -95.5t161.5 -36q103 0 168.5 30.5t96.5 86.5t31 132q0 12 -1 29t-3 33l55 3q2 -15 3.5 -34.5t1.5 -39.5q0 -69 -22 -127t-67 -100t-113.5 -65.5t-161.5 -23.5zM1020 -10q-38 0 -68 13t-52.5 38
t-39.5 59l51 25q18 -36 40 -60.5t59 -24.5q33 0 55 21.5t33 67.5t11 119q0 72 -12 117.5t-34.5 67t-55.5 21.5q-34 0 -53 -20.5t-33 -52.5l-59 11q24 50 59 81t90 31q58 0 99.5 -26.5t64 -83t22.5 -146.5q0 -70 -12.5 -119t-35.5 -79.5t-55.5 -45t-73.5 -14.5zM893 223
q-59 0 -95 21t-52.5 56.5t-16.5 77.5q0 46 19 86.5t56 73.5l46 -34q-22 -23 -40.5 -53.5t-18.5 -76.5q0 -23 7.5 -46.5t29.5 -39t67 -15.5q35 0 55 14.5t20 45.5q0 22 -13.5 32t-33.5 10q-7 0 -13 -1t-11 -3l-37 21l27 21q5 2 17 3.5t26 1.5q21 0 42 -7.5t35.5 -26
t14.5 -51.5q0 -47 -31 -78.5t-100 -31.5z" />
    <glyph glyph-name="rvocalicsinh" unicode="&#xd8d;" horiz-adv-x="1208" 
d="M581 -10q-50 0 -85.5 18t-58 49.5t-35.5 71.5q-13 -38 -36.5 -69.5t-58 -50.5t-82.5 -19q-85 0 -134.5 60.5t-49.5 160.5q0 73 32.5 124.5t95.5 79t156 27.5h19l-6 -5q-6 38 -29.5 67.5t-73.5 29.5q-30 0 -45 -13.5t-15 -39.5q0 -8 1.5 -17.5t4.5 -19.5l-72 -18
q-9 14 -14 30t-5 34q0 49 37 74t91 25q57 0 96 -23t59.5 -64t20.5 -97v-14h-70q-61 0 -112 -16t-81 -52t-30 -97q0 -64 35 -97.5t93 -33.5q49 0 78.5 15t45.5 40t23 54h53q4 -34 22 -58.5t48 -37.5t68 -13q62 0 96.5 31.5t34.5 92.5q0 50 -26.5 89t-82.5 61t-147 22h-16v6
q0 59 22 102t60 66.5t86 23.5q46 0 74.5 -15.5t42 -43t13.5 -62.5q0 -19 -3.5 -36.5t-9.5 -34.5l-50 16q5 11 7 24t2 23q0 23 -10 38.5t-28.5 23t-44.5 7.5q-45 0 -70 -25t-34 -66l-23 4q59 0 112.5 -13t95 -41.5t66 -73.5t24.5 -109q0 -65 -20.5 -113.5t-59.5 -75
t-97 -26.5zM942 -4q-67 0 -100 36.5t-33 96.5q0 55 29 89t82.5 49.5t124.5 15.5h82l-4 -51h-91q-42 0 -78.5 -9t-59 -30.5t-22.5 -60.5q0 -26 9 -44t27.5 -27t48.5 -9q26 0 50 8t47 25l65 -29l-18 -56l-46 25q-27 -14 -51.5 -21.5t-61.5 -7.5zM987 504q45 0 78 -17.5
t55 -49.5q12 -18 20.5 -42.5t13 -65.5t4.5 -108v-221h-57l-18 41l-5 12v209q0 54 -7.5 97.5t-29 69t-65.5 25.5q-39 0 -62 -23.5t-39 -57.5l-52 25q27 47 66 76.5t98 29.5z" />
    <glyph glyph-name="rrvocalicsinh" unicode="&#xd8e;" horiz-adv-x="1617" 
d="M581 -10q-50 0 -85.5 18t-58 49.5t-35.5 71.5q-13 -38 -36.5 -69.5t-58 -50.5t-82.5 -19q-85 0 -134.5 60.5t-49.5 160.5q0 73 32.5 124.5t95.5 79t156 27.5h19l-6 -5q-6 38 -29.5 67.5t-73.5 29.5q-30 0 -45 -13.5t-15 -39.5q0 -8 1.5 -17.5t4.5 -19.5l-72 -18
q-9 14 -14 30t-5 34q0 49 37 74t91 25q57 0 96 -23t59.5 -64t20.5 -97v-14h-70q-61 0 -112 -16t-81 -52t-30 -97q0 -64 35 -97.5t93 -33.5q49 0 78.5 15t45.5 40t23 54h53q4 -34 22 -58.5t48 -37.5t68 -13q62 0 96.5 31.5t34.5 92.5q0 50 -26.5 89t-82.5 61t-147 22h-16v6
q0 59 22 102t60 66.5t86 23.5q46 0 74.5 -15.5t42 -43t13.5 -62.5q0 -19 -3.5 -36.5t-9.5 -34.5l-50 16q5 11 7 24t2 23q0 23 -10 38.5t-28.5 23t-44.5 7.5q-45 0 -70 -25t-34 -66l-23 4q59 0 112.5 -13t95 -41.5t66 -73.5t24.5 -109q0 -65 -20.5 -113.5t-59.5 -75
t-97 -26.5zM942 -4q-67 0 -100 36.5t-33 96.5q0 55 29 89t82.5 49.5t124.5 15.5h82l-4 -51h-91q-42 0 -78.5 -9t-59 -30.5t-22.5 -60.5q0 -26 9 -44t27.5 -27t48.5 -9q26 0 50 8t47 25l65 -29l-18 -56l-46 25q-27 -14 -51.5 -21.5t-61.5 -7.5zM987 504q45 0 78 -17.5
t55 -49.5q12 -18 20.5 -42.5t13 -65.5t4.5 -108v-221h-57l-18 41l-5 12v209q0 54 -7.5 97.5t-29 69t-65.5 25.5q-39 0 -62 -23.5t-39 -57.5l-52 25q27 47 66 76.5t98 29.5zM1351 -4q-67 0 -100 36.5t-33 96.5q0 55 29 89t82.5 49.5t124.5 15.5h82l-4 -51h-91q-42 0 -78.5 -9
t-59 -30.5t-22.5 -60.5q0 -26 9 -44t27.5 -27t48.5 -9q26 0 50 8t47 25l65 -29l-18 -56l-46 25q-27 -14 -51.5 -21.5t-61.5 -7.5zM1396 504q45 0 78 -17.5t55 -49.5q12 -18 20.5 -42.5t13 -65.5t4.5 -108v-221h-57l-18 41l-5 12v209q0 54 -7.5 97.5t-29 69t-65.5 25.5
q-39 0 -62 -23.5t-39 -57.5l-52 25q27 47 66 76.5t98 29.5z" />
    <glyph glyph-name="lvocalicsinh" unicode="&#xd8f;" horiz-adv-x="1058" 
d="M788 427q2 9 3 18t1 15q0 23 -10 38.5t-28.5 23t-44.5 7.5q-45 0 -70 -25t-34 -66l-8 4h14q92 0 150 -24t85.5 -69.5t27.5 -110.5q0 -116 -88 -182t-258 -66q-169 0 -256.5 66t-87.5 183q0 65 27.5 110t86 69t149.5 24h19l-6 -5q-6 38 -29.5 67.5t-73.5 29.5
q-30 0 -45 -13.5t-15 -39.5q0 -8 1.5 -17.5t4.5 -19.5l-68 -18q-9 14 -14 30t-5 34q0 33 18 55t46.5 33t59.5 11q57 0 96 -23t59.5 -64t20.5 -97v-14h-62q-64 0 -111.5 -12t-73 -41.5t-25.5 -82.5q0 -79 72.5 -119.5t211.5 -40.5q95 0 158.5 18.5t95.5 54t32 87.5
q0 53 -25.5 82.5t-72.5 41.5t-112 12h-56v5q0 59 21.5 102.5t60 67t87.5 23.5q39 0 68 -15.5t45 -43t16 -62.5q0 -13 -1.5 -26.5t-5.5 -27.5zM40 329q0 66 22.5 114.5t60.5 81t86 48.5t100 16q12 0 24 -1.5t24 -3.5l-32 -42q-7 0 -13.5 0.5t-12.5 0.5q-49 0 -95 -24.5
t-75 -73t-29 -121.5q0 -80 33 -140t86 -105l-37 -38q-63 53 -102.5 124t-39.5 164zM1018 338q0 -66 -18 -120.5t-50 -98t-74 -78.5l-37 38q53 45 86 105.5t33 144.5q0 73 -27.5 120.5t-70.5 70.5t-91 23q-13 0 -21 -0.5t-15 -0.5l-32 42q12 2 25 3.5t30 1.5q51 0 98 -16
t84 -47.5t58.5 -78.5t21.5 -109z" />
    <glyph glyph-name="llvocalicsinh" unicode="&#xd90;" horiz-adv-x="1588" 
d="M788 427q2 9 3 18t1 15q0 23 -10 38.5t-28.5 23t-44.5 7.5q-45 0 -70 -25t-34 -66l-8 4h14q92 0 150 -24t85.5 -69.5t27.5 -110.5q0 -116 -88 -182t-258 -66q-169 0 -256.5 66t-87.5 183q0 65 27.5 110t86 69t149.5 24h19l-6 -5q-6 38 -29.5 67.5t-73.5 29.5
q-30 0 -45 -13.5t-15 -39.5q0 -8 1.5 -17.5t4.5 -19.5l-68 -18q-9 14 -14 30t-5 34q0 33 18 55t46.5 33t59.5 11q57 0 96 -23t59.5 -64t20.5 -97v-14h-62q-64 0 -111.5 -12t-73 -41.5t-25.5 -82.5q0 -79 72.5 -119.5t211.5 -40.5q95 0 158.5 18.5t95.5 54t32 87.5
q0 53 -25.5 82.5t-72.5 41.5t-112 12h-56v5q0 59 21.5 102.5t60 67t87.5 23.5q39 0 68 -15.5t45 -43t16 -62.5q0 -13 -1.5 -26.5t-5.5 -27.5zM40 329q0 66 22.5 114.5t60.5 81t86 48.5t100 16q12 0 24 -1.5t24 -3.5l-32 -42q-7 0 -13.5 0.5t-12.5 0.5q-49 0 -95 -24.5
t-75 -73t-29 -121.5q0 -80 33 -140t86 -105l-37 -38q-63 53 -102.5 124t-39.5 164zM1018 338q0 -66 -18 -120.5t-50 -98t-74 -78.5l-37 38q53 45 86 105.5t33 144.5q0 73 -27.5 120.5t-70.5 70.5t-91 23q-13 0 -21 -0.5t-15 -0.5l-32 42q12 2 25 3.5t30 1.5q51 0 98 -16
t84 -47.5t58.5 -78.5t21.5 -109zM1369 -10q-38 0 -68 13t-52.5 38t-39.5 59l51 25q18 -36 40 -60.5t59 -24.5q33 0 55 21.5t33 67.5t11 119q0 72 -12 117.5t-34.5 67t-55.5 21.5q-34 0 -53 -20.5t-33 -52.5l-59 11q24 50 59 81t90 31q58 0 99.5 -26.5t64 -83t22.5 -146.5
q0 -70 -12.5 -119t-35.5 -79.5t-55.5 -45t-73.5 -14.5zM1242 223q-59 0 -95 21t-52.5 56.5t-16.5 77.5q0 46 19 86.5t56 73.5l46 -34q-22 -23 -40.5 -53.5t-18.5 -76.5q0 -23 7.5 -46.5t29.5 -39t67 -15.5q35 0 55 14.5t20 45.5q0 22 -13.5 32t-33.5 10q-7 0 -13 -1t-11 -3
l-37 21l27 21q5 2 17 3.5t26 1.5q21 0 42 -7.5t35.5 -26t14.5 -51.5q0 -47 -31 -78.5t-100 -31.5z" />
    <glyph glyph-name="esinh" unicode="&#xd91;" horiz-adv-x="796" 
d="M355 -10q-102 0 -168 27.5t-98 78t-32 118.5q0 74 46.5 128.5t119.5 73.5l-20 -19q-14 -2 -39 -3.5t-53.5 -2t-51.5 -0.5h-35v51h349q-4 23 -15.5 44t-32.5 34.5t-54 13.5q-30 0 -45 -13.5t-15 -39.5q0 -4 1 -10.5t2 -11.5l-82 -7q-3 8 -4.5 20t-1.5 18q0 49 37 74t91 25
q57 0 96 -23t59.5 -64t20.5 -97v-14h-189l45 7q-53 -12 -90.5 -34t-57 -53t-19.5 -71q0 -43 21 -76t71.5 -51t138.5 -18q99 0 165 27t105.5 72t56 101t16.5 113q0 99 -33.5 164.5t-91 104.5t-131 57t-153.5 22l7 56q96 -7 180 -33.5t148.5 -75.5t100.5 -123.5t36 -176.5
q0 -119 -43 -212.5t-131.5 -147t-226.5 -53.5zM476 556q-43 0 -69.5 18.5t-41.5 49.5t-24 66q-6 26 -14 40t-16 20.5t-16 8.5l12 38q37 -19 58 -41.5t31 -59.5q11 -41 30.5 -60t56.5 -19q35 0 56.5 23t36.5 69l49 -29q-13 -32 -32 -60.5t-47.5 -46t-69.5 -17.5z" />
    <glyph glyph-name="eesinh" unicode="&#xd92;" horiz-adv-x="796" 
d="M496 963q23 0 43.5 -16t27.5 -46h11v-65l-3 -17q2 -22 2.5 -35t0.5 -36v-45l-49 35q-2 26 -2.5 48t-0.5 43v19q0 38 -15 50.5t-30 12.5q-9 0 -15 -0.5t-9 -1.5l-8 45q8 4 18.5 6.5t28.5 2.5zM632 963q42 0 64.5 -27.5t22.5 -69.5t-21.5 -69.5t-66.5 -27.5q-21 0 -43 11.5
t-32 34.5l18 47q5 -21 16.5 -34.5t35.5 -13.5q20 0 30.5 13t10.5 38q0 26 -10.5 40t-32.5 14q-19 0 -31.5 -13t-17.5 -34l-38 24q15 31 39.5 49t55.5 18zM355 -10q-102 0 -168 27.5t-98 78t-32 118.5q0 74 46.5 128.5t119.5 73.5l-20 -19q-14 -2 -39 -3.5t-53.5 -2
t-51.5 -0.5h-35v51h349q-4 23 -15.5 44t-32.5 34.5t-54 13.5q-30 0 -45 -13.5t-15 -39.5q0 -4 1 -10.5t2 -11.5l-82 -7q-3 8 -4.5 20t-1.5 18q0 49 37 74t91 25q57 0 96 -23t59.5 -64t20.5 -97v-14h-189l45 7q-53 -12 -90.5 -34t-57 -53t-19.5 -71q0 -43 21 -76t71.5 -51
t138.5 -18q99 0 165 27t105.5 72t56 101t16.5 113q0 99 -33.5 164.5t-91 104.5t-131 57t-153.5 22l7 56q96 -7 180 -33.5t148.5 -75.5t100.5 -123.5t36 -176.5q0 -119 -43 -212.5t-131.5 -147t-226.5 -53.5zM476 556q-43 0 -69.5 18.5t-41.5 49.5t-24 66q-6 26 -14 40
t-16 20.5t-16 8.5l12 38q37 -19 58 -41.5t31 -59.5q11 -41 30.5 -60t56.5 -19q35 0 56.5 23t36.5 69l49 -29q-13 -32 -32 -60.5t-47.5 -46t-69.5 -17.5z" />
    <glyph glyph-name="aisinh" unicode="&#xd93;" horiz-adv-x="1431" 
d="M40 270q0 79 36.5 138.5t104.5 92.5t164 33q61 0 107 -8.5t84 -23.5t74 -35l-28 -49q-45 30 -104 47.5t-132 17.5q-70 0 -126 -22t-88 -67.5t-32 -114.5q0 -54 23.5 -98t74.5 -69.5t135 -25.5q81 0 126 20.5t63 52.5t18 67q0 41 -31.5 76t-102.5 44l4 4q23 -13 32 -34
t9 -41q0 -34 -14.5 -57.5t-40.5 -35.5t-62 -12q-57 0 -88 30.5t-31 79.5q0 53 39.5 85.5t115.5 32.5t126 -25t75.5 -66.5t25.5 -92.5q0 -65 -29 -115.5t-86.5 -79.5t-145.5 -29q-105 0 -170 38t-95.5 102t-30.5 140zM394 282q0 22 -14 39.5t-47 17.5q-26 0 -43.5 -15.5
t-17.5 -41.5q0 -27 15 -44t47 -17q28 0 44 15t16 46zM990 -10q-102 0 -168 27.5t-98 78t-32 118.5q0 74 46.5 128.5t119.5 73.5l-20 -19q-14 -2 -39 -3.5t-53.5 -2t-51.5 -0.5h-35v51h349q-4 23 -15.5 44t-32.5 34.5t-54 13.5q-30 0 -45 -13.5t-15 -39.5q0 -4 1 -10.5
t2 -11.5l-82 -7q-3 8 -4.5 20t-1.5 18q0 49 37 74t91 25q57 0 96 -23t59.5 -64t20.5 -97v-14h-189l45 7q-53 -12 -90.5 -34t-57 -53t-19.5 -71q0 -43 21 -76t71.5 -51t138.5 -18q99 0 165 27t105.5 72t56 101t16.5 113q0 99 -33.5 164.5t-91 104.5t-131 57t-153.5 22l7 56
q96 -7 180 -33.5t148.5 -75.5t100.5 -123.5t36 -176.5q0 -119 -43 -212.5t-131.5 -147t-226.5 -53.5zM1111 556q-43 0 -69.5 18.5t-41.5 49.5t-24 66q-6 26 -14 40t-16 20.5t-16 8.5l12 38q37 -19 58 -41.5t31 -59.5q11 -41 30.5 -60t56.5 -19q35 0 56.5 23t36.5 69l49 -29
q-13 -32 -32 -60.5t-47.5 -46t-69.5 -17.5z" />
    <glyph glyph-name="osinh" unicode="&#xd94;" horiz-adv-x="862" 
d="M597 -10q-79 0 -122 37.5t-65 101.5q-11 -35 -33 -67t-56 -52t-82 -20q-58 0 -101.5 28t-68 88.5t-24.5 157.5q0 99 26.5 164t65.5 97t77 32q34 0 51 -11.5t23 -27.5t6 -31q0 -22 -5 -42.5t-5 -52.5q0 -35 18.5 -58t50.5 -34t74 -11q71 0 108 32.5t37 90.5q0 41 -18 68
t-42 41l1 3q20 -15 27.5 -35t7.5 -40q0 -46 -29.5 -71.5t-78.5 -25.5q-38 0 -64 13.5t-39 38t-13 56.5q0 31 14 56t42.5 40t73.5 15q52 0 91 -20.5t61 -57t22 -84.5q0 -61 -26.5 -101t-71.5 -60t-100 -20q-102 0 -152 45t-50 113q0 19 2 32.5t4.5 26.5t2.5 28q0 11 -5 19.5
t-23 8.5q-17 0 -42 -22.5t-43.5 -71.5t-18.5 -129q0 -45 13 -87t44 -69t83 -27q46 0 73.5 15t43 40t22.5 54h53q4 -36 23.5 -60.5t51.5 -36.5t71 -12q46 0 84.5 22.5t62.5 80.5t24 163q0 92 -21.5 164.5t-65.5 123t-111.5 77t-158.5 26.5t-167 -23.5t-146 -75.5l-34 46
q45 31 95 54.5t111.5 37t140.5 13.5q98 0 176 -28t132.5 -85t83 -143t28.5 -203q0 -100 -17 -168.5t-47 -109.5t-70 -59t-86 -18zM500 461q0 23 -14 40t-46 17q-27 0 -43 -16t-16 -40q0 -28 14 -43.5t45 -15.5q33 0 46.5 17.5t13.5 40.5z" />
    <glyph glyph-name="oosinh" unicode="&#xd95;" horiz-adv-x="862" 
d="M597 -10q-79 0 -122 37.5t-65 101.5q-11 -35 -33 -67t-56 -52t-82 -20q-58 0 -101.5 28t-68 88.5t-24.5 157.5q0 99 26.5 164t65.5 97t77 32q34 0 51 -11.5t23 -27.5t6 -31q0 -22 -5 -42.5t-5 -52.5q0 -35 18.5 -58t50.5 -34t74 -11q71 0 108 32.5t37 90.5q0 41 -18 68
t-42 41l1 3q20 -15 27.5 -35t7.5 -40q0 -46 -29.5 -71.5t-78.5 -25.5q-38 0 -64 13.5t-39 38t-13 56.5q0 31 14 56t42.5 40t73.5 15q52 0 91 -20.5t61 -57t22 -84.5q0 -61 -26.5 -101t-71.5 -60t-100 -20q-102 0 -152 45t-50 113q0 19 2 32.5t4.5 26.5t2.5 28q0 11 -5 19.5
t-23 8.5q-17 0 -42 -22.5t-43.5 -71.5t-18.5 -129q0 -45 13 -87t44 -69t83 -27q46 0 73.5 15t43 40t22.5 54h53q4 -36 23.5 -60.5t51.5 -36.5t71 -12q46 0 84.5 21.5t62.5 72.5t24 139q0 81 -20.5 144.5t-65 108t-116.5 67.5t-174 23q-59 0 -107 -5t-93 -14.5t-96 -25.5
l-16 52q78 23 151 34t165 11q106 0 187 -25t136.5 -76t83.5 -129t28 -183q0 -88 -17 -149t-47 -99t-70 -55t-86 -17zM500 461q0 23 -14 40t-46 17q-27 0 -43 -16t-16 -40q0 -28 14 -43.5t45 -15.5q33 0 46.5 17.5t13.5 40.5zM400 945q110 0 178.5 -18.5t105 -47.5t50 -62.5
t13.5 -64.5q0 -35 -9.5 -61.5t-27 -46.5t-41.5 -36l-60 42q41 10 62.5 33.5t21.5 57.5q0 24 -13.5 46.5t-46 40.5t-90 29t-145.5 11q-81 0 -126.5 -12t-64 -33t-18.5 -47q0 -27 12.5 -49.5t42.5 -39.5l-49 -23q-30 26 -47 56t-17 68q0 33 15.5 61.5t48.5 50t84 33.5t121 12z
" />
    <glyph glyph-name="ausinh" unicode="&#xd96;" horiz-adv-x="1392" 
d="M597 -10q-79 0 -122 37.5t-65 101.5q-11 -35 -33 -67t-56 -52t-82 -20q-58 0 -101.5 28t-68 88.5t-24.5 157.5q0 99 26.5 164t65.5 97t77 32q34 0 51 -11.5t23 -27.5t6 -31q0 -22 -5 -42.5t-5 -52.5q0 -35 18.5 -58t50.5 -34t74 -11q71 0 108 32.5t37 90.5q0 41 -18 68
t-42 41l1 3q20 -15 27.5 -35t7.5 -40q0 -46 -29.5 -71.5t-78.5 -25.5q-38 0 -64 13.5t-39 38t-13 56.5q0 31 14 56t42.5 40t73.5 15q52 0 91 -20.5t61 -57t22 -84.5q0 -61 -26.5 -101t-71.5 -60t-100 -20q-102 0 -152 45t-50 113q0 19 2 32.5t4.5 26.5t2.5 28q0 11 -5 19.5
t-23 8.5q-17 0 -42 -22.5t-43.5 -71.5t-18.5 -129q0 -45 13 -87t44 -69t83 -27q46 0 73.5 15t43 40t22.5 54h53q4 -36 23.5 -60.5t51.5 -36.5t71 -12q46 0 84.5 22.5t62.5 80.5t24 163q0 92 -21.5 164.5t-65.5 123t-111.5 77t-158.5 26.5t-167 -23.5t-146 -75.5l-34 46
q45 31 95 54.5t111.5 37t140.5 13.5q98 0 176 -28t132.5 -85t83 -143t28.5 -203q0 -100 -17 -168.5t-47 -109.5t-70 -59t-86 -18zM500 461q0 23 -14 40t-46 17q-27 0 -43 -16t-16 -40q0 -28 14 -43.5t45 -15.5q33 0 46.5 17.5t13.5 40.5zM1173 -10q-38 0 -68 13t-52.5 38
t-39.5 59l51 25q18 -36 40 -60.5t59 -24.5q33 0 55 21.5t33 67.5t11 119q0 72 -12 117.5t-34.5 67t-55.5 21.5q-34 0 -53 -20.5t-33 -52.5l-59 11q24 50 59 81t90 31q58 0 99.5 -26.5t64 -83t22.5 -146.5q0 -70 -12.5 -119t-35.5 -79.5t-55.5 -45t-73.5 -14.5zM1046 223
q-59 0 -95 21t-52.5 56.5t-16.5 77.5q0 46 19 86.5t56 73.5l46 -34q-22 -23 -40.5 -53.5t-18.5 -76.5q0 -23 7.5 -46.5t29.5 -39t67 -15.5q35 0 55 14.5t20 45.5q0 22 -13.5 32t-33.5 10q-7 0 -13 -1t-11 -3l-37 21l27 21q5 2 17 3.5t26 1.5q21 0 42 -7.5t35.5 -26
t14.5 -51.5q0 -47 -31 -78.5t-100 -31.5z" />
    <glyph glyph-name="kasinh" unicode="&#xd9a;" horiz-adv-x="1007" 
d="M523 -10q-51 0 -89.5 30.5t-51.5 88.5q-11 -33 -29 -60t-45.5 -43t-69.5 -16q-44 0 -74.5 22.5t-45.5 60t-15 80.5q0 17 1.5 29t5.5 25l25 -50l-75 10l12 44l18 9l70 -6q-2 -6 -3 -12.5t-1 -14.5q0 -52 24.5 -72t66.5 -20q55 0 81.5 28t26.5 77h51q2 -40 17.5 -63
t41.5 -32.5t58 -9.5q36 0 59.5 12t35 37t11.5 63q0 33 -12 65.5t-39 59.5t-72 43t-112 16q-55 0 -87.5 -2t-53.5 -5l11 40q23 5 63 11.5t77 6.5q139 0 210 -65t71 -178q0 -64 -18.5 -111t-54.5 -72.5t-89 -25.5zM748 -8q-25 0 -49 3.5t-42 11.5l13 50q11 -5 28.5 -9t40.5 -4
q60 0 95.5 25.5t51.5 69.5t16 99q0 89 -37 148t-102.5 88.5t-151.5 29.5q-51 0 -94.5 -6t-85.5 -22t-89 -47l-27 -21q-55 -40 -117 -99t-138 -142l-43 34q110 113 194 188t153 119t133.5 62.5t135.5 18.5q84 0 147 -25t104 -69.5t61.5 -103.5t20.5 -127q0 -82 -24.5 -143.5
t-73 -95t-120.5 -33.5zM163 571q41 0 70.5 -19t50 -49t32.5 -64l-49 -20q-17 46 -39 70.5t-55 24.5q-31 0 -42.5 -21.5t-11.5 -42.5t4.5 -37t9.5 -27l-76 -19q-10 15 -16.5 37.5t-6.5 43.5q0 62 37 92.5t92 30.5z" />
    <glyph glyph-name="khasinh" unicode="&#xd9b;" horiz-adv-x="863" 
d="M261 -10q-64 0 -114 32.5t-78 91t-28 135.5q0 76 23.5 132t64 93t92 55.5t106.5 18.5q78 0 131.5 -29.5t81.5 -80t28 -114.5q0 -46 -15.5 -94t-37.5 -90l-13 -24q-16 -31 -29 -62t-26 -63l-55 20q17 38 31.5 67t30.5 60q20 36 31.5 76.5t11.5 71.5q0 84 -50.5 126.5
t-131.5 42.5q-63 0 -111.5 -26t-75.5 -75.5t-27 -120.5q0 -41 7.5 -70.5t22 -52.5t35.5 -46l3 -9q-9 7 -15 17.5t-9 23t-3 23.5q0 35 16 59.5t42.5 37.5t59.5 13q62 0 94.5 -33t32.5 -85q0 -57 -33.5 -89t-92.5 -32zM634 -10q-50 0 -76 23.5t-35.5 58t-10.5 66.5l21 -30
l-73 2l22 60l78 -1q1 -22 8 -39.5t22.5 -27.5t41.5 -10q20 0 41.5 10.5t40 38t30 77.5t11.5 129q0 126 -39 217t-119.5 139.5t-203.5 48.5q-96 0 -171.5 -24.5t-146.5 -74.5l-34 46q47 31 97.5 54.5t112.5 37t142 13.5q99 0 177.5 -29t134 -87.5t84.5 -146t29 -204.5
q0 -100 -15 -167t-41 -106.5t-59 -56.5t-69 -17zM260 178q-30 0 -48.5 -17.5t-18.5 -52.5q0 -25 15.5 -45t52.5 -20q30 0 49.5 17.5t19.5 47.5q0 32 -16.5 51t-53.5 19z" />
    <glyph glyph-name="gasinh" unicode="&#xd9c;" horiz-adv-x="900" 
d="M599 -8q-29 0 -54.5 3t-42.5 7l13 52q18 -5 36.5 -7.5t46.5 -2.5q63 0 106.5 26t66.5 75t23 118q0 71 -22 124.5t-64.5 83.5t-105.5 30q-81 0 -130.5 -47.5t-71.5 -136.5l-29 12q9 2 20 3.5t24 1.5q37 0 65.5 -13.5t45 -44t16.5 -81.5q0 -35 -12 -71t-39.5 -66.5
t-72.5 -49t-110 -18.5q-87 0 -146.5 36.5t-90 102.5t-30.5 153q0 103 39 171t106 102t150 34q14 0 32 -1t29 -3l-4 -52q-10 2 -24 3t-32 1q-70 0 -123 -28t-82.5 -81t-29.5 -129q0 -60 22 -106t68 -72t118 -26q67 0 104.5 17.5t53 44t15.5 53.5q0 46 -22.5 60t-53.5 14
q-6 0 -12 -0.5t-14 -1.5l-37 10q23 151 95.5 224t175.5 73q60 0 105.5 -23t76 -64.5t46 -96t15.5 -117.5t-13 -111.5t-37 -83.5t-56 -57.5t-71 -33t-82 -10.5z" />
    <glyph glyph-name="ghasinh" unicode="&#xd9d;" horiz-adv-x="800" 
d="M250 -10q-91 0 -146.5 48.5t-55.5 148.5q0 45 13 82t36.5 65t55.5 48.5t70 32.5l-7 -18q-14 -2 -39 -3.5t-53.5 -2t-51.5 -0.5h-48v51h314q-4 23 -15.5 44t-32.5 34.5t-54 13.5q-30 0 -45 -13.5t-15 -39.5q0 -4 1 -10.5t2 -11.5l-82 -7q-3 8 -4.5 20t-1.5 18q0 49 37 74
t91 25q57 0 96 -23t59.5 -64t20.5 -97v-14h-142l58 6q-103 -14 -152 -64.5t-49 -118.5q0 -48 17.5 -75.5t46.5 -39t64 -11.5q28 0 47.5 2t38.5 7l42 -87q-19 -9 -50.5 -14.5t-65.5 -5.5zM557 -10q-33 0 -64.5 6.5t-51.5 13.5l43 88q21 -6 42 -8t42 -2q39 0 68.5 13t46 41.5
t16.5 73.5q0 52 -26.5 91t-82.5 61.5t-147 22.5h-16v6q0 59 22 102t60 66.5t86 23.5q46 0 74.5 -15.5t42 -43t13.5 -62.5q0 -19 -3.5 -36.5t-9.5 -34.5l-50 16q5 11 7 24t2 23q0 23 -10 38.5t-28.5 23t-44.5 7.5q-45 0 -70 -25t-34 -66l-23 4q59 0 112.5 -13.5t95 -42
t66 -74.5t24.5 -111q0 -64 -20.5 -111.5t-65 -73.5t-116.5 -26zM403 208q-49 0 -66.5 -17.5t-17.5 -38.5q0 -16 7.5 -28t22.5 -24l17 -90l-43 53q-29 16 -46.5 39t-17.5 54q0 34 17.5 57t50 35t76.5 12q45 0 77.5 -12t50 -35t17.5 -57q0 -32 -16.5 -54t-45.5 -38l-45 -54
l17 90q14 10 22 23t8 29q0 21 -17.5 38.5t-67.5 17.5z" />
    <glyph glyph-name="ngasinh" unicode="&#xd9e;" horiz-adv-x="853" 
d="M599 -10q-76 0 -118 37.5t-64 101.5q-11 -35 -35 -67t-60.5 -52t-86.5 -20q-57 0 -98 20t-63 58.5t-22 95.5q0 58 24.5 94t69.5 60t106 45q66 23 100.5 38.5t47 30.5t12.5 35q0 36 -39 53t-96 17q-52 0 -84 -5.5t-54 -14.5l-10 18q6 2 16.5 2.5t17.5 0.5q41 0 67 -25.5
t26 -66.5q0 -59 -35.5 -84t-83.5 -25q-51 0 -84 29t-33 84q0 39 28 70.5t84.5 50t141.5 18.5q100 0 149 -34t49 -83q0 -35 -16.5 -60.5t-61 -48t-127.5 -50.5q-44 -15 -79 -31t-54.5 -39.5t-19.5 -61.5q0 -44 32 -65t87 -21t86.5 15.5t48 40.5t23.5 53h53q4 -36 23.5 -60.5
t50 -36.5t67.5 -12q43 0 79.5 22t59 80t22.5 164q0 92 -21.5 164.5t-64.5 123t-108 77t-151 26.5q-79 0 -153.5 -23.5t-144.5 -75.5l-34 46q45 31 94.5 54.5t107.5 37t130 13.5q94 0 169 -28t128.5 -85t82 -143t28.5 -203q0 -100 -16 -168.5t-44.5 -109.5t-67 -59t-82.5 -18
zM199 449q0 22 -14 39.5t-47 17.5q-26 0 -43.5 -15.5t-17.5 -41.5q0 -27 15 -44t47 -17q28 0 44 15t16 46z" />
    <glyph glyph-name="nngasinh" unicode="&#xd9f;" horiz-adv-x="1054" 
d="M754 -8q-29 0 -54.5 3t-42.5 7l13 52q18 -5 36.5 -7.5t46.5 -2.5q63 0 106.5 26t66.5 75t23 118q0 71 -22 124.5t-64.5 83.5t-105.5 30q-81 0 -130.5 -47.5t-71.5 -136.5l-29 12q9 2 20 3.5t24 1.5q37 0 65.5 -13.5t45 -44t16.5 -81.5q0 -35 -12.5 -71t-40 -66.5t-72 -49
t-109.5 -18.5q-84 0 -141 35.5t-86 99t-29 147.5q0 65 19 116t56 86.5t89.5 54.5t118.5 19h7t8 -1l11 19l-16 -61h-7.5h-7.5q-54 0 -94.5 -17t-67.5 -47.5t-41 -70.5t-14 -86q0 -50 20.5 -93.5t64.5 -69.5t113 -26q67 0 104 17.5t52.5 44t15.5 53.5q0 46 -22.5 60t-53.5 14
q-6 0 -12 -0.5t-14 -1.5l-37 10q23 151 95.5 224t175.5 73q60 0 105.5 -23t76 -64.5t46 -96t15.5 -117.5t-13 -111.5t-37 -83.5t-56 -57.5t-71 -33t-82 -10.5zM45 305q0 76 24.5 130t67 88t97 50t114.5 16q40 0 83.5 -6t84.5 -17l-20 -38q-23 5 -48 7.5t-49 3.5t-46 1
q-71 0 -127.5 -26t-88.5 -79.5t-32 -137.5q0 -72 23.5 -129t60.5 -117l-50 -27q-36 56 -65 127.5t-29 153.5z" />
    <glyph glyph-name="casinh" unicode="&#xda0;" horiz-adv-x="792" 
d="M349 -10q-99 0 -165 27.5t-98.5 79t-32.5 122.5q0 47 21.5 87t59 69t85.5 41l-20 -19q-14 -2 -39 -3.5t-53.5 -2t-51.5 -0.5h-35v51h349q-4 23 -15.5 44t-32.5 34.5t-54 13.5q-30 0 -45 -13.5t-15 -39.5q0 -4 1 -10.5t2 -11.5l-82 -7q-3 8 -4.5 20t-1.5 18q0 49 37 74
t91 25q57 0 96 -23t59.5 -64t20.5 -97v-14h-189l45 7q-53 -12 -90.5 -34t-57 -51.5t-19.5 -67.5q0 -46 22 -79.5t72 -52t135 -18.5q100 0 166.5 27.5t105.5 74.5t56 105.5t17 119.5q0 95 -29 158.5t-76.5 101t-104 54t-112.5 16.5q-76 0 -148.5 -22t-145.5 -77l-34 46
q45 31 93.5 54.5t105.5 37t124 13.5q76 0 146 -22.5t125 -70.5t87 -124.5t32 -184.5q0 -86 -24 -160.5t-73 -131t-125 -88.5t-181 -32z" />
    <glyph glyph-name="chasinh" unicode="&#xda1;" horiz-adv-x="772" 
d="M385 -10q-169 0 -256.5 66.5t-87.5 184.5q0 64 27.5 108.5t86 68.5t149.5 24h19l-6 -5q-6 38 -29.5 67.5t-73.5 29.5q-31 0 -45.5 -13.5t-14.5 -39.5q0 -8 1.5 -17.5t4.5 -19.5l-72 -18q-10 14 -14.5 30.5t-4.5 33.5q0 49 37 74t91 25q57 0 96 -23t59.5 -64t20.5 -97v-14
h-62q-63 0 -110.5 -12t-73.5 -41.5t-26 -81.5q0 -79 72.5 -120t211.5 -41q95 0 158.5 18.5t95.5 54t32 87.5q0 53 -25.5 82.5t-72.5 41.5t-112 12h-24v39q0 47 20 83t52.5 56t69.5 20q45 0 73 -20.5t41 -54.5t13 -77q0 -51 -18.5 -96t-56.5 -73.5t-97 -28.5q-38 0 -67 17
t-45.5 53.5t-16.5 96.5q0 75 28 138.5t74 112.5t100.5 82t107.5 48l23 -74q-86 -21 -153 -63.5t-105 -111.5l-33 -98l11 -37q0 -62 20.5 -87.5t60.5 -25.5q36 0 60.5 17t37.5 49.5t13 76.5q0 51 -21.5 78t-65.5 27q-33 0 -55 -14.5t-34 -39.5t-15 -56l-6 14h15
q90 0 148 -24.5t86.5 -69.5t28.5 -109q0 -117 -88 -183t-258 -66z" />
    <glyph glyph-name="jasinh" unicode="&#xda2;" horiz-adv-x="772" 
d="M385 -10q-169 0 -256.5 66.5t-87.5 184.5q0 64 27.5 108.5t86 68.5t149.5 24h19l-6 -5q-6 38 -29.5 67.5t-73.5 29.5q-31 0 -45.5 -13.5t-14.5 -39.5q0 -8 1.5 -17.5t4.5 -19.5l-72 -18q-10 14 -14.5 30.5t-4.5 33.5q0 49 37 74t91 25q57 0 96 -23t59.5 -64t20.5 -97v-14
h-62q-63 0 -110.5 -12t-73.5 -41.5t-26 -81.5q0 -79 72.5 -120t211.5 -41q95 0 158.5 18.5t95.5 54t32 87.5q0 53 -25.5 82.5t-72.5 41.5t-112 12h-56v5q0 59 22 102.5t61 67t91 23.5q62 0 94 -28t32 -75q0 -43 -28 -64.5t-78 -21.5q-35 0 -58 15.5t-34 40.5t-11 54v11
q0 70 28 123t77.5 89.5t113.5 53.5l23 -74q-57 -14 -99.5 -36.5t-66.5 -61t-24 -103.5q0 -34 12 -52t40 -18q21 0 33.5 10.5t12.5 35.5q0 9 -5.5 21.5t-19.5 22t-41 9.5q-52 0 -83 -28t-38 -73l-6 2h15q92 0 150 -24.5t85.5 -69.5t27.5 -109q0 -117 -88 -183t-258 -66z" />
    <glyph glyph-name="jhasinh" unicode="&#xda3;" horiz-adv-x="1420" 
d="M523 -10q-51 0 -89.5 30.5t-51.5 88.5q-11 -33 -29 -60t-45.5 -43t-69.5 -16q-44 0 -74.5 22.5t-45.5 60t-15 80.5q0 17 1.5 29t5.5 25l25 -50l-75 10l12 44l18 9l70 -6q-2 -6 -3 -12.5t-1 -14.5q0 -52 24.5 -72t66.5 -20q55 0 81.5 28t26.5 77h51q2 -40 17.5 -63
t41.5 -32.5t58 -9.5q36 0 59.5 12t35 37t11.5 63q0 33 -12 65.5t-39 59.5t-72 43t-112 16q-55 0 -87.5 -2t-53.5 -5l11 40q23 5 63 11.5t77 6.5q139 0 205 -63t66 -173q0 -69 -16 -117.5t-49.5 -73.5t-86.5 -25zM644 589q99 0 184.5 -29t164.5 -70l-77 -23q-69 34 -132.5 51
t-141.5 17q-55 0 -104.5 -11t-97.5 -34.5t-99 -60.5l-26 -21q-55 -40 -117 -99t-138 -142l-43 34q88 91 159 157t131 110.5t114.5 71t108.5 38t114 11.5zM163 571q41 0 70.5 -19t50 -49t32.5 -64l-49 -20q-17 46 -39 70.5t-55 24.5q-31 0 -42.5 -21.5t-11.5 -42.5t4.5 -37
t9.5 -27l-76 -19q-10 15 -16.5 37.5t-6.5 43.5q0 62 37 92.5t92 30.5zM1165 -10q-76 0 -118 37.5t-64 101.5q-11 -35 -33.5 -67t-57 -52t-82.5 -20q-45 0 -78.5 16.5t-56 48.5t-34 79t-11.5 108q0 89 34 145.5t95 83.5t141 27q17 0 45.5 -1.5t47.5 -6.5l-16 -48
q-20 4 -42.5 6.5t-46.5 2.5q-64 0 -109.5 -24t-70 -69.5t-24.5 -112.5q0 -79 36 -114.5t100 -35.5q44 0 71.5 15.5t43 40.5t22.5 53h53q4 -36 23.5 -60.5t50 -36.5t67.5 -12q43 0 79.5 22.5t59 80.5t22.5 163q0 92 -21.5 164.5t-64.5 123t-108 77t-151 26.5
q-79 0 -153.5 -23.5t-144.5 -75.5l-34 46q45 31 94.5 54.5t107.5 37t130 13.5q94 0 169 -28t128.5 -85t82 -143t28.5 -203q0 -100 -16 -168.5t-44.5 -109.5t-67 -59t-82.5 -18z" />
    <glyph glyph-name="nyasinh" unicode="&#xda4;" horiz-adv-x="1253" 
d="M674 -10q-51 0 -89.5 30.5t-51.5 88.5q-11 -33 -29 -60t-45.5 -43t-69.5 -16q-44 0 -74.5 22.5t-45.5 60t-15 80.5q0 17 1.5 29t5.5 25l25 -50l-75 10l12 44l18 9l70 -6q-2 -6 -3 -12.5t-1 -14.5q0 -52 24.5 -72t66.5 -20q55 0 81.5 28t26.5 77h51q2 -40 17.5 -63
t41.5 -32.5t58 -9.5q36 0 59.5 12t35 37t11.5 63q0 33 -12 65.5t-39 59.5t-72 43t-112 16q-55 0 -87.5 -2t-53.5 -5l11 40q23 5 63 11.5t77 6.5q139 0 205 -63t66 -173q0 -69 -16 -117.5t-49.5 -73.5t-86.5 -25zM795 589q60 0 109.5 -8t98.5 -24l-30 -52q-44 17 -86 24.5
t-94 7.5q-54 0 -103.5 -11.5t-98 -35.5t-99.5 -61l-26 -21q-55 -40 -117 -99t-138 -142l-43 34q88 91 159 157t131 110.5t114.5 71t108.5 38t114 11.5zM314 571q41 0 70.5 -19t50 -49t32.5 -64l-49 -20q-17 46 -39 70.5t-55 24.5q-31 0 -42.5 -21.5t-11.5 -42.5t4.5 -37
t9.5 -27l-76 -19q-10 15 -15.5 39t-5.5 42q0 34 18 62t47 44.5t62 16.5zM1044 -10q-82 0 -140.5 27t-90 77.5t-31.5 121.5q0 70 27 114.5t74 68.5t107.5 33.5t127.5 9.5h46q-6 38 -30 65t-77 27q-34 0 -45 -17t-11 -36q0 -7 1.5 -15.5t2.5 -13.5l-78 -10q-4 8 -7.5 19
t-3.5 29q0 33 16.5 55t45 33t64.5 11q59 0 98.5 -22.5t59.5 -63.5t20 -98v-14h-109q-123 0 -182.5 -39.5t-59.5 -134.5q0 -47 23 -85.5t67.5 -61t107.5 -22.5q33 0 57 3t49 12t60 25l20 -52q-40 -22 -97.5 -34t-111.5 -12zM1148 -284q-58 0 -94 18t-52 50t-16 73
q0 33 14.5 60.5t42.5 50.5t67 42l75 9q-43 -25 -69 -49t-37.5 -49t-11.5 -54q0 -32 13.5 -53.5t36.5 -31.5t50 -10q34 0 58.5 10.5t52.5 32.5l26 -45q-27 -22 -66.5 -38t-89.5 -16zM40 316q0 62 22 109.5t58.5 79.5t81.5 48t90 16l6 -39q-50 -2 -95.5 -27t-74 -72.5
t-28.5 -116.5q0 -75 25.5 -127t68.5 -104l-44 -32q-47 57 -78.5 121.5t-31.5 143.5z" />
    <glyph glyph-name="jnyasinh" unicode="&#xda5;" horiz-adv-x="1111" 
d="M840 528q-14 5 -30 7t-33 2q-85 0 -139 -55t-81 -165l-31 12q9 2 20 3.5t24 1.5q55 0 86 -33.5t31 -111.5q0 -33 -11 -68t-36.5 -64.5t-68.5 -48t-108 -18.5q-84 0 -141 35.5t-86 99t-29 147.5q0 65 19 116t56 86.5t89.5 54.5t118.5 19h7t8 -1l11 19l-16 -61h-7.5h-7.5
q-54 0 -94.5 -17t-67.5 -47.5t-41 -70.5t-14 -86q0 -50 20.5 -93.5t64.5 -69.5t113 -26q67 0 104 17.5t52.5 44t15.5 53.5q0 46 -22.5 60t-53.5 14q-6 0 -12 -0.5t-14 -1.5l-37 10q23 149 95 223t182 74q23 0 49 -4t48 -12zM45 305q0 76 24.5 130t67 88t97 50t114.5 16
q40 0 83.5 -6t84.5 -17l-20 -38q-23 5 -48 7.5t-49 3.5t-46 1q-71 0 -127.5 -26t-88.5 -79.5t-32 -137.5q0 -72 23.5 -129t60.5 -117l-50 -27q-36 56 -65 127.5t-29 153.5zM902 -10q-82 0 -140.5 27t-90 77.5t-31.5 121.5q0 70 27 114.5t74 68.5t107.5 33.5t127.5 9.5h46
q-6 38 -30 65t-77 27q-34 0 -45 -17t-11 -36q0 -7 1.5 -15.5t2.5 -13.5l-78 -10q-4 8 -7.5 19t-3.5 29q0 33 16.5 55t45 33t64.5 11q59 0 98.5 -22.5t59.5 -63.5t20 -98v-14h-109q-123 0 -182.5 -39.5t-59.5 -134.5q0 -47 23 -85.5t67.5 -61t107.5 -22.5q33 0 57 3t49 12
t60 25l20 -52q-40 -22 -97.5 -34t-111.5 -12zM1006 -284q-58 0 -94 18t-52 50t-16 73q0 33 14.5 60.5t42.5 50.5t67 42l75 9q-43 -25 -69 -49t-37.5 -49t-11.5 -54q0 -32 13.5 -53.5t36.5 -31.5t50 -10q34 0 58.5 10.5t52.5 32.5l26 -45q-27 -22 -66.5 -38t-89.5 -16z" />
    <glyph glyph-name="nyjasinh" unicode="&#xda6;" horiz-adv-x="921" 
d="M533 -10q-169 0 -256.5 66.5t-87.5 184.5q0 64 27.5 108.5t86 68.5t149.5 24h19l-6 -5q-6 38 -29.5 67.5t-73.5 29.5q-31 0 -45.5 -13.5t-14.5 -39.5q0 -8 1.5 -17.5t4.5 -19.5l-68 -18q-10 14 -14.5 30.5t-4.5 33.5q0 33 18 55t46.5 33t59.5 11q57 0 96 -23t59.5 -64
t20.5 -97v-14h-62q-63 0 -110.5 -12t-73.5 -41.5t-26 -81.5q0 -79 72.5 -120t211.5 -41q95 0 158.5 18.5t95.5 54t32 87.5q0 53 -25.5 82.5t-72.5 41.5t-112 12h-56v5q0 59 22 102.5t61 67t91 23.5q62 0 94 -28t32 -75q0 -43 -28 -64.5t-78 -21.5q-35 0 -58 15.5t-34 40.5
t-11 54v11q0 70 28 123t77.5 89.5t113.5 53.5l23 -74q-57 -14 -99.5 -36.5t-66.5 -61t-24 -103.5q0 -34 12 -52t40 -18q21 0 33.5 10.5t12.5 35.5q0 9 -5.5 21.5t-19.5 22t-41 9.5q-52 0 -83 -28t-38 -73l-6 2h15q92 0 150 -24.5t85.5 -69.5t27.5 -109q0 -117 -88 -183
t-258 -66zM40 329q0 66 22.5 114.5t60.5 81t86 48.5t100 16q12 0 24 -1.5t24 -3.5l-32 -42q-7 0 -13.5 0.5t-12.5 0.5q-49 0 -95 -24.5t-75 -73t-29 -121.5q0 -80 33 -140t86 -105l-37 -38q-63 53 -102.5 124t-39.5 164z" />
    <glyph glyph-name="ttasinh" unicode="&#xda7;" horiz-adv-x="783" 
d="M349 -10q-97 0 -166 31.5t-105.5 93t-36.5 151.5q0 76 34 129t94.5 81t140.5 28q32 0 61 -3.5t51 -8.5l-10 -51q-23 5 -50.5 8t-54.5 3q-104 0 -154.5 -47t-50.5 -126q0 -94 65 -139t182 -45q92 0 155.5 27.5t102 74.5t56 105.5t17.5 119.5q0 95 -29 158.5t-76 101
t-102.5 54t-109.5 16.5q-73 0 -144 -22t-144 -77l-34 46q45 31 93.5 54.5t104 37t120.5 13.5q74 0 142.5 -22.5t123 -71t86.5 -125t32 -183.5q0 -87 -23.5 -161.5t-72 -131t-123 -88t-175.5 -31.5z" />
    <glyph glyph-name="tthasinh" unicode="&#xda8;" horiz-adv-x="837" 
d="M582 -10q-76 0 -118 37.5t-64 101.5q-11 -35 -33.5 -67t-57 -52t-82.5 -20q-62 0 -103.5 28.5t-62.5 81.5t-21 126q0 92 36 154t98.5 93t143.5 31q25 0 48.5 -2.5t38.5 -6.5l-10 -51q-22 5 -41 6.5t-40 1.5q-70 0 -117.5 -24t-71.5 -69.5t-24 -111.5q0 -80 36 -116
t100 -36q44 0 71.5 15.5t43 40.5t22.5 53h53q4 -36 23.5 -60.5t50.5 -36.5t67 -12q46 0 82 24t57.5 75.5t21.5 135.5q0 106 -33 184t-93 130t-143 79.5t-184 32.5l7 56q102 -8 193.5 -39t162.5 -89t112 -147t41 -214q0 -91 -16 -154.5t-44.5 -103t-67 -57.5t-82.5 -18z
M468 556q-43 0 -69.5 18.5t-41.5 49.5t-24 66q-6 26 -14 40t-16 20.5t-16 8.5l12 38q37 -19 58 -41.5t31 -59.5q11 -41 30.5 -60t56.5 -19q35 0 56.5 23t36.5 69l49 -29q-13 -32 -32 -60.5t-47.5 -46t-69.5 -17.5z" />
    <glyph glyph-name="ddasinh" unicode="&#xda9;" horiz-adv-x="840" 
d="M585 -10q-76 0 -118 37.5t-64 101.5q-11 -35 -34.5 -67t-59.5 -52t-86 -20q-52 0 -91.5 23t-61.5 67.5t-22 106.5q0 61 22.5 106t62 75.5t90.5 46.5l-7 -18q-14 -2 -39 -3.5t-53.5 -2t-51.5 -0.5h-48v51h324q-4 23 -15.5 44t-32.5 34.5t-54 13.5q-30 0 -45 -13.5
t-15 -39.5q0 -4 1 -10.5t2 -11.5l-82 -7q-3 8 -4.5 20t-1.5 18q0 49 37 74t91 25q57 0 96 -23t59.5 -64t20.5 -97v-14h-152l58 6q-69 -9 -113.5 -35.5t-66 -64.5t-21.5 -83q0 -60 33 -89.5t96 -29.5q45 0 72.5 15t43 40t22.5 54h53q4 -36 23.5 -60.5t50 -36.5t67.5 -12
q43 0 79.5 22.5t59 80.5t22.5 163q0 92 -21.5 164.5t-64.5 123t-108 77t-151 26.5q-79 0 -153.5 -23.5t-144.5 -75.5l-34 46q45 31 94.5 54.5t107.5 37t130 13.5q94 0 169 -28t128.5 -85t82 -143t28.5 -203q0 -100 -16 -168.5t-44.5 -109.5t-67 -59t-82.5 -18z" />
    <glyph glyph-name="ddhasinh" unicode="&#xdaa;" horiz-adv-x="840" 
d="M585 -10q-76 0 -118 37.5t-64 101.5q-11 -35 -34.5 -67t-59.5 -52t-86 -20q-52 0 -91.5 23t-61.5 67.5t-22 106.5q0 61 22.5 106t62 75.5t90.5 46.5l-7 -18q-14 -2 -39 -3.5t-53.5 -2t-51.5 -0.5h-48v51h324q-4 23 -15.5 44t-32.5 34.5t-54 13.5q-30 0 -45 -13.5
t-15 -39.5q0 -4 1 -10.5t2 -11.5l-82 -7q-3 8 -4.5 20t-1.5 18q0 49 37 74t91 25q57 0 96 -23t59.5 -64t20.5 -97v-14h-152l58 6q-69 -9 -113.5 -35.5t-66 -64.5t-21.5 -83q0 -60 33 -89.5t96 -29.5q45 0 72.5 15t43 40t22.5 54h53q4 -36 23.5 -60.5t50.5 -36.5t67 -12
q46 0 82 23.5t57.5 75.5t21.5 136q0 106 -33 184t-93 130t-143 79.5t-184 32.5l7 56q102 -8 193.5 -39t162.5 -89t112 -147t41 -214q0 -91 -16 -154.5t-44.5 -103t-67 -57.5t-82.5 -18zM471 556q-43 0 -69.5 18.5t-41.5 49.5t-24 66q-6 26 -14 40t-16 20.5t-16 8.5l12 38
q37 -19 58 -41.5t31 -59.5q11 -41 30.5 -60t56.5 -19q35 0 56.5 23t36.5 69l49 -29q-13 -32 -32 -60.5t-47.5 -46t-69.5 -17.5z" />
    <glyph glyph-name="nnasinh" unicode="&#xdab;" horiz-adv-x="1155" 
d="M36 125l-40 36q73 62 158.5 133t177 146t182.5 149t176 142t158 125l46 -56q-96 -68 -173 -124t-142 -105t-124.5 -96t-118.5 -95.5t-124 -104t-143 -122.5zM363 170q-84 0 -145.5 29.5t-95 78.5t-33.5 108t32.5 105t94 72t149.5 26q81 0 144 -21.5t106.5 -61t65.5 -93.5
t22 -119q0 -80 -23.5 -137.5t-66 -94.5t-101.5 -54.5t-130 -17.5q-57 0 -101.5 11.5t-80.5 32t-66 45.5t-56 52l-42 -6l17 40l41 31q38 -38 80.5 -62t92.5 -34.5t110 -10.5q88 0 147.5 26.5t89.5 75.5t30 118t-35.5 120t-97 79.5t-141.5 28.5q-69 0 -118.5 -18t-76 -52
t-26.5 -83q0 -38 19 -71.5t59 -57t103 -32.5l-3 -4q-19 13 -28 34t-9 41q0 32 17 55.5t43.5 36.5t56.5 13q38 0 64.5 -14.5t40.5 -40t14 -59.5q0 -52 -40 -83.5t-123 -31.5zM347 287q0 -25 14.5 -42.5t45.5 -17.5t46.5 18t15.5 45q0 25 -15 41.5t-47 16.5q-27 0 -43.5 -15.5
t-16.5 -45.5zM644 332q0 65 25 108.5t72 43.5q35 0 53.5 -15t32.5 -35q20 32 48 51t71 19q36 0 66 -14t53 -44.5t35.5 -79.5t12.5 -118q0 -95 -22.5 -151.5t-64.5 -81.5t-103 -25q-68 0 -111 34.5t-66 97.5l51 22q26 -59 52.5 -81.5t66.5 -22.5t63 23.5t32.5 70t9.5 114.5
q0 96 -20.5 151t-64.5 55q-39 0 -58.5 -37t-19.5 -109h-52q-1 40 -8 67.5t-19.5 42t-29.5 14.5q-18 0 -29 -12t-16 -35t-5 -56z" />
    <glyph glyph-name="nnddasinh" unicode="&#xdac;" horiz-adv-x="990" 
d="M735 -10q-76 0 -118 37.5t-64 101.5q-11 -35 -34.5 -67t-59.5 -52t-86 -20q-52 0 -91.5 23t-61.5 67.5t-22 106.5q0 61 22.5 106t62 75.5t90.5 46.5l-7 -18q-14 -2 -39 -3.5t-53.5 -2t-51.5 -0.5h-48v51h324q-4 23 -15.5 44t-32.5 34.5t-54 13.5q-30 0 -45 -13.5
t-15 -39.5q0 -4 1 -10.5t2 -11.5l-78 -7q-3 8 -4.5 20.5t-1.5 20.5q0 29 16.5 50.5t45 33.5t62.5 12q57 0 96 -23t59.5 -64t20.5 -97v-14h-152l58 6q-68 -9 -113 -35.5t-66.5 -64.5t-21.5 -83q0 -60 33 -89.5t96 -29.5q45 0 72.5 15t43 40t22.5 54h53q4 -36 23.5 -60.5
t50 -36.5t67.5 -12q43 0 79.5 22.5t59 80.5t22.5 163q0 92 -21.5 164.5t-64.5 123t-108 77t-151 26.5q-79 0 -153.5 -23.5t-144.5 -75.5l-34 46q45 31 94.5 54.5t107.5 37t130 13.5q94 0 169 -28t128.5 -85t82 -143t28.5 -203q0 -100 -16 -168.5t-44.5 -109.5t-67 -59
t-82.5 -18zM40 329q0 66 22.5 114.5t60.5 81t86 48.5t100 16q12 0 24 -1.5t24 -3.5l-32 -45q-7 0 -13.5 0.5t-12.5 0.5q-49 0 -95 -23.5t-75 -71.5t-29 -121q0 -70 25.5 -124.5t68.5 -97.5l-38 -38q-52 50 -84 116t-32 149z" />
    <glyph glyph-name="tasinh" unicode="&#xdad;" horiz-adv-x="942" 
d="M342 -10q-41 0 -83.5 9t-78.5 29.5t-58 54.5t-22 84q0 9 1.5 19.5t5.5 20.5l23 -45l-69 10l24 56l69 -9q-1 -7 -2 -11t-1 -9q0 -39 27 -62t70 -32.5t92 -9.5q53 0 91 11t62 30t35 45t11 56q0 29 -8.5 56.5t-30.5 49.5t-61 35t-99 13h-25t-45 -1t-48 -4l31 38
q20 5 43 11.5t56 6.5q67 0 111.5 -16.5t71 -43t39.5 -56.5t17 -57.5t4 -44.5q0 -38 -10 -79t-36.5 -76t-76.5 -57t-130 -22zM667 -8q-28 0 -53 4t-54 15l16 49q20 -7 41 -11.5t40 -4.5q66 0 105.5 26.5t57 75t17.5 113.5q0 67 -26.5 122.5t-81 89t-139.5 33.5
q-54 0 -95.5 -8t-78 -24t-75.5 -42q-5 -3 -9.5 -7.5t-9.5 -8.5q-49 -37 -93.5 -77t-86 -81.5t-81.5 -83.5l-44 34q86 83 161 153t145 121.5t138.5 80t141.5 28.5q94 0 160.5 -38.5t102 -109t35.5 -166.5q0 -81 -26 -145t-77.5 -101t-130.5 -37zM163 571q41 0 70.5 -19
t50 -49t32.5 -64l-49 -20q-17 46 -39 70.5t-55 24.5q-31 0 -42.5 -21.5t-11.5 -42.5t4.5 -37t9.5 -27l-76 -19q-10 15 -16.5 37.5t-6.5 43.5q0 62 37 92.5t92 30.5z" />
    <glyph glyph-name="thasinh" unicode="&#xdae;" horiz-adv-x="782" 
d="M345 -10q-93 0 -161.5 31.5t-106 93t-37.5 151.5q0 76 34 129t94.5 81t140.5 28q32 0 61 -3.5t51 -8.5l-10 -51q-23 5 -50.5 8t-54.5 3q-104 0 -154.5 -47t-50.5 -126q0 -94 67 -139t179 -45q95 0 159 27t102 72t54.5 101t16.5 113q0 99 -33.5 164.5t-91 104.5t-131 57
t-153.5 22l7 56q96 -7 180 -33.5t148.5 -75.5t100.5 -123.5t36 -176.5q0 -119 -42.5 -212.5t-130.5 -147t-224 -53.5zM462 556q-43 0 -69.5 18.5t-41.5 49.5t-24 66q-6 26 -14 40t-16 20.5t-16 8.5l12 38q37 -19 58 -41.5t31 -59.5q11 -41 30.5 -60t56.5 -19q35 0 56.5 23
t36.5 69l49 -29q-13 -32 -32 -60.5t-47.5 -46t-69.5 -17.5z" />
    <glyph glyph-name="dasinh" unicode="&#xdaf;" horiz-adv-x="532" 
d="M322 -10q-90 0 -154 28t-98 78t-34 116q0 69 28.5 114t77.5 70.5t110.5 35.5t126.5 10h64q-6 38 -30 65t-77 27q-34 0 -45 -17t-11 -36q0 -7 1.5 -15.5t2.5 -13.5l-78 -10q-4 8 -7.5 19t-3.5 29q0 49 36 74t90 25q59 0 98.5 -22.5t59.5 -63.5t20 -98v-14h-126
q-118 0 -177 -39.5t-59 -134.5q0 -47 23 -85.5t68.5 -61t112.5 -22.5q35 0 60 3.5t50 13t60 25.5l20 -52q-40 -22 -98.5 -35t-110.5 -13zM427 -284q-58 0 -94 18t-52 50t-16 73q0 33 14.5 60.5t42.5 50.5t67 42l75 9q-43 -25 -69 -49t-37.5 -49t-11.5 -54q0 -32 13.5 -53.5
t36.5 -31.5t50 -10q34 0 58.5 10.5t52.5 32.5l26 -45q-27 -22 -66.5 -38t-89.5 -16z" />
    <glyph glyph-name="dhasinh" unicode="&#xdb0;" horiz-adv-x="837" 
d="M582 -10q-76 0 -118 37.5t-64 101.5q-11 -35 -33.5 -67t-57 -52t-82.5 -20q-62 0 -103.5 28.5t-62.5 81.5t-21 126q0 92 36 154t98.5 93t143.5 31q25 0 48.5 -2.5t38.5 -6.5l-10 -51q-22 5 -41 6.5t-40 1.5q-70 0 -117.5 -24t-71.5 -70t-24 -112q0 -79 36 -115t100 -36
q44 0 71.5 15.5t43 40.5t22.5 53h53q4 -36 23.5 -60.5t50 -36.5t67.5 -12q43 0 79.5 22.5t59 80.5t22.5 163q0 92 -21.5 164.5t-64.5 123t-108 77t-151 26.5q-79 0 -153.5 -23.5t-144.5 -75.5l-34 46q45 31 94.5 54.5t107.5 37t130 13.5q94 0 169 -28t128.5 -85t82 -143
t28.5 -203q0 -100 -16 -168.5t-44.5 -109.5t-67 -59t-82.5 -18z" />
    <glyph glyph-name="nasinh" unicode="&#xdb1;" horiz-adv-x="931" 
d="M326 -10q-94 0 -157.5 38t-95.5 104.5t-32 151.5q0 7 0.5 12.5t1.5 10.5l51 -4q-1 -4 -1.5 -9.5t-0.5 -12.5q0 -50 24.5 -92.5t76 -68t133.5 -25.5q95 0 149 41.5t54 116.5q0 64 -43.5 101t-129.5 37q-32 0 -51.5 -2t-40.5 -4l47 56q5 1 12.5 1h15.5h14q75 0 126.5 -24.5
t78.5 -71t27 -114.5q0 -41 -11.5 -83.5t-40 -78.5t-79 -58t-128.5 -22zM655 -8q-41 0 -72 5.5t-49 13.5l13 51q27 -10 52 -14t63 -4q51 0 88 26.5t56.5 74t19.5 111.5q0 82 -32 137t-87.5 83t-126.5 28q-48 0 -83.5 -7t-64.5 -23t-60 -42l-13 -16q-13 -12 -24.5 -26
t-24.5 -29q-40 -50 -73.5 -77t-64 -37.5t-63.5 -10.5q-25 0 -39.5 6.5t-23.5 14.5l9 45q10 -6 23 -9t25 -3q27 0 50.5 7.5t52.5 32.5t72 75q40 46 84.5 88t101.5 69t134 27q93 0 158 -42t99.5 -112t34.5 -154q0 -91 -26.5 -156t-79 -99t-129.5 -34zM194 571q41 0 72 -18.5
t52 -48.5t29 -65l-49 -20q-17 46 -39 70.5t-55 24.5q-31 0 -42.5 -21.5t-11.5 -42.5q0 -19 4 -35t11 -28l-77 -20q-10 15 -16.5 37.5t-6.5 43.5q0 62 37 92.5t92 30.5z" />
    <glyph glyph-name="ndasinh" unicode="&#xdb3;" horiz-adv-x="654" 
d="M445 -10q-82 0 -143.5 28t-95.5 78t-34 116q0 69 28.5 114t77.5 70.5t110.5 35.5t127.5 10h49q-6 38 -30 65t-77 27q-34 0 -45 -17t-11 -36q0 -7 1.5 -15.5t2.5 -13.5l-78 -10q-4 8 -7.5 19t-3.5 29q0 30 16.5 52.5t45 34.5t64.5 12q59 0 98.5 -22.5t59.5 -63.5t20 -98
v-14h-111q-122 0 -181 -39.5t-59 -134.5q0 -47 23 -85.5t67.5 -61t107.5 -22.5q33 0 57 3t49 12t60 25l20 -52q-40 -22 -97.5 -34t-111.5 -12zM549 -284q-58 0 -94 18t-52 50t-16 73q0 33 14.5 60.5t42.5 50.5t67 42l75 9q-43 -25 -69 -49t-37.5 -49t-11.5 -54
q0 -32 13.5 -53.5t36.5 -31.5t50 -10q34 0 58.5 10.5t52.5 32.5l26 -45q-27 -22 -66.5 -38t-89.5 -16zM40 329q0 88 38.5 145.5t100 86t130.5 28.5q28 0 51 -1.5t44 -6.5l-49 -47q-11 2 -23.5 3t-22.5 1q-57 0 -104.5 -23t-76 -70.5t-28.5 -120.5q0 -68 24 -121t64 -95
l-39 -36q-50 51 -79.5 114.5t-29.5 142.5z" />
    <glyph glyph-name="pasinh" unicode="&#xdb4;" horiz-adv-x="772" 
d="M645 427q2 9 3 18t1 15q0 23 -10 38.5t-28.5 23t-44.5 7.5q-45 0 -70 -25t-34 -66l-8 4h14q92 0 150 -24t85.5 -69.5t27.5 -110.5q0 -116 -88 -182t-258 -66q-169 0 -256.5 66t-87.5 183q0 65 27.5 110t86 69t149.5 24h19l-6 -5q-6 38 -29.5 67.5t-73.5 29.5
q-30 0 -45 -13.5t-15 -39.5q0 -8 1.5 -17.5t4.5 -19.5l-72 -18q-9 14 -14 30t-5 34q0 49 37 74t91 25q57 0 96 -23t59.5 -64t20.5 -97v-14h-62q-64 0 -111.5 -12t-73 -41.5t-25.5 -82.5q0 -79 72.5 -119.5t211.5 -40.5q95 0 158.5 18.5t95.5 54t32 87.5q0 53 -25.5 82.5
t-72.5 41.5t-112 12h-56v5q0 59 21.5 102.5t60 67t87.5 23.5q45 0 73.5 -15.5t42 -43t13.5 -62.5q0 -13 -1.5 -26.5t-5.5 -27.5z" />
    <glyph glyph-name="phasinh" unicode="&#xdb5;" horiz-adv-x="792" 
d="M356 -10q-102 0 -172.5 30.5t-107 87.5t-36.5 136q0 54 23.5 97.5t75.5 69.5q31 15 72.5 23t107.5 8h72q-6 38 -30 65t-77 27q-28 0 -42 -13.5t-14 -39.5q0 -7 1 -14t3 -15l-78 -10q-4 8 -7.5 19t-3.5 29q0 49 36 74t90 25q59 0 98.5 -22.5t59.5 -63.5t20 -98v-14h-121
q-69 0 -106.5 -7.5t-62.5 -21.5q-31 -19 -44 -45.5t-13 -58.5q0 -79 64.5 -121t183.5 -42q98 0 164 27t105 72t55.5 101t16.5 113q0 99 -33.5 164.5t-91 104.5t-131 57t-153.5 22l7 56q96 -7 180 -33.5t148.5 -75.5t100.5 -123.5t36 -176.5q0 -119 -43 -212.5t-130.5 -147
t-222.5 -53.5zM472 556q-43 0 -69.5 18.5t-41.5 49.5t-24 66q-6 26 -14 40t-16 20.5t-16 8.5l12 38q37 -19 58 -41.5t31 -59.5q11 -41 30.5 -60t56.5 -19q35 0 56.5 23t36.5 69l49 -29q-13 -32 -32 -60.5t-47.5 -46t-69.5 -17.5z" />
    <glyph glyph-name="basinh" unicode="&#xdb6;" horiz-adv-x="841" 
d="M548 -10q-59 0 -93.5 27.5t-34.5 82.5q0 30 11 54t25 47.5t25 49t11 58.5q0 72 -48 109t-129 37q-63 0 -111.5 -26t-75.5 -75.5t-27 -120.5q0 -41 7.5 -70.5t22 -52.5t35.5 -46l3 -9q-9 7 -15 17.5t-9 23t-3 23.5q0 37 16 61t42.5 36.5t59.5 12.5q62 0 94.5 -33t32.5 -85
q0 -57 -33.5 -89t-92.5 -32q-64 0 -114 32.5t-78 91t-28 135.5q0 76 23.5 132t64 93t91.5 55.5t106 18.5q79 0 131.5 -27.5t79.5 -74t27 -103.5q0 -41 -11.5 -71t-27 -54t-27 -45.5t-11.5 -45.5t15 -34.5t45 -10.5q44 0 87.5 30.5t72 93t28.5 158.5q0 81 -19 151.5
t-60 123.5t-106 83t-157 30q-99 0 -174 -25t-144 -74l-34 46q46 30 98 54t114.5 37.5t140.5 13.5q132 0 222 -54.5t136 -157t46 -248.5q0 -90 -20 -156.5t-55.5 -110.5t-80 -65.5t-94.5 -21.5zM260 178q-30 0 -48.5 -17.5t-18.5 -52.5q0 -25 15.5 -45t52.5 -20
q30 0 49.5 17.5t19.5 47.5q0 32 -16.5 51t-53.5 19z" />
    <glyph glyph-name="bhasinh" unicode="&#xdb7;" horiz-adv-x="935" 
d="M320 -10q-81 0 -139 28t-89 78.5t-31 119.5q0 73 46.5 127t119.5 73l-20 -19q-14 -2 -39 -3.5t-53.5 -2t-51.5 -0.5h-39v51h310q-4 23 -15.5 44t-32.5 34.5t-54 13.5q-30 0 -45 -13.5t-15 -39.5q0 -4 1 -10.5t2 -11.5l-82 -7q-3 8 -4.5 20t-1.5 18q0 49 37 74t91 25
q57 0 96 -23t59.5 -64t20.5 -97v-14h-146l45 7q-53 -12 -90.5 -33.5t-57 -53.5t-19.5 -76q0 -63 45.5 -101.5t151.5 -38.5q76 0 119 17.5t61.5 44.5t18.5 57q0 43 -22.5 56.5t-53.5 13.5q-10 0 -14 -0.5l-12 -1.5l-37 10q23 151 95.5 224t175.5 73q59 0 104.5 -23
t76.5 -64.5t46.5 -96t15.5 -117.5t-13 -111.5t-37 -83.5t-56 -57.5t-71 -33t-82 -10.5q-29 0 -54.5 3t-42.5 7l13 52q18 -5 36.5 -7.5t46.5 -2.5q63 0 106.5 26t66.5 75t23 118q0 71 -22 124.5t-64.5 83.5t-105.5 30q-81 0 -130.5 -47.5t-71.5 -136.5l-29 12q9 2 18.5 3.5
t25.5 1.5q37 0 65.5 -13.5t45 -42.5t16.5 -76q0 -38 -13.5 -75.5t-43.5 -68.5t-79.5 -49.5t-121.5 -18.5z" />
    <glyph glyph-name="masinh" unicode="&#xdb8;" horiz-adv-x="824" 
d="M396 -10q-108 0 -188 38t-123.5 113t-43.5 186q0 71 21 122.5t55 79.5t73 28q34 0 51 -11.5t23 -27.5t6 -31q0 -22 -5 -42.5t-5 -52.5q0 -35 18.5 -58t50.5 -34t74 -11q71 0 108 32.5t37 90.5q0 41 -18 68t-42 41l1 3q20 -15 27.5 -35t7.5 -40q0 -46 -29.5 -71.5
t-78.5 -25.5q-38 0 -64 13.5t-39 38t-13 56.5q0 31 14 56t42.5 40t73.5 15q52 0 91 -20.5t61 -57t22 -84.5q0 -61 -26.5 -101t-71.5 -60t-100 -20q-102 0 -152 45t-50 113q0 19 2 32.5t4.5 26.5t2.5 28q0 11 -5 19.5t-23 8.5q-19 0 -38.5 -18t-32.5 -53.5t-13 -89.5
q0 -70 24 -117.5t66 -75.5t94.5 -40t109.5 -12q93 0 155.5 26t100 71.5t54 104.5t16.5 125q0 94 -29 157.5t-78 101.5t-108.5 54.5t-120.5 16.5q-85 0 -158.5 -22.5t-147.5 -76.5l-34 46q45 31 95.5 54.5t110 37t129.5 13.5q81 0 154 -21.5t129.5 -69t88.5 -124.5t32 -188
q0 -86 -22.5 -161t-69.5 -131t-120.5 -87.5t-175.5 -31.5zM476 461q0 23 -14 40t-46 17q-27 0 -43 -16t-16 -40q0 -28 14 -43.5t45 -15.5q33 0 46.5 17.5t13.5 40.5z" />
    <glyph glyph-name="mbasinh" unicode="&#xdb9;" horiz-adv-x="867" 
d="M282 -10q-76 0 -129 30t-80.5 91.5t-27.5 155.5q0 93 26.5 158t66.5 98.5t80 33.5q34 0 51 -11.5t23 -27.5t6 -31q0 -22 -5 -42.5t-5 -52.5q0 -35 18.5 -58t50.5 -34t74 -11q71 0 108 32.5t37 90.5q0 41 -18 68t-42 41l1 3q20 -15 27.5 -35t7.5 -40q0 -46 -29.5 -71.5
t-78.5 -25.5q-38 0 -64 13.5t-39 38t-13 56.5q0 31 14 56t42.5 40t73.5 15q52 0 91 -20.5t61 -57t22 -84.5q0 -61 -26.5 -100t-71.5 -57.5t-100 -18.5q-102 0 -152 42.5t-50 110.5q0 19 2 32.5t4.5 26.5t2.5 28q0 11 -5 19.5t-23 8.5q-20 0 -45.5 -23.5t-44 -73
t-18.5 -127.5q0 -45 14 -87.5t47.5 -70t91.5 -27.5q25 0 44 3.5t28 7.5l37 -100q-19 -6 -41 -9.5t-44 -3.5zM548 -9q-13 0 -36.5 2t-49.5 7l44 95q17 -1 26 -2t19 -1q64 0 111 24.5t73 84.5t26 165q0 90 -22 161.5t-66 121.5t-111.5 76.5t-159.5 26.5q-93 0 -170.5 -25
t-145.5 -74l-34 46q47 30 96.5 53.5t111 37.5t142.5 14q99 0 177 -28t133 -84.5t83.5 -141.5t28.5 -199q0 -128 -32.5 -207.5t-94 -116t-149.5 -36.5zM504 461q0 23 -14 40t-46 17q-27 0 -43 -16t-16 -40q0 -28 14 -43.5t45 -15.5q33 0 46.5 17.5t13.5 40.5zM414 170
q-49 0 -66.5 -17t-17.5 -34q0 -13 5.5 -20.5t17.5 -12.5l14 -83l-33 22q-26 18 -45 41.5t-19 55.5q0 47 37.5 73.5t106.5 26.5q47 0 79 -12t49 -34t17 -54t-19 -55.5t-45 -41.5l-33 -25l14 86q8 3 15.5 10.5t7.5 22.5q0 17 -17.5 34t-67.5 17z" />
    <glyph glyph-name="yasinh" unicode="&#xdba;" horiz-adv-x="792" 
d="M574 -10q-50 0 -85.5 18t-58 49.5t-35.5 70.5q-12 -36 -36 -67.5t-60 -51t-84 -19.5q-79 0 -127 52t-48 159q0 76 31.5 130.5t87 84.5t127.5 30q11 0 25.5 -0.5t22.5 -2.5l-5 -51q-12 2 -22 2h-23q-48 0 -90 -17.5t-68 -54.5t-26 -96q0 -63 33.5 -97t92.5 -34
q47 0 75.5 15t44.5 40t23 54h53q4 -34 22 -58.5t48 -37.5t68 -13q62 0 96.5 31.5t34.5 92.5q0 50 -26.5 89t-83 61t-147.5 22h-13v5q0 62 22.5 105t61.5 65.5t88 22.5q47 0 76 -15.5t42.5 -43t13.5 -62.5q0 -23 -3.5 -40.5t-8.5 -30.5l-51 16q5 11 7 24t2 23
q0 23 -10.5 38.5t-29.5 23t-47 7.5q-46 0 -71.5 -25t-34.5 -66l-25 4q59 0 112.5 -13t95 -41.5t66 -73.5t24.5 -109q0 -65 -20.5 -113.5t-59.5 -75t-97 -26.5z" />
    <glyph glyph-name="rasinh" unicode="&#xdbb;" horiz-adv-x="688" 
d="M344 -10q-145 0 -224 78.5t-79 213.5q0 86 39 151t107.5 102t156.5 37q94 0 162 -38.5t104.5 -104.5t36.5 -147q0 -93 -37 -158.5t-104.5 -99.5t-161.5 -34zM345 95q47 0 90 11t76.5 36t53 66.5t19.5 101.5q0 69 -34 116.5t-88.5 71.5t-117.5 24q-66 0 -120.5 -25.5
t-87 -73.5t-32.5 -116q0 -60 19.5 -100.5t53.5 -65t77.5 -35.5t90.5 -11zM213 535q80 54 155.5 112.5t139.5 113t108 95.5l48 -56q-31 -28 -74.5 -62.5t-93 -70.5t-99.5 -70t-94 -61z" />
    <glyph glyph-name="lasinh" unicode="&#xdbd;" horiz-adv-x="850" 
d="M453 -256q-123 0 -216.5 47.5t-146 141.5t-52.5 232q0 90 30 169.5t89 141t144.5 96.5t196.5 35q88 0 147.5 -19.5t95 -52.5t51 -73.5t15.5 -83.5q0 -55 -20.5 -101.5t-63.5 -74.5t-111 -28q-56 0 -91 17.5t-51.5 47t-16.5 66.5q0 38 19.5 66t50.5 46l-4 -22
q-22 -3 -47 -4.5t-49 -1.5h-72v53h319v-53h-142l78 14q-45 -9 -68.5 -32t-23.5 -55q0 -33 23.5 -51.5t78.5 -18.5q63 0 98 34.5t35 100.5q0 35 -12 66t-40.5 55.5t-76.5 38.5t-120 14q-89 0 -158.5 -28t-117 -78.5t-72 -118.5t-24.5 -149q0 -86 23 -153t67.5 -113.5
t109 -70.5t147.5 -24q97 0 163.5 29t100.5 85t34 135q0 8 -0.5 23t-2.5 26l56 3q2 -13 2.5 -30t0.5 -37q0 -67 -24 -124t-71.5 -98.5t-117.5 -64.5t-163 -23z" />
    <glyph glyph-name="vasinh" unicode="&#xdc0;" horiz-adv-x="793" 
d="M357 -10q-102 0 -172.5 30.5t-107 87.5t-36.5 136q0 54 23.5 97.5t75.5 69.5q31 15 72.5 23t107.5 8h82q-6 38 -30 65t-77 27q-28 0 -42 -13.5t-14 -39.5q0 -7 1 -14t3 -15l-78 -10q-4 8 -7.5 19t-3.5 29q0 49 36 74t90 25q59 0 98.5 -22.5t59.5 -63.5t20 -98v-14h-131
q-69 0 -106.5 -7.5t-62.5 -21.5q-31 -19 -44 -45.5t-13 -58.5q0 -79 64.5 -121t183.5 -42q98 0 164 27.5t105 74.5t55.5 105.5t16.5 119.5q0 95 -29 158.5t-76.5 101t-104 54t-112.5 16.5q-76 0 -147.5 -21.5t-144.5 -76.5l-34 46q45 31 93.5 54.5t104.5 36.5t123 13
q76 0 146 -22.5t125 -71t87 -124.5t32 -184q0 -86 -23.5 -160.5t-72.5 -131t-123.5 -88.5t-176.5 -32z" />
    <glyph glyph-name="shasinh" unicode="&#xdc1;" horiz-adv-x="901" 
d="M588 -6q-7 0 -19.5 0.5t-19.5 1.5l5 59q10 -1 21 -1.5t23 -0.5q70 0 114 29.5t65.5 81t21.5 116.5q0 63 -22 113t-66 79t-109 29q-53 0 -93.5 -21.5t-67 -62.5t-41.5 -100l-29 12q9 2 20 3.5t24 1.5q37 0 65.5 -13.5t45 -44t16.5 -81.5q0 -35 -11.5 -71t-38 -66.5
t-72 -49t-113.5 -18.5q-86 0 -145.5 36.5t-90 102.5t-30.5 153q0 103 39 171t106 102t150 34q14 0 32 -1t29 -3l-4 -52q-10 2 -24 3t-32 1q-70 0 -123 -28t-82.5 -81t-29.5 -129q0 -60 22 -106t68 -72t118 -26q67 0 104.5 17.5t53 44t15.5 53.5q0 46 -22.5 60t-53.5 14
q-6 0 -12 -0.5t-14 -1.5l-37 10q23 151 96 224t179 73q59 0 103.5 -23t75.5 -63.5t46.5 -93t15.5 -112.5q0 -77 -21 -134t-58.5 -94.5t-86.5 -56t-106 -18.5zM692 308q47 0 80 -17.5t59 -39.5l-25 -51q-17 23 -44.5 39.5t-62.5 16.5q-24 0 -40.5 -13.5t-16.5 -43.5
q0 -14 4 -30t7.5 -33t3.5 -34t-5 -36.5t-21 -33.5l-58 8q15 8 21 20t6 28q0 20 -4.5 37.5t-9.5 37t-5 44.5q0 54 33.5 77.5t77.5 23.5z" />
    <glyph glyph-name="ssasinh" unicode="&#xdc2;" horiz-adv-x="772" 
d="M385 -10q-169 0 -256.5 66t-87.5 183q0 65 27.5 110t86 69t149.5 24h19l-6 -5q-6 38 -29.5 67.5t-73.5 29.5q-30 0 -45 -13.5t-15 -39.5q0 -8 1.5 -17.5t4.5 -19.5l-72 -18q-9 14 -14 30t-5 34q0 49 37 74t91 25q57 0 96 -23t59.5 -64t20.5 -97v-14h-62q-64 0 -111.5 -12
t-73 -41.5t-25.5 -82.5q0 -79 72.5 -119.5t211.5 -40.5q95 0 158.5 18.5t95.5 54t32 87.5q0 54 -25.5 83.5t-72.5 41t-112 11.5h-56v5q0 59 22 102.5t60.5 67t89.5 23.5q44 0 73.5 -15.5t44.5 -44t15 -68.5q0 -52 -25.5 -85.5t-66 -52.5t-87.5 -26.5t-91 -7.5h-116
q-31 0 -48.5 -8.5t-17.5 -30.5q0 -23 24.5 -36.5t98.5 -13.5q51 0 79 7t39.5 20t11.5 29q0 15 -9 25.5t-26 14.5l50 20q16 -6 30.5 -21.5t14.5 -43.5t-17 -51t-59 -37t-117 -14q-92 0 -136 26t-44 76q0 37 20 56t50.5 26.5t61.5 7.5h106q36 0 73.5 3t70 14t52.5 34t20 63
q0 26 -10.5 42t-29 24t-42.5 8q-48 0 -73.5 -25t-34.5 -66l-8 4h14q92 0 150 -25t85.5 -70.5t27.5 -108.5q0 -116 -88 -182t-258 -66z" />
    <glyph glyph-name="sasinh" unicode="&#xdc3;" horiz-adv-x="800" 
d="M582 -10q-50 0 -85.5 18t-58 49.5t-35.5 71.5q-11 -35 -34.5 -67t-59.5 -52t-86 -20q-52 0 -91.5 23t-61.5 67.5t-22 106.5q0 45 13 82t36.5 65t55.5 48.5t70 32.5l-7 -18q-14 -2 -39 -3.5t-53.5 -2t-51.5 -0.5h-48v51h314q-4 23 -15.5 44t-32.5 34.5t-54 13.5
q-30 0 -45 -13.5t-15 -39.5q0 -4 1 -10.5t2 -11.5l-82 -7q-3 8 -4.5 20t-1.5 18q0 49 37 74t91 25q57 0 96 -23t59.5 -64t20.5 -97v-14h-142l58 6q-103 -14 -152 -64.5t-49 -118.5q0 -60 33 -89.5t94 -29.5q46 0 74 15t43.5 40t22.5 54h53q4 -34 22 -58.5t48 -37.5t68 -13
q62 0 96.5 31.5t34.5 92.5q0 50 -26.5 89t-82.5 61t-147 22h-16v6q0 59 22 102t60 66.5t86 23.5q46 0 74.5 -15.5t42 -43t13.5 -62.5q0 -19 -3.5 -36.5t-9.5 -34.5l-50 16q5 11 7 24t2 23q0 23 -10 38.5t-28.5 23t-44.5 7.5q-45 0 -70 -25t-34 -66l-23 4q59 0 112.5 -13
t95 -41.5t66 -73.5t24.5 -109q0 -65 -20.5 -113.5t-59.5 -75t-97 -26.5z" />
    <glyph glyph-name="hasinh" unicode="&#xdc4;" horiz-adv-x="917" 
d="M617 -8q-29 0 -54.5 3t-42.5 7l13 52q18 -5 36.5 -7.5t46.5 -2.5q63 0 106.5 26t66.5 75t23 118q0 71 -22 124.5t-64.5 83.5t-105.5 30q-80 0 -130 -47.5t-72 -136.5l-29 12q9 2 18.5 3.5t25.5 1.5q37 0 65.5 -13.5t45 -42.5t16.5 -76q0 -38 -13 -75.5t-42.5 -68.5
t-77.5 -49.5t-118 -18.5q-83 0 -143.5 30.5t-92.5 87t-32 134.5q0 69 31 113t89 65.5t139 21.5h20l-3 -5q-6 38 -29.5 67.5t-73.5 29.5q-30 0 -45 -13.5t-15 -39.5q0 -8 1.5 -17.5t4.5 -19.5l-72 -18q-9 14 -14 30t-5 34q0 49 37 74t91 25q57 0 96 -23t59.5 -64t20.5 -97
v-14h-70q-64 0 -109 -13t-69 -44.5t-24 -87.5q0 -44 22.5 -78.5t68.5 -53.5t115 -19q73 0 115.5 17.5t60.5 44.5t18 57q0 43 -22.5 56.5t-53.5 13.5q-10 0 -14 -0.5l-12 -1.5l-37 10q23 151 95.5 224t175.5 73q59 0 104.5 -23t76.5 -64.5t46.5 -96t15.5 -117.5t-13 -111.5
t-37 -83.5t-56 -57.5t-71 -33t-82 -10.5z" />
    <glyph glyph-name="llasinh" unicode="&#xdc5;" horiz-adv-x="771" 
d="M395 -256q-107 0 -177.5 29t-111.5 77.5t-58.5 106.5t-17.5 116q0 121 61.5 203t173 124t261.5 42h118q-6 44 -29 68t-62 24q-34 0 -50 -19.5t-18 -54.5h-72q-4 35 -20 54.5t-50 19.5q-31 0 -55 -18t-37.5 -53t-13.5 -86v-7q0 -61 24.5 -105.5t71.5 -68.5t112 -24
q63 0 105.5 13.5t67.5 45.5t34 89l50 -7q-10 -80 -43 -130t-87 -73.5t-127 -23.5q-82 0 -137.5 30t-85 83t-35.5 121q-1 13 -2.5 27t-1.5 24q0 72 20.5 120.5t57 73t85.5 24.5q35 0 58.5 -13.5t37.5 -32.5t19 -35l-39 -4q12 36 42.5 60.5t83.5 24.5q47 0 81.5 -23t53 -64
t18.5 -96v-15h-172q-145 0 -236.5 -36t-134 -104.5t-42.5 -167.5q0 -71 27.5 -131t91.5 -96t172 -36q103 0 168.5 30.5t96.5 86.5t31 132v12t-1 14l56 3q1 -7 1 -17v-21q0 -69 -22 -127t-67 -100t-113.5 -65.5t-161.5 -23.5z" />
    <glyph glyph-name="fasinh" unicode="&#xdc6;" horiz-adv-x="810" 
d="M524 -10q-11 0 -24.5 1t-22.5 3l5 51q12 -2 24 -2.5t17 -0.5q62 0 101.5 26.5t58.5 79t19 129.5q0 67 -17.5 115t-48.5 74.5t-73 26.5q-38 0 -66 -17t-44.5 -49.5t-20.5 -80.5h-53q-4 41 -18 74t-40.5 53t-69.5 20q-38 0 -70.5 -25.5t-52.5 -75t-20 -121.5q0 -76 18 -127
t56 -76.5t98 -25.5q10 0 21.5 1t21.5 2l6 -51q-12 -3 -24 -3.5t-24 -0.5q-117 0 -176.5 77t-59.5 222q0 82 24.5 150t70.5 109t110 41q48 0 79 -22t49.5 -57t26.5 -74q12 42 32 76.5t53 55.5t82 21q44 0 79.5 -22.5t61 -63.5t39 -95t13.5 -117q0 -153 -62.5 -227t-178.5 -74
z" />
    <glyph glyph-name="viramasinh" unicode="&#xdca;" 
d="M-224 963q23 0 43.5 -16t27.5 -46h11v-65l-3 -17q2 -22 2.5 -45t0.5 -46v-239h-52v359q0 38 -15 50.5t-30 12.5q-9 0 -15 -0.5t-9 -1.5l-8 45q8 4 18.5 6.5t28.5 2.5zM-88 963q42 0 64.5 -27.5t22.5 -69.5t-21.5 -69.5t-66.5 -27.5q-21 0 -43 11.5t-32 34.5l18 47
q5 -21 16.5 -34.5t35.5 -13.5q20 0 30.5 13t10.5 38q0 26 -10.5 40t-32.5 14q-19 0 -31.5 -13t-17.5 -34l-38 24q15 31 39.5 49t55.5 18z" />
    <glyph glyph-name="aavowelsignsinh" unicode="&#xdcf;" horiz-adv-x="379" 
d="M337 248q0 -70 -12.5 -119t-35.5 -79.5t-55.5 -45t-73.5 -14.5q-38 0 -68 13t-52.5 38t-39.5 59l51 25q18 -36 40 -60.5t59 -24.5q33 0 55 21.5t33 67.5t11 119t-11 118.5t-33 66.5t-55 21q-37 0 -59.5 -23.5t-38.5 -57.5l-52 25q27 47 65.5 76.5t94.5 29.5
q55 0 94.5 -25.5t61 -82t21.5 -148.5z" />
    <glyph glyph-name="aevowelsignsinh" unicode="&#xdd0;" horiz-adv-x="299" 
d="M10 391h244l29 -54q-85 -85 -130.5 -159.5t-45.5 -165.5q0 -70 31 -103.5t85 -33.5q26 0 46 7t44 23l23 -44q-33 -21 -66 -31.5t-72 -10.5q-49 0 -89.5 18t-64.5 58.5t-24 108.5q0 52 19.5 104t65 111t123.5 131l-3 -9q-15 -1 -34 -2t-43 -1h-138v53z" />
    <glyph glyph-name="aaevowelsignsinh" unicode="&#xdd1;" horiz-adv-x="299" 
d="M189 -181q-46 0 -84.5 16.5t-61.5 49.5t-23 83q0 53 29.5 95.5t76.5 76t99 60.5l5 -1q-25 -3 -55.5 -5t-83.5 -2h-42l-20 54q55 34 107 61.5t110 51.5l-11 -12q-15 -3 -38.5 -5t-51 -3t-56.5 -1h-79v53h241l22 -59q-24 -17 -56.5 -34.5t-68.5 -34.5t-73 -33l-1 4
q19 3 40 4.5t43 2.5t43 1h50l23 -57q-61 -39 -97.5 -70.5t-52.5 -63.5t-16 -73q0 -48 30 -75.5t82 -27.5q29 0 49.5 7t44.5 23l23 -44q-33 -21 -68 -31.5t-79 -10.5z" />
    <glyph glyph-name="ivowelsignsinh" unicode="&#xdd2;" 
d="M-322 852q89 0 146.5 -17t89.5 -43.5t45 -57.5t13 -60q0 -50 -16 -80.5t-44 -59.5l-44 40q27 18 38.5 40t11.5 50q0 32 -25 57t-77.5 39.5t-135.5 14.5q-54 0 -94.5 -7t-67.5 -20.5t-41 -33.5t-14 -47t12 -48.5t37 -42.5l-38 -29q-29 27 -48.5 60t-19.5 80q0 27 12.5 56
t42.5 53.5t83 40t134 15.5z" />
    <glyph glyph-name="iivowelsignsinh" unicode="&#xdd3;" 
d="M-322 852q84 0 142.5 -16.5t94 -43.5t52 -59t16.5 -63t-12 -56.5t-37.5 -40t-67.5 -14.5q-33 0 -59 11.5t-40.5 35t-14.5 58.5q0 28 10.5 48t27.5 33t37 19t40 6q23 0 39.5 -6.5t28.5 -14.5l-99 13q-37 10 -77 14t-79 4q-52 0 -92.5 -7t-68 -21.5t-42 -35.5t-14.5 -50
q0 -26 12 -47.5t37 -42.5l-38 -29q-29 27 -48.5 60t-19.5 80q0 27 12.5 56t42.5 53.5t83 40t134 15.5zM-70 669q0 26 -16.5 43t-47.5 17q-28 0 -45.5 -16.5t-17.5 -45.5q0 -30 18.5 -45t44.5 -15q32 0 48 17.5t16 44.5z" />
    <glyph glyph-name="uvowelsignsinh" unicode="&#xdd4;" 
d="M-621 -161q0 54 35.5 86.5t93.5 32.5q29 0 54 -6.5t45 -17.5l-19 -45q-14 7 -33.5 12.5t-44.5 5.5q-39 0 -56.5 -19t-17.5 -46q0 -30 17.5 -45t51.5 -20t81 -5h352v300h58v-356h-425q-100 0 -146 31t-46 92z" />
    <glyph glyph-name="uuvowelsignsinh" unicode="&#xdd6;" 
d="M-621 -164q0 56 35.5 89t93.5 33q29 0 53.5 -6.5t44.5 -17.5l-19 -45q-14 7 -33.5 12.5t-43.5 5.5q-39 0 -56.5 -19.5t-17.5 -52.5q0 -20 8 -36t25 -25.5t44 -9.5q41 0 68.5 11.5t67.5 34.5q47 27 79 41t67 14q31 0 56.5 -9t51.5 -29t57 -54l-18 -15q-2 29 -3 57.5
t-1 57.5v199h58v-356h-45q-31 33 -54.5 54.5t-46 31.5t-52.5 10q-18 0 -33.5 -4.5t-35 -14.5t-49.5 -28q-34 -20 -76.5 -37t-89.5 -17q-66 0 -100.5 36.5t-34.5 88.5z" />
    <glyph glyph-name="rvocalicvowelsignsinh" unicode="&#xdd8;" horiz-adv-x="409" 
d="M143 -4q-67 0 -100 36.5t-33 96.5q0 55 29 89t82.5 49.5t124.5 15.5h82l-4 -51h-91q-42 0 -78.5 -9t-59 -30.5t-22.5 -60.5q0 -26 8.5 -44t27.5 -27t49 -9q26 0 50 8t47 25l65 -29l-18 -56l-46 25q-27 -14 -51.5 -21.5t-61.5 -7.5zM188 504q45 0 78 -17.5t55 -49.5
q12 -18 20.5 -42.5t13 -65.5t4.5 -108v-221h-57l-18 41l-5 12v209q0 54 -7.5 97.5t-29 69t-65.5 25.5q-39 0 -62 -23.5t-39 -57.5l-52 25q27 47 66 76.5t98 29.5z" />
    <glyph glyph-name="evowelsignsinh" unicode="&#xdd9;" horiz-adv-x="634" 
d="M40 270q0 79 36.5 138.5t104.5 92.5t164 33q61 0 107 -8.5t84 -23.5t74 -35l-28 -49q-45 30 -104 47.5t-132 17.5q-70 0 -126 -22t-88 -67.5t-32 -114.5q0 -54 23.5 -98t74.5 -69.5t135 -25.5q81 0 126 20.5t63 52.5t18 67q0 41 -31.5 76t-102.5 44l4 4q23 -13 32 -34
t9 -41q0 -34 -14.5 -57.5t-40.5 -35.5t-62 -12q-57 0 -88 30.5t-31 79.5q0 53 39.5 85.5t115.5 32.5t126 -25t75.5 -66.5t25.5 -92.5q0 -65 -29 -115.5t-86.5 -79.5t-145.5 -29q-105 0 -170 38t-95.5 102t-30.5 140zM394 282q0 22 -14 39.5t-47 17.5q-26 0 -43.5 -15.5
t-17.5 -41.5q0 -27 15 -44t47 -17q28 0 44 15t16 46z" />
    <glyph glyph-name="uni0DDA" unicode="&#xdda;" horiz-adv-x="920" 
d="M40 270q0 79 36.5 138.5t104.5 92.5t164 33q61 0 107 -8.5t84 -23.5t74 -35l-28 -49q-45 30 -104 47.5t-132 17.5q-70 0 -126 -22t-88 -67.5t-32 -114.5q0 -54 23.5 -98t74.5 -69.5t135 -25.5q81 0 126 20.5t63 52.5t18 67q0 41 -31.5 76t-102.5 44l4 4q23 -13 32 -34
t9 -41q0 -34 -14.5 -57.5t-40.5 -35.5t-62 -12q-57 0 -88 30.5t-31 79.5q0 53 39.5 85.5t115.5 32.5t126 -25t75.5 -66.5t25.5 -92.5q0 -65 -29 -115.5t-86.5 -79.5t-145.5 -29q-105 0 -170 38t-95.5 102t-30.5 140zM394 282q0 22 -14 39.5t-47 17.5q-26 0 -43.5 -15.5
t-17.5 -41.5q0 -27 15 -44t47 -17q28 0 44 15t16 46zM697 963q23 0 43.5 -16t27.5 -46h11v-65l-3 -17q2 -22 2.5 -45t0.5 -46v-239h-52v359q0 38 -15 50.5t-30 12.5q-9 0 -15 -0.5t-9 -1.5l-8 45q8 4 18.5 6.5t28.5 2.5zM833 963q42 0 64.5 -27.5t22.5 -69.5t-21.5 -69.5
t-66.5 -27.5q-21 0 -43 11.5t-32 34.5l18 47q5 -21 16.5 -34.5t35.5 -13.5q20 0 30.5 13t10.5 38q0 26 -10.5 40t-32.5 14q-19 0 -31.5 -13t-17.5 -34l-38 24q15 31 39.5 49t55.5 18zM736 180q-26 0 -44.5 15t-18.5 53q0 39 18.5 53.5t44.5 14.5t44.5 -14.5t18.5 -53.5
q0 -38 -18.5 -53t-44.5 -15z" />
    <glyph glyph-name="aivowelsignsinh" unicode="&#xddb;" horiz-adv-x="1268" 
d="M40 270q0 79 36.5 138.5t104.5 92.5t164 33q61 0 107 -8.5t84 -23.5t74 -35l-28 -49q-45 30 -104 47.5t-132 17.5q-70 0 -126 -22t-88 -67.5t-32 -114.5q0 -54 23.5 -98t74.5 -69.5t135 -25.5q81 0 126 20.5t63 52.5t18 67q0 41 -31.5 76t-102.5 44l4 4q23 -13 32 -34
t9 -41q0 -34 -14.5 -57.5t-40.5 -35.5t-62 -12q-57 0 -88 30.5t-31 79.5q0 53 39.5 85.5t115.5 32.5t126 -25t75.5 -66.5t25.5 -92.5q0 -65 -29 -115.5t-86.5 -79.5t-145.5 -29q-105 0 -170 38t-95.5 102t-30.5 140zM394 282q0 22 -14 39.5t-47 17.5q-26 0 -43.5 -15.5
t-17.5 -41.5q0 -27 15 -44t47 -17q28 0 44 15t16 46zM674 270q0 79 36.5 138.5t104.5 92.5t164 33q61 0 107 -8.5t84 -23.5t74 -35l-28 -49q-45 30 -104 47.5t-132 17.5q-70 0 -126 -22t-88 -67.5t-32 -114.5q0 -54 23.5 -98t74.5 -69.5t135 -25.5q81 0 126 20.5t63 52.5
t18 67q0 41 -31.5 76t-102.5 44l4 4q23 -13 32 -34t9 -41q0 -34 -14.5 -57.5t-40.5 -35.5t-62 -12q-57 0 -88 30.5t-31 79.5q0 53 39.5 85.5t115.5 32.5t126 -25t75.5 -66.5t25.5 -92.5q0 -65 -29 -115.5t-86.5 -79.5t-145.5 -29q-105 0 -170 38t-95.5 102t-30.5 140z
M1028 282q0 22 -14 39.5t-47 17.5q-26 0 -43.5 -15.5t-17.5 -41.5q0 -27 15 -44t47 -17q28 0 44 15t16 46z" />
    <glyph glyph-name="uni0DDC" unicode="&#xddc;" horiz-adv-x="1179" 
d="M40 270q0 79 36.5 138.5t104.5 92.5t164 33q61 0 107 -8.5t84 -23.5t74 -35l-28 -49q-45 30 -104 47.5t-132 17.5q-70 0 -126 -22t-88 -67.5t-32 -114.5q0 -54 23.5 -98t74.5 -69.5t135 -25.5q81 0 126 20.5t63 52.5t18 67q0 41 -31.5 76t-102.5 44l4 4q23 -13 32 -34
t9 -41q0 -34 -14.5 -57.5t-40.5 -35.5t-62 -12q-57 0 -88 30.5t-31 79.5q0 53 39.5 85.5t115.5 32.5t126 -25t75.5 -66.5t25.5 -92.5q0 -65 -29 -115.5t-86.5 -79.5t-145.5 -29q-105 0 -170 38t-95.5 102t-30.5 140zM394 282q0 22 -14 39.5t-47 17.5q-26 0 -43.5 -15.5
t-17.5 -41.5q0 -27 15 -44t47 -17q28 0 44 15t16 46zM1137 248q0 -70 -12.5 -119t-35.5 -79.5t-55.5 -45t-73.5 -14.5q-38 0 -68 13t-52.5 38t-39.5 59l51 25q18 -36 40 -60.5t59 -24.5q33 0 55 21.5t33 67.5t11 119t-11 118.5t-33 66.5t-55 21q-37 0 -59.5 -23.5
t-38.5 -57.5l-52 25q27 47 65.5 76.5t94.5 29.5q55 0 94.5 -25.5t61 -82t21.5 -148.5zM736 180q-26 0 -44.5 15t-18.5 53q0 39 18.5 53.5t44.5 14.5t44.5 -14.5t18.5 -53.5q0 -38 -18.5 -53t-44.5 -15z" />
    <glyph glyph-name="uni0DDD" unicode="&#xddd;" horiz-adv-x="1179" 
d="M956 963q23 0 43.5 -16t27.5 -46h11v-65l-3 -17q2 -22 2.5 -45t0.5 -46v-246l-52 12v354q0 38 -15 50.5t-30 12.5q-9 0 -15 -0.5t-9 -1.5l-8 45q8 4 18.5 6.5t28.5 2.5zM1092 963q42 0 64.5 -27.5t22.5 -69.5t-21.5 -69.5t-66.5 -27.5q-21 0 -43 11.5t-32 34.5l18 47
q5 -21 16.5 -34.5t35.5 -13.5q20 0 30.5 13t10.5 38q0 26 -10.5 40t-32.5 14q-19 0 -31.5 -13t-17.5 -34l-38 24q15 31 39.5 49t55.5 18zM40 270q0 79 36.5 138.5t104.5 92.5t164 33q61 0 107 -8.5t84 -23.5t74 -35l-28 -49q-45 30 -104 47.5t-132 17.5q-70 0 -126 -22
t-88 -67.5t-32 -114.5q0 -54 23.5 -98t74.5 -69.5t135 -25.5q81 0 126 20.5t63 52.5t18 67q0 41 -31.5 76t-102.5 44l4 4q23 -13 32 -34t9 -41q0 -34 -14.5 -57.5t-40.5 -35.5t-62 -12q-57 0 -88 30.5t-31 79.5q0 53 39.5 85.5t115.5 32.5t126 -25t75.5 -66.5t25.5 -92.5
q0 -65 -29 -115.5t-86.5 -79.5t-145.5 -29q-105 0 -170 38t-95.5 102t-30.5 140zM394 282q0 22 -14 39.5t-47 17.5q-26 0 -43.5 -15.5t-17.5 -41.5q0 -27 15 -44t47 -17q28 0 44 15t16 46zM736 180q-26 0 -44.5 15t-18.5 53q0 39 18.5 53.5t44.5 14.5t44.5 -14.5t18.5 -53.5
q0 -38 -18.5 -53t-44.5 -15zM1137 248q0 -70 -12.5 -119t-35.5 -79.5t-55.5 -45t-73.5 -14.5q-38 0 -68 13t-52.5 38t-39.5 59l51 25q18 -36 40 -60.5t59 -24.5q33 0 55 21.5t33 67.5t11 119t-11 118.5t-33 66.5t-55 21q-37 0 -59.5 -23.5t-38.5 -57.5l-52 25
q27 47 65.5 76.5t94.5 29.5q55 0 94.5 -25.5t61 -82t21.5 -148.5z" />
    <glyph glyph-name="uni0DDE" unicode="&#xdde;" horiz-adv-x="1357" 
d="M40 270q0 79 36.5 138.5t104.5 92.5t164 33q61 0 107 -8.5t84 -23.5t74 -35l-28 -49q-45 30 -104 47.5t-132 17.5q-70 0 -126 -22t-88 -67.5t-32 -114.5q0 -54 23.5 -98t74.5 -69.5t135 -25.5q81 0 126 20.5t63 52.5t18 67q0 41 -31.5 76t-102.5 44l4 4q23 -13 32 -34
t9 -41q0 -34 -14.5 -57.5t-40.5 -35.5t-62 -12q-57 0 -88 30.5t-31 79.5q0 53 39.5 85.5t115.5 32.5t126 -25t75.5 -66.5t25.5 -92.5q0 -65 -29 -115.5t-86.5 -79.5t-145.5 -29q-105 0 -170 38t-95.5 102t-30.5 140zM394 282q0 22 -14 39.5t-47 17.5q-26 0 -43.5 -15.5
t-17.5 -41.5q0 -27 15 -44t47 -17q28 0 44 15t16 46zM1138 -10q-38 0 -68 13t-52.5 38t-39.5 59l51 25q18 -36 40 -60.5t59 -24.5q33 0 55 21.5t33 67.5t11 119q0 72 -12 117.5t-34.5 67t-55.5 21.5q-34 0 -53 -20.5t-33 -52.5l-59 11q24 50 59 81t90 31q58 0 99.5 -26.5
t64 -83t22.5 -146.5q0 -70 -12.5 -119t-35.5 -79.5t-55.5 -45t-73.5 -14.5zM1011 223q-59 0 -95 21t-52.5 56.5t-16.5 77.5q0 46 19 86.5t56 73.5l46 -34q-22 -23 -40.5 -53.5t-18.5 -76.5q0 -23 7.5 -46.5t29.5 -39t67 -15.5q35 0 55 14.5t20 45.5q0 22 -13.5 32t-33.5 10
q-7 0 -13 -1t-11 -3l-37 21l27 21q5 2 17 3.5t26 1.5q21 0 42 -7.5t35.5 -26t14.5 -51.5q0 -47 -31 -78.5t-100 -31.5zM736 180q-26 0 -44.5 15t-18.5 53q0 39 18.5 53.5t44.5 14.5t44.5 -14.5t18.5 -53.5q0 -38 -18.5 -53t-44.5 -15z" />
    <glyph glyph-name="lvocalicvowelsignsinh" unicode="&#xddf;" horiz-adv-x="534" 
d="M315 -10q-38 0 -68 13t-52.5 38t-39.5 59l51 25q18 -36 40 -60.5t59 -24.5q33 0 55 21.5t33 67.5t11 119q0 72 -12 117.5t-34.5 67t-55.5 21.5q-34 0 -53 -20.5t-33 -52.5l-59 11q24 50 59 81t90 31q58 0 99.5 -26.5t64 -83t22.5 -146.5q0 -70 -12.5 -119t-35.5 -79.5
t-55.5 -45t-73.5 -14.5zM188 223q-59 0 -95 21t-52.5 56.5t-16.5 77.5q0 46 19 86.5t56 73.5l46 -34q-22 -23 -40.5 -53.5t-18.5 -76.5q0 -23 7.5 -46.5t29.5 -39t67 -15.5q35 0 55 14.5t20 45.5q0 22 -13.5 32t-33.5 10q-7 0 -13 -1t-11 -3l-37 21l27 21q5 2 17 3.5t26 1.5
q21 0 42 -7.5t35.5 -26t14.5 -51.5q0 -47 -31 -78.5t-100 -31.5z" />
    <glyph glyph-name="uni0DE6" unicode="&#xde6;" horiz-adv-x="382" 
d="M80 706q34 0 57 -19t24 -57h19v-80l-4 -20q2 -19 3 -37.5t1 -37v-37.5v-418h-59v558q0 42 -7 62t-19 26t-26 6t-24.5 -2.5t-18.5 -5.5l-10 48q9 5 27 9.5t37 4.5zM250 706q51 0 78.5 -32t27.5 -84q0 -51 -26 -83t-76 -32q-43 0 -63 17.5t-36 46.5l24 43q7 -25 21 -41.5
t43 -16.5q24 0 37 17.5t13 47.5q0 32 -13 50.5t-40 18.5q-24 0 -38.5 -15.5t-21.5 -41.5l-40 22q15 40 42.5 61.5t67.5 21.5z" />
    <glyph glyph-name="uni0DE7" unicode="&#xde7;" horiz-adv-x="840" 
d="M41 293q0 89 39.5 155.5t112.5 103.5t171 37q144 0 239.5 -68t151 -199t77.5 -319l-57 -6q-18 135 -49.5 236t-80 168.5t-117.5 101.5t-162 34q-79 0 -138.5 -27t-92 -79t-32.5 -128q0 -60 23.5 -107t74.5 -74t133 -27t127.5 21.5t63.5 55t18 69.5q0 29 -13 58t-42 49.5
t-79 24.5l4 4q23 -13 32 -34t9 -41q0 -34 -14.5 -57.5t-40.5 -35.5t-62 -12q-57 0 -88 30.5t-31 79.5q0 53 39.5 85.5t115.5 32.5q77 0 127.5 -26.5t75 -72t24.5 -104.5q0 -67 -29 -119.5t-88.5 -82.5t-151.5 -30q-72 0 -126.5 22.5t-91 63.5t-54.5 96t-18 121zM397 309
q0 22 -14 39.5t-47 17.5q-26 0 -43.5 -15.5t-17.5 -41.5q0 -27 15 -44t47 -17q28 0 44 15t16 46z" />
    </font>
</defs>
</svg>
