<?xml version="1.0" standalone="no"?>
<!DOCTYPE svg PUBLIC "-//W3C//DTD SVG 1.1//EN" "http://www.w3.org/Graphics/SVG/1.1/DTD/svg11.dtd" >
<svg xmlns="http://www.w3.org/2000/svg" xmlns:xlink="http://www.w3.org/1999/xlink" version="1.1">
<metadata>
Created by FontForge 20201107 at Sat Apr 23 03:15:12 2011
 By 
Copyright (c) 2010 by Brian J. Bonislawsky DBA Astigmatic (AOETI). All rights reserved. Available under the Apache 2.0 licence.http://www.apache.org/licenses/LICENSE-2.0.html
</metadata>
<defs>
<font id="Syncopate-Bold" horiz-adv-x="2116" >
  <font-face 
    font-family="Syncopate"
    font-weight="700"
    font-stretch="normal"
    units-per-em="2048"
    panose-1="2 6 5 7 0 0 0 2 0 3"
    ascent="1638"
    descent="-410"
    x-height="1374"
    cap-height="1374"
    bbox="-459 -523 3355 1964"
    underline-thickness="102"
    underline-position="-205"
    unicode-range="U+0020-FB02"
  />
<missing-glyph horiz-adv-x="2048" 
 />
    <glyph glyph-name=".notdef" horiz-adv-x="2048" 
 />
    <glyph glyph-name=".null" horiz-adv-x="0" 
 />
    <glyph glyph-name="nonmarkingreturn" horiz-adv-x="682" 
 />
    <glyph glyph-name="space" unicode=" " horiz-adv-x="770" 
 />
    <glyph glyph-name="exclam" unicode="!" horiz-adv-x="768" 
d="M508 471h-248l-76 604v299h400v-299zM205 0v319h358v-319h-358z" />
    <glyph glyph-name="quotedbl" unicode="&#x22;" horiz-adv-x="903" 
d="M92 825l-41 549h330l-41 -549h-248zM563 825l-41 549h330l-41 -549h-248z" />
    <glyph glyph-name="numbersign" unicode="#" horiz-adv-x="1559" 
d="M1196 809l-53 -242h198v-256h-254l-71 -311h-264l71 311h-250l-71 -311h-264l71 311h-207v256h260l56 242h-201v256h258l66 309h264l-66 -309h250l66 309h264l-66 -309h203v-256h-260zM682 809l-55 -242h252l53 242h-250z" />
    <glyph glyph-name="dollar" unicode="$" horiz-adv-x="1698" 
d="M707 2q-165 8 -305.5 34.5t-249.5 63.5v301q112 -62 253 -100t302 -49v330q-69 14 -138 31t-131.5 40t-116.5 53.5t-93.5 70.5t-62 90.5t-22.5 115.5q0 74 23.5 130t64 98t95 70.5t117.5 47t130.5 28t133.5 13.5v133h264v-135q127 -9 250.5 -32t222.5 -52v-289
q-32 15 -81 33.5t-110 36.5t-132.5 32.5t-149.5 22.5v-289q70 -15 141 -33t135.5 -42t120.5 -55.5t97.5 -72.5t65 -93t23.5 -117q0 -79 -24 -139t-66 -104.5t-98 -75t-121 -50t-135 -30t-139 -15.5v-133h-264v131zM1208 393q0 26 -18 46.5t-49.5 36t-75 28.5t-94.5 24v-274
q68 7 113.5 21.5t73 33.5t39 40.5t11.5 43.5zM487 1012q0 -24 16 -42.5t45.5 -33.5t70 -27.5t88.5 -23.5v235q-71 -5 -114 -16.5t-66.5 -26t-31.5 -31.5t-8 -34z" />
    <glyph glyph-name="percent" unicode="%" horiz-adv-x="2011" 
d="M596 0h-279l1098 1374h277zM903 1049q0 -81 -32 -145.5t-87.5 -110.5t-130.5 -70.5t-161 -24.5t-160.5 24.5t-130 70.5t-87.5 110.5t-32 145.5q0 82 32 147t87.5 110t130 69t160.5 24t161 -24t130.5 -69t87.5 -110t32 -147zM651 1049q0 30 -11 57.5t-31 48.5t-50 34
t-67 13q-38 0 -67.5 -13t-49.5 -34t-30.5 -48.5t-10.5 -57.5q0 -29 10.5 -57t30.5 -49.5t49.5 -34.5t67.5 -13q37 0 67 13t50 34.5t31 49.5t11 57zM1929 324q0 -81 -32 -145.5t-87.5 -110.5t-130.5 -70.5t-161 -24.5t-160.5 24.5t-130 70.5t-87.5 110.5t-32 145.5
q0 82 32 147t87.5 110t130 69t160.5 24t161 -24t130.5 -69t87.5 -110t32 -147zM1677 324q0 30 -11 57.5t-31 48.5t-50 34t-67 13q-38 0 -67.5 -13t-49.5 -34t-30.5 -48.5t-10.5 -57.5q0 -29 10.5 -57t30.5 -49.5t49.5 -34.5t67.5 -13q37 0 67 13t50 34.5t31 49.5t11 57z" />
    <glyph glyph-name="ampersand" unicode="&#x26;" horiz-adv-x="1964" 
d="M1792 711q-19 -140 -88 -256t-174 -207q87 -62 177.5 -124t184.5 -124h-469q-68 43 -135 90q-121 -57 -253 -87t-263 -30q-151 0 -269.5 25.5t-200 75.5t-124.5 124.5t-43 172.5q0 75 26 137t70.5 113t103.5 93t124 77q-54 74 -83.5 145t-29.5 139q0 77 35 137t103 101.5
t166.5 63.5t226.5 22q114 0 200.5 -23.5t144 -63.5t86.5 -91.5t29 -106.5q0 -69 -34.5 -125t-91.5 -103t-130 -86.5t-151 -74.5q75 -71 166.5 -147.5t199.5 -157.5q59 52 96.5 124.5t47.5 166.5h352zM778 242q56 0 118.5 7.5t127.5 24.5q-108 81 -204.5 158.5t-178.5 155.5
q-71 -38 -114.5 -81t-43.5 -95q0 -29 13 -59.5t46.5 -55t90.5 -40t145 -15.5zM694 1055q0 -28 15 -61.5t43 -73.5q52 21 97 40.5t78.5 39t52.5 40.5t19 45q0 12 -6 27t-21 28t-41.5 22t-68.5 9q-51 0 -84 -9.5t-51.5 -25t-25.5 -36.5t-7 -45z" />
    <glyph glyph-name="quotesingle" unicode="'" horiz-adv-x="453" 
d="M92 825l-41 549h350l-41 -549h-268z" />
    <glyph glyph-name="parenleft" unicode="(" horiz-adv-x="946" 
d="M477 684q0 -93 17 -171.5t52 -150.5t88.5 -140t127.5 -140l-207 -223q-92 73 -167.5 157t-130 184t-84.5 219.5t-30 264.5t30 264.5t84.5 219.5t130 183.5t167.5 157.5l207 -223q-74 -72 -127.5 -140t-88.5 -140t-52 -150.5t-17 -171.5z" />
    <glyph glyph-name="parenright" unicode=")" horiz-adv-x="946" 
d="M469 684q0 93 -17 171.5t-52 150.5t-88.5 140t-127.5 140l125 135v2l82 86q91 -69 164 -153q55 -62 100 -132t77 -149.5t50.5 -170.5t20.5 -195v-25q0 -110 -17.5 -205t-49.5 -177.5t-78 -154t-103 -135.5q-34 -38 -70.5 -72.5t-74.5 -66.5q-5 -3 -9.5 -6t-9.5 -8l-82 86
v2l-125 135q74 72 127.5 140t88.5 140t52 150.5t17 171.5z" />
    <glyph glyph-name="asterisk" unicode="*" horiz-adv-x="1075" 
d="M432 537l33 290l-254 -186l-109 186l289 127l-287 127l107 187l254 -187l-33 293h215l-33 -289l250 183l107 -187l-285 -127l287 -125l-109 -186l-250 182l33 -288h-215z" />
    <glyph glyph-name="plus" unicode="+" horiz-adv-x="1382" 
d="M838 539v-394h-293v394h-393v292h393v394h293v-394h393v-292h-393z" />
    <glyph glyph-name="comma" unicode="," horiz-adv-x="492" 
d="M305 -203h-305l82 563h369z" />
    <glyph glyph-name="hyphen" unicode="-" horiz-adv-x="1106" 
d="M143 522v328h820v-328h-820z" />
    <glyph glyph-name="period" unicode="." horiz-adv-x="584" 
d="M102 0v360h379v-360h-379z" />
    <glyph glyph-name="slash" unicode="/" horiz-adv-x="1188" 
d="M418 -41h-326l678 1477h326z" />
    <glyph glyph-name="zero" unicode="0" horiz-adv-x="1858" 
d="M1739 686q0 -164 -62.5 -297.5t-171.5 -228t-257 -146t-318 -51.5q-114 0 -218 23t-194.5 67t-164 107.5t-125.5 143.5t-80.5 176t-28.5 206q0 109 28.5 205.5t80.5 176.5t125.5 143.5t164 107.5t194.5 67t218 23q170 0 318 -51.5t257 -146t171.5 -228t62.5 -297.5z
M1368 686q0 104 -36 184t-96.5 135t-139.5 83t-166 28t-167 -28t-140.5 -83t-97 -135t-36.5 -184t36.5 -184t97 -134.5t140.5 -83t167 -28.5t166 28.5t139.5 83t96.5 134.5t36 184z" />
    <glyph glyph-name="one" unicode="1" horiz-adv-x="983" 
d="M389 0v1100l-369 -115v275l369 114h369v-1374h-369z" />
    <glyph glyph-name="two" unicode="2" horiz-adv-x="1651" 
d="M82 0v246q268 123 465.5 220t327 176t192.5 144.5t63 126.5q0 17 -3.5 38.5t-16 44t-36.5 44.5t-66 38.5t-104 27t-150 10.5q-81 0 -169 -10.5t-174 -29.5t-166 -46t-147 -61v327q138 48 306.5 80.5t355.5 32.5q175 0 313 -31t233.5 -89.5t146 -142t50.5 -188.5
q0 -58 -12.5 -108.5t-44.5 -98.5t-86.5 -96.5t-138 -102.5t-199.5 -116.5t-270 -138.5h780v-297h-1450z" />
    <glyph glyph-name="three" unicode="3" horiz-adv-x="1626" 
d="M1114 733q103 -23 176 -55.5t119 -75t67 -95t21 -114.5q0 -108 -58.5 -189t-162 -134.5t-244.5 -80t-305 -26.5q-110 0 -202 9.5t-169.5 24.5t-142.5 33.5t-121 37.5v329q62 -33 139.5 -59t160 -44.5t166.5 -28t159 -9.5q136 0 217 16.5t123 42t54.5 54.5t12.5 55
q0 44 -28.5 76t-100 53t-193.5 31.5t-308 11.5v272q169 0 280.5 7t178.5 22t94.5 39t27.5 59q0 11 -3.5 24t-15.5 27t-35 27t-63 23t-99 16t-142 6q-78 0 -158.5 -8t-157.5 -24t-149 -39t-133 -54v328q136 45 291 66.5t307 21.5q149 0 281.5 -20t232 -63.5t157.5 -113
t58 -168.5q0 -53 -18.5 -100.5t-58.5 -87.5t-103 -71t-152 -52z" />
    <glyph glyph-name="four" unicode="4" horiz-adv-x="1667" 
d="M1294 270v-270h-368v270h-875v293l787 811h456v-811h312v-293h-312zM926 1051l-473 -488h473v488z" />
    <glyph glyph-name="five" unicode="5" horiz-adv-x="1669" 
d="M1434 1083h-914v-211q32 6 71 10.5t81 7.5t85 5t85 2q167 0 298.5 -30t222.5 -88t139 -143t48 -196q0 -103 -44.5 -190.5t-141 -151t-250.5 -99.5t-373 -36q-101 0 -192.5 7.5t-171 20.5t-145 29t-113.5 33v324q43 -20 101.5 -41.5t136 -39t175 -29t218.5 -11.5
q224 0 327 47.5t103 130.5q0 98 -112.5 144.5t-324.5 46.5q-71 0 -139.5 -5t-130 -13.5t-114.5 -20t-95 -23.5h-90v811h1260v-291z" />
    <glyph glyph-name="six" unicode="6" horiz-adv-x="1751" 
d="M1010 1130q-132 0 -229 -25t-161 -69.5t-96.5 -104t-36.5 -128.5q52 25 109.5 47.5t123.5 40t141.5 27.5t162.5 10q133 0 247 -26t198 -82t132 -143t48 -208q0 -134 -56 -230t-154 -157.5t-231 -90t-288 -28.5q-179 0 -326 44t-253 132t-164 221t-58 310
q0 152 51.5 286.5t159 235t273 159t392.5 58.5q67 0 138 -5t139 -13.5t128.5 -19.5t106.5 -23v-308q-33 13 -80.5 29t-110 29.5t-139 22.5t-167.5 9zM494 500q11 -42 45.5 -86t90 -80.5t130 -60t166.5 -23.5q73 0 137.5 11.5t112 35.5t75 60.5t27.5 86.5q0 54 -22 92
t-64 61.5t-103.5 34.5t-140.5 11q-65 0 -129.5 -12t-123.5 -31.5t-110.5 -45.5t-90.5 -54z" />
    <glyph glyph-name="seven" unicode="7" horiz-adv-x="1475" 
d="M672 0h-414l717 1075h-934v299h1372v-254z" />
    <glyph glyph-name="eight" unicode="8" horiz-adv-x="1749" 
d="M1272 752q103 -32 176 -69t120 -82t69 -100t22 -122q0 -99 -53 -176.5t-154 -130.5t-247 -81t-331 -28t-330.5 28t-246.5 81t-154 130.5t-53 176.5q0 67 22 122t69 100t120 82t176 69q-81 32 -135 64t-86.5 67.5t-45.5 76.5t-13 91q0 77 44 142.5t129.5 113.5t212 75
t291.5 27q178 0 307 -28.5t211.5 -77.5t122 -114t39.5 -138q0 -50 -13.5 -91t-46 -76.5t-87 -67.5t-135.5 -64zM1186 1016q0 37 -23.5 62t-65.5 40.5t-99 22t-124 6.5t-123.5 -6.5t-98 -22t-64.5 -40.5t-23 -62t26 -64t69 -46.5t98.5 -32t115.5 -19.5q50 7 105 19.5t101 32
t76 46.5t30 64zM874 608q-125 -21 -205 -42t-125.5 -44.5t-63 -50t-17.5 -57.5q0 -12 4.5 -29.5t19 -37t42 -39t73 -35t112 -25.5t160.5 -10t161 9.5t112.5 25t73 35t42 39t19 37.5t4.5 30q0 31 -17.5 57.5t-63.5 50t-126 44.5t-205 42z" />
    <glyph glyph-name="nine" unicode="9" horiz-adv-x="1751" 
d="M721 242q140 0 240.5 25t166.5 69.5t99 104t37 128.5q-52 -25 -109.5 -47.5t-123 -40t-141 -27.5t-163.5 -10q-133 0 -247 26.5t-198 82t-132 142.5t-48 208q0 135 56 230.5t154 157t231 90t288 28.5q178 0 325.5 -44t253.5 -132t164 -220.5t58 -310.5q0 -152 -52 -286.5
t-161.5 -235t-279 -159t-404.5 -58.5q-67 0 -138 5t-138.5 13.5t-128.5 20t-107 23.5v307q33 -13 80.5 -29t110 -29.5t139 -22.5t168.5 -9zM1257 872q-11 42 -45.5 86t-90 80.5t-130.5 60t-166 23.5q-74 0 -138 -11.5t-111.5 -35.5t-75 -60.5t-27.5 -86.5q0 -54 22 -92
t64 -61.5t103.5 -34.5t140.5 -11q65 0 129.5 12t123.5 31.5t110.5 45.5t90.5 54z" />
    <glyph glyph-name="colon" unicode=":" horiz-adv-x="625" 
d="M123 0v360h379v-360h-379zM123 635v360h379v-360h-379z" />
    <glyph glyph-name="semicolon" unicode=";" horiz-adv-x="645" 
d="M143 635v360h379v-360h-379zM367 -203h-306l82 563h369z" />
    <glyph glyph-name="less" unicode="&#x3c;" horiz-adv-x="1323" 
d="M135 575v218l1036 460v-319l-604 -250l604 -248v-319z" />
    <glyph glyph-name="equal" unicode="=" horiz-adv-x="1382" 
d="M152 801v293h1079v-293h-1079zM152 274v295h1079v-295h-1079z" />
    <glyph glyph-name="greater" unicode="&#x3e;" horiz-adv-x="1323" 
d="M152 117v319l604 248l-604 250v319l1036 -460v-218z" />
    <glyph glyph-name="question" unicode="?" horiz-adv-x="1329" 
d="M1206 997q0 -81 -26.5 -142.5t-70 -108t-99.5 -78.5t-116 -54.5t-119.5 -36t-108.5 -22.5v-104h-359v311q67 2 132 8.5t123 17.5t107.5 27.5t85.5 38.5t56 49.5t20 61.5q0 28 -12 53.5t-43 45t-84 31t-135 11.5q-59 0 -123 -9.5t-124.5 -25t-114.5 -35.5t-93 -41v340
q36 12 91 23.5t119 20.5t131.5 14.5t129.5 5.5q135 0 250.5 -22.5t200.5 -71.5t133.5 -125t48.5 -183zM307 0v319h359v-319h-359z" />
    <glyph glyph-name="at" unicode="@" horiz-adv-x="2081" 
d="M1221 436q-21 -19 -45.5 -39t-58 -36t-77.5 -26.5t-104 -10.5q-69 0 -129 19t-105 56.5t-70.5 92.5t-25.5 126q0 72 21 132t56 108.5t80 85t94.5 60.5t99 36.5t92.5 12.5q69 0 113 -18t67 -34l8 37h233l-61 -372q-1 -3 -3 -16t-4 -28t-3.5 -27.5t-1.5 -14.5
q0 -11 2.5 -24t10 -24t20.5 -18.5t34 -7.5q56 0 93 30t58.5 73.5t30.5 92t9 86.5q0 85 -27.5 158.5t-92.5 127.5t-171.5 85t-263.5 31q-117 0 -212.5 -22t-170 -60t-128.5 -90t-89.5 -112t-52.5 -125t-17 -130q0 -94 29 -177t99 -145t185.5 -98t288.5 -36q58 0 106.5 3
t89.5 9t76.5 14.5t69.5 20.5l64 -224q-37 -13 -86.5 -23.5t-104.5 -18t-112.5 -11.5t-110.5 -4q-224 0 -391 48t-277.5 138t-165.5 217.5t-55 286.5q0 107 32.5 205.5t93 184.5t146.5 156.5t192.5 121.5t232 78.5t264.5 27.5q147 0 267.5 -24t215 -67t163.5 -102.5
t114.5 -129.5t67.5 -148.5t22 -160.5q0 -92 -29.5 -176.5t-89.5 -149.5t-152 -104t-217 -39q-39 0 -76 7t-68 21t-55.5 35t-37.5 49zM979 500q34 0 60 9t47 24t38.5 35t32.5 42l37 205q-10 15 -25 26.5t-31.5 19.5t-34.5 12t-34 4q-45 0 -85.5 -20t-70.5 -53.5t-47.5 -78.5
t-17.5 -96q0 -26 7 -49.5t23 -41t41 -28t60 -10.5z" />
    <glyph glyph-name="A" unicode="A" horiz-adv-x="1872" 
d="M1319 260h-766l-129 -260h-414l719 1374h414l719 -1374h-414zM686 528h502l-250 506z" />
    <glyph glyph-name="B" unicode="B" horiz-adv-x="1905" 
d="M1782 379q0 -80 -21 -139t-58.5 -101.5t-90 -69t-116 -42t-135.5 -21.5t-149 -6h-997v1374h979q59 0 118.5 -5t113.5 -18.5t100.5 -37.5t81 -63t54 -94t19.5 -130q0 -134 -66 -212.5t-208 -104.5q100 -7 171.5 -30.5t116.5 -64t66 -99t21 -136.5zM1319 967q0 26 -8 49.5
t-29 41.5t-57 29t-92 11h-547v-258h547q56 0 92 10t57 27t29 40.5t8 49.5zM1405 422q0 47 -16 75.5t-50 44t-88 20.5t-129 5h-536v-291h536q75 0 129 5t88 21t50 44.5t16 75.5z" />
    <glyph glyph-name="C" unicode="C" horiz-adv-x="1860" 
d="M1729 94q-72 -30 -145 -54t-151 -41.5t-164.5 -26.5t-185.5 -9q-210 0 -386.5 45t-304 135.5t-198.5 226t-71 316.5t71 316.5t198.5 226t304 135.5t386.5 45q99 0 185.5 -9t164.5 -26.5t151 -41.5t145 -54v-334q-57 31 -120 61.5t-139 55t-167 40t-205 15.5
q-175 0 -290.5 -36t-184.5 -96t-97 -137.5t-28 -160.5q0 -55 12 -108.5t40 -101t73 -87.5t112 -69t156.5 -45.5t206.5 -16.5q114 0 205 14.5t167 38.5t139 54.5t120 62.5v-334v0z" />
    <glyph glyph-name="D" unicode="D" horiz-adv-x="2021" 
d="M1898 688q0 -132 -29 -234.5t-81.5 -178.5t-126 -129t-163.5 -85t-194 -46.5t-217 -14.5h-872v1374h870q113 0 217 -14.5t194.5 -46.5t164.5 -84.5t126.5 -129t81.5 -178.5t29 -233zM1524 688q0 99 -25.5 172t-82 120.5t-147.5 71t-222 23.5h-461v-776h461
q131 0 222 23.5t147.5 72t82 121.5t25.5 172z" />
    <glyph glyph-name="E" unicode="E" horiz-adv-x="1763" 
d="M215 0v1374h1391v-293h-1010v-227h958v-293h-958v-268h1024v-293h-1405z" />
    <glyph glyph-name="F" unicode="F" horiz-adv-x="1630" 
d="M586 1081v-239h893v-293h-893v-549h-371v1374h1313v-293h-942z" />
    <glyph glyph-name="G" unicode="G" horiz-adv-x="2011" 
d="M1100 1409q202 0 375.5 -34.5t318.5 -88.5v-336q-57 32 -128.5 62t-155.5 53t-180 37t-202 14q-132 0 -230 -19t-168 -51t-115 -74.5t-71 -90.5t-36 -98t-10 -97q0 -41 8.5 -89t32 -96t65.5 -92t109.5 -78t162.5 -54.5t226 -20.5q66 0 115 4t89.5 11t76 17t73.5 21v166
h-416v301h787v-702q-74 -25 -165.5 -45.5t-189 -35t-195.5 -22.5t-185 -8q-135 0 -259 18t-231.5 55.5t-196 95.5t-151 138t-97 183.5t-34.5 232.5q0 128 36 232t100.5 184t155 138t199 95.5t232 55.5t254.5 18z" />
    <glyph glyph-name="H" unicode="H" 
d="M1530 0v573h-944v-573h-371v1374h371v-500h944v500h371v-1374h-371z" />
    <glyph glyph-name="I" unicode="I" horiz-adv-x="801" 
d="M215 0v1374h371v-1374h-371z" />
    <glyph glyph-name="J" unicode="J" horiz-adv-x="1415" 
d="M1210 508q0 -137 -44.5 -236t-130 -163t-209.5 -94.5t-283 -30.5q-75 0 -154 7.5t-152 18.5t-134.5 23.5t-102.5 23.5v322q42 -17 92 -34.5t111.5 -31.5t136 -23t164.5 -9q97 0 161.5 21.5t103.5 60t55 90.5t16 114v807h370v-866z" />
    <glyph glyph-name="K" unicode="K" horiz-adv-x="1907" 
d="M588 850l760 524h497l-925 -659l987 -715h-541l-778 571v-571h-373v1374h373v-524z" />
    <glyph glyph-name="L" unicode="L" horiz-adv-x="1671" 
d="M215 0v1374h371v-1073h1003v-301h-1374z" />
    <glyph glyph-name="M" unicode="M" horiz-adv-x="2546" 
d="M1962 0v965l-510 -965h-356l-510 965v-965h-371v1374h504l555 -1040l555 1040h502v-1374h-369z" />
    <glyph glyph-name="N" unicode="N" horiz-adv-x="2130" 
d="M1513 0l-927 944v-944h-371v1374h403l928 -948v948h369v-1374h-402z" />
    <glyph glyph-name="O" unicode="O" 
d="M1993 686q0 -177 -65 -312.5t-186 -226.5t-293.5 -137.5t-387.5 -46.5t-388.5 46.5t-295.5 137.5t-188 226.5t-66 312.5t66 312.5t188 226.5t295.5 137.5t388.5 46.5t387.5 -46.5t293.5 -137.5t186 -226.5t65 -312.5zM1618 686q0 77 -24.5 153.5t-87 137.5t-170.5 99
t-275 38q-112 0 -197 -17.5t-147 -48.5t-104 -72.5t-67 -89t-35.5 -99t-10.5 -101.5q0 -51 10.5 -103t35.5 -99.5t67 -88.5t104 -71.5t147 -48t197 -17.5q167 0 275 38t170.5 99t87 137.5t24.5 153.5z" />
    <glyph glyph-name="P" unicode="P" horiz-adv-x="1851" 
d="M1759 905q0 -103 -30 -189.5t-96.5 -149t-172.5 -97.5t-258 -35h-616v-434h-371v1374h987q152 0 258 -34.5t172.5 -97t96.5 -148.5t30 -189zM1384 899q0 48 -13.5 82.5t-44.5 56.5t-81 32.5t-123 10.5h-536v-354h536q73 0 123 8.5t81 29t44.5 53.5t13.5 81z" />
    <glyph glyph-name="Q" unicode="Q" 
d="M1993 686q0 -112 -26.5 -206.5t-76.5 -172.5q140 -53 252 -82l-151 -270q-81 31 -165 65t-169 72q-116 -65 -266 -97t-330 -32q-215 0 -388.5 46.5t-295.5 137.5t-188 226.5t-66 312.5t66 312.5t188 226.5t295.5 137.5t388.5 46.5t387.5 -46.5t293.5 -137.5t186 -226.5
t65 -312.5zM1618 686q0 77 -24.5 153.5t-87 137.5t-170.5 99t-275 38q-112 0 -197 -17.5t-147 -48.5t-104 -72.5t-67 -89t-35.5 -99t-10.5 -101.5q0 -51 10.5 -103t35.5 -99.5t67 -88.5t104 -71.5t147 -48t197 -17.5q60 0 112 5t99 16q-62 32 -119.5 64.5t-108.5 64.5
l148 243q71 -49 164 -100t196 -100q38 54 52 113.5t14 121.5z" />
    <glyph glyph-name="R" unicode="R" horiz-adv-x="1892" 
d="M586 0h-371v1374h930q150 0 254.5 -31t170 -88t95 -137.5t29.5 -179.5q0 -87 -24.5 -152t-66 -111.5t-96.5 -78.5t-116 -53l450 -543h-434l-416 506h-405v-506zM1319 940q0 40 -10.5 68t-36.5 45.5t-69.5 25.5t-108.5 8h-508v-294h508q65 0 108.5 8t69.5 25.5t36.5 45.5
t10.5 68z" />
    <glyph glyph-name="S" unicode="S" horiz-adv-x="1731" 
d="M1481 987q-39 19 -103 43t-145 45.5t-176 36t-195 14.5q-80 0 -136.5 -5t-95 -13t-61 -18.5t-34.5 -21.5t-15.5 -22t-3.5 -20q0 -30 30 -52.5t82 -40t121 -33t146.5 -32t160 -36t160 -45.5t146.5 -60.5t121 -80.5t82 -106t30 -137q0 -99 -35 -170t-93.5 -120
t-135.5 -78.5t-161.5 -45.5t-171 -21t-164.5 -5q-204 0 -377.5 33.5t-306.5 83.5v328q137 -76 312.5 -119t375.5 -43q118 0 192.5 12.5t116.5 32t57 42.5t15 44q0 33 -30 57.5t-82 43t-121 34t-146.5 31t-159.5 33.5t-159.5 42.5t-146.5 57t-121 77t-82 103t-30 135.5
q0 91 32 157t86.5 112.5t126 75.5t150.5 45t160 22t154 6q80 0 164.5 -8t166.5 -22.5t158.5 -33.5t141.5 -40v-318z" />
    <glyph glyph-name="T" unicode="T" horiz-adv-x="1599" 
d="M985 1075v-1075h-371v1075h-583v299h1538v-299h-584z" />
    <glyph glyph-name="U" unicode="U" horiz-adv-x="2042" 
d="M1837 463q0 -103 -51 -194t-153 -159t-254.5 -107.5t-356.5 -39.5t-357.5 39.5t-255.5 107.5t-153 159t-51 194v911h370v-778q0 -69 17.5 -130.5t66 -107.5t136 -73t227.5 -27q139 0 226 27t135.5 73t65.5 107.5t17 130.5v778h371v-911v0z" />
    <glyph glyph-name="V" unicode="V" horiz-adv-x="1847" 
d="M1137 0h-432l-695 1374h414l500 -1034l499 1034h414z" />
    <glyph glyph-name="W" unicode="W" horiz-adv-x="2687" 
d="M1550 1374l351 -954l380 954h385l-552 -1374h-412l-359 924l-358 -924h-412l-553 1374h386l372 -934l359 934h413z" />
    <glyph glyph-name="X" unicode="X" horiz-adv-x="1804" 
d="M1124 705l652 -705h-445l-430 463l-428 -463h-444l651 705l-619 669h445l395 -430l397 430h445z" />
    <glyph glyph-name="Y" unicode="Y" horiz-adv-x="1784" 
d="M1077 561v-561h-370v561l-666 813h416l436 -553l434 553h416z" />
    <glyph glyph-name="Z" unicode="Z" horiz-adv-x="1714" 
d="M135 0v287l903 786h-876v301h1409v-252l-944 -821h964v-301h-1456z" />
    <glyph glyph-name="bracketleft" unicode="[" horiz-adv-x="1010" 
d="M236 -121v1610h682v-270h-353v-1069h353v-271h-682z" />
    <glyph glyph-name="backslash" unicode="\" horiz-adv-x="1188" 
d="M92 1436h326l678 -1477h-326z" />
    <glyph glyph-name="bracketright" unicode="]" horiz-adv-x="1010" 
d="M92 -121v271h352v1069h-352v270h682v-1610h-682z" />
    <glyph glyph-name="asciicircum" unicode="^" horiz-adv-x="1208" 
d="M819 784l-215 351l-215 -351h-338l404 590h299l403 -590h-338z" />
    <glyph glyph-name="underscore" unicode="_" horiz-adv-x="1024" 
d="M0 -393v258h1024v-258h-1024z" />
    <glyph glyph-name="grave" unicode="`" horiz-adv-x="1081" 
d="M276 1589l482 -280l-90 -170l-523 186z" />
    <glyph glyph-name="a" unicode="a" horiz-adv-x="1960" 
d="M1380 0v135q-71 -39 -152.5 -69t-169.5 -51t-181.5 -31.5t-188.5 -10.5q-111 0 -214.5 21t-183.5 68t-128.5 123t-48.5 186q0 139 76 231.5t232 151.5t394.5 91t564.5 50v29q0 34 -18 67.5t-65.5 59t-130 41.5t-210.5 16q-101 0 -199.5 -10.5t-190 -28.5t-173.5 -42
t-149 -50v330q70 18 157 35t181 29.5t190 20t184 7.5q173 0 319 -28.5t251.5 -88.5t165 -152t59.5 -219v-911h-371zM1380 627q-214 -8 -363.5 -23t-248.5 -35t-155.5 -43t-84.5 -47t-34.5 -48t-6.5 -44q0 -24 13 -46.5t45.5 -39.5t86.5 -27t136 -10q91 0 178 14t165 38.5
t146.5 58t122.5 71.5v181z" />
    <glyph glyph-name="b" unicode="b" horiz-adv-x="1905" 
d="M1782 379q0 -80 -21 -139t-58.5 -101.5t-90 -69t-116 -42t-135.5 -21.5t-149 -6h-997v1374h979q59 0 118.5 -5t113.5 -18.5t100.5 -37.5t81 -63t54 -94t19.5 -130q0 -134 -66 -212.5t-208 -104.5q100 -7 171.5 -30.5t116.5 -64t66 -99t21 -136.5zM1319 967q0 26 -8 49.5
t-29 41.5t-57 29t-92 11h-547v-258h547q56 0 92 10t57 27t29 40.5t8 49.5zM1405 422q0 47 -16 75.5t-50 44t-88 20.5t-129 5h-536v-291h536q75 0 129 5t88 21t50 44.5t16 75.5z" />
    <glyph glyph-name="c" unicode="c" horiz-adv-x="1860" 
d="M1729 94q-72 -30 -145 -54t-151 -41.5t-164.5 -26.5t-185.5 -9q-210 0 -386.5 45t-304 135.5t-198.5 226t-71 316.5t71 316.5t198.5 226t304 135.5t386.5 45q99 0 185.5 -9t164.5 -26.5t151 -41.5t145 -54v-334q-57 31 -120 61.5t-139 55t-167 40t-205 15.5
q-175 0 -290.5 -36t-184.5 -96t-97 -137.5t-28 -160.5q0 -55 12 -108.5t40 -101t73 -87.5t112 -69t156.5 -45.5t206.5 -16.5q114 0 205 14.5t167 38.5t139 54.5t120 62.5v-334v0z" />
    <glyph glyph-name="d" unicode="d" horiz-adv-x="2021" 
d="M1898 688q0 -132 -29 -234.5t-81.5 -178.5t-126 -129t-163.5 -85t-194 -46.5t-217 -14.5h-872v1374h870q113 0 217 -14.5t194.5 -46.5t164.5 -84.5t126.5 -129t81.5 -178.5t29 -233zM1524 688q0 99 -25.5 172t-82 120.5t-147.5 71t-222 23.5h-461v-776h461
q131 0 222 23.5t147.5 72t82 121.5t25.5 172z" />
    <glyph glyph-name="e" unicode="e" horiz-adv-x="1982" 
d="M1747 68q-169 -56 -337.5 -80.5t-344.5 -24.5q-225 0 -400.5 48.5t-295.5 140.5t-183 225t-63 301q0 156 63.5 289.5t180 232t281.5 154t368 55.5q187 0 342.5 -50.5t267 -149.5t173 -244t61.5 -334v-92h-1354q18 -65 59.5 -119t112.5 -92t174.5 -59t247.5 -21
q102 0 200 12.5t183 33t153.5 45.5t110.5 50v-321zM1491 811q-5 51 -30.5 105.5t-80.5 98.5t-144 72.5t-222 28.5q-125 0 -216 -31t-152.5 -77t-95.5 -99t-44 -98h985z" />
    <glyph glyph-name="f" unicode="f" horiz-adv-x="1774" 
d="M864 1081q-65 0 -116.5 -5t-87.5 -24t-55 -56.5t-19 -102.5v-51h1036v-293h-1036v-549h-371v924q0 106 31.5 190t105.5 141.5t196 88t304 30.5h819v-293h-807z" />
    <glyph glyph-name="g" unicode="g" horiz-adv-x="2011" 
d="M1100 1409q202 0 375.5 -34.5t318.5 -88.5v-336q-57 32 -128.5 62t-155.5 53t-180 37t-202 14q-132 0 -230 -19t-168 -51t-115 -74.5t-71 -90.5t-36 -98t-10 -97q0 -41 8.5 -89t32 -96t65.5 -92t109.5 -78t162.5 -54.5t226 -20.5q66 0 115 4t89.5 11t76 17t73.5 21v166
h-416v301h787v-702q-74 -25 -165.5 -45.5t-189 -35t-195.5 -22.5t-185 -8q-135 0 -259 18t-231.5 55.5t-196 95.5t-151 138t-97 183.5t-34.5 232.5q0 128 36 232t100.5 184t155 138t199 95.5t232 55.5t254.5 18z" />
    <glyph glyph-name="h" unicode="h" 
d="M1530 0v573h-944v-573h-371v1374h371v-500h944v500h371v-1374h-371z" />
    <glyph glyph-name="i" unicode="i" horiz-adv-x="801" 
d="M215 0v1374h371v-1374h-371z" />
    <glyph glyph-name="j" unicode="j" horiz-adv-x="1415" 
d="M1210 508q0 -137 -44.5 -236t-130 -163t-209.5 -94.5t-283 -30.5q-75 0 -154 7.5t-152 18.5t-134.5 23.5t-102.5 23.5v322q42 -17 92 -34.5t111.5 -31.5t136 -23t164.5 -9q97 0 161.5 21.5t103.5 60t55 90.5t16 114v807h370v-866z" />
    <glyph glyph-name="k" unicode="k" horiz-adv-x="2001" 
d="M1520 0q-10 112 -54 196.5t-110.5 145.5t-150 101t-171.5 63.5t-175.5 33t-162.5 9.5h-110v-549h-371v1374h371v-530h76q77 0 161 12t166.5 38t158.5 67t136 100t100 136.5t50 176.5h378q-10 -109 -43.5 -197t-83 -157.5t-110.5 -121.5t-125 -89.5t-127.5 -62
t-118.5 -37.5q70 -11 145.5 -34.5t149.5 -62t141.5 -94.5t121.5 -131t90 -171t46 -216h-378z" />
    <glyph glyph-name="l" unicode="l" horiz-adv-x="1675" 
d="M586 588q0 -86 16 -140.5t52 -86.5t93.5 -44t141.5 -12h704v-305h-780q-162 0 -275.5 26.5t-185.5 82t-104.5 140.5t-32.5 202v923h371v-786z" />
    <glyph glyph-name="m" unicode="m" horiz-adv-x="2859" 
d="M586 1374v-151q49 31 106.5 64t125 60t145 44.5t167.5 17.5q88 0 154 -18.5t114.5 -48t82.5 -66t59 -72.5q71 46 140 84t139 65t143 41.5t152 14.5q126 0 225.5 -35t168.5 -96t105.5 -143.5t36.5 -176.5v-958h-371v905q0 55 -17 95t-45.5 65t-67 37t-81.5 12
q-200 0 -456 -180q3 -17 4.5 -40t1.5 -46v-848h-371v913q0 55 -17 93.5t-46.5 62.5t-68 34.5t-81.5 10.5q-52 0 -109.5 -15t-116 -42t-115 -64t-107.5 -80v-913h-371v1374h371z" />
    <glyph glyph-name="n" unicode="n" horiz-adv-x="2103" 
d="M1524 0v770q0 77 -13 139.5t-48.5 107t-99 69t-163.5 24.5q-76 0 -159.5 -20.5t-165.5 -54.5t-156.5 -79t-132.5 -94v-862h-371v1374h371v-188q70 40 149 79.5t168 71.5t189 52t211 20q139 0 248.5 -33.5t185.5 -95t116.5 -149t40.5 -195.5v-936h-370z" />
    <glyph glyph-name="o" unicode="o" 
d="M1993 686q0 -177 -65 -312.5t-186 -226.5t-293.5 -137.5t-387.5 -46.5t-388.5 46.5t-295.5 137.5t-188 226.5t-66 312.5t66 312.5t188 226.5t295.5 137.5t388.5 46.5t387.5 -46.5t293.5 -137.5t186 -226.5t65 -312.5zM1618 686q0 77 -24.5 153.5t-87 137.5t-170.5 99
t-275 38q-112 0 -197 -17.5t-147 -48.5t-104 -72.5t-67 -89t-35.5 -99t-10.5 -101.5q0 -51 10.5 -103t35.5 -99.5t67 -88.5t104 -71.5t147 -48t197 -17.5q167 0 275 38t170.5 99t87 137.5t24.5 153.5z" />
    <glyph glyph-name="p" unicode="p" horiz-adv-x="1851" 
d="M1759 905q0 -103 -30 -189.5t-96.5 -149t-172.5 -97.5t-258 -35h-616v-434h-371v1374h987q152 0 258 -34.5t172.5 -97t96.5 -148.5t30 -189zM1384 899q0 48 -13.5 82.5t-44.5 56.5t-81 32.5t-123 10.5h-536v-354h536q73 0 123 8.5t81 29t44.5 53.5t13.5 81z" />
    <glyph glyph-name="q" unicode="q" horiz-adv-x="2136" 
d="M1993 686q0 -112 -26.5 -206t-76.5 -173q61 -15 112 -26t89 -19l80 -16l-100 -312l-451 140q-225 -111 -559 -111q-215 0 -388.5 46.5t-295.5 137.5t-188 226.5t-66 312.5t66 312.5t188 226.5t295.5 137.5t388.5 46.5t387.5 -46.5t293.5 -137.5t186 -226.5t65 -312.5z
M1618 686q0 77 -24.5 153.5t-87 137.5t-170.5 99t-275 38q-112 0 -197 -17.5t-147 -48.5t-104 -72.5t-67 -89t-35.5 -99t-10.5 -101.5q0 -51 10.5 -103t35.5 -99.5t67 -88.5t104 -71.5t147 -48t197 -17.5q167 0 275 38t170.5 99t87 137.5t24.5 153.5z" />
    <glyph glyph-name="r" unicode="r" horiz-adv-x="1499" 
d="M1479 1063q-15 5 -43.5 13.5t-66.5 17t-83.5 14.5t-93.5 6q-100 0 -186.5 -24.5t-161.5 -65t-139.5 -92t-118.5 -105.5v-827h-371v1374h371v-223q67 50 137.5 96.5t147 82.5t161.5 57.5t180 21.5q36 0 73.5 -3.5t73 -8.5t66.5 -11t54 -12v-311v0z" />
    <glyph glyph-name="s" unicode="s" horiz-adv-x="1731" 
d="M1481 987q-39 19 -103 43t-145 45.5t-176 36t-195 14.5q-80 0 -136.5 -5t-95 -13t-61 -18.5t-34.5 -21.5t-15.5 -22t-3.5 -20q0 -30 30 -52.5t82 -40t121 -33t146.5 -32t160 -36t160 -45.5t146.5 -60.5t121 -80.5t82 -106t30 -137q0 -99 -35 -170t-93.5 -120
t-135.5 -78.5t-161.5 -45.5t-171 -21t-164.5 -5q-204 0 -377.5 33.5t-306.5 83.5v328q137 -76 312.5 -119t375.5 -43q118 0 192.5 12.5t116.5 32t57 42.5t15 44q0 33 -30 57.5t-82 43t-121 34t-146.5 31t-159.5 33.5t-159.5 42.5t-146.5 57t-121 77t-82 103t-30 135.5
q0 91 32 157t86.5 112.5t126 75.5t150.5 45t160 22t154 6q80 0 164.5 -8t166.5 -22.5t158.5 -33.5t141.5 -40v-318z" />
    <glyph glyph-name="t" unicode="t" horiz-adv-x="1599" 
d="M985 1075v-1075h-371v1075h-583v299h1538v-299h-584z" />
    <glyph glyph-name="u" unicode="u" horiz-adv-x="2103" 
d="M580 1374v-774q0 -77 13 -139.5t48 -107t98 -69t164 -24.5q76 0 159.5 21t165.5 56t156.5 80.5t133.5 94.5v862h370v-1374h-370v188q-70 -40 -149 -80.5t-168 -73t-189 -53t-211 -20.5q-139 0 -249 33.5t-186 95t-116.5 149t-40.5 195.5v940h371z" />
    <glyph glyph-name="v" unicode="v" horiz-adv-x="1847" 
d="M1137 0h-432l-695 1374h414l500 -1034l499 1034h414z" />
    <glyph glyph-name="w" unicode="w" horiz-adv-x="2687" 
d="M1550 1374l351 -954l380 954h385l-552 -1374h-412l-359 924l-358 -924h-412l-553 1374h386l372 -934l359 934h413z" />
    <glyph glyph-name="x" unicode="x" horiz-adv-x="1804" 
d="M1124 705l652 -705h-445l-430 463l-428 -463h-444l651 705l-619 669h445l395 -430l397 430h445z" />
    <glyph glyph-name="y" unicode="y" horiz-adv-x="2062" 
d="M1847 528q0 -134 -66 -239t-187.5 -177.5t-294 -110.5t-386.5 -38q-94 0 -197.5 7.5t-202 21t-184.5 31t-145 38.5v326q64 -27 142.5 -51t170.5 -42.5t197.5 -29t223.5 -10.5q111 0 195.5 13t146.5 35t103 50.5t66 59t35.5 60.5t10.5 56v121q-102 -75 -243 -123.5
t-321 -48.5q-209 0 -348.5 40.5t-223.5 117t-119.5 186.5t-35.5 248v305h373v-268q0 -81 21.5 -144t68 -105.5t120.5 -64.5t179 -22q89 0 168.5 22t146.5 58t121 82t93 94v348h372v-846z" />
    <glyph glyph-name="z" unicode="z" horiz-adv-x="1714" 
d="M135 0v287l903 786h-876v301h1409v-252l-944 -821h964v-301h-1456z" />
    <glyph glyph-name="braceleft" unicode="{" horiz-adv-x="975" 
d="M281 272q0 75 -6 128t-26.5 87t-58 50t-100.5 16h-39v266h39q64 0 102 16.5t58 51t25.5 88t5.5 127.5v41q0 93 26.5 158.5t74 107.5t113.5 61t144 19h244v-270h-86q-46 0 -81 -5t-58.5 -25t-35.5 -61t-12 -114v-15q0 -56 -7 -106.5t-26.5 -92t-54.5 -71t-92 -43.5
q56 -15 91.5 -44.5t55 -70.5t26.5 -91.5t7 -106.5v-19q0 -73 12 -114t35.5 -61t58.5 -24.5t81 -4.5h86v-271h-244q-78 0 -144 19t-113.5 61t-74 107.5t-26.5 158.5v47z" />
    <glyph glyph-name="bar" unicode="|" horiz-adv-x="614" 
d="M164 -483v2048h287v-2048h-287z" />
    <glyph glyph-name="braceright" unicode="}" horiz-adv-x="975" 
d="M694 225q0 -93 -26.5 -158.5t-74 -107.5t-113.5 -61t-144 -19h-244v271h86q46 0 81 4.5t58.5 24.5t35.5 61t12 114v19q0 56 7 106.5t26.5 91.5t55 70.5t91.5 44.5q-57 14 -92.5 43.5t-55 71t-26 92t-6.5 106.5v15q0 73 -12 114t-35.5 61t-58.5 25t-81 5h-86v270h244
q78 0 144 -19t113.5 -61t74 -107.5t26.5 -158.5v-41q0 -74 5.5 -127.5t25.5 -88t57.5 -51t102.5 -16.5h39v-266h-39q-63 0 -100.5 -16t-58 -50t-26.5 -87t-6 -128v-47z" />
    <glyph glyph-name="asciitilde" unicode="~" horiz-adv-x="1382" 
d="M1231 586q-21 -21 -50 -39.5t-64 -32t-73.5 -21.5t-78.5 -8q-62 0 -132.5 17t-143.5 37.5t-145 37.5t-136 17q-35 0 -72 -10t-71.5 -26t-64 -36.5t-48.5 -40.5v303q21 22 52 40.5t67 32.5t73.5 22t71.5 8q61 0 132.5 -17.5t145 -38t145.5 -38t136 -17.5q34 0 71 10
t71.5 26.5t64 37t49.5 41.5v-305v0z" />
    <glyph glyph-name="nonbreakingspace" unicode="&#xa0;" horiz-adv-x="770" 
 />
    <glyph glyph-name="exclamdown" unicode="&#xa1;" horiz-adv-x="768" 
d="M260 901h248l76 -604v-299h-400v299zM563 1372v-319h-358v319h358z" />
    <glyph glyph-name="cent" unicode="&#xa2;" horiz-adv-x="1509" 
d="M1454 184q-107 -43 -218.5 -72t-244.5 -38v-203h-264v209q-149 16 -271.5 62.5t-210.5 124t-136 185t-48 246.5q0 138 48 246t136 185.5t210.5 124.5t271.5 63v186h264v-182q67 -4 127.5 -13t117 -23.5t110.5 -32.5t108 -40v-321q-45 24 -93 48t-104 44t-121.5 35
t-144.5 20v-678q79 5 144.5 19t121.5 34t104 44t93 49v-322zM424 698q0 -53 15.5 -103.5t51.5 -94t94 -76t142 -49.5v649q-84 -18 -142 -51.5t-94 -77t-51.5 -94.5t-15.5 -103z" />
    <glyph glyph-name="sterling" unicode="&#xa3;" horiz-adv-x="1759" 
d="M1640 4q-14 -2 -40.5 -7.5t-66.5 -11t-94.5 -10t-123.5 -4.5q-95 0 -187 12t-179 27t-168 27t-154 12q-62 0 -109 -4t-86 -10.5t-73 -14t-69.5 -15.5t-76.5 -14.5t-94 -10.5v294q48 7 94 21.5t81.5 42.5t57 72.5t21.5 111.5v37h-252v250h252v45q0 130 53 231.5
t146.5 171.5t222.5 106t282 36q124 0 248.5 -16.5t233.5 -41.5v-327q-38 16 -87 33t-107 31t-124 23t-137 9q-88 0 -148.5 -10.5t-100.5 -29t-62.5 -43.5t-33.5 -54t-13.5 -61t-2.5 -64v-39h578v-250h-578v-16q0 -26 -7 -56t-19 -59.5t-28.5 -55.5t-35.5 -44q8 3 21 5t28 3
t30 1.5t26 0.5q78 0 147 -12t134.5 -27t130 -27t133.5 -12q71 0 128 8.5t99 20t69.5 24t40.5 21.5v-330z" />
    <glyph glyph-name="currency" unicode="&#xa4;" horiz-adv-x="1227" 
d="M961 864q26 -45 35.5 -88.5t9.5 -93.5q0 -48 -9.5 -94t-33.5 -88l145 -146l-166 -168l-147 150q-45 -26 -89.5 -36.5t-91.5 -10.5q-51 0 -95 8.5t-87 36.5l-147 -148l-166 168l147 146q-21 42 -33 89t-12 93q0 48 11 94t34 88l-147 148l166 166l147 -148q42 23 89.5 33
t96.5 10q45 0 90 -10t87 -33l147 148l166 -166zM453 682q0 -33 12 -61.5t34 -49.5t51 -34t64 -15q30 0 59 10.5t52 31t37 50.5t14 68q0 32 -13 61.5t-35.5 52t-52 35.5t-61.5 13q-35 0 -64 -14t-51 -36.5t-34 -51.5t-12 -60z" />
    <glyph glyph-name="yen" unicode="&#xa5;" horiz-adv-x="1784" 
d="M489 829l-448 545h416l436 -553l434 553h416l-451 -545h307v-211h-481l-41 -51v-94h522v-211h-522v-262h-370v262h-523v211h523v94l-43 51h-480v211h305z" />
    <glyph glyph-name="brokenbar" unicode="&#xa6;" horiz-adv-x="614" 
d="M164 672v758h287v-758h-287zM164 -352v758h287v-758h-287z" />
    <glyph glyph-name="section" unicode="&#xa7;" horiz-adv-x="1147" 
d="M1044 645q0 -38 -13.5 -69.5t-35.5 -58t-51.5 -49t-60.5 -40.5q45 -35 72.5 -80.5t27.5 -105.5q0 -79 -35 -134t-94 -89.5t-138 -50t-167 -15.5q-48 0 -98.5 4t-99 11.5t-93 17.5t-80.5 22v262q28 -18 72.5 -35t95.5 -29.5t103.5 -20t97.5 -7.5q57 0 87 7.5t44 17.5
t16 20.5t2 16.5q0 21 -25.5 41.5t-67.5 41t-95 42.5t-109 47.5t-109 55.5t-95 65.5t-67.5 78t-25.5 93.5q0 37 13.5 68.5t36 58t51.5 48.5t61 40q-45 37 -72.5 82.5t-27.5 105.5q0 79 34 134t92.5 89.5t136 50t163.5 15.5q97 0 187.5 -13t162.5 -36v-263q-29 19 -70 34.5
t-88 27t-96 18t-94 6.5q-57 0 -86 -7.5t-41.5 -17t-13 -20t-0.5 -16.5q0 -22 25.5 -42t67 -41t95 -43t109 -47.5t109 -55t95 -65t67 -78t25.5 -93.5zM760 610q0 34 -26.5 61t-69 50.5t-97 45.5t-110.5 46q-29 -12 -49.5 -30.5t-20.5 -43.5q0 -35 26 -62t69 -50t97 -44.5
t111 -45.5q29 12 49.5 30.5t20.5 42.5z" />
    <glyph glyph-name="dieresis" unicode="&#xa8;" horiz-adv-x="1081" 
d="M154 1159v311h311v-311h-311zM616 1159v311h312v-311h-312z" />
    <glyph glyph-name="copyright" unicode="&#xa9;" horiz-adv-x="1579" 
d="M1477 686q0 -95 -24.5 -182.5t-69.5 -164t-107.5 -139t-139.5 -107t-165 -69t-183 -24.5q-94 0 -182 24.5t-164 69t-138.5 107t-107.5 139t-69.5 164t-24.5 182.5t24.5 183t69.5 164.5t107.5 139.5t138.5 107.5t163.5 69t182.5 24.5t183 -24.5t165 -69t139.5 -107.5
t107.5 -139.5t69.5 -164.5t24.5 -183zM1085 346q-72 -38 -142 -58t-155 -20q-84 0 -157.5 28.5t-127.5 82t-85 130.5t-31 175t31 175.5t85 131.5t127.5 82.5t157.5 28.5q42 0 79.5 -4.5t73.5 -14t71.5 -24t72.5 -33.5v-182q-41 31 -76 51t-67 32t-64 16.5t-67 4.5
q-58 0 -104 -19t-78.5 -53.5t-50 -83.5t-17.5 -108t17.5 -107t50 -82.5t78.5 -53.5t104 -19q35 0 67 4.5t64 16.5t67 31.5t76 49.5v-178zM266 686q0 -108 41 -203.5t112 -166t166 -111.5t203 -41q109 0 204.5 41t167 111.5t112.5 166t41 203.5q0 109 -41 204.5t-112.5 166.5
t-167 112t-204.5 41q-108 0 -203 -41t-166 -112t-112 -166.5t-41 -204.5z" />
    <glyph glyph-name="ordfeminine" unicode="&#xaa;" horiz-adv-x="1049" 
d="M92 373v194h854v-194h-854zM692 707v61q-74 -38 -155.5 -59t-180.5 -21q-57 0 -110 10t-94 33.5t-66 61t-25 92.5q0 68 36 113.5t112.5 75t196 45t286.5 24.5v6q0 17 -6 31.5t-26.5 25.5t-59.5 17t-104 6q-53 0 -103.5 -5t-98 -14t-89.5 -20.5t-76 -24.5v181
q36 9 81 17.5t93.5 15t98 10.5t94.5 4q88 0 169 -14.5t143 -44.5t99 -75.5t37 -107.5v-444h-252zM692 1001q-90 -4 -153.5 -10t-106 -14t-67 -17t-37 -18t-16 -18t-3.5 -17q0 -25 22 -41t81 -16q48 0 87 6.5t73 18t63 26t57 29.5v71z" />
    <glyph glyph-name="guillemotleft" unicode="&#xab;" horiz-adv-x="1208" 
d="M61 641v90l347 377l196 -182l-237 -240l237 -240l-196 -182zM594 641v90l346 377l197 -182l-238 -240l238 -240l-197 -182z" />
    <glyph glyph-name="logicalnot" unicode="&#xac;" horiz-adv-x="1382" 
d="M938 295v307h-786v293h1079v-600h-293z" />
    <glyph glyph-name="uni00AD" unicode="&#xad;" horiz-adv-x="1106" 
d="M143 522v328h820v-328h-820z" />
    <glyph glyph-name="registered" unicode="&#xae;" horiz-adv-x="1229" 
d="M1118 893q0 -105 -39.5 -196.5t-108 -160t-161 -108t-197.5 -39.5q-104 0 -196 39.5t-160 108t-107.5 160t-39.5 196.5t39.5 197.5t107.5 161t160 108t196 39.5q105 0 197.5 -39.5t161 -108t108 -161t39.5 -197.5zM242 893q0 -78 29 -145.5t79 -117.5t117.5 -79
t144.5 -29q78 0 146.5 29t118.5 79t79 117.5t29 145.5t-29 146.5t-79 118.5t-118.5 79t-146.5 29q-77 0 -144.5 -29t-117.5 -79t-79 -118.5t-29 -146.5zM535 606h-146v582h223q115 0 176.5 -45.5t61.5 -134.5q0 -33 -7.5 -58t-21 -44.5t-32 -33.5t-39.5 -26l90 -240h-150
l-74 217h-81v-217zM700 1008q0 29 -22.5 47t-73.5 18h-69v-137h69q50 0 73 21.5t23 50.5z" />
    <glyph glyph-name="macron" unicode="&#xaf;" horiz-adv-x="1081" 
d="M205 1180v256h672v-256h-672z" />
    <glyph glyph-name="degree" unicode="&#xb0;" horiz-adv-x="764" 
d="M92 1083q0 60 22.5 113t62 92.5t92 62.5t112.5 23t113 -23t92.5 -62.5t62.5 -92.5t23 -113t-23 -112.5t-62.5 -91.5t-92.5 -61.5t-113 -22.5t-112.5 22.5t-92 61.5t-62 91.5t-22.5 112.5zM272 1083q0 -46 31 -77t78 -31q23 0 43 8.5t35 23t24 34t9 42.5t-9 43.5t-24 35.5
t-35 23.5t-43 8.5q-47 0 -78 -32t-31 -79z" />
    <glyph glyph-name="plusminus" unicode="&#xb1;" horiz-adv-x="1382" 
d="M152 0v293h1079v-293h-1079zM838 666v-291h-293v291h-393v292h393v312h293v-312h393v-292h-393z" />
    <glyph glyph-name="twosuperior" unicode="&#xb2;" horiz-adv-x="1139" 
d="M72 508v221q169 73 294.5 124.5t208.5 90.5t124.5 71.5t41.5 67.5q0 19 -9 36t-32 29t-62.5 19t-100.5 7q-60 0 -121.5 -6.5t-120 -19.5t-113 -31t-100.5 -40v254q100 31 218.5 44.5t242.5 13.5q98 0 188.5 -18t159.5 -53.5t110 -86.5t41 -117q0 -63 -26.5 -110.5
t-88 -90.5t-162.5 -86.5t-251 -97.5h543v-221h-985z" />
    <glyph glyph-name="threesuperior" unicode="&#xb3;" horiz-adv-x="1141" 
d="M795 973q72 -8 122 -26.5t81.5 -46.5t46 -64.5t14.5 -79.5q0 -69 -44.5 -118.5t-118.5 -82t-170 -48t-198 -15.5q-71 0 -137 4t-124.5 11.5t-108 17t-86.5 20.5v225q39 -18 89 -33.5t106 -27t116 -18.5t119 -7q82 0 132.5 7.5t78 20t36.5 29.5t9 35q0 22 -22 40
t-71.5 30.5t-129 19.5t-195.5 8v189q75 0 144.5 3t123.5 10.5t86.5 21t32.5 35.5q0 16 -11.5 28t-37 19.5t-67 11.5t-101.5 4q-50 0 -108 -5.5t-115 -15t-109 -23.5t-90 -32v223q46 12 99 20.5t107.5 14t109.5 8.5t106 3q97 0 189.5 -9.5t165 -34.5t117 -68.5t44.5 -111.5
q0 -33 -10.5 -63t-37 -54.5t-71 -43.5t-112.5 -31z" />
    <glyph glyph-name="acute" unicode="&#xb4;" horiz-adv-x="1081" 
d="M936 1325l-522 -186l-90 170l481 280z" />
    <glyph glyph-name="micro" unicode="&#xb5;" horiz-adv-x="1616" 
d="M645 958l-108 -557q4 -28 16 -59t33 -56.5t50.5 -42t68.5 -16.5q58 0 105.5 25t86 64.5t70 89.5t57.5 100l88 452h330l-115 -596q-8 -42 -11 -75t-3 -62q0 -34 3.5 -62.5t9.5 -54.5t13.5 -52.5t16.5 -55.5h-330q-7 22 -12 40t-9 37.5t-8 44.5t-8 62q-27 -42 -55.5 -79.5
t-65 -66t-83 -45t-107.5 -16.5q-26 0 -54 7t-54.5 23t-49.5 42t-39 64l-100 -523h-330l264 1368h330z" />
    <glyph glyph-name="paragraph" unicode="&#xb6;" horiz-adv-x="1303" 
d="M905 0v1200h-131v-1200h-192v592q-87 0 -169.5 22.5t-147 69.5t-103.5 121t-39 178t39 178t103.5 121.5t147 69.5t169.5 22h516v-1374h-193z" />
    <glyph glyph-name="periodcentered" unicode="&#xb7;" horiz-adv-x="584" 
d="M102 510v360h379v-360h-379z" />
    <glyph glyph-name="cedilla" unicode="&#xb8;" horiz-adv-x="1081" 
d="M578 -78q43 0 92 -7.5t89.5 -29.5t67.5 -61t27 -103t-31.5 -107t-82.5 -69.5t-114 -37.5t-126 -11q-56 0 -100.5 3t-79 7t-61.5 8.5t-48 8.5v194q45 -20 103 -34.5t120 -14.5q31 0 58.5 3.5t47 10.5t31 18t11.5 26q0 18 -13.5 28.5t-33.5 16.5t-42 8t-40 2q-26 0 -54 -3
t-51 -9l96 251h172z" />
    <glyph glyph-name="onesuperior" unicode="&#xb9;" horiz-adv-x="719" 
d="M236 508v647l-216 -65v219l216 65h299v-866h-299z" />
    <glyph glyph-name="ordmasculine" unicode="&#xba;" horiz-adv-x="1108" 
d="M111 373v194h884v-194h-884zM1047 1040q0 -87 -36 -152.5t-101 -110t-155.5 -67t-199.5 -22.5q-108 0 -199 22.5t-156.5 67t-102 110t-36.5 152.5t36.5 153t102 110.5t156.5 67t199 22.5q109 0 199.5 -22.5t155.5 -67t101 -110.5t36 -153zM797 1040q0 30 -12 60t-40 54
t-74.5 39t-115.5 15t-115.5 -15.5t-74.5 -39.5t-40 -54t-12 -59q0 -30 12 -60t40 -54t74.5 -39t115.5 -15t115.5 15t74.5 39t40 54t12 60z" />
    <glyph glyph-name="guillemotright" unicode="&#xbb;" horiz-adv-x="1208" 
d="M1147 731v-90l-346 -377l-197 182l238 240l-238 240l197 182zM614 731v-90l-346 -377l-196 182l237 240l-237 240l196 182z" />
    <glyph glyph-name="onequarter" unicode="&#xbc;" horiz-adv-x="1964" 
d="M1923 135h-174v-135h-274v135h-484v174l449 420h309v-418h174v-176zM1475 553l-250 -242h250v242zM217 645v553l-176 -53v176l176 53h275v-729h-275zM475 0h-278l1097 1374h277z" />
    <glyph glyph-name="onehalf" unicode="&#xbd;" horiz-adv-x="2011" 
d="M1133 0v174q123 54 219.5 94.5t163 75.5t102 67t35.5 68q0 42 -40.5 62t-131.5 20q-37 0 -81.5 -6.5t-90 -18t-89 -27.5t-79.5 -36v207q38 14 87.5 25.5t101.5 19.5t102.5 12.5t91.5 3.5q74 -1 149.5 -11t136 -37.5t98.5 -76t38 -124.5q0 -49 -24.5 -88.5t-76 -75.5
t-131 -70t-188.5 -72h424v-186h-817zM217 645v553l-176 -53v176l176 53h275v-729h-275zM475 0h-278l1097 1374h277z" />
    <glyph glyph-name="threequarters" unicode="&#xbe;" horiz-adv-x="2210" 
d="M862 1198q0 -56 -42 -100.5t-140 -63.5q64 -8 105 -28t64 -45.5t31.5 -55t8.5 -57.5q0 -61 -35.5 -102.5t-97.5 -67t-146.5 -36.5t-181.5 -11q-102 0 -181.5 12t-144.5 29v182q77 -41 153 -59.5t171 -18.5q28 0 58.5 2.5t56 11.5t42.5 26t17 46q0 23 -13 41t-45 30.5
t-85 19.5t-133 8v147q83 0 132.5 5.5t76 15t34.5 23t8 28.5q0 18 -13.5 29.5t-35 18.5t-47.5 10t-51 3q-48 0 -89.5 -5t-79 -13.5t-72 -20.5t-68.5 -26v174q37 8 73 15t75 11.5t84.5 7t103.5 2.5q65 0 137 -6.5t132 -26.5t99 -57t39 -98zM2169 135h-174v-135h-275v135h-483
v174l449 420h309v-418h174v-176zM1720 553l-250 -242h250v242zM721 0h-279l1098 1374h277z" />
    <glyph glyph-name="questiondown" unicode="&#xbf;" horiz-adv-x="1329" 
d="M123 377q0 81 26.5 142.5t70 108t99.5 78.5t116 54.5t119.5 36t109.5 22.5v105h358v-312q-101 -3 -195 -16t-167.5 -37.5t-117.5 -61t-44 -87.5q0 -29 12 -54.5t43 -45t84 -31t135 -11.5q59 0 123 9.5t124.5 25.5t114.5 35.5t93 40.5v-340q-36 -12 -91 -23.5
t-118.5 -20.5t-131.5 -14.5t-130 -5.5q-135 0 -250.5 22.5t-200.5 71.5t-133.5 125t-48.5 183zM1022 1374v-319h-358v319h358z" />
    <glyph glyph-name="Agrave" unicode="&#xc0;" horiz-adv-x="1872" 
d="M1319 260h-766l-129 -260h-414l719 1374h414l719 -1374h-414zM686 528h502l-250 506zM671 1951l482 -280l-90 -170l-523 186z" />
    <glyph glyph-name="Aacute" unicode="&#xc1;" horiz-adv-x="1872" 
d="M1319 260h-766l-129 -260h-414l719 1374h414l719 -1374h-414zM686 528h502l-250 506zM1337 1687l-522 -186l-90 170l481 280z" />
    <glyph glyph-name="Acircumflex" unicode="&#xc2;" horiz-adv-x="1872" 
d="M1319 260h-766l-129 -260h-414l719 1374h414l719 -1374h-414zM686 528h502l-250 506zM1284 1501l-348 180l-348 -180l-121 188l469 266l469 -266z" />
    <glyph glyph-name="Atilde" unicode="&#xc3;" horiz-adv-x="1872" 
d="M1319 260h-766l-129 -260h-414l719 1374h414l719 -1374h-414zM686 528h502l-250 506zM1331 1873q0 -96 -17 -165t-49.5 -113t-79 -65t-104.5 -21q-54 0 -91 19t-66 41.5t-55 41.5t-58 19q-30 0 -47.5 -15t-26.5 -35.5t-12 -40.5t-4 -30h-177q0 85 17.5 152.5t50.5 114.5
t79.5 72t104.5 25q47 0 81.5 -19t64.5 -41.5t58.5 -41t64.5 -18.5q30 0 47.5 15t26.5 34.5t12 39.5t4 31h176v0z" />
    <glyph glyph-name="Adieresis" unicode="&#xc4;" horiz-adv-x="1872" 
d="M1319 260h-766l-129 -260h-414l719 1374h414l719 -1374h-414zM686 528h502l-250 506zM549 1521v311h311v-311h-311zM1011 1521v311h312v-311h-312z" />
    <glyph glyph-name="Aring" unicode="&#xc5;" horiz-adv-x="1872" 
d="M1319 260h-766l-129 -260h-414l719 1374h414l719 -1374h-414zM686 528h502l-250 506zM633 1716q0 49 19.5 92.5t57.5 76t94.5 51.5t131.5 19q74 0 130.5 -19t95 -51.5t58 -76t19.5 -92.5t-19.5 -92.5t-58 -76.5t-95 -52t-130.5 -19q-75 0 -131.5 19t-94.5 52t-57.5 76.5
t-19.5 92.5zM837 1716q0 -41 25.5 -69t73.5 -28t72 28t24 69q0 40 -24 68t-72 28t-73.5 -28t-25.5 -68z" />
    <glyph glyph-name="AE" unicode="&#xc6;" horiz-adv-x="2664" 
d="M1178 0v287h-613l-196 -287h-410l940 1374h1608v-293h-948v-227h897v-293h-897v-268h962v-293h-1343zM743 547h435v534h-70z" />
    <glyph glyph-name="Ccedilla" unicode="&#xc7;" horiz-adv-x="1860" 
d="M1729 94q-72 -30 -145 -54t-151 -41.5t-164.5 -26.5t-185.5 -9q-210 0 -386.5 45t-304 135.5t-198.5 226t-71 316.5t71 316.5t198.5 226t304 135.5t386.5 45q99 0 185.5 -9t164.5 -26.5t151 -41.5t145 -54v-334q-57 31 -120 61.5t-139 55t-167 40t-205 15.5
q-175 0 -290.5 -36t-184.5 -96t-97 -137.5t-28 -160.5q0 -55 12 -108.5t40 -101t73 -87.5t112 -69t156.5 -45.5t206.5 -16.5q114 0 205 14.5t167 38.5t139 54.5t120 62.5v-334v0zM1078 -97q43 0 92 -7.5t89.5 -29.5t67.5 -61t27 -103t-31.5 -107t-82.5 -69.5t-114 -37.5
t-126 -11q-56 0 -100.5 3t-79 7t-61.5 8.5t-48 8.5v194q45 -20 103 -34.5t120 -14.5q31 0 58.5 3.5t47 10.5t31 18t11.5 26q0 18 -13.5 28.5t-33.5 16.5t-42 8t-40 2q-26 0 -54 -3t-51 -9l96 251h172z" />
    <glyph glyph-name="Egrave" unicode="&#xc8;" horiz-adv-x="1763" 
d="M215 0v1374h1391v-293h-1010v-227h958v-293h-958v-268h1024v-293h-1405zM634 1951l482 -280l-90 -170l-523 186z" />
    <glyph glyph-name="Eacute" unicode="&#xc9;" horiz-adv-x="1763" 
d="M215 0v1374h1391v-293h-1010v-227h958v-293h-958v-268h1024v-293h-1405zM1301 1687l-522 -186l-90 170l481 280z" />
    <glyph glyph-name="Ecircumflex" unicode="&#xca;" horiz-adv-x="1763" 
d="M215 0v1374h1391v-293h-1010v-227h958v-293h-958v-268h1024v-293h-1405zM1268 1501l-348 180l-348 -180l-121 188l469 266l469 -266z" />
    <glyph glyph-name="Edieresis" unicode="&#xcb;" horiz-adv-x="1763" 
d="M215 0v1374h1391v-293h-1010v-227h958v-293h-958v-268h1024v-293h-1405zM519 1521v311h311v-311h-311zM981 1521v311h312v-311h-312z" />
    <glyph glyph-name="Igrave" unicode="&#xcc;" horiz-adv-x="801" 
d="M215 0v1374h371v-1374h-371zM132 1951l482 -280l-90 -170l-523 186z" />
    <glyph glyph-name="Iacute" unicode="&#xcd;" horiz-adv-x="801" 
d="M215 0v1374h371v-1374h-371zM798 1687l-522 -186l-90 170l481 280z" />
    <glyph glyph-name="Icircumflex" unicode="&#xce;" horiz-adv-x="801" 
d="M215 0v1374h371v-1374h-371zM745 1501l-348 180l-348 -180l-121 188l469 266l469 -266z" />
    <glyph glyph-name="Idieresis" unicode="&#xcf;" horiz-adv-x="801" 
d="M215 0v1374h371v-1374h-371zM10 1521v311h311v-311h-311zM472 1521v311h312v-311h-312z" />
    <glyph glyph-name="Eth" unicode="&#xd0;" horiz-adv-x="2021" 
d="M1898 688q0 -132 -29 -234.5t-81.5 -178.5t-126 -129t-163.5 -85t-194 -46.5t-217 -14.5h-872v569h-205v267h205v538h870q113 0 217 -14.5t194.5 -46.5t164.5 -84.5t126.5 -129t81.5 -178.5t29 -233zM1524 688q0 99 -25.5 172t-82 120.5t-147.5 71t-222 23.5h-461v-239
h393v-267h-393v-270h461q131 0 222 23.5t147.5 72t82 121.5t25.5 172z" />
    <glyph glyph-name="Ntilde" unicode="&#xd1;" horiz-adv-x="2130" 
d="M1513 0l-927 944v-944h-371v1374h403l928 -948v948h369v-1374h-402zM1475 1873q0 -96 -17 -165t-49.5 -113t-79 -65t-104.5 -21q-54 0 -91 19t-66 41.5t-55 41.5t-58 19q-30 0 -47.5 -15t-26.5 -35.5t-12 -40.5t-4 -30h-177q0 85 17.5 152.5t50.5 114.5t79.5 72t104.5 25
q47 0 81.5 -19t64.5 -41.5t58.5 -41t64.5 -18.5q30 0 47.5 15t26.5 34.5t12 39.5t4 31h176v0z" />
    <glyph glyph-name="Ograve" unicode="&#xd2;" 
d="M1993 686q0 -177 -65 -312.5t-186 -226.5t-293.5 -137.5t-387.5 -46.5t-388.5 46.5t-295.5 137.5t-188 226.5t-66 312.5t66 312.5t188 226.5t295.5 137.5t388.5 46.5t387.5 -46.5t293.5 -137.5t186 -226.5t65 -312.5zM1618 686q0 77 -24.5 153.5t-87 137.5t-170.5 99
t-275 38q-112 0 -197 -17.5t-147 -48.5t-104 -72.5t-67 -89t-35.5 -99t-10.5 -101.5q0 -51 10.5 -103t35.5 -99.5t67 -88.5t104 -71.5t147 -48t197 -17.5q167 0 275 38t170.5 99t87 137.5t24.5 153.5zM796 1951l482 -280l-90 -170l-523 186z" />
    <glyph glyph-name="Oacute" unicode="&#xd3;" 
d="M1993 686q0 -177 -65 -312.5t-186 -226.5t-293.5 -137.5t-387.5 -46.5t-388.5 46.5t-295.5 137.5t-188 226.5t-66 312.5t66 312.5t188 226.5t295.5 137.5t388.5 46.5t387.5 -46.5t293.5 -137.5t186 -226.5t65 -312.5zM1618 686q0 77 -24.5 153.5t-87 137.5t-170.5 99
t-275 38q-112 0 -197 -17.5t-147 -48.5t-104 -72.5t-67 -89t-35.5 -99t-10.5 -101.5q0 -51 10.5 -103t35.5 -99.5t67 -88.5t104 -71.5t147 -48t197 -17.5q167 0 275 38t170.5 99t87 137.5t24.5 153.5zM1462 1687l-522 -186l-90 170l481 280z" />
    <glyph glyph-name="Ocircumflex" unicode="&#xd4;" 
d="M1993 686q0 -177 -65 -312.5t-186 -226.5t-293.5 -137.5t-387.5 -46.5t-388.5 46.5t-295.5 137.5t-188 226.5t-66 312.5t66 312.5t188 226.5t295.5 137.5t388.5 46.5t387.5 -46.5t293.5 -137.5t186 -226.5t65 -312.5zM1618 686q0 77 -24.5 153.5t-87 137.5t-170.5 99
t-275 38q-112 0 -197 -17.5t-147 -48.5t-104 -72.5t-67 -89t-35.5 -99t-10.5 -101.5q0 -51 10.5 -103t35.5 -99.5t67 -88.5t104 -71.5t147 -48t197 -17.5q167 0 275 38t170.5 99t87 137.5t24.5 153.5zM1409 1501l-348 180l-348 -180l-121 188l469 266l469 -266z" />
    <glyph glyph-name="Otilde" unicode="&#xd5;" 
d="M1993 686q0 -177 -65 -312.5t-186 -226.5t-293.5 -137.5t-387.5 -46.5t-388.5 46.5t-295.5 137.5t-188 226.5t-66 312.5t66 312.5t188 226.5t295.5 137.5t388.5 46.5t387.5 -46.5t293.5 -137.5t186 -226.5t65 -312.5zM1618 686q0 77 -24.5 153.5t-87 137.5t-170.5 99
t-275 38q-112 0 -197 -17.5t-147 -48.5t-104 -72.5t-67 -89t-35.5 -99t-10.5 -101.5q0 -51 10.5 -103t35.5 -99.5t67 -88.5t104 -71.5t147 -48t197 -17.5q167 0 275 38t170.5 99t87 137.5t24.5 153.5zM1456 1873q0 -96 -17 -165t-49.5 -113t-79 -65t-104.5 -21q-54 0 -91 19
t-66 41.5t-55 41.5t-58 19q-30 0 -47.5 -15t-26.5 -35.5t-12 -40.5t-4 -30h-177q0 85 17.5 152.5t50.5 114.5t79.5 72t104.5 25q47 0 81.5 -19t64.5 -41.5t58.5 -41t64.5 -18.5q30 0 47.5 15t26.5 34.5t12 39.5t4 31h176v0z" />
    <glyph glyph-name="Odieresis" unicode="&#xd6;" 
d="M1993 686q0 -177 -65 -312.5t-186 -226.5t-293.5 -137.5t-387.5 -46.5t-388.5 46.5t-295.5 137.5t-188 226.5t-66 312.5t66 312.5t188 226.5t295.5 137.5t388.5 46.5t387.5 -46.5t293.5 -137.5t186 -226.5t65 -312.5zM1618 686q0 77 -24.5 153.5t-87 137.5t-170.5 99
t-275 38q-112 0 -197 -17.5t-147 -48.5t-104 -72.5t-67 -89t-35.5 -99t-10.5 -101.5q0 -51 10.5 -103t35.5 -99.5t67 -88.5t104 -71.5t147 -48t197 -17.5q167 0 275 38t170.5 99t87 137.5t24.5 153.5zM674 1521v311h311v-311h-311zM1136 1521v311h312v-311h-312z" />
    <glyph glyph-name="multiply" unicode="&#xd7;" horiz-adv-x="1380" 
d="M897 686l336 -336l-207 -207l-336 336l-336 -336l-207 207l336 336l-336 336l207 207l336 -336l336 336l207 -207z" />
    <glyph glyph-name="Oslash" unicode="&#xd8;" 
d="M1993 686q0 -177 -65 -312.5t-186 -226.5t-293.5 -137.5t-387.5 -46.5q-113 0 -213.5 12.5t-190.5 36.5l-157 -194h-293l233 286q-152 91 -234.5 236t-82.5 346q0 177 66 312.5t188 226.5t295.5 137.5t388.5 46.5q223 0 397 -49l158 194h291l-232 -286
q153 -90 235.5 -235.5t82.5 -346.5zM1618 686q0 44 -7.5 88t-25.5 86t-47 80t-72 70l-596 -736q42 -8 89.5 -12t101.5 -4q167 0 275 38t170.5 99t87 137.5t24.5 153.5zM500 686q0 -44 7.5 -88t25 -86t46 -80.5t70.5 -69.5l596 736q-40 8 -86 12t-98 4q-112 0 -197 -17.5
t-147 -48.5t-104 -72.5t-67 -89t-35.5 -99t-10.5 -101.5z" />
    <glyph glyph-name="Ugrave" unicode="&#xd9;" horiz-adv-x="2042" 
d="M1837 463q0 -103 -51 -194t-153 -159t-254.5 -107.5t-356.5 -39.5t-357.5 39.5t-255.5 107.5t-153 159t-51 194v911h370v-778q0 -69 17.5 -130.5t66 -107.5t136 -73t227.5 -27q139 0 226 27t135.5 73t65.5 107.5t17 130.5v778h371v-911v0zM757 1951l482 -280l-90 -170
l-523 186z" />
    <glyph glyph-name="Uacute" unicode="&#xda;" horiz-adv-x="2042" 
d="M1837 463q0 -103 -51 -194t-153 -159t-254.5 -107.5t-356.5 -39.5t-357.5 39.5t-255.5 107.5t-153 159t-51 194v911h370v-778q0 -69 17.5 -130.5t66 -107.5t136 -73t227.5 -27q139 0 226 27t135.5 73t65.5 107.5t17 130.5v778h371v-911v0zM1423 1687l-522 -186l-90 170
l481 280z" />
    <glyph glyph-name="Ucircumflex" unicode="&#xdb;" horiz-adv-x="2042" 
d="M1837 463q0 -103 -51 -194t-153 -159t-254.5 -107.5t-356.5 -39.5t-357.5 39.5t-255.5 107.5t-153 159t-51 194v911h370v-778q0 -69 17.5 -130.5t66 -107.5t136 -73t227.5 -27q139 0 226 27t135.5 73t65.5 107.5t17 130.5v778h371v-911v0zM1370 1501l-348 180l-348 -180
l-121 188l469 266l469 -266z" />
    <glyph glyph-name="Udieresis" unicode="&#xdc;" horiz-adv-x="2042" 
d="M1837 463q0 -103 -51 -194t-153 -159t-254.5 -107.5t-356.5 -39.5t-357.5 39.5t-255.5 107.5t-153 159t-51 194v911h370v-778q0 -69 17.5 -130.5t66 -107.5t136 -73t227.5 -27q139 0 226 27t135.5 73t65.5 107.5t17 130.5v778h371v-911v0zM635 1521v311h311v-311h-311z
M1097 1521v311h312v-311h-312z" />
    <glyph glyph-name="Yacute" unicode="&#xdd;" horiz-adv-x="1784" 
d="M1077 561v-561h-370v561l-666 813h416l436 -553l434 553h416zM1294 1687l-522 -186l-90 170l481 280z" />
    <glyph glyph-name="Thorn" unicode="&#xde;" horiz-adv-x="1882" 
d="M1759 709q0 -103 -30 -189.5t-96.5 -149t-172.5 -97.5t-258 -35h-616v-238h-371v1372h371v-194h616q152 0 258 -35t172.5 -97t96.5 -148t30 -189zM1384 702q0 48 -13.5 83t-44.5 57t-81 32.5t-123 10.5h-536v-355h536q73 0 123 8.5t81 29t44.5 53.5t13.5 81z" />
    <glyph glyph-name="germandbls" unicode="&#xdf;" horiz-adv-x="2032" 
d="M748 346q34 -13 81 -27t105.5 -26t127 -19.5t146.5 -7.5q95 0 159 15t102.5 39t54.5 54.5t16 61.5q0 41 -19.5 70t-65.5 48t-121.5 27.5t-186.5 8.5h-320v280h306q70 0 124 4.5t91 17t56 36.5t19 63q0 29 -22 54t-67 43.5t-113 29t-160 10.5q-105 0 -192 -10.5t-150 -42
t-98 -88t-35 -149.5v-838h-371v864q0 125 56 227t162.5 174t260 111t348.5 39q198 0 341 -32.5t235.5 -87.5t136 -127.5t43.5 -151.5q0 -62 -27 -109.5t-67.5 -81t-88.5 -55t-89 -31.5q88 -11 160 -37t123.5 -68t79.5 -101t28 -134q0 -93 -44 -170.5t-131 -132.5
t-216.5 -85.5t-300.5 -30.5q-75 0 -150.5 5t-140 12.5t-113.5 15t-73 12.5v321v0z" />
    <glyph glyph-name="agrave" unicode="&#xe0;" horiz-adv-x="1960" 
d="M1380 0v135q-71 -39 -152.5 -69t-169.5 -51t-181.5 -31.5t-188.5 -10.5q-111 0 -214.5 21t-183.5 68t-128.5 123t-48.5 186q0 139 76 231.5t232 151.5t394.5 91t564.5 50v29q0 34 -18 67.5t-65.5 59t-130 41.5t-210.5 16q-101 0 -199.5 -10.5t-190 -28.5t-173.5 -42
t-149 -50v330q70 18 157 35t181 29.5t190 20t184 7.5q173 0 319 -28.5t251.5 -88.5t165 -152t59.5 -219v-911h-371zM1380 627q-214 -8 -363.5 -23t-248.5 -35t-155.5 -43t-84.5 -47t-34.5 -48t-6.5 -44q0 -24 13 -46.5t45.5 -39.5t86.5 -27t136 -10q91 0 178 14t165 38.5
t146.5 58t122.5 71.5v181zM694 1951l482 -280l-90 -170l-523 186z" />
    <glyph glyph-name="aacute" unicode="&#xe1;" horiz-adv-x="1960" 
d="M1380 0v135q-71 -39 -152.5 -69t-169.5 -51t-181.5 -31.5t-188.5 -10.5q-111 0 -214.5 21t-183.5 68t-128.5 123t-48.5 186q0 139 76 231.5t232 151.5t394.5 91t564.5 50v29q0 34 -18 67.5t-65.5 59t-130 41.5t-210.5 16q-101 0 -199.5 -10.5t-190 -28.5t-173.5 -42
t-149 -50v330q70 18 157 35t181 29.5t190 20t184 7.5q173 0 319 -28.5t251.5 -88.5t165 -152t59.5 -219v-911h-371zM1380 627q-214 -8 -363.5 -23t-248.5 -35t-155.5 -43t-84.5 -47t-34.5 -48t-6.5 -44q0 -24 13 -46.5t45.5 -39.5t86.5 -27t136 -10q91 0 178 14t165 38.5
t146.5 58t122.5 71.5v181zM1360 1687l-522 -186l-90 170l481 280z" />
    <glyph glyph-name="acircumflex" unicode="&#xe2;" horiz-adv-x="1960" 
d="M1380 0v135q-71 -39 -152.5 -69t-169.5 -51t-181.5 -31.5t-188.5 -10.5q-111 0 -214.5 21t-183.5 68t-128.5 123t-48.5 186q0 139 76 231.5t232 151.5t394.5 91t564.5 50v29q0 34 -18 67.5t-65.5 59t-130 41.5t-210.5 16q-101 0 -199.5 -10.5t-190 -28.5t-173.5 -42
t-149 -50v330q70 18 157 35t181 29.5t190 20t184 7.5q173 0 319 -28.5t251.5 -88.5t165 -152t59.5 -219v-911h-371zM1380 627q-214 -8 -363.5 -23t-248.5 -35t-155.5 -43t-84.5 -47t-34.5 -48t-6.5 -44q0 -24 13 -46.5t45.5 -39.5t86.5 -27t136 -10q91 0 178 14t165 38.5
t146.5 58t122.5 71.5v181zM1327 1501l-348 180l-348 -180l-121 188l469 266l469 -266z" />
    <glyph glyph-name="atilde" unicode="&#xe3;" horiz-adv-x="1960" 
d="M1380 0v135q-71 -39 -152.5 -69t-169.5 -51t-181.5 -31.5t-188.5 -10.5q-111 0 -214.5 21t-183.5 68t-128.5 123t-48.5 186q0 139 76 231.5t232 151.5t394.5 91t564.5 50v29q0 34 -18 67.5t-65.5 59t-130 41.5t-210.5 16q-101 0 -199.5 -10.5t-190 -28.5t-173.5 -42
t-149 -50v330q70 18 157 35t181 29.5t190 20t184 7.5q173 0 319 -28.5t251.5 -88.5t165 -152t59.5 -219v-911h-371zM1380 627q-214 -8 -363.5 -23t-248.5 -35t-155.5 -43t-84.5 -47t-34.5 -48t-6.5 -44q0 -24 13 -46.5t45.5 -39.5t86.5 -27t136 -10q91 0 178 14t165 38.5
t146.5 58t122.5 71.5v181zM1374 1873q0 -96 -17 -165t-49.5 -113t-79 -65t-104.5 -21q-54 0 -91 19t-66 41.5t-55 41.5t-58 19q-30 0 -47.5 -15t-26.5 -35.5t-12 -40.5t-4 -30h-177q0 85 17.5 152.5t50.5 114.5t79.5 72t104.5 25q47 0 81.5 -19t64.5 -41.5t58.5 -41
t64.5 -18.5q30 0 47.5 15t26.5 34.5t12 39.5t4 31h176v0z" />
    <glyph glyph-name="adieresis" unicode="&#xe4;" horiz-adv-x="1960" 
d="M1380 0v135q-71 -39 -152.5 -69t-169.5 -51t-181.5 -31.5t-188.5 -10.5q-111 0 -214.5 21t-183.5 68t-128.5 123t-48.5 186q0 139 76 231.5t232 151.5t394.5 91t564.5 50v29q0 34 -18 67.5t-65.5 59t-130 41.5t-210.5 16q-101 0 -199.5 -10.5t-190 -28.5t-173.5 -42
t-149 -50v330q70 18 157 35t181 29.5t190 20t184 7.5q173 0 319 -28.5t251.5 -88.5t165 -152t59.5 -219v-911h-371zM1380 627q-214 -8 -363.5 -23t-248.5 -35t-155.5 -43t-84.5 -47t-34.5 -48t-6.5 -44q0 -24 13 -46.5t45.5 -39.5t86.5 -27t136 -10q91 0 178 14t165 38.5
t146.5 58t122.5 71.5v181zM592 1521v311h311v-311h-311zM1054 1521v311h312v-311h-312z" />
    <glyph glyph-name="aring" unicode="&#xe5;" horiz-adv-x="1960" 
d="M1380 0v135q-71 -39 -152.5 -69t-169.5 -51t-181.5 -31.5t-188.5 -10.5q-111 0 -214.5 21t-183.5 68t-128.5 123t-48.5 186q0 139 76 231.5t232 151.5t394.5 91t564.5 50v29q0 34 -18 67.5t-65.5 59t-130 41.5t-210.5 16q-101 0 -199.5 -10.5t-190 -28.5t-173.5 -42
t-149 -50v330q70 18 157 35t181 29.5t190 20t184 7.5q173 0 319 -28.5t251.5 -88.5t165 -152t59.5 -219v-911h-371zM1380 627q-214 -8 -363.5 -23t-248.5 -35t-155.5 -43t-84.5 -47t-34.5 -48t-6.5 -44q0 -24 13 -46.5t45.5 -39.5t86.5 -27t136 -10q91 0 178 14t165 38.5
t146.5 58t122.5 71.5v181zM676 1716q0 49 19.5 92.5t57.5 76t94.5 51.5t131.5 19q74 0 130.5 -19t95 -51.5t58 -76t19.5 -92.5t-19.5 -92.5t-58 -76.5t-95 -52t-130.5 -19q-75 0 -131.5 19t-94.5 52t-57.5 76.5t-19.5 92.5zM880 1716q0 -41 25.5 -69t73.5 -28t72 28t24 69
q0 40 -24 68t-72 28t-73.5 -28t-25.5 -68z" />
    <glyph glyph-name="ae" unicode="&#xe6;" horiz-adv-x="3240" 
d="M3004 68q-169 -56 -337 -80.5t-345 -24.5q-260 0 -447 62.5t-302 183.5q-78 -42 -164.5 -84t-189 -75.5t-226 -55t-274.5 -21.5q-122 0 -232 21t-193 68t-132 123t-49 186q0 139 76 231.5t232 151.5t394.5 91t564.5 50v29q0 34 -18 67.5t-65.5 59t-130 41.5t-210.5 16
q-101 0 -199.5 -10.5t-190 -28.5t-173.5 -42t-149 -50v330q70 18 157 35t181 29.5t190 20t184 7.5q229 0 401.5 -50.5t268.5 -156.5q115 102 277.5 159.5t369.5 57.5q187 0 342.5 -50.5t267 -149.5t173 -244t61.5 -334v-92h-1354q18 -65 59.5 -119t112.5 -92t174.5 -59
t247.5 -21q102 0 200.5 12.5t183.5 33t153 45.5t110 50v-321zM1413 451q-8 27 -18 69t-15 107q-214 -8 -363.5 -23t-248.5 -35t-155.5 -43t-84.5 -47t-34.5 -48t-6.5 -44q0 -24 13 -46.5t45.5 -39.5t86.5 -27t136 -10q91 0 183 14.5t176.5 40t158 59.5t127.5 73zM2748 811
q-5 51 -30.5 105.5t-80 98.5t-144 72.5t-222.5 28.5q-125 0 -216 -31t-152.5 -77t-95.5 -99t-44 -98h985z" />
    <glyph glyph-name="ccedilla" unicode="&#xe7;" horiz-adv-x="1860" 
d="M1729 94q-72 -30 -145 -54t-151 -41.5t-164.5 -26.5t-185.5 -9q-210 0 -386.5 45t-304 135.5t-198.5 226t-71 316.5t71 316.5t198.5 226t304 135.5t386.5 45q99 0 185.5 -9t164.5 -26.5t151 -41.5t145 -54v-334q-57 31 -120 61.5t-139 55t-167 40t-205 15.5
q-175 0 -290.5 -36t-184.5 -96t-97 -137.5t-28 -160.5q0 -55 12 -108.5t40 -101t73 -87.5t112 -69t156.5 -45.5t206.5 -16.5q114 0 205 14.5t167 38.5t139 54.5t120 62.5v-334v0zM1078 -97q43 0 92 -7.5t89.5 -29.5t67.5 -61t27 -103t-31.5 -107t-82.5 -69.5t-114 -37.5
t-126 -11q-56 0 -100.5 3t-79 7t-61.5 8.5t-48 8.5v194q45 -20 103 -34.5t120 -14.5q31 0 58.5 3.5t47 10.5t31 18t11.5 26q0 18 -13.5 28.5t-33.5 16.5t-42 8t-40 2q-26 0 -54 -3t-51 -9l96 251h172z" />
    <glyph glyph-name="egrave" unicode="&#xe8;" horiz-adv-x="1982" 
d="M1747 68q-169 -56 -337.5 -80.5t-344.5 -24.5q-225 0 -400.5 48.5t-295.5 140.5t-183 225t-63 301q0 156 63.5 289.5t180 232t281.5 154t368 55.5q187 0 342.5 -50.5t267 -149.5t173 -244t61.5 -334v-92h-1354q18 -65 59.5 -119t112.5 -92t174.5 -59t247.5 -21
q102 0 200 12.5t183 33t153.5 45.5t110.5 50v-321zM1491 811q-5 51 -30.5 105.5t-80.5 98.5t-144 72.5t-222 28.5q-125 0 -216 -31t-152.5 -77t-95.5 -99t-44 -98h985zM741 1951l482 -280l-90 -170l-523 186z" />
    <glyph glyph-name="eacute" unicode="&#xe9;" horiz-adv-x="1982" 
d="M1747 68q-169 -56 -337.5 -80.5t-344.5 -24.5q-225 0 -400.5 48.5t-295.5 140.5t-183 225t-63 301q0 156 63.5 289.5t180 232t281.5 154t368 55.5q187 0 342.5 -50.5t267 -149.5t173 -244t61.5 -334v-92h-1354q18 -65 59.5 -119t112.5 -92t174.5 -59t247.5 -21
q102 0 200 12.5t183 33t153.5 45.5t110.5 50v-321zM1491 811q-5 51 -30.5 105.5t-80.5 98.5t-144 72.5t-222 28.5q-125 0 -216 -31t-152.5 -77t-95.5 -99t-44 -98h985zM1407 1687l-522 -186l-90 170l481 280z" />
    <glyph glyph-name="ecircumflex" unicode="&#xea;" horiz-adv-x="1982" 
d="M1747 68q-169 -56 -337.5 -80.5t-344.5 -24.5q-225 0 -400.5 48.5t-295.5 140.5t-183 225t-63 301q0 156 63.5 289.5t180 232t281.5 154t368 55.5q187 0 342.5 -50.5t267 -149.5t173 -244t61.5 -334v-92h-1354q18 -65 59.5 -119t112.5 -92t174.5 -59t247.5 -21
q102 0 200 12.5t183 33t153.5 45.5t110.5 50v-321zM1491 811q-5 51 -30.5 105.5t-80.5 98.5t-144 72.5t-222 28.5q-125 0 -216 -31t-152.5 -77t-95.5 -99t-44 -98h985zM1354 1501l-348 180l-348 -180l-121 188l469 266l469 -266z" />
    <glyph glyph-name="edieresis" unicode="&#xeb;" horiz-adv-x="1982" 
d="M1747 68q-169 -56 -337.5 -80.5t-344.5 -24.5q-225 0 -400.5 48.5t-295.5 140.5t-183 225t-63 301q0 156 63.5 289.5t180 232t281.5 154t368 55.5q187 0 342.5 -50.5t267 -149.5t173 -244t61.5 -334v-92h-1354q18 -65 59.5 -119t112.5 -92t174.5 -59t247.5 -21
q102 0 200 12.5t183 33t153.5 45.5t110.5 50v-321zM1491 811q-5 51 -30.5 105.5t-80.5 98.5t-144 72.5t-222 28.5q-125 0 -216 -31t-152.5 -77t-95.5 -99t-44 -98h985zM619 1521v311h311v-311h-311zM1081 1521v311h312v-311h-312z" />
    <glyph glyph-name="igrave" unicode="&#xec;" horiz-adv-x="801" 
d="M215 0v1374h371v-1374h-371zM134 1964l482 -280l-90 -170l-523 186z" />
    <glyph glyph-name="iacute" unicode="&#xed;" horiz-adv-x="801" 
d="M215 0v1374h371v-1374h-371zM800 1687l-522 -186l-90 170l481 280z" />
    <glyph glyph-name="icircumflex" unicode="&#xee;" horiz-adv-x="801" 
d="M215 0v1374h371v-1374h-371zM747 1501l-348 180l-348 -180l-121 188l469 266l469 -266z" />
    <glyph glyph-name="idieresis" unicode="&#xef;" horiz-adv-x="801" 
d="M215 0v1374h371v-1374h-371zM12 1521v311h311v-311h-311zM474 1521v311h312v-311h-312z" />
    <glyph glyph-name="eth" unicode="&#xf0;" horiz-adv-x="2021" 
d="M1898 688q0 -132 -29 -234.5t-81.5 -178.5t-126 -129t-163.5 -85t-194 -46.5t-217 -14.5h-872v569h-205v267h205v538h870q113 0 217 -14.5t194.5 -46.5t164.5 -84.5t126.5 -129t81.5 -178.5t29 -233zM1524 688q0 99 -25.5 172t-82 120.5t-147.5 71t-222 23.5h-461v-239
h393v-267h-393v-270h461q131 0 222 23.5t147.5 72t82 121.5t25.5 172z" />
    <glyph glyph-name="ntilde" unicode="&#xf1;" horiz-adv-x="2103" 
d="M1524 0v770q0 77 -13 139.5t-48.5 107t-99 69t-163.5 24.5q-76 0 -159.5 -20.5t-165.5 -54.5t-156.5 -79t-132.5 -94v-862h-371v1374h371v-188q70 40 149 79.5t168 71.5t189 52t211 20q139 0 248.5 -33.5t185.5 -95t116.5 -149t40.5 -195.5v-936h-370zM1520 1873
q0 -96 -17 -165t-49.5 -113t-79 -65t-104.5 -21q-54 0 -91 19t-66 41.5t-55 41.5t-58 19q-30 0 -47.5 -15t-26.5 -35.5t-12 -40.5t-4 -30h-177q0 85 17.5 152.5t50.5 114.5t79.5 72t104.5 25q47 0 81.5 -19t64.5 -41.5t58.5 -41t64.5 -18.5q30 0 47.5 15t26.5 34.5t12 39.5
t4 31h176v0z" />
    <glyph glyph-name="ograve" unicode="&#xf2;" 
d="M1993 686q0 -177 -65 -312.5t-186 -226.5t-293.5 -137.5t-387.5 -46.5t-388.5 46.5t-295.5 137.5t-188 226.5t-66 312.5t66 312.5t188 226.5t295.5 137.5t388.5 46.5t387.5 -46.5t293.5 -137.5t186 -226.5t65 -312.5zM1618 686q0 77 -24.5 153.5t-87 137.5t-170.5 99
t-275 38q-112 0 -197 -17.5t-147 -48.5t-104 -72.5t-67 -89t-35.5 -99t-10.5 -101.5q0 -51 10.5 -103t35.5 -99.5t67 -88.5t104 -71.5t147 -48t197 -17.5q167 0 275 38t170.5 99t87 137.5t24.5 153.5zM796 1951l482 -280l-90 -170l-523 186z" />
    <glyph glyph-name="oacute" unicode="&#xf3;" 
d="M1993 686q0 -177 -65 -312.5t-186 -226.5t-293.5 -137.5t-387.5 -46.5t-388.5 46.5t-295.5 137.5t-188 226.5t-66 312.5t66 312.5t188 226.5t295.5 137.5t388.5 46.5t387.5 -46.5t293.5 -137.5t186 -226.5t65 -312.5zM1618 686q0 77 -24.5 153.5t-87 137.5t-170.5 99
t-275 38q-112 0 -197 -17.5t-147 -48.5t-104 -72.5t-67 -89t-35.5 -99t-10.5 -101.5q0 -51 10.5 -103t35.5 -99.5t67 -88.5t104 -71.5t147 -48t197 -17.5q167 0 275 38t170.5 99t87 137.5t24.5 153.5zM1462 1687l-522 -186l-90 170l481 280z" />
    <glyph glyph-name="ocircumflex" unicode="&#xf4;" 
d="M1993 686q0 -177 -65 -312.5t-186 -226.5t-293.5 -137.5t-387.5 -46.5t-388.5 46.5t-295.5 137.5t-188 226.5t-66 312.5t66 312.5t188 226.5t295.5 137.5t388.5 46.5t387.5 -46.5t293.5 -137.5t186 -226.5t65 -312.5zM1618 686q0 77 -24.5 153.5t-87 137.5t-170.5 99
t-275 38q-112 0 -197 -17.5t-147 -48.5t-104 -72.5t-67 -89t-35.5 -99t-10.5 -101.5q0 -51 10.5 -103t35.5 -99.5t67 -88.5t104 -71.5t147 -48t197 -17.5q167 0 275 38t170.5 99t87 137.5t24.5 153.5zM1409 1501l-348 180l-348 -180l-121 188l469 266l469 -266z" />
    <glyph glyph-name="otilde" unicode="&#xf5;" 
d="M1993 686q0 -177 -65 -312.5t-186 -226.5t-293.5 -137.5t-387.5 -46.5t-388.5 46.5t-295.5 137.5t-188 226.5t-66 312.5t66 312.5t188 226.5t295.5 137.5t388.5 46.5t387.5 -46.5t293.5 -137.5t186 -226.5t65 -312.5zM1618 686q0 77 -24.5 153.5t-87 137.5t-170.5 99
t-275 38q-112 0 -197 -17.5t-147 -48.5t-104 -72.5t-67 -89t-35.5 -99t-10.5 -101.5q0 -51 10.5 -103t35.5 -99.5t67 -88.5t104 -71.5t147 -48t197 -17.5q167 0 275 38t170.5 99t87 137.5t24.5 153.5zM1456 1873q0 -96 -17 -165t-49.5 -113t-79 -65t-104.5 -21q-54 0 -91 19
t-66 41.5t-55 41.5t-58 19q-30 0 -47.5 -15t-26.5 -35.5t-12 -40.5t-4 -30h-177q0 85 17.5 152.5t50.5 114.5t79.5 72t104.5 25q47 0 81.5 -19t64.5 -41.5t58.5 -41t64.5 -18.5q30 0 47.5 15t26.5 34.5t12 39.5t4 31h176v0z" />
    <glyph glyph-name="odieresis" unicode="&#xf6;" 
d="M1993 686q0 -177 -65 -312.5t-186 -226.5t-293.5 -137.5t-387.5 -46.5t-388.5 46.5t-295.5 137.5t-188 226.5t-66 312.5t66 312.5t188 226.5t295.5 137.5t388.5 46.5t387.5 -46.5t293.5 -137.5t186 -226.5t65 -312.5zM1618 686q0 77 -24.5 153.5t-87 137.5t-170.5 99
t-275 38q-112 0 -197 -17.5t-147 -48.5t-104 -72.5t-67 -89t-35.5 -99t-10.5 -101.5q0 -51 10.5 -103t35.5 -99.5t67 -88.5t104 -71.5t147 -48t197 -17.5q167 0 275 38t170.5 99t87 137.5t24.5 153.5zM674 1521v311h311v-311h-311zM1136 1521v311h312v-311h-312z" />
    <glyph glyph-name="divide" unicode="&#xf7;" horiz-adv-x="1382" 
d="M152 539v292h1079v-292h-1079zM545 981v264h293v-264h-293zM545 125v264h293v-264h-293z" />
    <glyph glyph-name="oslash" unicode="&#xf8;" 
d="M1993 686q0 -177 -65 -312.5t-186 -226.5t-293.5 -137.5t-387.5 -46.5q-113 0 -213.5 12.5t-190.5 36.5l-157 -194h-293l233 286q-152 91 -234.5 236t-82.5 346q0 177 66 312.5t188 226.5t295.5 137.5t388.5 46.5q223 0 397 -49l158 194h291l-232 -286
q153 -90 235.5 -235.5t82.5 -346.5zM1618 686q0 44 -7.5 88t-25.5 86t-47 80t-72 70l-596 -736q42 -8 89.5 -12t101.5 -4q167 0 275 38t170.5 99t87 137.5t24.5 153.5zM500 686q0 -44 7.5 -88t25 -86t46 -80.5t70.5 -69.5l596 736q-40 8 -86 12t-98 4q-112 0 -197 -17.5
t-147 -48.5t-104 -72.5t-67 -89t-35.5 -99t-10.5 -101.5z" />
    <glyph glyph-name="ugrave" unicode="&#xf9;" horiz-adv-x="2103" 
d="M580 1374v-774q0 -77 13 -139.5t48 -107t98 -69t164 -24.5q76 0 159.5 21t165.5 56t156.5 80.5t133.5 94.5v862h370v-1374h-370v188q-70 -40 -149 -80.5t-168 -73t-189 -53t-211 -20.5q-139 0 -249 33.5t-186 95t-116.5 149t-40.5 195.5v940h371zM786 1951l482 -280
l-90 -170l-523 186z" />
    <glyph glyph-name="uacute" unicode="&#xfa;" horiz-adv-x="2103" 
d="M580 1374v-774q0 -77 13 -139.5t48 -107t98 -69t164 -24.5q76 0 159.5 21t165.5 56t156.5 80.5t133.5 94.5v862h370v-1374h-370v188q-70 -40 -149 -80.5t-168 -73t-189 -53t-211 -20.5q-139 0 -249 33.5t-186 95t-116.5 149t-40.5 195.5v940h371zM1452 1687l-522 -186
l-90 170l481 280z" />
    <glyph glyph-name="ucircumflex" unicode="&#xfb;" horiz-adv-x="2103" 
d="M580 1374v-774q0 -77 13 -139.5t48 -107t98 -69t164 -24.5q76 0 159.5 21t165.5 56t156.5 80.5t133.5 94.5v862h370v-1374h-370v188q-70 -40 -149 -80.5t-168 -73t-189 -53t-211 -20.5q-139 0 -249 33.5t-186 95t-116.5 149t-40.5 195.5v940h371zM1399 1501l-348 180
l-348 -180l-121 188l469 266l469 -266z" />
    <glyph glyph-name="udieresis" unicode="&#xfc;" horiz-adv-x="2103" 
d="M580 1374v-774q0 -77 13 -139.5t48 -107t98 -69t164 -24.5q76 0 159.5 21t165.5 56t156.5 80.5t133.5 94.5v862h370v-1374h-370v188q-70 -40 -149 -80.5t-168 -73t-189 -53t-211 -20.5q-139 0 -249 33.5t-186 95t-116.5 149t-40.5 195.5v940h371zM664 1521v311h311v-311
h-311zM1126 1521v311h312v-311h-312z" />
    <glyph glyph-name="yacute" unicode="&#xfd;" horiz-adv-x="2062" 
d="M1847 528q0 -134 -66 -239t-187.5 -177.5t-294 -110.5t-386.5 -38q-94 0 -197.5 7.5t-202 21t-184.5 31t-145 38.5v326q64 -27 142.5 -51t170.5 -42.5t197.5 -29t223.5 -10.5q111 0 195.5 13t146.5 35t103 50.5t66 59t35.5 60.5t10.5 56v121q-102 -75 -243 -123.5
t-321 -48.5q-209 0 -348.5 40.5t-223.5 117t-119.5 186.5t-35.5 248v305h373v-268q0 -81 21.5 -144t68 -105.5t120.5 -64.5t179 -22q89 0 168.5 22t146.5 58t121 82t93 94v348h372v-846zM1415 1687l-522 -186l-90 170l481 280z" />
    <glyph glyph-name="thorn" unicode="&#xfe;" horiz-adv-x="1882" 
d="M1759 709q0 -103 -30 -189.5t-96.5 -149t-172.5 -97.5t-258 -35h-616v-238h-371v1372h371v-194h616q152 0 258 -35t172.5 -97t96.5 -148t30 -189zM1384 702q0 48 -13.5 83t-44.5 57t-81 32.5t-123 10.5h-536v-355h536q73 0 123 8.5t81 29t44.5 53.5t13.5 81z" />
    <glyph glyph-name="ydieresis" unicode="&#xff;" horiz-adv-x="2062" 
d="M1847 528q0 -134 -66 -239t-187.5 -177.5t-294 -110.5t-386.5 -38q-94 0 -197.5 7.5t-202 21t-184.5 31t-145 38.5v326q64 -27 142.5 -51t170.5 -42.5t197.5 -29t223.5 -10.5q111 0 195.5 13t146.5 35t103 50.5t66 59t35.5 60.5t10.5 56v121q-102 -75 -243 -123.5
t-321 -48.5q-209 0 -348.5 40.5t-223.5 117t-119.5 186.5t-35.5 248v305h373v-268q0 -81 21.5 -144t68 -105.5t120.5 -64.5t179 -22q89 0 168.5 22t146.5 58t121 82t93 94v348h372v-846zM627 1521v311h311v-311h-311zM1089 1521v311h312v-311h-312z" />
    <glyph glyph-name="Amacron" unicode="&#x100;" horiz-adv-x="1872" 
d="M1319 260h-766l-129 -260h-414l719 1374h414l719 -1374h-414zM686 528h502l-250 506zM600 1542v256h672v-256h-672z" />
    <glyph glyph-name="amacron" unicode="&#x101;" horiz-adv-x="1960" 
d="M1380 0v135q-71 -39 -152.5 -69t-169.5 -51t-181.5 -31.5t-188.5 -10.5q-111 0 -214.5 21t-183.5 68t-128.5 123t-48.5 186q0 139 76 231.5t232 151.5t394.5 91t564.5 50v29q0 34 -18 67.5t-65.5 59t-130 41.5t-210.5 16q-101 0 -199.5 -10.5t-190 -28.5t-173.5 -42
t-149 -50v330q70 18 157 35t181 29.5t190 20t184 7.5q173 0 319 -28.5t251.5 -88.5t165 -152t59.5 -219v-911h-371zM1380 627q-214 -8 -363.5 -23t-248.5 -35t-155.5 -43t-84.5 -47t-34.5 -48t-6.5 -44q0 -24 13 -46.5t45.5 -39.5t86.5 -27t136 -10q91 0 178 14t165 38.5
t146.5 58t122.5 71.5v181zM643 1542v256h672v-256h-672z" />
    <glyph glyph-name="Abreve" unicode="&#x102;" horiz-adv-x="1872" 
d="M1319 260h-766l-129 -260h-414l719 1374h414l719 -1374h-414zM686 528h502l-250 506zM1343 1914q-1 -25 -8 -64t-24 -83.5t-45.5 -89.5t-73.5 -81.5t-108 -59.5t-148 -23q-86 0 -149 23t-107.5 59.5t-73.5 81.5t-45.5 89.5t-24 83.5t-8.5 64h189q6 -18 18.5 -43t37 -48
t64 -39.5t99.5 -16.5q59 0 98.5 16.5t64.5 39.5t38.5 48t19.5 43h186v0z" />
    <glyph glyph-name="abreve" unicode="&#x103;" horiz-adv-x="1960" 
d="M1380 0v135q-71 -39 -152.5 -69t-169.5 -51t-181.5 -31.5t-188.5 -10.5q-111 0 -214.5 21t-183.5 68t-128.5 123t-48.5 186q0 139 76 231.5t232 151.5t394.5 91t564.5 50v29q0 34 -18 67.5t-65.5 59t-130 41.5t-210.5 16q-101 0 -199.5 -10.5t-190 -28.5t-173.5 -42
t-149 -50v330q70 18 157 35t181 29.5t190 20t184 7.5q173 0 319 -28.5t251.5 -88.5t165 -152t59.5 -219v-911h-371zM1380 627q-214 -8 -363.5 -23t-248.5 -35t-155.5 -43t-84.5 -47t-34.5 -48t-6.5 -44q0 -24 13 -46.5t45.5 -39.5t86.5 -27t136 -10q91 0 178 14t165 38.5
t146.5 58t122.5 71.5v181zM1386 1914q-1 -25 -8 -64t-24 -83.5t-45.5 -89.5t-73.5 -81.5t-108 -59.5t-148 -23q-86 0 -149 23t-107.5 59.5t-73.5 81.5t-45.5 89.5t-24 83.5t-8.5 64h189q6 -18 18.5 -43t37 -48t64 -39.5t99.5 -16.5q59 0 98.5 16.5t64.5 39.5t38.5 48
t19.5 43h186v0z" />
    <glyph glyph-name="Aogonek" unicode="&#x104;" horiz-adv-x="1872" 
d="M1319 260h-766l-129 -260h-414l719 1374h414l719 -1374h-195q-56 -48 -88.5 -102.5t-32.5 -104.5q0 -42 29 -59t92 -17q28 0 62 6t67.5 14.5t63.5 18.5t51 19v-207q-21 -6 -54 -15t-76.5 -17t-96 -13.5t-113.5 -5.5q-60 0 -115 11t-96.5 36t-66.5 65t-25 99q0 29 12.5 65
t36 73t56.5 72t75 62zM686 528h502l-250 506z" />
    <glyph glyph-name="aogonek" unicode="&#x105;" horiz-adv-x="1960" 
d="M1599 0q-55 -48 -87.5 -102.5t-32.5 -104.5q0 -42 28.5 -59t91.5 -17q28 0 62 6t67.5 14.5t63.5 18.5t51 19v-207q-21 -6 -53.5 -15t-76 -17t-96.5 -13.5t-114 -5.5q-60 0 -115 11t-96.5 36t-66.5 65t-25 99q0 29 12.5 65t36 73t57 72t74.5 62v135q-71 -39 -152.5 -69
t-169.5 -51t-181.5 -31.5t-188.5 -10.5q-111 0 -214.5 21t-183.5 68t-128.5 123t-48.5 186q0 139 76 231.5t232 151.5t394.5 91t564.5 50v29q0 34 -18 67.5t-65.5 59t-130 41.5t-210.5 16q-101 0 -199.5 -10.5t-190 -28.5t-173.5 -42t-149 -50v330q70 18 157 35t181 29.5
t190 20t184 7.5q173 0 319 -28.5t251.5 -88.5t165 -152t59.5 -219v-911h-152zM1380 627q-214 -8 -363.5 -23t-248.5 -35t-155.5 -43t-84.5 -47t-34.5 -48t-6.5 -44q0 -24 13 -46.5t45.5 -39.5t86.5 -27t136 -10q91 0 178 14t165 38.5t146.5 58t122.5 71.5v181z" />
    <glyph glyph-name="Cacute" unicode="&#x106;" horiz-adv-x="1860" 
d="M1729 94q-72 -30 -145 -54t-151 -41.5t-164.5 -26.5t-185.5 -9q-210 0 -386.5 45t-304 135.5t-198.5 226t-71 316.5t71 316.5t198.5 226t304 135.5t386.5 45q99 0 185.5 -9t164.5 -26.5t151 -41.5t145 -54v-334q-57 31 -120 61.5t-139 55t-167 40t-205 15.5
q-175 0 -290.5 -36t-184.5 -96t-97 -137.5t-28 -160.5q0 -55 12 -108.5t40 -101t73 -87.5t112 -69t156.5 -45.5t206.5 -16.5q114 0 205 14.5t167 38.5t139 54.5t120 62.5v-334v0zM1468 1687l-522 -186l-90 170l481 280z" />
    <glyph glyph-name="cacute" unicode="&#x107;" horiz-adv-x="1860" 
d="M1729 94q-72 -30 -145 -54t-151 -41.5t-164.5 -26.5t-185.5 -9q-210 0 -386.5 45t-304 135.5t-198.5 226t-71 316.5t71 316.5t198.5 226t304 135.5t386.5 45q99 0 185.5 -9t164.5 -26.5t151 -41.5t145 -54v-334q-57 31 -120 61.5t-139 55t-167 40t-205 15.5
q-175 0 -290.5 -36t-184.5 -96t-97 -137.5t-28 -160.5q0 -55 12 -108.5t40 -101t73 -87.5t112 -69t156.5 -45.5t206.5 -16.5q114 0 205 14.5t167 38.5t139 54.5t120 62.5v-334v0zM1468 1687l-522 -186l-90 170l481 280z" />
    <glyph glyph-name="Ccircumflex" unicode="&#x108;" horiz-adv-x="1860" 
d="M1729 94q-72 -30 -145 -54t-151 -41.5t-164.5 -26.5t-185.5 -9q-210 0 -386.5 45t-304 135.5t-198.5 226t-71 316.5t71 316.5t198.5 226t304 135.5t386.5 45q99 0 185.5 -9t164.5 -26.5t151 -41.5t145 -54v-334q-57 31 -120 61.5t-139 55t-167 40t-205 15.5
q-175 0 -290.5 -36t-184.5 -96t-97 -137.5t-28 -160.5q0 -55 12 -108.5t40 -101t73 -87.5t112 -69t156.5 -45.5t206.5 -16.5q114 0 205 14.5t167 38.5t139 54.5t120 62.5v-334v0zM1415 1501l-348 180l-348 -180l-121 188l469 266l469 -266z" />
    <glyph glyph-name="ccircumflex" unicode="&#x109;" horiz-adv-x="1860" 
d="M1729 94q-72 -30 -145 -54t-151 -41.5t-164.5 -26.5t-185.5 -9q-210 0 -386.5 45t-304 135.5t-198.5 226t-71 316.5t71 316.5t198.5 226t304 135.5t386.5 45q99 0 185.5 -9t164.5 -26.5t151 -41.5t145 -54v-334q-57 31 -120 61.5t-139 55t-167 40t-205 15.5
q-175 0 -290.5 -36t-184.5 -96t-97 -137.5t-28 -160.5q0 -55 12 -108.5t40 -101t73 -87.5t112 -69t156.5 -45.5t206.5 -16.5q114 0 205 14.5t167 38.5t139 54.5t120 62.5v-334v0zM1415 1501l-348 180l-348 -180l-121 188l469 266l469 -266z" />
    <glyph glyph-name="Cdotaccent" unicode="&#x10a;" horiz-adv-x="1860" 
d="M1729 94q-72 -30 -145 -54t-151 -41.5t-164.5 -26.5t-185.5 -9q-210 0 -386.5 45t-304 135.5t-198.5 226t-71 316.5t71 316.5t198.5 226t304 135.5t386.5 45q99 0 185.5 -9t164.5 -26.5t151 -41.5t145 -54v-334q-57 31 -120 61.5t-139 55t-167 40t-205 15.5
q-175 0 -290.5 -36t-184.5 -96t-97 -137.5t-28 -160.5q0 -55 12 -108.5t40 -101t73 -87.5t112 -69t156.5 -45.5t206.5 -16.5q114 0 205 14.5t167 38.5t139 54.5t120 62.5v-334v0zM905 1521v318h319v-318h-319z" />
    <glyph glyph-name="cdotaccent" unicode="&#x10b;" horiz-adv-x="1860" 
d="M1729 94q-72 -30 -145 -54t-151 -41.5t-164.5 -26.5t-185.5 -9q-210 0 -386.5 45t-304 135.5t-198.5 226t-71 316.5t71 316.5t198.5 226t304 135.5t386.5 45q99 0 185.5 -9t164.5 -26.5t151 -41.5t145 -54v-334q-57 31 -120 61.5t-139 55t-167 40t-205 15.5
q-175 0 -290.5 -36t-184.5 -96t-97 -137.5t-28 -160.5q0 -55 12 -108.5t40 -101t73 -87.5t112 -69t156.5 -45.5t206.5 -16.5q114 0 205 14.5t167 38.5t139 54.5t120 62.5v-334v0zM907 1521v318h319v-318h-319z" />
    <glyph glyph-name="Ccaron" unicode="&#x10c;" horiz-adv-x="1860" 
d="M1729 94q-72 -30 -145 -54t-151 -41.5t-164.5 -26.5t-185.5 -9q-210 0 -386.5 45t-304 135.5t-198.5 226t-71 316.5t71 316.5t198.5 226t304 135.5t386.5 45q99 0 185.5 -9t164.5 -26.5t151 -41.5t145 -54v-334q-57 31 -120 61.5t-139 55t-167 40t-205 15.5
q-175 0 -290.5 -36t-184.5 -96t-97 -137.5t-28 -160.5q0 -55 12 -108.5t40 -101t73 -87.5t112 -69t156.5 -45.5t206.5 -16.5q114 0 205 14.5t167 38.5t139 54.5t120 62.5v-334v0zM719 1955l348 -180l348 180l121 -188l-469 -266l-469 266z" />
    <glyph glyph-name="ccaron" unicode="&#x10d;" horiz-adv-x="1860" 
d="M1729 94q-72 -30 -145 -54t-151 -41.5t-164.5 -26.5t-185.5 -9q-210 0 -386.5 45t-304 135.5t-198.5 226t-71 316.5t71 316.5t198.5 226t304 135.5t386.5 45q99 0 185.5 -9t164.5 -26.5t151 -41.5t145 -54v-334q-57 31 -120 61.5t-139 55t-167 40t-205 15.5
q-175 0 -290.5 -36t-184.5 -96t-97 -137.5t-28 -160.5q0 -55 12 -108.5t40 -101t73 -87.5t112 -69t156.5 -45.5t206.5 -16.5q114 0 205 14.5t167 38.5t139 54.5t120 62.5v-334v0zM719 1955l348 -180l348 180l121 -188l-469 -266l-469 266z" />
    <glyph glyph-name="Dcaron" unicode="&#x10e;" horiz-adv-x="2021" 
d="M1898 688q0 -132 -29 -234.5t-81.5 -178.5t-126 -129t-163.5 -85t-194 -46.5t-217 -14.5h-872v1374h870q113 0 217 -14.5t194.5 -46.5t164.5 -84.5t126.5 -129t81.5 -178.5t29 -233zM1524 688q0 99 -25.5 172t-82 120.5t-147.5 71t-222 23.5h-461v-776h461
q131 0 222 23.5t147.5 72t82 121.5t25.5 172zM605 1955l348 -180l348 180l121 -188l-469 -266l-469 266z" />
    <glyph glyph-name="dcaron" unicode="&#x10f;" horiz-adv-x="2021" 
d="M1898 688q0 -132 -29 -234.5t-81.5 -178.5t-126 -129t-163.5 -85t-194 -46.5t-217 -14.5h-872v1374h870q113 0 217 -14.5t194.5 -46.5t164.5 -84.5t126.5 -129t81.5 -178.5t29 -233zM1524 688q0 99 -25.5 172t-82 120.5t-147.5 71t-222 23.5h-461v-776h461
q131 0 222 23.5t147.5 72t82 121.5t25.5 172zM605 1955l348 -180l348 180l121 -188l-469 -266l-469 266z" />
    <glyph glyph-name="Dcroat" unicode="&#x110;" horiz-adv-x="2021" 
d="M1898 688q0 -132 -29 -234.5t-81.5 -178.5t-126 -129t-163.5 -85t-194 -46.5t-217 -14.5h-872v569h-205v267h205v538h870q113 0 217 -14.5t194.5 -46.5t164.5 -84.5t126.5 -129t81.5 -178.5t29 -233zM1524 688q0 99 -25.5 172t-82 120.5t-147.5 71t-222 23.5h-461v-239
h393v-267h-393v-270h461q131 0 222 23.5t147.5 72t82 121.5t25.5 172z" />
    <glyph glyph-name="dcroat" unicode="&#x111;" horiz-adv-x="2021" 
d="M1898 688q0 -132 -29 -234.5t-81.5 -178.5t-126 -129t-163.5 -85t-194 -46.5t-217 -14.5h-872v569h-205v267h205v538h870q113 0 217 -14.5t194.5 -46.5t164.5 -84.5t126.5 -129t81.5 -178.5t29 -233zM1524 688q0 99 -25.5 172t-82 120.5t-147.5 71t-222 23.5h-461v-239
h393v-267h-393v-270h461q131 0 222 23.5t147.5 72t82 121.5t25.5 172z" />
    <glyph glyph-name="Emacron" unicode="&#x112;" horiz-adv-x="1763" 
d="M215 0v1374h1391v-293h-1010v-227h958v-293h-958v-268h1024v-293h-1405zM584 1542v256h672v-256h-672z" />
    <glyph glyph-name="emacron" unicode="&#x113;" horiz-adv-x="1982" 
d="M1747 68q-169 -56 -337.5 -80.5t-344.5 -24.5q-225 0 -400.5 48.5t-295.5 140.5t-183 225t-63 301q0 156 63.5 289.5t180 232t281.5 154t368 55.5q187 0 342.5 -50.5t267 -149.5t173 -244t61.5 -334v-92h-1354q18 -65 59.5 -119t112.5 -92t174.5 -59t247.5 -21
q102 0 200 12.5t183 33t153.5 45.5t110.5 50v-321zM1491 811q-5 51 -30.5 105.5t-80.5 98.5t-144 72.5t-222 28.5q-125 0 -216 -31t-152.5 -77t-95.5 -99t-44 -98h985zM670 1542v256h672v-256h-672z" />
    <glyph glyph-name="Ebreve" unicode="&#x114;" horiz-adv-x="1763" 
d="M215 0v1374h1391v-293h-1010v-227h958v-293h-958v-268h1024v-293h-1405zM1319 1914q-1 -25 -8 -64t-24 -83.5t-45.5 -89.5t-73.5 -81.5t-108 -59.5t-148 -23q-86 0 -149 23t-107.5 59.5t-73.5 81.5t-45.5 89.5t-24 83.5t-8.5 64h189q6 -18 18.5 -43t37 -48t64 -39.5
t99.5 -16.5q59 0 98.5 16.5t64.5 39.5t38.5 48t19.5 43h186v0z" />
    <glyph glyph-name="ebreve" unicode="&#x115;" horiz-adv-x="1982" 
d="M1747 68q-169 -56 -337.5 -80.5t-344.5 -24.5q-225 0 -400.5 48.5t-295.5 140.5t-183 225t-63 301q0 156 63.5 289.5t180 232t281.5 154t368 55.5q187 0 342.5 -50.5t267 -149.5t173 -244t61.5 -334v-92h-1354q18 -65 59.5 -119t112.5 -92t174.5 -59t247.5 -21
q102 0 200 12.5t183 33t153.5 45.5t110.5 50v-321zM1491 811q-5 51 -30.5 105.5t-80.5 98.5t-144 72.5t-222 28.5q-125 0 -216 -31t-152.5 -77t-95.5 -99t-44 -98h985zM1413 1914q-1 -25 -8 -64t-24 -83.5t-45.5 -89.5t-73.5 -81.5t-108 -59.5t-148 -23q-86 0 -149 23
t-107.5 59.5t-73.5 81.5t-45.5 89.5t-24 83.5t-8.5 64h189q6 -18 18.5 -43t37 -48t64 -39.5t99.5 -16.5q59 0 98.5 16.5t64.5 39.5t38.5 48t19.5 43h186v0z" />
    <glyph glyph-name="Edotaccent" unicode="&#x116;" horiz-adv-x="1763" 
d="M215 0v1374h1391v-293h-1010v-227h958v-293h-958v-268h1024v-293h-1405zM760 1521v318h319v-318h-319z" />
    <glyph glyph-name="edotaccent" unicode="&#x117;" horiz-adv-x="1982" 
d="M1747 68q-169 -56 -337.5 -80.5t-344.5 -24.5q-225 0 -400.5 48.5t-295.5 140.5t-183 225t-63 301q0 156 63.5 289.5t180 232t281.5 154t368 55.5q187 0 342.5 -50.5t267 -149.5t173 -244t61.5 -334v-92h-1354q18 -65 59.5 -119t112.5 -92t174.5 -59t247.5 -21
q102 0 200 12.5t183 33t153.5 45.5t110.5 50v-321zM1491 811q-5 51 -30.5 105.5t-80.5 98.5t-144 72.5t-222 28.5q-125 0 -216 -31t-152.5 -77t-95.5 -99t-44 -98h985zM846 1521v318h319v-318h-319z" />
    <glyph glyph-name="Eogonek" unicode="&#x118;" horiz-adv-x="1763" 
d="M1620 0q-120 -15 -192.5 -39.5t-112 -53.5t-52 -59t-12.5 -55q0 -42 29 -59t92 -17q28 0 62 6t67.5 14.5t63.5 18.5t51 19v-207q-21 -6 -53.5 -15t-76 -17t-96.5 -13.5t-114 -5.5q-60 0 -115 11t-96.5 36t-66.5 65t-25 99q0 29 13 66.5t44 75.5t81 72.5t124 57.5h-1020
v1374h1391v-293h-1010v-227h958v-293h-958v-268h1024v-293v0z" />
    <glyph glyph-name="eogonek" unicode="&#x119;" horiz-adv-x="1982" 
d="M1747 68q-75 -17 -141.5 -43t-116.5 -60.5t-79.5 -77.5t-29.5 -94q0 -42 29 -59t92 -17q28 0 62 6t67.5 14.5t63.5 18.5t51 19v-207q-21 -6 -53.5 -15t-76 -17t-96.5 -13.5t-114 -5.5q-60 0 -115 11t-96.5 36t-66.5 65t-25 99q0 25 10 57t32 65.5t55.5 66t80.5 58.5
q-22 -2 -50 -4.5t-57.5 -4t-57.5 -2.5t-50 -1q-225 0 -400.5 48.5t-295.5 140.5t-183 225t-63 301q0 156 63.5 289.5t180 232t281.5 154t368 55.5q187 0 342.5 -50.5t267 -149.5t173 -244t61.5 -334v-92h-1354q18 -65 59.5 -119t112.5 -92t174.5 -59t247.5 -21
q102 0 200 12.5t183 33t153.5 45.5t110.5 50v-321zM1491 811q-5 51 -30.5 105.5t-80.5 98.5t-144 72.5t-222 28.5q-125 0 -216 -31t-152.5 -77t-95.5 -99t-44 -98h985z" />
    <glyph glyph-name="Ecaron" unicode="&#x11a;" horiz-adv-x="1763" 
d="M215 0v1374h1391v-293h-1010v-227h958v-293h-958v-268h1024v-293h-1405zM551 1955l348 -180l348 180l121 -188l-469 -266l-469 266z" />
    <glyph glyph-name="ecaron" unicode="&#x11b;" horiz-adv-x="1982" 
d="M1747 68q-169 -56 -337.5 -80.5t-344.5 -24.5q-225 0 -400.5 48.5t-295.5 140.5t-183 225t-63 301q0 156 63.5 289.5t180 232t281.5 154t368 55.5q187 0 342.5 -50.5t267 -149.5t173 -244t61.5 -334v-92h-1354q18 -65 59.5 -119t112.5 -92t174.5 -59t247.5 -21
q102 0 200 12.5t183 33t153.5 45.5t110.5 50v-321zM1491 811q-5 51 -30.5 105.5t-80.5 98.5t-144 72.5t-222 28.5q-125 0 -216 -31t-152.5 -77t-95.5 -99t-44 -98h985zM658 1955l348 -180l348 180l121 -188l-469 -266l-469 266z" />
    <glyph glyph-name="Gcircumflex" unicode="&#x11c;" horiz-adv-x="2011" 
d="M1100 1409q202 0 375.5 -34.5t318.5 -88.5v-336q-57 32 -128.5 62t-155.5 53t-180 37t-202 14q-132 0 -230 -19t-168 -51t-115 -74.5t-71 -90.5t-36 -98t-10 -97q0 -41 8.5 -89t32 -96t65.5 -92t109.5 -78t162.5 -54.5t226 -20.5q66 0 115 4t89.5 11t76 17t73.5 21v166
h-416v301h787v-702q-74 -25 -165.5 -45.5t-189 -35t-195.5 -22.5t-185 -8q-135 0 -259 18t-231.5 55.5t-196 95.5t-151 138t-97 183.5t-34.5 232.5q0 128 36 232t100.5 184t155 138t199 95.5t232 55.5t254.5 18zM1432 1501l-348 180l-348 -180l-121 188l469 266l469 -266z
" />
    <glyph glyph-name="gcircumflex" unicode="&#x11d;" horiz-adv-x="2011" 
d="M1100 1409q202 0 375.5 -34.5t318.5 -88.5v-336q-57 32 -128.5 62t-155.5 53t-180 37t-202 14q-132 0 -230 -19t-168 -51t-115 -74.5t-71 -90.5t-36 -98t-10 -97q0 -41 8.5 -89t32 -96t65.5 -92t109.5 -78t162.5 -54.5t226 -20.5q66 0 115 4t89.5 11t76 17t73.5 21v166
h-416v301h787v-702q-74 -25 -165.5 -45.5t-189 -35t-195.5 -22.5t-185 -8q-135 0 -259 18t-231.5 55.5t-196 95.5t-151 138t-97 183.5t-34.5 232.5q0 128 36 232t100.5 184t155 138t199 95.5t232 55.5t254.5 18zM1432 1501l-348 180l-348 -180l-121 188l469 266l469 -266z
" />
    <glyph glyph-name="Gbreve" unicode="&#x11e;" horiz-adv-x="2011" 
d="M1100 1409q202 0 375.5 -34.5t318.5 -88.5v-336q-57 32 -128.5 62t-155.5 53t-180 37t-202 14q-132 0 -230 -19t-168 -51t-115 -74.5t-71 -90.5t-36 -98t-10 -97q0 -41 8.5 -89t32 -96t65.5 -92t109.5 -78t162.5 -54.5t226 -20.5q66 0 115 4t89.5 11t76 17t73.5 21v166
h-416v301h787v-702q-74 -25 -165.5 -45.5t-189 -35t-195.5 -22.5t-185 -8q-135 0 -259 18t-231.5 55.5t-196 95.5t-151 138t-97 183.5t-34.5 232.5q0 128 36 232t100.5 184t155 138t199 95.5t232 55.5t254.5 18zM1491 1914q-1 -25 -8 -64t-24 -83.5t-45.5 -89.5t-73.5 -81.5
t-108 -59.5t-148 -23q-86 0 -149 23t-107.5 59.5t-73.5 81.5t-45.5 89.5t-24 83.5t-8.5 64h189q6 -18 18.5 -43t37 -48t64 -39.5t99.5 -16.5q59 0 98.5 16.5t64.5 39.5t38.5 48t19.5 43h186v0z" />
    <glyph glyph-name="gbreve" unicode="&#x11f;" horiz-adv-x="2011" 
d="M1100 1409q202 0 375.5 -34.5t318.5 -88.5v-336q-57 32 -128.5 62t-155.5 53t-180 37t-202 14q-132 0 -230 -19t-168 -51t-115 -74.5t-71 -90.5t-36 -98t-10 -97q0 -41 8.5 -89t32 -96t65.5 -92t109.5 -78t162.5 -54.5t226 -20.5q66 0 115 4t89.5 11t76 17t73.5 21v166
h-416v301h787v-702q-74 -25 -165.5 -45.5t-189 -35t-195.5 -22.5t-185 -8q-135 0 -259 18t-231.5 55.5t-196 95.5t-151 138t-97 183.5t-34.5 232.5q0 128 36 232t100.5 184t155 138t199 95.5t232 55.5t254.5 18zM1491 1914q-1 -25 -8 -64t-24 -83.5t-45.5 -89.5t-73.5 -81.5
t-108 -59.5t-148 -23q-86 0 -149 23t-107.5 59.5t-73.5 81.5t-45.5 89.5t-24 83.5t-8.5 64h189q6 -18 18.5 -43t37 -48t64 -39.5t99.5 -16.5q59 0 98.5 16.5t64.5 39.5t38.5 48t19.5 43h186v0z" />
    <glyph glyph-name="Gdotaccent" unicode="&#x120;" horiz-adv-x="2011" 
d="M1100 1409q202 0 375.5 -34.5t318.5 -88.5v-336q-57 32 -128.5 62t-155.5 53t-180 37t-202 14q-132 0 -230 -19t-168 -51t-115 -74.5t-71 -90.5t-36 -98t-10 -97q0 -41 8.5 -89t32 -96t65.5 -92t109.5 -78t162.5 -54.5t226 -20.5q66 0 115 4t89.5 11t76 17t73.5 21v166
h-416v301h787v-702q-74 -25 -165.5 -45.5t-189 -35t-195.5 -22.5t-185 -8q-135 0 -259 18t-231.5 55.5t-196 95.5t-151 138t-97 183.5t-34.5 232.5q0 128 36 232t100.5 184t155 138t199 95.5t232 55.5t254.5 18zM924 1521v318h319v-318h-319z" />
    <glyph glyph-name="gdotaccent" unicode="&#x121;" horiz-adv-x="2011" 
d="M1100 1409q202 0 375.5 -34.5t318.5 -88.5v-336q-57 32 -128.5 62t-155.5 53t-180 37t-202 14q-132 0 -230 -19t-168 -51t-115 -74.5t-71 -90.5t-36 -98t-10 -97q0 -41 8.5 -89t32 -96t65.5 -92t109.5 -78t162.5 -54.5t226 -20.5q66 0 115 4t89.5 11t76 17t73.5 21v166
h-416v301h787v-702q-74 -25 -165.5 -45.5t-189 -35t-195.5 -22.5t-185 -8q-135 0 -259 18t-231.5 55.5t-196 95.5t-151 138t-97 183.5t-34.5 232.5q0 128 36 232t100.5 184t155 138t199 95.5t232 55.5t254.5 18zM924 1521v318h319v-318h-319z" />
    <glyph glyph-name="Gcommaaccent" unicode="&#x122;" horiz-adv-x="2011" 
d="M1100 1409q202 0 375.5 -34.5t318.5 -88.5v-336q-57 32 -128.5 62t-155.5 53t-180 37t-202 14q-132 0 -230 -19t-168 -51t-115 -74.5t-71 -90.5t-36 -98t-10 -97q0 -41 8.5 -89t32 -96t65.5 -92t109.5 -78t162.5 -54.5t226 -20.5q66 0 115 4t89.5 11t76 17t73.5 21v166
h-416v301h787v-702q-74 -25 -165.5 -45.5t-189 -35t-195.5 -22.5t-185 -8q-135 0 -259 18t-231.5 55.5t-196 95.5t-151 138t-97 183.5t-34.5 232.5q0 128 36 232t100.5 184t155 138t199 95.5t232 55.5t254.5 18zM1102 -504h-244l50 381h327z" />
    <glyph glyph-name="gcommaaccent" unicode="&#x123;" horiz-adv-x="2011" 
d="M1100 1409q202 0 375.5 -34.5t318.5 -88.5v-336q-57 32 -128.5 62t-155.5 53t-180 37t-202 14q-132 0 -230 -19t-168 -51t-115 -74.5t-71 -90.5t-36 -98t-10 -97q0 -41 8.5 -89t32 -96t65.5 -92t109.5 -78t162.5 -54.5t226 -20.5q66 0 115 4t89.5 11t76 17t73.5 21v166
h-416v301h787v-702q-74 -25 -165.5 -45.5t-189 -35t-195.5 -22.5t-185 -8q-135 0 -259 18t-231.5 55.5t-196 95.5t-151 138t-97 183.5t-34.5 232.5q0 128 36 232t100.5 184t155 138t199 95.5t232 55.5t254.5 18zM1102 -504h-244l50 381h327z" />
    <glyph glyph-name="Hcircumflex" unicode="&#x124;" 
d="M1530 0v573h-944v-573h-371v1374h371v-500h944v500h371v-1374h-371zM1399 1501l-348 180l-348 -180l-121 188l469 266l469 -266z" />
    <glyph glyph-name="hcircumflex" unicode="&#x125;" 
d="M1530 0v573h-944v-573h-371v1374h371v-500h944v500h371v-1374h-371zM1399 1501l-348 180l-348 -180l-121 188l469 266l469 -266z" />
    <glyph glyph-name="Hbar" unicode="&#x126;" 
d="M1530 0v532h-944v-532h-371v961h-160v215h160v198h371v-198h944v198h371v-198h159v-215h-159v-961h-371zM1530 834v127h-944v-127h944z" />
    <glyph glyph-name="hbar" unicode="&#x127;" 
d="M1530 0v532h-944v-532h-371v961h-160v215h160v198h371v-198h944v198h371v-198h159v-215h-159v-961h-371zM1530 834v127h-944v-127h944z" />
    <glyph glyph-name="Itilde" unicode="&#x128;" horiz-adv-x="801" 
d="M215 0v1374h371v-1374h-371zM792 1873q0 -96 -17 -165t-49.5 -113t-79 -65t-104.5 -21q-54 0 -91 19t-66 41.5t-55 41.5t-58 19q-30 0 -47.5 -15t-26.5 -35.5t-12 -40.5t-4 -30h-177q0 85 17.5 152.5t50.5 114.5t79.5 72t104.5 25q47 0 81.5 -19t64.5 -41.5t58.5 -41
t64.5 -18.5q30 0 47.5 15t26.5 34.5t12 39.5t4 31h176v0z" />
    <glyph glyph-name="itilde" unicode="&#x129;" horiz-adv-x="801" 
d="M215 0v1374h371v-1374h-371zM794 1873q0 -96 -17 -165t-49.5 -113t-79 -65t-104.5 -21q-54 0 -91 19t-66 41.5t-55 41.5t-58 19q-30 0 -47.5 -15t-26.5 -35.5t-12 -40.5t-4 -30h-177q0 85 17.5 152.5t50.5 114.5t79.5 72t104.5 25q47 0 81.5 -19t64.5 -41.5t58.5 -41
t64.5 -18.5q30 0 47.5 15t26.5 34.5t12 39.5t4 31h176v0z" />
    <glyph glyph-name="Imacron" unicode="&#x12a;" horiz-adv-x="801" 
d="M215 0v1374h371v-1374h-371zM61 1542v256h672v-256h-672z" />
    <glyph glyph-name="imacron" unicode="&#x12b;" horiz-adv-x="801" 
d="M215 0v1374h371v-1374h-371zM63 1542v256h672v-256h-672z" />
    <glyph glyph-name="Ibreve" unicode="&#x12c;" horiz-adv-x="801" 
d="M215 0v1374h371v-1374h-371zM804 1914q-1 -25 -8 -64t-24 -83.5t-45.5 -89.5t-73.5 -81.5t-108 -59.5t-148 -23q-86 0 -149 23t-107.5 59.5t-73.5 81.5t-45.5 89.5t-24 83.5t-8.5 64h189q6 -18 18.5 -43t37 -48t64 -39.5t99.5 -16.5q59 0 98.5 16.5t64.5 39.5t38.5 48
t19.5 43h186v0z" />
    <glyph glyph-name="ibreve" unicode="&#x12d;" horiz-adv-x="801" 
d="M215 0v1374h371v-1374h-371zM806 1914q-1 -25 -8 -64t-24 -83.5t-45.5 -89.5t-73.5 -81.5t-108 -59.5t-148 -23q-86 0 -149 23t-107.5 59.5t-73.5 81.5t-45.5 89.5t-24 83.5t-8.5 64h189q6 -18 18.5 -43t37 -48t64 -39.5t99.5 -16.5q59 0 98.5 16.5t64.5 39.5t38.5 48
t19.5 43h186v0z" />
    <glyph glyph-name="Iogonek" unicode="&#x12e;" horiz-adv-x="801" 
d="M215 0v1374h371v-1374h-371zM507 20q-34 -24 -61 -52.5t-46.5 -58.5t-30 -59.5t-10.5 -56.5q0 -42 29 -59t92 -17q28 0 62 6t67.5 14.5t63.5 18.5t51 19v-207q-21 -6 -53.5 -15t-76 -17t-96.5 -13.5t-114 -5.5q-60 0 -115 11t-96.5 36t-66.5 65t-25 99q0 32 15 72.5
t43 81t68 77t89 61.5h211z" />
    <glyph glyph-name="iogonek" unicode="&#x12f;" horiz-adv-x="801" 
d="M215 0v1374h371v-1374h-371zM507 20q-34 -24 -61 -52.5t-46.5 -58.5t-30 -59.5t-10.5 -56.5q0 -42 29 -59t92 -17q28 0 62 6t67.5 14.5t63.5 18.5t51 19v-207q-21 -6 -53.5 -15t-76 -17t-96.5 -13.5t-114 -5.5q-60 0 -115 11t-96.5 36t-66.5 65t-25 99q0 32 15 72.5
t43 81t68 77t89 61.5h211z" />
    <glyph glyph-name="Idotaccent" unicode="&#x130;" horiz-adv-x="801" 
d="M215 0v1374h371v-1374h-371zM237 1521v318h319v-318h-319z" />
    <glyph glyph-name="dotlessi" unicode="&#x131;" horiz-adv-x="801" 
d="M215 0v1374h371v-1374h-371z" />
    <glyph glyph-name="IJ" unicode="&#x132;" horiz-adv-x="2216" 
d="M215 0v1374h371v-1374h-371zM2011 508q0 -137 -44.5 -236t-130 -163t-209.5 -94.5t-283 -30.5q-75 0 -154 7.5t-152 18.5t-134.5 23.5t-102.5 23.5v322q42 -17 92 -34.5t111.5 -31.5t136 -23t164.5 -9q97 0 161.5 21.5t103.5 60t55 90.5t16 114v807h370v-866z" />
    <glyph glyph-name="ij" unicode="&#x133;" horiz-adv-x="2216" 
d="M215 0v1374h371v-1374h-371zM2011 508q0 -137 -44.5 -236t-130 -163t-209.5 -94.5t-283 -30.5q-75 0 -154 7.5t-152 18.5t-134.5 23.5t-102.5 23.5v322q42 -17 92 -34.5t111.5 -31.5t136 -23t164.5 -9q97 0 161.5 21.5t103.5 60t55 90.5t16 114v807h370v-866z" />
    <glyph glyph-name="Jcircumflex" unicode="&#x134;" horiz-adv-x="1415" 
d="M1210 508q0 -137 -44.5 -236t-130 -163t-209.5 -94.5t-283 -30.5q-75 0 -154 7.5t-152 18.5t-134.5 23.5t-102.5 23.5v322q42 -17 92 -34.5t111.5 -31.5t136 -23t164.5 -9q97 0 161.5 21.5t103.5 60t55 90.5t16 114v807h370v-866zM1383 1501l-348 180l-348 -180l-121 188
l469 266l469 -266z" />
    <glyph glyph-name="jcircumflex" unicode="&#x135;" horiz-adv-x="1415" 
d="M1210 508q0 -137 -44.5 -236t-130 -163t-209.5 -94.5t-283 -30.5q-75 0 -154 7.5t-152 18.5t-134.5 23.5t-102.5 23.5v322q42 -17 92 -34.5t111.5 -31.5t136 -23t164.5 -9q97 0 161.5 21.5t103.5 60t55 90.5t16 114v807h370v-866zM1374 1501l-348 180l-348 -180l-121 188
l469 266l469 -266z" />
    <glyph glyph-name="Kcommaaccent" unicode="&#x136;" horiz-adv-x="1907" 
d="M588 850l760 524h497l-925 -659l987 -715h-541l-778 571v-571h-373v1374h373v-524zM1008 -504h-244l50 381h327z" />
    <glyph glyph-name="kcommaaccent" unicode="&#x137;" horiz-adv-x="2001" 
d="M1520 0q-10 112 -54 196.5t-110.5 145.5t-150 101t-171.5 63.5t-175.5 33t-162.5 9.5h-110v-549h-371v1374h371v-530h76q77 0 161 12t166.5 38t158.5 67t136 100t100 136.5t50 176.5h378q-10 -109 -43.5 -197t-83 -157.5t-110.5 -121.5t-125 -89.5t-127.5 -62
t-118.5 -37.5q70 -11 145.5 -34.5t149.5 -62t141.5 -94.5t121.5 -131t90 -171t46 -216h-378zM1055 -504h-244l50 381h327z" />
    <glyph glyph-name="kgreenlandic" unicode="&#x138;" horiz-adv-x="1776" 
d="M1415 0q-10 112 -54 196.5t-110.5 145.5t-150 101t-171.5 63.5t-175.5 33t-162.5 9.5h-110v-549h-371v1374h371v-530h76q77 0 161 12t166.5 38t158.5 67t136 100t100 136.5t50 176.5h378q-10 -109 -43.5 -197t-83 -157.5t-110.5 -121.5t-125 -89.5t-127.5 -62
t-118.5 -37.5q70 -11 145.5 -34.5t149.5 -62t141.5 -94.5t121.5 -131t90 -171t46 -216h-378z" />
    <glyph glyph-name="Lacute" unicode="&#x139;" horiz-adv-x="1671" 
d="M215 0v1374h371v-1073h1003v-301h-1374zM804 1687l-522 -186l-90 170l481 280z" />
    <glyph glyph-name="lacute" unicode="&#x13a;" horiz-adv-x="1675" 
d="M586 588q0 -86 16 -140.5t52 -86.5t93.5 -44t141.5 -12h704v-305h-780q-162 0 -275.5 26.5t-185.5 82t-104.5 140.5t-32.5 202v923h371v-786zM804 1687l-522 -186l-90 170l481 280z" />
    <glyph glyph-name="Lcommaaccent" unicode="&#x13b;" horiz-adv-x="1671" 
d="M215 0v1374h371v-1073h1003v-301h-1374zM932 -504h-244l50 381h327z" />
    <glyph glyph-name="lcommaaccent" unicode="&#x13c;" horiz-adv-x="1675" 
d="M586 588q0 -86 16 -140.5t52 -86.5t93.5 -44t141.5 -12h704v-305h-780q-162 0 -275.5 26.5t-185.5 82t-104.5 140.5t-32.5 202v923h371v-786zM954 -504h-244l50 381h327z" />
    <glyph glyph-name="Lcaron" unicode="&#x13d;" horiz-adv-x="1671" 
d="M215 0v1374h371v-1073h1003v-301h-1374zM1253 870h-264l92 504h328z" />
    <glyph glyph-name="lcaron" unicode="&#x13e;" horiz-adv-x="1675" 
d="M586 588q0 -86 16 -140.5t52 -86.5t93.5 -44t141.5 -12h704v-305h-780q-162 0 -275.5 26.5t-185.5 82t-104.5 140.5t-32.5 202v923h371v-786zM1255 870h-264l92 504h328z" />
    <glyph glyph-name="Ldot" unicode="&#x13f;" horiz-adv-x="1671" 
d="M215 0v1374h371v-1073h1003v-301h-1374zM1069 567v360h379v-360h-379z" />
    <glyph glyph-name="ldotaccent" unicode="&#x140;" horiz-adv-x="1675" 
d="M586 588q0 -86 16 -140.5t52 -86.5t93.5 -44t141.5 -12h704v-305h-780q-162 0 -275.5 26.5t-185.5 82t-104.5 140.5t-32.5 202v923h371v-786zM1069 567v360h379v-360h-379z" />
    <glyph glyph-name="Lslash" unicode="&#x141;" horiz-adv-x="1671" 
d="M215 0v522l-152 -57l-90 221l242 94v594h371v-450l231 90l90 -221l-321 -125v-367h1003v-301h-1374z" />
    <glyph glyph-name="lslash" unicode="&#x142;" horiz-adv-x="1675" 
d="M586 924l231 90l90 -221l-321 -125v-80q0 -86 16 -140.5t52 -86.5t93.5 -44t141.5 -12h704v-305h-780q-162 0 -275.5 26.5t-185.5 82t-104.5 140.5t-32.5 202v71l-152 -57l-90 221l242 94v594h371v-450z" />
    <glyph glyph-name="Nacute" unicode="&#x143;" horiz-adv-x="2130" 
d="M1513 0l-927 944v-944h-371v1374h403l928 -948v948h369v-1374h-402zM1481 1687l-522 -186l-90 170l481 280z" />
    <glyph glyph-name="nacute" unicode="&#x144;" horiz-adv-x="2103" 
d="M1524 0v770q0 77 -13 139.5t-48.5 107t-99 69t-163.5 24.5q-76 0 -159.5 -20.5t-165.5 -54.5t-156.5 -79t-132.5 -94v-862h-371v1374h371v-188q70 40 149 79.5t168 71.5t189 52t211 20q139 0 248.5 -33.5t185.5 -95t116.5 -149t40.5 -195.5v-936h-370zM1526 1687
l-522 -186l-90 170l481 280z" />
    <glyph glyph-name="Ncommaaccent" unicode="&#x145;" horiz-adv-x="2130" 
d="M1513 0l-927 944v-944h-371v1374h403l928 -948v948h369v-1374h-402zM1141 -504h-244l50 381h327z" />
    <glyph glyph-name="ncommaaccent" unicode="&#x146;" horiz-adv-x="2103" 
d="M1524 0v770q0 77 -13 139.5t-48.5 107t-99 69t-163.5 24.5q-76 0 -159.5 -20.5t-165.5 -54.5t-156.5 -79t-132.5 -94v-862h-371v1374h371v-188q70 40 149 79.5t168 71.5t189 52t211 20q139 0 248.5 -33.5t185.5 -95t116.5 -149t40.5 -195.5v-936h-370zM1106 -504h-244
l50 381h327z" />
    <glyph glyph-name="Ncaron" unicode="&#x147;" horiz-adv-x="2130" 
d="M1513 0l-927 944v-944h-371v1374h403l928 -948v948h369v-1374h-402zM732 1955l348 -180l348 180l121 -188l-469 -266l-469 266z" />
    <glyph glyph-name="ncaron" unicode="&#x148;" horiz-adv-x="2103" 
d="M1524 0v770q0 77 -13 139.5t-48.5 107t-99 69t-163.5 24.5q-76 0 -159.5 -20.5t-165.5 -54.5t-156.5 -79t-132.5 -94v-862h-371v1374h371v-188q70 40 149 79.5t168 71.5t189 52t211 20q139 0 248.5 -33.5t185.5 -95t116.5 -149t40.5 -195.5v-936h-370zM777 1955l348 -180
l348 180l121 -188l-469 -266l-469 266z" />
    <glyph glyph-name="napostrophe" unicode="&#x149;" horiz-adv-x="2392" 
d="M265 870h-264l92 504h328zM1813 0v770q0 77 -13 139.5t-48.5 107t-99 69t-163.5 24.5q-76 0 -159.5 -20.5t-165.5 -54.5t-156.5 -79t-132.5 -94v-862h-371v1374h371v-188q70 40 149 79.5t168 71.5t189 52t211 20q139 0 248.5 -33.5t185.5 -95t116.5 -149t40.5 -195.5
v-936h-370z" />
    <glyph glyph-name="Eng" unicode="&#x14a;" horiz-adv-x="2124" 
d="M1286 270q45 0 80.5 6t63.5 17l-844 651v-944h-371v1374h403l928 -719v719h369v-876q0 -149 -52.5 -250t-139.5 -162t-199.5 -87t-233.5 -26q-75 0 -141 8t-123.5 19.5t-106.5 24.5t-90 24v313q42 -16 90 -32.5t104 -29.5t121.5 -21.5t141.5 -8.5z" />
    <glyph glyph-name="eng" unicode="&#x14b;" horiz-adv-x="2103" 
d="M1524 770q0 77 -13 139.5t-48.5 107t-99 69t-163.5 24.5q-76 0 -159.5 -20.5t-165.5 -54.5t-156.5 -79t-132.5 -94v-862h-371v1374h371v-188q70 40 149 79.5t168 71.5t189 52t211 20q139 0 248.5 -33.5t185.5 -95t116.5 -149t40.5 -195.5v-451q0 -114 -37.5 -206
t-112.5 -156.5t-189 -99.5t-267 -35q-65 0 -130 7t-125 17t-112.5 22t-93.5 23v318q42 -16 89 -32t101.5 -29t118 -21t138.5 -8q77 0 125.5 22.5t76.5 60.5t38 88t10 105v209z" />
    <glyph glyph-name="Omacron" unicode="&#x14c;" 
d="M1993 686q0 -177 -65 -312.5t-186 -226.5t-293.5 -137.5t-387.5 -46.5t-388.5 46.5t-295.5 137.5t-188 226.5t-66 312.5t66 312.5t188 226.5t295.5 137.5t388.5 46.5t387.5 -46.5t293.5 -137.5t186 -226.5t65 -312.5zM1618 686q0 77 -24.5 153.5t-87 137.5t-170.5 99
t-275 38q-112 0 -197 -17.5t-147 -48.5t-104 -72.5t-67 -89t-35.5 -99t-10.5 -101.5q0 -51 10.5 -103t35.5 -99.5t67 -88.5t104 -71.5t147 -48t197 -17.5q167 0 275 38t170.5 99t87 137.5t24.5 153.5zM725 1542v256h672v-256h-672z" />
    <glyph glyph-name="omacron" unicode="&#x14d;" 
d="M1993 686q0 -177 -65 -312.5t-186 -226.5t-293.5 -137.5t-387.5 -46.5t-388.5 46.5t-295.5 137.5t-188 226.5t-66 312.5t66 312.5t188 226.5t295.5 137.5t388.5 46.5t387.5 -46.5t293.5 -137.5t186 -226.5t65 -312.5zM1618 686q0 77 -24.5 153.5t-87 137.5t-170.5 99
t-275 38q-112 0 -197 -17.5t-147 -48.5t-104 -72.5t-67 -89t-35.5 -99t-10.5 -101.5q0 -51 10.5 -103t35.5 -99.5t67 -88.5t104 -71.5t147 -48t197 -17.5q167 0 275 38t170.5 99t87 137.5t24.5 153.5zM725 1542v256h672v-256h-672z" />
    <glyph glyph-name="Obreve" unicode="&#x14e;" 
d="M1993 686q0 -177 -65 -312.5t-186 -226.5t-293.5 -137.5t-387.5 -46.5t-388.5 46.5t-295.5 137.5t-188 226.5t-66 312.5t66 312.5t188 226.5t295.5 137.5t388.5 46.5t387.5 -46.5t293.5 -137.5t186 -226.5t65 -312.5zM1618 686q0 77 -24.5 153.5t-87 137.5t-170.5 99
t-275 38q-112 0 -197 -17.5t-147 -48.5t-104 -72.5t-67 -89t-35.5 -99t-10.5 -101.5q0 -51 10.5 -103t35.5 -99.5t67 -88.5t104 -71.5t147 -48t197 -17.5q167 0 275 38t170.5 99t87 137.5t24.5 153.5zM1468 1914q-1 -25 -8 -64t-24 -83.5t-45.5 -89.5t-73.5 -81.5
t-108 -59.5t-148 -23q-86 0 -149 23t-107.5 59.5t-73.5 81.5t-45.5 89.5t-24 83.5t-8.5 64h189q6 -18 18.5 -43t37 -48t64 -39.5t99.5 -16.5q59 0 98.5 16.5t64.5 39.5t38.5 48t19.5 43h186v0z" />
    <glyph glyph-name="obreve" unicode="&#x14f;" 
d="M1993 686q0 -177 -65 -312.5t-186 -226.5t-293.5 -137.5t-387.5 -46.5t-388.5 46.5t-295.5 137.5t-188 226.5t-66 312.5t66 312.5t188 226.5t295.5 137.5t388.5 46.5t387.5 -46.5t293.5 -137.5t186 -226.5t65 -312.5zM1618 686q0 77 -24.5 153.5t-87 137.5t-170.5 99
t-275 38q-112 0 -197 -17.5t-147 -48.5t-104 -72.5t-67 -89t-35.5 -99t-10.5 -101.5q0 -51 10.5 -103t35.5 -99.5t67 -88.5t104 -71.5t147 -48t197 -17.5q167 0 275 38t170.5 99t87 137.5t24.5 153.5zM1468 1914q-1 -25 -8 -64t-24 -83.5t-45.5 -89.5t-73.5 -81.5
t-108 -59.5t-148 -23q-86 0 -149 23t-107.5 59.5t-73.5 81.5t-45.5 89.5t-24 83.5t-8.5 64h189q6 -18 18.5 -43t37 -48t64 -39.5t99.5 -16.5q59 0 98.5 16.5t64.5 39.5t38.5 48t19.5 43h186v0z" />
    <glyph glyph-name="Ohungarumlaut" unicode="&#x150;" 
d="M1993 686q0 -177 -65 -312.5t-186 -226.5t-293.5 -137.5t-387.5 -46.5t-388.5 46.5t-295.5 137.5t-188 226.5t-66 312.5t66 312.5t188 226.5t295.5 137.5t388.5 46.5t387.5 -46.5t293.5 -137.5t186 -226.5t65 -312.5zM1618 686q0 77 -24.5 153.5t-87 137.5t-170.5 99
t-275 38q-112 0 -197 -17.5t-147 -48.5t-104 -72.5t-67 -89t-35.5 -99t-10.5 -101.5q0 -51 10.5 -103t35.5 -99.5t67 -88.5t104 -71.5t147 -48t197 -17.5q167 0 275 38t170.5 99t87 137.5t24.5 153.5zM1169 1687l-379 -186l-75 112l321 287zM1599 1687l-379 -186l-71 112
l317 287z" />
    <glyph glyph-name="ohungarumlaut" unicode="&#x151;" 
d="M1993 686q0 -177 -65 -312.5t-186 -226.5t-293.5 -137.5t-387.5 -46.5t-388.5 46.5t-295.5 137.5t-188 226.5t-66 312.5t66 312.5t188 226.5t295.5 137.5t388.5 46.5t387.5 -46.5t293.5 -137.5t186 -226.5t65 -312.5zM1618 686q0 77 -24.5 153.5t-87 137.5t-170.5 99
t-275 38q-112 0 -197 -17.5t-147 -48.5t-104 -72.5t-67 -89t-35.5 -99t-10.5 -101.5q0 -51 10.5 -103t35.5 -99.5t67 -88.5t104 -71.5t147 -48t197 -17.5q167 0 275 38t170.5 99t87 137.5t24.5 153.5zM1169 1687l-379 -186l-75 112l321 287zM1599 1687l-379 -186l-71 112
l317 287z" />
    <glyph glyph-name="OE" unicode="&#x152;" horiz-adv-x="3047" 
d="M1497 0q-53 -5 -104.5 -11.5t-105 -12t-110 -9.5t-118.5 -4q-123 0 -240.5 18.5t-221.5 57t-191 97t-150 139t-98 183t-35 228.5q0 125 37 227.5t101.5 183t153.5 139.5t193 97.5t219 57t232 18.5q62 0 118.5 -3.5t110 -8.5t105 -11t104.5 -12h1393v-293h-1010v-227h959
v-293h-959v-268h1024v-293h-1407zM1059 258q125 0 236 16t202 37v750q-91 22 -202 37.5t-236 15.5q-106 0 -207 -24.5t-179.5 -76t-126.5 -132.5t-48 -195q0 -115 45 -196.5t122 -133t178.5 -75t215.5 -23.5z" />
    <glyph glyph-name="oe" unicode="&#x153;" horiz-adv-x="3478" 
d="M3242 68q-169 -56 -337 -80.5t-345 -24.5q-263 0 -451.5 64t-304.5 188q-115 -125 -302 -188.5t-441 -63.5q-215 0 -388.5 46.5t-295.5 137.5t-188 226.5t-66 312.5t66 312.5t188 226.5t295.5 137.5t388.5 46.5q260 0 450 -66.5t306 -197.5q56 61 128.5 109.5t160 83
t189.5 53t216 18.5q187 0 342.5 -50.5t267 -149.5t173 -244t61.5 -334v-92h-1354q18 -65 59.5 -119t112.5 -92t174.5 -59t247.5 -21q102 0 200 12.5t183 33t153.5 45.5t110.5 50v-321zM1618 686q0 77 -24.5 153.5t-87 137.5t-170.5 99t-275 38q-112 0 -197 -17.5t-147 -48.5
t-104 -72.5t-67 -89t-35.5 -99t-10.5 -101.5q0 -51 10.5 -103t35.5 -99.5t67 -88.5t104 -71.5t147 -48t197 -17.5q167 0 275 38t170.5 99t87 137.5t24.5 153.5zM2986 811q-5 51 -30.5 105.5t-80.5 98.5t-144 72.5t-222 28.5q-125 0 -216 -31t-152.5 -77t-95.5 -99t-44 -98
h985z" />
    <glyph glyph-name="Racute" unicode="&#x154;" horiz-adv-x="1892" 
d="M586 0h-371v1374h930q150 0 254.5 -31t170 -88t95 -137.5t29.5 -179.5q0 -87 -24.5 -152t-66 -111.5t-96.5 -78.5t-116 -53l450 -543h-434l-416 506h-405v-506zM1319 940q0 40 -10.5 68t-36.5 45.5t-69.5 25.5t-108.5 8h-508v-294h508q65 0 108.5 8t69.5 25.5t36.5 45.5
t10.5 68zM1286 1687l-522 -186l-90 170l481 280z" />
    <glyph glyph-name="racute" unicode="&#x155;" horiz-adv-x="1499" 
d="M1479 1063q-15 5 -43.5 13.5t-66.5 17t-83.5 14.5t-93.5 6q-100 0 -186.5 -24.5t-161.5 -65t-139.5 -92t-118.5 -105.5v-827h-371v1374h371v-223q67 50 137.5 96.5t147 82.5t161.5 57.5t180 21.5q36 0 73.5 -3.5t73 -8.5t66.5 -11t54 -12v-311v0zM1307 1687l-522 -186
l-90 170l481 280z" />
    <glyph glyph-name="Rcommaaccent" unicode="&#x156;" horiz-adv-x="1892" 
d="M586 0h-371v1374h930q150 0 254.5 -31t170 -88t95 -137.5t29.5 -179.5q0 -87 -24.5 -152t-66 -111.5t-96.5 -78.5t-116 -53l450 -543h-434l-416 506h-405v-506zM1319 940q0 40 -10.5 68t-36.5 45.5t-69.5 25.5t-108.5 8h-508v-294h508q65 0 108.5 8t69.5 25.5t36.5 45.5
t10.5 68zM1022 -504h-244l50 381h327z" />
    <glyph glyph-name="rcommaaccent" unicode="&#x157;" horiz-adv-x="1499" 
d="M1479 1063q-15 5 -43.5 13.5t-66.5 17t-83.5 14.5t-93.5 6q-100 0 -186.5 -24.5t-161.5 -65t-139.5 -92t-118.5 -105.5v-827h-371v1374h371v-223q67 50 137.5 96.5t147 82.5t161.5 57.5t180 21.5q36 0 73.5 -3.5t73 -8.5t66.5 -11t54 -12v-311v0zM429 -504h-244l50 381
h327z" />
    <glyph glyph-name="Rcaron" unicode="&#x158;" horiz-adv-x="1892" 
d="M586 0h-371v1374h930q150 0 254.5 -31t170 -88t95 -137.5t29.5 -179.5q0 -87 -24.5 -152t-66 -111.5t-96.5 -78.5t-116 -53l450 -543h-434l-416 506h-405v-506zM1319 940q0 40 -10.5 68t-36.5 45.5t-69.5 25.5t-108.5 8h-508v-294h508q65 0 108.5 8t69.5 25.5t36.5 45.5
t10.5 68zM537 1955l348 -180l348 180l121 -188l-469 -266l-469 266z" />
    <glyph glyph-name="rcaron" unicode="&#x159;" horiz-adv-x="1499" 
d="M1479 1063q-15 5 -43.5 13.5t-66.5 17t-83.5 14.5t-93.5 6q-100 0 -186.5 -24.5t-161.5 -65t-139.5 -92t-118.5 -105.5v-827h-371v1374h371v-223q67 50 137.5 96.5t147 82.5t161.5 57.5t180 21.5q36 0 73.5 -3.5t73 -8.5t66.5 -11t54 -12v-311v0zM558 1955l348 -180
l348 180l121 -188l-469 -266l-469 266z" />
    <glyph glyph-name="Sacute" unicode="&#x15a;" horiz-adv-x="1731" 
d="M1481 987q-39 19 -103 43t-145 45.5t-176 36t-195 14.5q-80 0 -136.5 -5t-95 -13t-61 -18.5t-34.5 -21.5t-15.5 -22t-3.5 -20q0 -30 30 -52.5t82 -40t121 -33t146.5 -32t160 -36t160 -45.5t146.5 -60.5t121 -80.5t82 -106t30 -137q0 -99 -35 -170t-93.5 -120
t-135.5 -78.5t-161.5 -45.5t-171 -21t-164.5 -5q-204 0 -377.5 33.5t-306.5 83.5v328q137 -76 312.5 -119t375.5 -43q118 0 192.5 12.5t116.5 32t57 42.5t15 44q0 33 -30 57.5t-82 43t-121 34t-146.5 31t-159.5 33.5t-159.5 42.5t-146.5 57t-121 77t-82 103t-30 135.5
q0 91 32 157t86.5 112.5t126 75.5t150.5 45t160 22t154 6q80 0 164.5 -8t166.5 -22.5t158.5 -33.5t141.5 -40v-318zM1251 1687l-522 -186l-90 170l481 280z" />
    <glyph glyph-name="sacute" unicode="&#x15b;" horiz-adv-x="1731" 
d="M1481 987q-39 19 -103 43t-145 45.5t-176 36t-195 14.5q-80 0 -136.5 -5t-95 -13t-61 -18.5t-34.5 -21.5t-15.5 -22t-3.5 -20q0 -30 30 -52.5t82 -40t121 -33t146.5 -32t160 -36t160 -45.5t146.5 -60.5t121 -80.5t82 -106t30 -137q0 -99 -35 -170t-93.5 -120
t-135.5 -78.5t-161.5 -45.5t-171 -21t-164.5 -5q-204 0 -377.5 33.5t-306.5 83.5v328q137 -76 312.5 -119t375.5 -43q118 0 192.5 12.5t116.5 32t57 42.5t15 44q0 33 -30 57.5t-82 43t-121 34t-146.5 31t-159.5 33.5t-159.5 42.5t-146.5 57t-121 77t-82 103t-30 135.5
q0 91 32 157t86.5 112.5t126 75.5t150.5 45t160 22t154 6q80 0 164.5 -8t166.5 -22.5t158.5 -33.5t141.5 -40v-318zM1251 1687l-522 -186l-90 170l481 280z" />
    <glyph glyph-name="Scircumflex" unicode="&#x15c;" horiz-adv-x="1731" 
d="M1481 987q-39 19 -103 43t-145 45.5t-176 36t-195 14.5q-80 0 -136.5 -5t-95 -13t-61 -18.5t-34.5 -21.5t-15.5 -22t-3.5 -20q0 -30 30 -52.5t82 -40t121 -33t146.5 -32t160 -36t160 -45.5t146.5 -60.5t121 -80.5t82 -106t30 -137q0 -99 -35 -170t-93.5 -120
t-135.5 -78.5t-161.5 -45.5t-171 -21t-164.5 -5q-204 0 -377.5 33.5t-306.5 83.5v328q137 -76 312.5 -119t375.5 -43q118 0 192.5 12.5t116.5 32t57 42.5t15 44q0 33 -30 57.5t-82 43t-121 34t-146.5 31t-159.5 33.5t-159.5 42.5t-146.5 57t-121 77t-82 103t-30 135.5
q0 91 32 157t86.5 112.5t126 75.5t150.5 45t160 22t154 6q80 0 164.5 -8t166.5 -22.5t158.5 -33.5t141.5 -40v-318zM1198 1501l-348 180l-348 -180l-121 188l469 266l469 -266z" />
    <glyph glyph-name="scircumflex" unicode="&#x15d;" horiz-adv-x="1731" 
d="M1481 987q-39 19 -103 43t-145 45.5t-176 36t-195 14.5q-80 0 -136.5 -5t-95 -13t-61 -18.5t-34.5 -21.5t-15.5 -22t-3.5 -20q0 -30 30 -52.5t82 -40t121 -33t146.5 -32t160 -36t160 -45.5t146.5 -60.5t121 -80.5t82 -106t30 -137q0 -99 -35 -170t-93.5 -120
t-135.5 -78.5t-161.5 -45.5t-171 -21t-164.5 -5q-204 0 -377.5 33.5t-306.5 83.5v328q137 -76 312.5 -119t375.5 -43q118 0 192.5 12.5t116.5 32t57 42.5t15 44q0 33 -30 57.5t-82 43t-121 34t-146.5 31t-159.5 33.5t-159.5 42.5t-146.5 57t-121 77t-82 103t-30 135.5
q0 91 32 157t86.5 112.5t126 75.5t150.5 45t160 22t154 6q80 0 164.5 -8t166.5 -22.5t158.5 -33.5t141.5 -40v-318zM1198 1501l-348 180l-348 -180l-121 188l469 266l469 -266z" />
    <glyph glyph-name="Scedilla" unicode="&#x15e;" horiz-adv-x="1731" 
d="M1481 987q-39 19 -103 43t-145 45.5t-176 36t-195 14.5q-80 0 -136.5 -5t-95 -13t-61 -18.5t-34.5 -21.5t-15.5 -22t-3.5 -20q0 -30 30 -52.5t82 -40t121 -33t146.5 -32t160 -36t160 -45.5t146.5 -60.5t121 -80.5t82 -106t30 -137q0 -99 -35 -170t-93.5 -120
t-135.5 -78.5t-161.5 -45.5t-171 -21t-164.5 -5q-204 0 -377.5 33.5t-306.5 83.5v328q137 -76 312.5 -119t375.5 -43q118 0 192.5 12.5t116.5 32t57 42.5t15 44q0 33 -30 57.5t-82 43t-121 34t-146.5 31t-159.5 33.5t-159.5 42.5t-146.5 57t-121 77t-82 103t-30 135.5
q0 91 32 157t86.5 112.5t126 75.5t150.5 45t160 22t154 6q80 0 164.5 -8t166.5 -22.5t158.5 -33.5t141.5 -40v-318zM910 -78q43 0 92 -7.5t89.5 -29.5t67.5 -61t27 -103t-31.5 -107t-82.5 -69.5t-114 -37.5t-126 -11q-56 0 -100.5 3t-79 7t-61.5 8.5t-48 8.5v194
q45 -20 103 -34.5t120 -14.5q31 0 58.5 3.5t47 10.5t31 18t11.5 26q0 18 -13.5 28.5t-33.5 16.5t-42 8t-40 2q-26 0 -54 -3t-51 -9l96 251h172z" />
    <glyph glyph-name="scedilla" unicode="&#x15f;" horiz-adv-x="1731" 
d="M1481 987q-39 19 -103 43t-145 45.5t-176 36t-195 14.5q-80 0 -136.5 -5t-95 -13t-61 -18.5t-34.5 -21.5t-15.5 -22t-3.5 -20q0 -30 30 -52.5t82 -40t121 -33t146.5 -32t160 -36t160 -45.5t146.5 -60.5t121 -80.5t82 -106t30 -137q0 -99 -35 -170t-93.5 -120
t-135.5 -78.5t-161.5 -45.5t-171 -21t-164.5 -5q-204 0 -377.5 33.5t-306.5 83.5v328q137 -76 312.5 -119t375.5 -43q118 0 192.5 12.5t116.5 32t57 42.5t15 44q0 33 -30 57.5t-82 43t-121 34t-146.5 31t-159.5 33.5t-159.5 42.5t-146.5 57t-121 77t-82 103t-30 135.5
q0 91 32 157t86.5 112.5t126 75.5t150.5 45t160 22t154 6q80 0 164.5 -8t166.5 -22.5t158.5 -33.5t141.5 -40v-318zM910 -78q43 0 92 -7.5t89.5 -29.5t67.5 -61t27 -103t-31.5 -107t-82.5 -69.5t-114 -37.5t-126 -11q-56 0 -100.5 3t-79 7t-61.5 8.5t-48 8.5v194
q45 -20 103 -34.5t120 -14.5q31 0 58.5 3.5t47 10.5t31 18t11.5 26q0 18 -13.5 28.5t-33.5 16.5t-42 8t-40 2q-26 0 -54 -3t-51 -9l96 251h172z" />
    <glyph glyph-name="Scaron" unicode="&#x160;" horiz-adv-x="1731" 
d="M1481 987q-39 19 -103 43t-145 45.5t-176 36t-195 14.5q-80 0 -136.5 -5t-95 -13t-61 -18.5t-34.5 -21.5t-15.5 -22t-3.5 -20q0 -30 30 -52.5t82 -40t121 -33t146.5 -32t160 -36t160 -45.5t146.5 -60.5t121 -80.5t82 -106t30 -137q0 -99 -35 -170t-93.5 -120
t-135.5 -78.5t-161.5 -45.5t-171 -21t-164.5 -5q-204 0 -377.5 33.5t-306.5 83.5v328q137 -76 312.5 -119t375.5 -43q118 0 192.5 12.5t116.5 32t57 42.5t15 44q0 33 -30 57.5t-82 43t-121 34t-146.5 31t-159.5 33.5t-159.5 42.5t-146.5 57t-121 77t-82 103t-30 135.5
q0 91 32 157t86.5 112.5t126 75.5t150.5 45t160 22t154 6q80 0 164.5 -8t166.5 -22.5t158.5 -33.5t141.5 -40v-318zM502 1955l348 -180l348 180l121 -188l-469 -266l-469 266z" />
    <glyph glyph-name="scaron" unicode="&#x161;" horiz-adv-x="1731" 
d="M1481 987q-39 19 -103 43t-145 45.5t-176 36t-195 14.5q-80 0 -136.5 -5t-95 -13t-61 -18.5t-34.5 -21.5t-15.5 -22t-3.5 -20q0 -30 30 -52.5t82 -40t121 -33t146.5 -32t160 -36t160 -45.5t146.5 -60.5t121 -80.5t82 -106t30 -137q0 -99 -35 -170t-93.5 -120
t-135.5 -78.5t-161.5 -45.5t-171 -21t-164.5 -5q-204 0 -377.5 33.5t-306.5 83.5v328q137 -76 312.5 -119t375.5 -43q118 0 192.5 12.5t116.5 32t57 42.5t15 44q0 33 -30 57.5t-82 43t-121 34t-146.5 31t-159.5 33.5t-159.5 42.5t-146.5 57t-121 77t-82 103t-30 135.5
q0 91 32 157t86.5 112.5t126 75.5t150.5 45t160 22t154 6q80 0 164.5 -8t166.5 -22.5t158.5 -33.5t141.5 -40v-318zM502 1955l348 -180l348 180l121 -188l-469 -266l-469 266z" />
    <glyph glyph-name="Tcommaaccent" unicode="&#x162;" horiz-adv-x="1599" 
d="M985 1075v-1075h-371v1075h-583v299h1538v-299h-584zM833 -504h-244l50 381h327z" />
    <glyph glyph-name="tcommaaccent" unicode="&#x163;" horiz-adv-x="1599" 
d="M985 1075v-1075h-371v1075h-583v299h1538v-299h-584zM833 -504h-244l50 381h327z" />
    <glyph glyph-name="Tcaron" unicode="&#x164;" horiz-adv-x="1599" 
d="M985 1075v-1075h-371v1075h-583v299h1538v-299h-584zM451 1955l348 -180l348 180l121 -188l-469 -266l-469 266z" />
    <glyph glyph-name="tcaron" unicode="&#x165;" horiz-adv-x="1599" 
d="M985 1075v-1075h-371v1075h-583v299h1538v-299h-584zM451 1955l348 -180l348 180l121 -188l-469 -266l-469 266z" />
    <glyph glyph-name="Tbar" unicode="&#x166;" horiz-adv-x="1599" 
d="M985 1075v-231h432v-215h-432v-629h-371v629h-432v215h432v231h-583v299h1538v-299h-584z" />
    <glyph glyph-name="tbar" unicode="&#x167;" horiz-adv-x="1599" 
d="M985 1075v-231h432v-215h-432v-629h-371v629h-432v215h432v231h-583v299h1538v-299h-584z" />
    <glyph glyph-name="Utilde" unicode="&#x168;" horiz-adv-x="2042" 
d="M1837 463q0 -103 -51 -194t-153 -159t-254.5 -107.5t-356.5 -39.5t-357.5 39.5t-255.5 107.5t-153 159t-51 194v911h370v-778q0 -69 17.5 -130.5t66 -107.5t136 -73t227.5 -27q139 0 226 27t135.5 73t65.5 107.5t17 130.5v778h371v-911v0zM1417 1873q0 -96 -17 -165
t-49.5 -113t-79 -65t-104.5 -21q-54 0 -91 19t-66 41.5t-55 41.5t-58 19q-30 0 -47.5 -15t-26.5 -35.5t-12 -40.5t-4 -30h-177q0 85 17.5 152.5t50.5 114.5t79.5 72t104.5 25q47 0 81.5 -19t64.5 -41.5t58.5 -41t64.5 -18.5q30 0 47.5 15t26.5 34.5t12 39.5t4 31h176v0z" />
    <glyph glyph-name="utilde" unicode="&#x169;" horiz-adv-x="2103" 
d="M580 1374v-774q0 -77 13 -139.5t48 -107t98 -69t164 -24.5q76 0 159.5 21t165.5 56t156.5 80.5t133.5 94.5v862h370v-1374h-370v188q-70 -40 -149 -80.5t-168 -73t-189 -53t-211 -20.5q-139 0 -249 33.5t-186 95t-116.5 149t-40.5 195.5v940h371zM1446 1873
q0 -96 -17 -165t-49.5 -113t-79 -65t-104.5 -21q-54 0 -91 19t-66 41.5t-55 41.5t-58 19q-30 0 -47.5 -15t-26.5 -35.5t-12 -40.5t-4 -30h-177q0 85 17.5 152.5t50.5 114.5t79.5 72t104.5 25q47 0 81.5 -19t64.5 -41.5t58.5 -41t64.5 -18.5q30 0 47.5 15t26.5 34.5t12 39.5
t4 31h176v0z" />
    <glyph glyph-name="Umacron" unicode="&#x16a;" horiz-adv-x="2042" 
d="M1837 463q0 -103 -51 -194t-153 -159t-254.5 -107.5t-356.5 -39.5t-357.5 39.5t-255.5 107.5t-153 159t-51 194v911h370v-778q0 -69 17.5 -130.5t66 -107.5t136 -73t227.5 -27q139 0 226 27t135.5 73t65.5 107.5t17 130.5v778h371v-911v0zM686 1542v256h672v-256h-672z
" />
    <glyph glyph-name="umacron" unicode="&#x16b;" horiz-adv-x="2103" 
d="M580 1374v-774q0 -77 13 -139.5t48 -107t98 -69t164 -24.5q76 0 159.5 21t165.5 56t156.5 80.5t133.5 94.5v862h370v-1374h-370v188q-70 -40 -149 -80.5t-168 -73t-189 -53t-211 -20.5q-139 0 -249 33.5t-186 95t-116.5 149t-40.5 195.5v940h371zM715 1542v256h672v-256
h-672z" />
    <glyph glyph-name="Ubreve" unicode="&#x16c;" horiz-adv-x="2042" 
d="M1837 463q0 -103 -51 -194t-153 -159t-254.5 -107.5t-356.5 -39.5t-357.5 39.5t-255.5 107.5t-153 159t-51 194v911h370v-778q0 -69 17.5 -130.5t66 -107.5t136 -73t227.5 -27q139 0 226 27t135.5 73t65.5 107.5t17 130.5v778h371v-911v0zM1429 1914q-1 -25 -8 -64
t-24 -83.5t-45.5 -89.5t-73.5 -81.5t-108 -59.5t-148 -23q-86 0 -149 23t-107.5 59.5t-73.5 81.5t-45.5 89.5t-24 83.5t-8.5 64h189q6 -18 18.5 -43t37 -48t64 -39.5t99.5 -16.5q59 0 98.5 16.5t64.5 39.5t38.5 48t19.5 43h186v0z" />
    <glyph glyph-name="ubreve" unicode="&#x16d;" horiz-adv-x="2103" 
d="M580 1374v-774q0 -77 13 -139.5t48 -107t98 -69t164 -24.5q76 0 159.5 21t165.5 56t156.5 80.5t133.5 94.5v862h370v-1374h-370v188q-70 -40 -149 -80.5t-168 -73t-189 -53t-211 -20.5q-139 0 -249 33.5t-186 95t-116.5 149t-40.5 195.5v940h371zM1458 1914
q-1 -25 -8 -64t-24 -83.5t-45.5 -89.5t-73.5 -81.5t-108 -59.5t-148 -23q-86 0 -149 23t-107.5 59.5t-73.5 81.5t-45.5 89.5t-24 83.5t-8.5 64h189q6 -18 18.5 -43t37 -48t64 -39.5t99.5 -16.5q59 0 98.5 16.5t64.5 39.5t38.5 48t19.5 43h186v0z" />
    <glyph glyph-name="Uring" unicode="&#x16e;" horiz-adv-x="2042" 
d="M1837 463q0 -103 -51 -194t-153 -159t-254.5 -107.5t-356.5 -39.5t-357.5 39.5t-255.5 107.5t-153 159t-51 194v911h370v-778q0 -69 17.5 -130.5t66 -107.5t136 -73t227.5 -27q139 0 226 27t135.5 73t65.5 107.5t17 130.5v778h371v-911v0zM719 1716q0 49 19.5 92.5
t57.5 76t94.5 51.5t131.5 19q74 0 130.5 -19t95 -51.5t58 -76t19.5 -92.5t-19.5 -92.5t-58 -76.5t-95 -52t-130.5 -19q-75 0 -131.5 19t-94.5 52t-57.5 76.5t-19.5 92.5zM923 1716q0 -41 25.5 -69t73.5 -28t72 28t24 69q0 40 -24 68t-72 28t-73.5 -28t-25.5 -68z" />
    <glyph glyph-name="uring" unicode="&#x16f;" horiz-adv-x="2103" 
d="M580 1374v-774q0 -77 13 -139.5t48 -107t98 -69t164 -24.5q76 0 159.5 21t165.5 56t156.5 80.5t133.5 94.5v862h370v-1374h-370v188q-70 -40 -149 -80.5t-168 -73t-189 -53t-211 -20.5q-139 0 -249 33.5t-186 95t-116.5 149t-40.5 195.5v940h371zM748 1716
q0 49 19.5 92.5t57.5 76t94.5 51.5t131.5 19q74 0 130.5 -19t95 -51.5t58 -76t19.5 -92.5t-19.5 -92.5t-58 -76.5t-95 -52t-130.5 -19q-75 0 -131.5 19t-94.5 52t-57.5 76.5t-19.5 92.5zM952 1716q0 -41 25.5 -69t73.5 -28t72 28t24 69q0 40 -24 68t-72 28t-73.5 -28
t-25.5 -68z" />
    <glyph glyph-name="Uhungarumlaut" unicode="&#x170;" horiz-adv-x="2042" 
d="M1837 463q0 -103 -51 -194t-153 -159t-254.5 -107.5t-356.5 -39.5t-357.5 39.5t-255.5 107.5t-153 159t-51 194v911h370v-778q0 -69 17.5 -130.5t66 -107.5t136 -73t227.5 -27q139 0 226 27t135.5 73t65.5 107.5t17 130.5v778h371v-911v0zM1130 1687l-379 -186l-75 112
l321 287zM1560 1687l-379 -186l-71 112l317 287z" />
    <glyph glyph-name="uhungarumlaut" unicode="&#x171;" horiz-adv-x="2103" 
d="M580 1374v-774q0 -77 13 -139.5t48 -107t98 -69t164 -24.5q76 0 159.5 21t165.5 56t156.5 80.5t133.5 94.5v862h370v-1374h-370v188q-70 -40 -149 -80.5t-168 -73t-189 -53t-211 -20.5q-139 0 -249 33.5t-186 95t-116.5 149t-40.5 195.5v940h371zM1159 1687l-379 -186
l-75 112l321 287zM1589 1687l-379 -186l-71 112l317 287z" />
    <glyph glyph-name="Uogonek" unicode="&#x172;" horiz-adv-x="2042" 
d="M1837 463q0 -99 -47 -187t-141.5 -155t-236 -108.5t-329.5 -47.5q-38 -42 -60 -87t-22 -85q0 -42 29 -59t92 -17q28 0 62 6t67.5 14.5t63.5 18.5t51 19v-207q-21 -6 -53.5 -15t-76 -17t-96.5 -13.5t-114 -5.5q-60 0 -115 11t-96.5 36t-66.5 65t-25 99q0 25 9.5 56t27 63
t43.5 63.5t59 58.5q-164 15 -287.5 59t-205.5 110t-123 149.5t-41 175.5v911h370v-778q0 -69 17.5 -130.5t66 -107.5t136 -73t227.5 -27q139 0 226 27t135.5 73t65.5 107.5t17 130.5v778h371v-911v0z" />
    <glyph glyph-name="uogonek" unicode="&#x173;" horiz-adv-x="2103" 
d="M580 1374v-774q0 -77 13 -139.5t48 -107t98 -69t164 -24.5q76 0 159.5 21t165.5 56t156.5 80.5t133.5 94.5v862h370v-1374h-153q-56 -48 -88.5 -102.5t-32.5 -104.5q0 -42 29 -59t92 -17q28 0 62 6t67 14.5t63 18.5t51 19v-207q-21 -6 -53.5 -15t-76 -17t-96.5 -13.5
t-114 -5.5q-60 0 -114.5 11t-96.5 36t-67 65t-25 99q0 30 12.5 66t36.5 72.5t58 71.5t76 62v188q-70 -40 -149 -80.5t-168 -73t-189 -53t-211 -20.5q-139 0 -249 33.5t-186 95t-116.5 149t-40.5 195.5v940h371z" />
    <glyph glyph-name="Wcircumflex" unicode="&#x174;" horiz-adv-x="2687" 
d="M1550 1374l351 -954l380 954h385l-552 -1374h-412l-359 924l-358 -924h-412l-553 1374h386l372 -934l359 934h413zM1690 1501l-348 180l-348 -180l-121 188l469 266l469 -266z" />
    <glyph glyph-name="wcircumflex" unicode="&#x175;" horiz-adv-x="2687" 
d="M1550 1374l351 -954l380 954h385l-552 -1374h-412l-359 924l-358 -924h-412l-553 1374h386l372 -934l359 934h413zM1690 1501l-348 180l-348 -180l-121 188l469 266l469 -266z" />
    <glyph glyph-name="Ycircumflex" unicode="&#x176;" horiz-adv-x="1784" 
d="M1077 561v-561h-370v561l-666 813h416l436 -553l434 553h416zM1241 1501l-348 180l-348 -180l-121 188l469 266l469 -266z" />
    <glyph glyph-name="ycircumflex" unicode="&#x177;" horiz-adv-x="2062" 
d="M1847 528q0 -134 -66 -239t-187.5 -177.5t-294 -110.5t-386.5 -38q-94 0 -197.5 7.5t-202 21t-184.5 31t-145 38.5v326q64 -27 142.5 -51t170.5 -42.5t197.5 -29t223.5 -10.5q111 0 195.5 13t146.5 35t103 50.5t66 59t35.5 60.5t10.5 56v121q-102 -75 -243 -123.5
t-321 -48.5q-209 0 -348.5 40.5t-223.5 117t-119.5 186.5t-35.5 248v305h373v-268q0 -81 21.5 -144t68 -105.5t120.5 -64.5t179 -22q89 0 168.5 22t146.5 58t121 82t93 94v348h372v-846zM1362 1501l-348 180l-348 -180l-121 188l469 266l469 -266z" />
    <glyph glyph-name="Ydieresis" unicode="&#x178;" horiz-adv-x="1784" 
d="M1077 561v-561h-370v561l-666 813h416l436 -553l434 553h416zM506 1521v311h311v-311h-311zM968 1521v311h312v-311h-312z" />
    <glyph glyph-name="Zacute" unicode="&#x179;" horiz-adv-x="1714" 
d="M135 0v287l903 786h-876v301h1409v-252l-944 -821h964v-301h-1456zM1262 1687l-522 -186l-90 170l481 280z" />
    <glyph glyph-name="zacute" unicode="&#x17a;" horiz-adv-x="1714" 
d="M135 0v287l903 786h-876v301h1409v-252l-944 -821h964v-301h-1456zM1268 1687l-522 -186l-90 170l481 280z" />
    <glyph glyph-name="Zdotaccent" unicode="&#x17b;" horiz-adv-x="1714" 
d="M135 0v287l903 786h-876v301h1409v-252l-944 -821h964v-301h-1456zM700 1521v318h319v-318h-319z" />
    <glyph glyph-name="zdotaccent" unicode="&#x17c;" horiz-adv-x="1714" 
d="M135 0v287l903 786h-876v301h1409v-252l-944 -821h964v-301h-1456zM707 1521v318h319v-318h-319z" />
    <glyph glyph-name="Zcaron" unicode="&#x17d;" horiz-adv-x="1714" 
d="M135 0v287l903 786h-876v301h1409v-252l-944 -821h964v-301h-1456zM512 1955l348 -180l348 180l121 -188l-469 -266l-469 266z" />
    <glyph glyph-name="zcaron" unicode="&#x17e;" horiz-adv-x="1714" 
d="M135 0v287l903 786h-876v301h1409v-252l-944 -821h964v-301h-1456zM519 1955l348 -180l348 180l121 -188l-469 -266l-469 266z" />
    <glyph glyph-name="florin" unicode="&#x192;" horiz-adv-x="1806" 
d="M803 893l37 135q22 75 66.5 143.5t116.5 121.5t174.5 84.5t240.5 31.5q36 0 77.5 -3t84 -8t82.5 -13t73 -17v-311q-22 15 -46 29t-54.5 25.5t-71.5 18.5t-98 7q-43 0 -86.5 -7.5t-82.5 -28t-70.5 -56t-49.5 -91.5l-16 -61h260v-250h-332l-80 -270q-29 -96 -78.5 -177
t-129 -140.5t-192.5 -92.5t-268 -33q-32 0 -71 3t-80 9t-82 15t-76 20v310q25 -15 55.5 -30t66 -27t77.5 -19.5t90 -7.5q67 0 119.5 12.5t93.5 42.5t72 81t55 128l51 176h-225v250h297z" />
    <glyph glyph-name="AEacute" unicode="&#x1fc;" horiz-adv-x="2664" 
d="M1178 0v287h-613l-196 -287h-410l940 1374h1608v-293h-948v-227h897v-293h-897v-268h962v-293h-1343zM743 547h435v534h-70zM2071 1687l-522 -186l-90 170l481 280z" />
    <glyph glyph-name="aeacute" unicode="&#x1fd;" horiz-adv-x="3240" 
d="M3004 68q-169 -56 -337 -80.5t-345 -24.5q-260 0 -447 62.5t-302 183.5q-78 -42 -164.5 -84t-189 -75.5t-226 -55t-274.5 -21.5q-122 0 -232 21t-193 68t-132 123t-49 186q0 139 76 231.5t232 151.5t394.5 91t564.5 50v29q0 34 -18 67.5t-65.5 59t-130 41.5t-210.5 16
q-101 0 -199.5 -10.5t-190 -28.5t-173.5 -42t-149 -50v330q70 18 157 35t181 29.5t190 20t184 7.5q229 0 401.5 -50.5t268.5 -156.5q115 102 277.5 159.5t369.5 57.5q187 0 342.5 -50.5t267 -149.5t173 -244t61.5 -334v-92h-1354q18 -65 59.5 -119t112.5 -92t174.5 -59
t247.5 -21q102 0 200.5 12.5t183.5 33t153 45.5t110 50v-321zM1413 451q-8 27 -18 69t-15 107q-214 -8 -363.5 -23t-248.5 -35t-155.5 -43t-84.5 -47t-34.5 -48t-6.5 -44q0 -24 13 -46.5t45.5 -39.5t86.5 -27t136 -10q91 0 183 14.5t176.5 40t158 59.5t127.5 73zM2748 811
q-5 51 -30.5 105.5t-80 98.5t-144 72.5t-222.5 28.5q-125 0 -216 -31t-152.5 -77t-95.5 -99t-44 -98h985zM2050 1687l-522 -186l-90 170l481 280z" />
    <glyph glyph-name="Oslashacute" unicode="&#x1fe;" 
d="M1993 686q0 -177 -65 -312.5t-186 -226.5t-293.5 -137.5t-387.5 -46.5q-113 0 -213.5 12.5t-190.5 36.5l-157 -194h-293l233 286q-152 91 -234.5 236t-82.5 346q0 177 66 312.5t188 226.5t295.5 137.5t388.5 46.5q223 0 397 -49l158 194h291l-232 -286
q153 -90 235.5 -235.5t82.5 -346.5zM1618 686q0 44 -7.5 88t-25.5 86t-47 80t-72 70l-596 -736q42 -8 89.5 -12t101.5 -4q167 0 275 38t170.5 99t87 137.5t24.5 153.5zM500 686q0 -44 7.5 -88t25 -86t46 -80.5t70.5 -69.5l596 736q-40 8 -86 12t-98 4q-112 0 -197 -17.5
t-147 -48.5t-104 -72.5t-67 -89t-35.5 -99t-10.5 -101.5zM1413 1687l-522 -186l-90 170l481 280z" />
    <glyph glyph-name="oslashacute" unicode="&#x1ff;" 
d="M1993 686q0 -177 -65 -312.5t-186 -226.5t-293.5 -137.5t-387.5 -46.5q-113 0 -213.5 12.5t-190.5 36.5l-157 -194h-293l233 286q-152 91 -234.5 236t-82.5 346q0 177 66 312.5t188 226.5t295.5 137.5t388.5 46.5q223 0 397 -49l158 194h291l-232 -286
q153 -90 235.5 -235.5t82.5 -346.5zM1618 686q0 44 -7.5 88t-25.5 86t-47 80t-72 70l-596 -736q42 -8 89.5 -12t101.5 -4q167 0 275 38t170.5 99t87 137.5t24.5 153.5zM500 686q0 -44 7.5 -88t25 -86t46 -80.5t70.5 -69.5l596 736q-40 8 -86 12t-98 4q-112 0 -197 -17.5
t-147 -48.5t-104 -72.5t-67 -89t-35.5 -99t-10.5 -101.5zM1413 1687l-522 -186l-90 170l481 280z" />
    <glyph glyph-name="dotlessj" unicode="&#x237;" horiz-adv-x="1415" 
d="M1210 508q0 -137 -44.5 -236t-130 -163t-209.5 -94.5t-283 -30.5q-75 0 -154 7.5t-152 18.5t-134.5 23.5t-102.5 23.5v322q42 -17 92 -34.5t111.5 -31.5t136 -23t164.5 -9q97 0 161.5 21.5t103.5 60t55 90.5t16 114v807h370v-866z" />
    <glyph glyph-name="circumflex" unicode="&#x2c6;" horiz-adv-x="1081" 
d="M889 1139l-348 180l-348 -180l-121 188l469 266l469 -266z" />
    <glyph glyph-name="caron" unicode="&#x2c7;" horiz-adv-x="1081" 
d="M193 1593l348 -180l348 180l121 -188l-469 -266l-469 266z" />
    <glyph glyph-name="breve" unicode="&#x2d8;" horiz-adv-x="1081" 
d="M948 1552q-1 -25 -8 -64t-24 -83.5t-45.5 -89.5t-73.5 -81.5t-108 -59.5t-148 -23q-86 0 -149 23t-107.5 59.5t-73.5 81.5t-45.5 89.5t-24 83.5t-8.5 64h189q6 -18 18.5 -43t37 -48t64 -39.5t99.5 -16.5q59 0 98.5 16.5t64.5 39.5t38.5 48t19.5 43h186v0z" />
    <glyph glyph-name="dotaccent" unicode="&#x2d9;" horiz-adv-x="1081" 
d="M381 1159v318h319v-318h-319z" />
    <glyph glyph-name="ring" unicode="&#x2da;" horiz-adv-x="1081" 
d="M238 1354q0 49 19.5 92.5t57.5 76t94.5 51.5t131.5 19q74 0 130.5 -19t95 -51.5t58 -76t19.5 -92.5t-19.5 -92.5t-58 -76.5t-95 -52t-130.5 -19q-75 0 -131.5 19t-94.5 52t-57.5 76.5t-19.5 92.5zM442 1354q0 -41 25.5 -69t73.5 -28t72 28t24 69q0 40 -24 68t-72 28
t-73.5 -28t-25.5 -68z" />
    <glyph glyph-name="ogonek" unicode="&#x2db;" horiz-adv-x="1081" 
d="M637 20q-34 -24 -61 -52.5t-46.5 -58.5t-30 -59.5t-10.5 -56.5q0 -42 29 -59t92 -17q28 0 62 6t67.5 14.5t63.5 18.5t51 19v-207q-21 -6 -53.5 -15t-76 -17t-96.5 -13.5t-114 -5.5q-60 0 -115 11t-96.5 36t-66.5 65t-25 99q0 32 15 72.5t43 81t68 77t89 61.5h211z" />
    <glyph glyph-name="tilde" unicode="&#x2dc;" horiz-adv-x="1081" 
d="M934 1511q0 -96 -17 -165t-49.5 -113t-79 -65t-104.5 -21q-54 0 -91 19t-66 41.5t-55 41.5t-58 19q-30 0 -47.5 -15t-26.5 -35.5t-12 -40.5t-4 -30h-177q0 85 17.5 152.5t50.5 114.5t79.5 72t104.5 25q47 0 81.5 -19t64.5 -41.5t58.5 -41t64.5 -18.5q30 0 47.5 15
t26.5 34.5t12 39.5t4 31h176v0z" />
    <glyph glyph-name="hungarumlaut" unicode="&#x2dd;" horiz-adv-x="1081" 
d="M649 1325l-379 -186l-75 112l321 287zM1079 1325l-379 -186l-71 112l317 287z" />
    <glyph glyph-name="commaaccent" unicode="&#x326;" horiz-adv-x="1081" 
d="M600 -504h-244l50 381h327z" />
    <glyph glyph-name="mu" unicode="&#x3bc;" horiz-adv-x="1616" 
d="M645 958l-108 -557q4 -28 16 -59t33 -56.5t50.5 -42t68.5 -16.5q58 0 105.5 25t86 64.5t70 89.5t57.5 100l88 452h330l-115 -596q-8 -42 -11 -75t-3 -62q0 -34 3.5 -62.5t9.5 -54.5t13.5 -52.5t16.5 -55.5h-330q-7 22 -12 40t-9 37.5t-8 44.5t-8 62q-27 -42 -55.5 -79.5
t-65 -66t-83 -45t-107.5 -16.5q-26 0 -54 7t-54.5 23t-49.5 42t-39 64l-100 -523h-330l264 1368h330z" />
    <glyph glyph-name="Wgrave" unicode="&#x1e80;" horiz-adv-x="2687" 
d="M1550 1374l351 -954l380 954h385l-552 -1374h-412l-359 924l-358 -924h-412l-553 1374h386l372 -934l359 934h413zM1077 1951l482 -280l-90 -170l-523 186z" />
    <glyph glyph-name="wgrave" unicode="&#x1e81;" horiz-adv-x="2687" 
d="M1550 1374l351 -954l380 954h385l-552 -1374h-412l-359 924l-358 -924h-412l-553 1374h386l372 -934l359 934h413zM1077 1951l482 -280l-90 -170l-523 186z" />
    <glyph glyph-name="Wacute" unicode="&#x1e82;" horiz-adv-x="2687" 
d="M1550 1374l351 -954l380 954h385l-552 -1374h-412l-359 924l-358 -924h-412l-553 1374h386l372 -934l359 934h413zM1743 1687l-522 -186l-90 170l481 280z" />
    <glyph glyph-name="wacute" unicode="&#x1e83;" horiz-adv-x="2687" 
d="M1550 1374l351 -954l380 954h385l-552 -1374h-412l-359 924l-358 -924h-412l-553 1374h386l372 -934l359 934h413zM1743 1687l-522 -186l-90 170l481 280z" />
    <glyph glyph-name="Wdieresis" unicode="&#x1e84;" horiz-adv-x="2687" 
d="M1550 1374l351 -954l380 954h385l-552 -1374h-412l-359 924l-358 -924h-412l-553 1374h386l372 -934l359 934h413zM955 1521v311h311v-311h-311zM1417 1521v311h312v-311h-312z" />
    <glyph glyph-name="wdieresis" unicode="&#x1e85;" horiz-adv-x="2687" 
d="M1550 1374l351 -954l380 954h385l-552 -1374h-412l-359 924l-358 -924h-412l-553 1374h386l372 -934l359 934h413zM955 1521v311h311v-311h-311zM1417 1521v311h312v-311h-312z" />
    <glyph glyph-name="Ygrave" unicode="&#x1ef2;" horiz-adv-x="1784" 
d="M1077 561v-561h-370v561l-666 813h416l436 -553l434 553h416zM628 1951l482 -280l-90 -170l-523 186z" />
    <glyph glyph-name="ygrave" unicode="&#x1ef3;" horiz-adv-x="2062" 
d="M1847 528q0 -134 -66 -239t-187.5 -177.5t-294 -110.5t-386.5 -38q-94 0 -197.5 7.5t-202 21t-184.5 31t-145 38.5v326q64 -27 142.5 -51t170.5 -42.5t197.5 -29t223.5 -10.5q111 0 195.5 13t146.5 35t103 50.5t66 59t35.5 60.5t10.5 56v121q-102 -75 -243 -123.5
t-321 -48.5q-209 0 -348.5 40.5t-223.5 117t-119.5 186.5t-35.5 248v305h373v-268q0 -81 21.5 -144t68 -105.5t120.5 -64.5t179 -22q89 0 168.5 22t146.5 58t121 82t93 94v348h372v-846zM749 1951l482 -280l-90 -170l-523 186z" />
    <glyph glyph-name="endash" unicode="&#x2013;" horiz-adv-x="1024" 
d="M102 549v274h820v-274h-820z" />
    <glyph glyph-name="emdash" unicode="&#x2014;" horiz-adv-x="2048" 
d="M0 549v274h2048v-274h-2048z" />
    <glyph glyph-name="quoteleft" unicode="&#x2018;" horiz-adv-x="522" 
d="M207 1374h264l-92 -504h-328z" />
    <glyph glyph-name="quoteright" unicode="&#x2019;" horiz-adv-x="522" 
d="M315 870h-264l92 504h328z" />
    <glyph glyph-name="quotesinglbase" unicode="&#x201a;" horiz-adv-x="522" 
d="M315 -184h-264l92 503h328z" />
    <glyph glyph-name="quotedblleft" unicode="&#x201c;" horiz-adv-x="973" 
d="M207 1374h264l-92 -504h-328zM657 1374h265l-93 -504h-327z" />
    <glyph glyph-name="quotedblright" unicode="&#x201d;" horiz-adv-x="973" 
d="M766 870h-264l92 504h328zM315 870h-264l92 504h328z" />
    <glyph glyph-name="quotedblbase" unicode="&#x201e;" horiz-adv-x="973" 
d="M766 -184h-264l92 503h328zM315 -184h-264l92 503h328z" />
    <glyph glyph-name="dagger" unicode="&#x2020;" horiz-adv-x="1147" 
d="M164 1067h266v307h287v-307h266v-258h-266v-832h-287v832h-266v258z" />
    <glyph glyph-name="daggerdbl" unicode="&#x2021;" horiz-adv-x="1147" 
d="M164 1087h266v287h287v-287h266v-258h-266v-254h266v-258h-266v-340h-287v340h-266v258h266v254h-266v258z" />
    <glyph glyph-name="bullet" unicode="&#x2022;" horiz-adv-x="874" 
d="M143 705q0 60 23 113.5t62.5 93.5t93 63.5t114.5 23.5t114.5 -23.5t93.5 -63.5t63.5 -93.5t23.5 -113.5q0 -61 -23.5 -114.5t-63.5 -93t-93.5 -62.5t-114.5 -23t-114.5 23t-93 62.5t-62.5 93t-23 114.5z" />
    <glyph glyph-name="ellipsis" unicode="&#x2026;" horiz-adv-x="1751" 
d="M102 0v360h379v-360h-379zM686 0v360h379v-360h-379zM1270 0v360h379v-360h-379z" />
    <glyph glyph-name="perthousand" unicode="&#x2030;" horiz-adv-x="2933" 
d="M596 0h-279l1098 1374h277zM903 1049q0 -81 -32 -145.5t-87.5 -110.5t-130.5 -70.5t-161 -24.5t-160.5 24.5t-130 70.5t-87.5 110.5t-32 145.5q0 82 32 147t87.5 110t130 69t160.5 24t161 -24t130.5 -69t87.5 -110t32 -147zM651 1049q0 30 -11 57.5t-31 48.5t-50 34
t-67 13q-38 0 -67.5 -13t-49.5 -34t-30.5 -48.5t-10.5 -57.5q0 -29 10.5 -57t30.5 -49.5t49.5 -34.5t67.5 -13q37 0 67 13t50 34.5t31 49.5t11 57zM1929 324q0 -81 -32 -145.5t-87.5 -110.5t-130.5 -70.5t-161 -24.5t-160.5 24.5t-130 70.5t-87.5 110.5t-32 145.5
q0 82 32 147t87.5 110t130 69t160.5 24t161 -24t130.5 -69t87.5 -110t32 -147zM1677 324q0 30 -11 57.5t-31 48.5t-50 34t-67 13q-38 0 -67.5 -13t-49.5 -34t-30.5 -48.5t-10.5 -57.5q0 -29 10.5 -57t30.5 -49.5t49.5 -34.5t67.5 -13q37 0 67 13t50 34.5t31 49.5t11 57z
M2851 324q0 -81 -32 -145.5t-87.5 -110.5t-131 -70.5t-161.5 -24.5q-85 0 -159.5 24.5t-130 70.5t-87.5 110.5t-32 145.5q0 82 32 147t87.5 110t130 69t159.5 24q86 0 161.5 -24t131 -69t87.5 -110t32 -147zM2599 324q0 30 -11 57.5t-31.5 48.5t-50 34t-67.5 13t-67 -13
t-49.5 -34t-31 -48.5t-10.5 -57.5q0 -29 10.5 -57t31 -49.5t49.5 -34.5t67 -13t67.5 13t50 34.5t31.5 49.5t11 57z" />
    <glyph glyph-name="guilsinglleft" unicode="&#x2039;" horiz-adv-x="676" 
d="M61 641v90l347 377l196 -182l-237 -240l237 -240l-196 -182z" />
    <glyph glyph-name="guilsinglright" unicode="&#x203a;" horiz-adv-x="676" 
d="M614 731v-90l-346 -377l-196 182l237 240l-237 240l196 182z" />
    <glyph glyph-name="fraction" unicode="&#x2044;" horiz-adv-x="457" 
d="M-180 0h-279l1098 1374h276z" />
    <glyph glyph-name="Euro" unicode="&#x20ac;" horiz-adv-x="1874" 
d="M301 946q42 107 117 191t178.5 142.5t233.5 89t280 30.5q183 0 341 -37t280 -92v-357q-48 47 -114.5 84t-143 62.5t-158.5 39t-160 13.5q-84 0 -152.5 -12t-123 -34t-96.5 -52.5t-72 -67.5h606l-64 -190h-622q-2 -17 -3 -35t-1 -35v-26.5t2 -24.5h581l-63 -191h-447
q29 -41 71 -74.5t98.5 -58t127.5 -38t158 -13.5q78 0 160 14t158.5 40t143 63t114.5 84v-357q-61 -27 -135 -51t-155 -42t-165.5 -28t-165.5 -10q-150 0 -281.5 30t-237.5 89.5t-182.5 147.5t-115.5 204h-242l64 191h143q-2 12 -2 24.5v26.5v35t2 35h-203l64 190h182z" />
    <glyph glyph-name="trademark" unicode="&#x2122;" horiz-adv-x="1798" 
d="M463 1210v-432h-193v432h-219v164h651v-164h-239zM1421 778v361l-166 -361h-122l-166 361v-361h-193v596h240l180 -397l180 397h240v-596h-193z" />
    <glyph glyph-name="partialdiff" unicode="&#x2202;" horiz-adv-x="1774" 
d="M895 1110q-74 0 -137.5 -7t-120 -19.5t-107.5 -29.5t-100 -38l41 317q48 15 106 27t118.5 20.5t121.5 13.5t117 5q194 0 331 -43t223.5 -121t126.5 -188t40 -244q0 -197 -64.5 -351t-180.5 -260.5t-279 -162.5t-359 -56q-160 0 -282 36t-204.5 96.5t-124.5 141.5t-42 171
q0 117 42.5 211t127 159.5t210.5 100.5t294 35q85 0 161.5 -14t140 -34t111.5 -42t76 -37q0 60 -16.5 116t-60 100t-118.5 70.5t-192 26.5zM817 651q-75 0 -136 -13t-103.5 -37.5t-65.5 -61t-23 -84.5q0 -44 17.5 -80t54.5 -61.5t94 -39.5t136 -14q101 0 174.5 29t125.5 71
t84.5 89t51.5 83q-33 20 -80 41t-101.5 38.5t-113.5 28.5t-115 11z" />
    <glyph glyph-name="minus" unicode="&#x2212;" horiz-adv-x="1382" 
d="M1231 831v-292h-1079v292h1079z" />
    <glyph glyph-name="uni2215" unicode="&#x2215;" horiz-adv-x="457" 
d="M-180 0h-279l1098 1374h276z" />
    <glyph glyph-name="approxequal" unicode="&#x2248;" horiz-adv-x="1382" 
d="M1231 338q-21 -21 -50 -39t-64 -31.5t-73.5 -21.5t-78.5 -8q-62 0 -132.5 17t-143.5 37t-145 37t-136 17q-35 0 -72 -10t-71.5 -26t-64 -36.5t-48.5 -40.5v304q21 21 52 40t67 32.5t73.5 21.5t71.5 8q61 0 132.5 -17.5t145 -38t145.5 -38t136 -17.5q34 0 71 10t71.5 26.5
t64 37t49.5 41.5v-305zM1231 836q-21 -21 -50 -39.5t-64 -32t-73.5 -21.5t-78.5 -8q-62 0 -132.5 17t-143.5 37.5t-145 37.5t-136 17q-35 0 -72 -10t-71.5 -26.5t-64 -36.5t-48.5 -40v303q21 22 52 40.5t67 32.5t73.5 22t71.5 8q61 0 132.5 -17.5t145 -38t145.5 -38
t136 -17.5q34 0 71 10t71.5 26.5t64 37t49.5 41.5v-305z" />
    <glyph glyph-name="notequal" unicode="&#x2260;" horiz-adv-x="1382" 
d="M659 274l-79 -225h-244l80 225h-264v295h368l82 232h-450v293h555l79 225h244l-80 -225h281v-293h-385l-82 -232h467v-295h-572z" />
    <glyph glyph-name="lessequal" unicode="&#x2264;" horiz-adv-x="1382" 
d="M152 0v293h1079v-293h-1079zM152 698v217l1079 379v-311l-627 -176l627 -174v-311z" />
    <glyph glyph-name="greaterequal" unicode="&#x2265;" horiz-adv-x="1382" 
d="M152 0v293h1079v-293h-1079zM152 322v311l626 174l-626 176v311l1079 -379v-217z" />
    <glyph glyph-name="fi" unicode="&#xfb01;" horiz-adv-x="2476" 
d="M864 1081q-65 0 -116.5 -5t-87.5 -24t-55 -56.5t-19 -102.5v-51h1036v-293h-1036v-549h-371v924q0 106 31.5 190t105.5 141.5t196 88t304 30.5h819v-293h-807zM1890 0v1374h371v-1374h-371z" />
    <glyph glyph-name="fl" unicode="&#xfb02;" horiz-adv-x="3244" 
d="M864 1081q-65 0 -116.5 -5t-87.5 -24t-55 -56.5t-19 -102.5v-51h1036v-293h-1036v-549h-371v924q0 106 31.5 190t105.5 141.5t196 88t304 30.5h819v-293h-807zM2155 588q0 -86 16 -140.5t52 -86.5t93.5 -44t141.5 -12h704v-305h-780q-162 0 -275.5 26.5t-185.5 82
t-104.5 140.5t-32.5 202v923h371v-786z" />
    </font>
</defs>
</svg>
